<?xml version="1.0" encoding="UTF-8" standalone="no"?><!DOCTYPE svg PUBLIC "-//W3C//DTD SVG 1.1//EN" "http://www.w3.org/Graphics/SVG/1.1/DTD/svg11.dtd"><svg width="100%" height="100%" viewBox="0 0 907 1352" version="1.1" xmlns="http://www.w3.org/2000/svg" xmlns:xlink="http://www.w3.org/1999/xlink" xml:space="preserve" xmlns:serif="http://www.serif.com/" style="fill-rule:evenodd;clip-rule:evenodd;stroke-linejoin:round;"><rect id="AlmaLinux" x="0" y="0" width="906.667" height="1351.11" style="fill:none;"/><clipPath id="_clip1"><rect x="0" y="0" width="906.667" height="1351.11"/></clipPath><g clip-path="url(#_clip1)"><g id="READ-ME" serif:id="READ ME"><path id="Frame" d="M897.778,363.221c-0,-195.561 -158.771,-354.332 -354.333,-354.332l-180.224,-0c-195.561,-0 -354.332,158.771 -354.332,354.332l-0,624.669c-0,195.561 158.771,354.332 354.332,354.332l180.224,0c195.562,0 354.333,-158.771 354.333,-354.332l-0,-624.669Z" style="fill:#fff;stroke:#000;stroke-width:17.78px;"/><path id="Bottom" d="M895.371,1141.21c-0,-107.643 -87.393,-195.036 -195.036,-195.036l-494.004,0c-107.643,0 -195.035,87.393 -195.035,195.036c-0,107.643 87.392,195.036 195.035,195.036l494.004,-0c107.643,-0 195.036,-87.393 195.036,-195.036Z" style="stroke:#000;stroke-width:15.52px;"/><g id="Powered-By" serif:id="Powered By"><path id="path12547" d="M59.75,886.702l2.069,0c2.962,0 5.189,-0.588 6.681,-1.763c1.515,-1.176 2.272,-3.087 2.272,-5.732c-0,-2.464 -0.678,-4.284 -2.035,-5.46c-1.334,-1.176 -3.436,-1.763 -6.308,-1.763l-2.679,-0l0,14.718Zm21.671,-7.868c-0,2.171 -0.328,4.251 -0.984,6.24c-0.655,1.99 -1.741,3.742 -3.255,5.257c-1.493,1.515 -3.471,2.724 -5.935,3.628c-2.442,0.905 -5.472,1.357 -9.089,1.357l-2.408,-0l0,17.635l-10.513,-0l0,-49.581l13.769,-0c3.188,-0 5.935,0.362 8.241,1.085c2.328,0.701 4.239,1.718 5.731,3.052c1.515,1.312 2.634,2.928 3.358,4.85c0.723,1.899 1.085,4.058 1.085,6.477l-0,0Z" style="fill-rule:nonzero;"/><path id="path12549" d="M98.581,893.926c-0,3.775 0.531,6.624 1.594,8.546c1.062,1.899 2.792,2.848 5.189,2.848c2.373,0 4.092,-0.96 5.154,-2.882c1.063,-1.922 1.594,-4.759 1.594,-8.512c0,-3.776 -0.531,-6.591 -1.594,-8.445c-1.062,-1.876 -2.803,-2.815 -5.222,-2.815c-2.374,0 -4.092,0.939 -5.155,2.815c-1.04,1.854 -1.56,4.669 -1.56,8.445Zm24.078,-0c0,3.165 -0.407,5.968 -1.221,8.41c-0.791,2.442 -1.944,4.499 -3.459,6.172c-1.492,1.673 -3.323,2.951 -5.494,3.832c-2.148,0.86 -4.567,1.289 -7.257,1.289c-2.51,0 -4.816,-0.429 -6.918,-1.289c-2.103,-0.881 -3.923,-2.159 -5.46,-3.832c-1.515,-1.673 -2.702,-3.73 -3.561,-6.172c-0.859,-2.442 -1.289,-5.245 -1.289,-8.41c-0,-3.143 0.396,-5.935 1.187,-8.377c0.814,-2.442 1.967,-4.488 3.459,-6.138c1.515,-1.673 3.346,-2.939 5.494,-3.799c2.148,-0.859 4.578,-1.288 7.291,-1.288c2.51,-0 4.816,0.429 6.919,1.288c2.102,0.86 3.911,2.126 5.426,3.799c1.537,1.65 2.735,3.696 3.595,6.138c0.859,2.442 1.288,5.234 1.288,8.377Z" style="fill-rule:nonzero;"/><path id="path12551" d="M160.54,912.951l-2.916,-13.26c-0.091,-0.384 -0.215,-0.927 -0.373,-1.628c-0.136,-0.724 -0.294,-1.526 -0.475,-2.408c-0.181,-0.904 -0.373,-1.854 -0.576,-2.849c-0.181,-1.017 -0.373,-2.023 -0.577,-3.018c-0.452,-2.329 -0.95,-4.838 -1.492,-7.529l-0.204,0c-0.52,2.691 -0.994,5.212 -1.424,7.563c-0.181,0.995 -0.373,2.001 -0.576,3.018c-0.181,1.018 -0.362,1.979 -0.543,2.883c-0.181,0.882 -0.35,1.684 -0.509,2.408c-0.135,0.723 -0.248,1.289 -0.339,1.695l-3.052,13.125l-11.124,-0l-10.208,-37.915l10.276,-0l3.832,16.787c0.204,0.882 0.407,1.944 0.611,3.188c0.226,1.221 0.429,2.464 0.61,3.73c0.204,1.244 0.384,2.431 0.543,3.561c0.158,1.108 0.282,1.99 0.373,2.645l0.203,0c0.023,-0.43 0.068,-0.983 0.136,-1.661c0.09,-0.701 0.192,-1.447 0.305,-2.239c0.113,-0.791 0.226,-1.594 0.339,-2.408c0.136,-0.836 0.26,-1.616 0.373,-2.34c0.136,-0.723 0.249,-1.356 0.339,-1.899c0.113,-0.565 0.204,-0.961 0.272,-1.187l4.137,-18.177l11.395,-0l3.968,18.177c0.113,0.498 0.26,1.267 0.441,2.306c0.181,1.04 0.361,2.16 0.542,3.358c0.204,1.176 0.373,2.329 0.509,3.459c0.136,1.108 0.215,1.978 0.237,2.611l0.204,0c0.068,-0.565 0.181,-1.402 0.339,-2.509c0.181,-1.108 0.373,-2.295 0.576,-3.561c0.204,-1.289 0.419,-2.566 0.645,-3.832c0.249,-1.266 0.475,-2.34 0.678,-3.222l3.968,-16.787l10.14,-0l-10.343,37.915l-11.26,-0Z" style="fill-rule:nonzero;"/><path id="path12553" d="M202.898,881.683c-1.831,-0 -3.357,0.644 -4.578,1.933c-1.198,1.289 -1.888,3.312 -2.069,6.07l13.192,0c-0.022,-1.153 -0.169,-2.215 -0.441,-3.187c-0.271,-0.973 -0.678,-1.809 -1.22,-2.51c-0.543,-0.724 -1.221,-1.289 -2.035,-1.696c-0.814,-0.407 -1.764,-0.61 -2.849,-0.61l0,-0Zm1.323,31.946c-2.713,0 -5.212,-0.395 -7.495,-1.187c-2.284,-0.791 -4.251,-1.978 -5.901,-3.561c-1.65,-1.605 -2.939,-3.617 -3.866,-6.036c-0.905,-2.442 -1.357,-5.302 -1.357,-8.58c0,-3.324 0.419,-6.229 1.255,-8.716c0.837,-2.487 2.001,-4.556 3.493,-6.206c1.515,-1.673 3.324,-2.928 5.426,-3.765c2.126,-0.836 4.477,-1.254 7.054,-1.254c2.51,-0 4.771,0.384 6.783,1.152c2.035,0.747 3.753,1.855 5.155,3.324c1.424,1.47 2.509,3.278 3.255,5.426c0.769,2.125 1.153,4.567 1.153,7.325l0,5.019l-23.128,0c0.044,1.447 0.271,2.759 0.678,3.934c0.429,1.153 1.017,2.137 1.763,2.951c0.769,0.791 1.685,1.402 2.747,1.831c1.086,0.43 2.318,0.645 3.697,0.645c1.153,-0 2.238,-0.057 3.256,-0.17c1.04,-0.136 2.046,-0.328 3.018,-0.576c0.972,-0.249 1.933,-0.554 2.882,-0.916c0.95,-0.384 1.922,-0.825 2.917,-1.322l-0,8.003c-0.904,0.475 -1.82,0.882 -2.747,1.221c-0.904,0.317 -1.865,0.588 -2.883,0.814c-1.017,0.226 -2.114,0.384 -3.289,0.475c-1.176,0.113 -2.465,0.17 -3.866,0.17l-0,-0.001Z" style="fill-rule:nonzero;"/><path id="path12555" d="M247.698,874.324c0.271,-0 0.565,0.011 0.881,0.035c0.339,0 0.656,0.024 0.95,0.071c0.316,0.024 0.599,0.059 0.848,0.106c0.271,0.024 0.474,0.059 0.61,0.107l-0,9.699c-0.181,-0.047 -0.43,-0.093 -0.746,-0.136c-0.317,-0.047 -0.656,-0.083 -1.018,-0.106c-0.339,-0.048 -0.678,-0.071 -1.017,-0.071c-0.339,-0.024 -0.622,-0.036 -0.848,-0.036c-1.334,0 -2.566,0.17 -3.696,0.509c-1.108,0.34 -2.069,0.894 -2.883,1.662c-0.791,0.747 -1.413,1.741 -1.865,2.984c-0.43,1.221 -0.645,2.725 -0.645,4.511l0,19.297l-10.343,-0l-0,-37.915l7.834,-0l1.526,5.697l0.509,0c0.542,-0.972 1.13,-1.854 1.763,-2.645c0.633,-0.791 1.334,-1.458 2.103,-2.001c0.791,-0.565 1.673,-0.995 2.645,-1.289c0.995,-0.316 2.125,-0.475 3.391,-0.475l0.001,-0.004Z" style="fill-rule:nonzero;"/><path id="path12557" d="M273.404,881.683c-1.832,-0 -3.358,0.644 -4.579,1.933c-1.198,1.289 -1.887,3.312 -2.068,6.07l13.192,0c-0.023,-1.153 -0.17,-2.215 -0.441,-3.187c-0.271,-0.973 -0.678,-1.809 -1.221,-2.51c-0.542,-0.724 -1.221,-1.289 -2.035,-1.696c-0.813,-0.407 -1.763,-0.61 -2.848,-0.61l-0,-0Zm1.322,31.946c-2.713,0 -5.211,-0.395 -7.494,-1.187c-2.284,-0.791 -4.251,-1.978 -5.901,-3.561c-1.651,-1.605 -2.94,-3.617 -3.866,-6.036c-0.905,-2.442 -1.357,-5.302 -1.357,-8.58c-0,-3.324 0.418,-6.229 1.255,-8.716c0.836,-2.487 2.001,-4.556 3.493,-6.206c1.515,-1.673 3.323,-2.928 5.426,-3.765c2.125,-0.836 4.477,-1.254 7.054,-1.254c2.51,-0 4.77,0.384 6.783,1.152c2.034,0.747 3.753,1.855 5.154,3.324c1.425,1.47 2.51,3.278 3.256,5.426c0.769,2.125 1.153,4.567 1.153,7.325l0,5.019l-23.129,0c0.045,1.447 0.271,2.759 0.679,3.934c0.429,1.153 1.017,2.137 1.763,2.951c0.769,0.791 1.684,1.402 2.747,1.831c1.085,0.43 2.317,0.645 3.697,0.645c1.153,-0 2.238,-0.057 3.255,-0.17c1.04,-0.136 2.046,-0.328 3.018,-0.576c0.973,-0.249 1.934,-0.554 2.883,-0.916c0.95,-0.384 1.922,-0.825 2.917,-1.322l-0,8.003c-0.905,0.475 -1.82,0.882 -2.747,1.221c-0.905,0.317 -1.866,0.588 -2.883,0.814c-1.017,0.226 -2.114,0.384 -3.29,0.475c-1.175,0.113 -2.464,0.17 -3.866,0.17l0,-0.001Z" style="fill-rule:nonzero;"/><path id="path12559" d="M309.589,913.629c-1.944,0 -3.719,-0.418 -5.324,-1.255c-1.605,-0.836 -2.985,-2.068 -4.138,-3.696c-1.153,-1.651 -2.057,-3.697 -2.713,-6.138c-0.633,-2.442 -0.949,-5.268 -0.949,-8.479c-0,-3.255 0.316,-6.104 0.949,-8.546c0.656,-2.464 1.572,-4.522 2.747,-6.172c1.199,-1.673 2.623,-2.928 4.273,-3.765c1.651,-0.836 3.471,-1.254 5.46,-1.254c1.221,-0 2.34,0.146 3.358,0.44c1.017,0.272 1.933,0.668 2.747,1.187c0.814,0.498 1.537,1.086 2.17,1.764c0.656,0.656 1.232,1.379 1.73,2.17l0.339,0c-0.136,-0.882 -0.26,-1.775 -0.373,-2.679c-0.113,-0.769 -0.215,-1.582 -0.305,-2.442c-0.068,-0.882 -0.102,-1.695 -0.102,-2.442l0,-12.141l10.344,0l-0,52.77l-7.902,-0l-2.001,-4.918l-0.441,0c-0.475,0.769 -1.017,1.503 -1.628,2.205c-0.61,0.677 -1.323,1.265 -2.136,1.763c-0.792,0.498 -1.696,0.893 -2.713,1.187c-0.995,0.294 -2.126,0.44 -3.392,0.44l0,0.001Zm3.765,-8.241c1.22,0 2.26,-0.203 3.12,-0.61c0.859,-0.43 1.548,-1.063 2.068,-1.899c0.543,-0.86 0.939,-1.922 1.187,-3.188c0.272,-1.266 0.419,-2.747 0.441,-4.443l0,-1.12c0,-1.831 -0.113,-3.459 -0.339,-4.883c-0.226,-1.425 -0.599,-2.612 -1.119,-3.561c-0.52,-0.972 -1.221,-1.707 -2.103,-2.204c-0.881,-0.498 -1.989,-0.747 -3.323,-0.747c-2.171,0 -3.764,0.984 -4.782,2.951c-1.017,1.944 -1.526,4.781 -1.526,8.512c0,3.73 0.509,6.534 1.526,8.41c1.04,1.854 2.657,2.781 4.85,2.781l-0,0.001Z" style="fill-rule:nonzero;"/><path id="path12561" d="M378.908,874.324c1.944,-0 3.719,0.418 5.324,1.254c1.606,0.837 2.985,2.08 4.138,3.731c1.153,1.65 2.046,3.697 2.679,6.138c0.656,2.442 0.983,5.268 0.983,8.479c0,3.255 -0.327,6.115 -0.983,8.58c-0.633,2.441 -1.538,4.487 -2.713,6.138c-1.176,1.65 -2.589,2.894 -4.239,3.73c-1.651,0.837 -3.471,1.255 -5.46,1.255c-1.266,0 -2.397,-0.136 -3.392,-0.407c-0.972,-0.272 -1.842,-0.634 -2.611,-1.086c-0.769,-0.452 -1.447,-0.96 -2.035,-1.526c-0.565,-0.588 -1.085,-1.198 -1.56,-1.831l-0.712,-0l-1.73,4.171l-7.901,0l-0,-52.769l10.343,0l0,12.277c0,0.746 -0.022,1.56 -0.067,2.442c-0.045,0.859 -0.09,1.661 -0.136,2.407c-0.068,0.882 -0.135,1.764 -0.203,2.646l0.407,-0c0.474,-0.792 1.017,-1.526 1.627,-2.205c0.611,-0.678 1.312,-1.266 2.103,-1.763c0.814,-0.52 1.73,-0.927 2.747,-1.221c1.017,-0.294 2.148,-0.441 3.391,-0.441l-0,0.001Zm-3.493,8.275c-1.153,-0 -2.137,0.215 -2.951,0.644c-0.791,0.408 -1.435,1.029 -1.933,1.866c-0.497,0.836 -0.859,1.899 -1.085,3.188c-0.226,1.266 -0.362,2.746 -0.407,4.442l0,1.12c0,1.831 0.102,3.459 0.305,4.883c0.226,1.425 0.588,2.623 1.086,3.595c0.497,0.95 1.153,1.673 1.967,2.171c0.836,0.497 1.865,0.746 3.086,0.746c2.057,-0 3.561,-0.972 4.51,-2.917c0.972,-1.967 1.458,-4.815 1.458,-8.546c0,-3.73 -0.486,-6.522 -1.458,-8.376c-0.949,-1.877 -2.476,-2.815 -4.578,-2.815l-0,-0.001Z" style="fill-rule:nonzero;"/><path id="path12563" d="M395.492,875.036l11.327,-0l6.104,21.331c0.361,1.176 0.621,2.431 0.779,3.765c0.182,1.334 0.295,2.532 0.339,3.594l0.204,0c0.047,-0.519 0.104,-1.096 0.17,-1.729c0.09,-0.633 0.192,-1.278 0.304,-1.933c0.114,-0.656 0.238,-1.3 0.374,-1.933c0.158,-0.656 0.316,-1.244 0.474,-1.764l5.969,-21.331l11.395,-0l-14.99,42.764c-1.401,4.002 -3.312,6.975 -5.731,8.92c-2.419,1.944 -5.449,2.916 -9.089,2.916c-1.175,0 -2.193,-0.068 -3.052,-0.203c-0.859,-0.113 -1.594,-0.238 -2.204,-0.373l-0,-8.207c0.475,0.113 1.074,0.215 1.797,0.305c0.724,0.09 1.481,0.135 2.272,0.135c1.086,0 2.013,-0.146 2.781,-0.44c0.769,-0.294 1.425,-0.712 1.967,-1.255c0.565,-0.52 1.04,-1.153 1.425,-1.899c0.407,-0.747 0.757,-1.583 1.051,-2.51l0.645,-1.899l-14.311,-38.254Z" style="fill-rule:nonzero;"/></g></g><g id="AlmaLinux1" serif:id="AlmaLinux"><g id="AlmaLinux2" serif:id="AlmaLinux"><path id="path4" d="M128.444,1201.7l-7.272,-21.817l-48.482,0l-7.272,21.817l-25.972,-0l42.248,-121.204l29.782,0l42.594,121.204l-25.626,-0Zm-48.135,-44.326l33.244,0l-16.622,-49.52l-16.622,49.52Z" style="fill:#fff;fill-rule:nonzero;"/><rect id="path6" x="165.152" y="1075.3" width="22.509" height="126.398" style="fill:#fff;fill-rule:nonzero;"/><path id="path8" d="M303.67,1112.7c10.043,-0 17.661,3.116 23.548,9.696c5.887,6.58 9.004,15.237 9.004,25.972l0,53.33l-22.163,-0l0,-51.944c0,-5.195 -1.385,-9.35 -3.809,-12.121c-2.424,-2.77 -6.234,-4.155 -10.735,-4.155c-5.195,-0 -9.004,1.731 -11.775,5.194c-2.77,3.463 -4.155,8.311 -4.155,14.544l-0,48.482l-22.163,-0l-0,-51.944c-0,-5.195 -1.385,-9.35 -3.809,-12.121c-2.424,-2.77 -6.234,-4.155 -10.735,-4.155c-4.849,-0 -9.004,1.731 -12.121,5.194c-2.77,3.463 -4.155,8.311 -4.155,14.544l-0,48.482l-22.163,-0l-0,-86.574l22.163,-0l-0,9.004c5.194,-7.619 13.159,-11.775 24.24,-11.775c10.736,0 18.354,4.156 23.548,12.467c5.195,-7.965 13.852,-12.12 25.28,-12.12Z" style="fill:#fff;fill-rule:nonzero;"/><path id="path10-9" d="M421.065,1115.12l22.163,-0l-0,86.574l-22.163,-0l-0,-10.389c-6.58,8.311 -16.276,12.813 -28.397,12.813c-11.427,0 -21.47,-4.502 -29.781,-13.159c-8.311,-9.004 -12.467,-19.739 -12.467,-32.552c0,-12.813 4.156,-23.548 12.467,-32.552c8.311,-9.004 18.354,-13.506 29.781,-13.506c12.121,0 21.471,4.156 28.397,12.813l-0,-10.042Zm-41.21,60.948c4.502,4.502 10.043,6.926 16.969,6.926c6.926,-0 12.813,-2.078 17.315,-6.926c4.502,-4.502 6.926,-10.389 6.926,-17.661c-0,-7.272 -2.424,-13.159 -6.926,-17.315c-4.502,-4.502 -10.389,-6.926 -17.315,-6.926c-6.926,0 -12.467,2.424 -16.969,6.926c-4.501,4.502 -6.579,10.389 -6.579,17.315c-0,6.926 2.078,13.159 6.579,17.661Z" style="fill:#fff;fill-rule:nonzero;"/><path id="path12-4" d="M488.592,1178.84l46.058,0l-0,22.856l-69.952,-0l0,-121.204l23.894,0l0,98.348Z" style="fill:#fff;fill-rule:nonzero;"/><path id="path14-9" d="M558.544,1104.74c-3.809,-0 -6.926,-1.385 -9.696,-3.809c-2.77,-2.771 -4.155,-5.887 -4.155,-9.697c-0,-3.809 1.385,-6.926 4.155,-9.696c2.77,-2.77 5.887,-4.155 9.696,-4.155c3.81,-0 6.926,1.385 9.697,4.155c2.77,2.77 4.155,5.887 4.155,9.696c0,3.81 -1.385,6.926 -4.155,9.697c-2.771,2.424 -5.887,3.809 -9.697,3.809Zm-11.081,96.963l-0,-86.574l22.509,-0l0,86.574l-22.509,-0Z" style="fill:#fff;fill-rule:nonzero;"/><path id="path16-0" d="M638.193,1112.7c9.35,-0 17.314,3.116 23.548,9.696c6.233,6.233 9.35,15.237 9.35,26.319l-0,52.983l-22.163,-0l-0,-50.559c-0,-5.887 -1.732,-10.043 -4.848,-13.16c-3.117,-3.116 -7.273,-4.848 -12.467,-4.848c-5.887,0 -10.389,1.732 -13.852,5.541c-3.463,3.809 -5.194,9.004 -5.194,16.276l-0,46.75l-22.163,-0l-0,-86.574l22.163,-0l-0,9.696c5.54,-7.965 13.851,-12.12 25.626,-12.12Z" style="fill:#fff;fill-rule:nonzero;"/><path id="path18-9" d="M747.276,1115.12l22.509,-0l0,86.574l-22.509,-0l-0,-9.696c-5.541,7.965 -13.852,12.12 -25.626,12.12c-9.35,0 -17.315,-3.117 -23.548,-9.696c-6.233,-6.234 -9.004,-15.237 -9.004,-26.319l0,-52.983l22.509,-0l0,50.213c0,5.887 1.386,10.389 4.502,13.505c3.117,3.117 7.273,4.502 12.467,4.502c5.887,0 10.389,-1.731 13.852,-5.194c3.463,-3.463 5.194,-9.004 5.194,-16.276l0,-46.75l-0.346,-0Z" style="fill:#fff;fill-rule:nonzero;"/><path id="path20" d="M869.865,1201.7l-25.972,-0l-18.7,-26.319l-19.047,26.319l-25.626,-0l31.513,-44.326l-30.474,-42.248l25.626,-0l17.661,24.241l17.315,-24.241l25.626,-0l-30.474,42.248l32.552,44.326Z" style="fill:#fff;fill-rule:nonzero;"/></g><g id="Logo"><path id="path22-1" d="M732.678,522.396c28.308,-2.178 51.172,16.331 53.35,44.639c2.177,29.397 -18.51,53.35 -46.818,55.528c-27.219,2.177 -51.172,-18.509 -53.35,-45.729c-2.177,-29.396 17.421,-51.172 46.818,-54.438Z" style="fill:#86da2f;fill-rule:nonzero;"/><path id="path24" d="M388.625,754.305c0,-28.309 21.776,-50.084 47.906,-50.084c26.131,-0 51.173,23.953 51.173,51.172c-0,26.131 -21.776,48.995 -46.818,50.084c-31.574,-0 -52.261,-19.598 -52.261,-51.172Z" style="fill:#24c2ff;fill-rule:nonzero;"/><path id="path26" d="M465.928,436.383c-4.355,2.177 -6.533,-1.089 -7.621,-4.355c-40.285,-75.126 -28.308,-169.849 42.462,-226.465c18.509,-15.243 53.35,-18.51 68.593,-3.267c6.532,5.444 7.621,11.977 8.71,19.598c2.177,16.332 5.444,32.663 16.331,45.729c11.977,14.154 27.22,19.598 44.64,18.509c15.243,-0 30.486,-2.178 40.285,15.243c5.444,9.799 3.266,47.906 -5.444,55.527c-4.355,3.266 -7.622,1.089 -10.888,0c-25.042,-9.799 -51.172,-9.799 -77.303,-5.444c-8.71,1.089 -13.065,-1.088 -13.065,-10.887c-1.089,-16.332 -4.355,-31.575 -13.065,-45.729c-16.332,-29.397 -46.818,-30.486 -66.416,-3.266c-16.331,21.775 -20.686,47.906 -25.041,74.036c-4.355,22.865 -3.267,46.818 -2.178,70.771c0,-0 -1.089,-0 0,-0Z" style="fill:#ffcb12;fill-rule:nonzero;"/><path id="path28" d="M493.147,452.714c-2.177,-3.266 -1.088,-6.532 2.178,-8.71c62.06,-56.616 154.606,-67.504 226.465,-11.976c18.509,15.242 30.486,46.817 20.687,65.326c-4.356,7.621 -9.799,10.888 -16.332,13.065c-15.243,6.533 -29.397,13.066 -39.196,27.22c-9.799,14.154 -11.976,30.485 -7.621,47.906c3.266,14.154 8.71,29.397 -5.444,42.462c-7.622,7.621 -44.64,14.154 -54.439,7.621c-4.355,-3.266 -3.266,-6.532 -2.177,-10.888c3.266,-27.219 -3.267,-52.261 -13.066,-76.214c-3.266,-8.71 -2.177,-13.065 6.533,-15.243c15.243,-4.355 29.397,-11.976 40.285,-22.864c23.953,-22.864 18.509,-52.261 -13.066,-65.326c-25.041,-10.888 -51.172,-8.71 -76.214,-6.533c-23.953,1.089 -46.817,7.622 -68.593,14.154Z" style="fill:#86da2f;fill-rule:nonzero;"/><path id="path30" d="M478.993,481.022c3.267,-3.266 5.444,-2.177 8.711,0c71.859,43.551 108.877,129.564 76.214,213.4c-8.71,21.775 -37.019,43.551 -57.705,38.107c-8.71,-2.177 -13.066,-6.533 -17.421,-11.976c-9.799,-13.066 -20.686,-25.042 -37.018,-30.486c-17.42,-5.444 -32.663,-2.178 -47.906,6.533c-13.065,7.621 -26.131,17.42 -42.462,7.621c-9.799,-5.444 -26.131,-39.196 -22.864,-50.084c2.177,-4.355 6.532,-4.355 10.887,-4.355c27.22,-4.355 48.995,-17.42 69.682,-34.84c6.532,-5.444 11.976,-5.444 17.42,2.177c8.71,13.065 19.598,23.953 33.752,31.574c28.308,16.332 55.528,2.178 58.794,-30.485c3.266,-27.22 -6.533,-51.173 -15.243,-75.126c-9.799,-21.775 -21.775,-42.462 -34.841,-62.06Z" style="fill:#24c2ff;fill-rule:nonzero;"/><path id="path32-7" d="M444.153,487.555c-4.356,21.775 -14.154,42.462 -27.22,60.971c-39.196,58.794 -95.812,82.747 -165.493,76.214c-25.042,-2.177 -45.729,-22.864 -47.906,-43.55c-1.089,-8.711 1.088,-15.243 6.532,-21.776c7.622,-9.799 14.154,-18.509 17.421,-30.486c6.532,-23.953 -2.178,-43.551 -19.598,-60.971c-23.953,-23.953 -20.687,-45.728 7.621,-63.149c3.266,-2.177 7.622,-4.355 11.977,-6.532c6.532,-3.267 11.976,-3.267 14.154,4.355c9.799,25.041 29.397,43.551 51.172,58.793c7.621,6.533 7.621,10.888 1.089,18.51c-13.065,14.154 -20.687,31.574 -21.776,51.172c-2.177,23.953 11.977,39.196 35.93,39.196c15.243,-0 29.397,-5.444 42.462,-11.977c33.752,-17.42 59.883,-42.462 84.924,-68.592c3.267,-1.089 4.355,-3.267 8.711,-2.178Z" style="fill:#0069da;fill-rule:nonzero;"/><path id="path34-7" d="M265.594,258.913c2.177,-0 7.621,1.088 13.065,2.177c40.285,7.622 65.326,-6.533 78.392,-44.64c8.71,-25.041 27.219,-32.663 51.172,-19.598c1.089,0 1.089,1.089 2.178,1.089c25.041,14.154 25.041,16.332 9.799,38.107c-13.066,17.421 -19.598,37.019 -22.865,57.705c-2.177,11.977 -6.532,14.154 -17.42,9.799c-17.42,-6.532 -35.93,-6.532 -54.439,0c-20.686,6.533 -29.397,25.042 -22.864,45.729c8.71,27.219 32.663,39.196 53.35,53.35c20.687,14.154 44.64,21.775 67.504,31.574c3.266,1.089 8.71,1.089 7.621,6.533c-1.088,3.266 -5.444,3.266 -9.799,3.266c-48.994,2.178 -95.812,-5.444 -133.919,-38.107c-35.929,-29.397 -62.06,-65.326 -57.705,-115.41c3.267,-16.332 15.243,-28.308 35.93,-31.574Z" style="fill:#ff4649;fill-rule:nonzero;"/><path id="path36" d="M176.314,564.858c-26.13,3.266 -52.261,-18.509 -54.438,-45.729c-2.178,-26.13 19.598,-52.261 44.639,-54.438c28.308,-3.267 54.439,16.331 56.617,42.462c1.088,25.042 -15.243,55.527 -46.818,57.705Z" style="fill:#0069da;fill-rule:nonzero;"/><path id="path38-1" d="M633.599,177.255c27.22,-2.178 53.35,19.597 55.528,46.817c2.177,26.13 -19.598,51.172 -45.729,53.35c-28.308,2.177 -53.35,-18.509 -55.527,-45.729c-2.178,-27.219 17.42,-52.261 45.728,-54.438Z" style="fill:#ffcb12;fill-rule:nonzero;"/><path id="path40" d="M349.429,197.941c3.267,28.308 -16.331,52.261 -45.728,56.616c-25.042,3.267 -51.173,-17.42 -54.439,-41.373c-3.266,-31.574 14.154,-54.439 43.551,-57.705c27.219,-3.266 53.35,17.42 56.616,42.462Z" style="fill:#ff4649;fill-rule:nonzero;"/></g></g></g></svg>