<?xml version="1.0" encoding="UTF-8" standalone="no"?><!DOCTYPE svg PUBLIC "-//W3C//DTD SVG 1.1//EN" "http://www.w3.org/Graphics/SVG/1.1/DTD/svg11.dtd"><svg width="100%" height="100%" viewBox="0 0 907 1352" version="1.1" xmlns="http://www.w3.org/2000/svg" xmlns:xlink="http://www.w3.org/1999/xlink" xml:space="preserve" xmlns:serif="http://www.serif.com/" style="fill-rule:evenodd;clip-rule:evenodd;stroke-linejoin:round;stroke-miterlimit:2;"><rect id="ArchLabs" x="0" y="0" width="906.667" height="1351.11" style="fill:none;"/><clipPath id="_clip1"><rect x="0" y="0" width="906.667" height="1351.11"/></clipPath><g clip-path="url(#_clip1)"><g id="ArchLabs1" serif:id="ArchLabs"><g><g id="Frame"><path id="path36023" d="M363.226,8.892l180.223,-0c196.3,-0 354.331,36.928 354.331,82.799l0,1167.73c0,45.871 -158.031,82.8 -354.331,82.8l-180.223,-0c-196.299,-0 -354.331,-36.929 -354.331,-82.8l0,-1167.73c0,-45.871 158.032,-82.799 354.331,-82.799Z" style="fill:#fff;fill-rule:nonzero;"/><path id="path36025" d="M363.234,0c-98.707,0 -187.781,9.234 -252.806,24.429c-32.512,7.598 -58.999,16.618 -78.086,27.198c-9.544,5.29 -17.286,10.978 -22.976,17.509c-5.69,6.53 -9.366,14.275 -9.366,22.561l0,1167.72c0,8.285 3.676,16.03 9.366,22.56c5.69,6.531 13.432,12.219 22.976,17.509c19.087,10.581 45.574,19.6 78.086,27.198c65.025,15.195 154.099,24.429 252.806,24.429l180.209,0c98.707,0 187.781,-9.234 252.806,-24.429c32.512,-7.598 58.999,-16.617 78.086,-27.198c9.544,-5.29 17.286,-10.978 22.976,-17.509c5.69,-6.53 9.366,-14.275 9.366,-22.56l-0,-1167.72c-0,-8.286 -3.676,-16.031 -9.366,-22.561c-5.69,-6.531 -13.432,-12.219 -22.976,-17.509c-19.087,-10.58 -45.574,-19.6 -78.086,-27.198c-65.025,-15.195 -154.099,-24.429 -252.806,-24.429l-180.209,0Zm-0,17.786l180.209,-0c97.593,-0 185.703,9.231 248.769,23.968c31.533,7.368 56.818,16.176 73.496,25.421c8.339,4.622 14.481,9.365 18.201,13.633c3.719,4.269 4.982,7.706 4.982,10.889l0,1167.72c0,3.182 -1.263,6.619 -4.982,10.888c-3.72,4.269 -9.862,9.011 -18.201,13.633c-16.678,9.245 -41.963,18.053 -73.496,25.421c-63.066,14.738 -151.176,23.969 -248.769,23.969l-180.209,-0c-97.593,-0 -185.703,-9.231 -248.769,-23.969c-31.533,-7.368 -56.818,-16.176 -73.496,-25.421c-8.339,-4.622 -14.481,-9.364 -18.201,-13.633c-3.719,-4.269 -4.982,-7.706 -4.982,-10.888l-0,-1167.72c-0,-3.183 1.263,-6.62 4.982,-10.889c3.72,-4.268 9.862,-9.011 18.201,-13.633c16.678,-9.245 41.963,-18.053 73.496,-25.421c63.066,-14.737 151.176,-23.968 248.769,-23.968Z" style="fill-rule:nonzero;"/></g><g id="Bottom"><path id="path35979" d="M371.606,946.173l163.464,0c199.608,0 360.304,38.151 360.304,85.54l-0,218.99c-0,47.389 -160.696,85.54 -360.304,85.54l-163.464,-0c-199.609,-0 -360.304,-38.151 -360.304,-85.54l-0,-218.99c-0,-47.389 160.695,-85.54 360.304,-85.54Z" style="fill-rule:nonzero;"/><path id="path35981" d="M371.607,938.419c-100.298,0 -190.804,9.547 -256.796,25.214c-32.996,7.833 -59.838,17.123 -79.078,27.958c-19.241,10.836 -32.18,23.883 -32.18,40.116l-0,218.988c-0,16.233 12.939,29.303 32.18,40.139c19.24,10.835 46.082,20.125 79.078,27.958c65.992,15.667 156.498,25.214 256.796,25.214l163.463,0c100.298,0 190.804,-9.547 256.796,-25.214c32.996,-7.833 59.838,-17.123 79.078,-27.958c19.241,-10.836 32.18,-23.906 32.18,-40.139l0,-218.988c0,-16.233 -12.939,-29.28 -32.18,-40.116c-19.24,-10.835 -46.082,-20.125 -79.078,-27.958c-65.992,-15.667 -156.498,-25.214 -256.796,-25.214l-163.463,0Zm0,15.525l163.463,-0c99.309,-0 188.962,9.52 253.22,24.775c32.129,7.628 57.914,16.745 75.042,26.39c17.127,9.646 24.291,19.137 24.291,26.598l-0,218.988c-0,7.461 -7.164,16.952 -24.291,26.598c-17.128,9.645 -42.913,18.762 -75.042,26.39c-64.258,15.255 -153.911,24.798 -253.22,24.798l-163.463,0c-99.309,0 -188.962,-9.543 -253.22,-24.798c-32.129,-7.628 -57.914,-16.745 -75.042,-26.39c-17.127,-9.646 -24.291,-19.137 -24.291,-26.598l0,-218.988c0,-7.461 7.164,-16.952 24.291,-26.598c17.128,-9.645 42.913,-18.762 75.042,-26.39c64.258,-15.255 153.911,-24.775 253.22,-24.775Z" style="fill-rule:nonzero;"/></g><g id="Powered-By" serif:id="Powered By"><path id="path12547" d="M59.756,886.701l2.069,0c2.962,0 5.189,-0.588 6.681,-1.763c1.515,-1.176 2.272,-3.086 2.272,-5.732c-0,-2.464 -0.678,-4.284 -2.035,-5.46c-1.334,-1.175 -3.436,-1.763 -6.308,-1.763l-2.679,-0l0,14.718Zm21.671,-7.868c-0,2.171 -0.328,4.251 -0.984,6.24c-0.656,1.99 -1.741,3.742 -3.256,5.257c-1.492,1.515 -3.47,2.724 -5.934,3.629c-2.442,0.904 -5.472,1.356 -9.089,1.356l-2.408,0l0,17.635l-10.513,-0l0,-49.581l13.769,-0c3.188,-0 5.935,0.362 8.241,1.085c2.328,0.701 4.239,1.719 5.731,3.053c1.515,1.311 2.634,2.927 3.357,4.849c0.724,1.899 1.086,4.058 1.086,6.478l-0,-0.001Z" style="fill-rule:nonzero;"/><path id="path12549" d="M98.587,893.925c-0,3.775 0.531,6.624 1.594,8.546c1.062,1.899 2.792,2.848 5.188,2.848c2.374,0 4.093,-0.96 5.155,-2.882c1.063,-1.922 1.594,-4.759 1.594,-8.512c0,-3.776 -0.531,-6.591 -1.594,-8.445c-1.062,-1.876 -2.803,-2.814 -5.223,-2.814c-2.373,-0 -4.092,0.938 -5.154,2.814c-1.04,1.854 -1.56,4.669 -1.56,8.445Zm24.078,-0c0,3.165 -0.407,5.968 -1.221,8.41c-0.791,2.442 -1.944,4.499 -3.459,6.172c-1.492,1.673 -3.323,2.951 -5.494,3.833c-2.148,0.859 -4.567,1.288 -7.257,1.288c-2.51,0 -4.816,-0.429 -6.919,-1.288c-2.102,-0.882 -3.922,-2.16 -5.46,-3.833c-1.514,-1.673 -2.701,-3.73 -3.56,-6.172c-0.86,-2.442 -1.289,-5.245 -1.289,-8.41c-0,-3.143 0.395,-5.935 1.187,-8.377c0.814,-2.442 1.967,-4.488 3.459,-6.138c1.515,-1.673 3.346,-2.939 5.494,-3.798c2.148,-0.86 4.578,-1.289 7.291,-1.289c2.51,-0 4.816,0.429 6.918,1.289c2.103,0.859 3.912,2.125 5.427,3.798c1.537,1.65 2.735,3.696 3.594,6.138c0.859,2.442 1.289,5.234 1.289,8.377Z" style="fill-rule:nonzero;"/><path id="path12551" d="M160.546,912.95l-2.917,-13.26c-0.09,-0.384 -0.214,-0.927 -0.373,-1.628c-0.135,-0.724 -0.293,-1.526 -0.474,-2.408c-0.181,-0.904 -0.373,-1.854 -0.577,-2.848c-0.181,-1.018 -0.373,-2.024 -0.576,-3.019c-0.453,-2.328 -0.95,-4.838 -1.492,-7.528l-0.204,-0c-0.52,2.69 -0.995,5.211 -1.424,7.562c-0.181,0.995 -0.373,2.001 -0.577,3.019c-0.181,1.017 -0.362,1.978 -0.542,2.882c-0.181,0.882 -0.351,1.684 -0.509,2.408c-0.136,0.723 -0.249,1.289 -0.339,1.696l-3.052,13.124l-11.124,-0l-10.208,-37.915l10.276,0l3.832,16.787c0.203,0.882 0.407,1.944 0.61,3.188c0.226,1.221 0.43,2.464 0.611,3.73c0.203,1.244 0.384,2.431 0.542,3.561c0.159,1.108 0.283,1.99 0.373,2.645l0.204,0c0.023,-0.429 0.068,-0.983 0.136,-1.661c0.09,-0.701 0.192,-1.447 0.305,-2.239c0.113,-0.791 0.226,-1.593 0.339,-2.407c0.135,-0.837 0.26,-1.617 0.373,-2.34c0.136,-0.724 0.249,-1.357 0.339,-1.9c0.113,-0.565 0.204,-0.961 0.271,-1.187l4.138,-18.177l11.395,0l3.967,18.177c0.113,0.498 0.26,1.267 0.441,2.307c0.181,1.04 0.362,2.159 0.543,3.357c0.203,1.176 0.373,2.329 0.509,3.459c0.135,1.108 0.214,1.978 0.237,2.611l0.203,0c0.068,-0.565 0.181,-1.401 0.34,-2.509c0.18,-1.108 0.373,-2.295 0.576,-3.561c0.203,-1.289 0.418,-2.566 0.644,-3.832c0.249,-1.266 0.475,-2.34 0.679,-3.222l3.968,-16.787l10.14,0l-10.344,37.915l-11.259,-0Z" style="fill-rule:nonzero;"/><path id="path12553" d="M202.903,881.682c-1.831,0 -3.357,0.644 -4.578,1.933c-1.198,1.289 -1.888,3.312 -2.068,6.071l13.192,-0c-0.023,-1.153 -0.17,-2.216 -0.441,-3.188c-0.272,-0.972 -0.678,-1.809 -1.221,-2.51c-0.543,-0.723 -1.221,-1.289 -2.035,-1.695c-0.814,-0.408 -1.763,-0.611 -2.849,-0.611l0,0Zm1.323,31.946c-2.713,0 -5.211,-0.395 -7.495,-1.187c-2.283,-0.791 -4.25,-1.978 -5.901,-3.561c-1.65,-1.605 -2.939,-3.617 -3.866,-6.036c-0.904,-2.442 -1.356,-5.302 -1.356,-8.58c-0,-3.324 0.418,-6.229 1.255,-8.716c0.836,-2.487 2,-4.555 3.493,-6.206c1.514,-1.673 3.323,-2.928 5.426,-3.764c2.125,-0.837 4.476,-1.255 7.054,-1.255c2.509,-0 4.77,0.384 6.782,1.153c2.035,0.746 3.753,1.854 5.155,3.323c1.424,1.47 2.51,3.278 3.256,5.426c0.768,2.125 1.153,4.567 1.153,7.325l-0,5.02l-23.129,-0c0.045,1.447 0.271,2.758 0.678,3.934c0.43,1.153 1.018,2.136 1.764,2.95c0.768,0.791 1.684,1.402 2.747,1.831c1.085,0.43 2.317,0.645 3.696,0.645c1.153,0 2.239,-0.057 3.256,-0.17c1.04,-0.135 2.046,-0.328 3.018,-0.576c0.972,-0.249 1.933,-0.554 2.883,-0.916c0.949,-0.384 1.922,-0.825 2.916,-1.322l0,8.003c-0.904,0.475 -1.82,0.882 -2.747,1.221c-0.904,0.317 -1.865,0.588 -2.882,0.814c-1.018,0.226 -2.114,0.384 -3.29,0.475c-1.175,0.113 -2.464,0.17 -3.866,0.17l0,-0.001Z" style="fill-rule:nonzero;"/><path id="path12555" d="M247.703,874.323c0.271,-0 0.565,0.012 0.881,0.035c0.34,0 0.656,0.024 0.95,0.071c0.317,0.024 0.599,0.059 0.848,0.106c0.271,0.024 0.475,0.059 0.61,0.107l0,9.699c-0.181,-0.047 -0.429,-0.093 -0.746,-0.136c-0.316,-0.047 -0.656,-0.083 -1.017,-0.106c-0.339,-0.047 -0.679,-0.071 -1.018,-0.071c-0.339,-0.024 -0.621,-0.036 -0.847,-0.036c-1.334,0 -2.567,0.17 -3.697,0.51c-1.108,0.339 -2.069,0.893 -2.883,1.661c-0.791,0.747 -1.413,1.742 -1.865,2.985c-0.429,1.22 -0.644,2.724 -0.644,4.51l-0,19.297l-10.344,-0l0,-37.915l7.834,-0l1.526,5.697l0.509,0c0.543,-0.972 1.13,-1.854 1.763,-2.645c0.633,-0.791 1.334,-1.458 2.103,-2.001c0.791,-0.565 1.673,-0.995 2.645,-1.289c0.995,-0.316 2.125,-0.474 3.392,-0.474l-0,-0.005Z" style="fill-rule:nonzero;"/><path id="path12557" d="M273.409,881.682c-1.831,0 -3.358,0.644 -4.578,1.933c-1.199,1.289 -1.888,3.312 -2.069,6.071l13.192,-0c-0.023,-1.153 -0.17,-2.216 -0.441,-3.188c-0.271,-0.972 -0.678,-1.809 -1.221,-2.51c-0.542,-0.723 -1.221,-1.289 -2.034,-1.695c-0.814,-0.408 -1.764,-0.611 -2.849,-0.611l-0,0Zm1.322,31.946c-2.713,0 -5.211,-0.395 -7.494,-1.187c-2.284,-0.791 -4.251,-1.978 -5.901,-3.561c-1.651,-1.605 -2.939,-3.617 -3.866,-6.036c-0.905,-2.442 -1.357,-5.302 -1.357,-8.58c0,-3.324 0.418,-6.229 1.255,-8.716c0.836,-2.487 2.001,-4.555 3.493,-6.206c1.515,-1.673 3.323,-2.928 5.426,-3.764c2.125,-0.837 4.477,-1.255 7.054,-1.255c2.51,-0 4.77,0.384 6.783,1.153c2.034,0.746 3.753,1.854 5.154,3.323c1.425,1.47 2.51,3.278 3.256,5.426c0.769,2.125 1.153,4.567 1.153,7.325l0,5.02l-23.129,-0c0.045,1.447 0.271,2.758 0.679,3.934c0.429,1.153 1.017,2.136 1.763,2.95c0.769,0.791 1.685,1.402 2.747,1.831c1.085,0.43 2.318,0.645 3.697,0.645c1.153,0 2.238,-0.057 3.255,-0.17c1.04,-0.135 2.046,-0.328 3.019,-0.576c0.972,-0.249 1.933,-0.554 2.882,-0.916c0.95,-0.384 1.922,-0.825 2.917,-1.322l-0,8.003c-0.905,0.475 -1.82,0.882 -2.747,1.221c-0.905,0.317 -1.865,0.588 -2.883,0.814c-1.017,0.226 -2.114,0.384 -3.289,0.475c-1.176,0.113 -2.465,0.17 -3.867,0.17l0,-0.001Z" style="fill-rule:nonzero;"/><path id="path12559" d="M309.594,913.628c-1.944,0 -3.719,-0.418 -5.324,-1.255c-1.605,-0.836 -2.985,-2.068 -4.138,-3.696c-1.153,-1.651 -2.057,-3.697 -2.713,-6.138c-0.633,-2.442 -0.949,-5.268 -0.949,-8.479c-0,-3.255 0.316,-6.104 0.949,-8.546c0.656,-2.464 1.572,-4.521 2.747,-6.172c1.199,-1.673 2.623,-2.928 4.273,-3.764c1.651,-0.837 3.471,-1.255 5.46,-1.255c1.221,-0 2.34,0.147 3.358,0.44c1.017,0.272 1.933,0.668 2.747,1.187c0.814,0.498 1.537,1.086 2.17,1.764c0.656,0.656 1.232,1.379 1.73,2.17l0.339,0c-0.136,-0.881 -0.26,-1.774 -0.373,-2.679c-0.113,-0.768 -0.215,-1.582 -0.305,-2.442c-0.068,-0.881 -0.102,-1.695 -0.102,-2.441l0,-12.141l10.344,-0l-0,52.769l-7.902,-0l-2.001,-4.918l-0.441,0c-0.475,0.769 -1.018,1.504 -1.628,2.205c-0.61,0.678 -1.323,1.265 -2.136,1.763c-0.792,0.498 -1.696,0.893 -2.714,1.187c-0.994,0.294 -2.125,0.441 -3.391,0.441l0,0Zm3.765,-8.241c1.22,0 2.26,-0.203 3.12,-0.61c0.859,-0.43 1.548,-1.063 2.068,-1.899c0.543,-0.859 0.939,-1.922 1.187,-3.188c0.272,-1.266 0.419,-2.747 0.441,-4.443l0,-1.12c0,-1.831 -0.113,-3.459 -0.339,-4.883c-0.226,-1.424 -0.599,-2.611 -1.119,-3.561c-0.52,-0.972 -1.221,-1.707 -2.103,-2.204c-0.881,-0.498 -1.989,-0.747 -3.323,-0.747c-2.171,0 -3.765,0.984 -4.782,2.951c-1.017,1.944 -1.526,4.781 -1.526,8.512c0,3.73 0.509,6.534 1.526,8.41c1.04,1.854 2.657,2.781 4.85,2.781l-0,0.001Z" style="fill-rule:nonzero;"/><path id="path12561" d="M378.913,874.323c1.944,-0 3.719,0.418 5.324,1.255c1.605,0.836 2.984,2.08 4.137,3.73c1.153,1.651 2.046,3.697 2.68,6.138c0.655,2.442 0.983,5.268 0.983,8.479c0,3.255 -0.328,6.115 -0.983,8.58c-0.634,2.441 -1.538,4.488 -2.714,6.138c-1.175,1.65 -2.588,2.894 -4.239,3.73c-1.65,0.837 -3.47,1.255 -5.46,1.255c-1.266,0 -2.396,-0.136 -3.391,-0.407c-0.972,-0.272 -1.843,-0.634 -2.611,-1.086c-0.769,-0.452 -1.447,-0.96 -2.035,-1.526c-0.565,-0.588 -1.085,-1.198 -1.56,-1.831l-0.712,-0l-1.73,4.171l-7.902,0l0,-52.769l10.344,0l-0,12.277c-0,0.746 -0.023,1.56 -0.067,2.442c-0.045,0.859 -0.091,1.661 -0.136,2.408c-0.068,0.881 -0.136,1.763 -0.204,2.645l0.407,-0c0.475,-0.792 1.018,-1.526 1.628,-2.205c0.611,-0.678 1.311,-1.265 2.103,-1.763c0.814,-0.52 1.729,-0.927 2.747,-1.221c1.017,-0.294 2.148,-0.441 3.391,-0.441l-0,0.001Zm-3.493,8.275c-1.153,-0 -2.137,0.215 -2.951,0.645c-0.791,0.407 -1.436,1.028 -1.933,1.865c-0.497,0.836 -0.859,1.899 -1.085,3.188c-0.226,1.266 -0.362,2.747 -0.407,4.442l-0,1.12c-0,1.831 0.102,3.459 0.305,4.883c0.226,1.425 0.588,2.623 1.085,3.595c0.498,0.95 1.153,1.673 1.967,2.171c0.837,0.497 1.865,0.746 3.086,0.746c2.058,0 3.561,-0.972 4.511,-2.916c0.972,-1.967 1.458,-4.816 1.458,-8.547c0,-3.73 -0.486,-6.522 -1.458,-8.376c-0.95,-1.877 -2.476,-2.815 -4.578,-2.815l-0,-0.001Z" style="fill-rule:nonzero;"/><path id="path12563" d="M395.496,875.035l11.327,0l6.104,21.331c0.362,1.176 0.622,2.431 0.78,3.765c0.181,1.334 0.294,2.532 0.339,3.595l0.203,-0c0.047,-0.52 0.104,-1.097 0.17,-1.73c0.091,-0.633 0.192,-1.277 0.305,-1.933c0.113,-0.656 0.238,-1.3 0.373,-1.933c0.158,-0.656 0.317,-1.244 0.475,-1.764l5.969,-21.331l11.395,0l-14.99,42.765c-1.402,4.001 -3.312,6.974 -5.731,8.919c-2.42,1.944 -5.449,2.916 -9.089,2.916c-1.176,0 -2.193,-0.068 -3.052,-0.203c-0.859,-0.113 -1.594,-0.238 -2.205,-0.373l0,-8.207c0.475,0.113 1.074,0.215 1.798,0.305c0.723,0.09 1.481,0.135 2.272,0.135c1.085,0 2.012,-0.146 2.781,-0.44c0.768,-0.294 1.424,-0.712 1.967,-1.255c0.565,-0.52 1.04,-1.153 1.424,-1.899c0.407,-0.747 0.758,-1.583 1.051,-2.51l0.645,-1.899l-14.311,-38.254Z" style="fill-rule:nonzero;"/></g></g><g id="Logo"><path id="path30521" d="M488.254,752.745c0,-0 6.786,-4.057 19.033,-21.685c-0,0 -0.234,-2.73 -1.248,-5.849c-0,-0 -5.46,12.089 -17.785,27.534Zm-44.805,33.069c0,0 27.211,-20.76 49.607,-58.998c-0,-0 0.602,1.207 0.679,2.178c-0,0 10.21,-12.306 14.304,-21.042c0,0 0.499,-2.945 0.399,-3.844l1.75,-0.605c0,-0 2.728,-11.765 2.962,-13.871l2.834,-2.086c0,-0 8.253,-44.364 9.09,-50.031c0.871,-5.895 1.097,-17.184 4.754,-18.891c-0,0 -0.448,26.384 -3.63,33.185c-0,0 4.18,-10.857 5.241,-21.465c1.06,-10.608 3.869,-7.987 3.869,-7.987c-0,-0 0.848,2.799 0.688,3.757c-0,-0 5.225,-17.094 -1.935,-43.297c-7.16,-26.204 -13.162,-31.291 -13.162,-31.291c-0,-0 0.789,4.825 0.712,6.308c-0,-0 -5.304,-5.265 -4.817,-12.578l-3.022,-3.023l-0.014,-3.88c-0,-0 -4.285,-2.9 -8.063,-21.059c-0,-0 -2.202,1.325 -2.389,2.011c-0,-0 -0.475,-8.708 -3.83,-12.063c0,0 -2.184,1.17 -3.822,-3.12c-1.638,-4.29 -8.19,-13.572 -8.19,-13.572c-0,0 0.474,-1.089 1.433,-0.929c-0,-0 -6.47,-4.992 -7.509,-7.708c-1.038,-2.715 0.28,-3.315 0.76,-3.674c-0,0 -4.619,-4.511 -3.97,-10.302c0,0 -1.648,-0.199 -2.795,0.299c-0,0 -0.899,-3.943 -0.5,-6.04c0,0 -1.692,-0.748 -1.771,-3.663c-0,-0 0.359,-3.994 1.797,-1.678c-0,0 0.584,-3.033 -4.488,-10.022c-0,0 -1.403,-14.545 0.45,-19.615c-0,-0 -23.693,11.405 -47.191,40.752c0,0 -0.711,-0.215 -0.67,-1.293c-0,0 -16.045,17.863 -21.115,37.461c-0,0 -0.776,0.679 -1.535,0.32c0,-0 -6.472,18.653 -7.081,23.284c-0,0 -0.972,0.517 -2.719,0.33c0,-0 -7.634,30.045 -8.091,42.233c-0,0 -0.101,1.062 -1.259,2.219c0,0 1.678,1.439 1.997,3.076c0.319,1.637 2.095,30.224 3.923,34.611c-0,0 1.302,0.988 1.702,0.948c-0,-0 9.878,57.112 26.827,72.347c0,-0 -11.779,-29.013 -7.879,-40.167c-0,-0 0.629,-1.78 1.926,-1.979c0,-0 -6.077,-21.027 7.329,-46.133c0,0 0.352,-1.472 0.118,-3.032c-0,-0 6.02,-13.468 13.695,-18.272c-0,-0 -1.872,0.125 -2.684,-0.375c-0,0 10.297,-14.414 17.036,-16.848c-0,-0 6.303,3.182 14.726,15.662c0,0 0.936,13.792 3.869,17.036c-0,0 1.31,-5.678 1.622,-7.301c0,0 4.799,5.257 5.048,20.067l4.243,0.748c0,0 0.582,8.154 -0.333,10.817c0,-0 1.83,-0.666 2.83,-0.833c-0,0 3.07,17.958 3.59,28.099c0,-0 -2.32,0.372 -2.986,-0.094c-0,0 2.968,5.632 3.467,9.21c0.499,3.578 0,11.315 0,11.315c0,0 -1.497,1.747 -2.912,2.829l0.174,4.823l-3.962,-0.342c-0,0 3.42,4.247 3.287,8.241c-0.133,3.993 -2.197,6.39 -3.061,7.321c-0,0 3.428,1.742 4.676,1.659c0,0 0.75,3.411 -3.826,6.157c-0,0 0.918,15.511 0.474,16.704c-0.443,1.193 -2.078,3.374 -2.078,3.374c-0,-0 1.362,1.899 2.385,2.07c0,0 -0.811,4.031 -1.955,5.071c-1.144,1.04 -2.808,9.36 -3.328,11.752c-0.521,2.392 -2.811,5.065 -2.811,5.065c-0,-0 -0.954,-2.897 -0.648,-4.703c0,-0 -2.282,7.024 -1.632,13.362c0.65,6.337 -2.79,13.586 -2.79,13.586l-19.82,27.419Z" style="fill:#414141;fill-rule:nonzero;"/><path id="path30523" d="M438.765,579.715c-0,-0 -6.018,3.301 -8.148,3.781c0,-0 3.142,-7.083 11.076,-12.94c0,0 -6.336,8.2 -6.656,9.638c-0,0 2.769,0.266 3.728,-0.479Zm-25.69,48.194c0,-0 3.328,-7.855 4.66,-8.853c-0,0 1.065,-13.378 2.595,-15.775c0,0 -5.258,9.552 -7.255,24.628Zm23.081,-187.152c-0,0 10.628,-6.239 18.782,-13.727c-0,0 -6.906,0.665 -9.569,2.495c-2.662,1.831 -9.213,11.232 -9.213,11.232Zm59.062,43.741c-0,0 0.799,-3.377 3.061,-5.374c0,0 -10.782,-7.255 -11.048,-11.514c-0,-0 -2.996,11.014 7.987,16.888Zm-105.946,147.976c-0,-0 -15.202,-37.302 -7.922,-56.932c0,0 1.986,-3.542 3.775,-0.091l0.639,-5.836c-0,-0 -6.475,7.847 -7.029,0.941c-0.554,-6.905 0.729,-25.577 6.032,-35.978c0,0 -6.032,10.505 -7.28,19.969c0,-0 -0.275,3.421 -1,-1.265c-0.724,-4.685 8.165,-27.832 11.493,-32.305c-0,0 -34.274,39.623 1.292,111.497Zm129.628,58.516c0,-0 12.512,-22.132 17.063,-58.516c-0,-0 -1.463,-0.147 -2.925,2.453c-0,0 -5.688,38.729 -14.138,56.063Z" style="fill:#414141;fill-rule:nonzero;"/><path id="path30525" d="M386.993,702.64c-102.452,15.971 -261.163,111.724 -261.163,111.724c262.272,-460.153 329.866,-659.732 329.866,-659.732c64.818,180.019 329.866,659.732 329.866,659.732c-121.228,-74.848 -228.259,-104.324 -234.075,-105.894c15.623,-46.006 15.133,-67.357 15.133,-67.357l-3.357,5.395c-1.938,24.55 -10.969,52.329 -14.258,61.803l-8.186,-0.338c10.679,-30.134 13.484,-77.206 13.484,-77.206l4.92,-6.347c1.586,16.821 -5.507,46.714 -5.507,46.714c2.844,-5.688 7.069,-31.444 7.069,-31.444c1.463,-1.544 6.404,-11.466 6.404,-11.466c-0.203,2.335 0.757,5.847 0.757,5.847c11.901,-53.559 -22.294,-104.37 -22.294,-104.37c1.56,3.433 1.56,9.205 1.56,9.205c0,-0 -3.223,-5.772 -4.836,-8.788c-1.612,-3.017 -1.456,-9.621 -1.456,-9.621l-4.628,-3.9l-0.058,-5.281c-1.463,-1.707 -5.769,-7.557 -6.581,-13.406c-0.813,-5.851 -4.756,-16.198 -4.756,-16.198c-1.041,2.471 -2.991,3.445 -2.991,3.445c-0.779,-12.09 -4.809,-17.218 -4.809,-17.218c-1.164,0.458 -3.227,0.434 -3.227,0.434l-2.562,-5.857l-2.272,-0.63c-1.381,-3.575 -9.983,-18.138 -9.983,-18.138c0.779,0.156 2.57,-0.526 2.57,-0.526c-8.857,-6.338 -11.131,-12.413 -11.131,-12.413c1.56,-1.456 2.132,-3.779 2.132,-3.779c-6.708,-5.392 -6.111,-14.267 -6.111,-14.267l-4.29,1.17l0.195,-6.955c-2.34,-3.315 -2.583,-11.127 -2.583,-11.127l3.131,0.8c-11.071,-9.851 -6.45,-40.402 -6.45,-40.402c-47.211,30.151 -65.289,57.877 -65.289,57.877l-2.189,-1.985c-34.119,45.624 -28.089,52.656 -28.089,52.656l-2.819,1.324c-7.744,30.723 -10.411,31.581 -10.411,31.581l-2.906,0.366c-7.3,21.899 -10.774,56.509 -10.774,56.509c0.163,1.138 -4.388,15.519 -5.931,-2.399c-1.544,-17.919 8.89,-47.387 8.89,-47.387c-5.712,6.855 -11.402,29.048 -11.402,29.048c0.397,-17.257 15.994,-49.341 15.994,-49.341c-50.212,73.255 1.76,158.849 1.76,158.849c0,0 -7.541,-18.755 -11.343,-36.925c-3.802,-18.17 -2.438,-33.505 -0.585,-40.915c1.852,-7.41 3.794,-2.745 3.794,-2.745c0,0 2.709,34.969 3.458,41.309c0.749,6.339 3.416,8.629 3.416,8.629c0,0 5.39,38.122 15.139,57.865c6.959,14.092 9.106,26.263 9.764,32.075Z" style="fill:#414141;fill-rule:nonzero;"/></g><g id="text3395"><path id="path81223" d="M63.446,1134.8l-4.134,13.334l26.267,-0l-4.133,-13.334c-1.6,-4.888 -3.111,-9.733 -4.534,-14.533c-1.422,-4.889 -2.844,-9.867 -4.266,-14.933l-0.534,-0c-1.333,5.066 -2.711,10.044 -4.133,14.933c-1.422,4.8 -2.933,9.645 -4.533,14.533Zm-26.667,48.934l29.6,-87.467l12.533,0l29.6,87.467l-11.866,-0l-8.267,-26.667l-31.867,0l-8.4,26.667l-11.333,-0Z" style="fill:#fff;fill-rule:nonzero;"/><path id="path81225" d="M119.846,1183.74l-0,-64.8l9.066,-0l0.934,11.733l0.4,0c2.222,-4.089 4.933,-7.333 8.133,-9.733c3.2,-2.4 6.622,-3.6 10.267,-3.6c2.578,-0 4.889,0.444 6.933,1.333l-2.133,9.6c-1.067,-0.355 -2.045,-0.622 -2.934,-0.8c-0.888,-0.178 -2,-0.266 -3.333,-0.266c-2.755,-0 -5.644,1.111 -8.667,3.333c-2.933,2.222 -5.511,6.089 -7.733,11.6l0,41.6l-10.933,-0Z" style="fill:#fff;fill-rule:nonzero;"/><path id="path81227" d="M190.379,1185.34c-5.689,-0 -10.844,-1.333 -15.467,-4c-4.622,-2.667 -8.266,-6.534 -10.933,-11.6c-2.667,-5.067 -4,-11.156 -4,-18.267c0,-7.289 1.422,-13.467 4.267,-18.533c2.933,-5.067 6.755,-8.934 11.466,-11.6c4.8,-2.667 9.956,-4 15.467,-4c4.267,-0 7.911,0.755 10.933,2.266c3.112,1.512 5.778,3.289 8,5.334l-5.6,7.2c-1.866,-1.689 -3.866,-3.067 -6,-4.134c-2.044,-1.066 -4.355,-1.6 -6.933,-1.6c-3.911,0 -7.422,1.067 -10.533,3.2c-3.022,2.045 -5.422,4.978 -7.2,8.8c-1.689,3.734 -2.534,8.089 -2.534,13.067c0,7.378 1.823,13.378 5.467,18c3.733,4.534 8.578,6.8 14.533,6.8c3.023,0 5.823,-0.622 8.4,-1.866c2.578,-1.334 4.845,-2.889 6.8,-4.667l4.8,7.333c-2.933,2.578 -6.177,4.622 -9.733,6.134c-3.555,1.422 -7.289,2.133 -11.2,2.133Z" style="fill:#fff;fill-rule:nonzero;"/><path id="path81229" d="M225.579,1183.74l0,-94.934l10.933,0l0,25.867l-0.4,13.333c3.112,-2.933 6.356,-5.422 9.734,-7.466c3.466,-2.134 7.422,-3.2 11.866,-3.2c6.845,-0 11.823,2.178 14.934,6.533c3.2,4.267 4.8,10.533 4.8,18.8l-0,41.067l-10.934,-0l0,-39.6c0,-6.045 -0.977,-10.445 -2.933,-13.2c-1.955,-2.756 -5.067,-4.134 -9.333,-4.134c-3.289,0 -6.267,0.845 -8.934,2.534c-2.577,1.689 -5.511,4.178 -8.8,7.466l0,46.934l-10.933,-0Z" style="fill:#fff;fill-rule:nonzero;"/><path id="path81231" d="M299.179,1183.74l0,-87.467l11.067,0l-0,78l38.267,0l-0,9.467l-49.334,-0Z" style="fill:#fff;fill-rule:nonzero;"/><path id="path81233" d="M377.846,1185.34c-5.422,-0 -9.956,-1.6 -13.6,-4.8c-3.556,-3.289 -5.333,-7.822 -5.333,-13.6c-0,-7.111 3.155,-12.534 9.466,-16.267c6.4,-3.822 16.489,-6.489 30.267,-8c-0,-2.755 -0.4,-5.378 -1.2,-7.867c-0.711,-2.488 -2.044,-4.488 -4,-6c-1.867,-1.6 -4.578,-2.4 -8.133,-2.4c-3.734,0 -7.245,0.712 -10.534,2.134c-3.289,1.422 -6.222,3.022 -8.8,4.8l-4.266,-7.6c3.022,-1.956 6.711,-3.822 11.066,-5.6c4.445,-1.867 9.245,-2.8 14.4,-2.8c7.911,-0 13.645,2.444 17.2,7.333c3.556,4.8 5.334,11.245 5.334,19.333l-0,39.734l-9.067,-0l-0.933,-7.733l-0.4,-0c-3.023,2.488 -6.356,4.666 -10,6.533c-3.556,1.867 -7.378,2.8 -11.467,2.8Zm3.2,-8.8c3.111,-0 6.044,-0.756 8.8,-2.267c2.756,-1.511 5.689,-3.644 8.8,-6.4l-0,-18c-10.756,1.333 -18.311,3.333 -22.667,6c-4.266,2.667 -6.4,6.089 -6.4,10.267c0,3.644 1.111,6.311 3.334,8c2.222,1.6 4.933,2.4 8.133,2.4Z" style="fill:#fff;fill-rule:nonzero;"/><path id="path81235" d="M458.779,1185.34c-3.022,-0 -6.177,-0.711 -9.466,-2.133c-3.2,-1.512 -6.223,-3.556 -9.067,-6.134l-0.4,0l-0.933,6.667l-8.8,-0l-0,-94.934l10.933,0l-0,25.867l-0.267,11.733c2.934,-2.577 6.134,-4.711 9.6,-6.4c3.556,-1.777 7.112,-2.666 10.667,-2.666c8.445,-0 14.845,2.978 19.2,8.933c4.356,5.956 6.533,13.956 6.533,24c0,7.378 -1.333,13.689 -4,18.934c-2.577,5.244 -6,9.244 -10.266,12c-4.178,2.755 -8.756,4.133 -13.734,4.133l0,-0Zm-1.866,-9.2c5.333,-0 9.733,-2.267 13.2,-6.8c3.555,-4.622 5.333,-10.934 5.333,-18.934c-0,-7.111 -1.333,-12.844 -4,-17.2c-2.578,-4.444 -6.933,-6.666 -13.067,-6.666c-2.755,-0 -5.555,0.755 -8.4,2.266c-2.844,1.512 -5.822,3.689 -8.933,6.534l-0,34c2.844,2.489 5.644,4.267 8.4,5.333c2.844,0.978 5.333,1.467 7.467,1.467Z" style="fill:#fff;fill-rule:nonzero;"/><path id="path81237" d="M520.779,1185.34c-4.622,-0 -9.022,-0.845 -13.2,-2.533c-4.178,-1.778 -7.822,-3.912 -10.933,-6.4l5.467,-7.334c2.844,2.222 5.777,4.089 8.8,5.6c3.022,1.422 6.444,2.134 10.266,2.134c4.267,-0 7.467,-0.978 9.6,-2.934c2.134,-2.044 3.2,-4.444 3.2,-7.2c0,-2.222 -0.755,-4.089 -2.266,-5.6c-1.423,-1.511 -3.289,-2.755 -5.6,-3.733c-2.223,-1.067 -4.534,-2.045 -6.934,-2.934c-3.022,-1.155 -6,-2.444 -8.933,-3.866c-2.933,-1.511 -5.333,-3.422 -7.2,-5.734c-1.867,-2.4 -2.8,-5.422 -2.8,-9.066c-0,-5.245 1.955,-9.6 5.867,-13.067c4,-3.555 9.511,-5.333 16.533,-5.333c4,-0 7.733,0.711 11.2,2.133c3.467,1.422 6.444,3.156 8.933,5.2l-5.333,6.933c-2.222,-1.688 -4.533,-3.066 -6.933,-4.133c-2.4,-1.067 -5.023,-1.6 -7.867,-1.6c-4.089,0 -7.111,0.933 -9.067,2.8c-1.866,1.867 -2.8,4.045 -2.8,6.533c0,2.045 0.667,3.734 2,5.067c1.334,1.245 3.067,2.356 5.2,3.333c2.134,0.889 4.4,1.823 6.8,2.8c3.111,1.156 6.178,2.489 9.2,4c3.023,1.423 5.511,3.378 7.467,5.867c2.044,2.4 3.067,5.645 3.067,9.733c-0,3.467 -0.934,6.667 -2.8,9.601c-1.778,2.933 -4.445,5.288 -8,7.066c-3.467,1.778 -7.778,2.667 -12.934,2.667Z" style="fill:#fff;fill-rule:nonzero;"/><path id="path81239" d="M587.446,1183.74l0,-87.467l11.067,0l-0,78l38.267,0l-0,9.467l-49.334,-0Z" style="fill:#fff;fill-rule:nonzero;"/><path id="path81241" d="M651.18,1183.74l-0,-64.8l10.933,-0l-0,64.8l-10.933,-0Zm5.6,-78.134c-2.134,0 -3.912,-0.622 -5.334,-1.866c-1.333,-1.334 -2,-3.111 -2,-5.334c0,-2.133 0.667,-3.866 2,-5.2c1.422,-1.333 3.2,-2 5.334,-2c2.133,0 3.866,0.667 5.2,2c1.422,1.334 2.133,3.067 2.133,5.2c-0,2.223 -0.711,4 -2.133,5.334c-1.334,1.244 -3.067,1.866 -5.2,1.866Z" style="fill:#fff;fill-rule:nonzero;"/><path id="path81243" d="M683.98,1183.74l-0,-64.8l9.066,-0l0.934,9.333l0.4,0c3.111,-3.111 6.4,-5.689 9.866,-7.733c3.467,-2.134 7.423,-3.2 11.867,-3.2c6.844,-0 11.822,2.178 14.933,6.533c3.2,4.267 4.8,10.533 4.8,18.8l0,41.067l-10.933,-0l0,-39.6c0,-6.045 -0.978,-10.445 -2.933,-13.2c-1.956,-2.756 -5.067,-4.134 -9.334,-4.134c-3.289,0 -6.266,0.845 -8.933,2.534c-2.578,1.689 -5.511,4.178 -8.8,7.466l-0,46.934l-10.933,-0Z" style="fill:#fff;fill-rule:nonzero;"/><path id="path81245" d="M775.846,1185.34c-6.844,-0 -11.866,-2.133 -15.066,-6.4c-3.2,-4.356 -4.8,-10.667 -4.8,-18.934l-0,-41.066l11.066,-0l0,39.6c0,6.044 0.934,10.444 2.8,13.2c1.956,2.755 5.067,4.133 9.334,4.133c3.378,0 6.355,-0.844 8.933,-2.533c2.667,-1.778 5.511,-4.578 8.533,-8.4l0,-46l10.934,-0l-0,64.8l-9.067,-0l-0.933,-10.133l-0.4,-0c-3.022,3.555 -6.222,6.4 -9.6,8.533c-3.378,2.133 -7.289,3.2 -11.734,3.2Z" style="fill:#fff;fill-rule:nonzero;"/><path id="path81247" d="M820.38,1183.74l21.2,-33.867l-19.6,-30.933l11.867,-0l8.666,14.266c0.978,1.689 2,3.467 3.067,5.334c1.067,1.866 2.178,3.689 3.333,5.466l0.534,0c0.977,-1.777 1.955,-3.6 2.933,-5.466c0.978,-1.867 1.956,-3.645 2.933,-5.334l7.867,-14.266l11.467,-0l-19.6,32.133l21.066,32.667l-11.866,-0l-9.467,-15.067c-1.156,-1.955 -2.311,-3.911 -3.467,-5.867c-1.155,-1.955 -2.355,-3.866 -3.6,-5.733l-0.533,0c-1.156,1.867 -2.267,3.778 -3.333,5.733c-1.067,1.867 -2.134,3.823 -3.2,5.867l-8.8,15.067l-11.467,-0Z" style="fill:#fff;fill-rule:nonzero;"/></g></g></g></svg>