<?xml version="1.0" encoding="UTF-8" standalone="no"?><!DOCTYPE svg PUBLIC "-//W3C//DTD SVG 1.1//EN" "http://www.w3.org/Graphics/SVG/1.1/DTD/svg11.dtd"><svg width="100%" height="100%" viewBox="0 0 907 1352" version="1.1" xmlns="http://www.w3.org/2000/svg" xmlns:xlink="http://www.w3.org/1999/xlink" xml:space="preserve" xmlns:serif="http://www.serif.com/" style="fill-rule:evenodd;clip-rule:evenodd;stroke-linejoin:round;"><rect id="Archcraft" x="0" y="0" width="906.667" height="1351.11" style="fill:none;"/><clipPath id="_clip1"><rect x="0" y="0" width="906.667" height="1351.11"/></clipPath><g clip-path="url(#_clip1)"><g id="READ-ME" serif:id="READ ME"><path id="Frame" d="M897.778,363.221c-0,-195.561 -158.771,-354.332 -354.333,-354.332l-180.224,-0c-195.561,-0 -354.332,158.771 -354.332,354.332l-0,624.669c-0,195.561 158.771,354.332 354.332,354.332l180.224,0c195.562,0 354.333,-158.771 354.333,-354.332l-0,-624.669Z" style="fill:#fff;stroke:#000;stroke-width:17.78px;"/><path id="Bottom" d="M895.371,1141.21c-0,-107.643 -87.393,-195.036 -195.036,-195.036l-494.004,0c-107.643,0 -195.035,87.393 -195.035,195.036c-0,107.643 87.392,195.036 195.035,195.036l494.004,-0c107.643,-0 195.036,-87.393 195.036,-195.036Z" style="stroke:#000;stroke-width:15.52px;"/><g id="Powered-By" serif:id="Powered By"><path id="path12547" d="M59.75,886.702l2.069,0c2.962,0 5.189,-0.588 6.681,-1.763c1.515,-1.176 2.272,-3.087 2.272,-5.732c-0,-2.464 -0.678,-4.284 -2.035,-5.46c-1.334,-1.176 -3.436,-1.763 -6.308,-1.763l-2.679,-0l0,14.718Zm21.671,-7.868c-0,2.171 -0.328,4.251 -0.984,6.24c-0.655,1.99 -1.741,3.742 -3.255,5.257c-1.493,1.515 -3.471,2.724 -5.935,3.628c-2.442,0.905 -5.472,1.357 -9.089,1.357l-2.408,-0l0,17.635l-10.513,-0l0,-49.581l13.769,-0c3.188,-0 5.935,0.362 8.241,1.085c2.328,0.701 4.239,1.718 5.731,3.052c1.515,1.312 2.634,2.928 3.358,4.85c0.723,1.899 1.085,4.058 1.085,6.477l-0,0Z" style="fill-rule:nonzero;"/><path id="path12549" d="M98.581,893.926c-0,3.775 0.531,6.624 1.594,8.546c1.062,1.899 2.792,2.848 5.189,2.848c2.373,0 4.092,-0.96 5.154,-2.882c1.063,-1.922 1.594,-4.759 1.594,-8.512c0,-3.776 -0.531,-6.591 -1.594,-8.445c-1.062,-1.876 -2.803,-2.815 -5.222,-2.815c-2.374,0 -4.092,0.939 -5.155,2.815c-1.04,1.854 -1.56,4.669 -1.56,8.445Zm24.078,-0c0,3.165 -0.407,5.968 -1.221,8.41c-0.791,2.442 -1.944,4.499 -3.459,6.172c-1.492,1.673 -3.323,2.951 -5.494,3.832c-2.148,0.86 -4.567,1.289 -7.257,1.289c-2.51,0 -4.816,-0.429 -6.918,-1.289c-2.103,-0.881 -3.923,-2.159 -5.46,-3.832c-1.515,-1.673 -2.702,-3.73 -3.561,-6.172c-0.859,-2.442 -1.289,-5.245 -1.289,-8.41c-0,-3.143 0.396,-5.935 1.187,-8.377c0.814,-2.442 1.967,-4.488 3.459,-6.138c1.515,-1.673 3.346,-2.939 5.494,-3.799c2.148,-0.859 4.578,-1.288 7.291,-1.288c2.51,-0 4.816,0.429 6.919,1.288c2.102,0.86 3.911,2.126 5.426,3.799c1.537,1.65 2.735,3.696 3.595,6.138c0.859,2.442 1.288,5.234 1.288,8.377Z" style="fill-rule:nonzero;"/><path id="path12551" d="M160.54,912.951l-2.916,-13.26c-0.091,-0.384 -0.215,-0.927 -0.373,-1.628c-0.136,-0.724 -0.294,-1.526 -0.475,-2.408c-0.181,-0.904 -0.373,-1.854 -0.576,-2.849c-0.181,-1.017 -0.373,-2.023 -0.577,-3.018c-0.452,-2.329 -0.95,-4.838 -1.492,-7.529l-0.204,0c-0.52,2.691 -0.994,5.212 -1.424,7.563c-0.181,0.995 -0.373,2.001 -0.576,3.018c-0.181,1.018 -0.362,1.979 -0.543,2.883c-0.181,0.882 -0.35,1.684 -0.509,2.408c-0.135,0.723 -0.248,1.289 -0.339,1.695l-3.052,13.125l-11.124,-0l-10.208,-37.915l10.276,-0l3.832,16.787c0.204,0.882 0.407,1.944 0.611,3.188c0.226,1.221 0.429,2.464 0.61,3.73c0.204,1.244 0.384,2.431 0.543,3.561c0.158,1.108 0.282,1.99 0.373,2.645l0.203,0c0.023,-0.43 0.068,-0.983 0.136,-1.661c0.09,-0.701 0.192,-1.447 0.305,-2.239c0.113,-0.791 0.226,-1.594 0.339,-2.408c0.136,-0.836 0.26,-1.616 0.373,-2.34c0.136,-0.723 0.249,-1.356 0.339,-1.899c0.113,-0.565 0.204,-0.961 0.272,-1.187l4.137,-18.177l11.395,-0l3.968,18.177c0.113,0.498 0.26,1.267 0.441,2.306c0.181,1.04 0.361,2.16 0.542,3.358c0.204,1.176 0.373,2.329 0.509,3.459c0.136,1.108 0.215,1.978 0.237,2.611l0.204,0c0.068,-0.565 0.181,-1.402 0.339,-2.509c0.181,-1.108 0.373,-2.295 0.576,-3.561c0.204,-1.289 0.419,-2.566 0.645,-3.832c0.249,-1.266 0.475,-2.34 0.678,-3.222l3.968,-16.787l10.14,-0l-10.343,37.915l-11.26,-0Z" style="fill-rule:nonzero;"/><path id="path12553" d="M202.898,881.683c-1.831,-0 -3.357,0.644 -4.578,1.933c-1.198,1.289 -1.888,3.312 -2.069,6.07l13.192,0c-0.022,-1.153 -0.169,-2.215 -0.441,-3.187c-0.271,-0.973 -0.678,-1.809 -1.22,-2.51c-0.543,-0.724 -1.221,-1.289 -2.035,-1.696c-0.814,-0.407 -1.764,-0.61 -2.849,-0.61l0,-0Zm1.323,31.946c-2.713,0 -5.212,-0.395 -7.495,-1.187c-2.284,-0.791 -4.251,-1.978 -5.901,-3.561c-1.65,-1.605 -2.939,-3.617 -3.866,-6.036c-0.905,-2.442 -1.357,-5.302 -1.357,-8.58c0,-3.324 0.419,-6.229 1.255,-8.716c0.837,-2.487 2.001,-4.556 3.493,-6.206c1.515,-1.673 3.324,-2.928 5.426,-3.765c2.126,-0.836 4.477,-1.254 7.054,-1.254c2.51,-0 4.771,0.384 6.783,1.152c2.035,0.747 3.753,1.855 5.155,3.324c1.424,1.47 2.509,3.278 3.255,5.426c0.769,2.125 1.153,4.567 1.153,7.325l0,5.019l-23.128,0c0.044,1.447 0.271,2.759 0.678,3.934c0.429,1.153 1.017,2.137 1.763,2.951c0.769,0.791 1.685,1.402 2.747,1.831c1.086,0.43 2.318,0.645 3.697,0.645c1.153,0 2.238,-0.057 3.256,-0.17c1.04,-0.136 2.046,-0.328 3.018,-0.576c0.972,-0.249 1.933,-0.554 2.882,-0.916c0.95,-0.384 1.922,-0.825 2.917,-1.322l-0,8.003c-0.904,0.475 -1.82,0.882 -2.747,1.221c-0.904,0.317 -1.865,0.588 -2.883,0.814c-1.017,0.226 -2.114,0.384 -3.289,0.475c-1.176,0.113 -2.465,0.17 -3.866,0.17l-0,-0.001Z" style="fill-rule:nonzero;"/><path id="path12555" d="M247.698,874.324c0.271,-0 0.565,0.011 0.881,0.035c0.339,0 0.656,0.024 0.95,0.071c0.316,0.024 0.599,0.059 0.848,0.106c0.271,0.024 0.474,0.059 0.61,0.107l-0,9.699c-0.181,-0.047 -0.43,-0.093 -0.746,-0.136c-0.317,-0.047 -0.656,-0.083 -1.018,-0.106c-0.339,-0.048 -0.678,-0.071 -1.017,-0.071c-0.339,-0.024 -0.622,-0.036 -0.848,-0.036c-1.334,0 -2.566,0.17 -3.696,0.509c-1.108,0.34 -2.069,0.894 -2.883,1.662c-0.791,0.747 -1.413,1.741 -1.865,2.984c-0.43,1.221 -0.645,2.725 -0.645,4.511l0,19.297l-10.343,-0l-0,-37.915l7.834,-0l1.526,5.697l0.509,0c0.542,-0.972 1.13,-1.854 1.763,-2.645c0.633,-0.791 1.334,-1.458 2.103,-2.001c0.791,-0.565 1.673,-0.995 2.645,-1.289c0.995,-0.316 2.125,-0.475 3.391,-0.475l0.001,-0.004Z" style="fill-rule:nonzero;"/><path id="path12557" d="M273.404,881.683c-1.832,-0 -3.358,0.644 -4.579,1.933c-1.198,1.289 -1.887,3.312 -2.068,6.07l13.192,0c-0.023,-1.153 -0.17,-2.215 -0.441,-3.187c-0.271,-0.973 -0.678,-1.809 -1.221,-2.51c-0.542,-0.724 -1.221,-1.289 -2.035,-1.696c-0.813,-0.407 -1.763,-0.61 -2.848,-0.61l-0,-0Zm1.322,31.946c-2.713,0 -5.211,-0.395 -7.494,-1.187c-2.284,-0.791 -4.251,-1.978 -5.901,-3.561c-1.651,-1.605 -2.94,-3.617 -3.866,-6.036c-0.905,-2.442 -1.357,-5.302 -1.357,-8.58c-0,-3.324 0.418,-6.229 1.255,-8.716c0.836,-2.487 2.001,-4.556 3.493,-6.206c1.515,-1.673 3.323,-2.928 5.426,-3.765c2.125,-0.836 4.477,-1.254 7.054,-1.254c2.51,-0 4.77,0.384 6.783,1.152c2.034,0.747 3.753,1.855 5.154,3.324c1.425,1.47 2.51,3.278 3.256,5.426c0.769,2.125 1.153,4.567 1.153,7.325l0,5.019l-23.129,0c0.045,1.447 0.271,2.759 0.679,3.934c0.429,1.153 1.017,2.137 1.763,2.951c0.769,0.791 1.684,1.402 2.747,1.831c1.085,0.43 2.317,0.645 3.697,0.645c1.153,0 2.238,-0.057 3.255,-0.17c1.04,-0.136 2.046,-0.328 3.018,-0.576c0.973,-0.249 1.934,-0.554 2.883,-0.916c0.95,-0.384 1.922,-0.825 2.917,-1.322l-0,8.003c-0.905,0.475 -1.82,0.882 -2.747,1.221c-0.905,0.317 -1.866,0.588 -2.883,0.814c-1.017,0.226 -2.114,0.384 -3.29,0.475c-1.175,0.113 -2.464,0.17 -3.866,0.17l0,-0.001Z" style="fill-rule:nonzero;"/><path id="path12559" d="M309.589,913.629c-1.944,0 -3.719,-0.418 -5.324,-1.255c-1.605,-0.836 -2.985,-2.068 -4.138,-3.696c-1.153,-1.651 -2.057,-3.697 -2.713,-6.138c-0.633,-2.442 -0.949,-5.268 -0.949,-8.479c-0,-3.255 0.316,-6.104 0.949,-8.546c0.656,-2.464 1.572,-4.522 2.747,-6.172c1.199,-1.673 2.623,-2.928 4.273,-3.765c1.651,-0.836 3.471,-1.254 5.46,-1.254c1.221,-0 2.34,0.146 3.358,0.44c1.017,0.272 1.933,0.668 2.747,1.187c0.814,0.498 1.537,1.086 2.17,1.764c0.656,0.656 1.232,1.379 1.73,2.17l0.339,0c-0.136,-0.882 -0.26,-1.775 -0.373,-2.679c-0.113,-0.769 -0.215,-1.582 -0.305,-2.442c-0.068,-0.882 -0.102,-1.695 -0.102,-2.442l0,-12.141l10.344,0l-0,52.77l-7.902,-0l-2.001,-4.918l-0.441,0c-0.475,0.769 -1.017,1.503 -1.628,2.205c-0.61,0.677 -1.323,1.265 -2.136,1.763c-0.792,0.498 -1.696,0.893 -2.713,1.187c-0.995,0.294 -2.126,0.44 -3.392,0.44l0,0.001Zm3.765,-8.241c1.22,0 2.26,-0.203 3.12,-0.61c0.859,-0.43 1.548,-1.063 2.068,-1.899c0.543,-0.86 0.939,-1.922 1.187,-3.188c0.272,-1.266 0.419,-2.747 0.441,-4.443l0,-1.12c0,-1.831 -0.113,-3.459 -0.339,-4.883c-0.226,-1.425 -0.599,-2.612 -1.119,-3.561c-0.52,-0.972 -1.221,-1.707 -2.103,-2.204c-0.881,-0.498 -1.989,-0.747 -3.323,-0.747c-2.171,0 -3.764,0.984 -4.782,2.951c-1.017,1.944 -1.526,4.781 -1.526,8.512c0,3.73 0.509,6.534 1.526,8.41c1.04,1.854 2.657,2.781 4.85,2.781l-0,0.001Z" style="fill-rule:nonzero;"/><path id="path12561" d="M378.908,874.324c1.944,-0 3.719,0.418 5.324,1.254c1.606,0.837 2.985,2.08 4.138,3.731c1.153,1.65 2.046,3.697 2.679,6.138c0.656,2.442 0.983,5.268 0.983,8.479c0,3.255 -0.327,6.115 -0.983,8.58c-0.633,2.441 -1.538,4.487 -2.713,6.138c-1.176,1.65 -2.589,2.894 -4.239,3.73c-1.651,0.837 -3.471,1.255 -5.46,1.255c-1.266,0 -2.397,-0.136 -3.392,-0.407c-0.972,-0.272 -1.842,-0.634 -2.611,-1.086c-0.769,-0.452 -1.447,-0.96 -2.035,-1.526c-0.565,-0.588 -1.085,-1.198 -1.56,-1.831l-0.712,-0l-1.73,4.171l-7.901,0l-0,-52.769l10.343,0l0,12.277c0,0.746 -0.022,1.56 -0.067,2.442c-0.045,0.859 -0.09,1.661 -0.136,2.407c-0.068,0.882 -0.135,1.764 -0.203,2.646l0.407,-0c0.474,-0.792 1.017,-1.526 1.627,-2.205c0.611,-0.678 1.312,-1.266 2.103,-1.763c0.814,-0.52 1.73,-0.927 2.747,-1.221c1.017,-0.294 2.148,-0.441 3.391,-0.441l-0,0.001Zm-3.493,8.275c-1.153,-0 -2.137,0.215 -2.951,0.644c-0.791,0.408 -1.435,1.029 -1.933,1.866c-0.497,0.836 -0.859,1.899 -1.085,3.188c-0.226,1.266 -0.362,2.746 -0.407,4.442l0,1.12c0,1.831 0.102,3.459 0.305,4.883c0.226,1.425 0.588,2.623 1.086,3.595c0.497,0.95 1.153,1.673 1.967,2.171c0.836,0.497 1.865,0.746 3.086,0.746c2.057,-0 3.561,-0.972 4.51,-2.917c0.972,-1.967 1.458,-4.815 1.458,-8.546c0,-3.73 -0.486,-6.522 -1.458,-8.376c-0.949,-1.877 -2.476,-2.815 -4.578,-2.815l-0,-0.001Z" style="fill-rule:nonzero;"/><path id="path12563" d="M395.492,875.036l11.327,-0l6.104,21.331c0.361,1.176 0.621,2.431 0.779,3.765c0.182,1.334 0.295,2.532 0.339,3.594l0.204,0c0.047,-0.519 0.104,-1.096 0.17,-1.729c0.09,-0.633 0.192,-1.278 0.304,-1.933c0.114,-0.656 0.238,-1.3 0.374,-1.933c0.158,-0.656 0.316,-1.244 0.474,-1.764l5.969,-21.331l11.395,-0l-14.99,42.764c-1.401,4.002 -3.312,6.975 -5.731,8.92c-2.419,1.944 -5.449,2.916 -9.089,2.916c-1.175,0 -2.193,-0.068 -3.052,-0.203c-0.859,-0.113 -1.594,-0.238 -2.204,-0.373l-0,-8.207c0.475,0.113 1.074,0.215 1.797,0.305c0.724,0.09 1.481,0.135 2.272,0.135c1.086,0 2.013,-0.146 2.781,-0.44c0.769,-0.294 1.425,-0.712 1.967,-1.255c0.565,-0.52 1.04,-1.153 1.425,-1.899c0.407,-0.747 0.757,-1.583 1.051,-2.51l0.645,-1.899l-14.311,-38.254Z" style="fill-rule:nonzero;"/></g></g><g id="Archcraft1" serif:id="Archcraft"><g id="Archcraft2" serif:id="Archcraft"><path id="path78135" d="M135.005,1137.28l-5.942,19.167l37.758,-0l-5.941,-19.167c-2.3,-7.028 -4.472,-13.991 -6.517,-20.891c-2.044,-7.028 -4.089,-14.184 -6.133,-21.467l-0.767,-0c-1.917,7.283 -3.897,14.439 -5.942,21.467c-2.044,6.9 -4.216,13.863 -6.516,20.891Zm-38.334,70.342l42.55,-125.733l18.017,-0l42.55,125.733l-17.058,-0l-11.884,-38.333l-45.808,-0l-12.075,38.333l-16.292,-0Z" style="fill:#fff;fill-rule:nonzero;"/><path id="path78137" d="M216.08,1207.62l-0,-93.15l13.033,-0l1.342,16.867l0.575,-0c3.194,-5.878 7.091,-10.542 11.691,-13.992c4.6,-3.45 9.52,-5.175 14.759,-5.175c3.705,-0 7.028,0.639 9.966,1.917l-3.066,13.8c-1.534,-0.512 -2.939,-0.895 -4.217,-1.15c-1.278,-0.256 -2.875,-0.384 -4.792,-0.384c-3.961,0 -8.113,1.597 -12.458,4.792c-4.217,3.194 -7.922,8.753 -11.117,16.675l0,59.8l-15.716,-0Z" style="fill:#fff;fill-rule:nonzero;"/><path id="path78139" d="M317.471,1209.92c-8.177,-0 -15.588,-1.917 -22.233,-5.75c-6.644,-3.833 -11.883,-9.392 -15.717,-16.675c-3.833,-7.283 -5.75,-16.036 -5.75,-26.258c0,-10.478 2.045,-19.359 6.134,-26.642c4.216,-7.283 9.711,-12.842 16.483,-16.675c6.9,-3.833 14.311,-5.75 22.233,-5.75c6.134,-0 11.373,1.086 15.717,3.258c4.472,2.172 8.306,4.728 11.5,7.667l-8.05,10.35c-2.683,-2.428 -5.558,-4.408 -8.625,-5.942c-2.939,-1.533 -6.261,-2.3 -9.967,-2.3c-5.622,0 -10.669,1.534 -15.141,4.6c-4.345,2.939 -7.795,7.156 -10.35,12.65c-2.428,5.367 -3.642,11.628 -3.642,18.784c0,10.605 2.62,19.23 7.858,25.875c5.367,6.516 12.331,9.775 20.892,9.775c4.345,-0 8.37,-0.895 12.075,-2.684c3.706,-1.916 6.964,-4.153 9.775,-6.708l6.9,10.542c-4.217,3.705 -8.88,6.644 -13.992,8.816c-5.111,2.045 -10.477,3.067 -16.1,3.067Z" style="fill:#fff;fill-rule:nonzero;"/><path id="path78141" d="M368.071,1207.62l0,-136.467l15.717,0l-0,37.184l-0.575,19.166c4.472,-4.216 9.136,-7.794 13.992,-10.733c4.983,-3.067 10.669,-4.6 17.058,-4.6c9.839,-0 16.994,3.13 21.467,9.392c4.6,6.133 6.9,15.141 6.9,27.025l-0,59.033l-15.717,-0l-0,-56.925c-0,-8.689 -1.406,-15.014 -4.217,-18.975c-2.811,-3.961 -7.283,-5.942 -13.416,-5.942c-4.728,0 -9.009,1.214 -12.842,3.642c-3.706,2.428 -7.922,6.005 -12.65,10.733l-0,67.467l-15.717,-0Z" style="fill:#fff;fill-rule:nonzero;"/><path id="path78143" d="M509.138,1209.92c-8.178,-0 -15.589,-1.917 -22.233,-5.75c-6.645,-3.833 -11.884,-9.392 -15.717,-16.675c-3.833,-7.283 -5.75,-16.036 -5.75,-26.258c0,-10.478 2.044,-19.359 6.133,-26.642c4.217,-7.283 9.711,-12.842 16.484,-16.675c6.9,-3.833 14.311,-5.75 22.233,-5.75c6.133,-0 11.372,1.086 15.717,3.258c4.472,2.172 8.305,4.728 11.5,7.667l-8.05,10.35c-2.684,-2.428 -5.559,-4.408 -8.625,-5.942c-2.939,-1.533 -6.261,-2.3 -9.967,-2.3c-5.622,0 -10.669,1.534 -15.142,4.6c-4.344,2.939 -7.794,7.156 -10.35,12.65c-2.427,5.367 -3.641,11.628 -3.641,18.784c-0,10.605 2.619,19.23 7.858,25.875c5.367,6.516 12.331,9.775 20.892,9.775c4.344,-0 8.369,-0.895 12.075,-2.684c3.705,-1.916 6.964,-4.153 9.775,-6.708l6.9,10.542c-4.217,3.705 -8.881,6.644 -13.992,8.816c-5.111,2.045 -10.478,3.067 -16.1,3.067Z" style="fill:#fff;fill-rule:nonzero;"/><path id="path78145" d="M559.738,1207.62l-0,-93.15l13.033,-0l1.342,16.867l0.575,-0c3.194,-5.878 7.091,-10.542 11.691,-13.992c4.6,-3.45 9.52,-5.175 14.759,-5.175c3.705,-0 7.028,0.639 9.966,1.917l-3.066,13.8c-1.534,-0.512 -2.939,-0.895 -4.217,-1.15c-1.278,-0.256 -2.875,-0.384 -4.792,-0.384c-3.961,0 -8.113,1.597 -12.458,4.792c-4.217,3.194 -7.922,8.753 -11.117,16.675l0,59.8l-15.716,-0Z" style="fill:#fff;fill-rule:nonzero;"/><path id="path78147" d="M643.113,1209.92c-7.795,-0 -14.311,-2.3 -19.55,-6.9c-5.111,-4.728 -7.667,-11.245 -7.667,-19.55c0,-10.222 4.536,-18.017 13.608,-23.383c9.2,-5.495 23.703,-9.328 43.509,-11.5c-0,-3.962 -0.575,-7.731 -1.725,-11.309c-1.022,-3.578 -2.939,-6.453 -5.75,-8.625c-2.684,-2.3 -6.581,-3.45 -11.692,-3.45c-5.367,0 -10.414,1.022 -15.142,3.067c-4.727,2.044 -8.944,4.344 -12.65,6.9l-6.133,-10.925c4.345,-2.811 9.647,-5.495 15.908,-8.05c6.389,-2.683 13.289,-4.025 20.7,-4.025c11.373,-0 19.614,3.514 24.725,10.542c5.112,6.9 7.667,16.163 7.667,27.791l0,57.117l-13.033,-0l-1.342,-11.117l-0.575,0c-4.344,3.578 -9.136,6.709 -14.375,9.392c-5.111,2.683 -10.605,4.025 -16.483,4.025Zm4.6,-12.65c4.472,-0 8.689,-1.086 12.65,-3.258c3.961,-2.173 8.178,-5.239 12.65,-9.2l-0,-25.875c-15.461,1.916 -26.322,4.791 -32.584,8.625c-6.133,3.833 -9.2,8.752 -9.2,14.758c0,5.239 1.598,9.072 4.792,11.5c3.195,2.3 7.092,3.45 11.692,3.45Z" style="fill:#fff;fill-rule:nonzero;"/><path id="path78149" d="M720.929,1207.62l0,-80.308l-12.65,-0l0,-11.884l12.65,-0.958l0,-14.758c0,-9.456 2.173,-16.931 6.517,-22.425c4.472,-5.623 11.372,-8.434 20.7,-8.434c2.939,0 5.75,0.32 8.433,0.959c2.684,0.511 5.048,1.213 7.092,2.108l-3.45,12.075c-3.45,-1.533 -6.964,-2.3 -10.542,-2.3c-8.689,-0 -13.033,6.005 -13.033,18.017l-0,14.758l34.117,-0l1.916,-26.067l13.034,0l-0,26.067l25.3,-0l-0,12.842l-25.3,-0l-0,51.75c-0,5.75 1.086,10.222 3.258,13.416c2.172,3.067 5.942,4.6 11.308,4.6c1.661,0 3.45,-0.255 5.367,-0.766c1.917,-0.639 3.642,-1.214 5.175,-1.725l3.067,11.883c-2.556,0.894 -5.367,1.661 -8.434,2.3c-2.939,0.767 -5.877,1.15 -8.816,1.15c-9.967,-0 -16.931,-2.875 -20.892,-8.625c-3.833,-5.75 -5.75,-13.225 -5.75,-22.425l-0,-51.558l-33.35,-0l-0,80.308l-15.717,-0Z" style="fill:#fff;fill-rule:nonzero;"/></g><g id="Logo"><ellipse id="path870-7" cx="454.281" cy="476.328" rx="327.888" ry="327.887" style="fill:#1d2128;"/><path id="path53" d="M451.554,252.185l-0,0.009c-18.06,44.267 -28.947,73.226 -49.055,116.177c17.491,8.838 32.799,22.907 52.03,45.464c-21.868,-17.296 -38.916,-27.74 -57.91,-33.106c-25.733,53.684 -66.049,130.155 -147.861,277.123c24.253,-14.224 161.368,-50.028 148.915,-82.451c-3.36,-8.095 -10.12,-9.171 -20.524,-12.868l-0,-20.601c10.423,-3.71 17.164,-4.771 20.524,-12.872c3.366,-8.115 -0.653,-13.639 -5.403,-23.634l14.568,-14.56c10.041,4.774 15.53,8.763 23.633,5.397l0.005,0c8.097,-3.359 9.165,-10.098 12.876,-20.52l20.605,0c3.723,10.473 4.78,17.167 12.87,20.52l0.005,0c8.123,3.366 13.686,-0.667 23.638,-5.397l14.564,14.56c-4.763,10.027 -8.758,15.532 -5.398,23.634l-0,0.004c3.347,8.076 9.998,9.127 20.524,12.868l-0,20.601c-68.113,38.057 91.063,82.184 124.266,95.319c-12.508,-23.022 -23.674,-43.778 -34.335,-63.543c-16.793,-13.013 -34.31,-29.947 -70.041,-48.281c24.559,6.38 42.144,13.741 55.85,21.969c-108.397,-201.775 -117.175,-228.587 -154.346,-315.812Zm2.098,274.553c-14.084,0 -25.498,11.417 -25.498,25.497c-0,14.081 11.414,25.493 25.498,25.493c14.083,-0 25.502,-11.412 25.502,-25.493c0,-14.08 -11.419,-25.497 -25.502,-25.497Z" style="fill:url(#_Linear2);fill-rule:nonzero;"/></g></g></g><defs><linearGradient id="_Linear2" x1="0" y1="0" x2="1" y2="0" gradientUnits="userSpaceOnUse" gradientTransform="matrix(378.503,-371.623,371.623,378.503,194.617,711.206)"><stop offset="0" style="stop-color:#62aeef;stop-opacity:1"/><stop offset="1" style="stop-color:#98c379;stop-opacity:1"/></linearGradient></defs></svg>