<?xml version="1.0" encoding="UTF-8" standalone="no"?><!DOCTYPE svg PUBLIC "-//W3C//DTD SVG 1.1//EN" "http://www.w3.org/Graphics/SVG/1.1/DTD/svg11.dtd"><svg width="100%" height="100%" viewBox="0 0 907 1352" version="1.1" xmlns="http://www.w3.org/2000/svg" xmlns:xlink="http://www.w3.org/1999/xlink" xml:space="preserve" xmlns:serif="http://www.serif.com/" style="fill-rule:evenodd;clip-rule:evenodd;stroke-linejoin:round;stroke-miterlimit:2;"><rect id="Archcraft" x="0" y="0" width="906.667" height="1351.11" style="fill:none;"/><clipPath id="_clip1"><rect x="0" y="0" width="906.667" height="1351.11"/></clipPath><g clip-path="url(#_clip1)"><g><g id="Frame"><path id="path36023" d="M363.216,8.892l180.223,-0c196.299,-0 354.331,36.928 354.331,82.799l0,1167.73c0,45.871 -158.032,82.8 -354.331,82.8l-180.223,-0c-196.3,-0 -354.331,-36.929 -354.331,-82.8l-0,-1167.73c-0,-45.871 158.031,-82.799 354.331,-82.799Z" style="fill:#fff;fill-rule:nonzero;"/><path id="path36025" d="M363.223,0c-98.707,0 -187.78,9.234 -252.805,24.429c-32.513,7.598 -58.999,16.618 -78.087,27.198c-9.543,5.29 -17.286,10.978 -22.976,17.509c-5.69,6.53 -9.365,14.275 -9.365,22.561l-0,1167.72c-0,8.285 3.675,16.03 9.365,22.56c5.69,6.531 13.433,12.219 22.976,17.509c19.088,10.581 45.574,19.6 78.087,27.198c65.025,15.195 154.098,24.429 252.805,24.429l180.21,0c98.707,0 187.781,-9.234 252.806,-24.429c32.512,-7.598 58.999,-16.617 78.086,-27.198c9.544,-5.29 17.286,-10.978 22.976,-17.509c5.69,-6.53 9.366,-14.275 9.366,-22.56l-0,-1167.72c-0,-8.286 -3.676,-16.031 -9.366,-22.561c-5.69,-6.531 -13.432,-12.219 -22.976,-17.509c-19.087,-10.58 -45.574,-19.6 -78.086,-27.198c-65.025,-15.195 -154.099,-24.429 -252.806,-24.429l-180.21,0Zm0,17.786l180.21,-0c97.592,-0 185.703,9.231 248.769,23.968c31.532,7.368 56.817,16.176 73.495,25.421c8.339,4.622 14.482,9.365 18.201,13.633c3.719,4.269 4.983,7.706 4.983,10.889l-0,1167.72c-0,3.182 -1.264,6.619 -4.983,10.888c-3.719,4.269 -9.862,9.011 -18.201,13.633c-16.678,9.245 -41.963,18.053 -73.495,25.421c-63.066,14.738 -151.177,23.969 -248.769,23.969l-180.21,-0c-97.592,-0 -185.703,-9.231 -248.768,-23.969c-31.533,-7.368 -56.818,-16.176 -73.496,-25.421c-8.339,-4.622 -14.482,-9.364 -18.201,-13.633c-3.719,-4.269 -4.983,-7.706 -4.983,-10.888l0,-1167.72c0,-3.183 1.264,-6.62 4.983,-10.889c3.719,-4.268 9.862,-9.011 18.201,-13.633c16.678,-9.245 41.963,-18.053 73.496,-25.421c63.065,-14.737 151.176,-23.968 248.768,-23.968Z" style="fill-rule:nonzero;"/></g><g id="Bottom"><path id="path35979" d="M371.596,946.173l163.463,0c199.609,0 360.304,38.151 360.304,85.54l0,218.99c0,47.389 -160.695,85.54 -360.304,85.54l-163.463,-0c-199.609,-0 -360.304,-38.151 -360.304,-85.54l-0,-218.99c-0,-47.389 160.695,-85.54 360.304,-85.54Z" style="fill-rule:nonzero;"/><path id="path35981" d="M371.597,938.419c-100.298,0 -190.805,9.547 -256.796,25.214c-32.996,7.833 -59.838,17.123 -79.079,27.958c-19.24,10.836 -32.18,23.883 -32.18,40.116l0,218.988c0,16.233 12.94,29.303 32.18,40.139c19.241,10.835 46.083,20.125 79.079,27.958c65.991,15.667 156.498,25.214 256.796,25.214l163.462,0c100.299,0 190.805,-9.547 256.797,-25.214c32.996,-7.833 59.837,-17.123 79.078,-27.958c19.24,-10.836 32.18,-23.906 32.18,-40.139l0,-218.988c0,-16.233 -12.94,-29.28 -32.18,-40.116c-19.241,-10.835 -46.082,-20.125 -79.078,-27.958c-65.992,-15.667 -156.498,-25.214 -256.797,-25.214l-163.462,0Zm0,15.525l163.462,-0c99.31,-0 188.963,9.52 253.221,24.775c32.129,7.628 57.914,16.745 75.041,26.39c17.128,9.646 24.291,19.137 24.291,26.598l0,218.988c0,7.461 -7.163,16.952 -24.291,26.598c-17.127,9.645 -42.912,18.762 -75.041,26.39c-64.258,15.255 -153.911,24.798 -253.221,24.798l-163.462,0c-99.31,0 -188.963,-9.543 -253.221,-24.798c-32.129,-7.628 -57.913,-16.745 -75.041,-26.39c-17.127,-9.646 -24.291,-19.137 -24.291,-26.598l0,-218.988c0,-7.461 7.164,-16.952 24.291,-26.598c17.128,-9.645 42.912,-18.762 75.041,-26.39c64.258,-15.255 153.911,-24.775 253.221,-24.775Z" style="fill-rule:nonzero;"/></g><g id="Powered-By" serif:id="Powered By"><path id="path12547" d="M59.746,886.701l2.069,0c2.961,0 5.188,-0.588 6.68,-1.763c1.515,-1.176 2.273,-3.086 2.273,-5.732c-0,-2.464 -0.679,-4.284 -2.035,-5.46c-1.334,-1.175 -3.437,-1.763 -6.308,-1.763l-2.679,-0l-0,14.718Zm21.67,-7.868c0,2.171 -0.328,4.251 -0.983,6.24c-0.656,1.99 -1.741,3.742 -3.256,5.257c-1.492,1.515 -3.47,2.724 -5.935,3.629c-2.441,0.904 -5.471,1.356 -9.088,1.356l-2.408,0l-0,17.635l-10.513,-0l-0,-49.581l13.768,-0c3.188,-0 5.935,0.362 8.241,1.085c2.329,0.701 4.239,1.719 5.732,3.053c1.514,1.311 2.634,2.927 3.357,4.849c0.724,1.899 1.085,4.058 1.085,6.478l0,-0.001Z" style="fill-rule:nonzero;"/><path id="path12549" d="M98.576,893.925c0,3.775 0.532,6.624 1.594,8.546c1.063,1.899 2.792,2.848 5.189,2.848c2.374,0 4.092,-0.96 5.155,-2.882c1.062,-1.922 1.594,-4.759 1.594,-8.512c-0,-3.776 -0.532,-6.591 -1.594,-8.445c-1.063,-1.876 -2.804,-2.814 -5.223,-2.814c-2.374,-0 -4.092,0.938 -5.155,2.814c-1.04,1.854 -1.56,4.669 -1.56,8.445Zm24.079,-0c-0,3.165 -0.407,5.968 -1.221,8.41c-0.792,2.442 -1.945,4.499 -3.459,6.172c-1.493,1.673 -3.324,2.951 -5.494,3.833c-2.148,0.859 -4.567,1.288 -7.258,1.288c-2.509,0 -4.815,-0.429 -6.918,-1.288c-2.103,-0.882 -3.923,-2.16 -5.46,-3.833c-1.515,-1.673 -2.702,-3.73 -3.561,-6.172c-0.859,-2.442 -1.289,-5.245 -1.289,-8.41c0,-3.143 0.396,-5.935 1.187,-8.377c0.814,-2.442 1.967,-4.488 3.46,-6.138c1.514,-1.673 3.346,-2.939 5.493,-3.798c2.148,-0.86 4.579,-1.289 7.292,-1.289c2.509,-0 4.815,0.429 6.918,1.289c2.103,0.859 3.911,2.125 5.426,3.798c1.538,1.65 2.736,3.696 3.595,6.138c0.859,2.442 1.289,5.234 1.289,8.377Z" style="fill-rule:nonzero;"/><path id="path12551" d="M160.536,912.95l-2.917,-13.26c-0.09,-0.384 -0.215,-0.927 -0.373,-1.628c-0.136,-0.724 -0.294,-1.526 -0.475,-2.408c-0.181,-0.904 -0.373,-1.854 -0.576,-2.848c-0.181,-1.018 -0.373,-2.024 -0.577,-3.019c-0.452,-2.328 -0.949,-4.838 -1.492,-7.528l-0.203,-0c-0.52,2.69 -0.995,5.211 -1.425,7.562c-0.181,0.995 -0.373,2.001 -0.576,3.019c-0.181,1.017 -0.362,1.978 -0.543,2.882c-0.181,0.882 -0.35,1.684 -0.508,2.408c-0.136,0.723 -0.249,1.289 -0.34,1.696l-3.052,13.124l-11.123,-0l-10.208,-37.915l10.275,0l3.833,16.787c0.203,0.882 0.407,1.944 0.61,3.188c0.226,1.221 0.429,2.464 0.61,3.73c0.204,1.244 0.385,2.431 0.543,3.561c0.158,1.108 0.283,1.99 0.373,2.645l0.203,0c0.023,-0.429 0.069,-0.983 0.136,-1.661c0.091,-0.701 0.192,-1.447 0.305,-2.239c0.113,-0.791 0.226,-1.593 0.339,-2.407c0.136,-0.837 0.26,-1.617 0.374,-2.34c0.135,-0.724 0.248,-1.357 0.339,-1.9c0.113,-0.565 0.203,-0.961 0.271,-1.187l4.137,-18.177l11.395,0l3.968,18.177c0.113,0.498 0.26,1.267 0.441,2.307c0.181,1.04 0.362,2.159 0.542,3.357c0.204,1.176 0.374,2.329 0.509,3.459c0.136,1.108 0.215,1.978 0.238,2.611l0.203,0c0.068,-0.565 0.181,-1.401 0.339,-2.509c0.181,-1.108 0.373,-2.295 0.577,-3.561c0.203,-1.289 0.418,-2.566 0.644,-3.832c0.249,-1.266 0.475,-2.34 0.678,-3.222l3.968,-16.787l10.14,0l-10.343,37.915l-11.259,-0Z" style="fill-rule:nonzero;"/><path id="path12553" d="M202.893,881.682c-1.831,0 -3.357,0.644 -4.578,1.933c-1.198,1.289 -1.888,3.312 -2.069,6.071l13.192,-0c-0.022,-1.153 -0.169,-2.216 -0.441,-3.188c-0.271,-0.972 -0.678,-1.809 -1.22,-2.51c-0.543,-0.723 -1.221,-1.289 -2.035,-1.695c-0.814,-0.408 -1.764,-0.611 -2.849,-0.611l0,0Zm1.323,31.946c-2.713,0 -5.212,-0.395 -7.495,-1.187c-2.284,-0.791 -4.251,-1.978 -5.901,-3.561c-1.65,-1.605 -2.939,-3.617 -3.866,-6.036c-0.904,-2.442 -1.357,-5.302 -1.357,-8.58c0,-3.324 0.419,-6.229 1.255,-8.716c0.837,-2.487 2.001,-4.555 3.493,-6.206c1.515,-1.673 3.324,-2.928 5.426,-3.764c2.126,-0.837 4.477,-1.255 7.054,-1.255c2.51,-0 4.771,0.384 6.783,1.153c2.035,0.746 3.753,1.854 5.155,3.323c1.424,1.47 2.509,3.278 3.255,5.426c0.769,2.125 1.153,4.567 1.153,7.325l0,5.02l-23.128,-0c0.044,1.447 0.271,2.758 0.678,3.934c0.429,1.153 1.017,2.136 1.763,2.95c0.769,0.791 1.685,1.402 2.747,1.831c1.086,0.43 2.318,0.645 3.697,0.645c1.153,0 2.238,-0.057 3.256,-0.17c1.04,-0.135 2.046,-0.328 3.018,-0.576c0.972,-0.249 1.933,-0.554 2.882,-0.916c0.95,-0.384 1.922,-0.825 2.917,-1.322l-0,8.003c-0.904,0.475 -1.82,0.882 -2.747,1.221c-0.904,0.317 -1.865,0.588 -2.883,0.814c-1.017,0.226 -2.114,0.384 -3.289,0.475c-1.176,0.113 -2.465,0.17 -3.866,0.17l-0,-0.001Z" style="fill-rule:nonzero;"/><path id="path12555" d="M247.692,874.323c0.272,-0 0.566,0.012 0.882,0.035c0.339,0 0.656,0.024 0.95,0.071c0.316,0.024 0.599,0.059 0.847,0.106c0.272,0.024 0.475,0.059 0.611,0.107l-0,9.699c-0.181,-0.047 -0.43,-0.093 -0.746,-0.136c-0.317,-0.047 -0.656,-0.083 -1.018,-0.106c-0.339,-0.047 -0.678,-0.071 -1.017,-0.071c-0.339,-0.024 -0.622,-0.036 -0.848,-0.036c-1.334,0 -2.566,0.17 -3.696,0.51c-1.108,0.339 -2.069,0.893 -2.883,1.661c-0.791,0.747 -1.413,1.742 -1.865,2.985c-0.43,1.22 -0.645,2.724 -0.645,4.51l0,19.297l-10.343,-0l-0,-37.915l7.834,-0l1.526,5.697l0.509,0c0.542,-0.972 1.13,-1.854 1.763,-2.645c0.633,-0.791 1.334,-1.458 2.103,-2.001c0.791,-0.565 1.673,-0.995 2.645,-1.289c0.995,-0.316 2.125,-0.474 3.391,-0.474l0,-0.005Z" style="fill-rule:nonzero;"/><path id="path12557" d="M273.399,881.682c-1.832,0 -3.358,0.644 -4.579,1.933c-1.198,1.289 -1.888,3.312 -2.068,6.071l13.192,-0c-0.023,-1.153 -0.17,-2.216 -0.441,-3.188c-0.271,-0.972 -0.678,-1.809 -1.221,-2.51c-0.543,-0.723 -1.221,-1.289 -2.035,-1.695c-0.814,-0.408 -1.763,-0.611 -2.848,-0.611l-0,0Zm1.322,31.946c-2.713,0 -5.211,-0.395 -7.495,-1.187c-2.283,-0.791 -4.25,-1.978 -5.901,-3.561c-1.65,-1.605 -2.939,-3.617 -3.866,-6.036c-0.904,-2.442 -1.356,-5.302 -1.356,-8.58c-0,-3.324 0.418,-6.229 1.255,-8.716c0.836,-2.487 2,-4.555 3.493,-6.206c1.514,-1.673 3.323,-2.928 5.426,-3.764c2.125,-0.837 4.476,-1.255 7.054,-1.255c2.509,-0 4.77,0.384 6.782,1.153c2.035,0.746 3.753,1.854 5.155,3.323c1.424,1.47 2.51,3.278 3.256,5.426c0.768,2.125 1.153,4.567 1.153,7.325l-0,5.02l-23.129,-0c0.045,1.447 0.271,2.758 0.678,3.934c0.43,1.153 1.018,2.136 1.764,2.95c0.769,0.791 1.684,1.402 2.747,1.831c1.085,0.43 2.317,0.645 3.696,0.645c1.153,0 2.239,-0.057 3.256,-0.17c1.04,-0.135 2.046,-0.328 3.018,-0.576c0.972,-0.249 1.933,-0.554 2.883,-0.916c0.949,-0.384 1.922,-0.825 2.916,-1.322l0,8.003c-0.904,0.475 -1.82,0.882 -2.747,1.221c-0.904,0.317 -1.865,0.588 -2.882,0.814c-1.018,0.226 -2.114,0.384 -3.29,0.475c-1.175,0.113 -2.464,0.17 -3.866,0.17l0,-0.001Z" style="fill-rule:nonzero;"/><path id="path12559" d="M309.584,913.628c-1.945,0 -3.719,-0.418 -5.325,-1.255c-1.605,-0.836 -2.984,-2.068 -4.137,-3.696c-1.153,-1.651 -2.057,-3.697 -2.713,-6.138c-0.633,-2.442 -0.95,-5.268 -0.95,-8.479c0,-3.255 0.317,-6.104 0.95,-8.546c0.656,-2.464 1.571,-4.521 2.747,-6.172c1.198,-1.673 2.623,-2.928 4.273,-3.764c1.65,-0.837 3.471,-1.255 5.46,-1.255c1.221,-0 2.34,0.147 3.357,0.44c1.018,0.272 1.934,0.668 2.747,1.187c0.814,0.498 1.538,1.086 2.171,1.764c0.656,0.656 1.232,1.379 1.729,2.17l0.34,0c-0.136,-0.881 -0.26,-1.774 -0.373,-2.679c-0.114,-0.768 -0.215,-1.582 -0.306,-2.442c-0.067,-0.881 -0.101,-1.695 -0.101,-2.441l-0,-12.141l10.343,-0l0,52.769l-7.902,-0l-2.001,-4.918l-0.44,0c-0.475,0.769 -1.018,1.504 -1.628,2.205c-0.611,0.678 -1.323,1.265 -2.137,1.763c-0.791,0.498 -1.695,0.893 -2.713,1.187c-0.995,0.294 -2.125,0.441 -3.391,0.441l-0,0Zm3.764,-8.241c1.221,0 2.261,-0.203 3.12,-0.61c0.859,-0.43 1.549,-1.063 2.069,-1.899c0.543,-0.859 0.938,-1.922 1.187,-3.188c0.271,-1.266 0.418,-2.747 0.441,-4.443l-0,-1.12c-0,-1.831 -0.113,-3.459 -0.339,-4.883c-0.226,-1.424 -0.599,-2.611 -1.119,-3.561c-0.52,-0.972 -1.221,-1.707 -2.103,-2.204c-0.882,-0.498 -1.99,-0.747 -3.324,-0.747c-2.17,0 -3.764,0.984 -4.781,2.951c-1.018,1.944 -1.526,4.781 -1.526,8.512c-0,3.73 0.508,6.534 1.526,8.41c1.04,1.854 2.656,2.781 4.849,2.781l0,0.001Z" style="fill-rule:nonzero;"/><path id="path12561" d="M378.902,874.323c1.945,-0 3.719,0.418 5.325,1.255c1.605,0.836 2.984,2.08 4.137,3.73c1.153,1.651 2.046,3.697 2.679,6.138c0.656,2.442 0.984,5.268 0.984,8.479c-0,3.255 -0.328,6.115 -0.984,8.58c-0.633,2.441 -1.537,4.488 -2.713,6.138c-1.176,1.65 -2.589,2.894 -4.239,3.73c-1.65,0.837 -3.47,1.255 -5.46,1.255c-1.266,0 -2.397,-0.136 -3.391,-0.407c-0.973,-0.272 -1.843,-0.634 -2.612,-1.086c-0.768,-0.452 -1.447,-0.96 -2.034,-1.526c-0.566,-0.588 -1.086,-1.198 -1.56,-1.831l-0.713,-0l-1.729,4.171l-7.902,0l0,-52.769l10.344,0l-0,12.277c-0,0.746 -0.023,1.56 -0.068,2.442c-0.045,0.859 -0.09,1.661 -0.135,2.408c-0.068,0.881 -0.136,1.763 -0.204,2.645l0.407,-0c0.475,-0.792 1.017,-1.526 1.628,-2.205c0.61,-0.678 1.311,-1.265 2.102,-1.763c0.814,-0.52 1.73,-0.927 2.747,-1.221c1.018,-0.294 2.148,-0.441 3.392,-0.441l-0.001,0.001Zm-3.493,8.275c-1.153,-0 -2.136,0.215 -2.95,0.645c-0.792,0.407 -1.436,1.028 -1.933,1.865c-0.498,0.836 -0.859,1.899 -1.085,3.188c-0.227,1.266 -0.362,2.747 -0.407,4.442l-0,1.12c-0,1.831 0.101,3.459 0.305,4.883c0.226,1.425 0.588,2.623 1.085,3.595c0.497,0.95 1.153,1.673 1.967,2.171c0.836,0.497 1.865,0.746 3.086,0.746c2.057,0 3.561,-0.972 4.51,-2.916c0.973,-1.967 1.459,-4.816 1.459,-8.547c-0,-3.73 -0.486,-6.522 -1.459,-8.376c-0.949,-1.877 -2.475,-2.815 -4.578,-2.815l0,-0.001Z" style="fill-rule:nonzero;"/><path id="path12563" d="M395.486,875.035l11.327,0l6.104,21.331c0.362,1.176 0.621,2.431 0.78,3.765c0.181,1.334 0.294,2.532 0.339,3.595l0.203,-0c0.047,-0.52 0.104,-1.097 0.17,-1.73c0.09,-0.633 0.192,-1.277 0.305,-1.933c0.113,-0.656 0.237,-1.3 0.373,-1.933c0.158,-0.656 0.316,-1.244 0.475,-1.764l5.968,-21.331l11.395,0l-14.989,42.765c-1.402,4.001 -3.313,6.974 -5.732,8.919c-2.419,1.944 -5.448,2.916 -9.088,2.916c-1.176,0 -2.193,-0.068 -3.053,-0.203c-0.859,-0.113 -1.594,-0.238 -2.204,-0.373l0,-8.207c0.475,0.113 1.074,0.215 1.797,0.305c0.724,0.09 1.481,0.135 2.273,0.135c1.085,0 2.012,-0.146 2.78,-0.44c0.769,-0.294 1.425,-0.712 1.967,-1.255c0.566,-0.52 1.04,-1.153 1.425,-1.899c0.407,-0.747 0.757,-1.583 1.051,-2.51l0.645,-1.899l-14.311,-38.254Z" style="fill-rule:nonzero;"/></g></g><g id="Archcraft1" serif:id="Archcraft"><g id="Archcraft2" serif:id="Archcraft"><path id="path78135" d="M135.005,1137.28l-5.942,19.167l37.758,-0l-5.941,-19.167c-2.3,-7.028 -4.472,-13.991 -6.517,-20.891c-2.044,-7.028 -4.089,-14.184 -6.133,-21.467l-0.767,-0c-1.917,7.283 -3.897,14.439 -5.942,21.467c-2.044,6.9 -4.216,13.863 -6.516,20.891Zm-38.334,70.342l42.55,-125.733l18.017,-0l42.55,125.733l-17.058,-0l-11.884,-38.333l-45.808,-0l-12.075,38.333l-16.292,-0Z" style="fill:#fff;fill-rule:nonzero;"/><path id="path78137" d="M216.08,1207.62l-0,-93.15l13.033,-0l1.342,16.867l0.575,-0c3.194,-5.878 7.091,-10.542 11.691,-13.992c4.6,-3.45 9.52,-5.175 14.759,-5.175c3.705,-0 7.028,0.639 9.966,1.917l-3.066,13.8c-1.534,-0.512 -2.939,-0.895 -4.217,-1.15c-1.278,-0.256 -2.875,-0.384 -4.792,-0.384c-3.961,0 -8.113,1.597 -12.458,4.792c-4.217,3.194 -7.922,8.753 -11.117,16.675l0,59.8l-15.716,-0Z" style="fill:#fff;fill-rule:nonzero;"/><path id="path78139" d="M317.471,1209.92c-8.177,-0 -15.588,-1.917 -22.233,-5.75c-6.644,-3.833 -11.883,-9.392 -15.717,-16.675c-3.833,-7.283 -5.75,-16.036 -5.75,-26.258c0,-10.478 2.045,-19.359 6.134,-26.642c4.216,-7.283 9.711,-12.842 16.483,-16.675c6.9,-3.833 14.311,-5.75 22.233,-5.75c6.134,-0 11.373,1.086 15.717,3.258c4.472,2.172 8.306,4.728 11.5,7.667l-8.05,10.35c-2.683,-2.428 -5.558,-4.408 -8.625,-5.942c-2.939,-1.533 -6.261,-2.3 -9.967,-2.3c-5.622,0 -10.669,1.534 -15.141,4.6c-4.345,2.939 -7.795,7.156 -10.35,12.65c-2.428,5.367 -3.642,11.628 -3.642,18.784c0,10.605 2.62,19.23 7.858,25.875c5.367,6.516 12.331,9.775 20.892,9.775c4.345,-0 8.37,-0.895 12.075,-2.684c3.706,-1.916 6.964,-4.153 9.775,-6.708l6.9,10.542c-4.217,3.705 -8.88,6.644 -13.992,8.816c-5.111,2.045 -10.477,3.067 -16.1,3.067Z" style="fill:#fff;fill-rule:nonzero;"/><path id="path78141" d="M368.071,1207.62l0,-136.467l15.717,0l-0,37.184l-0.575,19.166c4.472,-4.216 9.136,-7.794 13.992,-10.733c4.983,-3.067 10.669,-4.6 17.058,-4.6c9.839,-0 16.994,3.13 21.467,9.392c4.6,6.133 6.9,15.141 6.9,27.025l-0,59.033l-15.717,-0l-0,-56.925c-0,-8.689 -1.406,-15.014 -4.217,-18.975c-2.811,-3.961 -7.283,-5.942 -13.416,-5.942c-4.728,0 -9.009,1.214 -12.842,3.642c-3.706,2.428 -7.922,6.005 -12.65,10.733l-0,67.467l-15.717,-0Z" style="fill:#fff;fill-rule:nonzero;"/><path id="path78143" d="M509.138,1209.92c-8.178,-0 -15.589,-1.917 -22.233,-5.75c-6.645,-3.833 -11.884,-9.392 -15.717,-16.675c-3.833,-7.283 -5.75,-16.036 -5.75,-26.258c0,-10.478 2.044,-19.359 6.133,-26.642c4.217,-7.283 9.711,-12.842 16.484,-16.675c6.9,-3.833 14.311,-5.75 22.233,-5.75c6.133,-0 11.372,1.086 15.717,3.258c4.472,2.172 8.305,4.728 11.5,7.667l-8.05,10.35c-2.684,-2.428 -5.559,-4.408 -8.625,-5.942c-2.939,-1.533 -6.261,-2.3 -9.967,-2.3c-5.622,0 -10.669,1.534 -15.142,4.6c-4.344,2.939 -7.794,7.156 -10.35,12.65c-2.427,5.367 -3.641,11.628 -3.641,18.784c-0,10.605 2.619,19.23 7.858,25.875c5.367,6.516 12.331,9.775 20.892,9.775c4.344,-0 8.369,-0.895 12.075,-2.684c3.705,-1.916 6.964,-4.153 9.775,-6.708l6.9,10.542c-4.217,3.705 -8.881,6.644 -13.992,8.816c-5.111,2.045 -10.478,3.067 -16.1,3.067Z" style="fill:#fff;fill-rule:nonzero;"/><path id="path78145" d="M559.738,1207.62l-0,-93.15l13.033,-0l1.342,16.867l0.575,-0c3.194,-5.878 7.091,-10.542 11.691,-13.992c4.6,-3.45 9.52,-5.175 14.759,-5.175c3.705,-0 7.028,0.639 9.966,1.917l-3.066,13.8c-1.534,-0.512 -2.939,-0.895 -4.217,-1.15c-1.278,-0.256 -2.875,-0.384 -4.792,-0.384c-3.961,0 -8.113,1.597 -12.458,4.792c-4.217,3.194 -7.922,8.753 -11.117,16.675l0,59.8l-15.716,-0Z" style="fill:#fff;fill-rule:nonzero;"/><path id="path78147" d="M643.113,1209.92c-7.795,-0 -14.311,-2.3 -19.55,-6.9c-5.111,-4.728 -7.667,-11.245 -7.667,-19.55c0,-10.222 4.536,-18.017 13.608,-23.383c9.2,-5.495 23.703,-9.328 43.509,-11.5c-0,-3.962 -0.575,-7.731 -1.725,-11.309c-1.022,-3.578 -2.939,-6.453 -5.75,-8.625c-2.684,-2.3 -6.581,-3.45 -11.692,-3.45c-5.367,0 -10.414,1.022 -15.142,3.067c-4.727,2.044 -8.944,4.344 -12.65,6.9l-6.133,-10.925c4.345,-2.811 9.647,-5.495 15.908,-8.05c6.389,-2.683 13.289,-4.025 20.7,-4.025c11.373,-0 19.614,3.514 24.725,10.542c5.112,6.9 7.667,16.163 7.667,27.791l0,57.117l-13.033,-0l-1.342,-11.117l-0.575,0c-4.344,3.578 -9.136,6.709 -14.375,9.392c-5.111,2.683 -10.605,4.025 -16.483,4.025Zm4.6,-12.65c4.472,-0 8.689,-1.086 12.65,-3.258c3.961,-2.173 8.178,-5.239 12.65,-9.2l-0,-25.875c-15.461,1.916 -26.322,4.791 -32.584,8.625c-6.133,3.833 -9.2,8.752 -9.2,14.758c0,5.239 1.598,9.072 4.792,11.5c3.195,2.3 7.092,3.45 11.692,3.45Z" style="fill:#fff;fill-rule:nonzero;"/><path id="path78149" d="M720.929,1207.62l0,-80.308l-12.65,-0l0,-11.884l12.65,-0.958l0,-14.758c0,-9.456 2.173,-16.931 6.517,-22.425c4.472,-5.623 11.372,-8.434 20.7,-8.434c2.939,0 5.75,0.32 8.433,0.959c2.684,0.511 5.048,1.213 7.092,2.108l-3.45,12.075c-3.45,-1.533 -6.964,-2.3 -10.542,-2.3c-8.689,-0 -13.033,6.005 -13.033,18.017l-0,14.758l34.117,-0l1.916,-26.067l13.034,0l-0,26.067l25.3,-0l-0,12.842l-25.3,-0l-0,51.75c-0,5.75 1.086,10.222 3.258,13.416c2.172,3.067 5.942,4.6 11.308,4.6c1.661,0 3.45,-0.255 5.367,-0.766c1.917,-0.639 3.642,-1.214 5.175,-1.725l3.067,11.883c-2.556,0.894 -5.367,1.661 -8.434,2.3c-2.939,0.767 -5.877,1.15 -8.816,1.15c-9.967,-0 -16.931,-2.875 -20.892,-8.625c-3.833,-5.75 -5.75,-13.225 -5.75,-22.425l-0,-51.558l-33.35,-0l-0,80.308l-15.717,-0Z" style="fill:#fff;fill-rule:nonzero;"/></g><g id="Logo"><ellipse id="path870-7" cx="454.281" cy="476.328" rx="327.888" ry="327.887" style="fill:#1d2128;"/><path id="path53" d="M451.554,252.185l-0,0.009c-18.06,44.267 -28.947,73.226 -49.055,116.177c17.491,8.838 32.799,22.907 52.03,45.464c-21.868,-17.296 -38.916,-27.74 -57.91,-33.106c-25.733,53.684 -66.049,130.155 -147.861,277.123c24.253,-14.224 161.368,-50.028 148.915,-82.451c-3.36,-8.095 -10.12,-9.171 -20.524,-12.868l-0,-20.601c10.423,-3.71 17.164,-4.771 20.524,-12.872c3.366,-8.115 -0.653,-13.639 -5.403,-23.634l14.568,-14.56c10.041,4.774 15.53,8.763 23.633,5.397l0.005,0c8.097,-3.359 9.165,-10.098 12.876,-20.52l20.605,0c3.723,10.473 4.78,17.167 12.87,20.52l0.005,0c8.123,3.366 13.686,-0.667 23.638,-5.397l14.564,14.56c-4.763,10.027 -8.758,15.532 -5.398,23.634l-0,0.004c3.347,8.076 9.998,9.127 20.524,12.868l-0,20.601c-68.113,38.057 91.063,82.184 124.266,95.319c-12.508,-23.022 -23.674,-43.778 -34.335,-63.543c-16.793,-13.013 -34.31,-29.947 -70.041,-48.281c24.559,6.38 42.144,13.741 55.85,21.969c-108.397,-201.775 -117.175,-228.587 -154.346,-315.812Zm2.098,274.553c-14.084,0 -25.498,11.417 -25.498,25.497c-0,14.081 11.414,25.493 25.498,25.493c14.083,-0 25.502,-11.412 25.502,-25.493c0,-14.08 -11.419,-25.497 -25.502,-25.497Z" style="fill:url(#_Linear2);fill-rule:nonzero;"/></g></g></g><defs><linearGradient id="_Linear2" x1="0" y1="0" x2="1" y2="0" gradientUnits="userSpaceOnUse" gradientTransform="matrix(378.503,-371.623,371.623,378.503,194.617,711.206)"><stop offset="0" style="stop-color:#62aeef;stop-opacity:1"/><stop offset="1" style="stop-color:#98c379;stop-opacity:1"/></linearGradient></defs></svg>