<?xml version="1.0" encoding="UTF-8" standalone="no"?><!DOCTYPE svg PUBLIC "-//W3C//DTD SVG 1.1//EN" "http://www.w3.org/Graphics/SVG/1.1/DTD/svg11.dtd"><svg width="100%" height="100%" viewBox="0 0 907 1352" version="1.1" xmlns="http://www.w3.org/2000/svg" xmlns:xlink="http://www.w3.org/1999/xlink" xml:space="preserve" xmlns:serif="http://www.serif.com/" style="fill-rule:evenodd;clip-rule:evenodd;stroke-linejoin:round;"><rect id="Arch" x="0" y="0" width="906.667" height="1351.11" style="fill:none;"/><clipPath id="_clip1"><rect x="0" y="0" width="906.667" height="1351.11"/></clipPath><g clip-path="url(#_clip1)"><g id="READ-ME" serif:id="READ ME"><path id="Frame" d="M897.778,363.221c-0,-195.561 -158.771,-354.332 -354.333,-354.332l-180.224,-0c-195.561,-0 -354.332,158.771 -354.332,354.332l-0,624.669c-0,195.561 158.771,354.332 354.332,354.332l180.224,0c195.562,0 354.333,-158.771 354.333,-354.332l-0,-624.669Z" style="fill:#fff;stroke:#000;stroke-width:17.78px;"/><path id="Bottom" d="M895.371,1141.21c-0,-107.643 -87.393,-195.036 -195.036,-195.036l-494.004,0c-107.643,0 -195.035,87.393 -195.035,195.036c-0,107.643 87.392,195.036 195.035,195.036l494.004,-0c107.643,-0 195.036,-87.393 195.036,-195.036Z" style="stroke:#000;stroke-width:15.52px;"/><g id="Powered-By" serif:id="Powered By"><path id="path12547" d="M59.75,886.702l2.069,0c2.962,0 5.189,-0.588 6.681,-1.763c1.515,-1.176 2.272,-3.087 2.272,-5.732c-0,-2.464 -0.678,-4.284 -2.035,-5.46c-1.334,-1.176 -3.436,-1.763 -6.308,-1.763l-2.679,-0l0,14.718Zm21.671,-7.868c-0,2.171 -0.328,4.251 -0.984,6.24c-0.655,1.99 -1.741,3.742 -3.255,5.257c-1.493,1.515 -3.471,2.724 -5.935,3.628c-2.442,0.905 -5.472,1.357 -9.089,1.357l-2.408,-0l0,17.635l-10.513,-0l0,-49.581l13.769,-0c3.188,-0 5.935,0.362 8.241,1.085c2.328,0.701 4.239,1.718 5.731,3.052c1.515,1.312 2.634,2.928 3.358,4.85c0.723,1.899 1.085,4.058 1.085,6.477l-0,0Z" style="fill-rule:nonzero;"/><path id="path12549" d="M98.581,893.926c-0,3.775 0.531,6.624 1.594,8.546c1.062,1.899 2.792,2.848 5.189,2.848c2.373,0 4.092,-0.96 5.154,-2.882c1.063,-1.922 1.594,-4.759 1.594,-8.512c0,-3.776 -0.531,-6.591 -1.594,-8.445c-1.062,-1.876 -2.803,-2.815 -5.222,-2.815c-2.374,0 -4.092,0.939 -5.155,2.815c-1.04,1.854 -1.56,4.669 -1.56,8.445Zm24.078,-0c0,3.165 -0.407,5.968 -1.221,8.41c-0.791,2.442 -1.944,4.499 -3.459,6.172c-1.492,1.673 -3.323,2.951 -5.494,3.832c-2.148,0.86 -4.567,1.289 -7.257,1.289c-2.51,0 -4.816,-0.429 -6.918,-1.289c-2.103,-0.881 -3.923,-2.159 -5.46,-3.832c-1.515,-1.673 -2.702,-3.73 -3.561,-6.172c-0.859,-2.442 -1.289,-5.245 -1.289,-8.41c-0,-3.143 0.396,-5.935 1.187,-8.377c0.814,-2.442 1.967,-4.488 3.459,-6.138c1.515,-1.673 3.346,-2.939 5.494,-3.799c2.148,-0.859 4.578,-1.288 7.291,-1.288c2.51,-0 4.816,0.429 6.919,1.288c2.102,0.86 3.911,2.126 5.426,3.799c1.537,1.65 2.735,3.696 3.595,6.138c0.859,2.442 1.288,5.234 1.288,8.377Z" style="fill-rule:nonzero;"/><path id="path12551" d="M160.54,912.951l-2.916,-13.26c-0.091,-0.384 -0.215,-0.927 -0.373,-1.628c-0.136,-0.724 -0.294,-1.526 -0.475,-2.408c-0.181,-0.904 -0.373,-1.854 -0.576,-2.849c-0.181,-1.017 -0.373,-2.023 -0.577,-3.018c-0.452,-2.329 -0.95,-4.838 -1.492,-7.529l-0.204,0c-0.52,2.691 -0.994,5.212 -1.424,7.563c-0.181,0.995 -0.373,2.001 -0.576,3.018c-0.181,1.018 -0.362,1.979 -0.543,2.883c-0.181,0.882 -0.35,1.684 -0.509,2.408c-0.135,0.723 -0.248,1.289 -0.339,1.695l-3.052,13.125l-11.124,-0l-10.208,-37.915l10.276,-0l3.832,16.787c0.204,0.882 0.407,1.944 0.611,3.188c0.226,1.221 0.429,2.464 0.61,3.73c0.204,1.244 0.384,2.431 0.543,3.561c0.158,1.108 0.282,1.99 0.373,2.645l0.203,0c0.023,-0.43 0.068,-0.983 0.136,-1.661c0.09,-0.701 0.192,-1.447 0.305,-2.239c0.113,-0.791 0.226,-1.594 0.339,-2.408c0.136,-0.836 0.26,-1.616 0.373,-2.34c0.136,-0.723 0.249,-1.356 0.339,-1.899c0.113,-0.565 0.204,-0.961 0.272,-1.187l4.137,-18.177l11.395,-0l3.968,18.177c0.113,0.498 0.26,1.267 0.441,2.306c0.181,1.04 0.361,2.16 0.542,3.358c0.204,1.176 0.373,2.329 0.509,3.459c0.136,1.108 0.215,1.978 0.237,2.611l0.204,0c0.068,-0.565 0.181,-1.402 0.339,-2.509c0.181,-1.108 0.373,-2.295 0.576,-3.561c0.204,-1.289 0.419,-2.566 0.645,-3.832c0.249,-1.266 0.475,-2.34 0.678,-3.222l3.968,-16.787l10.14,-0l-10.343,37.915l-11.26,-0Z" style="fill-rule:nonzero;"/><path id="path12553" d="M202.898,881.683c-1.831,-0 -3.357,0.644 -4.578,1.933c-1.198,1.289 -1.888,3.312 -2.069,6.07l13.192,0c-0.022,-1.153 -0.169,-2.215 -0.441,-3.187c-0.271,-0.973 -0.678,-1.809 -1.22,-2.51c-0.543,-0.724 -1.221,-1.289 -2.035,-1.696c-0.814,-0.407 -1.764,-0.61 -2.849,-0.61l0,-0Zm1.323,31.946c-2.713,0 -5.212,-0.395 -7.495,-1.187c-2.284,-0.791 -4.251,-1.978 -5.901,-3.561c-1.65,-1.605 -2.939,-3.617 -3.866,-6.036c-0.905,-2.442 -1.357,-5.302 -1.357,-8.58c0,-3.324 0.419,-6.229 1.255,-8.716c0.837,-2.487 2.001,-4.556 3.493,-6.206c1.515,-1.673 3.324,-2.928 5.426,-3.765c2.126,-0.836 4.477,-1.254 7.054,-1.254c2.51,-0 4.771,0.384 6.783,1.152c2.035,0.747 3.753,1.855 5.155,3.324c1.424,1.47 2.509,3.278 3.255,5.426c0.769,2.125 1.153,4.567 1.153,7.325l0,5.019l-23.128,0c0.044,1.447 0.271,2.759 0.678,3.934c0.429,1.153 1.017,2.137 1.763,2.951c0.769,0.791 1.685,1.402 2.747,1.831c1.086,0.43 2.318,0.645 3.697,0.645c1.153,0 2.238,-0.057 3.256,-0.17c1.04,-0.136 2.046,-0.328 3.018,-0.576c0.972,-0.249 1.933,-0.554 2.882,-0.916c0.95,-0.384 1.922,-0.825 2.917,-1.322l-0,8.003c-0.904,0.475 -1.82,0.882 -2.747,1.221c-0.904,0.317 -1.865,0.588 -2.883,0.814c-1.017,0.226 -2.114,0.384 -3.289,0.475c-1.176,0.113 -2.465,0.17 -3.866,0.17l-0,-0.001Z" style="fill-rule:nonzero;"/><path id="path12555" d="M247.698,874.324c0.271,-0 0.565,0.011 0.881,0.035c0.339,0 0.656,0.024 0.95,0.071c0.316,0.024 0.599,0.059 0.848,0.106c0.271,0.024 0.474,0.059 0.61,0.107l-0,9.699c-0.181,-0.047 -0.43,-0.093 -0.746,-0.136c-0.317,-0.047 -0.656,-0.083 -1.018,-0.106c-0.339,-0.048 -0.678,-0.071 -1.017,-0.071c-0.339,-0.024 -0.622,-0.036 -0.848,-0.036c-1.334,0 -2.566,0.17 -3.696,0.509c-1.108,0.34 -2.069,0.894 -2.883,1.662c-0.791,0.747 -1.413,1.741 -1.865,2.984c-0.43,1.221 -0.645,2.725 -0.645,4.511l0,19.297l-10.343,-0l-0,-37.915l7.834,-0l1.526,5.697l0.509,0c0.542,-0.972 1.13,-1.854 1.763,-2.645c0.633,-0.791 1.334,-1.458 2.103,-2.001c0.791,-0.565 1.673,-0.995 2.645,-1.289c0.995,-0.316 2.125,-0.475 3.391,-0.475l0.001,-0.004Z" style="fill-rule:nonzero;"/><path id="path12557" d="M273.404,881.683c-1.832,-0 -3.358,0.644 -4.579,1.933c-1.198,1.289 -1.887,3.312 -2.068,6.07l13.192,0c-0.023,-1.153 -0.17,-2.215 -0.441,-3.187c-0.271,-0.973 -0.678,-1.809 -1.221,-2.51c-0.542,-0.724 -1.221,-1.289 -2.035,-1.696c-0.813,-0.407 -1.763,-0.61 -2.848,-0.61l-0,-0Zm1.322,31.946c-2.713,0 -5.211,-0.395 -7.494,-1.187c-2.284,-0.791 -4.251,-1.978 -5.901,-3.561c-1.651,-1.605 -2.94,-3.617 -3.866,-6.036c-0.905,-2.442 -1.357,-5.302 -1.357,-8.58c-0,-3.324 0.418,-6.229 1.255,-8.716c0.836,-2.487 2.001,-4.556 3.493,-6.206c1.515,-1.673 3.323,-2.928 5.426,-3.765c2.125,-0.836 4.477,-1.254 7.054,-1.254c2.51,-0 4.77,0.384 6.783,1.152c2.034,0.747 3.753,1.855 5.154,3.324c1.425,1.47 2.51,3.278 3.256,5.426c0.769,2.125 1.153,4.567 1.153,7.325l0,5.019l-23.129,0c0.045,1.447 0.271,2.759 0.679,3.934c0.429,1.153 1.017,2.137 1.763,2.951c0.769,0.791 1.684,1.402 2.747,1.831c1.085,0.43 2.317,0.645 3.697,0.645c1.153,0 2.238,-0.057 3.255,-0.17c1.04,-0.136 2.046,-0.328 3.018,-0.576c0.973,-0.249 1.934,-0.554 2.883,-0.916c0.95,-0.384 1.922,-0.825 2.917,-1.322l-0,8.003c-0.905,0.475 -1.82,0.882 -2.747,1.221c-0.905,0.317 -1.866,0.588 -2.883,0.814c-1.017,0.226 -2.114,0.384 -3.29,0.475c-1.175,0.113 -2.464,0.17 -3.866,0.17l0,-0.001Z" style="fill-rule:nonzero;"/><path id="path12559" d="M309.589,913.629c-1.944,0 -3.719,-0.418 -5.324,-1.255c-1.605,-0.836 -2.985,-2.068 -4.138,-3.696c-1.153,-1.651 -2.057,-3.697 -2.713,-6.138c-0.633,-2.442 -0.949,-5.268 -0.949,-8.479c-0,-3.255 0.316,-6.104 0.949,-8.546c0.656,-2.464 1.572,-4.522 2.747,-6.172c1.199,-1.673 2.623,-2.928 4.273,-3.765c1.651,-0.836 3.471,-1.254 5.46,-1.254c1.221,-0 2.34,0.146 3.358,0.44c1.017,0.272 1.933,0.668 2.747,1.187c0.814,0.498 1.537,1.086 2.17,1.764c0.656,0.656 1.232,1.379 1.73,2.17l0.339,0c-0.136,-0.882 -0.26,-1.775 -0.373,-2.679c-0.113,-0.769 -0.215,-1.582 -0.305,-2.442c-0.068,-0.882 -0.102,-1.695 -0.102,-2.442l0,-12.141l10.344,0l-0,52.77l-7.902,-0l-2.001,-4.918l-0.441,0c-0.475,0.769 -1.017,1.503 -1.628,2.205c-0.61,0.677 -1.323,1.265 -2.136,1.763c-0.792,0.498 -1.696,0.893 -2.713,1.187c-0.995,0.294 -2.126,0.44 -3.392,0.44l0,0.001Zm3.765,-8.241c1.22,0 2.26,-0.203 3.12,-0.61c0.859,-0.43 1.548,-1.063 2.068,-1.899c0.543,-0.86 0.939,-1.922 1.187,-3.188c0.272,-1.266 0.419,-2.747 0.441,-4.443l0,-1.12c0,-1.831 -0.113,-3.459 -0.339,-4.883c-0.226,-1.425 -0.599,-2.612 -1.119,-3.561c-0.52,-0.972 -1.221,-1.707 -2.103,-2.204c-0.881,-0.498 -1.989,-0.747 -3.323,-0.747c-2.171,0 -3.764,0.984 -4.782,2.951c-1.017,1.944 -1.526,4.781 -1.526,8.512c0,3.73 0.509,6.534 1.526,8.41c1.04,1.854 2.657,2.781 4.85,2.781l-0,0.001Z" style="fill-rule:nonzero;"/><path id="path12561" d="M378.908,874.324c1.944,-0 3.719,0.418 5.324,1.254c1.606,0.837 2.985,2.08 4.138,3.731c1.153,1.65 2.046,3.697 2.679,6.138c0.656,2.442 0.983,5.268 0.983,8.479c0,3.255 -0.327,6.115 -0.983,8.58c-0.633,2.441 -1.538,4.487 -2.713,6.138c-1.176,1.65 -2.589,2.894 -4.239,3.73c-1.651,0.837 -3.471,1.255 -5.46,1.255c-1.266,0 -2.397,-0.136 -3.392,-0.407c-0.972,-0.272 -1.842,-0.634 -2.611,-1.086c-0.769,-0.452 -1.447,-0.96 -2.035,-1.526c-0.565,-0.588 -1.085,-1.198 -1.56,-1.831l-0.712,-0l-1.73,4.171l-7.901,0l-0,-52.769l10.343,0l0,12.277c0,0.746 -0.022,1.56 -0.067,2.442c-0.045,0.859 -0.09,1.661 -0.136,2.407c-0.068,0.882 -0.135,1.764 -0.203,2.646l0.407,-0c0.474,-0.792 1.017,-1.526 1.627,-2.205c0.611,-0.678 1.312,-1.266 2.103,-1.763c0.814,-0.52 1.73,-0.927 2.747,-1.221c1.017,-0.294 2.148,-0.441 3.391,-0.441l-0,0.001Zm-3.493,8.275c-1.153,-0 -2.137,0.215 -2.951,0.644c-0.791,0.408 -1.435,1.029 -1.933,1.866c-0.497,0.836 -0.859,1.899 -1.085,3.188c-0.226,1.266 -0.362,2.746 -0.407,4.442l0,1.12c0,1.831 0.102,3.459 0.305,4.883c0.226,1.425 0.588,2.623 1.086,3.595c0.497,0.95 1.153,1.673 1.967,2.171c0.836,0.497 1.865,0.746 3.086,0.746c2.057,-0 3.561,-0.972 4.51,-2.917c0.972,-1.967 1.458,-4.815 1.458,-8.546c0,-3.73 -0.486,-6.522 -1.458,-8.376c-0.949,-1.877 -2.476,-2.815 -4.578,-2.815l-0,-0.001Z" style="fill-rule:nonzero;"/><path id="path12563" d="M395.492,875.036l11.327,-0l6.104,21.331c0.361,1.176 0.621,2.431 0.779,3.765c0.182,1.334 0.295,2.532 0.339,3.594l0.204,0c0.047,-0.519 0.104,-1.096 0.17,-1.729c0.09,-0.633 0.192,-1.278 0.304,-1.933c0.114,-0.656 0.238,-1.3 0.374,-1.933c0.158,-0.656 0.316,-1.244 0.474,-1.764l5.969,-21.331l11.395,-0l-14.99,42.764c-1.401,4.002 -3.312,6.975 -5.731,8.92c-2.419,1.944 -5.449,2.916 -9.089,2.916c-1.175,0 -2.193,-0.068 -3.052,-0.203c-0.859,-0.113 -1.594,-0.238 -2.204,-0.373l-0,-8.207c0.475,0.113 1.074,0.215 1.797,0.305c0.724,0.09 1.481,0.135 2.272,0.135c1.086,0 2.013,-0.146 2.781,-0.44c0.769,-0.294 1.425,-0.712 1.967,-1.255c0.565,-0.52 1.04,-1.153 1.425,-1.899c0.407,-0.747 0.757,-1.583 1.051,-2.51l0.645,-1.899l-14.311,-38.254Z" style="fill-rule:nonzero;"/></g></g><g id="Arch1" serif:id="Arch"><g id="linux"><path id="path2292" d="M484.302,1059.85l12.8,-3.204l0.605,152.513l-13.004,2.215l-0.401,-151.524Z" style="fill:#1793d1;"/><path id="path2294" d="M519.103,1105.37l11.217,-4.994l0.096,109.357l-10.833,2.239l-0.48,-106.602Zm-2.666,-39.435l9.045,-7.383l7.514,8.36l-9.049,7.579l-7.51,-8.556Z" style="fill:#1793d1;"/><path id="path2296" d="M551.414,1103.38l12.801,-2.612l0.061,22.862c0.002,0.982 7.028,-25.54 40.924,-24.95c32.91,0.183 38.294,25.661 38.116,31.373l0.406,80.394l-11.22,2.435l-0.065,-79.408c0.13,-2.319 -5.129,-21.93 -28.385,-22.002c-23.253,-0.067 -39.364,16.89 -39.335,27.723l0.185,69.954l-13.001,3.397l-0.487,-109.166Z" style="fill:#1793d1;"/><path id="path2298" d="M755.418,1211.02l-12.801,2.611l-0.06,-22.861c-0.002,-0.983 -7.033,25.539 -40.924,24.95c-32.91,-0.183 -38.294,-25.662 -38.116,-31.374l-0.406,-80.394l13.6,-2.746l0.21,79.41c0.006,2.168 2.603,22.239 25.86,22.311c23.252,0.067 39.542,-14.002 39.658,-35.189l-0.166,-62.654l12.659,-3.231l0.486,109.167Z" style="fill:#1793d1;"/><path id="path2300" d="M780.505,1102.47l-8.975,7.023l34.413,45.036l-36.705,52.031l9.523,7.067l34.504,-48.32l35.611,49.465l8.808,-7.025l-38.164,-52.887l30.446,-42.77l-9.362,-7.916l-27.734,39.576l-32.365,-41.28Z" style="fill:#1793d1;"/></g><g id="arch"><path id="path2284" d="M109.272,1090.09c-16.345,-0.027 -29.91,3.325 -35.155,5.154l-5.4,29.154c-0.013,0.107 26.876,-7.171 38.72,-6.742c19.609,0.705 21.414,7.495 21.071,16.66c0.334,0.536 -5.059,-8.281 -22.024,-8.577c-21.403,-0.369 -51.609,7.578 -51.567,39.884c-0.577,36.34 27.145,47.03 46.025,47.226c16.974,-0.309 24.936,-6.428 29.296,-9.706c5.727,-5.989 12.28,-12.012 18.53,-19.237c-5.914,10.745 -11.04,18.173 -16.377,23.86l-0,4.801l25.801,-4.342l0.176,-70.132c-0.261,-9.927 5.694,-47.91 -49.096,-48.003Zm-3.706,61.062c10.695,0.147 22.959,5.418 22.977,18.107c0.056,11.541 -14.457,17.746 -23.895,17.648c-9.442,-0.099 -21.969,-7.421 -22.024,-18.672c0.181,-10.057 11.813,-17.342 22.942,-17.083Z" style="fill:#fff;"/><path id="path2286" d="M175.382,1096.57l-0.175,116.139l30.057,-5.791l0.051,-65.849c0.007,-9.805 14.012,-21.262 31.583,-21.079c3.729,-6.748 10.739,-23.993 12.447,-27.915c-39.256,-0.094 -39.755,11.283 -46.583,16.88c-0.071,-10.677 -0.024,-17.086 -0.024,-17.086l-27.356,4.701l-0,-0Z" style="fill:#fff;"/><path id="path2288" d="M344.539,1111.82c-0.29,-0.137 -15.676,-17.997 -46.609,-18.138c-28.973,-0.482 -61.472,10.751 -61.992,59.334c0.254,42.714 31.219,59.407 62.156,59.733c33.108,0.344 46.282,-20.703 47.072,-21.224c-3.951,-3.425 -18.747,-18.087 -18.747,-18.087c-0,0 -9.242,13.16 -27.173,13.327c-17.935,0.171 -33.525,-13.862 -33.746,-33.442c-0.23,-19.58 14.332,-30.189 33.881,-31.046c16.925,-0.003 26.689,10.926 26.689,10.926l18.469,-21.383Z" style="fill:#fff;"/><path id="path2290" d="M382.425,1055.92l-28.377,6.671l0.211,151.277l27.955,-5.047l0.317,-71.191c0.06,-7.465 10.799,-18.929 28.731,-18.566c17.145,0.178 20.977,11.428 20.93,12.848l0.494,82.415l27.566,-4.871l0.106,-87.392c0.182,-8.409 -18.419,-26.169 -48.32,-26.295c-14.209,0.023 -22.078,3.24 -26.083,5.612c-6.852,5.292 -14.683,10.363 -22.378,16.836c7.114,-9.138 13.086,-15.457 18.919,-20.154l-0.071,-42.143l0,0Z" style="fill:#fff;"/></g><g id="TM"><path id="path2883" d="M789.475,756.255l-0,-18.309l-6.84,-0l0,-2.45l16.455,0l-0,2.45l-6.868,-0l-0,18.309l-2.747,0" style="fill-rule:nonzero;"/><path id="path2885" d="M801.95,756.255l0,-20.759l4.135,0l4.914,14.699c0.453,1.369 0.783,2.393 0.991,3.073c0.236,-0.756 0.604,-1.865 1.104,-3.328l4.971,-14.444l3.695,0l0,20.759l-2.648,0l0,-17.374l-6.032,17.374l-2.478,0l-6.004,-17.672l0,17.672l-2.648,0" style="fill-rule:nonzero;"/></g><path id="Logo" d="M452.274,148.051c-29.723,72.874 -47.651,120.543 -80.745,191.251c20.291,21.508 45.196,46.555 85.643,74.843c-43.484,-17.893 -73.145,-35.858 -95.312,-54.5c-42.353,88.377 -108.709,214.265 -243.365,456.216c105.835,-61.101 187.877,-98.77 264.336,-113.144c-3.283,-14.121 -5.15,-29.395 -5.023,-45.332l0.126,-3.391c1.68,-67.806 36.952,-119.949 78.736,-116.408c41.784,3.54 74.262,61.411 72.583,129.217c-0.316,12.759 -1.755,25.033 -4.27,36.417c75.629,14.794 156.794,52.367 261.197,112.641c-20.586,-37.901 -38.961,-72.066 -56.509,-104.605c-27.64,-21.423 -56.47,-49.305 -115.278,-79.489c40.421,10.503 69.362,22.621 91.921,36.166c-178.411,-332.17 -192.859,-376.308 -254.04,-519.882Z" style="fill:#1793d1;"/></g></g></svg>