<?xml version="1.0" encoding="UTF-8" standalone="no"?><!DOCTYPE svg PUBLIC "-//W3C//DTD SVG 1.1//EN" "http://www.w3.org/Graphics/SVG/1.1/DTD/svg11.dtd"><svg width="100%" height="100%" viewBox="0 0 907 1352" version="1.1" xmlns="http://www.w3.org/2000/svg" xmlns:xlink="http://www.w3.org/1999/xlink" xml:space="preserve" xmlns:serif="http://www.serif.com/" style="fill-rule:evenodd;clip-rule:evenodd;stroke-linejoin:round;stroke-miterlimit:2;"><rect id="BlendOS" x="0" y="-0" width="906.667" height="1351.11" style="fill:none;"/><clipPath id="_clip1"><rect x="0" y="-0" width="906.667" height="1351.11"/></clipPath><g clip-path="url(#_clip1)"><g><g id="Frame"><path id="path36023" d="M363.226,8.892l180.223,-0c196.3,-0 354.331,36.928 354.331,82.799l0,1167.73c0,45.871 -158.031,82.8 -354.331,82.8l-180.223,-0c-196.299,-0 -354.331,-36.929 -354.331,-82.8l0,-1167.73c0,-45.871 158.032,-82.799 354.331,-82.799Z" style="fill:#fff;fill-rule:nonzero;"/><path id="path36025" d="M363.234,-0c-98.707,-0 -187.781,9.234 -252.806,24.429c-32.512,7.598 -58.999,16.618 -78.086,27.198c-9.544,5.29 -17.286,10.978 -22.976,17.509c-5.69,6.53 -9.366,14.275 -9.366,22.561l0,1167.72c0,8.285 3.676,16.03 9.366,22.56c5.69,6.531 13.432,12.219 22.976,17.509c19.087,10.581 45.574,19.6 78.086,27.198c65.025,15.195 154.099,24.429 252.806,24.429l180.209,0c98.707,0 187.781,-9.234 252.806,-24.429c32.512,-7.598 58.999,-16.617 78.086,-27.198c9.544,-5.29 17.286,-10.978 22.976,-17.509c5.69,-6.53 9.366,-14.275 9.366,-22.56l-0,-1167.72c-0,-8.286 -3.676,-16.031 -9.366,-22.561c-5.69,-6.531 -13.432,-12.219 -22.976,-17.509c-19.087,-10.58 -45.574,-19.6 -78.086,-27.198c-65.025,-15.195 -154.099,-24.429 -252.806,-24.429l-180.209,-0Zm-0,17.786l180.209,-0c97.593,-0 185.703,9.231 248.769,23.968c31.533,7.368 56.818,16.176 73.496,25.421c8.339,4.622 14.481,9.365 18.201,13.633c3.719,4.269 4.982,7.706 4.982,10.889l0,1167.72c0,3.182 -1.263,6.619 -4.982,10.888c-3.72,4.269 -9.862,9.011 -18.201,13.633c-16.678,9.245 -41.963,18.053 -73.496,25.421c-63.066,14.738 -151.176,23.969 -248.769,23.969l-180.209,-0c-97.593,-0 -185.703,-9.231 -248.769,-23.969c-31.533,-7.368 -56.818,-16.176 -73.496,-25.421c-8.339,-4.622 -14.481,-9.364 -18.201,-13.633c-3.719,-4.269 -4.982,-7.706 -4.982,-10.888l-0,-1167.72c-0,-3.183 1.263,-6.62 4.982,-10.889c3.72,-4.268 9.862,-9.011 18.201,-13.633c16.678,-9.245 41.963,-18.053 73.496,-25.421c63.066,-14.737 151.176,-23.968 248.769,-23.968Z" style="fill-rule:nonzero;"/></g><g id="Bottom"><path id="path35979" d="M371.606,946.173l163.464,0c199.608,0 360.304,38.151 360.304,85.54l-0,218.99c-0,47.389 -160.696,85.54 -360.304,85.54l-163.464,-0c-199.609,-0 -360.304,-38.151 -360.304,-85.54l-0,-218.99c-0,-47.389 160.695,-85.54 360.304,-85.54Z" style="fill-rule:nonzero;"/><path id="path35981" d="M371.607,938.419c-100.298,0 -190.804,9.547 -256.796,25.214c-32.996,7.833 -59.838,17.123 -79.078,27.958c-19.241,10.836 -32.18,23.883 -32.18,40.116l-0,218.988c-0,16.233 12.939,29.303 32.18,40.139c19.24,10.835 46.082,20.125 79.078,27.958c65.992,15.667 156.498,25.214 256.796,25.214l163.463,0c100.298,0 190.804,-9.547 256.796,-25.214c32.996,-7.833 59.838,-17.123 79.078,-27.958c19.241,-10.836 32.18,-23.906 32.18,-40.139l0,-218.988c0,-16.233 -12.939,-29.28 -32.18,-40.116c-19.24,-10.835 -46.082,-20.125 -79.078,-27.958c-65.992,-15.667 -156.498,-25.214 -256.796,-25.214l-163.463,0Zm0,15.525l163.463,-0c99.309,-0 188.962,9.52 253.22,24.775c32.129,7.628 57.914,16.745 75.042,26.39c17.127,9.646 24.291,19.137 24.291,26.598l-0,218.988c-0,7.461 -7.164,16.952 -24.291,26.598c-17.128,9.645 -42.913,18.762 -75.042,26.39c-64.258,15.255 -153.911,24.798 -253.22,24.798l-163.463,0c-99.309,0 -188.962,-9.543 -253.22,-24.798c-32.129,-7.628 -57.914,-16.745 -75.042,-26.39c-17.127,-9.646 -24.291,-19.137 -24.291,-26.598l0,-218.988c0,-7.461 7.164,-16.952 24.291,-26.598c17.128,-9.645 42.913,-18.762 75.042,-26.39c64.258,-15.255 153.911,-24.775 253.22,-24.775Z" style="fill-rule:nonzero;"/></g><g id="Powered-By" serif:id="Powered By"><path id="path12547" d="M59.756,886.701l2.069,0c2.962,0 5.189,-0.588 6.681,-1.763c1.515,-1.176 2.272,-3.086 2.272,-5.732c-0,-2.464 -0.678,-4.284 -2.035,-5.46c-1.334,-1.175 -3.436,-1.763 -6.308,-1.763l-2.679,-0l0,14.718Zm21.671,-7.868c-0,2.171 -0.328,4.251 -0.984,6.24c-0.656,1.99 -1.741,3.742 -3.256,5.257c-1.492,1.515 -3.47,2.724 -5.934,3.629c-2.442,0.904 -5.472,1.356 -9.089,1.356l-2.408,0l0,17.635l-10.513,-0l0,-49.581l13.769,-0c3.188,-0 5.935,0.362 8.241,1.085c2.328,0.701 4.239,1.719 5.731,3.053c1.515,1.311 2.634,2.927 3.357,4.849c0.724,1.899 1.086,4.058 1.086,6.478l-0,-0.001Z" style="fill-rule:nonzero;"/><path id="path12549" d="M98.587,893.925c-0,3.775 0.531,6.624 1.594,8.546c1.062,1.899 2.792,2.848 5.188,2.848c2.374,0 4.093,-0.96 5.155,-2.882c1.063,-1.922 1.594,-4.759 1.594,-8.512c0,-3.776 -0.531,-6.591 -1.594,-8.445c-1.062,-1.876 -2.803,-2.814 -5.223,-2.814c-2.373,-0 -4.092,0.938 -5.154,2.814c-1.04,1.854 -1.56,4.669 -1.56,8.445Zm24.078,-0c0,3.165 -0.407,5.968 -1.221,8.41c-0.791,2.442 -1.944,4.499 -3.459,6.172c-1.492,1.673 -3.323,2.951 -5.494,3.833c-2.148,0.859 -4.567,1.288 -7.257,1.288c-2.51,0 -4.816,-0.429 -6.919,-1.288c-2.102,-0.882 -3.922,-2.16 -5.46,-3.833c-1.514,-1.673 -2.701,-3.73 -3.56,-6.172c-0.86,-2.442 -1.289,-5.245 -1.289,-8.41c-0,-3.143 0.395,-5.935 1.187,-8.377c0.814,-2.442 1.967,-4.488 3.459,-6.138c1.515,-1.673 3.346,-2.939 5.494,-3.798c2.148,-0.86 4.578,-1.289 7.291,-1.289c2.51,-0 4.816,0.429 6.918,1.289c2.103,0.859 3.912,2.125 5.427,3.798c1.537,1.65 2.735,3.696 3.594,6.138c0.859,2.442 1.289,5.234 1.289,8.377Z" style="fill-rule:nonzero;"/><path id="path12551" d="M160.546,912.95l-2.917,-13.26c-0.09,-0.384 -0.214,-0.927 -0.373,-1.628c-0.135,-0.724 -0.293,-1.526 -0.474,-2.408c-0.181,-0.904 -0.373,-1.854 -0.577,-2.848c-0.181,-1.018 -0.373,-2.024 -0.576,-3.019c-0.453,-2.328 -0.95,-4.838 -1.492,-7.528l-0.204,-0c-0.52,2.69 -0.995,5.211 -1.424,7.562c-0.181,0.995 -0.373,2.001 -0.577,3.019c-0.181,1.017 -0.362,1.978 -0.542,2.882c-0.181,0.882 -0.351,1.684 -0.509,2.408c-0.136,0.723 -0.249,1.289 -0.339,1.696l-3.052,13.124l-11.124,-0l-10.208,-37.915l10.276,0l3.832,16.787c0.203,0.882 0.407,1.944 0.61,3.188c0.226,1.221 0.43,2.464 0.611,3.73c0.203,1.244 0.384,2.431 0.542,3.561c0.159,1.108 0.283,1.99 0.373,2.645l0.204,0c0.023,-0.429 0.068,-0.983 0.136,-1.661c0.09,-0.701 0.192,-1.447 0.305,-2.239c0.113,-0.791 0.226,-1.593 0.339,-2.407c0.135,-0.837 0.26,-1.617 0.373,-2.34c0.136,-0.724 0.249,-1.357 0.339,-1.9c0.113,-0.565 0.204,-0.961 0.271,-1.187l4.138,-18.177l11.395,0l3.967,18.177c0.113,0.498 0.26,1.267 0.441,2.307c0.181,1.04 0.362,2.159 0.543,3.357c0.203,1.176 0.373,2.329 0.509,3.459c0.135,1.108 0.214,1.978 0.237,2.611l0.203,0c0.068,-0.565 0.181,-1.401 0.34,-2.509c0.18,-1.108 0.373,-2.295 0.576,-3.561c0.203,-1.289 0.418,-2.566 0.644,-3.832c0.249,-1.266 0.475,-2.34 0.679,-3.222l3.968,-16.787l10.14,0l-10.344,37.915l-11.259,-0Z" style="fill-rule:nonzero;"/><path id="path12553" d="M202.903,881.682c-1.831,0 -3.357,0.644 -4.578,1.933c-1.198,1.289 -1.888,3.312 -2.068,6.071l13.192,-0c-0.023,-1.153 -0.17,-2.216 -0.441,-3.188c-0.272,-0.972 -0.678,-1.809 -1.221,-2.51c-0.543,-0.723 -1.221,-1.289 -2.035,-1.695c-0.814,-0.408 -1.763,-0.611 -2.849,-0.611l0,0Zm1.323,31.946c-2.713,0 -5.211,-0.395 -7.495,-1.187c-2.283,-0.791 -4.25,-1.978 -5.901,-3.561c-1.65,-1.605 -2.939,-3.617 -3.866,-6.036c-0.904,-2.442 -1.356,-5.302 -1.356,-8.58c-0,-3.324 0.418,-6.229 1.255,-8.716c0.836,-2.487 2,-4.555 3.493,-6.206c1.514,-1.673 3.323,-2.928 5.426,-3.764c2.125,-0.837 4.476,-1.255 7.054,-1.255c2.509,-0 4.77,0.384 6.782,1.153c2.035,0.746 3.753,1.854 5.155,3.323c1.424,1.47 2.51,3.278 3.256,5.426c0.768,2.125 1.153,4.567 1.153,7.325l-0,5.02l-23.129,-0c0.045,1.447 0.271,2.758 0.678,3.934c0.43,1.153 1.018,2.136 1.764,2.95c0.768,0.791 1.684,1.402 2.747,1.831c1.085,0.43 2.317,0.645 3.696,0.645c1.153,0 2.239,-0.057 3.256,-0.17c1.04,-0.135 2.046,-0.328 3.018,-0.576c0.972,-0.249 1.933,-0.554 2.883,-0.916c0.949,-0.384 1.922,-0.825 2.916,-1.322l0,8.003c-0.904,0.475 -1.82,0.882 -2.747,1.221c-0.904,0.317 -1.865,0.588 -2.882,0.814c-1.018,0.226 -2.114,0.384 -3.29,0.475c-1.175,0.113 -2.464,0.17 -3.866,0.17l0,-0.001Z" style="fill-rule:nonzero;"/><path id="path12555" d="M247.703,874.323c0.271,-0 0.565,0.012 0.881,0.035c0.34,0 0.656,0.024 0.95,0.071c0.317,0.024 0.599,0.059 0.848,0.106c0.271,0.024 0.475,0.059 0.61,0.107l0,9.699c-0.181,-0.047 -0.429,-0.093 -0.746,-0.136c-0.316,-0.047 -0.656,-0.083 -1.017,-0.106c-0.339,-0.047 -0.679,-0.071 -1.018,-0.071c-0.339,-0.024 -0.621,-0.036 -0.847,-0.036c-1.334,0 -2.567,0.17 -3.697,0.51c-1.108,0.339 -2.069,0.893 -2.883,1.661c-0.791,0.747 -1.413,1.742 -1.865,2.985c-0.429,1.22 -0.644,2.724 -0.644,4.51l-0,19.297l-10.344,-0l0,-37.915l7.834,-0l1.526,5.697l0.509,0c0.543,-0.972 1.13,-1.854 1.763,-2.645c0.633,-0.791 1.334,-1.458 2.103,-2.001c0.791,-0.565 1.673,-0.995 2.645,-1.289c0.995,-0.316 2.125,-0.474 3.392,-0.474l-0,-0.005Z" style="fill-rule:nonzero;"/><path id="path12557" d="M273.409,881.682c-1.831,0 -3.358,0.644 -4.578,1.933c-1.199,1.289 -1.888,3.312 -2.069,6.071l13.192,-0c-0.023,-1.153 -0.17,-2.216 -0.441,-3.188c-0.271,-0.972 -0.678,-1.809 -1.221,-2.51c-0.542,-0.723 -1.221,-1.289 -2.034,-1.695c-0.814,-0.408 -1.764,-0.611 -2.849,-0.611l-0,0Zm1.322,31.946c-2.713,0 -5.211,-0.395 -7.494,-1.187c-2.284,-0.791 -4.251,-1.978 -5.901,-3.561c-1.651,-1.605 -2.939,-3.617 -3.866,-6.036c-0.905,-2.442 -1.357,-5.302 -1.357,-8.58c0,-3.324 0.418,-6.229 1.255,-8.716c0.836,-2.487 2.001,-4.555 3.493,-6.206c1.515,-1.673 3.323,-2.928 5.426,-3.764c2.125,-0.837 4.477,-1.255 7.054,-1.255c2.51,-0 4.77,0.384 6.783,1.153c2.034,0.746 3.753,1.854 5.154,3.323c1.425,1.47 2.51,3.278 3.256,5.426c0.769,2.125 1.153,4.567 1.153,7.325l0,5.02l-23.129,-0c0.045,1.447 0.271,2.758 0.679,3.934c0.429,1.153 1.017,2.136 1.763,2.95c0.769,0.791 1.685,1.402 2.747,1.831c1.085,0.43 2.318,0.645 3.697,0.645c1.153,0 2.238,-0.057 3.255,-0.17c1.04,-0.135 2.046,-0.328 3.019,-0.576c0.972,-0.249 1.933,-0.554 2.882,-0.916c0.95,-0.384 1.922,-0.825 2.917,-1.322l-0,8.003c-0.905,0.475 -1.82,0.882 -2.747,1.221c-0.905,0.317 -1.865,0.588 -2.883,0.814c-1.017,0.226 -2.114,0.384 -3.289,0.475c-1.176,0.113 -2.465,0.17 -3.867,0.17l0,-0.001Z" style="fill-rule:nonzero;"/><path id="path12559" d="M309.594,913.628c-1.944,0 -3.719,-0.418 -5.324,-1.255c-1.605,-0.836 -2.985,-2.068 -4.138,-3.696c-1.153,-1.651 -2.057,-3.697 -2.713,-6.138c-0.633,-2.442 -0.949,-5.268 -0.949,-8.479c-0,-3.255 0.316,-6.104 0.949,-8.546c0.656,-2.464 1.572,-4.521 2.747,-6.172c1.199,-1.673 2.623,-2.928 4.273,-3.764c1.651,-0.837 3.471,-1.255 5.46,-1.255c1.221,-0 2.34,0.147 3.358,0.44c1.017,0.272 1.933,0.668 2.747,1.187c0.814,0.498 1.537,1.086 2.17,1.764c0.656,0.656 1.232,1.379 1.73,2.17l0.339,0c-0.136,-0.881 -0.26,-1.774 -0.373,-2.679c-0.113,-0.768 -0.215,-1.582 -0.305,-2.442c-0.068,-0.881 -0.102,-1.695 -0.102,-2.441l0,-12.141l10.344,-0l-0,52.769l-7.902,-0l-2.001,-4.918l-0.441,0c-0.475,0.769 -1.018,1.504 -1.628,2.205c-0.61,0.678 -1.323,1.265 -2.136,1.763c-0.792,0.498 -1.696,0.893 -2.714,1.187c-0.994,0.294 -2.125,0.441 -3.391,0.441l0,0Zm3.765,-8.241c1.22,0 2.26,-0.203 3.12,-0.61c0.859,-0.43 1.548,-1.063 2.068,-1.899c0.543,-0.859 0.939,-1.922 1.187,-3.188c0.272,-1.266 0.419,-2.747 0.441,-4.443l0,-1.12c0,-1.831 -0.113,-3.459 -0.339,-4.883c-0.226,-1.424 -0.599,-2.611 -1.119,-3.561c-0.52,-0.972 -1.221,-1.707 -2.103,-2.204c-0.881,-0.498 -1.989,-0.747 -3.323,-0.747c-2.171,0 -3.765,0.984 -4.782,2.951c-1.017,1.944 -1.526,4.781 -1.526,8.512c0,3.73 0.509,6.534 1.526,8.41c1.04,1.854 2.657,2.781 4.85,2.781l-0,0.001Z" style="fill-rule:nonzero;"/><path id="path12561" d="M378.913,874.323c1.944,-0 3.719,0.418 5.324,1.255c1.605,0.836 2.984,2.08 4.137,3.73c1.153,1.651 2.046,3.697 2.68,6.138c0.655,2.442 0.983,5.268 0.983,8.479c0,3.255 -0.328,6.115 -0.983,8.58c-0.634,2.441 -1.538,4.488 -2.714,6.138c-1.175,1.65 -2.588,2.894 -4.239,3.73c-1.65,0.837 -3.47,1.255 -5.46,1.255c-1.266,0 -2.396,-0.136 -3.391,-0.407c-0.972,-0.272 -1.843,-0.634 -2.611,-1.086c-0.769,-0.452 -1.447,-0.96 -2.035,-1.526c-0.565,-0.588 -1.085,-1.198 -1.56,-1.831l-0.712,-0l-1.73,4.171l-7.902,0l0,-52.769l10.344,0l-0,12.277c-0,0.746 -0.023,1.56 -0.067,2.442c-0.045,0.859 -0.091,1.661 -0.136,2.408c-0.068,0.881 -0.136,1.763 -0.204,2.645l0.407,-0c0.475,-0.792 1.018,-1.526 1.628,-2.205c0.611,-0.678 1.311,-1.265 2.103,-1.763c0.814,-0.52 1.729,-0.927 2.747,-1.221c1.017,-0.294 2.148,-0.441 3.391,-0.441l-0,0.001Zm-3.493,8.275c-1.153,-0 -2.137,0.215 -2.951,0.645c-0.791,0.407 -1.436,1.028 -1.933,1.865c-0.497,0.836 -0.859,1.899 -1.085,3.188c-0.226,1.266 -0.362,2.747 -0.407,4.442l-0,1.12c-0,1.831 0.102,3.459 0.305,4.883c0.226,1.425 0.588,2.623 1.085,3.595c0.498,0.95 1.153,1.673 1.967,2.171c0.837,0.497 1.865,0.746 3.086,0.746c2.058,0 3.561,-0.972 4.511,-2.916c0.972,-1.967 1.458,-4.816 1.458,-8.547c0,-3.73 -0.486,-6.522 -1.458,-8.376c-0.95,-1.877 -2.476,-2.815 -4.578,-2.815l-0,-0.001Z" style="fill-rule:nonzero;"/><path id="path12563" d="M395.496,875.035l11.327,0l6.104,21.331c0.362,1.176 0.622,2.431 0.78,3.765c0.181,1.334 0.294,2.532 0.339,3.595l0.203,-0c0.047,-0.52 0.104,-1.097 0.17,-1.73c0.091,-0.633 0.192,-1.277 0.305,-1.933c0.113,-0.656 0.238,-1.3 0.373,-1.933c0.158,-0.656 0.317,-1.244 0.475,-1.764l5.969,-21.331l11.395,0l-14.99,42.765c-1.402,4.001 -3.312,6.974 -5.731,8.919c-2.42,1.944 -5.449,2.916 -9.089,2.916c-1.176,0 -2.193,-0.068 -3.052,-0.203c-0.859,-0.113 -1.594,-0.238 -2.205,-0.373l0,-8.207c0.475,0.113 1.074,0.215 1.798,0.305c0.723,0.09 1.481,0.135 2.272,0.135c1.085,0 2.012,-0.146 2.781,-0.44c0.768,-0.294 1.424,-0.712 1.967,-1.255c0.565,-0.52 1.04,-1.153 1.424,-1.899c0.407,-0.747 0.758,-1.583 1.051,-2.51l0.645,-1.899l-14.311,-38.254Z" style="fill-rule:nonzero;"/></g></g><g id="BlendOS1" serif:id="BlendOS"><g id="Logo"><g id="g35190"><g id="g35188"><clipPath id="_clip2"><path d="M464.064,816.643l-158.584,-0c-34.895,-0 -63.071,-28.055 -63.071,-62.793l-0,-271.204c-0,-34.738 28.176,-62.793 63.071,-62.793l158.723,-0c109.888,-0 199.239,88.968 199.239,198.386c0,109.418 -89.49,198.404 -199.378,198.404Zm-95.53,-125.587l95.669,0c40.377,0 73.131,-32.736 73.131,-72.817c-0,-40.203 -32.876,-72.8 -73.131,-72.8l-95.669,-0l0,145.617Z"/></clipPath><g clip-path="url(#_clip2)"><rect id="path35186" x="242.409" y="419.853" width="421.034" height="396.79" style="fill:url(#_Linear3);fill-rule:nonzero;"/></g></g></g><g id="g35196"><g id="g35194"><clipPath id="_clip4"><path d="M464.064,545.439l-158.584,-0c-34.895,-0 -63.071,-28.055 -63.071,-62.793l-0,-271.204c-0,-34.738 28.176,-62.793 63.071,-62.793l158.723,-0c109.888,-0 199.239,88.968 199.239,198.386c0,109.418 -89.49,198.404 -199.378,198.404Zm-95.53,-125.586l95.669,-0c40.377,-0 73.131,-32.737 73.131,-72.818c-0,-40.081 -32.876,-72.8 -73.27,-72.8l-95.53,-0l0,145.618Z"/></clipPath><g clip-path="url(#_clip4)"><rect id="path35192" x="242.409" y="148.649" width="421.034" height="396.79" style="fill:url(#_Linear5);fill-rule:nonzero;"/></g></g></g><g id="g35202"><g id="g35200"><clipPath id="_clip6"><path d="M305.48,816.643c-34.895,-0 -63.071,-28.055 -63.071,-62.793l-0,-542.408c-0,-34.738 28.176,-62.793 63.071,-62.793c34.877,-0 63.054,28.055 63.054,62.793l0,542.408c0,34.738 -28.316,62.793 -63.054,62.793Z"/></clipPath><g clip-path="url(#_clip6)"><rect id="path35198" x="242.409" y="148.649" width="126.126" height="667.994" style="fill:url(#_Linear7);fill-rule:nonzero;"/></g></g></g></g><g id="blendOS"><g id="g49647"><g id="g49645"><g id="g49643"><path id="path49641" d="M152.827,1158.77c0,19.922 -12.109,38.493 -33.61,38.493c-21.484,-0 -33.984,-18.376 -33.984,-37.517c-0,-20.312 14.062,-38.102 33.984,-38.102c20.133,0 33.415,18.18 33.61,37.126Zm-76.79,53.727c4.508,0 7.828,-3.125 8.219,-7.422l0.781,-10.351c9.18,12.109 21.289,18.945 36.328,18.945c30.485,-0 49.235,-27.539 49.235,-55.29c0,-30.485 -22.656,-53.141 -49.43,-53.141c-14.648,-0 -26.562,6.836 -35.742,18.75l-0,-56.266c-0,-4.883 -3.906,-8.789 -8.61,-8.789c-4.883,-0 -8.789,3.906 -8.789,8.789l-0,136.767c-0,4.492 3.516,8.008 8.008,8.008Z" style="fill:#ff66c4;fill-rule:nonzero;"/></g></g></g><g id="g49655"><g id="g49653"><g id="g49651"><path id="path49649" d="M207.694,1203.71l0,-135.986c0,-4.883 -3.906,-8.789 -8.594,-8.789c-4.899,-0 -8.805,3.906 -8.805,8.789l0,135.986c0,4.883 3.906,8.789 8.61,8.789c4.883,0 8.789,-3.906 8.789,-8.789Z" style="fill:#9e98ff;fill-rule:nonzero;"/></g></g></g><g id="g49663"><g id="g49661"><g id="g49659"><path id="path49657" d="M276.062,1121.26c17.187,-0 30.094,11.718 32.243,30.094l-63.493,-0c2.148,-16.992 12.891,-30.094 31.25,-30.094Zm25.993,65.657c-4.492,4.688 -10.368,10.547 -23.454,10.547c-20.898,-0 -32.031,-14.86 -33.789,-32.243l75.407,0c3.125,0 5.664,-2.344 5.664,-5.469c-0.195,-29.117 -18.359,-54.508 -49.43,-54.508c-31.055,-0 -49.04,25.586 -49.04,54.118c-0,31.852 22.282,54.313 50.602,54.313c22.673,-0 38.884,-14.453 38.884,-22.656c-0,-3.907 -3.516,-7.634 -8.008,-7.634c-3.125,0 -5.078,1.758 -6.836,3.532Z" style="fill:#9e98ff;fill-rule:nonzero;"/></g></g></g><g id="g49671"><g id="g49669"><g id="g49667"><path id="path49665" d="M424.538,1136.31c-0,-17.399 -9.18,-31.071 -31.462,-31.071c-14.453,-0 -21.679,5.664 -35.351,18.359l-0.781,-9.961c-0.391,-4.101 -3.711,-7.226 -7.829,-7.226c-4.297,-0 -7.813,3.515 -7.813,7.812l0,89.486c0,4.687 3.711,8.789 8.594,8.789c4.899,0 8.805,-3.906 8.805,-8.789l0,-65.446c14.453,-11.344 22.071,-16.618 32.227,-16.618c12.126,0 16.227,7.617 16.227,16.227l0,65.837c0,4.883 3.906,8.789 8.594,8.789c4.883,0 8.789,-3.906 8.789,-8.789l-0,-67.399Z" style="fill:#9e98ff;fill-rule:nonzero;"/></g></g></g><g id="g49679"><g id="g49677"><g id="g49675"><path id="path49673" d="M462.044,1158.77c0.196,-18.946 13.672,-37.126 33.789,-37.126c19.939,0 34.001,17.79 34.001,38.102c0,19.141 -12.5,37.517 -33.805,37.517c-21.68,-0 -33.985,-18.571 -33.985,-38.493Zm76.384,-99.837c-4.883,-0 -8.789,3.906 -8.789,8.593l-0,56.462c-8.985,-11.914 -21.11,-18.75 -35.759,-18.75c-26.758,-0 -49.43,22.656 -49.43,53.141c-0,27.751 18.766,55.29 49.235,55.29c15.039,-0 27.36,-6.836 36.54,-18.945l0.586,10.156c0.195,4.687 4.296,7.617 8.007,7.617c4.493,0 8.204,-3.711 8.204,-8.203l-0,-136.768c-0,-4.687 -3.907,-8.593 -8.594,-8.593Z" style="fill:#9e98ff;fill-rule:nonzero;"/></g></g></g><g id="g49687"><g id="g49685"><g id="g49683"><path id="path49681" d="M564.983,1135.72c-0,45.898 35.368,77.946 77.572,77.946c42.008,-0 77.555,-32.634 77.555,-77.946c-0,-43.766 -33.398,-77.962 -77.555,-77.962c-42.204,-0 -77.572,32.047 -77.572,77.962Zm135.791,-0.195c0,35.156 -25.212,60.758 -57.829,60.758c-32.438,0 -58.61,-26.188 -58.61,-60.368c0,-33.219 24.414,-60.775 58.415,-60.775c31.445,0 58.024,24.431 58.024,60.385Z" style="fill:#9e98ff;fill-rule:nonzero;"/></g></g></g><g id="g49695"><g id="g49693"><g id="g49691"><path id="path49689" d="M838.098,1169.51c-0,-27.734 -20.508,-35.563 -48.454,-45.133c-23.438,-8.008 -35.938,-12.305 -35.938,-26.758c0,-11.524 8.008,-22.478 28.711,-22.478c13.477,0 21.11,4.688 28.923,9.782c2.148,1.563 4.687,2.344 7.031,2.344c5.078,0 9.18,-4.297 9.18,-9.391c-0,-11.719 -28.125,-20.313 -44.743,-20.313c-26.367,0 -48.454,12.696 -48.454,41.423c0,27.344 19.938,34.766 47.673,43.766c24.039,7.813 36.93,12.11 36.93,28.125c0,16.227 -13.086,25.407 -31.852,25.407c-20.508,0 -32.813,-11.149 -36.914,-13.883c-2.36,-1.563 -4.704,-2.344 -6.852,-2.344c-5.274,-0 -9.571,5.078 -9.571,9.782c0,2.734 0.977,5.273 3.125,6.836c13.688,10.742 28.923,16.992 49.04,16.992c33.415,-0 52.165,-17.578 52.165,-44.157Z" style="fill:#9e98ff;fill-rule:nonzero;"/></g></g></g></g></g></g><defs><linearGradient id="_Linear3" x1="0" y1="0" x2="1" y2="0" gradientUnits="userSpaceOnUse" gradientTransform="matrix(-211.943,-487.005,487.005,-211.943,539.169,870.262)"><stop offset="0" style="stop-color:#fede58;stop-opacity:1"/><stop offset="0.08" style="stop-color:#fedd59;stop-opacity:1"/><stop offset="0.1" style="stop-color:#fed75f;stop-opacity:1"/><stop offset="0.11" style="stop-color:#fed560;stop-opacity:1"/><stop offset="0.16" style="stop-color:#fec56e;stop-opacity:1"/><stop offset="0.19" style="stop-color:#febc76;stop-opacity:1"/><stop offset="0.22" style="stop-color:#feb47d;stop-opacity:1"/><stop offset="0.25" style="stop-color:#feab85;stop-opacity:1"/><stop offset="0.28" style="stop-color:#fea38c;stop-opacity:1"/><stop offset="0.3" style="stop-color:#fe9c93;stop-opacity:1"/><stop offset="0.31" style="stop-color:#fe9a94;stop-opacity:1"/><stop offset="0.33" style="stop-color:#fe949a;stop-opacity:1"/><stop offset="0.34" style="stop-color:#fe929b;stop-opacity:1"/><stop offset="0.36" style="stop-color:#fe8ba3;stop-opacity:1"/><stop offset="0.37" style="stop-color:#fe89a4;stop-opacity:1"/><stop offset="0.39" style="stop-color:#fe81ab;stop-opacity:1"/><stop offset="0.45" style="stop-color:#fe70ba;stop-opacity:1"/><stop offset="0.48" style="stop-color:#fe67c2;stop-opacity:1"/><stop offset="0.49" style="stop-color:#fe67c3;stop-opacity:1"/><stop offset="0.49" style="stop-color:#fe66c4;stop-opacity:1"/><stop offset="0.5" style="stop-color:#fd66c5;stop-opacity:1"/><stop offset="0.5" style="stop-color:#fc67c5;stop-opacity:1"/><stop offset="0.5" style="stop-color:#fa68c6;stop-opacity:1"/><stop offset="0.51" style="stop-color:#f968c7;stop-opacity:1"/><stop offset="0.51" style="stop-color:#f869c8;stop-opacity:1"/><stop offset="0.52" style="stop-color:#f76ac8;stop-opacity:1"/><stop offset="0.52" style="stop-color:#f56ac9;stop-opacity:1"/><stop offset="0.53" style="stop-color:#f16ccb;stop-opacity:1"/><stop offset="0.55" style="stop-color:#ec6fcf;stop-opacity:1"/><stop offset="0.55" style="stop-color:#eb6fcf;stop-opacity:1"/><stop offset="0.56" style="stop-color:#e971d1;stop-opacity:1"/><stop offset="0.56" style="stop-color:#e771d2;stop-opacity:1"/><stop offset="0.57" style="stop-color:#e672d2;stop-opacity:1"/><stop offset="0.58" style="stop-color:#e274d5;stop-opacity:1"/><stop offset="0.58" style="stop-color:#e175d5;stop-opacity:1"/><stop offset="0.59" style="stop-color:#dd77d8;stop-opacity:1"/><stop offset="0.6" style="stop-color:#dc77d8;stop-opacity:1"/><stop offset="0.61" style="stop-color:#da79da;stop-opacity:1"/><stop offset="0.61" style="stop-color:#d879db;stop-opacity:1"/><stop offset="0.63" style="stop-color:#d37cde;stop-opacity:1"/><stop offset="0.63" style="stop-color:#d27cdf;stop-opacity:1"/><stop offset="0.64" style="stop-color:#ce7ee1;stop-opacity:1"/><stop offset="0.65" style="stop-color:#cc80e2;stop-opacity:1"/><stop offset="0.65" style="stop-color:#cb80e3;stop-opacity:1"/><stop offset="0.66" style="stop-color:#c981e4;stop-opacity:1"/><stop offset="0.66" style="stop-color:#c782e5;stop-opacity:1"/><stop offset="0.67" style="stop-color:#c484e7;stop-opacity:1"/><stop offset="0.68" style="stop-color:#c384e8;stop-opacity:1"/><stop offset="0.68" style="stop-color:#c285e9;stop-opacity:1"/><stop offset="0.68" style="stop-color:#c085e9;stop-opacity:1"/><stop offset="0.7" style="stop-color:#bd87ec;stop-opacity:1"/><stop offset="0.7" style="stop-color:#bb88ec;stop-opacity:1"/><stop offset="0.71" style="stop-color:#b989ee;stop-opacity:1"/><stop offset="0.71" style="stop-color:#b88aef;stop-opacity:1"/><stop offset="0.71" style="stop-color:#b68bef;stop-opacity:1"/><stop offset="0.72" style="stop-color:#b58bf0;stop-opacity:1"/><stop offset="0.73" style="stop-color:#b38df2;stop-opacity:1"/><stop offset="0.73" style="stop-color:#b18df2;stop-opacity:1"/><stop offset="0.74" style="stop-color:#ae8ff5;stop-opacity:1"/><stop offset="0.75" style="stop-color:#ac90f6;stop-opacity:1"/><stop offset="0.75" style="stop-color:#ab91f6;stop-opacity:1"/><stop offset="0.75" style="stop-color:#aa91f7;stop-opacity:1"/><stop offset="0.76" style="stop-color:#a992f8;stop-opacity:1"/><stop offset="0.76" style="stop-color:#a792f9;stop-opacity:1"/><stop offset="0.77" style="stop-color:#a693f9;stop-opacity:1"/><stop offset="0.77" style="stop-color:#a494fb;stop-opacity:1"/><stop offset="0.78" style="stop-color:#a295fc;stop-opacity:1"/><stop offset="0.78" style="stop-color:#a196fc;stop-opacity:1"/><stop offset="0.79" style="stop-color:#a096fd;stop-opacity:1"/><stop offset="1" style="stop-color:#9e97fe;stop-opacity:1"/></linearGradient><linearGradient id="_Linear5" x1="0" y1="0" x2="1" y2="0" gradientUnits="userSpaceOnUse" gradientTransform="matrix(-477.128,-311.638,311.638,-477.128,677.101,524.708)"><stop offset="0" style="stop-color:#feba78;stop-opacity:1"/><stop offset="0" style="stop-color:#feb979;stop-opacity:1"/><stop offset="0.02" style="stop-color:#feb57c;stop-opacity:1"/><stop offset="0.04" style="stop-color:#feb27f;stop-opacity:1"/><stop offset="0.05" style="stop-color:#feb081;stop-opacity:1"/><stop offset="0.05" style="stop-color:#feb081;stop-opacity:1"/><stop offset="0.07" style="stop-color:#feac84;stop-opacity:1"/><stop offset="0.09" style="stop-color:#fea888;stop-opacity:1"/><stop offset="0.09" style="stop-color:#fea789;stop-opacity:1"/><stop offset="0.1" style="stop-color:#fea58b;stop-opacity:1"/><stop offset="0.11" style="stop-color:#fea48b;stop-opacity:1"/><stop offset="0.12" style="stop-color:#fea28e;stop-opacity:1"/><stop offset="0.12" style="stop-color:#fea18e;stop-opacity:1"/><stop offset="0.13" style="stop-color:#fea08f;stop-opacity:1"/><stop offset="0.13" style="stop-color:#fea090;stop-opacity:1"/><stop offset="0.13" style="stop-color:#fe9f91;stop-opacity:1"/><stop offset="0.14" style="stop-color:#fe9e91;stop-opacity:1"/><stop offset="0.16" style="stop-color:#fe9896;stop-opacity:1"/><stop offset="0.18" style="stop-color:#fe949a;stop-opacity:1"/><stop offset="0.19" style="stop-color:#fe939b;stop-opacity:1"/><stop offset="0.2" style="stop-color:#fe909d;stop-opacity:1"/><stop offset="0.22" style="stop-color:#fe8da0;stop-opacity:1"/><stop offset="0.23" style="stop-color:#fe8ba2;stop-opacity:1"/><stop offset="0.23" style="stop-color:#fe8ba2;stop-opacity:1"/><stop offset="0.24" style="stop-color:#fe88a5;stop-opacity:1"/><stop offset="0.25" style="stop-color:#fe87a5;stop-opacity:1"/><stop offset="0.27" style="stop-color:#fe83a9;stop-opacity:1"/><stop offset="0.27" style="stop-color:#fe83aa;stop-opacity:1"/><stop offset="0.29" style="stop-color:#fe7fac;stop-opacity:1"/><stop offset="0.3" style="stop-color:#fe7caf;stop-opacity:1"/><stop offset="0.3" style="stop-color:#fe7bb0;stop-opacity:1"/><stop offset="0.32" style="stop-color:#fe77b4;stop-opacity:1"/><stop offset="0.33" style="stop-color:#fe77b4;stop-opacity:1"/><stop offset="0.34" style="stop-color:#fe73b7;stop-opacity:1"/><stop offset="0.37" style="stop-color:#fe6ebc;stop-opacity:1"/><stop offset="0.37" style="stop-color:#fe6ebc;stop-opacity:1"/><stop offset="0.39" style="stop-color:#fe6abf;stop-opacity:1"/><stop offset="0.41" style="stop-color:#fe66c3;stop-opacity:1"/><stop offset="0.41" style="stop-color:#fe66c3;stop-opacity:1"/><stop offset="0.41" style="stop-color:#fe66c4;stop-opacity:1"/><stop offset="0.42" style="stop-color:#fd66c5;stop-opacity:1"/><stop offset="0.42" style="stop-color:#fc67c5;stop-opacity:1"/><stop offset="0.43" style="stop-color:#fb67c6;stop-opacity:1"/><stop offset="0.43" style="stop-color:#fa68c6;stop-opacity:1"/><stop offset="0.43" style="stop-color:#f968c7;stop-opacity:1"/><stop offset="0.44" style="stop-color:#f869c7;stop-opacity:1"/><stop offset="0.44" style="stop-color:#f869c8;stop-opacity:1"/><stop offset="0.45" style="stop-color:#f76ac8;stop-opacity:1"/><stop offset="0.45" style="stop-color:#f66ac9;stop-opacity:1"/><stop offset="0.45" style="stop-color:#f56ac9;stop-opacity:1"/><stop offset="0.46" style="stop-color:#f36bcb;stop-opacity:1"/><stop offset="0.46" style="stop-color:#f26ccb;stop-opacity:1"/><stop offset="0.47" style="stop-color:#f16ccc;stop-opacity:1"/><stop offset="0.47" style="stop-color:#f06dcc;stop-opacity:1"/><stop offset="0.48" style="stop-color:#ef6dcd;stop-opacity:1"/><stop offset="0.48" style="stop-color:#ef6ecd;stop-opacity:1"/><stop offset="0.48" style="stop-color:#ee6ece;stop-opacity:1"/><stop offset="0.49" style="stop-color:#ed6fce;stop-opacity:1"/><stop offset="0.49" style="stop-color:#ec6fcf;stop-opacity:1"/><stop offset="0.5" style="stop-color:#eb70cf;stop-opacity:1"/><stop offset="0.5" style="stop-color:#e970d1;stop-opacity:1"/><stop offset="0.51" style="stop-color:#e871d1;stop-opacity:1"/><stop offset="0.51" style="stop-color:#e771d2;stop-opacity:1"/><stop offset="0.52" style="stop-color:#e772d2;stop-opacity:1"/><stop offset="0.52" style="stop-color:#e672d3;stop-opacity:1"/><stop offset="0.52" style="stop-color:#e573d3;stop-opacity:1"/><stop offset="0.53" style="stop-color:#e473d4;stop-opacity:1"/><stop offset="0.53" style="stop-color:#e374d4;stop-opacity:1"/><stop offset="0.54" style="stop-color:#e274d5;stop-opacity:1"/><stop offset="0.54" style="stop-color:#e175d5;stop-opacity:1"/><stop offset="0.54" style="stop-color:#e075d6;stop-opacity:1"/><stop offset="0.55" style="stop-color:#df76d6;stop-opacity:1"/><stop offset="0.55" style="stop-color:#df76d7;stop-opacity:1"/><stop offset="0.55" style="stop-color:#de76d8;stop-opacity:1"/><stop offset="0.56" style="stop-color:#dd77d8;stop-opacity:1"/><stop offset="0.56" style="stop-color:#dc77d9;stop-opacity:1"/><stop offset="0.57" style="stop-color:#db78d9;stop-opacity:1"/><stop offset="0.57" style="stop-color:#da78da;stop-opacity:1"/><stop offset="0.57" style="stop-color:#d979da;stop-opacity:1"/><stop offset="0.58" style="stop-color:#d879db;stop-opacity:1"/><stop offset="0.58" style="stop-color:#d77adb;stop-opacity:1"/><stop offset="0.59" style="stop-color:#d77adc;stop-opacity:1"/><stop offset="0.59" style="stop-color:#d67bdc;stop-opacity:1"/><stop offset="0.6" style="stop-color:#d47bde;stop-opacity:1"/><stop offset="0.6" style="stop-color:#d37cde;stop-opacity:1"/><stop offset="0.61" style="stop-color:#d27cdf;stop-opacity:1"/><stop offset="0.61" style="stop-color:#d17ddf;stop-opacity:1"/><stop offset="0.61" style="stop-color:#d07de0;stop-opacity:1"/><stop offset="0.62" style="stop-color:#cf7ee0;stop-opacity:1"/><stop offset="0.62" style="stop-color:#ce7ee1;stop-opacity:1"/><stop offset="0.63" style="stop-color:#ce7fe1;stop-opacity:1"/><stop offset="0.63" style="stop-color:#cd7fe2;stop-opacity:1"/><stop offset="0.63" style="stop-color:#cc80e2;stop-opacity:1"/><stop offset="0.64" style="stop-color:#cb80e3;stop-opacity:1"/><stop offset="0.64" style="stop-color:#ca81e3;stop-opacity:1"/><stop offset="0.65" style="stop-color:#c881e5;stop-opacity:1"/><stop offset="0.65" style="stop-color:#c782e5;stop-opacity:1"/><stop offset="0.66" style="stop-color:#c682e6;stop-opacity:1"/><stop offset="0.66" style="stop-color:#c683e6;stop-opacity:1"/><stop offset="0.66" style="stop-color:#c583e7;stop-opacity:1"/><stop offset="0.67" style="stop-color:#c484e7;stop-opacity:1"/><stop offset="0.67" style="stop-color:#c384e8;stop-opacity:1"/><stop offset="0.68" style="stop-color:#c285e8;stop-opacity:1"/><stop offset="0.68" style="stop-color:#c185e9;stop-opacity:1"/><stop offset="0.68" style="stop-color:#c086e9;stop-opacity:1"/><stop offset="0.69" style="stop-color:#bf86ea;stop-opacity:1"/><stop offset="0.69" style="stop-color:#be87eb;stop-opacity:1"/><stop offset="0.7" style="stop-color:#be87eb;stop-opacity:1"/><stop offset="0.7" style="stop-color:#bd87ec;stop-opacity:1"/><stop offset="0.7" style="stop-color:#bc88ec;stop-opacity:1"/><stop offset="0.71" style="stop-color:#bb88ed;stop-opacity:1"/><stop offset="0.71" style="stop-color:#ba89ed;stop-opacity:1"/><stop offset="0.71" style="stop-color:#b989ee;stop-opacity:1"/><stop offset="0.72" style="stop-color:#b88aee;stop-opacity:1"/><stop offset="0.72" style="stop-color:#b78aef;stop-opacity:1"/><stop offset="0.73" style="stop-color:#b68bef;stop-opacity:1"/><stop offset="0.74" style="stop-color:#b48cf1;stop-opacity:1"/><stop offset="0.74" style="stop-color:#b38df2;stop-opacity:1"/><stop offset="0.75" style="stop-color:#b28df2;stop-opacity:1"/><stop offset="0.75" style="stop-color:#b18df3;stop-opacity:1"/><stop offset="0.75" style="stop-color:#b08ef3;stop-opacity:1"/><stop offset="0.76" style="stop-color:#af8ef4;stop-opacity:1"/><stop offset="0.76" style="stop-color:#ae8ff4;stop-opacity:1"/><stop offset="0.77" style="stop-color:#ad8ff5;stop-opacity:1"/><stop offset="0.77" style="stop-color:#ad90f5;stop-opacity:1"/><stop offset="0.77" style="stop-color:#ac90f6;stop-opacity:1"/><stop offset="0.78" style="stop-color:#ab91f6;stop-opacity:1"/><stop offset="0.78" style="stop-color:#aa91f7;stop-opacity:1"/><stop offset="0.79" style="stop-color:#a892f8;stop-opacity:1"/><stop offset="0.79" style="stop-color:#a793f9;stop-opacity:1"/><stop offset="0.8" style="stop-color:#a693f9;stop-opacity:1"/><stop offset="0.8" style="stop-color:#a593fa;stop-opacity:1"/><stop offset="0.8" style="stop-color:#a594fa;stop-opacity:1"/><stop offset="0.81" style="stop-color:#a494fb;stop-opacity:1"/><stop offset="0.81" style="stop-color:#a395fb;stop-opacity:1"/><stop offset="0.82" style="stop-color:#a295fc;stop-opacity:1"/><stop offset="0.82" style="stop-color:#a196fc;stop-opacity:1"/><stop offset="1" style="stop-color:#9e97fe;stop-opacity:1"/></linearGradient><linearGradient id="_Linear7" x1="0" y1="0" x2="1" y2="0" gradientUnits="userSpaceOnUse" gradientTransform="matrix(13.6917,-670.268,670.268,13.6917,298.621,817.777)"><stop offset="0" style="stop-color:#fec470;stop-opacity:1"/><stop offset="0" style="stop-color:#fec370;stop-opacity:1"/><stop offset="0.01" style="stop-color:#fec271;stop-opacity:1"/><stop offset="0.02" style="stop-color:#fec073;stop-opacity:1"/><stop offset="0.02" style="stop-color:#fec073;stop-opacity:1"/><stop offset="0.03" style="stop-color:#febf74;stop-opacity:1"/><stop offset="0.03" style="stop-color:#febe74;stop-opacity:1"/><stop offset="0.05" style="stop-color:#febb77;stop-opacity:1"/><stop offset="0.06" style="stop-color:#feb979;stop-opacity:1"/><stop offset="0.06" style="stop-color:#feb979;stop-opacity:1"/><stop offset="0.07" style="stop-color:#feb77b;stop-opacity:1"/><stop offset="0.07" style="stop-color:#feb77b;stop-opacity:1"/><stop offset="0.08" style="stop-color:#feb57c;stop-opacity:1"/><stop offset="0.09" style="stop-color:#feb47e;stop-opacity:1"/><stop offset="0.09" style="stop-color:#feb37e;stop-opacity:1"/><stop offset="0.1" style="stop-color:#feb37f;stop-opacity:1"/><stop offset="0.1" style="stop-color:#feb280;stop-opacity:1"/><stop offset="0.11" style="stop-color:#feb180;stop-opacity:1"/><stop offset="0.11" style="stop-color:#feb081;stop-opacity:1"/><stop offset="0.11" style="stop-color:#feb081;stop-opacity:1"/><stop offset="0.12" style="stop-color:#feae83;stop-opacity:1"/><stop offset="0.13" style="stop-color:#feae83;stop-opacity:1"/><stop offset="0.13" style="stop-color:#feac84;stop-opacity:1"/><stop offset="0.16" style="stop-color:#fea888;stop-opacity:1"/><stop offset="0.17" style="stop-color:#fea58b;stop-opacity:1"/><stop offset="0.18" style="stop-color:#fea58b;stop-opacity:1"/><stop offset="0.18" style="stop-color:#fea48c;stop-opacity:1"/><stop offset="0.18" style="stop-color:#fea38c;stop-opacity:1"/><stop offset="0.21" style="stop-color:#fe9f90;stop-opacity:1"/><stop offset="0.21" style="stop-color:#fe9f91;stop-opacity:1"/><stop offset="0.21" style="stop-color:#fe9e91;stop-opacity:1"/><stop offset="0.23" style="stop-color:#fe9a94;stop-opacity:1"/><stop offset="0.24" style="stop-color:#fe9a95;stop-opacity:1"/><stop offset="0.24" style="stop-color:#fe9996;stop-opacity:1"/><stop offset="0.25" style="stop-color:#fe9896;stop-opacity:1"/><stop offset="0.26" style="stop-color:#fe9698;stop-opacity:1"/><stop offset="0.27" style="stop-color:#fe9599;stop-opacity:1"/><stop offset="0.27" style="stop-color:#fe939b;stop-opacity:1"/><stop offset="0.28" style="stop-color:#fe939b;stop-opacity:1"/><stop offset="0.29" style="stop-color:#fe919c;stop-opacity:1"/><stop offset="0.29" style="stop-color:#fe919d;stop-opacity:1"/><stop offset="0.29" style="stop-color:#fe909e;stop-opacity:1"/><stop offset="0.3" style="stop-color:#fe8f9e;stop-opacity:1"/><stop offset="0.3" style="stop-color:#fe8f9f;stop-opacity:1"/><stop offset="0.3" style="stop-color:#fe8ea0;stop-opacity:1"/><stop offset="0.31" style="stop-color:#fe8da0;stop-opacity:1"/><stop offset="0.32" style="stop-color:#fe8ca1;stop-opacity:1"/><stop offset="0.32" style="stop-color:#fe8ba3;stop-opacity:1"/><stop offset="0.33" style="stop-color:#fe8aa3;stop-opacity:1"/><stop offset="0.34" style="stop-color:#fe88a4;stop-opacity:1"/><stop offset="0.35" style="stop-color:#fe86a6;stop-opacity:1"/><stop offset="0.35" style="stop-color:#fe86a7;stop-opacity:1"/><stop offset="0.36" style="stop-color:#fe85a8;stop-opacity:1"/><stop offset="0.36" style="stop-color:#fe84a8;stop-opacity:1"/><stop offset="0.36" style="stop-color:#fe84a9;stop-opacity:1"/><stop offset="0.37" style="stop-color:#fe82aa;stop-opacity:1"/><stop offset="0.38" style="stop-color:#fe80ac;stop-opacity:1"/><stop offset="0.39" style="stop-color:#fe7fac;stop-opacity:1"/><stop offset="0.41" style="stop-color:#fe7bb0;stop-opacity:1"/><stop offset="0.41" style="stop-color:#fe7bb1;stop-opacity:1"/><stop offset="0.42" style="stop-color:#fe7ab1;stop-opacity:1"/><stop offset="0.42" style="stop-color:#fe79b2;stop-opacity:1"/><stop offset="0.43" style="stop-color:#fe79b3;stop-opacity:1"/><stop offset="0.43" style="stop-color:#fe77b4;stop-opacity:1"/><stop offset="0.44" style="stop-color:#fe77b4;stop-opacity:1"/><stop offset="0.45" style="stop-color:#fe75b6;stop-opacity:1"/><stop offset="0.45" style="stop-color:#fe74b6;stop-opacity:1"/><stop offset="0.46" style="stop-color:#fe72b8;stop-opacity:1"/><stop offset="0.47" style="stop-color:#fe71b9;stop-opacity:1"/><stop offset="0.48" style="stop-color:#fe70bb;stop-opacity:1"/><stop offset="0.48" style="stop-color:#fe6fbb;stop-opacity:1"/><stop offset="0.48" style="stop-color:#fe6ebc;stop-opacity:1"/><stop offset="0.49" style="stop-color:#fe6ebc;stop-opacity:1"/><stop offset="0.5" style="stop-color:#fe6bbe;stop-opacity:1"/><stop offset="0.5" style="stop-color:#fe6bbf;stop-opacity:1"/><stop offset="0.51" style="stop-color:#fe69c0;stop-opacity:1"/><stop offset="0.53" style="stop-color:#fe66c3;stop-opacity:1"/><stop offset="0.54" style="stop-color:#fe66c4;stop-opacity:1"/><stop offset="0.54" style="stop-color:#fd66c4;stop-opacity:1"/><stop offset="0.54" style="stop-color:#fd66c5;stop-opacity:1"/><stop offset="0.55" style="stop-color:#fc67c5;stop-opacity:1"/><stop offset="0.55" style="stop-color:#fb67c6;stop-opacity:1"/><stop offset="0.55" style="stop-color:#fa68c6;stop-opacity:1"/><stop offset="0.56" style="stop-color:#f968c7;stop-opacity:1"/><stop offset="0.57" style="stop-color:#f869c7;stop-opacity:1"/><stop offset="0.57" style="stop-color:#f769c8;stop-opacity:1"/><stop offset="0.57" style="stop-color:#f76ac8;stop-opacity:1"/><stop offset="0.58" style="stop-color:#f56ac9;stop-opacity:1"/><stop offset="0.59" style="stop-color:#f46bca;stop-opacity:1"/><stop offset="0.59" style="stop-color:#f46bca;stop-opacity:1"/><stop offset="0.6" style="stop-color:#f26ccb;stop-opacity:1"/><stop offset="0.6" style="stop-color:#f16ccc;stop-opacity:1"/><stop offset="0.61" style="stop-color:#f06dcc;stop-opacity:1"/><stop offset="0.61" style="stop-color:#f06dcd;stop-opacity:1"/><stop offset="0.61" style="stop-color:#ef6ecd;stop-opacity:1"/><stop offset="0.62" style="stop-color:#ee6ece;stop-opacity:1"/><stop offset="0.62" style="stop-color:#ed6ece;stop-opacity:1"/><stop offset="0.63" style="stop-color:#ed6fce;stop-opacity:1"/><stop offset="0.64" style="stop-color:#ea70d0;stop-opacity:1"/><stop offset="0.64" style="stop-color:#ea70d0;stop-opacity:1"/><stop offset="0.65" style="stop-color:#e771d2;stop-opacity:1"/><stop offset="0.66" style="stop-color:#e772d2;stop-opacity:1"/><stop offset="0.66" style="stop-color:#e672d3;stop-opacity:1"/><stop offset="0.66" style="stop-color:#e573d3;stop-opacity:1"/><stop offset="0.67" style="stop-color:#e373d4;stop-opacity:1"/><stop offset="0.68" style="stop-color:#e374d4;stop-opacity:1"/><stop offset="0.68" style="stop-color:#e274d5;stop-opacity:1"/><stop offset="0.68" style="stop-color:#e175d5;stop-opacity:1"/><stop offset="0.69" style="stop-color:#e075d6;stop-opacity:1"/><stop offset="0.69" style="stop-color:#e075d6;stop-opacity:1"/><stop offset="0.7" style="stop-color:#df76d7;stop-opacity:1"/><stop offset="0.7" style="stop-color:#de76d7;stop-opacity:1"/><stop offset="0.7" style="stop-color:#dd77d8;stop-opacity:1"/><stop offset="0.71" style="stop-color:#dd77d8;stop-opacity:1"/><stop offset="0.71" style="stop-color:#dc77d9;stop-opacity:1"/><stop offset="0.71" style="stop-color:#db78d9;stop-opacity:1"/><stop offset="0.72" style="stop-color:#da78da;stop-opacity:1"/><stop offset="0.72" style="stop-color:#da79da;stop-opacity:1"/><stop offset="0.73" style="stop-color:#d979db;stop-opacity:1"/><stop offset="0.73" style="stop-color:#d879db;stop-opacity:1"/><stop offset="0.73" style="stop-color:#d77adb;stop-opacity:1"/><stop offset="0.74" style="stop-color:#d67adc;stop-opacity:1"/><stop offset="0.74" style="stop-color:#d67bdc;stop-opacity:1"/><stop offset="0.75" style="stop-color:#d47bdd;stop-opacity:1"/><stop offset="0.77" style="stop-color:#d17ddf;stop-opacity:1"/><stop offset="0.77" style="stop-color:#d07de0;stop-opacity:1"/><stop offset="0.77" style="stop-color:#d07ee0;stop-opacity:1"/><stop offset="0.78" style="stop-color:#ce7ee1;stop-opacity:1"/><stop offset="0.79" style="stop-color:#cd7fe1;stop-opacity:1"/><stop offset="0.79" style="stop-color:#cd7fe2;stop-opacity:1"/><stop offset="0.79" style="stop-color:#cc80e2;stop-opacity:1"/><stop offset="0.8" style="stop-color:#ca80e3;stop-opacity:1"/><stop offset="0.8" style="stop-color:#c981e4;stop-opacity:1"/><stop offset="0.81" style="stop-color:#c981e4;stop-opacity:1"/><stop offset="0.82" style="stop-color:#c782e5;stop-opacity:1"/><stop offset="0.82" style="stop-color:#c682e6;stop-opacity:1"/><stop offset="0.82" style="stop-color:#c683e6;stop-opacity:1"/><stop offset="0.83" style="stop-color:#c583e7;stop-opacity:1"/><stop offset="0.83" style="stop-color:#c484e7;stop-opacity:1"/><stop offset="0.84" style="stop-color:#c384e8;stop-opacity:1"/><stop offset="0.84" style="stop-color:#c384e8;stop-opacity:1"/><stop offset="0.84" style="stop-color:#c285e8;stop-opacity:1"/><stop offset="0.85" style="stop-color:#c185e9;stop-opacity:1"/><stop offset="0.85" style="stop-color:#c086e9;stop-opacity:1"/><stop offset="0.86" style="stop-color:#bf86ea;stop-opacity:1"/><stop offset="0.87" style="stop-color:#bc88ec;stop-opacity:1"/><stop offset="0.88" style="stop-color:#bc88ec;stop-opacity:1"/><stop offset="0.88" style="stop-color:#bb88ed;stop-opacity:1"/><stop offset="0.88" style="stop-color:#ba89ed;stop-opacity:1"/><stop offset="0.89" style="stop-color:#b989ee;stop-opacity:1"/><stop offset="0.89" style="stop-color:#b98aee;stop-opacity:1"/><stop offset="0.9" style="stop-color:#b68bef;stop-opacity:1"/><stop offset="0.91" style="stop-color:#b58bf0;stop-opacity:1"/><stop offset="0.92" style="stop-color:#b38cf1;stop-opacity:1"/><stop offset="0.93" style="stop-color:#b28df2;stop-opacity:1"/><stop offset="0.93" style="stop-color:#b18df3;stop-opacity:1"/><stop offset="0.93" style="stop-color:#b08ef3;stop-opacity:1"/><stop offset="0.94" style="stop-color:#af8ef4;stop-opacity:1"/><stop offset="0.94" style="stop-color:#af8ff4;stop-opacity:1"/><stop offset="0.95" style="stop-color:#ac90f5;stop-opacity:1"/><stop offset="0.96" style="stop-color:#ac90f6;stop-opacity:1"/><stop offset="0.96" style="stop-color:#ab91f6;stop-opacity:1"/><stop offset="0.97" style="stop-color:#a991f7;stop-opacity:1"/><stop offset="0.98" style="stop-color:#a793f9;stop-opacity:1"/><stop offset="0.98" style="stop-color:#a693f9;stop-opacity:1"/><stop offset="0.99" style="stop-color:#a693fa;stop-opacity:1"/><stop offset="0.99" style="stop-color:#a594fa;stop-opacity:1"/><stop offset="1" style="stop-color:#a494fb;stop-opacity:1"/><stop offset="1" style="stop-color:#a395fb;stop-opacity:1"/></linearGradient></defs></svg>