<?xml version="1.0" encoding="UTF-8" standalone="no"?><!DOCTYPE svg PUBLIC "-//W3C//DTD SVG 1.1//EN" "http://www.w3.org/Graphics/SVG/1.1/DTD/svg11.dtd"><svg width="100%" height="100%" viewBox="0 0 907 1352" version="1.1" xmlns="http://www.w3.org/2000/svg" xmlns:xlink="http://www.w3.org/1999/xlink" xml:space="preserve" xmlns:serif="http://www.serif.com/" style="fill-rule:evenodd;clip-rule:evenodd;stroke-linecap:round;stroke-linejoin:round;"><rect id="bunsenlabs" x="-0" y="0" width="906.667" height="1351.11" style="fill:none;"/><clipPath id="_clip1"><rect x="-0" y="0" width="906.667" height="1351.11"/></clipPath><g clip-path="url(#_clip1)"><g><g id="Frame"><path id="path36023" d="M363.226,8.892l180.223,-0c196.3,-0 354.331,36.928 354.331,82.799l0,1167.73c0,45.871 -158.031,82.8 -354.331,82.8l-180.223,-0c-196.299,-0 -354.331,-36.929 -354.331,-82.8l0,-1167.73c0,-45.871 158.032,-82.799 354.331,-82.799Z" style="fill:#fff;fill-rule:nonzero;"/><path id="path36025" d="M363.234,0c-98.707,0 -187.781,9.234 -252.806,24.429c-32.512,7.598 -58.999,16.618 -78.086,27.198c-9.544,5.29 -17.286,10.978 -22.976,17.509c-5.69,6.53 -9.366,14.275 -9.366,22.561l-0,1167.72c-0,8.285 3.676,16.03 9.366,22.56c5.69,6.531 13.432,12.219 22.976,17.509c19.087,10.581 45.574,19.6 78.086,27.198c65.025,15.195 154.099,24.429 252.806,24.429l180.209,0c98.707,0 187.781,-9.234 252.806,-24.429c32.512,-7.598 58.999,-16.617 78.086,-27.198c9.544,-5.29 17.286,-10.978 22.976,-17.509c5.69,-6.53 9.366,-14.275 9.366,-22.56l-0,-1167.72c-0,-8.286 -3.676,-16.031 -9.366,-22.561c-5.69,-6.531 -13.432,-12.219 -22.976,-17.509c-19.087,-10.58 -45.574,-19.6 -78.086,-27.198c-65.025,-15.195 -154.099,-24.429 -252.806,-24.429l-180.209,0Zm-0,17.786l180.209,-0c97.593,-0 185.703,9.231 248.769,23.968c31.533,7.368 56.818,16.176 73.496,25.421c8.339,4.622 14.481,9.365 18.201,13.633c3.719,4.269 4.982,7.706 4.982,10.889l0,1167.72c0,3.182 -1.263,6.619 -4.982,10.888c-3.72,4.269 -9.862,9.011 -18.201,13.633c-16.678,9.245 -41.963,18.053 -73.496,25.421c-63.066,14.738 -151.176,23.969 -248.769,23.969l-180.209,-0c-97.593,-0 -185.703,-9.231 -248.769,-23.969c-31.533,-7.368 -56.818,-16.176 -73.496,-25.421c-8.339,-4.622 -14.481,-9.364 -18.201,-13.633c-3.719,-4.269 -4.982,-7.706 -4.982,-10.888l-0,-1167.72c-0,-3.183 1.263,-6.62 4.982,-10.889c3.72,-4.268 9.862,-9.011 18.201,-13.633c16.678,-9.245 41.963,-18.053 73.496,-25.421c63.066,-14.737 151.176,-23.968 248.769,-23.968Z" style="fill-rule:nonzero;"/></g><g id="Bottom"><path id="path35979" d="M371.606,946.173l163.464,0c199.608,0 360.304,38.151 360.304,85.54l-0,218.99c-0,47.389 -160.696,85.54 -360.304,85.54l-163.464,-0c-199.609,-0 -360.304,-38.151 -360.304,-85.54l-0,-218.99c-0,-47.389 160.695,-85.54 360.304,-85.54Z" style="fill-rule:nonzero;"/><path id="path35981" d="M371.607,938.419c-100.298,0 -190.804,9.547 -256.796,25.214c-32.996,7.833 -59.838,17.123 -79.078,27.958c-19.241,10.836 -32.18,23.883 -32.18,40.116l-0,218.988c-0,16.233 12.939,29.303 32.18,40.139c19.24,10.835 46.082,20.125 79.078,27.958c65.992,15.667 156.498,25.214 256.796,25.214l163.463,0c100.298,0 190.804,-9.547 256.796,-25.214c32.996,-7.833 59.838,-17.123 79.078,-27.958c19.241,-10.836 32.18,-23.906 32.18,-40.139l0,-218.988c0,-16.233 -12.939,-29.28 -32.18,-40.116c-19.24,-10.835 -46.082,-20.125 -79.078,-27.958c-65.992,-15.667 -156.498,-25.214 -256.796,-25.214l-163.463,0Zm0,15.525l163.463,-0c99.309,-0 188.962,9.52 253.22,24.775c32.129,7.628 57.914,16.745 75.042,26.39c17.127,9.646 24.291,19.137 24.291,26.598l-0,218.988c-0,7.461 -7.164,16.952 -24.291,26.598c-17.128,9.645 -42.913,18.762 -75.042,26.39c-64.258,15.255 -153.911,24.798 -253.22,24.798l-163.463,0c-99.309,0 -188.962,-9.543 -253.22,-24.798c-32.129,-7.628 -57.914,-16.745 -75.042,-26.39c-17.127,-9.646 -24.291,-19.137 -24.291,-26.598l0,-218.988c0,-7.461 7.164,-16.952 24.291,-26.598c17.128,-9.645 42.913,-18.762 75.042,-26.39c64.258,-15.255 153.911,-24.775 253.22,-24.775Z" style="fill-rule:nonzero;"/></g><g id="Powered-By" serif:id="Powered By"><path id="path12547" d="M59.756,886.701l2.069,0c2.962,0 5.189,-0.588 6.681,-1.763c1.515,-1.176 2.272,-3.086 2.272,-5.732c-0,-2.464 -0.678,-4.284 -2.035,-5.46c-1.334,-1.175 -3.436,-1.763 -6.308,-1.763l-2.679,-0l0,14.718Zm21.671,-7.868c-0,2.171 -0.328,4.251 -0.984,6.24c-0.656,1.99 -1.741,3.742 -3.256,5.257c-1.492,1.515 -3.47,2.724 -5.934,3.629c-2.442,0.904 -5.472,1.356 -9.089,1.356l-2.408,0l0,17.635l-10.513,-0l0,-49.581l13.769,-0c3.188,-0 5.935,0.362 8.241,1.085c2.328,0.701 4.239,1.719 5.731,3.053c1.515,1.311 2.634,2.927 3.357,4.849c0.724,1.899 1.086,4.058 1.086,6.478l-0,-0.001Z" style="fill-rule:nonzero;"/><path id="path12549" d="M98.587,893.925c-0,3.775 0.531,6.624 1.594,8.546c1.062,1.899 2.792,2.848 5.188,2.848c2.374,0 4.093,-0.96 5.155,-2.882c1.063,-1.922 1.594,-4.759 1.594,-8.512c0,-3.776 -0.531,-6.591 -1.594,-8.445c-1.062,-1.876 -2.803,-2.814 -5.223,-2.814c-2.373,-0 -4.092,0.938 -5.154,2.814c-1.04,1.854 -1.56,4.669 -1.56,8.445Zm24.078,-0c0,3.165 -0.407,5.968 -1.221,8.41c-0.791,2.442 -1.944,4.499 -3.459,6.172c-1.492,1.673 -3.323,2.951 -5.494,3.833c-2.148,0.859 -4.567,1.288 -7.257,1.288c-2.51,0 -4.816,-0.429 -6.919,-1.288c-2.102,-0.882 -3.922,-2.16 -5.46,-3.833c-1.514,-1.673 -2.701,-3.73 -3.56,-6.172c-0.86,-2.442 -1.289,-5.245 -1.289,-8.41c-0,-3.143 0.395,-5.935 1.187,-8.377c0.814,-2.442 1.967,-4.488 3.459,-6.138c1.515,-1.673 3.346,-2.939 5.494,-3.798c2.148,-0.86 4.578,-1.289 7.291,-1.289c2.51,-0 4.816,0.429 6.918,1.289c2.103,0.859 3.912,2.125 5.427,3.798c1.537,1.65 2.735,3.696 3.594,6.138c0.859,2.442 1.289,5.234 1.289,8.377Z" style="fill-rule:nonzero;"/><path id="path12551" d="M160.546,912.95l-2.917,-13.26c-0.09,-0.384 -0.214,-0.927 -0.373,-1.628c-0.135,-0.724 -0.293,-1.526 -0.474,-2.408c-0.181,-0.904 -0.373,-1.854 -0.577,-2.848c-0.181,-1.018 -0.373,-2.024 -0.576,-3.019c-0.453,-2.328 -0.95,-4.838 -1.492,-7.528l-0.204,-0c-0.52,2.69 -0.995,5.211 -1.424,7.562c-0.181,0.995 -0.373,2.001 -0.577,3.019c-0.181,1.017 -0.362,1.978 -0.542,2.882c-0.181,0.882 -0.351,1.684 -0.509,2.408c-0.136,0.723 -0.249,1.289 -0.339,1.696l-3.052,13.124l-11.124,-0l-10.208,-37.915l10.276,0l3.832,16.787c0.203,0.882 0.407,1.944 0.61,3.188c0.226,1.221 0.43,2.464 0.611,3.73c0.203,1.244 0.384,2.431 0.542,3.561c0.159,1.108 0.283,1.99 0.373,2.645l0.204,0c0.023,-0.429 0.068,-0.983 0.136,-1.661c0.09,-0.701 0.192,-1.447 0.305,-2.239c0.113,-0.791 0.226,-1.593 0.339,-2.407c0.135,-0.837 0.26,-1.617 0.373,-2.34c0.136,-0.724 0.249,-1.357 0.339,-1.9c0.113,-0.565 0.204,-0.961 0.271,-1.187l4.138,-18.177l11.395,0l3.967,18.177c0.113,0.498 0.26,1.267 0.441,2.307c0.181,1.04 0.362,2.159 0.543,3.357c0.203,1.176 0.373,2.329 0.509,3.459c0.135,1.108 0.214,1.978 0.237,2.611l0.203,0c0.068,-0.565 0.181,-1.401 0.34,-2.509c0.18,-1.108 0.373,-2.295 0.576,-3.561c0.203,-1.289 0.418,-2.566 0.644,-3.832c0.249,-1.266 0.475,-2.34 0.679,-3.222l3.968,-16.787l10.14,0l-10.344,37.915l-11.259,-0Z" style="fill-rule:nonzero;"/><path id="path12553" d="M202.903,881.682c-1.831,0 -3.357,0.644 -4.578,1.933c-1.198,1.289 -1.888,3.312 -2.068,6.071l13.192,-0c-0.023,-1.153 -0.17,-2.216 -0.441,-3.188c-0.272,-0.972 -0.678,-1.809 -1.221,-2.51c-0.543,-0.723 -1.221,-1.289 -2.035,-1.695c-0.814,-0.408 -1.763,-0.611 -2.849,-0.611l0,0Zm1.323,31.946c-2.713,0 -5.211,-0.395 -7.495,-1.187c-2.283,-0.791 -4.25,-1.978 -5.901,-3.561c-1.65,-1.605 -2.939,-3.617 -3.866,-6.036c-0.904,-2.442 -1.356,-5.302 -1.356,-8.58c-0,-3.324 0.418,-6.229 1.255,-8.716c0.836,-2.487 2,-4.555 3.493,-6.206c1.514,-1.673 3.323,-2.928 5.426,-3.764c2.125,-0.837 4.476,-1.255 7.054,-1.255c2.509,-0 4.77,0.384 6.782,1.153c2.035,0.746 3.753,1.854 5.155,3.323c1.424,1.47 2.51,3.278 3.256,5.426c0.768,2.125 1.153,4.567 1.153,7.325l-0,5.02l-23.129,-0c0.045,1.447 0.271,2.758 0.678,3.934c0.43,1.153 1.018,2.136 1.764,2.95c0.768,0.791 1.684,1.402 2.747,1.831c1.085,0.43 2.317,0.645 3.696,0.645c1.153,0 2.239,-0.057 3.256,-0.17c1.04,-0.135 2.046,-0.328 3.018,-0.576c0.972,-0.249 1.933,-0.554 2.883,-0.916c0.949,-0.384 1.922,-0.825 2.916,-1.322l0,8.003c-0.904,0.475 -1.82,0.882 -2.747,1.221c-0.904,0.317 -1.865,0.588 -2.882,0.814c-1.018,0.226 -2.114,0.384 -3.29,0.475c-1.175,0.113 -2.464,0.17 -3.866,0.17l0,-0.001Z" style="fill-rule:nonzero;"/><path id="path12555" d="M247.703,874.323c0.271,-0 0.565,0.012 0.881,0.035c0.34,0 0.656,0.024 0.95,0.071c0.317,0.024 0.599,0.059 0.848,0.106c0.271,0.024 0.475,0.059 0.61,0.107l0,9.699c-0.181,-0.047 -0.429,-0.093 -0.746,-0.136c-0.316,-0.047 -0.656,-0.083 -1.017,-0.106c-0.339,-0.047 -0.679,-0.071 -1.018,-0.071c-0.339,-0.024 -0.621,-0.036 -0.847,-0.036c-1.334,0 -2.567,0.17 -3.697,0.51c-1.108,0.339 -2.069,0.893 -2.883,1.661c-0.791,0.747 -1.413,1.742 -1.865,2.985c-0.429,1.22 -0.644,2.724 -0.644,4.51l-0,19.297l-10.344,-0l0,-37.915l7.834,-0l1.526,5.697l0.509,0c0.543,-0.972 1.13,-1.854 1.763,-2.645c0.633,-0.791 1.334,-1.458 2.103,-2.001c0.791,-0.565 1.673,-0.995 2.645,-1.289c0.995,-0.316 2.125,-0.474 3.392,-0.474l-0,-0.005Z" style="fill-rule:nonzero;"/><path id="path12557" d="M273.409,881.682c-1.831,0 -3.358,0.644 -4.578,1.933c-1.199,1.289 -1.888,3.312 -2.069,6.071l13.192,-0c-0.023,-1.153 -0.17,-2.216 -0.441,-3.188c-0.271,-0.972 -0.678,-1.809 -1.221,-2.51c-0.542,-0.723 -1.221,-1.289 -2.034,-1.695c-0.814,-0.408 -1.764,-0.611 -2.849,-0.611l-0,0Zm1.322,31.946c-2.713,0 -5.211,-0.395 -7.494,-1.187c-2.284,-0.791 -4.251,-1.978 -5.901,-3.561c-1.651,-1.605 -2.939,-3.617 -3.866,-6.036c-0.905,-2.442 -1.357,-5.302 -1.357,-8.58c0,-3.324 0.418,-6.229 1.255,-8.716c0.836,-2.487 2.001,-4.555 3.493,-6.206c1.515,-1.673 3.323,-2.928 5.426,-3.764c2.125,-0.837 4.477,-1.255 7.054,-1.255c2.51,-0 4.77,0.384 6.783,1.153c2.034,0.746 3.753,1.854 5.154,3.323c1.425,1.47 2.51,3.278 3.256,5.426c0.769,2.125 1.153,4.567 1.153,7.325l0,5.02l-23.129,-0c0.045,1.447 0.271,2.758 0.679,3.934c0.429,1.153 1.017,2.136 1.763,2.95c0.769,0.791 1.685,1.402 2.747,1.831c1.085,0.43 2.318,0.645 3.697,0.645c1.153,0 2.238,-0.057 3.255,-0.17c1.04,-0.135 2.046,-0.328 3.019,-0.576c0.972,-0.249 1.933,-0.554 2.882,-0.916c0.95,-0.384 1.922,-0.825 2.917,-1.322l-0,8.003c-0.905,0.475 -1.82,0.882 -2.747,1.221c-0.905,0.317 -1.865,0.588 -2.883,0.814c-1.017,0.226 -2.114,0.384 -3.289,0.475c-1.176,0.113 -2.465,0.17 -3.867,0.17l0,-0.001Z" style="fill-rule:nonzero;"/><path id="path12559" d="M309.594,913.628c-1.944,0 -3.719,-0.418 -5.324,-1.255c-1.605,-0.836 -2.985,-2.068 -4.138,-3.696c-1.153,-1.651 -2.057,-3.697 -2.713,-6.138c-0.633,-2.442 -0.949,-5.268 -0.949,-8.479c-0,-3.255 0.316,-6.104 0.949,-8.546c0.656,-2.464 1.572,-4.521 2.747,-6.172c1.199,-1.673 2.623,-2.928 4.273,-3.764c1.651,-0.837 3.471,-1.255 5.46,-1.255c1.221,-0 2.34,0.147 3.358,0.44c1.017,0.272 1.933,0.668 2.747,1.187c0.814,0.498 1.537,1.086 2.17,1.764c0.656,0.656 1.232,1.379 1.73,2.17l0.339,0c-0.136,-0.881 -0.26,-1.774 -0.373,-2.679c-0.113,-0.768 -0.215,-1.582 -0.305,-2.442c-0.068,-0.881 -0.102,-1.695 -0.102,-2.441l0,-12.141l10.344,-0l-0,52.769l-7.902,-0l-2.001,-4.918l-0.441,0c-0.475,0.769 -1.018,1.504 -1.628,2.205c-0.61,0.678 -1.323,1.265 -2.136,1.763c-0.792,0.498 -1.696,0.893 -2.714,1.187c-0.994,0.294 -2.125,0.441 -3.391,0.441l0,0Zm3.765,-8.241c1.22,0 2.26,-0.203 3.12,-0.61c0.859,-0.43 1.548,-1.063 2.068,-1.899c0.543,-0.859 0.939,-1.922 1.187,-3.188c0.272,-1.266 0.419,-2.747 0.441,-4.443l0,-1.12c0,-1.831 -0.113,-3.459 -0.339,-4.883c-0.226,-1.424 -0.599,-2.611 -1.119,-3.561c-0.52,-0.972 -1.221,-1.707 -2.103,-2.204c-0.881,-0.498 -1.989,-0.747 -3.323,-0.747c-2.171,0 -3.765,0.984 -4.782,2.951c-1.017,1.944 -1.526,4.781 -1.526,8.512c0,3.73 0.509,6.534 1.526,8.41c1.04,1.854 2.657,2.781 4.85,2.781l-0,0.001Z" style="fill-rule:nonzero;"/><path id="path12561" d="M378.913,874.323c1.944,-0 3.719,0.418 5.324,1.255c1.605,0.836 2.984,2.08 4.137,3.73c1.153,1.651 2.046,3.697 2.68,6.138c0.655,2.442 0.983,5.268 0.983,8.479c0,3.255 -0.328,6.115 -0.983,8.58c-0.634,2.441 -1.538,4.488 -2.714,6.138c-1.175,1.65 -2.588,2.894 -4.239,3.73c-1.65,0.837 -3.47,1.255 -5.46,1.255c-1.266,0 -2.396,-0.136 -3.391,-0.407c-0.972,-0.272 -1.843,-0.634 -2.611,-1.086c-0.769,-0.452 -1.447,-0.96 -2.035,-1.526c-0.565,-0.588 -1.085,-1.198 -1.56,-1.831l-0.712,-0l-1.73,4.171l-7.902,0l0,-52.769l10.344,0l-0,12.277c-0,0.746 -0.023,1.56 -0.067,2.442c-0.045,0.859 -0.091,1.661 -0.136,2.408c-0.068,0.881 -0.136,1.763 -0.204,2.645l0.407,-0c0.475,-0.792 1.018,-1.526 1.628,-2.205c0.611,-0.678 1.311,-1.265 2.103,-1.763c0.814,-0.52 1.729,-0.927 2.747,-1.221c1.017,-0.294 2.148,-0.441 3.391,-0.441l-0,0.001Zm-3.493,8.275c-1.153,-0 -2.137,0.215 -2.951,0.645c-0.791,0.407 -1.436,1.028 -1.933,1.865c-0.497,0.836 -0.859,1.899 -1.085,3.188c-0.226,1.266 -0.362,2.747 -0.407,4.442l-0,1.12c-0,1.831 0.102,3.459 0.305,4.883c0.226,1.425 0.588,2.623 1.085,3.595c0.498,0.95 1.153,1.673 1.967,2.171c0.837,0.497 1.865,0.746 3.086,0.746c2.058,0 3.561,-0.972 4.511,-2.916c0.972,-1.967 1.458,-4.816 1.458,-8.547c0,-3.73 -0.486,-6.522 -1.458,-8.376c-0.95,-1.877 -2.476,-2.815 -4.578,-2.815l-0,-0.001Z" style="fill-rule:nonzero;"/><path id="path12563" d="M395.496,875.035l11.327,0l6.104,21.331c0.362,1.176 0.622,2.431 0.78,3.765c0.181,1.334 0.294,2.532 0.339,3.595l0.203,-0c0.047,-0.52 0.104,-1.097 0.17,-1.73c0.091,-0.633 0.192,-1.277 0.305,-1.933c0.113,-0.656 0.238,-1.3 0.373,-1.933c0.158,-0.656 0.317,-1.244 0.475,-1.764l5.969,-21.331l11.395,0l-14.99,42.765c-1.402,4.001 -3.312,6.974 -5.731,8.919c-2.42,1.944 -5.449,2.916 -9.089,2.916c-1.176,0 -2.193,-0.068 -3.052,-0.203c-0.859,-0.113 -1.594,-0.238 -2.205,-0.373l0,-8.207c0.475,0.113 1.074,0.215 1.798,0.305c0.723,0.09 1.481,0.135 2.272,0.135c1.085,0 2.012,-0.146 2.781,-0.44c0.768,-0.294 1.424,-0.712 1.967,-1.255c0.565,-0.52 1.04,-1.153 1.424,-1.899c0.407,-0.747 0.758,-1.583 1.051,-2.51l0.645,-1.899l-14.311,-38.254Z" style="fill-rule:nonzero;"/></g></g><g id="bunsenlabs1" serif:id="bunsenlabs"><path id="Logo" d="M353.749,615.395c-70.681,-145.02 -46.032,-353.805 126.448,-461.689c-6.782,19.844 -4.56,52.935 5.08,77.645c26.44,60.986 78.96,112.762 98.191,211.153c26.62,137.708 -23.802,269.246 -113.687,372.793c45.046,-146.514 67.827,-325.213 -40.083,-413c-75.525,67.742 -78.395,130.816 -75.949,213.098Z" style="fill:#f6b620;fill-rule:nonzero;stroke:#f6b620;stroke-width:7.55px;"/><path id="bunsenlabs2" serif:id="bunsenlabs" d="M839.296,1177.62c-0,7.047 -2.679,12.476 -8.036,16.289c-5.357,3.765 -12.958,5.647 -22.804,5.647c-10.521,-0 -18.87,-1.617 -25.048,-4.851l0,-7.746c7.915,3.958 16.265,5.937 25.048,5.937c7.77,-0 13.659,-1.279 17.664,-3.837c4.054,-2.607 6.081,-6.058 6.081,-10.353c0,-3.957 -1.617,-7.287 -4.85,-9.99c-3.185,-2.703 -8.446,-5.357 -15.782,-7.963c-7.867,-2.848 -13.393,-5.285 -16.578,-7.312c-3.185,-2.075 -5.598,-4.392 -7.239,-6.95c-1.593,-2.606 -2.389,-5.767 -2.389,-9.483c-0,-5.888 2.461,-10.546 7.384,-13.972c4.971,-3.427 11.897,-5.14 20.777,-5.14c8.494,-0 16.554,1.593 24.179,4.778l-2.678,6.515c-7.722,-3.185 -14.889,-4.778 -21.501,-4.778c-6.419,0 -11.511,1.062 -15.275,3.186c-3.765,2.123 -5.647,5.067 -5.647,8.832c0,4.102 1.448,7.384 4.344,9.845c2.944,2.461 8.663,5.212 17.157,8.253c7.095,2.558 12.259,4.874 15.492,6.95c3.234,2.027 5.647,4.343 7.239,6.949c1.641,2.607 2.462,5.671 2.462,9.194m-103.884,-59.724c11.003,-0 19.28,3.475 24.83,10.424c5.599,6.902 8.398,17.013 8.398,30.333c0,13.079 -2.944,23.166 -8.832,30.261c-5.84,7.094 -14.069,10.642 -24.686,10.642c-5.599,-0 -10.642,-1.159 -15.13,-3.475c-4.489,-2.317 -8.036,-5.599 -10.642,-9.846l-0.652,0l-2.027,11.873l-4.489,0l0,-112.644l7.167,-0l0,28.305c0,4.248 -0.094,8.157 -0.289,11.728l-0.217,6.154l0.506,-0c2.993,-4.73 6.588,-8.205 10.787,-10.425c4.247,-2.22 9.339,-3.33 15.275,-3.33m-0.145,6.515c-9.267,0 -15.903,2.655 -19.908,7.963c-4.006,5.309 -6.009,14.069 -6.009,26.279l0,1.231c0,11.872 2.075,20.391 6.226,25.555c4.199,5.164 10.714,7.746 19.546,7.746c8.591,0 15.058,-2.992 19.401,-8.977c4.344,-6.033 6.516,-14.599 6.516,-25.7c-0,-22.731 -8.591,-34.097 -25.772,-34.097m-63.779,73.697l-1.81,-12.452l-0.578,0c-3.958,5.068 -8.036,8.663 -12.235,10.787c-4.15,2.075 -9.073,3.113 -14.768,3.113c-7.722,-0 -13.731,-1.979 -18.026,-5.937c-4.295,-3.957 -6.443,-9.435 -6.443,-16.433c0,-7.674 3.185,-13.634 9.556,-17.881c6.419,-4.247 15.685,-6.491 27.799,-6.733l14.986,-0.434l-0,-5.213c-0.001,-7.48 -1.521,-13.127 -4.561,-16.94c-3.041,-3.812 -7.94,-5.719 -14.696,-5.719c-7.288,0 -14.841,2.027 -22.659,6.081l-2.679,-6.225c8.639,-4.054 17.181,-6.081 25.627,-6.081c8.639,-0 15.082,2.244 19.329,6.732c4.296,4.489 6.443,11.487 6.443,20.994l0,52.341l-5.284,0m-28.958,-5.068c8.398,0 15.01,-2.389 19.836,-7.167c4.875,-4.826 7.312,-11.51 7.312,-20.053l-0,-7.746l-13.755,0.579c-11.052,0.531 -18.943,2.269 -23.672,5.212c-4.682,2.896 -7.023,7.433 -7.023,13.61c0,4.923 1.497,8.76 4.489,11.511c3.04,2.703 7.311,4.054 12.813,4.054m-45.245,5.068l-7.167,-0l-0,-112.644l7.167,-0l-0,112.644m-48.396,-0l0,-51.327c0,-6.467 -1.472,-11.294 -4.416,-14.479c-2.944,-3.185 -7.553,-4.778 -13.827,-4.778c-8.301,0 -14.382,2.244 -18.243,6.733c-3.861,4.488 -5.792,11.896 -5.792,22.224l0,41.627l-12.016,-0l-0,-79.344l9.773,0l1.954,10.859l0.579,0c2.461,-3.909 5.912,-6.925 10.352,-9.049c4.44,-2.171 9.387,-3.257 14.841,-3.257c9.556,-0 16.747,2.316 21.573,6.949c4.826,4.585 7.239,11.945 7.239,22.08l0,51.762l-12.017,-0m-103.884,1.448c-11.728,-0 -20.994,-3.572 -27.799,-10.715c-6.757,-7.143 -10.135,-17.06 -10.135,-29.753c-0,-12.79 3.137,-22.949 9.411,-30.478c6.322,-7.529 14.792,-11.293 25.41,-11.293c9.942,-0 17.809,3.282 23.6,9.845c5.791,6.516 8.687,15.13 8.687,25.844l0,7.602l-54.657,-0c0.241,9.314 2.582,16.385 7.022,21.211c4.489,4.826 10.787,7.24 18.895,7.24c8.542,-0 16.988,-1.786 25.338,-5.358l-0,10.715c-4.247,1.834 -8.277,3.137 -12.09,3.909c-3.764,0.821 -8.325,1.231 -13.682,1.231m-3.258,-72.177c-6.371,0 -11.462,2.076 -15.275,6.226c-3.764,4.151 -5.984,9.894 -6.66,17.23l41.481,-0c0,-7.577 -1.689,-13.369 -5.067,-17.375c-3.379,-4.054 -8.205,-6.081 -14.479,-6.081m-49.734,49.083c-0,7.384 -2.751,13.079 -8.253,17.085c-5.502,4.006 -13.224,6.009 -23.166,6.009c-10.521,-0 -18.726,-1.665 -24.613,-4.995l-0,-11.149c3.812,1.93 7.89,3.451 12.234,4.561c4.392,1.11 8.615,1.665 12.669,1.665c6.274,-0 11.1,-0.99 14.478,-2.968c3.379,-2.028 5.068,-5.092 5.068,-9.195c-0,-3.088 -1.351,-5.719 -4.054,-7.89c-2.655,-2.22 -7.867,-4.827 -15.637,-7.819c-7.384,-2.751 -12.645,-5.14 -15.782,-7.167c-3.089,-2.075 -5.405,-4.416 -6.949,-7.022c-1.497,-2.606 -2.245,-5.719 -2.245,-9.339c0,-6.467 2.631,-11.558 7.891,-15.275c5.261,-3.764 12.476,-5.646 21.646,-5.646c8.542,-0 16.891,1.737 25.048,5.212l-4.271,9.773c-7.963,-3.282 -15.178,-4.923 -21.645,-4.923c-5.695,0 -9.991,0.893 -12.886,2.679c-2.896,1.786 -4.344,4.247 -4.344,7.384c0,2.124 0.531,3.933 1.593,5.43c1.11,1.496 2.871,2.919 5.284,4.271c2.414,1.351 7.047,3.306 13.9,5.864c9.411,3.426 15.757,6.877 19.039,10.352c3.33,3.475 4.995,7.842 4.996,13.103m-87.814,21.646l0,-51.327c0,-6.467 -1.472,-11.294 -4.416,-14.479c-2.944,-3.185 -7.553,-4.778 -13.827,-4.778c-8.301,0 -14.382,2.244 -18.243,6.733c-3.861,4.488 -5.791,11.896 -5.791,22.224l-0,41.627l-12.018,0l0,-79.343l9.774,-0l1.954,10.859l0.579,-0c2.462,-3.91 5.912,-6.926 10.353,-9.05c4.44,-2.171 9.387,-3.257 14.84,-3.257c9.556,-0 16.747,2.316 21.573,6.949c4.827,4.585 7.24,11.945 7.24,22.08l-0,51.762l-12.018,0m-133.927,-79.343l-0,51.471c-0,6.467 1.472,11.294 4.416,14.479c2.944,3.185 7.553,4.778 13.827,4.778c8.301,-0 14.358,-2.268 18.171,-6.805c3.861,-4.537 5.791,-11.945 5.791,-22.225l0,-41.698l12.017,-0l0,79.343l-9.917,0l-1.738,-10.642l-0.651,-0c-2.462,3.909 -5.888,6.902 -10.28,8.977c-4.344,2.075 -9.315,3.113 -14.913,3.113c-9.653,-0 -16.892,-2.293 -21.718,-6.878c-4.778,-4.585 -7.167,-11.921 -7.167,-22.007l-0,-51.906l12.162,-0m-65.299,-1.304c10.425,0.001 18.509,3.572 24.252,10.715c5.791,7.094 8.687,17.157 8.687,30.188c-0,13.03 -2.92,23.166 -8.76,30.405c-5.791,7.191 -13.851,10.787 -24.179,10.787c-5.164,-0 -9.894,-0.941 -14.189,-2.824c-4.247,-1.93 -7.818,-4.874 -10.714,-8.832l-0.869,0l-2.534,10.208l-8.614,0l-0,-112.644l12.017,-0l-0,27.364c-0,6.13 -0.193,11.632 -0.579,16.506l0.579,-0c5.598,-7.915 13.899,-11.872 24.903,-11.873m-1.737,10.063c-8.205,0 -14.117,2.365 -17.737,7.095c-3.619,4.681 -5.429,12.596 -5.429,23.745c-0,11.148 1.858,19.136 5.574,23.962c3.716,4.778 9.677,7.167 17.881,7.167c7.384,-0 12.886,-2.679 16.506,-8.036c3.62,-5.405 5.429,-13.151 5.429,-23.238c0,-10.328 -1.809,-18.026 -5.429,-23.094c-3.62,-5.067 -9.218,-7.601 -16.795,-7.601" style="fill:#f6b620;fill-rule:nonzero;"/></g></g></svg>