<?xml version="1.0" encoding="UTF-8" standalone="no"?><!DOCTYPE svg PUBLIC "-//W3C//DTD SVG 1.1//EN" "http://www.w3.org/Graphics/SVG/1.1/DTD/svg11.dtd"><svg width="100%" height="100%" viewBox="0 0 907 1352" version="1.1" xmlns="http://www.w3.org/2000/svg" xmlns:xlink="http://www.w3.org/1999/xlink" xml:space="preserve" xmlns:serif="http://www.serif.com/" style="fill-rule:evenodd;clip-rule:evenodd;"><rect id="Clear-Linux-OS" serif:id="Clear Linux OS" x="0" y="0" width="906.667" height="1351.11" style="fill:none;"/><clipPath id="_clip1"><rect x="0" y="0" width="906.667" height="1351.11"/></clipPath><g clip-path="url(#_clip1)"><g><g id="Frame"><path id="path36023" d="M363.226,8.892l180.223,-0c196.3,-0 354.331,36.928 354.331,82.799l0,1167.73c0,45.871 -158.031,82.8 -354.331,82.8l-180.223,-0c-196.299,-0 -354.331,-36.929 -354.331,-82.8l0,-1167.73c0,-45.871 158.032,-82.799 354.331,-82.799Z" style="fill:#fff;fill-rule:nonzero;"/><path id="path36025" d="M363.234,0c-98.707,0 -187.781,9.234 -252.806,24.429c-32.512,7.598 -58.999,16.618 -78.086,27.198c-9.544,5.29 -17.286,10.978 -22.976,17.509c-5.69,6.53 -9.366,14.275 -9.366,22.561l0,1167.72c0,8.285 3.676,16.03 9.366,22.56c5.69,6.531 13.432,12.219 22.976,17.509c19.087,10.581 45.574,19.6 78.086,27.198c65.025,15.195 154.099,24.429 252.806,24.429l180.209,0c98.707,0 187.781,-9.234 252.806,-24.429c32.512,-7.598 58.999,-16.617 78.086,-27.198c9.544,-5.29 17.286,-10.978 22.976,-17.509c5.69,-6.53 9.366,-14.275 9.366,-22.56l-0,-1167.72c-0,-8.286 -3.676,-16.031 -9.366,-22.561c-5.69,-6.531 -13.432,-12.219 -22.976,-17.509c-19.087,-10.58 -45.574,-19.6 -78.086,-27.198c-65.025,-15.195 -154.099,-24.429 -252.806,-24.429l-180.209,0Zm-0,17.786l180.209,-0c97.593,-0 185.703,9.231 248.769,23.968c31.533,7.368 56.818,16.176 73.496,25.421c8.339,4.622 14.481,9.365 18.201,13.633c3.719,4.269 4.982,7.706 4.982,10.889l0,1167.72c0,3.182 -1.263,6.619 -4.982,10.888c-3.72,4.269 -9.862,9.011 -18.201,13.633c-16.678,9.245 -41.963,18.053 -73.496,25.421c-63.066,14.738 -151.176,23.969 -248.769,23.969l-180.209,-0c-97.593,-0 -185.703,-9.231 -248.769,-23.969c-31.533,-7.368 -56.818,-16.176 -73.496,-25.421c-8.339,-4.622 -14.481,-9.364 -18.201,-13.633c-3.719,-4.269 -4.982,-7.706 -4.982,-10.888l-0,-1167.72c-0,-3.183 1.263,-6.62 4.982,-10.889c3.72,-4.268 9.862,-9.011 18.201,-13.633c16.678,-9.245 41.963,-18.053 73.496,-25.421c63.066,-14.737 151.176,-23.968 248.769,-23.968Z" style="fill-rule:nonzero;"/></g><g id="Bottom"><path id="path35979" d="M371.606,946.173l163.464,0c199.608,0 360.304,38.151 360.304,85.54l-0,218.99c-0,47.389 -160.696,85.54 -360.304,85.54l-163.464,-0c-199.609,-0 -360.304,-38.151 -360.304,-85.54l-0,-218.99c-0,-47.389 160.695,-85.54 360.304,-85.54Z" style="fill-rule:nonzero;"/><path id="path35981" d="M371.607,938.419c-100.298,0 -190.804,9.547 -256.796,25.214c-32.996,7.833 -59.838,17.123 -79.078,27.958c-19.241,10.836 -32.18,23.883 -32.18,40.116l-0,218.988c-0,16.233 12.939,29.303 32.18,40.139c19.24,10.835 46.082,20.125 79.078,27.958c65.992,15.667 156.498,25.214 256.796,25.214l163.463,0c100.298,0 190.804,-9.547 256.796,-25.214c32.996,-7.833 59.838,-17.123 79.078,-27.958c19.241,-10.836 32.18,-23.906 32.18,-40.139l0,-218.988c0,-16.233 -12.939,-29.28 -32.18,-40.116c-19.24,-10.835 -46.082,-20.125 -79.078,-27.958c-65.992,-15.667 -156.498,-25.214 -256.796,-25.214l-163.463,0Zm0,15.525l163.463,-0c99.309,-0 188.962,9.52 253.22,24.775c32.129,7.628 57.914,16.745 75.042,26.39c17.127,9.646 24.291,19.137 24.291,26.598l-0,218.988c-0,7.461 -7.164,16.952 -24.291,26.598c-17.128,9.645 -42.913,18.762 -75.042,26.39c-64.258,15.255 -153.911,24.798 -253.22,24.798l-163.463,0c-99.309,0 -188.962,-9.543 -253.22,-24.798c-32.129,-7.628 -57.914,-16.745 -75.042,-26.39c-17.127,-9.646 -24.291,-19.137 -24.291,-26.598l0,-218.988c0,-7.461 7.164,-16.952 24.291,-26.598c17.128,-9.645 42.913,-18.762 75.042,-26.39c64.258,-15.255 153.911,-24.775 253.22,-24.775Z" style="fill-rule:nonzero;"/></g><g id="Powered-By" serif:id="Powered By"><path id="path12547" d="M59.756,886.701l2.069,0c2.962,0 5.189,-0.588 6.681,-1.763c1.515,-1.176 2.272,-3.086 2.272,-5.732c-0,-2.464 -0.678,-4.284 -2.035,-5.46c-1.334,-1.175 -3.436,-1.763 -6.308,-1.763l-2.679,-0l0,14.718Zm21.671,-7.868c-0,2.171 -0.328,4.251 -0.984,6.24c-0.656,1.99 -1.741,3.742 -3.256,5.257c-1.492,1.515 -3.47,2.724 -5.934,3.629c-2.442,0.904 -5.472,1.356 -9.089,1.356l-2.408,0l0,17.635l-10.513,-0l0,-49.581l13.769,-0c3.188,-0 5.935,0.362 8.241,1.085c2.328,0.701 4.239,1.719 5.731,3.053c1.515,1.311 2.634,2.927 3.357,4.849c0.724,1.899 1.086,4.058 1.086,6.478l-0,-0.001Z" style="fill-rule:nonzero;"/><path id="path12549" d="M98.587,893.925c-0,3.775 0.531,6.624 1.594,8.546c1.062,1.899 2.792,2.848 5.188,2.848c2.374,0 4.093,-0.96 5.155,-2.882c1.063,-1.922 1.594,-4.759 1.594,-8.512c0,-3.776 -0.531,-6.591 -1.594,-8.445c-1.062,-1.876 -2.803,-2.814 -5.223,-2.814c-2.373,-0 -4.092,0.938 -5.154,2.814c-1.04,1.854 -1.56,4.669 -1.56,8.445Zm24.078,-0c0,3.165 -0.407,5.968 -1.221,8.41c-0.791,2.442 -1.944,4.499 -3.459,6.172c-1.492,1.673 -3.323,2.951 -5.494,3.833c-2.148,0.859 -4.567,1.288 -7.257,1.288c-2.51,0 -4.816,-0.429 -6.919,-1.288c-2.102,-0.882 -3.922,-2.16 -5.46,-3.833c-1.514,-1.673 -2.701,-3.73 -3.56,-6.172c-0.86,-2.442 -1.289,-5.245 -1.289,-8.41c-0,-3.143 0.395,-5.935 1.187,-8.377c0.814,-2.442 1.967,-4.488 3.459,-6.138c1.515,-1.673 3.346,-2.939 5.494,-3.798c2.148,-0.86 4.578,-1.289 7.291,-1.289c2.51,-0 4.816,0.429 6.918,1.289c2.103,0.859 3.912,2.125 5.427,3.798c1.537,1.65 2.735,3.696 3.594,6.138c0.859,2.442 1.289,5.234 1.289,8.377Z" style="fill-rule:nonzero;"/><path id="path12551" d="M160.546,912.95l-2.917,-13.26c-0.09,-0.384 -0.214,-0.927 -0.373,-1.628c-0.135,-0.724 -0.293,-1.526 -0.474,-2.408c-0.181,-0.904 -0.373,-1.854 -0.577,-2.848c-0.181,-1.018 -0.373,-2.024 -0.576,-3.019c-0.453,-2.328 -0.95,-4.838 -1.492,-7.528l-0.204,-0c-0.52,2.69 -0.995,5.211 -1.424,7.562c-0.181,0.995 -0.373,2.001 -0.577,3.019c-0.181,1.017 -0.362,1.978 -0.542,2.882c-0.181,0.882 -0.351,1.684 -0.509,2.408c-0.136,0.723 -0.249,1.289 -0.339,1.696l-3.052,13.124l-11.124,-0l-10.208,-37.915l10.276,0l3.832,16.787c0.203,0.882 0.407,1.944 0.61,3.188c0.226,1.221 0.43,2.464 0.611,3.73c0.203,1.244 0.384,2.431 0.542,3.561c0.159,1.108 0.283,1.99 0.373,2.645l0.204,0c0.023,-0.429 0.068,-0.983 0.136,-1.661c0.09,-0.701 0.192,-1.447 0.305,-2.239c0.113,-0.791 0.226,-1.593 0.339,-2.407c0.135,-0.837 0.26,-1.617 0.373,-2.34c0.136,-0.724 0.249,-1.357 0.339,-1.9c0.113,-0.565 0.204,-0.961 0.271,-1.187l4.138,-18.177l11.395,0l3.967,18.177c0.113,0.498 0.26,1.267 0.441,2.307c0.181,1.04 0.362,2.159 0.543,3.357c0.203,1.176 0.373,2.329 0.509,3.459c0.135,1.108 0.214,1.978 0.237,2.611l0.203,0c0.068,-0.565 0.181,-1.401 0.34,-2.509c0.18,-1.108 0.373,-2.295 0.576,-3.561c0.203,-1.289 0.418,-2.566 0.644,-3.832c0.249,-1.266 0.475,-2.34 0.679,-3.222l3.968,-16.787l10.14,0l-10.344,37.915l-11.259,-0Z" style="fill-rule:nonzero;"/><path id="path12553" d="M202.903,881.682c-1.831,0 -3.357,0.644 -4.578,1.933c-1.198,1.289 -1.888,3.312 -2.068,6.071l13.192,-0c-0.023,-1.153 -0.17,-2.216 -0.441,-3.188c-0.272,-0.972 -0.678,-1.809 -1.221,-2.51c-0.543,-0.723 -1.221,-1.289 -2.035,-1.695c-0.814,-0.408 -1.763,-0.611 -2.849,-0.611l0,0Zm1.323,31.946c-2.713,0 -5.211,-0.395 -7.495,-1.187c-2.283,-0.791 -4.25,-1.978 -5.901,-3.561c-1.65,-1.605 -2.939,-3.617 -3.866,-6.036c-0.904,-2.442 -1.356,-5.302 -1.356,-8.58c-0,-3.324 0.418,-6.229 1.255,-8.716c0.836,-2.487 2,-4.555 3.493,-6.206c1.514,-1.673 3.323,-2.928 5.426,-3.764c2.125,-0.837 4.476,-1.255 7.054,-1.255c2.509,-0 4.77,0.384 6.782,1.153c2.035,0.746 3.753,1.854 5.155,3.323c1.424,1.47 2.51,3.278 3.256,5.426c0.768,2.125 1.153,4.567 1.153,7.325l-0,5.02l-23.129,-0c0.045,1.447 0.271,2.758 0.678,3.934c0.43,1.153 1.018,2.136 1.764,2.95c0.768,0.791 1.684,1.402 2.747,1.831c1.085,0.43 2.317,0.645 3.696,0.645c1.153,0 2.239,-0.057 3.256,-0.17c1.04,-0.135 2.046,-0.328 3.018,-0.576c0.972,-0.249 1.933,-0.554 2.883,-0.916c0.949,-0.384 1.922,-0.825 2.916,-1.322l0,8.003c-0.904,0.475 -1.82,0.882 -2.747,1.221c-0.904,0.317 -1.865,0.588 -2.882,0.814c-1.018,0.226 -2.114,0.384 -3.29,0.475c-1.175,0.113 -2.464,0.17 -3.866,0.17l0,-0.001Z" style="fill-rule:nonzero;"/><path id="path12555" d="M247.703,874.323c0.271,-0 0.565,0.012 0.881,0.035c0.34,0 0.656,0.024 0.95,0.071c0.317,0.024 0.599,0.059 0.848,0.106c0.271,0.024 0.475,0.059 0.61,0.107l0,9.699c-0.181,-0.047 -0.429,-0.093 -0.746,-0.136c-0.316,-0.047 -0.656,-0.083 -1.017,-0.106c-0.339,-0.047 -0.679,-0.071 -1.018,-0.071c-0.339,-0.024 -0.621,-0.036 -0.847,-0.036c-1.334,0 -2.567,0.17 -3.697,0.51c-1.108,0.339 -2.069,0.893 -2.883,1.661c-0.791,0.747 -1.413,1.742 -1.865,2.985c-0.429,1.22 -0.644,2.724 -0.644,4.51l-0,19.297l-10.344,-0l0,-37.915l7.834,-0l1.526,5.697l0.509,0c0.543,-0.972 1.13,-1.854 1.763,-2.645c0.633,-0.791 1.334,-1.458 2.103,-2.001c0.791,-0.565 1.673,-0.995 2.645,-1.289c0.995,-0.316 2.125,-0.474 3.392,-0.474l-0,-0.005Z" style="fill-rule:nonzero;"/><path id="path12557" d="M273.409,881.682c-1.831,0 -3.358,0.644 -4.578,1.933c-1.199,1.289 -1.888,3.312 -2.069,6.071l13.192,-0c-0.023,-1.153 -0.17,-2.216 -0.441,-3.188c-0.271,-0.972 -0.678,-1.809 -1.221,-2.51c-0.542,-0.723 -1.221,-1.289 -2.034,-1.695c-0.814,-0.408 -1.764,-0.611 -2.849,-0.611l-0,0Zm1.322,31.946c-2.713,0 -5.211,-0.395 -7.494,-1.187c-2.284,-0.791 -4.251,-1.978 -5.901,-3.561c-1.651,-1.605 -2.939,-3.617 -3.866,-6.036c-0.905,-2.442 -1.357,-5.302 -1.357,-8.58c0,-3.324 0.418,-6.229 1.255,-8.716c0.836,-2.487 2.001,-4.555 3.493,-6.206c1.515,-1.673 3.323,-2.928 5.426,-3.764c2.125,-0.837 4.477,-1.255 7.054,-1.255c2.51,-0 4.77,0.384 6.783,1.153c2.034,0.746 3.753,1.854 5.154,3.323c1.425,1.47 2.51,3.278 3.256,5.426c0.769,2.125 1.153,4.567 1.153,7.325l0,5.02l-23.129,-0c0.045,1.447 0.271,2.758 0.679,3.934c0.429,1.153 1.017,2.136 1.763,2.95c0.769,0.791 1.685,1.402 2.747,1.831c1.085,0.43 2.318,0.645 3.697,0.645c1.153,0 2.238,-0.057 3.255,-0.17c1.04,-0.135 2.046,-0.328 3.019,-0.576c0.972,-0.249 1.933,-0.554 2.882,-0.916c0.95,-0.384 1.922,-0.825 2.917,-1.322l-0,8.003c-0.905,0.475 -1.82,0.882 -2.747,1.221c-0.905,0.317 -1.865,0.588 -2.883,0.814c-1.017,0.226 -2.114,0.384 -3.289,0.475c-1.176,0.113 -2.465,0.17 -3.867,0.17l0,-0.001Z" style="fill-rule:nonzero;"/><path id="path12559" d="M309.594,913.628c-1.944,0 -3.719,-0.418 -5.324,-1.255c-1.605,-0.836 -2.985,-2.068 -4.138,-3.696c-1.153,-1.651 -2.057,-3.697 -2.713,-6.138c-0.633,-2.442 -0.949,-5.268 -0.949,-8.479c-0,-3.255 0.316,-6.104 0.949,-8.546c0.656,-2.464 1.572,-4.521 2.747,-6.172c1.199,-1.673 2.623,-2.928 4.273,-3.764c1.651,-0.837 3.471,-1.255 5.46,-1.255c1.221,-0 2.34,0.147 3.358,0.44c1.017,0.272 1.933,0.668 2.747,1.187c0.814,0.498 1.537,1.086 2.17,1.764c0.656,0.656 1.232,1.379 1.73,2.17l0.339,0c-0.136,-0.881 -0.26,-1.774 -0.373,-2.679c-0.113,-0.768 -0.215,-1.582 -0.305,-2.442c-0.068,-0.881 -0.102,-1.695 -0.102,-2.441l0,-12.141l10.344,-0l-0,52.769l-7.902,-0l-2.001,-4.918l-0.441,0c-0.475,0.769 -1.018,1.504 -1.628,2.205c-0.61,0.678 -1.323,1.265 -2.136,1.763c-0.792,0.498 -1.696,0.893 -2.714,1.187c-0.994,0.294 -2.125,0.441 -3.391,0.441l0,0Zm3.765,-8.241c1.22,0 2.26,-0.203 3.12,-0.61c0.859,-0.43 1.548,-1.063 2.068,-1.899c0.543,-0.859 0.939,-1.922 1.187,-3.188c0.272,-1.266 0.419,-2.747 0.441,-4.443l0,-1.12c0,-1.831 -0.113,-3.459 -0.339,-4.883c-0.226,-1.424 -0.599,-2.611 -1.119,-3.561c-0.52,-0.972 -1.221,-1.707 -2.103,-2.204c-0.881,-0.498 -1.989,-0.747 -3.323,-0.747c-2.171,0 -3.765,0.984 -4.782,2.951c-1.017,1.944 -1.526,4.781 -1.526,8.512c0,3.73 0.509,6.534 1.526,8.41c1.04,1.854 2.657,2.781 4.85,2.781l-0,0.001Z" style="fill-rule:nonzero;"/><path id="path12561" d="M378.913,874.323c1.944,-0 3.719,0.418 5.324,1.255c1.605,0.836 2.984,2.08 4.137,3.73c1.153,1.651 2.046,3.697 2.68,6.138c0.655,2.442 0.983,5.268 0.983,8.479c0,3.255 -0.328,6.115 -0.983,8.58c-0.634,2.441 -1.538,4.488 -2.714,6.138c-1.175,1.65 -2.588,2.894 -4.239,3.73c-1.65,0.837 -3.47,1.255 -5.46,1.255c-1.266,0 -2.396,-0.136 -3.391,-0.407c-0.972,-0.272 -1.843,-0.634 -2.611,-1.086c-0.769,-0.452 -1.447,-0.96 -2.035,-1.526c-0.565,-0.588 -1.085,-1.198 -1.56,-1.831l-0.712,-0l-1.73,4.171l-7.902,0l0,-52.769l10.344,0l-0,12.277c-0,0.746 -0.023,1.56 -0.067,2.442c-0.045,0.859 -0.091,1.661 -0.136,2.408c-0.068,0.881 -0.136,1.763 -0.204,2.645l0.407,-0c0.475,-0.792 1.018,-1.526 1.628,-2.205c0.611,-0.678 1.311,-1.265 2.103,-1.763c0.814,-0.52 1.729,-0.927 2.747,-1.221c1.017,-0.294 2.148,-0.441 3.391,-0.441l-0,0.001Zm-3.493,8.275c-1.153,-0 -2.137,0.215 -2.951,0.645c-0.791,0.407 -1.436,1.028 -1.933,1.865c-0.497,0.836 -0.859,1.899 -1.085,3.188c-0.226,1.266 -0.362,2.747 -0.407,4.442l-0,1.12c-0,1.831 0.102,3.459 0.305,4.883c0.226,1.425 0.588,2.623 1.085,3.595c0.498,0.95 1.153,1.673 1.967,2.171c0.837,0.497 1.865,0.746 3.086,0.746c2.058,0 3.561,-0.972 4.511,-2.916c0.972,-1.967 1.458,-4.816 1.458,-8.547c0,-3.73 -0.486,-6.522 -1.458,-8.376c-0.95,-1.877 -2.476,-2.815 -4.578,-2.815l-0,-0.001Z" style="fill-rule:nonzero;"/><path id="path12563" d="M395.496,875.035l11.327,0l6.104,21.331c0.362,1.176 0.622,2.431 0.78,3.765c0.181,1.334 0.294,2.532 0.339,3.595l0.203,-0c0.047,-0.52 0.104,-1.097 0.17,-1.73c0.091,-0.633 0.192,-1.277 0.305,-1.933c0.113,-0.656 0.238,-1.3 0.373,-1.933c0.158,-0.656 0.317,-1.244 0.475,-1.764l5.969,-21.331l11.395,0l-14.99,42.765c-1.402,4.001 -3.312,6.974 -5.731,8.919c-2.42,1.944 -5.449,2.916 -9.089,2.916c-1.176,0 -2.193,-0.068 -3.052,-0.203c-0.859,-0.113 -1.594,-0.238 -2.205,-0.373l0,-8.207c0.475,0.113 1.074,0.215 1.798,0.305c0.723,0.09 1.481,0.135 2.272,0.135c1.085,0 2.012,-0.146 2.781,-0.44c0.768,-0.294 1.424,-0.712 1.967,-1.255c0.565,-0.52 1.04,-1.153 1.424,-1.899c0.407,-0.747 0.758,-1.583 1.051,-2.51l0.645,-1.899l-14.311,-38.254Z" style="fill-rule:nonzero;"/></g></g><g id="Clear-Linux-OS1" serif:id="Clear Linux OS"><g id="Logo"><path id="path43745" d="M472.954,667.146l-67.467,-402.177l-109.525,-11.391l176.992,413.568Z" style="fill:url(#_Linear2);fill-rule:nonzero;"/><path id="path43747" d="M401.106,202.758l267.241,92.002l-247.965,-146.326l-19.276,54.324Z" style="fill:url(#_Linear3);fill-rule:nonzero;"/><path id="path43749" d="M295.085,253.578l106.021,-51.696l19.276,-53.448l-125.297,105.144Z" style="fill:url(#_Linear4);fill-rule:nonzero;"/><path id="path43751" d="M295.085,253.578l183.127,19.277l-77.106,-70.973l-106.021,51.696Z" style="fill:url(#_Linear5);fill-rule:nonzero;"/><path id="path43753" d="M478.212,272.855l190.135,21.028l-267.241,-91.125l77.106,70.097Z" style="fill:#0070c5;fill-rule:nonzero;"/><path id="path43755" d="M240.761,721.47l232.193,-54.324l-177.869,-413.568l-54.324,467.892Z" style="fill:url(#_Linear6);fill-rule:nonzero;"/><path id="path43757" d="M472.954,667.146l40.306,92.877l-272.499,-38.553l232.193,-54.324Z" style="fill:url(#_Linear7);fill-rule:nonzero;"/><path id="path43759" d="M472.954,667.146l-44.686,-105.145l-187.507,159.469l232.193,-54.324Z" style="fill:url(#_Linear8);fill-rule:nonzero;"/><path id="path43761" d="M513.26,760.023l-76.23,50.82l-196.269,-89.373l272.499,38.553Z" style="fill:url(#_Linear9);fill-rule:nonzero;"/><path id="path43763" d="M478.212,272.855l118.287,301.413l-83.239,186.631l-40.306,-92.877l-68.343,-402.177l73.601,7.01Z" style="fill:none;fill-rule:nonzero;"/></g><g id="Clear-Linux-OS2" serif:id="Clear Linux OS"><path id="path116199" d="M97.757,1184.34c-7.289,0 -13.822,-1.778 -19.6,-5.333c-5.689,-3.645 -10.222,-8.845 -13.6,-15.6c-3.289,-6.756 -4.933,-14.889 -4.933,-24.4c-0,-9.422 1.689,-17.511 5.067,-24.267c3.377,-6.755 8,-11.955 13.866,-15.6c5.867,-3.644 12.489,-5.467 19.867,-5.467c5.333,0 10.044,1.112 14.133,3.334c4.089,2.133 7.378,4.622 9.867,7.466l-6,7.2c-2.311,-2.488 -4.933,-4.488 -7.867,-6c-2.933,-1.511 -6.266,-2.266 -10,-2.266c-5.511,-0 -10.355,1.466 -14.533,4.4c-4.089,2.844 -7.289,6.889 -9.6,12.133c-2.222,5.245 -3.333,11.511 -3.333,18.8c-0,7.289 1.111,13.645 3.333,19.067c2.222,5.333 5.333,9.466 9.333,12.4c4.089,2.933 8.889,4.4 14.4,4.4c4.178,-0 7.911,-0.889 11.2,-2.667c3.289,-1.778 6.311,-4.178 9.067,-7.2l6.133,6.933c-3.466,4 -7.378,7.112 -11.733,9.334c-4.356,2.222 -9.378,3.333 -15.067,3.333Z" style="fill:#fefefe;fill-rule:nonzero;stroke:#fff;stroke-width:4.91px;"/><path id="path116201" d="M151.357,1184.34c-4.089,0 -7.067,-1.244 -8.933,-3.733c-1.778,-2.578 -2.667,-6.222 -2.667,-10.934l0,-81.866l10.933,-0l0,82.666c0,1.689 0.312,2.934 0.934,3.734c0.622,0.711 1.333,1.066 2.133,1.066l0.933,0c0.356,-0.088 0.845,-0.177 1.467,-0.266l1.467,8.267c-0.711,0.355 -1.556,0.622 -2.534,0.8c-0.977,0.177 -2.222,0.266 -3.733,0.266l0,0Z" style="fill:#fefefe;fill-rule:nonzero;stroke:#fff;stroke-width:4.91px;"/><path id="path116203" d="M200.024,1184.34c-5.778,0 -11.023,-1.333 -15.734,-4c-4.711,-2.755 -8.444,-6.667 -11.2,-11.733c-2.755,-5.067 -4.133,-11.111 -4.133,-18.134c0,-7.111 1.378,-13.2 4.133,-18.266c2.845,-5.067 6.489,-8.978 10.934,-11.734c4.444,-2.755 9.111,-4.133 14,-4.133c8.266,0 14.622,2.756 19.066,8.267c4.534,5.511 6.8,12.889 6.8,22.133c0,1.156 -0.044,2.311 -0.133,3.467c0,1.066 -0.089,2 -0.267,2.8l-43.733,-0c0.444,6.844 2.578,12.311 6.4,16.4c3.911,4.089 8.978,6.133 15.2,6.133c3.111,0 5.956,-0.444 8.533,-1.333c2.667,-0.978 5.2,-2.222 7.6,-3.734l3.867,7.2c-2.755,1.778 -5.911,3.334 -9.467,4.667c-3.466,1.333 -7.422,2 -11.866,2Zm-20.4,-39.2l34.666,0c0,-6.578 -1.422,-11.555 -4.266,-14.933c-2.756,-3.467 -6.667,-5.2 -11.734,-5.2c-4.533,-0 -8.622,1.778 -12.266,5.333c-3.556,3.467 -5.689,8.4 -6.4,14.8Z" style="fill:#fefefe;fill-rule:nonzero;stroke:#fff;stroke-width:4.91px;"/><path id="path116205" d="M252.957,1184.34c-5.422,0 -9.955,-1.6 -13.6,-4.8c-3.555,-3.289 -5.333,-7.822 -5.333,-13.6c-0,-7.111 3.155,-12.533 9.466,-16.267c6.4,-3.822 16.489,-6.488 30.267,-8c0,-2.755 -0.4,-5.377 -1.2,-7.866c-0.711,-2.489 -2.044,-4.489 -4,-6c-1.867,-1.6 -4.578,-2.4 -8.133,-2.4c-3.734,-0 -7.245,0.711 -10.534,2.133c-3.288,1.422 -6.222,3.022 -8.8,4.8l-4.266,-7.6c3.022,-1.955 6.711,-3.822 11.066,-5.6c4.445,-1.867 9.245,-2.8 14.4,-2.8c7.912,0 13.645,2.445 17.2,7.333c3.556,4.8 5.334,11.245 5.334,19.334l-0,39.733l-9.067,0l-0.933,-7.733l-0.4,-0c-3.022,2.489 -6.356,4.666 -10,6.533c-3.556,1.867 -7.378,2.8 -11.467,2.8Zm3.2,-8.8c3.111,0 6.045,-0.755 8.8,-2.267c2.756,-1.511 5.689,-3.644 8.8,-6.4l0,-18c-10.755,1.334 -18.311,3.334 -22.667,6c-4.266,2.667 -6.4,6.089 -6.4,10.267c0,3.645 1.112,6.311 3.334,8c2.222,1.6 4.933,2.4 8.133,2.4Z" style="fill:#fefefe;fill-rule:nonzero;stroke:#fff;stroke-width:4.91px;"/><path id="path116207" d="M305.224,1182.74l-0,-64.8l9.066,0l0.934,11.733l0.4,0c2.222,-4.088 4.933,-7.333 8.133,-9.733c3.2,-2.4 6.622,-3.6 10.267,-3.6c2.578,0 4.889,0.445 6.933,1.333l-2.133,9.6c-1.067,-0.355 -2.045,-0.622 -2.933,-0.8c-0.889,-0.177 -2.001,-0.266 -3.334,-0.266c-2.755,-0 -5.644,1.111 -8.667,3.333c-2.933,2.222 -5.511,6.089 -7.733,11.6l0,41.6l-10.933,0Z" style="fill:#fefefe;fill-rule:nonzero;stroke:#fff;stroke-width:4.91px;"/><path id="path116209" d="M379.224,1182.74l-0,-87.467l11.067,0l-0,78l38.266,0l0,9.467l-49.333,0Z" style="fill:#fefefe;fill-rule:nonzero;stroke:#fff;stroke-width:4.91px;"/><path id="path116211" d="M442.957,1182.74l0,-64.8l10.934,0l-0,64.8l-10.934,0Zm5.6,-78.133c-2.133,-0 -3.911,-0.622 -5.333,-1.867c-1.333,-1.333 -2,-3.111 -2,-5.333c0,-2.134 0.667,-3.867 2,-5.2c1.422,-1.334 3.2,-2 5.333,-2c2.134,-0 3.867,0.666 5.2,2c1.423,1.333 2.134,3.066 2.134,5.2c-0,2.222 -0.711,4 -2.134,5.333c-1.333,1.245 -3.066,1.867 -5.2,1.867Z" style="fill:#fefefe;fill-rule:nonzero;stroke:#fff;stroke-width:4.91px;"/><path id="path116213" d="M475.757,1182.74l0,-64.8l9.067,0l0.933,9.333l0.4,0c3.112,-3.111 6.4,-5.688 9.867,-7.733c3.467,-2.133 7.422,-3.2 11.867,-3.2c6.844,0 11.822,2.178 14.933,6.533c3.2,4.267 4.8,10.534 4.8,18.8l0,41.067l-10.933,0l-0,-39.6c-0,-6.044 -0.978,-10.444 -2.934,-13.2c-1.955,-2.755 -5.066,-4.133 -9.333,-4.133c-3.289,-0 -6.267,0.844 -8.933,2.533c-2.578,1.689 -5.511,4.178 -8.8,7.467l-0,46.933l-10.934,0Z" style="fill:#fefefe;fill-rule:nonzero;stroke:#fff;stroke-width:4.91px;"/><path id="path116215" d="M567.624,1184.34c-6.844,0 -11.866,-2.133 -15.066,-6.4c-3.2,-4.355 -4.8,-10.667 -4.8,-18.933l-0,-41.067l11.066,0l0,39.6c0,6.045 0.934,10.445 2.8,13.2c1.956,2.756 5.067,4.133 9.334,4.133c3.377,0 6.355,-0.844 8.933,-2.533c2.667,-1.778 5.511,-4.578 8.533,-8.4l0,-46l10.934,0l-0,64.8l-9.067,0l-0.933,-10.133l-0.4,-0c-3.023,3.555 -6.223,6.4 -9.6,8.533c-3.378,2.133 -7.289,3.2 -11.734,3.2Z" style="fill:#fefefe;fill-rule:nonzero;stroke:#fff;stroke-width:4.91px;"/><path id="path116217" d="M612.158,1182.74l21.2,-33.867l-19.6,-30.933l11.866,0l8.667,14.267c0.978,1.689 2,3.466 3.067,5.333c1.066,1.867 2.177,3.689 3.333,5.467l0.533,-0c0.978,-1.778 1.956,-3.6 2.934,-5.467c0.978,-1.867 1.955,-3.644 2.933,-5.333l7.867,-14.267l11.466,0l-19.6,32.133l21.067,32.667l-11.867,0l-9.466,-15.067c-1.156,-1.955 -2.311,-3.911 -3.467,-5.866c-1.156,-1.956 -2.356,-3.867 -3.6,-5.734l-0.533,0c-1.156,1.867 -2.267,3.778 -3.334,5.734c-1.066,1.866 -2.133,3.822 -3.2,5.866l-8.8,15.067l-11.466,0Z" style="fill:#fefefe;fill-rule:nonzero;stroke:#fff;stroke-width:4.91px;"/><path id="path116219" d="M740.691,1184.34c-7.289,0 -13.778,-1.867 -19.467,-5.6c-5.6,-3.733 -10,-9.022 -13.2,-15.867c-3.111,-6.844 -4.666,-14.933 -4.666,-24.266c-0,-9.334 1.555,-17.334 4.666,-24c3.2,-6.756 7.6,-11.911 13.2,-15.467c5.689,-3.644 12.178,-5.467 19.467,-5.467c7.378,0 13.867,1.823 19.467,5.467c5.6,3.556 10,8.711 13.2,15.467c3.2,6.666 4.8,14.666 4.8,24c-0,9.333 -1.6,17.422 -4.8,24.266c-3.2,6.845 -7.6,12.134 -13.2,15.867c-5.6,3.733 -12.089,5.6 -19.467,5.6Zm0,-9.733c5.245,-0 9.778,-1.467 13.6,-4.4c3.911,-3.022 6.933,-7.2 9.067,-12.534c2.133,-5.422 3.2,-11.777 3.2,-19.066c-0,-10.845 -2.356,-19.422 -7.067,-25.734c-4.711,-6.311 -10.978,-9.466 -18.8,-9.466c-7.822,-0 -14.089,3.155 -18.8,9.466c-4.711,6.312 -7.067,14.889 -7.067,25.734c0,7.289 1.067,13.644 3.2,19.066c2.134,5.334 5.156,9.512 9.067,12.534c3.911,2.933 8.445,4.4 13.6,4.4Z" style="fill:#fefefe;fill-rule:nonzero;stroke:#fff;stroke-width:4.91px;"/><path id="path116221" d="M821.224,1184.34c-6.133,0 -11.822,-1.155 -17.066,-3.467c-5.245,-2.4 -9.778,-5.555 -13.6,-9.466l6.666,-7.734c3.112,3.289 6.756,5.956 10.934,8c4.266,1.956 8.666,2.934 13.2,2.934c5.778,-0 10.266,-1.289 13.466,-3.867c3.2,-2.667 4.8,-6.133 4.8,-10.4c0,-3.022 -0.666,-5.422 -2,-7.2c-1.244,-1.778 -2.977,-3.289 -5.2,-4.533c-2.133,-1.245 -4.577,-2.489 -7.333,-3.734l-12.533,-5.466c-2.756,-1.156 -5.511,-2.667 -8.267,-4.534c-2.667,-1.866 -4.933,-4.266 -6.8,-7.2c-1.778,-2.933 -2.667,-6.533 -2.667,-10.8c0,-4.444 1.156,-8.4 3.467,-11.866c2.4,-3.556 5.689,-6.311 9.867,-8.267c4.178,-2.044 8.889,-3.067 14.133,-3.067c5.245,0 10.089,1.023 14.533,3.067c4.445,1.956 8.223,4.533 11.334,7.733l-6,7.2c-2.667,-2.577 -5.645,-4.577 -8.934,-6c-3.2,-1.511 -6.844,-2.266 -10.933,-2.266c-4.889,-0 -8.844,1.155 -11.867,3.466c-2.933,2.312 -4.4,5.423 -4.4,9.334c0,2.755 0.712,5.066 2.134,6.933c1.511,1.778 3.378,3.245 5.6,4.4c2.222,1.156 4.489,2.222 6.8,3.2l12.4,5.333c3.378,1.423 6.4,3.156 9.066,5.2c2.756,1.956 4.934,4.4 6.534,7.334c1.6,2.844 2.4,6.444 2.4,10.8c-0,4.622 -1.2,8.844 -3.6,12.666c-2.4,3.734 -5.822,6.712 -10.267,8.934c-4.444,2.222 -9.733,3.333 -15.867,3.333Z" style="fill:#fefefe;fill-rule:nonzero;stroke:#fff;stroke-width:4.91px;"/></g></g></g><defs><linearGradient id="_Linear2" x1="0" y1="0" x2="1" y2="0" gradientUnits="userSpaceOnUse" gradientTransform="matrix(1039.85,-1039.85,1039.85,1039.85,1945.8,3274.38)"><stop offset="0" style="stop-color:#249eff;stop-opacity:1"/><stop offset="1" style="stop-color:#2777ff;stop-opacity:1"/></linearGradient><linearGradient id="_Linear3" x1="0" y1="0" x2="1" y2="0" gradientUnits="userSpaceOnUse" gradientTransform="matrix(269.917,99.2632,-99.2632,269.917,412.012,177.58)"><stop offset="0" style="stop-color:#33bef2;stop-opacity:1"/><stop offset="0.75" style="stop-color:#88e1b8;stop-opacity:1"/><stop offset="1" style="stop-color:#88e1b8;stop-opacity:1"/></linearGradient><linearGradient id="_Linear4" x1="0" y1="0" x2="1" y2="0" gradientUnits="userSpaceOnUse" gradientTransform="matrix(448.876,315.17,-315.17,448.876,2.35761e+06,77518.6)"><stop offset="0" style="stop-color:#7dd2f7;stop-opacity:1"/><stop offset="1" style="stop-color:#b1e4fa;stop-opacity:1"/></linearGradient><linearGradient id="_Linear5" x1="0" y1="0" x2="1" y2="0" gradientUnits="userSpaceOnUse" gradientTransform="matrix(151.853,107.036,-107.036,151.853,320.138,203.012)"><stop offset="0" style="stop-color:#33bef2;stop-opacity:1"/><stop offset="0.85" style="stop-color:#88e1b8;stop-opacity:1"/><stop offset="1" style="stop-color:#88e1b8;stop-opacity:1"/></linearGradient><linearGradient id="_Linear6" x1="0" y1="0" x2="1" y2="0" gradientUnits="userSpaceOnUse" gradientTransform="matrix(-86.0066,257.342,-257.342,-86.0066,380.923,453.684)"><stop offset="0" style="stop-color:#00aeff;stop-opacity:1"/><stop offset="1" style="stop-color:#88e1b8;stop-opacity:1"/></linearGradient><linearGradient id="_Linear7" x1="0" y1="0" x2="1" y2="0" gradientUnits="userSpaceOnUse" gradientTransform="matrix(4.1063e-15,67.0609,-67.0609,4.1063e-15,377.185,682.307)"><stop offset="0" style="stop-color:#d1d3d5;stop-opacity:1"/><stop offset="1" style="stop-color:#f6f7f8;stop-opacity:1"/></linearGradient><linearGradient id="_Linear8" x1="0" y1="0" x2="1" y2="0" gradientUnits="userSpaceOnUse" gradientTransform="matrix(204.562,-127.295,127.295,204.562,243.782,739.93)"><stop offset="0" style="stop-color:#f6f7f8;stop-opacity:0.4"/><stop offset="1" style="stop-color:#f0f2f4;stop-opacity:0"/></linearGradient><linearGradient id="_Linear9" x1="0" y1="0" x2="1" y2="0" gradientUnits="userSpaceOnUse" gradientTransform="matrix(3.01721e-14,492.748,-492.748,3.01721e-14,1.15087e+07,52300.9)"><stop offset="0" style="stop-color:#d1d3d5;stop-opacity:1"/><stop offset="1" style="stop-color:#f6f7f8;stop-opacity:1"/></linearGradient></defs></svg>