<?xml version="1.0" encoding="UTF-8" standalone="no"?><!DOCTYPE svg PUBLIC "-//W3C//DTD SVG 1.1//EN" "http://www.w3.org/Graphics/SVG/1.1/DTD/svg11.dtd"><svg width="100%" height="100%" viewBox="0 0 907 1352" version="1.1" xmlns="http://www.w3.org/2000/svg" xmlns:xlink="http://www.w3.org/1999/xlink" xml:space="preserve" xmlns:serif="http://www.serif.com/" style="fill-rule:evenodd;clip-rule:evenodd;"><rect id="Crystal-Linux" serif:id="Crystal Linux" x="0" y="0" width="906.667" height="1351.11" style="fill:none;"/><clipPath id="_clip1"><rect x="0" y="0" width="906.667" height="1351.11"/></clipPath><g clip-path="url(#_clip1)"><g><g id="Frame"><path id="path36023" d="M363.226,8.892l180.223,-0c196.3,-0 354.331,36.928 354.331,82.799l0,1167.73c0,45.871 -158.031,82.8 -354.331,82.8l-180.223,-0c-196.299,-0 -354.331,-36.929 -354.331,-82.8l0,-1167.73c0,-45.871 158.032,-82.799 354.331,-82.799Z" style="fill:#fff;fill-rule:nonzero;"/><path id="path36025" d="M363.234,0c-98.707,0 -187.781,9.234 -252.806,24.429c-32.512,7.598 -58.999,16.618 -78.086,27.198c-9.544,5.29 -17.286,10.978 -22.976,17.509c-5.69,6.53 -9.366,14.275 -9.366,22.561l0,1167.72c0,8.285 3.676,16.03 9.366,22.56c5.69,6.531 13.432,12.219 22.976,17.509c19.087,10.581 45.574,19.6 78.086,27.198c65.025,15.195 154.099,24.429 252.806,24.429l180.209,0c98.707,0 187.781,-9.234 252.806,-24.429c32.512,-7.598 58.999,-16.617 78.086,-27.198c9.544,-5.29 17.286,-10.978 22.976,-17.509c5.69,-6.53 9.366,-14.275 9.366,-22.56l-0,-1167.72c-0,-8.286 -3.676,-16.031 -9.366,-22.561c-5.69,-6.531 -13.432,-12.219 -22.976,-17.509c-19.087,-10.58 -45.574,-19.6 -78.086,-27.198c-65.025,-15.195 -154.099,-24.429 -252.806,-24.429l-180.209,0Zm-0,17.786l180.209,-0c97.593,-0 185.703,9.231 248.769,23.968c31.533,7.368 56.818,16.176 73.496,25.421c8.339,4.622 14.481,9.365 18.201,13.633c3.719,4.269 4.982,7.706 4.982,10.889l0,1167.72c0,3.182 -1.263,6.619 -4.982,10.888c-3.72,4.269 -9.862,9.011 -18.201,13.633c-16.678,9.245 -41.963,18.053 -73.496,25.421c-63.066,14.738 -151.176,23.969 -248.769,23.969l-180.209,-0c-97.593,-0 -185.703,-9.231 -248.769,-23.969c-31.533,-7.368 -56.818,-16.176 -73.496,-25.421c-8.339,-4.622 -14.481,-9.364 -18.201,-13.633c-3.719,-4.269 -4.982,-7.706 -4.982,-10.888l-0,-1167.72c-0,-3.183 1.263,-6.62 4.982,-10.889c3.72,-4.268 9.862,-9.011 18.201,-13.633c16.678,-9.245 41.963,-18.053 73.496,-25.421c63.066,-14.737 151.176,-23.968 248.769,-23.968Z" style="fill-rule:nonzero;"/></g><g id="Bottom"><path id="path35979" d="M371.606,946.173l163.464,0c199.608,0 360.304,38.151 360.304,85.54l-0,218.99c-0,47.389 -160.696,85.54 -360.304,85.54l-163.464,-0c-199.609,-0 -360.304,-38.151 -360.304,-85.54l-0,-218.99c-0,-47.389 160.695,-85.54 360.304,-85.54Z" style="fill-rule:nonzero;"/><path id="path35981" d="M371.607,938.419c-100.298,0 -190.804,9.547 -256.796,25.214c-32.996,7.833 -59.838,17.123 -79.078,27.958c-19.241,10.836 -32.18,23.883 -32.18,40.116l-0,218.988c-0,16.233 12.939,29.303 32.18,40.139c19.24,10.835 46.082,20.125 79.078,27.958c65.992,15.667 156.498,25.214 256.796,25.214l163.463,0c100.298,0 190.804,-9.547 256.796,-25.214c32.996,-7.833 59.838,-17.123 79.078,-27.958c19.241,-10.836 32.18,-23.906 32.18,-40.139l0,-218.988c0,-16.233 -12.939,-29.28 -32.18,-40.116c-19.24,-10.835 -46.082,-20.125 -79.078,-27.958c-65.992,-15.667 -156.498,-25.214 -256.796,-25.214l-163.463,0Zm0,15.525l163.463,-0c99.309,-0 188.962,9.52 253.22,24.775c32.129,7.628 57.914,16.745 75.042,26.39c17.127,9.646 24.291,19.137 24.291,26.598l-0,218.988c-0,7.461 -7.164,16.952 -24.291,26.598c-17.128,9.645 -42.913,18.762 -75.042,26.39c-64.258,15.255 -153.911,24.798 -253.22,24.798l-163.463,0c-99.309,0 -188.962,-9.543 -253.22,-24.798c-32.129,-7.628 -57.914,-16.745 -75.042,-26.39c-17.127,-9.646 -24.291,-19.137 -24.291,-26.598l0,-218.988c0,-7.461 7.164,-16.952 24.291,-26.598c17.128,-9.645 42.913,-18.762 75.042,-26.39c64.258,-15.255 153.911,-24.775 253.22,-24.775Z" style="fill-rule:nonzero;"/></g><g id="Powered-By" serif:id="Powered By"><path id="path12547" d="M59.756,886.701l2.069,0c2.962,0 5.189,-0.588 6.681,-1.763c1.515,-1.176 2.272,-3.086 2.272,-5.732c-0,-2.464 -0.678,-4.284 -2.035,-5.46c-1.334,-1.175 -3.436,-1.763 -6.308,-1.763l-2.679,-0l0,14.718Zm21.671,-7.868c-0,2.171 -0.328,4.251 -0.984,6.24c-0.656,1.99 -1.741,3.742 -3.256,5.257c-1.492,1.515 -3.47,2.724 -5.934,3.629c-2.442,0.904 -5.472,1.356 -9.089,1.356l-2.408,0l0,17.635l-10.513,-0l0,-49.581l13.769,-0c3.188,-0 5.935,0.362 8.241,1.085c2.328,0.701 4.239,1.719 5.731,3.053c1.515,1.311 2.634,2.927 3.357,4.849c0.724,1.899 1.086,4.058 1.086,6.478l-0,-0.001Z" style="fill-rule:nonzero;"/><path id="path12549" d="M98.587,893.925c-0,3.775 0.531,6.624 1.594,8.546c1.062,1.899 2.792,2.848 5.188,2.848c2.374,0 4.093,-0.96 5.155,-2.882c1.063,-1.922 1.594,-4.759 1.594,-8.512c0,-3.776 -0.531,-6.591 -1.594,-8.445c-1.062,-1.876 -2.803,-2.814 -5.223,-2.814c-2.373,-0 -4.092,0.938 -5.154,2.814c-1.04,1.854 -1.56,4.669 -1.56,8.445Zm24.078,-0c0,3.165 -0.407,5.968 -1.221,8.41c-0.791,2.442 -1.944,4.499 -3.459,6.172c-1.492,1.673 -3.323,2.951 -5.494,3.833c-2.148,0.859 -4.567,1.288 -7.257,1.288c-2.51,0 -4.816,-0.429 -6.919,-1.288c-2.102,-0.882 -3.922,-2.16 -5.46,-3.833c-1.514,-1.673 -2.701,-3.73 -3.56,-6.172c-0.86,-2.442 -1.289,-5.245 -1.289,-8.41c-0,-3.143 0.395,-5.935 1.187,-8.377c0.814,-2.442 1.967,-4.488 3.459,-6.138c1.515,-1.673 3.346,-2.939 5.494,-3.798c2.148,-0.86 4.578,-1.289 7.291,-1.289c2.51,-0 4.816,0.429 6.918,1.289c2.103,0.859 3.912,2.125 5.427,3.798c1.537,1.65 2.735,3.696 3.594,6.138c0.859,2.442 1.289,5.234 1.289,8.377Z" style="fill-rule:nonzero;"/><path id="path12551" d="M160.546,912.95l-2.917,-13.26c-0.09,-0.384 -0.214,-0.927 -0.373,-1.628c-0.135,-0.724 -0.293,-1.526 -0.474,-2.408c-0.181,-0.904 -0.373,-1.854 -0.577,-2.848c-0.181,-1.018 -0.373,-2.024 -0.576,-3.019c-0.453,-2.328 -0.95,-4.838 -1.492,-7.528l-0.204,-0c-0.52,2.69 -0.995,5.211 -1.424,7.562c-0.181,0.995 -0.373,2.001 -0.577,3.019c-0.181,1.017 -0.362,1.978 -0.542,2.882c-0.181,0.882 -0.351,1.684 -0.509,2.408c-0.136,0.723 -0.249,1.289 -0.339,1.696l-3.052,13.124l-11.124,-0l-10.208,-37.915l10.276,0l3.832,16.787c0.203,0.882 0.407,1.944 0.61,3.188c0.226,1.221 0.43,2.464 0.611,3.73c0.203,1.244 0.384,2.431 0.542,3.561c0.159,1.108 0.283,1.99 0.373,2.645l0.204,0c0.023,-0.429 0.068,-0.983 0.136,-1.661c0.09,-0.701 0.192,-1.447 0.305,-2.239c0.113,-0.791 0.226,-1.593 0.339,-2.407c0.135,-0.837 0.26,-1.617 0.373,-2.34c0.136,-0.724 0.249,-1.357 0.339,-1.9c0.113,-0.565 0.204,-0.961 0.271,-1.187l4.138,-18.177l11.395,0l3.967,18.177c0.113,0.498 0.26,1.267 0.441,2.307c0.181,1.04 0.362,2.159 0.543,3.357c0.203,1.176 0.373,2.329 0.509,3.459c0.135,1.108 0.214,1.978 0.237,2.611l0.203,0c0.068,-0.565 0.181,-1.401 0.34,-2.509c0.18,-1.108 0.373,-2.295 0.576,-3.561c0.203,-1.289 0.418,-2.566 0.644,-3.832c0.249,-1.266 0.475,-2.34 0.679,-3.222l3.968,-16.787l10.14,0l-10.344,37.915l-11.259,-0Z" style="fill-rule:nonzero;"/><path id="path12553" d="M202.903,881.682c-1.831,0 -3.357,0.644 -4.578,1.933c-1.198,1.289 -1.888,3.312 -2.068,6.071l13.192,-0c-0.023,-1.153 -0.17,-2.216 -0.441,-3.188c-0.272,-0.972 -0.678,-1.809 -1.221,-2.51c-0.543,-0.723 -1.221,-1.289 -2.035,-1.695c-0.814,-0.408 -1.763,-0.611 -2.849,-0.611l0,0Zm1.323,31.946c-2.713,0 -5.211,-0.395 -7.495,-1.187c-2.283,-0.791 -4.25,-1.978 -5.901,-3.561c-1.65,-1.605 -2.939,-3.617 -3.866,-6.036c-0.904,-2.442 -1.356,-5.302 -1.356,-8.58c-0,-3.324 0.418,-6.229 1.255,-8.716c0.836,-2.487 2,-4.555 3.493,-6.206c1.514,-1.673 3.323,-2.928 5.426,-3.764c2.125,-0.837 4.476,-1.255 7.054,-1.255c2.509,-0 4.77,0.384 6.782,1.153c2.035,0.746 3.753,1.854 5.155,3.323c1.424,1.47 2.51,3.278 3.256,5.426c0.768,2.125 1.153,4.567 1.153,7.325l-0,5.02l-23.129,-0c0.045,1.447 0.271,2.758 0.678,3.934c0.43,1.153 1.018,2.136 1.764,2.95c0.768,0.791 1.684,1.402 2.747,1.831c1.085,0.43 2.317,0.645 3.696,0.645c1.153,0 2.239,-0.057 3.256,-0.17c1.04,-0.135 2.046,-0.328 3.018,-0.576c0.972,-0.249 1.933,-0.554 2.883,-0.916c0.949,-0.384 1.922,-0.825 2.916,-1.322l0,8.003c-0.904,0.475 -1.82,0.882 -2.747,1.221c-0.904,0.317 -1.865,0.588 -2.882,0.814c-1.018,0.226 -2.114,0.384 -3.29,0.475c-1.175,0.113 -2.464,0.17 -3.866,0.17l0,-0.001Z" style="fill-rule:nonzero;"/><path id="path12555" d="M247.703,874.323c0.271,-0 0.565,0.012 0.881,0.035c0.34,0 0.656,0.024 0.95,0.071c0.317,0.024 0.599,0.059 0.848,0.106c0.271,0.024 0.475,0.059 0.61,0.107l0,9.699c-0.181,-0.047 -0.429,-0.093 -0.746,-0.136c-0.316,-0.047 -0.656,-0.083 -1.017,-0.106c-0.339,-0.047 -0.679,-0.071 -1.018,-0.071c-0.339,-0.024 -0.621,-0.036 -0.847,-0.036c-1.334,0 -2.567,0.17 -3.697,0.51c-1.108,0.339 -2.069,0.893 -2.883,1.661c-0.791,0.747 -1.413,1.742 -1.865,2.985c-0.429,1.22 -0.644,2.724 -0.644,4.51l-0,19.297l-10.344,-0l0,-37.915l7.834,-0l1.526,5.697l0.509,0c0.543,-0.972 1.13,-1.854 1.763,-2.645c0.633,-0.791 1.334,-1.458 2.103,-2.001c0.791,-0.565 1.673,-0.995 2.645,-1.289c0.995,-0.316 2.125,-0.474 3.392,-0.474l-0,-0.005Z" style="fill-rule:nonzero;"/><path id="path12557" d="M273.409,881.682c-1.831,0 -3.358,0.644 -4.578,1.933c-1.199,1.289 -1.888,3.312 -2.069,6.071l13.192,-0c-0.023,-1.153 -0.17,-2.216 -0.441,-3.188c-0.271,-0.972 -0.678,-1.809 -1.221,-2.51c-0.542,-0.723 -1.221,-1.289 -2.034,-1.695c-0.814,-0.408 -1.764,-0.611 -2.849,-0.611l-0,0Zm1.322,31.946c-2.713,0 -5.211,-0.395 -7.494,-1.187c-2.284,-0.791 -4.251,-1.978 -5.901,-3.561c-1.651,-1.605 -2.939,-3.617 -3.866,-6.036c-0.905,-2.442 -1.357,-5.302 -1.357,-8.58c0,-3.324 0.418,-6.229 1.255,-8.716c0.836,-2.487 2.001,-4.555 3.493,-6.206c1.515,-1.673 3.323,-2.928 5.426,-3.764c2.125,-0.837 4.477,-1.255 7.054,-1.255c2.51,-0 4.77,0.384 6.783,1.153c2.034,0.746 3.753,1.854 5.154,3.323c1.425,1.47 2.51,3.278 3.256,5.426c0.769,2.125 1.153,4.567 1.153,7.325l0,5.02l-23.129,-0c0.045,1.447 0.271,2.758 0.679,3.934c0.429,1.153 1.017,2.136 1.763,2.95c0.769,0.791 1.685,1.402 2.747,1.831c1.085,0.43 2.318,0.645 3.697,0.645c1.153,0 2.238,-0.057 3.255,-0.17c1.04,-0.135 2.046,-0.328 3.019,-0.576c0.972,-0.249 1.933,-0.554 2.882,-0.916c0.95,-0.384 1.922,-0.825 2.917,-1.322l-0,8.003c-0.905,0.475 -1.82,0.882 -2.747,1.221c-0.905,0.317 -1.865,0.588 -2.883,0.814c-1.017,0.226 -2.114,0.384 -3.289,0.475c-1.176,0.113 -2.465,0.17 -3.867,0.17l0,-0.001Z" style="fill-rule:nonzero;"/><path id="path12559" d="M309.594,913.628c-1.944,0 -3.719,-0.418 -5.324,-1.255c-1.605,-0.836 -2.985,-2.068 -4.138,-3.696c-1.153,-1.651 -2.057,-3.697 -2.713,-6.138c-0.633,-2.442 -0.949,-5.268 -0.949,-8.479c-0,-3.255 0.316,-6.104 0.949,-8.546c0.656,-2.464 1.572,-4.521 2.747,-6.172c1.199,-1.673 2.623,-2.928 4.273,-3.764c1.651,-0.837 3.471,-1.255 5.46,-1.255c1.221,-0 2.34,0.147 3.358,0.44c1.017,0.272 1.933,0.668 2.747,1.187c0.814,0.498 1.537,1.086 2.17,1.764c0.656,0.656 1.232,1.379 1.73,2.17l0.339,0c-0.136,-0.881 -0.26,-1.774 -0.373,-2.679c-0.113,-0.768 -0.215,-1.582 -0.305,-2.442c-0.068,-0.881 -0.102,-1.695 -0.102,-2.441l0,-12.141l10.344,-0l-0,52.769l-7.902,-0l-2.001,-4.918l-0.441,0c-0.475,0.769 -1.018,1.504 -1.628,2.205c-0.61,0.678 -1.323,1.265 -2.136,1.763c-0.792,0.498 -1.696,0.893 -2.714,1.187c-0.994,0.294 -2.125,0.441 -3.391,0.441l0,0Zm3.765,-8.241c1.22,0 2.26,-0.203 3.12,-0.61c0.859,-0.43 1.548,-1.063 2.068,-1.899c0.543,-0.859 0.939,-1.922 1.187,-3.188c0.272,-1.266 0.419,-2.747 0.441,-4.443l0,-1.12c0,-1.831 -0.113,-3.459 -0.339,-4.883c-0.226,-1.424 -0.599,-2.611 -1.119,-3.561c-0.52,-0.972 -1.221,-1.707 -2.103,-2.204c-0.881,-0.498 -1.989,-0.747 -3.323,-0.747c-2.171,0 -3.765,0.984 -4.782,2.951c-1.017,1.944 -1.526,4.781 -1.526,8.512c0,3.73 0.509,6.534 1.526,8.41c1.04,1.854 2.657,2.781 4.85,2.781l-0,0.001Z" style="fill-rule:nonzero;"/><path id="path12561" d="M378.913,874.323c1.944,-0 3.719,0.418 5.324,1.255c1.605,0.836 2.984,2.08 4.137,3.73c1.153,1.651 2.046,3.697 2.68,6.138c0.655,2.442 0.983,5.268 0.983,8.479c0,3.255 -0.328,6.115 -0.983,8.58c-0.634,2.441 -1.538,4.488 -2.714,6.138c-1.175,1.65 -2.588,2.894 -4.239,3.73c-1.65,0.837 -3.47,1.255 -5.46,1.255c-1.266,0 -2.396,-0.136 -3.391,-0.407c-0.972,-0.272 -1.843,-0.634 -2.611,-1.086c-0.769,-0.452 -1.447,-0.96 -2.035,-1.526c-0.565,-0.588 -1.085,-1.198 -1.56,-1.831l-0.712,-0l-1.73,4.171l-7.902,0l0,-52.769l10.344,0l-0,12.277c-0,0.746 -0.023,1.56 -0.067,2.442c-0.045,0.859 -0.091,1.661 -0.136,2.408c-0.068,0.881 -0.136,1.763 -0.204,2.645l0.407,-0c0.475,-0.792 1.018,-1.526 1.628,-2.205c0.611,-0.678 1.311,-1.265 2.103,-1.763c0.814,-0.52 1.729,-0.927 2.747,-1.221c1.017,-0.294 2.148,-0.441 3.391,-0.441l-0,0.001Zm-3.493,8.275c-1.153,-0 -2.137,0.215 -2.951,0.645c-0.791,0.407 -1.436,1.028 -1.933,1.865c-0.497,0.836 -0.859,1.899 -1.085,3.188c-0.226,1.266 -0.362,2.747 -0.407,4.442l-0,1.12c-0,1.831 0.102,3.459 0.305,4.883c0.226,1.425 0.588,2.623 1.085,3.595c0.498,0.95 1.153,1.673 1.967,2.171c0.837,0.497 1.865,0.746 3.086,0.746c2.058,0 3.561,-0.972 4.511,-2.916c0.972,-1.967 1.458,-4.816 1.458,-8.547c0,-3.73 -0.486,-6.522 -1.458,-8.376c-0.95,-1.877 -2.476,-2.815 -4.578,-2.815l-0,-0.001Z" style="fill-rule:nonzero;"/><path id="path12563" d="M395.496,875.035l11.327,0l6.104,21.331c0.362,1.176 0.622,2.431 0.78,3.765c0.181,1.334 0.294,2.532 0.339,3.595l0.203,-0c0.047,-0.52 0.104,-1.097 0.17,-1.73c0.091,-0.633 0.192,-1.277 0.305,-1.933c0.113,-0.656 0.238,-1.3 0.373,-1.933c0.158,-0.656 0.317,-1.244 0.475,-1.764l5.969,-21.331l11.395,0l-14.99,42.765c-1.402,4.001 -3.312,6.974 -5.731,8.919c-2.42,1.944 -5.449,2.916 -9.089,2.916c-1.176,0 -2.193,-0.068 -3.052,-0.203c-0.859,-0.113 -1.594,-0.238 -2.205,-0.373l0,-8.207c0.475,0.113 1.074,0.215 1.798,0.305c0.723,0.09 1.481,0.135 2.272,0.135c1.085,0 2.012,-0.146 2.781,-0.44c0.768,-0.294 1.424,-0.712 1.967,-1.255c0.565,-0.52 1.04,-1.153 1.424,-1.899c0.407,-0.747 0.758,-1.583 1.051,-2.51l0.645,-1.899l-14.311,-38.254Z" style="fill-rule:nonzero;"/></g></g><g id="Crystal-Linux1" serif:id="Crystal Linux"><path id="Crystal-Linux2" serif:id="Crystal Linux" d="M104.306,1084.29c-5.066,-0 -9.644,0.888 -13.733,2.666c-4.089,1.689 -7.556,4.222 -10.4,7.6c-2.845,3.289 -5.022,7.334 -6.533,12.134c-1.512,4.711 -2.267,10.044 -2.267,16c-0,7.822 1.2,14.622 3.6,20.4c2.489,5.777 6.133,10.222 10.933,13.333c4.889,3.111 10.978,4.667 18.267,4.667c4.178,-0 8.133,-0.356 11.867,-1.067c3.733,-0.711 7.377,-1.6 10.933,-2.667l-0,10.4c-3.556,1.334 -7.244,2.311 -11.067,2.934c-3.733,0.622 -8.222,0.933 -13.466,0.933c-9.689,-0 -17.778,-2 -24.267,-6c-6.489,-4 -11.378,-9.689 -14.667,-17.067c-3.2,-7.377 -4.8,-16.044 -4.8,-26c0,-7.2 0.978,-13.778 2.934,-19.733c2.044,-5.956 4.977,-11.111 8.8,-15.467c3.911,-4.355 8.711,-7.689 14.4,-10c5.689,-2.4 12.222,-3.6 19.6,-3.6c4.889,0 9.6,0.489 14.133,1.467c4.533,0.978 8.578,2.355 12.133,4.133l-4.8,10.134c-2.933,-1.334 -6.222,-2.534 -9.866,-3.6c-3.556,-1.067 -7.467,-1.6 -11.734,-1.6Zm75.2,13.2c1.334,-0 2.756,0.088 4.267,0.266c1.6,0.089 2.978,0.267 4.133,0.533l-1.466,10.8c-1.156,-0.266 -2.445,-0.488 -3.867,-0.666c-1.333,-0.178 -2.622,-0.267 -3.867,-0.267c-2.755,0 -5.377,0.578 -7.866,1.734c-2.489,1.155 -4.711,2.8 -6.667,4.933c-1.956,2.044 -3.511,4.533 -4.667,7.467c-1.066,2.933 -1.6,6.222 -1.6,9.866l0,38.134l-11.733,-0l-0,-71.467l9.6,-0l1.333,13.067l0.534,-0c1.511,-2.667 3.333,-5.067 5.466,-7.2c2.134,-2.223 4.578,-3.956 7.334,-5.2c2.755,-1.334 5.777,-2 9.066,-2l0,-0Zm10.534,1.333l12.533,-0l15.467,40.667c0.889,2.4 1.689,4.711 2.4,6.933c0.8,2.222 1.511,4.4 2.133,6.533c0.622,2.045 1.111,4.045 1.467,6l0.533,0c0.533,-2.222 1.378,-5.111 2.533,-8.666c1.156,-3.645 2.356,-7.289 3.6,-10.934l14.534,-40.533l12.666,-0l-30.8,81.333c-1.688,4.445 -3.688,8.311 -6,11.6c-2.222,3.378 -4.977,5.956 -8.266,7.734c-3.2,1.866 -7.111,2.8 -11.734,2.8c-2.133,-0 -4,-0.134 -5.6,-0.4c-1.6,-0.178 -2.977,-0.4 -4.133,-0.667l0,-9.333c0.978,0.177 2.133,0.355 3.467,0.533c1.422,0.178 2.889,0.267 4.4,0.267c2.755,-0 5.111,-0.534 7.066,-1.6c2.045,-0.978 3.778,-2.445 5.2,-4.4c1.423,-1.867 2.623,-4.089 3.6,-6.667l3.734,-9.467l-28.8,-71.733Zm125.733,51.733c0,4.623 -1.155,8.489 -3.467,11.6c-2.311,3.111 -5.599,5.467 -9.866,7.067c-4.267,1.6 -9.334,2.4 -15.2,2.4c-4.978,-0 -9.289,-0.4 -12.934,-1.2c-3.555,-0.8 -6.711,-1.911 -9.466,-3.333l-0,-10.667c2.844,1.422 6.266,2.756 10.266,4c4.089,1.156 8.223,1.733 12.4,1.733c5.956,0 10.267,-0.933 12.934,-2.8c2.667,-1.955 4,-4.533 4,-7.733c-0,-1.778 -0.489,-3.378 -1.467,-4.8c-0.978,-1.422 -2.755,-2.844 -5.333,-4.267c-2.489,-1.422 -6.089,-3.022 -10.8,-4.8c-4.622,-1.777 -8.578,-3.555 -11.867,-5.333c-3.289,-1.778 -5.822,-3.911 -7.6,-6.4c-1.778,-2.489 -2.667,-5.689 -2.667,-9.6c0,-6.045 2.445,-10.711 7.334,-14c4.978,-3.289 11.466,-4.933 19.466,-4.933c4.356,-0 8.4,0.444 12.134,1.333c3.822,0.8 7.378,1.955 10.666,3.467l-4,9.333c-3.022,-1.245 -6.177,-2.311 -9.466,-3.2c-3.289,-0.889 -6.667,-1.333 -10.134,-1.333c-4.8,-0 -8.488,0.8 -11.066,2.4c-2.489,1.511 -3.734,3.6 -3.734,6.266c0,1.956 0.578,3.645 1.734,5.067c1.155,1.333 3.066,2.667 5.733,4c2.756,1.244 6.4,2.755 10.933,4.533c4.534,1.689 8.4,3.423 11.6,5.2c3.2,1.778 5.645,3.956 7.334,6.534c1.689,2.489 2.533,5.644 2.533,9.466Zm41.2,11.467c1.778,-0 3.6,-0.133 5.467,-0.4c1.867,-0.356 3.378,-0.711 4.533,-1.067l0,8.934c-1.244,0.622 -3.022,1.111 -5.333,1.466c-2.311,0.445 -4.533,0.667 -6.667,0.667c-3.733,-0 -7.2,-0.622 -10.4,-1.867c-3.111,-1.333 -5.644,-3.6 -7.6,-6.8c-1.955,-3.2 -2.933,-7.689 -2.933,-13.466l-0,-41.6l-10.133,-0l-0,-5.6l10.266,-4.667l4.667,-15.2l6.933,-0l0,16.4l20.667,-0l-0,9.067l-20.667,-0l0,41.333c0,4.356 1.022,7.6 3.067,9.733c2.133,2.045 4.844,3.067 8.133,3.067Zm51.334,-64.4c8.711,-0 15.155,1.911 19.333,5.733c4.178,3.822 6.267,9.911 6.267,18.267l-0,48.667l-8.534,-0l-2.266,-10.134l-0.534,0c-2.044,2.578 -4.177,4.756 -6.4,6.534c-2.133,1.689 -4.622,2.933 -7.466,3.733c-2.756,0.8 -6.134,1.2 -10.134,1.2c-4.266,-0 -8.133,-0.756 -11.6,-2.267c-3.378,-1.511 -6.044,-3.822 -8,-6.933c-1.955,-3.2 -2.933,-7.2 -2.933,-12c-0,-7.111 2.8,-12.578 8.4,-16.4c5.6,-3.911 14.222,-6.045 25.867,-6.4l12.133,-0.4l-0,-4.267c-0,-5.955 -1.289,-10.089 -3.867,-12.4c-2.578,-2.311 -6.222,-3.466 -10.933,-3.466c-3.733,-0 -7.289,0.577 -10.667,1.733c-3.378,1.067 -6.533,2.311 -9.466,3.733l-3.6,-8.8c3.111,-1.689 6.8,-3.111 11.066,-4.266c4.267,-1.245 8.711,-1.867 13.334,-1.867Zm3.466,38.133c-8.889,0.356 -15.066,1.778 -18.533,4.267c-3.378,2.489 -5.067,6 -5.067,10.533c0,4 1.2,6.934 3.6,8.8c2.489,1.867 5.645,2.8 9.467,2.8c6.044,0 11.067,-1.644 15.067,-4.933c4,-3.378 6,-8.533 6,-15.467l-0,-6.4l-10.534,0.4Zm56,34.534l-11.733,-0l0,-101.334l11.733,0l0,101.334Zm58.934,-0l-0,-95.2l12,-0l-0,84.533l41.6,-0l-0,10.667l-53.6,-0Zm80,-71.467l-0,71.467l-11.734,-0l0,-71.467l11.734,-0Zm-5.734,-26.8c1.778,-0 3.334,0.622 4.667,1.867c1.422,1.155 2.133,3.022 2.133,5.6c0,2.488 -0.711,4.355 -2.133,5.6c-1.333,1.244 -2.889,1.866 -4.667,1.866c-1.955,0 -3.6,-0.622 -4.933,-1.866c-1.333,-1.245 -2,-3.112 -2,-5.6c0,-2.578 0.667,-4.445 2,-5.6c1.333,-1.245 2.978,-1.867 4.933,-1.867Zm62.8,25.467c8.534,-0 14.978,2.088 19.334,6.266c4.355,4.089 6.533,10.756 6.533,20l0,46.534l-11.6,-0l0,-45.734c0,-5.778 -1.289,-10.089 -3.867,-12.933c-2.577,-2.845 -6.622,-4.267 -12.133,-4.267c-7.911,0 -13.378,2.222 -16.4,6.667c-3.022,4.444 -4.533,10.844 -4.533,19.2l-0,37.067l-11.734,-0l0,-71.467l9.467,-0l1.733,9.733l0.667,0c1.6,-2.489 3.556,-4.533 5.867,-6.133c2.4,-1.689 5.022,-2.933 7.866,-3.733c2.845,-0.8 5.778,-1.2 8.8,-1.2Zm107.734,1.333l-0,71.467l-9.6,-0l-1.733,-9.467l-0.534,-0c-1.511,2.489 -3.466,4.533 -5.866,6.133c-2.4,1.6 -5.023,2.756 -7.867,3.467c-2.845,0.8 -5.822,1.2 -8.933,1.2c-5.689,-0 -10.489,-0.889 -14.4,-2.667c-3.823,-1.866 -6.712,-4.711 -8.667,-8.533c-1.956,-3.822 -2.934,-8.756 -2.934,-14.8l0,-46.8l11.867,-0l0,46c0,5.689 1.289,9.956 3.867,12.8c2.578,2.844 6.578,4.267 12,4.267c5.333,-0 9.511,-0.978 12.533,-2.934c3.111,-2.044 5.289,-4.977 6.534,-8.8c1.333,-3.911 2,-8.622 2,-14.133l-0,-37.2l11.733,-0Zm39.6,34.933l-24.667,-34.933l13.334,-0l18.4,26.933l18.266,-26.933l13.2,-0l-24.666,34.933l26,36.534l-13.334,-0l-19.466,-28.534l-19.734,28.534l-13.2,-0l25.867,-36.534Z" style="fill:#fefefe;fill-rule:nonzero;stroke:#fff;stroke-width:4.91px;"/><g id="Logo"><path id="path1-6" d="M358.344,809.491l329.805,-329.69l-142.313,-141.986l-45.501,45.397l96.488,96.589l-330.127,329.69l91.648,0Z" style="fill:#8839ef;fill-rule:nonzero;"/><path id="path2-2" d="M550.677,150.111l-329.805,329.69l141.667,141.341l0.646,0l45.179,-45.074l-96.167,-96.267l329.16,-329.69l-90.68,-0Z" style="fill:#8839ef;fill-rule:nonzero;"/></g></g></g></svg>