<?xml version="1.0" encoding="UTF-8" standalone="no"?><!DOCTYPE svg PUBLIC "-//W3C//DTD SVG 1.1//EN" "http://www.w3.org/Graphics/SVG/1.1/DTD/svg11.dtd"><svg width="100%" height="100%" viewBox="0 0 907 1352" version="1.1" xmlns="http://www.w3.org/2000/svg" xmlns:xlink="http://www.w3.org/1999/xlink" xml:space="preserve" xmlns:serif="http://www.serif.com/" style="fill-rule:evenodd;clip-rule:evenodd;stroke-linejoin:round;stroke-miterlimit:2;"><rect id="Debian" x="0" y="0" width="906.667" height="1351.11" style="fill:none;"/><clipPath id="_clip1"><rect x="0" y="0" width="906.667" height="1351.11"/></clipPath><g clip-path="url(#_clip1)"><g><g id="Frame"><path id="path36023" d="M363.216,8.892l180.223,-0c196.299,-0 354.331,36.928 354.331,82.799l0,1167.73c0,45.871 -158.032,82.8 -354.331,82.8l-180.223,-0c-196.3,-0 -354.331,-36.929 -354.331,-82.8l-0,-1167.73c-0,-45.871 158.031,-82.799 354.331,-82.799Z" style="fill:#fff;fill-rule:nonzero;"/><path id="path36025" d="M363.223,0c-98.707,0 -187.78,9.234 -252.805,24.429c-32.513,7.598 -58.999,16.618 -78.087,27.198c-9.543,5.29 -17.286,10.978 -22.976,17.509c-5.69,6.53 -9.365,14.275 -9.365,22.561l-0,1167.72c-0,8.285 3.675,16.03 9.365,22.56c5.69,6.531 13.433,12.219 22.976,17.509c19.088,10.581 45.574,19.6 78.087,27.198c65.025,15.195 154.098,24.429 252.805,24.429l180.21,0c98.707,0 187.781,-9.234 252.806,-24.429c32.512,-7.598 58.999,-16.617 78.086,-27.198c9.544,-5.29 17.286,-10.978 22.976,-17.509c5.69,-6.53 9.366,-14.275 9.366,-22.56l-0,-1167.72c-0,-8.286 -3.676,-16.031 -9.366,-22.561c-5.69,-6.531 -13.432,-12.219 -22.976,-17.509c-19.087,-10.58 -45.574,-19.6 -78.086,-27.198c-65.025,-15.195 -154.099,-24.429 -252.806,-24.429l-180.21,0Zm0,17.786l180.21,-0c97.592,-0 185.703,9.231 248.769,23.968c31.532,7.368 56.817,16.176 73.495,25.421c8.339,4.622 14.482,9.365 18.201,13.633c3.719,4.269 4.983,7.706 4.983,10.889l-0,1167.72c-0,3.182 -1.264,6.619 -4.983,10.888c-3.719,4.269 -9.862,9.011 -18.201,13.633c-16.678,9.245 -41.963,18.053 -73.495,25.421c-63.066,14.738 -151.177,23.969 -248.769,23.969l-180.21,-0c-97.592,-0 -185.703,-9.231 -248.768,-23.969c-31.533,-7.368 -56.818,-16.176 -73.496,-25.421c-8.339,-4.622 -14.482,-9.364 -18.201,-13.633c-3.719,-4.269 -4.983,-7.706 -4.983,-10.888l0,-1167.72c0,-3.183 1.264,-6.62 4.983,-10.889c3.719,-4.268 9.862,-9.011 18.201,-13.633c16.678,-9.245 41.963,-18.053 73.496,-25.421c63.065,-14.737 151.176,-23.968 248.768,-23.968Z" style="fill-rule:nonzero;"/></g><g id="Bottom"><path id="path35979" d="M371.596,946.173l163.463,0c199.609,0 360.304,38.151 360.304,85.54l0,218.99c0,47.389 -160.695,85.54 -360.304,85.54l-163.463,-0c-199.609,-0 -360.304,-38.151 -360.304,-85.54l-0,-218.99c-0,-47.389 160.695,-85.54 360.304,-85.54Z" style="fill-rule:nonzero;"/><path id="path35981" d="M371.597,938.419c-100.298,0 -190.805,9.547 -256.796,25.214c-32.996,7.833 -59.838,17.123 -79.079,27.958c-19.24,10.836 -32.18,23.883 -32.18,40.116l0,218.988c0,16.233 12.94,29.303 32.18,40.139c19.241,10.835 46.083,20.125 79.079,27.958c65.991,15.667 156.498,25.214 256.796,25.214l163.462,0c100.299,0 190.805,-9.547 256.797,-25.214c32.996,-7.833 59.837,-17.123 79.078,-27.958c19.24,-10.836 32.18,-23.906 32.18,-40.139l0,-218.988c0,-16.233 -12.94,-29.28 -32.18,-40.116c-19.241,-10.835 -46.082,-20.125 -79.078,-27.958c-65.992,-15.667 -156.498,-25.214 -256.797,-25.214l-163.462,0Zm0,15.525l163.462,-0c99.31,-0 188.963,9.52 253.221,24.775c32.129,7.628 57.914,16.745 75.041,26.39c17.128,9.646 24.291,19.137 24.291,26.598l0,218.988c0,7.461 -7.163,16.952 -24.291,26.598c-17.127,9.645 -42.912,18.762 -75.041,26.39c-64.258,15.255 -153.911,24.798 -253.221,24.798l-163.462,0c-99.31,0 -188.963,-9.543 -253.221,-24.798c-32.129,-7.628 -57.913,-16.745 -75.041,-26.39c-17.127,-9.646 -24.291,-19.137 -24.291,-26.598l0,-218.988c0,-7.461 7.164,-16.952 24.291,-26.598c17.128,-9.645 42.912,-18.762 75.041,-26.39c64.258,-15.255 153.911,-24.775 253.221,-24.775Z" style="fill-rule:nonzero;"/></g><g id="Powered-By" serif:id="Powered By"><path id="path12547" d="M59.746,886.701l2.069,0c2.961,0 5.188,-0.588 6.68,-1.763c1.515,-1.176 2.273,-3.086 2.273,-5.732c-0,-2.464 -0.679,-4.284 -2.035,-5.46c-1.334,-1.175 -3.437,-1.763 -6.308,-1.763l-2.679,-0l-0,14.718Zm21.67,-7.868c0,2.171 -0.328,4.251 -0.983,6.24c-0.656,1.99 -1.741,3.742 -3.256,5.257c-1.492,1.515 -3.47,2.724 -5.935,3.629c-2.441,0.904 -5.471,1.356 -9.088,1.356l-2.408,0l-0,17.635l-10.513,-0l-0,-49.581l13.768,-0c3.188,-0 5.935,0.362 8.241,1.085c2.329,0.701 4.239,1.719 5.732,3.053c1.514,1.311 2.634,2.927 3.357,4.849c0.724,1.899 1.085,4.058 1.085,6.478l0,-0.001Z" style="fill-rule:nonzero;"/><path id="path12549" d="M98.576,893.925c0,3.775 0.532,6.624 1.594,8.546c1.063,1.899 2.792,2.848 5.189,2.848c2.374,0 4.092,-0.96 5.155,-2.882c1.062,-1.922 1.594,-4.759 1.594,-8.512c-0,-3.776 -0.532,-6.591 -1.594,-8.445c-1.063,-1.876 -2.804,-2.814 -5.223,-2.814c-2.374,-0 -4.092,0.938 -5.155,2.814c-1.04,1.854 -1.56,4.669 -1.56,8.445Zm24.079,-0c-0,3.165 -0.407,5.968 -1.221,8.41c-0.792,2.442 -1.945,4.499 -3.459,6.172c-1.493,1.673 -3.324,2.951 -5.494,3.833c-2.148,0.859 -4.567,1.288 -7.258,1.288c-2.509,0 -4.815,-0.429 -6.918,-1.288c-2.103,-0.882 -3.923,-2.16 -5.46,-3.833c-1.515,-1.673 -2.702,-3.73 -3.561,-6.172c-0.859,-2.442 -1.289,-5.245 -1.289,-8.41c0,-3.143 0.396,-5.935 1.187,-8.377c0.814,-2.442 1.967,-4.488 3.46,-6.138c1.514,-1.673 3.346,-2.939 5.493,-3.798c2.148,-0.86 4.579,-1.289 7.292,-1.289c2.509,-0 4.815,0.429 6.918,1.289c2.103,0.859 3.911,2.125 5.426,3.798c1.538,1.65 2.736,3.696 3.595,6.138c0.859,2.442 1.289,5.234 1.289,8.377Z" style="fill-rule:nonzero;"/><path id="path12551" d="M160.536,912.95l-2.917,-13.26c-0.09,-0.384 -0.215,-0.927 -0.373,-1.628c-0.136,-0.724 -0.294,-1.526 -0.475,-2.408c-0.181,-0.904 -0.373,-1.854 -0.576,-2.848c-0.181,-1.018 -0.373,-2.024 -0.577,-3.019c-0.452,-2.328 -0.949,-4.838 -1.492,-7.528l-0.203,-0c-0.52,2.69 -0.995,5.211 -1.425,7.562c-0.181,0.995 -0.373,2.001 -0.576,3.019c-0.181,1.017 -0.362,1.978 -0.543,2.882c-0.181,0.882 -0.35,1.684 -0.508,2.408c-0.136,0.723 -0.249,1.289 -0.34,1.696l-3.052,13.124l-11.123,-0l-10.208,-37.915l10.275,0l3.833,16.787c0.203,0.882 0.407,1.944 0.61,3.188c0.226,1.221 0.429,2.464 0.61,3.73c0.204,1.244 0.385,2.431 0.543,3.561c0.158,1.108 0.283,1.99 0.373,2.645l0.203,0c0.023,-0.429 0.069,-0.983 0.136,-1.661c0.091,-0.701 0.192,-1.447 0.305,-2.239c0.113,-0.791 0.226,-1.593 0.339,-2.407c0.136,-0.837 0.26,-1.617 0.374,-2.34c0.135,-0.724 0.248,-1.357 0.339,-1.9c0.113,-0.565 0.203,-0.961 0.271,-1.187l4.137,-18.177l11.395,0l3.968,18.177c0.113,0.498 0.26,1.267 0.441,2.307c0.181,1.04 0.362,2.159 0.542,3.357c0.204,1.176 0.374,2.329 0.509,3.459c0.136,1.108 0.215,1.978 0.238,2.611l0.203,0c0.068,-0.565 0.181,-1.401 0.339,-2.509c0.181,-1.108 0.373,-2.295 0.577,-3.561c0.203,-1.289 0.418,-2.566 0.644,-3.832c0.249,-1.266 0.475,-2.34 0.678,-3.222l3.968,-16.787l10.14,0l-10.343,37.915l-11.259,-0Z" style="fill-rule:nonzero;"/><path id="path12553" d="M202.893,881.682c-1.831,0 -3.357,0.644 -4.578,1.933c-1.198,1.289 -1.888,3.312 -2.069,6.071l13.192,-0c-0.022,-1.153 -0.169,-2.216 -0.441,-3.188c-0.271,-0.972 -0.678,-1.809 -1.22,-2.51c-0.543,-0.723 -1.221,-1.289 -2.035,-1.695c-0.814,-0.408 -1.764,-0.611 -2.849,-0.611l0,0Zm1.323,31.946c-2.713,0 -5.212,-0.395 -7.495,-1.187c-2.284,-0.791 -4.251,-1.978 -5.901,-3.561c-1.65,-1.605 -2.939,-3.617 -3.866,-6.036c-0.904,-2.442 -1.357,-5.302 -1.357,-8.58c0,-3.324 0.419,-6.229 1.255,-8.716c0.837,-2.487 2.001,-4.555 3.493,-6.206c1.515,-1.673 3.324,-2.928 5.426,-3.764c2.126,-0.837 4.477,-1.255 7.054,-1.255c2.51,-0 4.771,0.384 6.783,1.153c2.035,0.746 3.753,1.854 5.155,3.323c1.424,1.47 2.509,3.278 3.255,5.426c0.769,2.125 1.153,4.567 1.153,7.325l0,5.02l-23.128,-0c0.044,1.447 0.271,2.758 0.678,3.934c0.429,1.153 1.017,2.136 1.763,2.95c0.769,0.791 1.685,1.402 2.747,1.831c1.086,0.43 2.318,0.645 3.697,0.645c1.153,0 2.238,-0.057 3.256,-0.17c1.04,-0.135 2.046,-0.328 3.018,-0.576c0.972,-0.249 1.933,-0.554 2.882,-0.916c0.95,-0.384 1.922,-0.825 2.917,-1.322l-0,8.003c-0.904,0.475 -1.82,0.882 -2.747,1.221c-0.904,0.317 -1.865,0.588 -2.883,0.814c-1.017,0.226 -2.114,0.384 -3.289,0.475c-1.176,0.113 -2.465,0.17 -3.866,0.17l-0,-0.001Z" style="fill-rule:nonzero;"/><path id="path12555" d="M247.692,874.323c0.272,-0 0.566,0.012 0.882,0.035c0.339,0 0.656,0.024 0.95,0.071c0.316,0.024 0.599,0.059 0.847,0.106c0.272,0.024 0.475,0.059 0.611,0.107l-0,9.699c-0.181,-0.047 -0.43,-0.093 -0.746,-0.136c-0.317,-0.047 -0.656,-0.083 -1.018,-0.106c-0.339,-0.047 -0.678,-0.071 -1.017,-0.071c-0.339,-0.024 -0.622,-0.036 -0.848,-0.036c-1.334,0 -2.566,0.17 -3.696,0.51c-1.108,0.339 -2.069,0.893 -2.883,1.661c-0.791,0.747 -1.413,1.742 -1.865,2.985c-0.43,1.22 -0.645,2.724 -0.645,4.51l0,19.297l-10.343,-0l-0,-37.915l7.834,-0l1.526,5.697l0.509,0c0.542,-0.972 1.13,-1.854 1.763,-2.645c0.633,-0.791 1.334,-1.458 2.103,-2.001c0.791,-0.565 1.673,-0.995 2.645,-1.289c0.995,-0.316 2.125,-0.474 3.391,-0.474l0,-0.005Z" style="fill-rule:nonzero;"/><path id="path12557" d="M273.399,881.682c-1.832,0 -3.358,0.644 -4.579,1.933c-1.198,1.289 -1.888,3.312 -2.068,6.071l13.192,-0c-0.023,-1.153 -0.17,-2.216 -0.441,-3.188c-0.271,-0.972 -0.678,-1.809 -1.221,-2.51c-0.543,-0.723 -1.221,-1.289 -2.035,-1.695c-0.814,-0.408 -1.763,-0.611 -2.848,-0.611l-0,0Zm1.322,31.946c-2.713,0 -5.211,-0.395 -7.495,-1.187c-2.283,-0.791 -4.25,-1.978 -5.901,-3.561c-1.65,-1.605 -2.939,-3.617 -3.866,-6.036c-0.904,-2.442 -1.356,-5.302 -1.356,-8.58c-0,-3.324 0.418,-6.229 1.255,-8.716c0.836,-2.487 2,-4.555 3.493,-6.206c1.514,-1.673 3.323,-2.928 5.426,-3.764c2.125,-0.837 4.476,-1.255 7.054,-1.255c2.509,-0 4.77,0.384 6.782,1.153c2.035,0.746 3.753,1.854 5.155,3.323c1.424,1.47 2.51,3.278 3.256,5.426c0.768,2.125 1.153,4.567 1.153,7.325l-0,5.02l-23.129,-0c0.045,1.447 0.271,2.758 0.678,3.934c0.43,1.153 1.018,2.136 1.764,2.95c0.769,0.791 1.684,1.402 2.747,1.831c1.085,0.43 2.317,0.645 3.696,0.645c1.153,0 2.239,-0.057 3.256,-0.17c1.04,-0.135 2.046,-0.328 3.018,-0.576c0.972,-0.249 1.933,-0.554 2.883,-0.916c0.949,-0.384 1.922,-0.825 2.916,-1.322l0,8.003c-0.904,0.475 -1.82,0.882 -2.747,1.221c-0.904,0.317 -1.865,0.588 -2.882,0.814c-1.018,0.226 -2.114,0.384 -3.29,0.475c-1.175,0.113 -2.464,0.17 -3.866,0.17l0,-0.001Z" style="fill-rule:nonzero;"/><path id="path12559" d="M309.584,913.628c-1.945,0 -3.719,-0.418 -5.325,-1.255c-1.605,-0.836 -2.984,-2.068 -4.137,-3.696c-1.153,-1.651 -2.057,-3.697 -2.713,-6.138c-0.633,-2.442 -0.95,-5.268 -0.95,-8.479c0,-3.255 0.317,-6.104 0.95,-8.546c0.656,-2.464 1.571,-4.521 2.747,-6.172c1.198,-1.673 2.623,-2.928 4.273,-3.764c1.65,-0.837 3.471,-1.255 5.46,-1.255c1.221,-0 2.34,0.147 3.357,0.44c1.018,0.272 1.934,0.668 2.747,1.187c0.814,0.498 1.538,1.086 2.171,1.764c0.656,0.656 1.232,1.379 1.729,2.17l0.34,0c-0.136,-0.881 -0.26,-1.774 -0.373,-2.679c-0.114,-0.768 -0.215,-1.582 -0.306,-2.442c-0.067,-0.881 -0.101,-1.695 -0.101,-2.441l-0,-12.141l10.343,-0l0,52.769l-7.902,-0l-2.001,-4.918l-0.44,0c-0.475,0.769 -1.018,1.504 -1.628,2.205c-0.611,0.678 -1.323,1.265 -2.137,1.763c-0.791,0.498 -1.695,0.893 -2.713,1.187c-0.995,0.294 -2.125,0.441 -3.391,0.441l-0,0Zm3.764,-8.241c1.221,0 2.261,-0.203 3.12,-0.61c0.859,-0.43 1.549,-1.063 2.069,-1.899c0.543,-0.859 0.938,-1.922 1.187,-3.188c0.271,-1.266 0.418,-2.747 0.441,-4.443l-0,-1.12c-0,-1.831 -0.113,-3.459 -0.339,-4.883c-0.226,-1.424 -0.599,-2.611 -1.119,-3.561c-0.52,-0.972 -1.221,-1.707 -2.103,-2.204c-0.882,-0.498 -1.99,-0.747 -3.324,-0.747c-2.17,0 -3.764,0.984 -4.781,2.951c-1.018,1.944 -1.526,4.781 -1.526,8.512c-0,3.73 0.508,6.534 1.526,8.41c1.04,1.854 2.656,2.781 4.849,2.781l0,0.001Z" style="fill-rule:nonzero;"/><path id="path12561" d="M378.902,874.323c1.945,-0 3.719,0.418 5.325,1.255c1.605,0.836 2.984,2.08 4.137,3.73c1.153,1.651 2.046,3.697 2.679,6.138c0.656,2.442 0.984,5.268 0.984,8.479c-0,3.255 -0.328,6.115 -0.984,8.58c-0.633,2.441 -1.537,4.488 -2.713,6.138c-1.176,1.65 -2.589,2.894 -4.239,3.73c-1.65,0.837 -3.47,1.255 -5.46,1.255c-1.266,0 -2.397,-0.136 -3.391,-0.407c-0.973,-0.272 -1.843,-0.634 -2.612,-1.086c-0.768,-0.452 -1.447,-0.96 -2.034,-1.526c-0.566,-0.588 -1.086,-1.198 -1.56,-1.831l-0.713,-0l-1.729,4.171l-7.902,0l0,-52.769l10.344,0l-0,12.277c-0,0.746 -0.023,1.56 -0.068,2.442c-0.045,0.859 -0.09,1.661 -0.135,2.408c-0.068,0.881 -0.136,1.763 -0.204,2.645l0.407,-0c0.475,-0.792 1.017,-1.526 1.628,-2.205c0.61,-0.678 1.311,-1.265 2.102,-1.763c0.814,-0.52 1.73,-0.927 2.747,-1.221c1.018,-0.294 2.148,-0.441 3.392,-0.441l-0.001,0.001Zm-3.493,8.275c-1.153,-0 -2.136,0.215 -2.95,0.645c-0.792,0.407 -1.436,1.028 -1.933,1.865c-0.498,0.836 -0.859,1.899 -1.085,3.188c-0.227,1.266 -0.362,2.747 -0.407,4.442l-0,1.12c-0,1.831 0.101,3.459 0.305,4.883c0.226,1.425 0.588,2.623 1.085,3.595c0.497,0.95 1.153,1.673 1.967,2.171c0.836,0.497 1.865,0.746 3.086,0.746c2.057,0 3.561,-0.972 4.51,-2.916c0.973,-1.967 1.459,-4.816 1.459,-8.547c-0,-3.73 -0.486,-6.522 -1.459,-8.376c-0.949,-1.877 -2.475,-2.815 -4.578,-2.815l0,-0.001Z" style="fill-rule:nonzero;"/><path id="path12563" d="M395.486,875.035l11.327,0l6.104,21.331c0.362,1.176 0.621,2.431 0.78,3.765c0.181,1.334 0.294,2.532 0.339,3.595l0.203,-0c0.047,-0.52 0.104,-1.097 0.17,-1.73c0.09,-0.633 0.192,-1.277 0.305,-1.933c0.113,-0.656 0.237,-1.3 0.373,-1.933c0.158,-0.656 0.316,-1.244 0.475,-1.764l5.968,-21.331l11.395,0l-14.989,42.765c-1.402,4.001 -3.313,6.974 -5.732,8.919c-2.419,1.944 -5.448,2.916 -9.088,2.916c-1.176,0 -2.193,-0.068 -3.053,-0.203c-0.859,-0.113 -1.594,-0.238 -2.204,-0.373l0,-8.207c0.475,0.113 1.074,0.215 1.797,0.305c0.724,0.09 1.481,0.135 2.273,0.135c1.085,0 2.012,-0.146 2.78,-0.44c0.769,-0.294 1.425,-0.712 1.967,-1.255c0.566,-0.52 1.04,-1.153 1.425,-1.899c0.407,-0.747 0.757,-1.583 1.051,-2.51l0.645,-1.899l-14.311,-38.254Z" style="fill-rule:nonzero;"/></g></g><g id="Debian1" serif:id="Debian"><g id="Logo"><path id="path4651" d="M506.984,501.796c-11.102,0.149 2.088,5.707 16.585,7.944c4.02,-3.136 7.631,-6.287 10.871,-9.363c-9.014,2.207 -18.198,2.259 -27.456,1.419" style="fill:#a80030;fill-rule:nonzero;"/><path id="path4653" d="M566.555,486.943c6.635,-9.133 11.45,-19.119 13.152,-29.448c-1.494,7.356 -5.469,13.71 -9.244,20.427c-20.753,13.07 -1.962,-7.758 -0.015,-15.686c-22.306,28.11 -3.076,16.852 -3.893,24.707" style="fill:#a80030;fill-rule:nonzero;"/><path id="path4655" d="M588.571,429.697c1.353,-19.995 -3.93,-13.664 -5.706,-6.048c2.066,1.085 3.708,14.103 5.706,6.048" style="fill:#a80030;fill-rule:nonzero;"/><path id="path4657" d="M464.867,156.408c5.93,1.055 12.811,1.873 11.822,3.292c6.509,-1.434 7.973,-2.727 -11.822,-3.292" style="fill:#a80030;fill-rule:nonzero;"/><path id="path4659" d="M476.697,159.7l-4.169,0.869l3.886,-0.357l0.283,-0.512" style="fill:#a80030;fill-rule:nonzero;"/><path id="path4661" d="M661.488,437.277c0.669,17.952 -5.239,26.675 -10.581,42.101l-9.608,4.778c-7.854,15.263 0.78,9.69 -4.845,21.824c-12.275,10.9 -37.197,34.099 -45.178,36.224c-5.833,-0.127 3.946,-6.881 5.224,-9.519c-16.414,11.265 -13.174,16.912 -38.282,23.771l-0.729,-1.642c-61.896,29.127 -147.883,-28.586 -146.754,-107.32c-0.653,4.993 -1.88,3.745 -3.247,5.751c-3.195,-40.504 18.71,-81.187 55.655,-97.824c36.135,-17.878 78.497,-10.551 104.363,13.591c-14.207,-18.621 -42.511,-38.364 -76.03,-36.536c-32.851,0.535 -63.591,21.407 -73.845,44.078c-16.823,10.588 -18.785,40.838 -26.111,46.382c-9.875,72.522 18.554,103.842 66.652,140.705c7.55,5.097 2.125,5.878 3.136,9.756c-15.976,-7.475 -30.599,-18.769 -42.637,-32.598c6.391,9.341 13.279,18.421 22.188,25.554c-15.077,-5.09 -35.206,-36.506 -41.069,-37.784c25.97,46.5 105.351,81.55 146.94,64.155c-19.245,0.714 -43.684,0.394 -65.293,-7.594c-9.102,-4.674 -21.429,-14.341 -19.223,-16.146c56.74,21.184 115.338,16.035 164.424,-23.31c12.499,-9.734 26.141,-26.282 30.087,-26.505c-5.937,8.932 1.018,4.295 -3.545,12.179c12.424,-20.07 -5.416,-8.174 12.855,-34.656l6.747,9.288c-2.526,-16.674 20.694,-36.901 18.332,-63.249c5.327,-8.055 5.937,8.679 0.289,27.21c7.84,-20.56 2.073,-23.867 4.08,-40.838c2.162,5.707 5.038,11.763 6.501,17.789c-5.112,-19.877 5.224,-33.46 7.795,-45.015c-2.541,-1.114 -7.884,8.783 -9.117,-14.683c0.186,-10.194 2.846,-5.342 3.864,-7.854c-1.992,-1.151 -7.245,-8.968 -10.433,-23.956c2.296,-3.529 6.182,9.132 9.333,9.645c-2.029,-11.911 -5.514,-20.999 -5.662,-30.146c-9.214,-19.245 -3.262,2.571 -10.722,-8.263c-9.809,-30.569 8.129,-7.096 9.347,-20.976c14.847,21.511 23.31,54.875 27.211,68.688c-2.972,-16.845 -7.765,-33.17 -13.628,-48.96c4.526,1.91 -7.274,-34.649 5.878,-10.44c-14.036,-51.605 -60.024,-99.83 -102.341,-122.448c5.164,4.733 11.695,10.677 9.362,11.614c-21.058,-12.521 -17.358,-13.509 -20.375,-18.8c-17.127,-6.977 -18.271,0.572 -29.603,0.015c-32.323,-17.15 -38.55,-15.329 -68.294,-26.059l1.352,6.331c-21.408,-7.134 -24.945,2.69 -48.076,0.015c-1.404,-1.093 7.416,-3.983 14.683,-5.031c-20.702,2.735 -19.736,-4.087 -39.992,0.751c4.986,-3.5 10.277,-5.826 15.597,-8.798c-16.875,1.025 -40.303,9.823 -33.073,1.813c-27.531,12.29 -76.431,29.536 -103.872,55.269l-0.862,-5.767c-12.573,15.092 -54.831,45.074 -58.197,64.639l-3.366,0.78c-6.531,11.079 -10.774,23.63 -15.961,35.021c-8.552,14.586 -12.542,5.617 -11.324,7.906c-16.83,34.121 -25.204,62.788 -32.419,86.313c5.142,7.691 0.126,46.308 2.065,77.212c-8.441,152.653 107.134,300.856 233.469,335.067c18.517,6.635 46.047,6.397 69.469,7.051c-27.627,-7.906 -31.194,-4.183 -58.122,-13.568c-19.416,-9.154 -23.667,-19.594 -37.428,-31.535l5.446,9.622c-26.973,-9.548 -15.686,-11.814 -37.635,-18.762l5.818,-7.587c-8.746,-0.668 -23.161,-14.727 -27.1,-22.536l-9.57,0.378c-11.488,-14.162 -17.618,-24.394 -17.165,-32.323l-3.091,5.514c-3.5,-6.011 -42.287,-53.188 -22.165,-42.206c-3.738,-3.403 -8.709,-5.55 -14.096,-15.351l4.094,-4.674c-9.667,-12.461 -17.819,-28.43 -17.194,-33.75c5.164,6.97 8.745,8.278 12.297,9.474c-24.454,-60.663 -25.828,-3.336 -44.338,-61.748l3.908,-0.312c-2.994,-4.54 -4.829,-9.437 -7.237,-14.259l1.709,-16.979c-17.595,-20.33 -4.919,-86.529 -2.37,-122.828c1.746,-14.757 14.69,-30.473 24.521,-55.12l-5.989,-1.025c11.458,-19.974 65.404,-80.243 90.4,-77.152c12.105,-15.203 -2.407,-0.059 -4.778,-3.879c26.594,-27.515 34.954,-19.438 52.899,-24.394c19.341,-11.481 -16.608,4.488 -7.438,-4.377c33.459,-8.538 23.703,-19.423 67.343,-23.755c4.607,2.615 -10.678,4.042 -14.512,7.438c27.865,-13.643 88.194,-10.53 127.397,7.564c45.453,21.259 96.553,84.069 98.574,143.165l2.296,0.617c-1.159,23.495 3.597,50.669 -4.659,75.621l5.581,-11.822" style="fill:#a80030;fill-rule:nonzero;"/><path id="path4663" d="M385.784,517.029l-1.568,7.78c7.304,9.92 13.1,20.664 22.41,28.392c-6.702,-13.07 -11.673,-18.472 -20.842,-36.172" style="fill:#a80030;fill-rule:nonzero;"/><path id="path4665" d="M403.03,516.36c-3.864,-4.28 -6.138,-9.422 -8.709,-14.534c2.452,8.998 7.475,16.734 12.134,24.61l-3.425,-10.076" style="fill:#a80030;fill-rule:nonzero;"/><path id="path4667" d="M708.308,450.005l-1.627,4.102c-2.988,21.236 -9.46,42.25 -19.357,61.741c10.938,-20.561 17.989,-43.053 20.984,-65.843" style="fill:#a80030;fill-rule:nonzero;"/><path id="path4669" d="M467.074,151.08c7.498,-2.742 18.443,-1.508 26.423,-3.314c-10.388,0.87 -20.724,1.39 -30.926,2.69l4.503,0.624" style="fill:#a80030;fill-rule:nonzero;"/><path id="path4671" d="M203.504,291.236c1.731,16.005 -12.038,22.225 3.046,11.659c8.1,-18.235 -3.15,-5.031 -3.046,-11.659" style="fill:#a80030;fill-rule:nonzero;"/><path id="path4673" d="M185.76,365.349c3.485,-10.678 4.109,-17.083 5.439,-23.273c-9.608,12.29 -4.429,14.913 -5.439,23.273" style="fill:#a80030;fill-rule:nonzero;"/></g><g id="debian"><path id="path4675" d="M171.249,1135.16c-0.309,0.324 -0.309,51.668 -0.95,65.07c-0.633,10.834 -1.597,34.121 -24.56,34.121c-23.603,0 -29.344,-27.114 -31.258,-38.905c-2.23,-13.079 -2.23,-23.934 -2.23,-28.704c0,-15.316 0.957,-58.069 36.999,-58.069c10.848,-0 16.906,3.2 21.69,5.74l0.309,20.747Zm-92.493,37.646c0,89.94 47.847,89.94 54.861,89.94c19.777,-0 32.539,-10.849 37.956,-29.661l0.64,28.38c6.064,-0.323 12.122,-0.957 22.007,-0.957c3.51,0 6.374,0 8.934,0.324c2.554,-0 5.101,0.31 7.971,0.633c-5.1,-10.201 -8.927,-33.164 -8.927,-82.939c-0,-48.48 -0,-130.449 4.143,-155.333c-11.474,5.432 -21.373,8.942 -43.063,10.849c8.612,9.251 8.612,14.035 8.612,56.128c-6.051,-1.907 -13.712,-4.144 -26.791,-4.144c-57.092,0.007 -66.343,49.767 -66.343,86.78" style="fill:#fff;fill-rule:nonzero;"/><path id="path4677" d="M251.738,1156.52c0.323,-26.474 5.748,-50.078 28.387,-50.078c24.884,0 26.784,27.424 26.151,50.078l-54.538,-0Zm86.112,3.2c0,-37.322 -7.331,-74.011 -54.538,-74.011c-65.062,0 -65.062,72.105 -65.062,87.4c-0,64.746 29.021,90.263 77.824,90.263c21.677,-0 32.215,-3.173 37.956,-4.784c-0.317,-11.482 1.273,-18.82 3.201,-28.704c-6.712,4.157 -15.323,9.575 -34.459,9.575c-49.761,-0 -50.401,-45.307 -50.401,-60.933l84.86,0l0.619,-18.806" style="fill:#fff;fill-rule:nonzero;"/><path id="path4679" d="M441.619,1173.43c-0,29.661 -5.417,69.537 -42.416,69.537c-5.108,0 -11.482,-0.97 -15.626,-1.92c-0.64,-11.482 -0.64,-31.258 -0.64,-54.221c0,-27.438 2.864,-41.769 5.108,-48.804c6.69,-22.64 21.683,-22.95 24.546,-22.95c24.244,0 29.028,33.488 29.028,58.358Zm-91.537,34.769c0,23.61 0,36.999 -3.827,47.2c13.079,5.107 29.337,7.971 48.804,7.971c12.438,-0 48.48,-0 67.933,-39.862c9.251,-18.503 12.438,-43.387 12.438,-62.206c0,-11.482 -1.28,-36.676 -10.524,-52.631c-8.921,-14.979 -23.28,-22.64 -38.582,-22.64c-30.625,-0 -39.553,25.517 -44.33,38.595c0,-16.265 0.31,-73.04 2.857,-102.068c-20.726,9.575 -33.495,11.158 -47.2,12.439c12.438,5.093 12.438,26.164 12.438,94.744l0,78.458" style="fill:#fff;fill-rule:nonzero;"/><path id="path4681" d="M536.749,1261.47c-6.388,-0.957 -10.863,-1.597 -20.114,-1.597c-10.188,0 -17.222,0.647 -24.546,1.597c3.187,-6.064 4.46,-8.941 5.417,-29.661c1.28,-28.394 1.597,-104.312 -0.633,-120.261c-1.597,-12.129 -4.461,-14.035 -8.928,-17.223c26.15,-2.553 33.488,-4.46 45.603,-10.201c-2.54,14.022 -2.878,21.057 -2.878,42.416c-0.626,110.06 -0.949,121.852 6.079,134.93" style="fill:#fff;fill-rule:nonzero;"/><path id="path4683" d="M638.886,1171.19c-0.634,20.1 -0.957,34.136 -6.388,45.294c-6.698,14.359 -17.856,18.502 -26.151,18.502c-19.156,0 -23.286,-15.942 -23.286,-31.567c-0,-29.978 26.797,-32.229 38.905,-32.229l16.92,0Zm-87.723,39.243c-0,20.1 6.064,40.186 23.933,48.804c7.972,3.511 15.943,3.511 18.503,3.511c29.351,-0 39.229,-21.697 45.294,-35.092c-0.324,14.035 -0,22.639 0.956,33.811c5.741,-0.323 11.482,-0.957 21.057,-0.957c5.417,0 10.525,0.634 15.942,0.957c-3.51,-5.417 -5.417,-8.618 -6.388,-21.056c-0.633,-12.115 -0.633,-24.237 -0.633,-41.143l0.323,-65.069c0,-24.251 -6.387,-48.171 -54.235,-48.171c-31.567,-0 -50.063,9.575 -59.314,14.359c3.834,7.021 7.021,13.065 9.884,26.797c12.452,-10.848 28.718,-16.589 45.294,-16.589c26.487,0 26.487,17.546 26.487,42.416c-6.064,-0.31 -11.172,-0.943 -19.79,-0.943c-40.523,0.007 -67.313,15.612 -67.313,58.365" style="fill:#fff;fill-rule:nonzero;"/><path id="path4685" d="M822.606,1229.89c0.323,10.848 0.323,22.33 4.784,31.581c-7.028,-0.633 -11.172,-1.597 -24.237,-1.597c-7.661,0 -11.805,0.647 -17.869,1.597c1.266,-4.144 1.92,-5.741 2.553,-11.172c0.957,-7.324 1.597,-31.891 1.597,-40.509l0,-34.445c0,-14.992 0,-36.689 -0.97,-44.337c-0.634,-5.417 -2.217,-20.086 -20.733,-20.086c-18.18,0 -24.237,13.389 -26.474,24.237c-2.54,11.158 -2.54,23.287 -2.54,70.487c0.31,40.833 0.31,44.646 3.497,55.818c-5.418,-0.633 -12.115,-1.266 -21.683,-1.266c-7.662,-0 -12.762,0.309 -19.13,1.266c2.231,-5.107 3.511,-7.661 4.144,-25.517c0.647,-17.546 1.921,-103.672 -0.97,-124.075c-1.583,-12.452 -4.784,-15.315 -8.281,-18.502c25.841,-1.281 34.121,-5.431 42.106,-9.562l0,33.798c3.821,-9.898 11.792,-31.905 43.697,-31.905c39.876,0 40.185,29.028 40.509,48.157l-0,96.032" style="fill:#fff;fill-rule:nonzero;"/><path id="path4687" d="M539.44,1038.98l-26.419,26.405l-26.405,-26.405l26.405,-26.405l26.419,26.405" style="fill:#a80030;fill-rule:nonzero;"/></g></g></g></svg>