<?xml version="1.0" encoding="UTF-8" standalone="no"?><!DOCTYPE svg PUBLIC "-//W3C//DTD SVG 1.1//EN" "http://www.w3.org/Graphics/SVG/1.1/DTD/svg11.dtd"><svg width="100%" height="100%" viewBox="0 0 907 1352" version="1.1" xmlns="http://www.w3.org/2000/svg" xmlns:xlink="http://www.w3.org/1999/xlink" xml:space="preserve" xmlns:serif="http://www.serif.com/" style="fill-rule:evenodd;clip-rule:evenodd;stroke-linejoin:round;"><rect id="Devuan" x="0" y="0" width="906.667" height="1351.11" style="fill:none;"/><clipPath id="_clip1"><rect x="0" y="0" width="906.667" height="1351.11"/></clipPath><g clip-path="url(#_clip1)"><g id="READ-ME" serif:id="READ ME"><path id="Frame" d="M897.778,363.221c-0,-195.561 -158.771,-354.332 -354.333,-354.332l-180.224,-0c-195.561,-0 -354.332,158.771 -354.332,354.332l-0,624.669c-0,195.561 158.771,354.332 354.332,354.332l180.224,0c195.562,0 354.333,-158.771 354.333,-354.332l-0,-624.669Z" style="fill:#fff;stroke:#000;stroke-width:17.78px;"/><path id="Bottom" d="M895.371,1141.21c-0,-107.643 -87.393,-195.036 -195.036,-195.036l-494.004,0c-107.643,0 -195.035,87.393 -195.035,195.036c-0,107.643 87.392,195.036 195.035,195.036l494.004,-0c107.643,-0 195.036,-87.393 195.036,-195.036Z" style="stroke:#000;stroke-width:15.52px;"/><g id="Powered-By" serif:id="Powered By"><path id="path12547" d="M59.75,886.702l2.069,0c2.962,0 5.189,-0.588 6.681,-1.763c1.515,-1.176 2.272,-3.087 2.272,-5.732c-0,-2.464 -0.678,-4.284 -2.035,-5.46c-1.334,-1.176 -3.436,-1.763 -6.308,-1.763l-2.679,-0l0,14.718Zm21.671,-7.868c-0,2.171 -0.328,4.251 -0.984,6.24c-0.655,1.99 -1.741,3.742 -3.255,5.257c-1.493,1.515 -3.471,2.724 -5.935,3.628c-2.442,0.905 -5.472,1.357 -9.089,1.357l-2.408,-0l0,17.635l-10.513,-0l0,-49.581l13.769,-0c3.188,-0 5.935,0.362 8.241,1.085c2.328,0.701 4.239,1.718 5.731,3.052c1.515,1.312 2.634,2.928 3.358,4.85c0.723,1.899 1.085,4.058 1.085,6.477l-0,0Z" style="fill-rule:nonzero;"/><path id="path12549" d="M98.581,893.926c-0,3.775 0.531,6.624 1.594,8.546c1.062,1.899 2.792,2.848 5.189,2.848c2.373,0 4.092,-0.96 5.154,-2.882c1.063,-1.922 1.594,-4.759 1.594,-8.512c0,-3.776 -0.531,-6.591 -1.594,-8.445c-1.062,-1.876 -2.803,-2.815 -5.222,-2.815c-2.374,0 -4.092,0.939 -5.155,2.815c-1.04,1.854 -1.56,4.669 -1.56,8.445Zm24.078,-0c0,3.165 -0.407,5.968 -1.221,8.41c-0.791,2.442 -1.944,4.499 -3.459,6.172c-1.492,1.673 -3.323,2.951 -5.494,3.832c-2.148,0.86 -4.567,1.289 -7.257,1.289c-2.51,0 -4.816,-0.429 -6.918,-1.289c-2.103,-0.881 -3.923,-2.159 -5.46,-3.832c-1.515,-1.673 -2.702,-3.73 -3.561,-6.172c-0.859,-2.442 -1.289,-5.245 -1.289,-8.41c-0,-3.143 0.396,-5.935 1.187,-8.377c0.814,-2.442 1.967,-4.488 3.459,-6.138c1.515,-1.673 3.346,-2.939 5.494,-3.799c2.148,-0.859 4.578,-1.288 7.291,-1.288c2.51,-0 4.816,0.429 6.919,1.288c2.102,0.86 3.911,2.126 5.426,3.799c1.537,1.65 2.735,3.696 3.595,6.138c0.859,2.442 1.288,5.234 1.288,8.377Z" style="fill-rule:nonzero;"/><path id="path12551" d="M160.54,912.951l-2.916,-13.26c-0.091,-0.384 -0.215,-0.927 -0.373,-1.628c-0.136,-0.724 -0.294,-1.526 -0.475,-2.408c-0.181,-0.904 -0.373,-1.854 -0.576,-2.849c-0.181,-1.017 -0.373,-2.023 -0.577,-3.018c-0.452,-2.329 -0.95,-4.838 -1.492,-7.529l-0.204,0c-0.52,2.691 -0.994,5.212 -1.424,7.563c-0.181,0.995 -0.373,2.001 -0.576,3.018c-0.181,1.018 -0.362,1.979 -0.543,2.883c-0.181,0.882 -0.35,1.684 -0.509,2.408c-0.135,0.723 -0.248,1.289 -0.339,1.695l-3.052,13.125l-11.124,-0l-10.208,-37.915l10.276,-0l3.832,16.787c0.204,0.882 0.407,1.944 0.611,3.188c0.226,1.221 0.429,2.464 0.61,3.73c0.204,1.244 0.384,2.431 0.543,3.561c0.158,1.108 0.282,1.99 0.373,2.645l0.203,0c0.023,-0.43 0.068,-0.983 0.136,-1.661c0.09,-0.701 0.192,-1.447 0.305,-2.239c0.113,-0.791 0.226,-1.594 0.339,-2.408c0.136,-0.836 0.26,-1.616 0.373,-2.34c0.136,-0.723 0.249,-1.356 0.339,-1.899c0.113,-0.565 0.204,-0.961 0.272,-1.187l4.137,-18.177l11.395,-0l3.968,18.177c0.113,0.498 0.26,1.267 0.441,2.306c0.181,1.04 0.361,2.16 0.542,3.358c0.204,1.176 0.373,2.329 0.509,3.459c0.136,1.108 0.215,1.978 0.237,2.611l0.204,0c0.068,-0.565 0.181,-1.402 0.339,-2.509c0.181,-1.108 0.373,-2.295 0.576,-3.561c0.204,-1.289 0.419,-2.566 0.645,-3.832c0.249,-1.266 0.475,-2.34 0.678,-3.222l3.968,-16.787l10.14,-0l-10.343,37.915l-11.26,-0Z" style="fill-rule:nonzero;"/><path id="path12553" d="M202.898,881.683c-1.831,-0 -3.357,0.644 -4.578,1.933c-1.198,1.289 -1.888,3.312 -2.069,6.07l13.192,0c-0.022,-1.153 -0.169,-2.215 -0.441,-3.187c-0.271,-0.973 -0.678,-1.809 -1.22,-2.51c-0.543,-0.724 -1.221,-1.289 -2.035,-1.696c-0.814,-0.407 -1.764,-0.61 -2.849,-0.61l0,-0Zm1.323,31.946c-2.713,0 -5.212,-0.395 -7.495,-1.187c-2.284,-0.791 -4.251,-1.978 -5.901,-3.561c-1.65,-1.605 -2.939,-3.617 -3.866,-6.036c-0.905,-2.442 -1.357,-5.302 -1.357,-8.58c0,-3.324 0.419,-6.229 1.255,-8.716c0.837,-2.487 2.001,-4.556 3.493,-6.206c1.515,-1.673 3.324,-2.928 5.426,-3.765c2.126,-0.836 4.477,-1.254 7.054,-1.254c2.51,-0 4.771,0.384 6.783,1.152c2.035,0.747 3.753,1.855 5.155,3.324c1.424,1.47 2.509,3.278 3.255,5.426c0.769,2.125 1.153,4.567 1.153,7.325l0,5.019l-23.128,0c0.044,1.447 0.271,2.759 0.678,3.934c0.429,1.153 1.017,2.137 1.763,2.951c0.769,0.791 1.685,1.402 2.747,1.831c1.086,0.43 2.318,0.645 3.697,0.645c1.153,0 2.238,-0.057 3.256,-0.17c1.04,-0.136 2.046,-0.328 3.018,-0.576c0.972,-0.249 1.933,-0.554 2.882,-0.916c0.95,-0.384 1.922,-0.825 2.917,-1.322l-0,8.003c-0.904,0.475 -1.82,0.882 -2.747,1.221c-0.904,0.317 -1.865,0.588 -2.883,0.814c-1.017,0.226 -2.114,0.384 -3.289,0.475c-1.176,0.113 -2.465,0.17 -3.866,0.17l-0,-0.001Z" style="fill-rule:nonzero;"/><path id="path12555" d="M247.698,874.324c0.271,-0 0.565,0.011 0.881,0.035c0.339,0 0.656,0.024 0.95,0.071c0.316,0.024 0.599,0.059 0.848,0.106c0.271,0.024 0.474,0.059 0.61,0.107l-0,9.699c-0.181,-0.047 -0.43,-0.093 -0.746,-0.136c-0.317,-0.047 -0.656,-0.083 -1.018,-0.106c-0.339,-0.048 -0.678,-0.071 -1.017,-0.071c-0.339,-0.024 -0.622,-0.036 -0.848,-0.036c-1.334,0 -2.566,0.17 -3.696,0.509c-1.108,0.34 -2.069,0.894 -2.883,1.662c-0.791,0.747 -1.413,1.741 -1.865,2.984c-0.43,1.221 -0.645,2.725 -0.645,4.511l0,19.297l-10.343,-0l-0,-37.915l7.834,-0l1.526,5.697l0.509,0c0.542,-0.972 1.13,-1.854 1.763,-2.645c0.633,-0.791 1.334,-1.458 2.103,-2.001c0.791,-0.565 1.673,-0.995 2.645,-1.289c0.995,-0.316 2.125,-0.475 3.391,-0.475l0.001,-0.004Z" style="fill-rule:nonzero;"/><path id="path12557" d="M273.404,881.683c-1.832,-0 -3.358,0.644 -4.579,1.933c-1.198,1.289 -1.887,3.312 -2.068,6.07l13.192,0c-0.023,-1.153 -0.17,-2.215 -0.441,-3.187c-0.271,-0.973 -0.678,-1.809 -1.221,-2.51c-0.542,-0.724 -1.221,-1.289 -2.035,-1.696c-0.813,-0.407 -1.763,-0.61 -2.848,-0.61l-0,-0Zm1.322,31.946c-2.713,0 -5.211,-0.395 -7.494,-1.187c-2.284,-0.791 -4.251,-1.978 -5.901,-3.561c-1.651,-1.605 -2.94,-3.617 -3.866,-6.036c-0.905,-2.442 -1.357,-5.302 -1.357,-8.58c-0,-3.324 0.418,-6.229 1.255,-8.716c0.836,-2.487 2.001,-4.556 3.493,-6.206c1.515,-1.673 3.323,-2.928 5.426,-3.765c2.125,-0.836 4.477,-1.254 7.054,-1.254c2.51,-0 4.77,0.384 6.783,1.152c2.034,0.747 3.753,1.855 5.154,3.324c1.425,1.47 2.51,3.278 3.256,5.426c0.769,2.125 1.153,4.567 1.153,7.325l0,5.019l-23.129,0c0.045,1.447 0.271,2.759 0.679,3.934c0.429,1.153 1.017,2.137 1.763,2.951c0.769,0.791 1.684,1.402 2.747,1.831c1.085,0.43 2.317,0.645 3.697,0.645c1.153,0 2.238,-0.057 3.255,-0.17c1.04,-0.136 2.046,-0.328 3.018,-0.576c0.973,-0.249 1.934,-0.554 2.883,-0.916c0.95,-0.384 1.922,-0.825 2.917,-1.322l-0,8.003c-0.905,0.475 -1.82,0.882 -2.747,1.221c-0.905,0.317 -1.866,0.588 -2.883,0.814c-1.017,0.226 -2.114,0.384 -3.29,0.475c-1.175,0.113 -2.464,0.17 -3.866,0.17l0,-0.001Z" style="fill-rule:nonzero;"/><path id="path12559" d="M309.589,913.629c-1.944,0 -3.719,-0.418 -5.324,-1.255c-1.605,-0.836 -2.985,-2.068 -4.138,-3.696c-1.153,-1.651 -2.057,-3.697 -2.713,-6.138c-0.633,-2.442 -0.949,-5.268 -0.949,-8.479c-0,-3.255 0.316,-6.104 0.949,-8.546c0.656,-2.464 1.572,-4.522 2.747,-6.172c1.199,-1.673 2.623,-2.928 4.273,-3.765c1.651,-0.836 3.471,-1.254 5.46,-1.254c1.221,-0 2.34,0.146 3.358,0.44c1.017,0.272 1.933,0.668 2.747,1.187c0.814,0.498 1.537,1.086 2.17,1.764c0.656,0.656 1.232,1.379 1.73,2.17l0.339,0c-0.136,-0.882 -0.26,-1.775 -0.373,-2.679c-0.113,-0.769 -0.215,-1.582 -0.305,-2.442c-0.068,-0.882 -0.102,-1.695 -0.102,-2.442l0,-12.141l10.344,0l-0,52.77l-7.902,-0l-2.001,-4.918l-0.441,0c-0.475,0.769 -1.017,1.503 -1.628,2.205c-0.61,0.677 -1.323,1.265 -2.136,1.763c-0.792,0.498 -1.696,0.893 -2.713,1.187c-0.995,0.294 -2.126,0.44 -3.392,0.44l0,0.001Zm3.765,-8.241c1.22,0 2.26,-0.203 3.12,-0.61c0.859,-0.43 1.548,-1.063 2.068,-1.899c0.543,-0.86 0.939,-1.922 1.187,-3.188c0.272,-1.266 0.419,-2.747 0.441,-4.443l0,-1.12c0,-1.831 -0.113,-3.459 -0.339,-4.883c-0.226,-1.425 -0.599,-2.612 -1.119,-3.561c-0.52,-0.972 -1.221,-1.707 -2.103,-2.204c-0.881,-0.498 -1.989,-0.747 -3.323,-0.747c-2.171,0 -3.764,0.984 -4.782,2.951c-1.017,1.944 -1.526,4.781 -1.526,8.512c0,3.73 0.509,6.534 1.526,8.41c1.04,1.854 2.657,2.781 4.85,2.781l-0,0.001Z" style="fill-rule:nonzero;"/><path id="path12561" d="M378.908,874.324c1.944,-0 3.719,0.418 5.324,1.254c1.606,0.837 2.985,2.08 4.138,3.731c1.153,1.65 2.046,3.697 2.679,6.138c0.656,2.442 0.983,5.268 0.983,8.479c0,3.255 -0.327,6.115 -0.983,8.58c-0.633,2.441 -1.538,4.487 -2.713,6.138c-1.176,1.65 -2.589,2.894 -4.239,3.73c-1.651,0.837 -3.471,1.255 -5.46,1.255c-1.266,0 -2.397,-0.136 -3.392,-0.407c-0.972,-0.272 -1.842,-0.634 -2.611,-1.086c-0.769,-0.452 -1.447,-0.96 -2.035,-1.526c-0.565,-0.588 -1.085,-1.198 -1.56,-1.831l-0.712,-0l-1.73,4.171l-7.901,0l-0,-52.769l10.343,0l0,12.277c0,0.746 -0.022,1.56 -0.067,2.442c-0.045,0.859 -0.09,1.661 -0.136,2.407c-0.068,0.882 -0.135,1.764 -0.203,2.646l0.407,-0c0.474,-0.792 1.017,-1.526 1.627,-2.205c0.611,-0.678 1.312,-1.266 2.103,-1.763c0.814,-0.52 1.73,-0.927 2.747,-1.221c1.017,-0.294 2.148,-0.441 3.391,-0.441l-0,0.001Zm-3.493,8.275c-1.153,-0 -2.137,0.215 -2.951,0.644c-0.791,0.408 -1.435,1.029 -1.933,1.866c-0.497,0.836 -0.859,1.899 -1.085,3.188c-0.226,1.266 -0.362,2.746 -0.407,4.442l0,1.12c0,1.831 0.102,3.459 0.305,4.883c0.226,1.425 0.588,2.623 1.086,3.595c0.497,0.95 1.153,1.673 1.967,2.171c0.836,0.497 1.865,0.746 3.086,0.746c2.057,-0 3.561,-0.972 4.51,-2.917c0.972,-1.967 1.458,-4.815 1.458,-8.546c0,-3.73 -0.486,-6.522 -1.458,-8.376c-0.949,-1.877 -2.476,-2.815 -4.578,-2.815l-0,-0.001Z" style="fill-rule:nonzero;"/><path id="path12563" d="M395.492,875.036l11.327,-0l6.104,21.331c0.361,1.176 0.621,2.431 0.779,3.765c0.182,1.334 0.295,2.532 0.339,3.594l0.204,0c0.047,-0.519 0.104,-1.096 0.17,-1.729c0.09,-0.633 0.192,-1.278 0.304,-1.933c0.114,-0.656 0.238,-1.3 0.374,-1.933c0.158,-0.656 0.316,-1.244 0.474,-1.764l5.969,-21.331l11.395,-0l-14.99,42.764c-1.401,4.002 -3.312,6.975 -5.731,8.92c-2.419,1.944 -5.449,2.916 -9.089,2.916c-1.175,0 -2.193,-0.068 -3.052,-0.203c-0.859,-0.113 -1.594,-0.238 -2.204,-0.373l-0,-8.207c0.475,0.113 1.074,0.215 1.797,0.305c0.724,0.09 1.481,0.135 2.272,0.135c1.086,0 2.013,-0.146 2.781,-0.44c0.769,-0.294 1.425,-0.712 1.967,-1.255c0.565,-0.52 1.04,-1.153 1.425,-1.899c0.407,-0.747 0.757,-1.583 1.051,-2.51l0.645,-1.899l-14.311,-38.254Z" style="fill-rule:nonzero;"/></g></g><g id="Devuan1" serif:id="Devuan"><path id="Logo" d="M124.651,164.271c1170.37,279.299 63.227,506.412 63.227,506.412c-21.812,3.485 -39.406,14.847 -49.999,32.113c-11.899,19.396 -12.907,45.603 -1.795,64.028c13.521,22.421 30.652,30.177 45.427,33.517c23.247,5.255 42.011,-3.119 42.011,-3.119c-0,-0 565.997,-168.2 561.742,-336.21c-2.136,-84.343 -173.554,-227.006 -660.613,-296.741Z" style="fill-rule:nonzero;"/><g id="Devuan2" serif:id="Devuan"><path id="path4401" d="M310.55,1074.68c-4.713,0 -8.591,3.879 -8.591,8.592c0,1.391 0.338,2.762 0.985,3.994l57.81,110.012c1.483,2.821 4.418,4.594 7.604,4.595l2.559,-0c3.198,-0.001 6.142,-1.787 7.619,-4.623l57.298,-110.011c0.637,-1.225 0.97,-2.586 0.97,-3.967c0,-4.713 -3.877,-8.591 -8.59,-8.592l-2.046,-0c-3.2,-0.001 -6.146,1.787 -7.623,4.626l-48.926,94.092l-49.152,-94.105c-1.479,-2.832 -4.42,-4.613 -7.615,-4.613l-2.302,-0Z" style="fill:#fff;fill-rule:nonzero;"/><path id="path4403" d="M458.665,1074.15c-4.733,0.001 -8.628,3.896 -8.629,8.629l0,76.356c0,12.844 5.608,24.492 15.671,32.155c10.57,8.048 25.348,11.106 44.082,11.106c18.555,0 33.25,-3.07 43.794,-11.083c10.214,-7.636 15.961,-19.303 15.961,-32.178l-0,-76.356c-0.001,-4.733 -3.896,-8.628 -8.629,-8.629l-2.045,0c-4.733,0.001 -8.628,3.896 -8.629,8.629l0,76.194c0,8.122 -2.433,13.074 -8.383,17.639c-5.443,4.176 -16.042,7.239 -32.069,7.239c-16.027,-0 -26.626,-3.063 -32.069,-7.239c-5.95,-4.565 -8.381,-9.517 -8.381,-17.639l-0,-76.194c-0.001,-4.733 -3.896,-8.628 -8.629,-8.629l-2.045,0Z" style="fill:#fff;fill-rule:nonzero;"/><path id="path4405" d="M649.176,1073.74c-3.223,-0 -6.188,1.805 -7.667,4.668l-57.771,111.819c-0.632,1.224 -0.962,2.582 -0.962,3.96c-0,4.733 3.894,8.628 8.627,8.63l2.3,-0c3.231,-0 6.201,-1.814 7.677,-4.687l49.056,-95.524l48.827,95.508c1.473,2.882 4.448,4.702 7.684,4.703l2.044,-0c4.734,-0.001 8.628,-3.897 8.628,-8.63c0,-1.368 -0.325,-2.716 -0.948,-3.933l-57.258,-111.819c-1.475,-2.878 -4.448,-4.696 -7.682,-4.695l-2.555,-0Z" style="fill:#fff;fill-rule:nonzero;"/><path id="path4407" d="M790.605,1074.15c-18.734,0 -33.513,3.058 -44.083,11.107c-10.062,7.662 -15.67,19.312 -15.67,32.156l-0,76.354c0,4.734 3.895,8.629 8.629,8.629l2.044,0c4.734,-0 8.629,-3.895 8.629,-8.629l0,-76.192c0,-8.122 2.432,-13.074 8.382,-17.639c5.443,-4.176 16.042,-7.238 32.069,-7.238c16.026,-0 26.626,3.062 32.069,7.238c5.95,4.565 8.383,9.517 8.383,17.639l-0,76.192c0,4.734 3.895,8.629 8.629,8.629l2.044,0c4.734,-0 8.629,-3.895 8.629,-8.629l0,-76.354c0,-12.879 -5.75,-24.551 -15.97,-32.187c-10.544,-8.007 -25.235,-11.076 -43.784,-11.076Z" style="fill:#fff;fill-rule:nonzero;"/><path id="path4409" d="M218.125,1075.37c-14.402,0 -27.283,5.732 -36.044,16.433c-2.543,3.056 -4.664,6.475 -6.4,10.241c-4.522,9.807 10.787,2.629 10.787,16.889c-0,8.055 -16.629,34.78 -15.308,41.448c1.946,9.822 5.46,18.091 10.942,24.666c8.785,10.538 21.645,16.129 36.023,16.129l61.954,0c4.764,-0 8.627,-3.861 8.629,-8.626l0,-2.173c0,-4.766 -3.863,-8.629 -8.629,-8.63l-61.768,0c-9.985,0 -16.423,-2.939 -21.851,-9.402c-5.01,-5.964 -8.465,-17.09 -8.465,-34.07c0,-16.98 3.455,-28.107 8.465,-34.071c5.428,-6.462 11.866,-9.405 21.851,-9.405l61.768,-0c4.766,-0 8.629,-3.864 8.629,-8.63l0,-2.169c0,-4.766 -3.863,-8.63 -8.629,-8.63l-61.954,0Z" style="fill:#fff;fill-rule:nonzero;"/><path id="path4411-6" d="M39.933,1055.54c302.976,72.302 16.367,131.095 16.367,131.095c-5.646,0.903 -10.201,3.844 -12.943,8.314c-3.08,5.021 -3.341,11.805 -0.465,16.575c3.5,5.804 7.935,7.812 11.76,8.676c6.018,1.361 10.875,-0.807 10.875,-0.807c0,-0 146.521,-43.542 145.42,-87.035c-0.553,-21.835 -44.928,-58.766 -171.014,-76.818Z" style="fill:#fff;fill-rule:nonzero;"/></g><g id="TM"><path id="path81265" d="M859.495,1198.44l0,-7.526l2.2,0c0.915,0 1.592,0.186 2.031,0.557c0.438,0.365 0.657,0.918 0.657,1.66c-0,0.545 -0.141,0.977 -0.421,1.298c-0.276,0.315 -0.593,0.542 -0.953,0.682l1.998,3.329l-1.382,-0l-1.745,-3l-1.163,-0l0,3l-1.222,-0Zm1.222,-3.995l0.936,0c0.466,0 0.831,-0.115 1.095,-0.346c0.27,-0.23 0.405,-0.542 0.405,-0.935c-0,-0.432 -0.124,-0.744 -0.371,-0.936c-0.247,-0.19 -0.629,-0.285 -1.146,-0.285l-0.919,-0l0,2.502Zm1.113,6.556c-0.916,0 -1.762,-0.157 -2.537,-0.472c-0.77,-0.315 -1.441,-0.756 -2.014,-1.323c-0.567,-0.568 -1.008,-1.236 -1.323,-2.006c-0.309,-0.775 -0.463,-1.618 -0.463,-2.528c-0,-0.916 0.157,-1.758 0.472,-2.528c0.314,-0.775 0.755,-1.447 1.323,-2.014c0.573,-0.568 1.244,-1.009 2.014,-1.323c0.775,-0.315 1.618,-0.472 2.528,-0.472c0.882,-0 1.705,0.16 2.469,0.48c0.769,0.315 1.443,0.759 2.022,1.332c0.579,0.568 1.031,1.236 1.357,2.005c0.326,0.77 0.489,1.61 0.489,2.52c-0,0.91 -0.158,1.753 -0.472,2.528c-0.315,0.769 -0.759,1.438 -1.332,2.006c-0.567,0.567 -1.239,1.008 -2.014,1.323c-0.769,0.315 -1.609,0.472 -2.519,0.472l-0,0Zm-0,-0.86c0.747,0 1.446,-0.135 2.098,-0.405c0.657,-0.269 1.233,-0.648 1.727,-1.137c0.495,-0.495 0.882,-1.073 1.163,-1.736c0.281,-0.668 0.422,-1.399 0.422,-2.191c-0,-0.753 -0.135,-1.458 -0.405,-2.115c-0.264,-0.657 -0.638,-1.239 -1.121,-1.744c-0.483,-0.506 -1.056,-0.899 -1.719,-1.18c-0.657,-0.287 -1.379,-0.43 -2.165,-0.43c-0.787,-0 -1.512,0.135 -2.175,0.405c-0.657,0.269 -1.23,0.651 -1.719,1.146c-0.483,0.489 -0.859,1.067 -1.129,1.735c-0.264,0.663 -0.396,1.391 -0.396,2.183c0,0.753 0.132,1.461 0.396,2.123c0.264,0.658 0.638,1.239 1.121,1.745c0.489,0.5 1.062,0.893 1.719,1.18c0.663,0.281 1.39,0.421 2.183,0.421l-0,0Z" style="fill:#fff;fill-rule:nonzero;"/></g></g></g></svg>