<?xml version="1.0" encoding="UTF-8" standalone="no"?><!DOCTYPE svg PUBLIC "-//W3C//DTD SVG 1.1//EN" "http://www.w3.org/Graphics/SVG/1.1/DTD/svg11.dtd"><svg width="100%" height="100%" viewBox="0 0 907 1352" version="1.1" xmlns="http://www.w3.org/2000/svg" xmlns:xlink="http://www.w3.org/1999/xlink" xml:space="preserve" xmlns:serif="http://www.serif.com/" style="fill-rule:evenodd;clip-rule:evenodd;"><rect id="DragonFly-BSD" serif:id="DragonFly BSD" x="0" y="0" width="906.667" height="1351.11" style="fill:none;"/><clipPath id="_clip1"><rect x="0" y="0" width="906.667" height="1351.11"/></clipPath><g clip-path="url(#_clip1)"><g><g id="Frame"><path id="path36023" d="M363.226,8.892l180.223,-0c196.3,-0 354.331,36.928 354.331,82.799l0,1167.73c0,45.871 -158.031,82.8 -354.331,82.8l-180.223,-0c-196.299,-0 -354.331,-36.929 -354.331,-82.8l0,-1167.73c0,-45.871 158.032,-82.799 354.331,-82.799Z" style="fill:#fff;fill-rule:nonzero;"/><path id="path36025" d="M363.234,0c-98.707,0 -187.781,9.234 -252.806,24.429c-32.512,7.598 -58.999,16.618 -78.086,27.198c-9.544,5.29 -17.286,10.978 -22.976,17.509c-5.69,6.53 -9.366,14.275 -9.366,22.561l0,1167.72c0,8.285 3.676,16.03 9.366,22.56c5.69,6.531 13.432,12.219 22.976,17.509c19.087,10.581 45.574,19.6 78.086,27.198c65.025,15.195 154.099,24.429 252.806,24.429l180.209,0c98.707,0 187.781,-9.234 252.806,-24.429c32.512,-7.598 58.999,-16.617 78.086,-27.198c9.544,-5.29 17.286,-10.978 22.976,-17.509c5.69,-6.53 9.366,-14.275 9.366,-22.56l-0,-1167.72c-0,-8.286 -3.676,-16.031 -9.366,-22.561c-5.69,-6.531 -13.432,-12.219 -22.976,-17.509c-19.087,-10.58 -45.574,-19.6 -78.086,-27.198c-65.025,-15.195 -154.099,-24.429 -252.806,-24.429l-180.209,0Zm-0,17.786l180.209,-0c97.593,-0 185.703,9.231 248.769,23.968c31.533,7.368 56.818,16.176 73.496,25.421c8.339,4.622 14.481,9.365 18.201,13.633c3.719,4.269 4.982,7.706 4.982,10.889l0,1167.72c0,3.182 -1.263,6.619 -4.982,10.888c-3.72,4.269 -9.862,9.011 -18.201,13.633c-16.678,9.245 -41.963,18.053 -73.496,25.421c-63.066,14.738 -151.176,23.969 -248.769,23.969l-180.209,-0c-97.593,-0 -185.703,-9.231 -248.769,-23.969c-31.533,-7.368 -56.818,-16.176 -73.496,-25.421c-8.339,-4.622 -14.481,-9.364 -18.201,-13.633c-3.719,-4.269 -4.982,-7.706 -4.982,-10.888l-0,-1167.72c-0,-3.183 1.263,-6.62 4.982,-10.889c3.72,-4.268 9.862,-9.011 18.201,-13.633c16.678,-9.245 41.963,-18.053 73.496,-25.421c63.066,-14.737 151.176,-23.968 248.769,-23.968Z" style="fill-rule:nonzero;"/></g><g id="Bottom"><path id="path35979" d="M371.606,946.173l163.464,0c199.608,0 360.304,38.151 360.304,85.54l-0,218.99c-0,47.389 -160.696,85.54 -360.304,85.54l-163.464,-0c-199.609,-0 -360.304,-38.151 -360.304,-85.54l-0,-218.99c-0,-47.389 160.695,-85.54 360.304,-85.54Z" style="fill-rule:nonzero;"/><path id="path35981" d="M371.607,938.419c-100.298,0 -190.804,9.547 -256.796,25.214c-32.996,7.833 -59.838,17.123 -79.078,27.958c-19.241,10.836 -32.18,23.883 -32.18,40.116l-0,218.988c-0,16.233 12.939,29.303 32.18,40.139c19.24,10.835 46.082,20.125 79.078,27.958c65.992,15.667 156.498,25.214 256.796,25.214l163.463,0c100.298,0 190.804,-9.547 256.796,-25.214c32.996,-7.833 59.838,-17.123 79.078,-27.958c19.241,-10.836 32.18,-23.906 32.18,-40.139l0,-218.988c0,-16.233 -12.939,-29.28 -32.18,-40.116c-19.24,-10.835 -46.082,-20.125 -79.078,-27.958c-65.992,-15.667 -156.498,-25.214 -256.796,-25.214l-163.463,0Zm0,15.525l163.463,-0c99.309,-0 188.962,9.52 253.22,24.775c32.129,7.628 57.914,16.745 75.042,26.39c17.127,9.646 24.291,19.137 24.291,26.598l-0,218.988c-0,7.461 -7.164,16.952 -24.291,26.598c-17.128,9.645 -42.913,18.762 -75.042,26.39c-64.258,15.255 -153.911,24.798 -253.22,24.798l-163.463,0c-99.309,0 -188.962,-9.543 -253.22,-24.798c-32.129,-7.628 -57.914,-16.745 -75.042,-26.39c-17.127,-9.646 -24.291,-19.137 -24.291,-26.598l0,-218.988c0,-7.461 7.164,-16.952 24.291,-26.598c17.128,-9.645 42.913,-18.762 75.042,-26.39c64.258,-15.255 153.911,-24.775 253.22,-24.775Z" style="fill-rule:nonzero;"/></g><g id="Powered-By" serif:id="Powered By"><path id="path12547" d="M59.756,886.701l2.069,0c2.962,0 5.189,-0.588 6.681,-1.763c1.515,-1.176 2.272,-3.086 2.272,-5.732c-0,-2.464 -0.678,-4.284 -2.035,-5.46c-1.334,-1.175 -3.436,-1.763 -6.308,-1.763l-2.679,-0l0,14.718Zm21.671,-7.868c-0,2.171 -0.328,4.251 -0.984,6.24c-0.656,1.99 -1.741,3.742 -3.256,5.257c-1.492,1.515 -3.47,2.724 -5.934,3.629c-2.442,0.904 -5.472,1.356 -9.089,1.356l-2.408,0l0,17.635l-10.513,-0l0,-49.581l13.769,-0c3.188,-0 5.935,0.362 8.241,1.085c2.328,0.701 4.239,1.719 5.731,3.053c1.515,1.311 2.634,2.927 3.357,4.849c0.724,1.899 1.086,4.058 1.086,6.478l-0,-0.001Z" style="fill-rule:nonzero;"/><path id="path12549" d="M98.587,893.925c-0,3.775 0.531,6.624 1.594,8.546c1.062,1.899 2.792,2.848 5.188,2.848c2.374,0 4.093,-0.96 5.155,-2.882c1.063,-1.922 1.594,-4.759 1.594,-8.512c0,-3.776 -0.531,-6.591 -1.594,-8.445c-1.062,-1.876 -2.803,-2.814 -5.223,-2.814c-2.373,-0 -4.092,0.938 -5.154,2.814c-1.04,1.854 -1.56,4.669 -1.56,8.445Zm24.078,-0c0,3.165 -0.407,5.968 -1.221,8.41c-0.791,2.442 -1.944,4.499 -3.459,6.172c-1.492,1.673 -3.323,2.951 -5.494,3.833c-2.148,0.859 -4.567,1.288 -7.257,1.288c-2.51,0 -4.816,-0.429 -6.919,-1.288c-2.102,-0.882 -3.922,-2.16 -5.46,-3.833c-1.514,-1.673 -2.701,-3.73 -3.56,-6.172c-0.86,-2.442 -1.289,-5.245 -1.289,-8.41c-0,-3.143 0.395,-5.935 1.187,-8.377c0.814,-2.442 1.967,-4.488 3.459,-6.138c1.515,-1.673 3.346,-2.939 5.494,-3.798c2.148,-0.86 4.578,-1.289 7.291,-1.289c2.51,-0 4.816,0.429 6.918,1.289c2.103,0.859 3.912,2.125 5.427,3.798c1.537,1.65 2.735,3.696 3.594,6.138c0.859,2.442 1.289,5.234 1.289,8.377Z" style="fill-rule:nonzero;"/><path id="path12551" d="M160.546,912.95l-2.917,-13.26c-0.09,-0.384 -0.214,-0.927 -0.373,-1.628c-0.135,-0.724 -0.293,-1.526 -0.474,-2.408c-0.181,-0.904 -0.373,-1.854 -0.577,-2.848c-0.181,-1.018 -0.373,-2.024 -0.576,-3.019c-0.453,-2.328 -0.95,-4.838 -1.492,-7.528l-0.204,-0c-0.52,2.69 -0.995,5.211 -1.424,7.562c-0.181,0.995 -0.373,2.001 -0.577,3.019c-0.181,1.017 -0.362,1.978 -0.542,2.882c-0.181,0.882 -0.351,1.684 -0.509,2.408c-0.136,0.723 -0.249,1.289 -0.339,1.696l-3.052,13.124l-11.124,-0l-10.208,-37.915l10.276,0l3.832,16.787c0.203,0.882 0.407,1.944 0.61,3.188c0.226,1.221 0.43,2.464 0.611,3.73c0.203,1.244 0.384,2.431 0.542,3.561c0.159,1.108 0.283,1.99 0.373,2.645l0.204,0c0.023,-0.429 0.068,-0.983 0.136,-1.661c0.09,-0.701 0.192,-1.447 0.305,-2.239c0.113,-0.791 0.226,-1.593 0.339,-2.407c0.135,-0.837 0.26,-1.617 0.373,-2.34c0.136,-0.724 0.249,-1.357 0.339,-1.9c0.113,-0.565 0.204,-0.961 0.271,-1.187l4.138,-18.177l11.395,0l3.967,18.177c0.113,0.498 0.26,1.267 0.441,2.307c0.181,1.04 0.362,2.159 0.543,3.357c0.203,1.176 0.373,2.329 0.509,3.459c0.135,1.108 0.214,1.978 0.237,2.611l0.203,0c0.068,-0.565 0.181,-1.401 0.34,-2.509c0.18,-1.108 0.373,-2.295 0.576,-3.561c0.203,-1.289 0.418,-2.566 0.644,-3.832c0.249,-1.266 0.475,-2.34 0.679,-3.222l3.968,-16.787l10.14,0l-10.344,37.915l-11.259,-0Z" style="fill-rule:nonzero;"/><path id="path12553" d="M202.903,881.682c-1.831,0 -3.357,0.644 -4.578,1.933c-1.198,1.289 -1.888,3.312 -2.068,6.071l13.192,-0c-0.023,-1.153 -0.17,-2.216 -0.441,-3.188c-0.272,-0.972 -0.678,-1.809 -1.221,-2.51c-0.543,-0.723 -1.221,-1.289 -2.035,-1.695c-0.814,-0.408 -1.763,-0.611 -2.849,-0.611l0,0Zm1.323,31.946c-2.713,0 -5.211,-0.395 -7.495,-1.187c-2.283,-0.791 -4.25,-1.978 -5.901,-3.561c-1.65,-1.605 -2.939,-3.617 -3.866,-6.036c-0.904,-2.442 -1.356,-5.302 -1.356,-8.58c-0,-3.324 0.418,-6.229 1.255,-8.716c0.836,-2.487 2,-4.555 3.493,-6.206c1.514,-1.673 3.323,-2.928 5.426,-3.764c2.125,-0.837 4.476,-1.255 7.054,-1.255c2.509,-0 4.77,0.384 6.782,1.153c2.035,0.746 3.753,1.854 5.155,3.323c1.424,1.47 2.51,3.278 3.256,5.426c0.768,2.125 1.153,4.567 1.153,7.325l-0,5.02l-23.129,-0c0.045,1.447 0.271,2.758 0.678,3.934c0.43,1.153 1.018,2.136 1.764,2.95c0.768,0.791 1.684,1.402 2.747,1.831c1.085,0.43 2.317,0.645 3.696,0.645c1.153,0 2.239,-0.057 3.256,-0.17c1.04,-0.135 2.046,-0.328 3.018,-0.576c0.972,-0.249 1.933,-0.554 2.883,-0.916c0.949,-0.384 1.922,-0.825 2.916,-1.322l0,8.003c-0.904,0.475 -1.82,0.882 -2.747,1.221c-0.904,0.317 -1.865,0.588 -2.882,0.814c-1.018,0.226 -2.114,0.384 -3.29,0.475c-1.175,0.113 -2.464,0.17 -3.866,0.17l0,-0.001Z" style="fill-rule:nonzero;"/><path id="path12555" d="M247.703,874.323c0.271,-0 0.565,0.012 0.881,0.035c0.34,0 0.656,0.024 0.95,0.071c0.317,0.024 0.599,0.059 0.848,0.106c0.271,0.024 0.475,0.059 0.61,0.107l0,9.699c-0.181,-0.047 -0.429,-0.093 -0.746,-0.136c-0.316,-0.047 -0.656,-0.083 -1.017,-0.106c-0.339,-0.047 -0.679,-0.071 -1.018,-0.071c-0.339,-0.024 -0.621,-0.036 -0.847,-0.036c-1.334,0 -2.567,0.17 -3.697,0.51c-1.108,0.339 -2.069,0.893 -2.883,1.661c-0.791,0.747 -1.413,1.742 -1.865,2.985c-0.429,1.22 -0.644,2.724 -0.644,4.51l-0,19.297l-10.344,-0l0,-37.915l7.834,-0l1.526,5.697l0.509,0c0.543,-0.972 1.13,-1.854 1.763,-2.645c0.633,-0.791 1.334,-1.458 2.103,-2.001c0.791,-0.565 1.673,-0.995 2.645,-1.289c0.995,-0.316 2.125,-0.474 3.392,-0.474l-0,-0.005Z" style="fill-rule:nonzero;"/><path id="path12557" d="M273.409,881.682c-1.831,0 -3.358,0.644 -4.578,1.933c-1.199,1.289 -1.888,3.312 -2.069,6.071l13.192,-0c-0.023,-1.153 -0.17,-2.216 -0.441,-3.188c-0.271,-0.972 -0.678,-1.809 -1.221,-2.51c-0.542,-0.723 -1.221,-1.289 -2.034,-1.695c-0.814,-0.408 -1.764,-0.611 -2.849,-0.611l-0,0Zm1.322,31.946c-2.713,0 -5.211,-0.395 -7.494,-1.187c-2.284,-0.791 -4.251,-1.978 -5.901,-3.561c-1.651,-1.605 -2.939,-3.617 -3.866,-6.036c-0.905,-2.442 -1.357,-5.302 -1.357,-8.58c0,-3.324 0.418,-6.229 1.255,-8.716c0.836,-2.487 2.001,-4.555 3.493,-6.206c1.515,-1.673 3.323,-2.928 5.426,-3.764c2.125,-0.837 4.477,-1.255 7.054,-1.255c2.51,-0 4.77,0.384 6.783,1.153c2.034,0.746 3.753,1.854 5.154,3.323c1.425,1.47 2.51,3.278 3.256,5.426c0.769,2.125 1.153,4.567 1.153,7.325l0,5.02l-23.129,-0c0.045,1.447 0.271,2.758 0.679,3.934c0.429,1.153 1.017,2.136 1.763,2.95c0.769,0.791 1.685,1.402 2.747,1.831c1.085,0.43 2.318,0.645 3.697,0.645c1.153,0 2.238,-0.057 3.255,-0.17c1.04,-0.135 2.046,-0.328 3.019,-0.576c0.972,-0.249 1.933,-0.554 2.882,-0.916c0.95,-0.384 1.922,-0.825 2.917,-1.322l-0,8.003c-0.905,0.475 -1.82,0.882 -2.747,1.221c-0.905,0.317 -1.865,0.588 -2.883,0.814c-1.017,0.226 -2.114,0.384 -3.289,0.475c-1.176,0.113 -2.465,0.17 -3.867,0.17l0,-0.001Z" style="fill-rule:nonzero;"/><path id="path12559" d="M309.594,913.628c-1.944,0 -3.719,-0.418 -5.324,-1.255c-1.605,-0.836 -2.985,-2.068 -4.138,-3.696c-1.153,-1.651 -2.057,-3.697 -2.713,-6.138c-0.633,-2.442 -0.949,-5.268 -0.949,-8.479c-0,-3.255 0.316,-6.104 0.949,-8.546c0.656,-2.464 1.572,-4.521 2.747,-6.172c1.199,-1.673 2.623,-2.928 4.273,-3.764c1.651,-0.837 3.471,-1.255 5.46,-1.255c1.221,-0 2.34,0.147 3.358,0.44c1.017,0.272 1.933,0.668 2.747,1.187c0.814,0.498 1.537,1.086 2.17,1.764c0.656,0.656 1.232,1.379 1.73,2.17l0.339,0c-0.136,-0.881 -0.26,-1.774 -0.373,-2.679c-0.113,-0.768 -0.215,-1.582 -0.305,-2.442c-0.068,-0.881 -0.102,-1.695 -0.102,-2.441l0,-12.141l10.344,-0l-0,52.769l-7.902,-0l-2.001,-4.918l-0.441,0c-0.475,0.769 -1.018,1.504 -1.628,2.205c-0.61,0.678 -1.323,1.265 -2.136,1.763c-0.792,0.498 -1.696,0.893 -2.714,1.187c-0.994,0.294 -2.125,0.441 -3.391,0.441l0,0Zm3.765,-8.241c1.22,0 2.26,-0.203 3.12,-0.61c0.859,-0.43 1.548,-1.063 2.068,-1.899c0.543,-0.859 0.939,-1.922 1.187,-3.188c0.272,-1.266 0.419,-2.747 0.441,-4.443l0,-1.12c0,-1.831 -0.113,-3.459 -0.339,-4.883c-0.226,-1.424 -0.599,-2.611 -1.119,-3.561c-0.52,-0.972 -1.221,-1.707 -2.103,-2.204c-0.881,-0.498 -1.989,-0.747 -3.323,-0.747c-2.171,0 -3.765,0.984 -4.782,2.951c-1.017,1.944 -1.526,4.781 -1.526,8.512c0,3.73 0.509,6.534 1.526,8.41c1.04,1.854 2.657,2.781 4.85,2.781l-0,0.001Z" style="fill-rule:nonzero;"/><path id="path12561" d="M378.913,874.323c1.944,-0 3.719,0.418 5.324,1.255c1.605,0.836 2.984,2.08 4.137,3.73c1.153,1.651 2.046,3.697 2.68,6.138c0.655,2.442 0.983,5.268 0.983,8.479c0,3.255 -0.328,6.115 -0.983,8.58c-0.634,2.441 -1.538,4.488 -2.714,6.138c-1.175,1.65 -2.588,2.894 -4.239,3.73c-1.65,0.837 -3.47,1.255 -5.46,1.255c-1.266,0 -2.396,-0.136 -3.391,-0.407c-0.972,-0.272 -1.843,-0.634 -2.611,-1.086c-0.769,-0.452 -1.447,-0.96 -2.035,-1.526c-0.565,-0.588 -1.085,-1.198 -1.56,-1.831l-0.712,-0l-1.73,4.171l-7.902,0l0,-52.769l10.344,0l-0,12.277c-0,0.746 -0.023,1.56 -0.067,2.442c-0.045,0.859 -0.091,1.661 -0.136,2.408c-0.068,0.881 -0.136,1.763 -0.204,2.645l0.407,-0c0.475,-0.792 1.018,-1.526 1.628,-2.205c0.611,-0.678 1.311,-1.265 2.103,-1.763c0.814,-0.52 1.729,-0.927 2.747,-1.221c1.017,-0.294 2.148,-0.441 3.391,-0.441l-0,0.001Zm-3.493,8.275c-1.153,-0 -2.137,0.215 -2.951,0.645c-0.791,0.407 -1.436,1.028 -1.933,1.865c-0.497,0.836 -0.859,1.899 -1.085,3.188c-0.226,1.266 -0.362,2.747 -0.407,4.442l-0,1.12c-0,1.831 0.102,3.459 0.305,4.883c0.226,1.425 0.588,2.623 1.085,3.595c0.498,0.95 1.153,1.673 1.967,2.171c0.837,0.497 1.865,0.746 3.086,0.746c2.058,0 3.561,-0.972 4.511,-2.916c0.972,-1.967 1.458,-4.816 1.458,-8.547c0,-3.73 -0.486,-6.522 -1.458,-8.376c-0.95,-1.877 -2.476,-2.815 -4.578,-2.815l-0,-0.001Z" style="fill-rule:nonzero;"/><path id="path12563" d="M395.496,875.035l11.327,0l6.104,21.331c0.362,1.176 0.622,2.431 0.78,3.765c0.181,1.334 0.294,2.532 0.339,3.595l0.203,-0c0.047,-0.52 0.104,-1.097 0.17,-1.73c0.091,-0.633 0.192,-1.277 0.305,-1.933c0.113,-0.656 0.238,-1.3 0.373,-1.933c0.158,-0.656 0.317,-1.244 0.475,-1.764l5.969,-21.331l11.395,0l-14.99,42.765c-1.402,4.001 -3.312,6.974 -5.731,8.919c-2.42,1.944 -5.449,2.916 -9.089,2.916c-1.176,0 -2.193,-0.068 -3.052,-0.203c-0.859,-0.113 -1.594,-0.238 -2.205,-0.373l0,-8.207c0.475,0.113 1.074,0.215 1.798,0.305c0.723,0.09 1.481,0.135 2.272,0.135c1.085,0 2.012,-0.146 2.781,-0.44c0.768,-0.294 1.424,-0.712 1.967,-1.255c0.565,-0.52 1.04,-1.153 1.424,-1.899c0.407,-0.747 0.758,-1.583 1.051,-2.51l0.645,-1.899l-14.311,-38.254Z" style="fill-rule:nonzero;"/></g></g><g id="DragonFly-BSD1" serif:id="DragonFly BSD"><g id="DragonFly-BSD2" serif:id="DragonFly BSD"><g id="DragonFly-BSD3" serif:id="DragonFly BSD"><path id="path28407" d="M141.087,1123.12c-0,9.445 -1.35,17.03 -4.052,22.751c-2.701,5.72 -5.879,10.356 -9.537,13.901c-5.198,5.195 -12.474,7.791 -21.823,7.791l-39.145,0l-0,-92.12l30.143,0c4.534,0 8.413,0.299 11.642,0.896c3.228,0.596 6.131,1.437 8.714,2.518c2.582,1.081 4.781,2.298 6.594,3.645c1.812,1.347 3.435,2.795 4.866,4.339c2.473,2.569 4.641,5.603 6.506,9.101c1.865,3.5 3.348,7.554 4.446,12.16c1.097,4.607 1.646,9.615 1.646,15.018Zm-22.213,-1.197c0,-7.491 -1.126,-13.329 -3.379,-17.518c-2.252,-4.186 -4.959,-6.989 -8.117,-8.409c-3.159,-1.418 -6.379,-2.129 -9.659,-2.129l-9.323,0l-0,54.584l9.323,-0c5.725,-0 10.681,-1.728 14.87,-5.185c4.189,-3.458 6.285,-10.571 6.285,-21.343Z" style="fill:#fff;fill-rule:nonzero;"/><path id="path28540" d="M236.548,1125.4l13.481,-0" style="fill:none;fill-rule:nonzero;stroke:#000;stroke-width:8.21px;"/><path id="path28409" d="M198.148,1103.56l-6.955,24.072c-2.86,-3.455 -5.755,-5.183 -8.682,-5.183c-2.651,0 -4.943,1.141 -6.877,3.417c-1.937,2.278 -3.793,6.492 -5.569,12.637l0,29.059l-18.768,0l-0,-67.669l18.768,-0l0,16.417c1.183,-4.048 3.277,-7.999 6.275,-11.849c2.997,-3.848 6.518,-5.773 10.565,-5.773c2.125,-0 3.982,0.401 5.569,1.202c1.584,0.802 3.477,2.024 5.674,3.67Z" style="fill:#fff;fill-rule:nonzero;"/><path id="path28411" d="M258.028,1164.17c-2.75,1.378 -5.29,2.487 -7.619,3.328c-2.329,0.842 -5.131,1.265 -8.4,1.265c-3.097,-0 -5.254,-0.7 -6.47,-2.095c-1.219,-1.4 -2.088,-3.097 -2.611,-5.093c-2.029,2.088 -4.279,3.807 -6.76,5.16c-2.481,1.35 -5.728,2.029 -9.745,2.029c-3.879,0 -7.014,-0.852 -9.405,-2.555c-2.394,-1.703 -4.071,-3.85 -5.031,-6.438c-0.96,-2.589 -1.439,-5.257 -1.439,-8.002c-0,-4.16 0.829,-7.599 2.489,-10.321c1.657,-2.723 3.884,-4.945 6.681,-6.672c2.796,-1.728 6.5,-3.52 11.111,-5.378c2.62,-1.061 4.603,-1.866 5.948,-2.422c1.344,-0.555 2.348,-0.984 3.014,-1.296c0.661,-0.31 1.36,-0.708 2.095,-1.194c-0,-3.272 -0.525,-5.835 -1.575,-7.692c-1.049,-1.857 -3.32,-2.784 -6.812,-2.784c-4.124,0 -7.949,1.152 -11.48,3.455c-3.53,2.303 -6.76,5.27 -9.693,8.9l-0,-18.379c2.335,-2.142 4.864,-3.89 7.584,-5.252c2.718,-1.361 5.559,-2.376 8.524,-3.046c2.965,-0.666 5.962,-1.004 8.997,-1.004c7.706,0 13.503,1.897 17.391,5.685c3.887,3.788 5.832,9.007 5.832,15.652l0,26.125c0,2.483 0.183,4.333 0.548,5.552c0.365,1.219 1.036,1.827 2.016,1.827c1.183,-0 2.786,-0.641 4.81,-1.926l-0,12.571Zm-26.142,-12.962l-0,-16.022c-4.483,2.303 -7.754,4.375 -9.818,6.213c-2.066,1.84 -3.096,4.332 -3.096,7.474c-0,2.261 0.513,3.988 1.547,5.182c1.033,1.197 2.23,1.795 3.596,1.795c1.294,0 2.58,-0.452 3.859,-1.358c1.278,-0.906 2.582,-2.002 3.912,-3.284Z" style="fill:#fff;fill-rule:nonzero;"/><path id="path28413" d="M318.89,1114.39l-9.291,-0c3.263,3.635 4.897,8.09 4.897,13.363c-0,2.792 -0.463,5.473 -1.383,8.042c-0.923,2.572 -2.279,4.853 -4.071,6.847c-1.792,1.996 -3.997,3.625 -6.624,4.889c-2.627,1.265 -5.626,2.029 -9,2.292c-4.386,0.221 -6.577,1.7 -6.577,4.44c-0,1.061 0.28,1.835 0.839,2.32c0.559,0.487 1.445,0.852 2.656,1.095c1.208,0.242 3.249,0.519 6.123,0.826c3.234,0.356 6.238,0.977 9.021,1.863c2.782,0.888 5.369,2.749 7.77,5.585c2.4,2.834 3.6,6.891 3.6,12.164c-0,4.208 -0.898,7.931 -2.693,11.167c-1.795,3.234 -4.695,5.761 -8.703,7.579c-4.009,1.816 -9.307,2.726 -15.893,2.726c-9.481,0 -16.441,-1.623 -20.885,-4.858c-4.445,-3.243 -6.664,-7.571 -6.664,-12.987c-0,-1.465 0.285,-3.151 0.86,-5.059c0.576,-1.913 1.795,-3.753 3.659,-5.529c1.864,-1.775 4.573,-2.975 8.13,-3.594c-1.256,-0.573 -2.338,-1.687 -3.243,-3.342c-0.906,-1.654 -1.358,-3.387 -1.358,-5.194c0,-2.338 0.635,-4.655 1.908,-6.95c1.27,-2.292 3.336,-3.771 6.193,-4.434c-3.971,-1.332 -7.404,-3.839 -10.296,-7.525c-2.893,-3.686 -4.337,-8.459 -4.337,-14.319c0,-4.44 0.67,-8.322 2.013,-11.652c1.34,-3.331 3.195,-6.038 5.566,-8.125c2.371,-2.087 5.123,-3.629 8.26,-4.63c3.136,-0.998 6.57,-1.498 10.299,-1.498l29.224,-0l-0,14.498Zm-17.003,65.775c0,-2.959 -1.248,-4.869 -3.745,-5.73c-2.498,-0.861 -5.075,-1.292 -7.727,-1.292c-4.363,-0 -7.516,0.584 -9.453,1.756c-1.937,1.168 -2.905,3.035 -2.905,5.597c-0,5.033 4.014,7.551 12.047,7.551c3.594,0 6.458,-0.654 8.587,-1.953c2.131,-1.303 3.196,-3.281 3.196,-5.929Zm-3.749,-54.313c-0,-3.419 -0.92,-6.162 -2.755,-8.228c-1.835,-2.066 -3.89,-3.099 -6.162,-3.099c-2.902,-0 -5.185,1.245 -6.845,3.732c-1.662,2.486 -2.491,5.106 -2.491,7.861c-0,1.91 0.358,3.686 1.073,5.329c0.715,1.644 1.73,2.965 3.042,3.963c1.31,1.002 2.877,1.499 4.695,1.499c2.727,0 4.982,-1.087 6.766,-3.263c1.783,-2.177 2.677,-4.776 2.677,-7.794Z" style="fill:#fff;fill-rule:nonzero;"/><path id="path28415" d="M384.483,1133.66c0,6.74 -1.151,12.747 -3.449,18.02c-2.298,5.273 -5.736,9.442 -10.315,12.5c-4.578,3.058 -10.159,4.587 -16.739,4.587c-6.58,-0 -12.16,-1.528 -16.739,-4.587c-4.579,-3.057 -8.009,-7.224 -10.292,-12.5c-2.281,-5.273 -3.418,-11.28 -3.418,-18.02c-0,-5.095 0.635,-9.729 1.905,-13.896c1.27,-4.164 3.204,-7.856 5.797,-11.068c2.594,-3.213 5.79,-5.685 9.586,-7.416c3.794,-1.727 8.181,-2.593 13.162,-2.593c5.016,-0 9.446,0.877 13.293,2.625c3.848,1.751 7.032,4.2 9.557,7.348c2.525,3.147 4.432,6.828 5.72,11.039c1.288,4.211 1.932,8.864 1.932,13.961Zm-19.801,-0c-0,-5.335 -0.915,-9.513 -2.741,-12.535c-1.827,-3.018 -4.48,-4.531 -7.961,-4.531c-3.446,0 -6.083,1.513 -7.91,4.531c-1.826,3.021 -2.738,7.2 -2.738,12.535c0,5.295 0.92,9.484 2.766,12.57c1.846,3.088 4.471,4.629 7.883,4.629c3.481,0 6.134,-1.53 7.961,-4.598c1.825,-3.065 2.74,-7.263 2.74,-12.601Z" style="fill:#fff;fill-rule:nonzero;"/><path id="path28417" d="M451.169,1167.56l-18.768,0l-0,-36.54c-0,-3.726 -0.482,-6.976 -1.445,-9.75c-0.963,-2.772 -3.075,-4.16 -6.334,-4.16c-1.541,-0 -2.899,0.366 -4.073,1.098c-1.174,0.731 -2.225,1.676 -3.153,2.83c-0.929,1.155 -1.708,2.264 -2.338,3.328c-0.629,1.065 -1.278,2.196 -1.942,3.393l-0,39.803l-18.768,-0l-0,-67.67l18.768,0l-0,9.665c2.964,-4.02 5.941,-6.837 8.925,-8.451c2.983,-1.612 6.306,-2.419 9.97,-2.419c12.771,0 19.158,9.707 19.158,29.119l0,39.754Z" style="fill:#fff;fill-rule:nonzero;"/><path id="path28419" d="M512.469,1131.54l-30.07,-0l-0,37.192l-21.868,0l-0,-92.12l51.938,0l0,18.424l-30.07,0l-0,17.908l30.07,-0l0,18.596Z" style="fill:#fff;fill-rule:nonzero;"/><rect id="path28421" x="525.109" y="1076.61" width="18.768" height="92.12" style="fill:#fff;fill-rule:nonzero;"/><path id="path28423" d="M613.882,1101.06l-36.188,98.491l-19.034,-0l14.641,-39.635l-21.074,-58.856l20.236,-0l10.826,33.576l12.29,-33.576l18.303,-0Z" style="fill:#fff;fill-rule:nonzero;"/><path id="path28425" d="M688.724,1142.6c0,7.937 -2.139,14.275 -6.413,19.016c-4.278,4.743 -10.256,7.113 -17.935,7.113l-41.944,0l0,-92.12l35.078,0c4.536,0 8.488,0.554 11.856,1.663c3.368,1.109 6.081,2.623 8.141,4.55c2.058,1.925 3.594,4.197 4.607,6.811c1.012,2.615 1.52,5.47 1.52,8.57c0,3.368 -0.524,6.478 -1.574,9.335c-1.05,2.857 -2.354,5.206 -3.909,7.043c-1.558,1.841 -3.125,3.134 -4.698,3.888c4.966,2.483 8.754,5.62 11.362,9.408c2.605,3.789 3.909,8.696 3.909,14.723Zm-25.596,-39.474c-0,-4.423 -1.152,-7.367 -3.452,-8.827c-2.304,-1.461 -5.892,-2.193 -10.772,-2.193l-4.604,0l-0,22.04l4.708,-0c4.983,-0 8.582,-0.729 10.797,-2.19c2.215,-1.462 3.323,-4.404 3.323,-8.83Zm3.556,38.344c0,-7.883 -4.499,-11.827 -13.492,-11.827l-8.892,-0l-0,23.589l8.892,0c8.993,0 13.492,-3.92 13.492,-11.762Z" style="fill:#ed1c24;fill-rule:nonzero;"/><path id="path28427" d="M753.3,1141.88c-0,5.778 -1.16,10.777 -3.478,14.999c-2.319,4.222 -5.553,7.452 -9.702,9.696c-4.149,2.244 -8.908,3.366 -14.275,3.366c-1.502,-0 -3.339,-0.124 -5.518,-0.367c-2.179,-0.248 -5.075,-0.923 -8.683,-2.037c-3.61,-1.115 -7.366,-2.761 -11.27,-4.945l-0,-22.656c3.658,2.879 7.259,5.27 10.796,7.175c3.538,1.905 7.329,2.855 11.373,2.855c3.729,-0 6.145,-0.783 7.243,-2.352c1.098,-1.569 1.646,-3.037 1.646,-4.409c0,-2.476 -0.948,-4.564 -2.839,-6.264c-1.894,-1.7 -4.643,-3.457 -8.254,-5.27c-3.963,-2.123 -7.438,-4.434 -10.425,-6.933c-2.989,-2.497 -5.428,-5.626 -7.323,-9.386c-1.894,-3.761 -2.841,-8.206 -2.841,-13.337c-0,-4.954 0.957,-9.433 2.876,-13.436c1.916,-4.003 4.846,-7.198 8.784,-9.586c3.938,-2.389 8.753,-3.584 14.435,-3.584c4.044,-0 7.783,0.5 11.217,1.495c3.433,0.999 6.266,2.118 8.499,3.359c2.23,1.24 3.763,2.213 4.601,2.921l-0,21.594c-2.97,-2.701 -6.283,-5.115 -9.933,-7.24c-3.651,-2.125 -7.554,-3.188 -11.714,-3.188c-2.727,0 -4.7,0.664 -5.922,1.988c-1.225,1.327 -1.835,2.962 -1.835,4.905c-0,1.813 0.613,3.382 1.84,4.709c1.228,1.326 3.416,2.938 6.572,4.838c5.583,3.314 10.049,6.297 13.399,8.951c3.35,2.653 5.976,5.711 7.878,9.179c1.9,3.47 2.853,7.789 2.853,12.96Z" style="fill:#ed1c24;fill-rule:nonzero;"/><path id="path28429" d="M842.779,1124.29c0,9.445 -1.35,17.03 -4.051,22.75c-2.701,5.721 -5.879,10.357 -9.538,13.902c-5.197,5.195 -12.473,7.791 -21.822,7.791l-39.146,0l0,-92.12l30.144,0c4.533,0 8.412,0.299 11.641,0.896c3.229,0.596 6.131,1.436 8.714,2.518c2.583,1.081 4.782,2.297 6.594,3.645c1.813,1.347 3.436,2.794 4.867,4.339c2.473,2.569 4.641,5.603 6.506,9.101c1.865,3.5 3.347,7.554 4.445,12.16c1.098,4.607 1.646,9.615 1.646,15.018Zm-22.212,-1.197c0,-7.491 -1.127,-13.329 -3.379,-17.518c-2.252,-4.186 -4.959,-6.989 -8.117,-8.41c-3.159,-1.417 -6.38,-2.128 -9.659,-2.128l-9.323,0l-0,54.584l9.323,-0c5.724,-0 10.681,-1.728 14.87,-5.185c4.189,-3.458 6.285,-10.571 6.285,-21.343Z" style="fill:#ed1c24;fill-rule:nonzero;"/></g></g><g id="Logo"><circle id="circle28468" cx="454.987" cy="352.559" r="194.892" style="fill:url(#_Radial2);stroke:#000;stroke-width:17px;"/><g id="g28501"><g id="g28483"><g id="XMLID_2_"><g id="g28472"><path id="path28470" d="M437.637,410.964l34.7,0c0,131.005 -11.598,394.518 -17.359,394.518c-5.742,0 -17.341,-263.513 -17.341,-394.518Z" style="fill:#ed1c24;fill-rule:nonzero;"/></g><g id="g28480"><path id="path28474" d="M437.637,410.964c0,131.005 11.599,394.518 17.341,394.518" style="fill:none;fill-rule:nonzero;stroke:#000;stroke-width:11.34px;"/><path id="path28476" d="M472.337,410.964c0,131.005 -11.598,394.518 -17.359,394.518" style="fill:none;fill-rule:nonzero;stroke:#000;stroke-width:11.34px;"/><path id="path28478" d="M437.637,410.964l34.7,0" style="fill:none;fill-rule:nonzero;stroke:#000;stroke-width:11.34px;"/></g></g></g><path id="path28485" d="M437.932,455.763l34.135,-0" style="fill:none;fill-rule:nonzero;stroke:#000;stroke-width:11.34px;"/><path id="path28487" d="M438.721,494.868l32.495,0" style="fill:none;fill-rule:nonzero;stroke:#000;stroke-width:11.34px;"/><path id="path28489" d="M439.71,533.972l30.557,0" style="fill:none;fill-rule:nonzero;stroke:#000;stroke-width:11.34px;"/><path id="path28491" d="M440.909,573.044l28.156,-0" style="fill:none;fill-rule:nonzero;stroke:#000;stroke-width:11.34px;"/><path id="path28493" d="M442.372,612.111l25.301,0" style="fill:none;fill-rule:nonzero;stroke:#000;stroke-width:11.34px;"/><g id="g28499"><path id="path28495" d="M443.885,651.13l22.206,-0" style="fill:none;fill-rule:nonzero;stroke:#000;stroke-width:11.34px;"/><path id="path28497" d="M445.678,690.15l18.617,-0" style="fill:none;fill-rule:nonzero;stroke:#000;stroke-width:11.34px;"/></g></g><g id="g28511"><g id="g28505"><ellipse id="ellipse28503" cx="454.98" cy="352.559" rx="32.476" ry="76.569" style="fill:#ed1c24;"/></g><g id="g28509"><ellipse id="ellipse28507" cx="454.987" cy="352.559" rx="32.466" ry="76.569" style="fill:none;stroke:#000;stroke-width:11.34px;"/></g></g><g id="XMLID_1_"><g id="g28529"><path id="path28513" d="M487.423,269.978c0,7.739 -3.879,14.736 -10.113,19.68l-0.019,-0l-13.255,-45.729c13.521,3.271 23.387,13.69 23.387,26.049Z" style="fill:#fde92b;fill-rule:nonzero;"/><path id="path28515" d="M464.038,243.929l13.254,45.729c-5.002,-0 -13.425,-23.482 -18.367,-46.603c1.747,0.171 3.459,0.456 5.113,0.874Z" style="fill:#fde92b;fill-rule:nonzero;"/><path id="path28517" d="M477.291,289.658c-5.821,4.62 -13.671,7.453 -22.325,7.453c-8.651,0 -16.504,-2.833 -22.322,-7.453c5.001,-0 13.424,-23.482 18.368,-46.603c1.292,-0.133 2.604,-0.209 3.954,-0.209c1.35,-0 2.662,0.076 3.957,0.209c4.944,23.121 13.367,46.603 18.368,46.603Z" style="fill:#9a090d;fill-rule:nonzero;"/><path id="path28519" d="M454.968,212.633l9.07,31.296c-1.654,-0.418 -3.366,-0.703 -5.113,-0.874c-2.379,-11.104 -3.957,-22.113 -3.957,-30.422Z" style="fill:#9a090d;fill-rule:nonzero;"/><path id="path28521" d="M458.923,243.055c-1.295,-0.133 -2.605,-0.209 -3.957,-0.209c-1.35,-0 -2.662,0.076 -3.954,0.209c2.376,-11.104 3.954,-22.113 3.954,-30.422c0.002,8.309 1.58,19.318 3.957,30.422Z" style="fill-rule:nonzero;"/><path id="path28523" d="M445.899,243.929l9.069,-31.296c0,8.309 -1.578,19.318 -3.955,30.422c-1.749,0.171 -3.46,0.475 -5.114,0.874Z" style="fill-rule:nonzero;"/><path id="path28525" d="M451.013,243.055c-4.943,23.121 -13.366,46.603 -18.367,46.603l13.253,-45.729c1.654,-0.399 3.365,-0.703 5.114,-0.874Z" style="fill:#fde92b;fill-rule:nonzero;"/><path id="path28527" d="M445.899,243.929l-13.253,45.729c-6.236,-4.944 -10.115,-11.941 -10.115,-19.68c-0,-12.34 9.868,-22.778 23.368,-26.049Z" style="fill:#fde92b;fill-rule:nonzero;"/></g><g id="g28537"><path id="path28531" d="M451.013,243.055c1.293,-0.133 2.605,-0.209 3.955,-0.209c1.35,-0 2.662,0.076 3.957,0.209c1.749,0.171 3.459,0.456 5.113,0.874c13.519,3.271 23.387,13.69 23.387,26.049c-0,7.739 -3.879,14.736 -10.114,19.68l-0.019,-0c-5.82,4.62 -13.67,7.453 -22.324,7.453c-8.651,0 -16.504,-2.833 -22.322,-7.453c-6.236,-4.944 -10.115,-11.941 -10.115,-19.68c-0,-12.34 9.868,-22.778 23.368,-26.049c1.654,-0.399 3.365,-0.703 5.114,-0.874Z" style="fill:none;fill-rule:nonzero;stroke:#000;stroke-width:10.63px;"/><path id="path28533" d="M432.646,289.658c5.001,-0 13.424,-23.482 18.367,-46.603c2.377,-11.104 3.955,-22.113 3.955,-30.422" style="fill:none;fill-rule:nonzero;stroke:#000;stroke-width:10.63px;"/><path id="path28535" d="M454.968,212.633c0,8.309 1.578,19.318 3.957,30.422c4.944,23.121 13.365,46.603 18.367,46.603" style="fill:none;fill-rule:nonzero;stroke:#000;stroke-width:10.63px;"/></g></g><path id="path28542" d="M454.968,340.636c0,-0 -192.631,23.634 -257.291,-98.095c-58.086,-109.343 257.322,84.306 257.322,84.306l-0.031,13.789Z" style="fill:#fff;fill-rule:nonzero;stroke:#000;stroke-width:11.34px;"/><g id="g28546"><path id="path28544" d="M454.999,376.952c-0,0 -152.695,113.104 -264.093,35.115c-100.074,-70.047 264.093,-48.333 264.093,-48.333l-0,13.218Z" style="fill:#fff;fill-rule:nonzero;stroke:#000;stroke-width:11.34px;"/></g><path id="path28548" d="M454.999,340.537c-0,-0 192.631,23.634 257.289,-98.095c58.086,-109.342 -257.32,84.306 -257.32,84.306l0.031,13.789Z" style="fill:#fff;fill-rule:nonzero;stroke:#000;stroke-width:11.34px;"/><path id="path28550" d="M454.968,376.853c0,0 152.695,113.104 264.093,35.115c100.072,-70.047 -264.093,-48.333 -264.093,-48.333l0,13.218Z" style="fill:#fff;fill-rule:nonzero;stroke:#000;stroke-width:11.34px;"/></g></g></g><defs><radialGradient id="_Radial2" cx="0" cy="0" r="1" gradientUnits="userSpaceOnUse" gradientTransform="matrix(194.892,0,0,194.892,454.987,352.559)"><stop offset="0" style="stop-color:#fff;stop-opacity:1"/><stop offset="0.04" style="stop-color:#f7f9d8;stop-opacity:1"/><stop offset="0.09" style="stop-color:#eff2b2;stop-opacity:1"/><stop offset="0.14" style="stop-color:#e8ed91;stop-opacity:1"/><stop offset="0.2" style="stop-color:#e2e976;stop-opacity:1"/><stop offset="0.26" style="stop-color:#dde562;stop-opacity:1"/><stop offset="0.33" style="stop-color:#dae353;stop-opacity:1"/><stop offset="0.41" style="stop-color:#d9e14b;stop-opacity:1"/><stop offset="0.54" style="stop-color:#d8e148;stop-opacity:1"/><stop offset="0.68" style="stop-color:#d6e048;stop-opacity:1"/><stop offset="0.75" style="stop-color:#cfdd47;stop-opacity:1"/><stop offset="0.8" style="stop-color:#c2d946;stop-opacity:1"/><stop offset="0.84" style="stop-color:#b1d245;stop-opacity:1"/><stop offset="0.88" style="stop-color:#99ca44;stop-opacity:1"/><stop offset="0.92" style="stop-color:#7bc143;stop-opacity:1"/><stop offset="0.93" style="stop-color:#75c044;stop-opacity:1"/><stop offset="1" style="stop-color:#073800;stop-opacity:1"/></radialGradient></defs></svg>