<?xml version="1.0" encoding="UTF-8" standalone="no"?><!DOCTYPE svg PUBLIC "-//W3C//DTD SVG 1.1//EN" "http://www.w3.org/Graphics/SVG/1.1/DTD/svg11.dtd"><svg width="100%" height="100%" viewBox="0 0 907 1352" version="1.1" xmlns="http://www.w3.org/2000/svg" xmlns:xlink="http://www.w3.org/1999/xlink" xml:space="preserve" xmlns:serif="http://www.serif.com/" style="fill-rule:evenodd;clip-rule:evenodd;"><rect id="Edubuntu" x="0" y="0" width="906.667" height="1351.11" style="fill:none;"/><clipPath id="_clip1"><rect x="0" y="0" width="906.667" height="1351.11"/></clipPath><g clip-path="url(#_clip1)"><g><g id="Frame"><path id="path36023" d="M363.226,8.892l180.223,-0c196.3,-0 354.331,36.928 354.331,82.799l0,1167.73c0,45.871 -158.031,82.8 -354.331,82.8l-180.223,-0c-196.299,-0 -354.331,-36.929 -354.331,-82.8l0,-1167.73c0,-45.871 158.032,-82.799 354.331,-82.799Z" style="fill:#fff;fill-rule:nonzero;"/><path id="path36025" d="M363.234,0c-98.707,0 -187.781,9.234 -252.806,24.429c-32.512,7.598 -58.999,16.618 -78.086,27.198c-9.544,5.29 -17.286,10.978 -22.976,17.509c-5.69,6.53 -9.366,14.275 -9.366,22.561l0,1167.72c0,8.285 3.676,16.03 9.366,22.56c5.69,6.531 13.432,12.219 22.976,17.509c19.087,10.581 45.574,19.6 78.086,27.198c65.025,15.195 154.099,24.429 252.806,24.429l180.209,0c98.707,0 187.781,-9.234 252.806,-24.429c32.512,-7.598 58.999,-16.617 78.086,-27.198c9.544,-5.29 17.286,-10.978 22.976,-17.509c5.69,-6.53 9.366,-14.275 9.366,-22.56l-0,-1167.72c-0,-8.286 -3.676,-16.031 -9.366,-22.561c-5.69,-6.531 -13.432,-12.219 -22.976,-17.509c-19.087,-10.58 -45.574,-19.6 -78.086,-27.198c-65.025,-15.195 -154.099,-24.429 -252.806,-24.429l-180.209,0Zm-0,17.786l180.209,-0c97.593,-0 185.703,9.231 248.769,23.968c31.533,7.368 56.818,16.176 73.496,25.421c8.339,4.622 14.481,9.365 18.201,13.633c3.719,4.269 4.982,7.706 4.982,10.889l0,1167.72c0,3.182 -1.263,6.619 -4.982,10.888c-3.72,4.269 -9.862,9.011 -18.201,13.633c-16.678,9.245 -41.963,18.053 -73.496,25.421c-63.066,14.738 -151.176,23.969 -248.769,23.969l-180.209,-0c-97.593,-0 -185.703,-9.231 -248.769,-23.969c-31.533,-7.368 -56.818,-16.176 -73.496,-25.421c-8.339,-4.622 -14.481,-9.364 -18.201,-13.633c-3.719,-4.269 -4.982,-7.706 -4.982,-10.888l-0,-1167.72c-0,-3.183 1.263,-6.62 4.982,-10.889c3.72,-4.268 9.862,-9.011 18.201,-13.633c16.678,-9.245 41.963,-18.053 73.496,-25.421c63.066,-14.737 151.176,-23.968 248.769,-23.968Z" style="fill-rule:nonzero;"/></g><g id="Bottom"><path id="path35979" d="M371.606,946.173l163.464,0c199.608,0 360.304,38.151 360.304,85.54l-0,218.99c-0,47.389 -160.696,85.54 -360.304,85.54l-163.464,-0c-199.609,-0 -360.304,-38.151 -360.304,-85.54l-0,-218.99c-0,-47.389 160.695,-85.54 360.304,-85.54Z" style="fill-rule:nonzero;"/><path id="path35981" d="M371.607,938.419c-100.298,0 -190.804,9.547 -256.796,25.214c-32.996,7.833 -59.838,17.123 -79.078,27.958c-19.241,10.836 -32.18,23.883 -32.18,40.116l-0,218.988c-0,16.233 12.939,29.303 32.18,40.139c19.24,10.835 46.082,20.125 79.078,27.958c65.992,15.667 156.498,25.214 256.796,25.214l163.463,0c100.298,0 190.804,-9.547 256.796,-25.214c32.996,-7.833 59.838,-17.123 79.078,-27.958c19.241,-10.836 32.18,-23.906 32.18,-40.139l0,-218.988c0,-16.233 -12.939,-29.28 -32.18,-40.116c-19.24,-10.835 -46.082,-20.125 -79.078,-27.958c-65.992,-15.667 -156.498,-25.214 -256.796,-25.214l-163.463,0Zm0,15.525l163.463,-0c99.309,-0 188.962,9.52 253.22,24.775c32.129,7.628 57.914,16.745 75.042,26.39c17.127,9.646 24.291,19.137 24.291,26.598l-0,218.988c-0,7.461 -7.164,16.952 -24.291,26.598c-17.128,9.645 -42.913,18.762 -75.042,26.39c-64.258,15.255 -153.911,24.798 -253.22,24.798l-163.463,0c-99.309,0 -188.962,-9.543 -253.22,-24.798c-32.129,-7.628 -57.914,-16.745 -75.042,-26.39c-17.127,-9.646 -24.291,-19.137 -24.291,-26.598l0,-218.988c0,-7.461 7.164,-16.952 24.291,-26.598c17.128,-9.645 42.913,-18.762 75.042,-26.39c64.258,-15.255 153.911,-24.775 253.22,-24.775Z" style="fill-rule:nonzero;"/></g><g id="Powered-By" serif:id="Powered By"><path id="path12547" d="M59.756,886.701l2.069,0c2.962,0 5.189,-0.588 6.681,-1.763c1.515,-1.176 2.272,-3.086 2.272,-5.732c-0,-2.464 -0.678,-4.284 -2.035,-5.46c-1.334,-1.175 -3.436,-1.763 -6.308,-1.763l-2.679,-0l0,14.718Zm21.671,-7.868c-0,2.171 -0.328,4.251 -0.984,6.24c-0.656,1.99 -1.741,3.742 -3.256,5.257c-1.492,1.515 -3.47,2.724 -5.934,3.629c-2.442,0.904 -5.472,1.356 -9.089,1.356l-2.408,0l0,17.635l-10.513,-0l0,-49.581l13.769,-0c3.188,-0 5.935,0.362 8.241,1.085c2.328,0.701 4.239,1.719 5.731,3.053c1.515,1.311 2.634,2.927 3.357,4.849c0.724,1.899 1.086,4.058 1.086,6.478l-0,-0.001Z" style="fill-rule:nonzero;"/><path id="path12549" d="M98.587,893.925c-0,3.775 0.531,6.624 1.594,8.546c1.062,1.899 2.792,2.848 5.188,2.848c2.374,0 4.093,-0.96 5.155,-2.882c1.063,-1.922 1.594,-4.759 1.594,-8.512c0,-3.776 -0.531,-6.591 -1.594,-8.445c-1.062,-1.876 -2.803,-2.814 -5.223,-2.814c-2.373,-0 -4.092,0.938 -5.154,2.814c-1.04,1.854 -1.56,4.669 -1.56,8.445Zm24.078,-0c0,3.165 -0.407,5.968 -1.221,8.41c-0.791,2.442 -1.944,4.499 -3.459,6.172c-1.492,1.673 -3.323,2.951 -5.494,3.833c-2.148,0.859 -4.567,1.288 -7.257,1.288c-2.51,0 -4.816,-0.429 -6.919,-1.288c-2.102,-0.882 -3.922,-2.16 -5.46,-3.833c-1.514,-1.673 -2.701,-3.73 -3.56,-6.172c-0.86,-2.442 -1.289,-5.245 -1.289,-8.41c-0,-3.143 0.395,-5.935 1.187,-8.377c0.814,-2.442 1.967,-4.488 3.459,-6.138c1.515,-1.673 3.346,-2.939 5.494,-3.798c2.148,-0.86 4.578,-1.289 7.291,-1.289c2.51,-0 4.816,0.429 6.918,1.289c2.103,0.859 3.912,2.125 5.427,3.798c1.537,1.65 2.735,3.696 3.594,6.138c0.859,2.442 1.289,5.234 1.289,8.377Z" style="fill-rule:nonzero;"/><path id="path12551" d="M160.546,912.95l-2.917,-13.26c-0.09,-0.384 -0.214,-0.927 -0.373,-1.628c-0.135,-0.724 -0.293,-1.526 -0.474,-2.408c-0.181,-0.904 -0.373,-1.854 -0.577,-2.848c-0.181,-1.018 -0.373,-2.024 -0.576,-3.019c-0.453,-2.328 -0.95,-4.838 -1.492,-7.528l-0.204,-0c-0.52,2.69 -0.995,5.211 -1.424,7.562c-0.181,0.995 -0.373,2.001 -0.577,3.019c-0.181,1.017 -0.362,1.978 -0.542,2.882c-0.181,0.882 -0.351,1.684 -0.509,2.408c-0.136,0.723 -0.249,1.289 -0.339,1.696l-3.052,13.124l-11.124,-0l-10.208,-37.915l10.276,0l3.832,16.787c0.203,0.882 0.407,1.944 0.61,3.188c0.226,1.221 0.43,2.464 0.611,3.73c0.203,1.244 0.384,2.431 0.542,3.561c0.159,1.108 0.283,1.99 0.373,2.645l0.204,0c0.023,-0.429 0.068,-0.983 0.136,-1.661c0.09,-0.701 0.192,-1.447 0.305,-2.239c0.113,-0.791 0.226,-1.593 0.339,-2.407c0.135,-0.837 0.26,-1.617 0.373,-2.34c0.136,-0.724 0.249,-1.357 0.339,-1.9c0.113,-0.565 0.204,-0.961 0.271,-1.187l4.138,-18.177l11.395,0l3.967,18.177c0.113,0.498 0.26,1.267 0.441,2.307c0.181,1.04 0.362,2.159 0.543,3.357c0.203,1.176 0.373,2.329 0.509,3.459c0.135,1.108 0.214,1.978 0.237,2.611l0.203,0c0.068,-0.565 0.181,-1.401 0.34,-2.509c0.18,-1.108 0.373,-2.295 0.576,-3.561c0.203,-1.289 0.418,-2.566 0.644,-3.832c0.249,-1.266 0.475,-2.34 0.679,-3.222l3.968,-16.787l10.14,0l-10.344,37.915l-11.259,-0Z" style="fill-rule:nonzero;"/><path id="path12553" d="M202.903,881.682c-1.831,0 -3.357,0.644 -4.578,1.933c-1.198,1.289 -1.888,3.312 -2.068,6.071l13.192,-0c-0.023,-1.153 -0.17,-2.216 -0.441,-3.188c-0.272,-0.972 -0.678,-1.809 -1.221,-2.51c-0.543,-0.723 -1.221,-1.289 -2.035,-1.695c-0.814,-0.408 -1.763,-0.611 -2.849,-0.611l0,0Zm1.323,31.946c-2.713,0 -5.211,-0.395 -7.495,-1.187c-2.283,-0.791 -4.25,-1.978 -5.901,-3.561c-1.65,-1.605 -2.939,-3.617 -3.866,-6.036c-0.904,-2.442 -1.356,-5.302 -1.356,-8.58c-0,-3.324 0.418,-6.229 1.255,-8.716c0.836,-2.487 2,-4.555 3.493,-6.206c1.514,-1.673 3.323,-2.928 5.426,-3.764c2.125,-0.837 4.476,-1.255 7.054,-1.255c2.509,-0 4.77,0.384 6.782,1.153c2.035,0.746 3.753,1.854 5.155,3.323c1.424,1.47 2.51,3.278 3.256,5.426c0.768,2.125 1.153,4.567 1.153,7.325l-0,5.02l-23.129,-0c0.045,1.447 0.271,2.758 0.678,3.934c0.43,1.153 1.018,2.136 1.764,2.95c0.768,0.791 1.684,1.402 2.747,1.831c1.085,0.43 2.317,0.645 3.696,0.645c1.153,0 2.239,-0.057 3.256,-0.17c1.04,-0.135 2.046,-0.328 3.018,-0.576c0.972,-0.249 1.933,-0.554 2.883,-0.916c0.949,-0.384 1.922,-0.825 2.916,-1.322l0,8.003c-0.904,0.475 -1.82,0.882 -2.747,1.221c-0.904,0.317 -1.865,0.588 -2.882,0.814c-1.018,0.226 -2.114,0.384 -3.29,0.475c-1.175,0.113 -2.464,0.17 -3.866,0.17l0,-0.001Z" style="fill-rule:nonzero;"/><path id="path12555" d="M247.703,874.323c0.271,-0 0.565,0.012 0.881,0.035c0.34,0 0.656,0.024 0.95,0.071c0.317,0.024 0.599,0.059 0.848,0.106c0.271,0.024 0.475,0.059 0.61,0.107l0,9.699c-0.181,-0.047 -0.429,-0.093 -0.746,-0.136c-0.316,-0.047 -0.656,-0.083 -1.017,-0.106c-0.339,-0.047 -0.679,-0.071 -1.018,-0.071c-0.339,-0.024 -0.621,-0.036 -0.847,-0.036c-1.334,0 -2.567,0.17 -3.697,0.51c-1.108,0.339 -2.069,0.893 -2.883,1.661c-0.791,0.747 -1.413,1.742 -1.865,2.985c-0.429,1.22 -0.644,2.724 -0.644,4.51l-0,19.297l-10.344,-0l0,-37.915l7.834,-0l1.526,5.697l0.509,0c0.543,-0.972 1.13,-1.854 1.763,-2.645c0.633,-0.791 1.334,-1.458 2.103,-2.001c0.791,-0.565 1.673,-0.995 2.645,-1.289c0.995,-0.316 2.125,-0.474 3.392,-0.474l-0,-0.005Z" style="fill-rule:nonzero;"/><path id="path12557" d="M273.409,881.682c-1.831,0 -3.358,0.644 -4.578,1.933c-1.199,1.289 -1.888,3.312 -2.069,6.071l13.192,-0c-0.023,-1.153 -0.17,-2.216 -0.441,-3.188c-0.271,-0.972 -0.678,-1.809 -1.221,-2.51c-0.542,-0.723 -1.221,-1.289 -2.034,-1.695c-0.814,-0.408 -1.764,-0.611 -2.849,-0.611l-0,0Zm1.322,31.946c-2.713,0 -5.211,-0.395 -7.494,-1.187c-2.284,-0.791 -4.251,-1.978 -5.901,-3.561c-1.651,-1.605 -2.939,-3.617 -3.866,-6.036c-0.905,-2.442 -1.357,-5.302 -1.357,-8.58c0,-3.324 0.418,-6.229 1.255,-8.716c0.836,-2.487 2.001,-4.555 3.493,-6.206c1.515,-1.673 3.323,-2.928 5.426,-3.764c2.125,-0.837 4.477,-1.255 7.054,-1.255c2.51,-0 4.77,0.384 6.783,1.153c2.034,0.746 3.753,1.854 5.154,3.323c1.425,1.47 2.51,3.278 3.256,5.426c0.769,2.125 1.153,4.567 1.153,7.325l0,5.02l-23.129,-0c0.045,1.447 0.271,2.758 0.679,3.934c0.429,1.153 1.017,2.136 1.763,2.95c0.769,0.791 1.685,1.402 2.747,1.831c1.085,0.43 2.318,0.645 3.697,0.645c1.153,0 2.238,-0.057 3.255,-0.17c1.04,-0.135 2.046,-0.328 3.019,-0.576c0.972,-0.249 1.933,-0.554 2.882,-0.916c0.95,-0.384 1.922,-0.825 2.917,-1.322l-0,8.003c-0.905,0.475 -1.82,0.882 -2.747,1.221c-0.905,0.317 -1.865,0.588 -2.883,0.814c-1.017,0.226 -2.114,0.384 -3.289,0.475c-1.176,0.113 -2.465,0.17 -3.867,0.17l0,-0.001Z" style="fill-rule:nonzero;"/><path id="path12559" d="M309.594,913.628c-1.944,0 -3.719,-0.418 -5.324,-1.255c-1.605,-0.836 -2.985,-2.068 -4.138,-3.696c-1.153,-1.651 -2.057,-3.697 -2.713,-6.138c-0.633,-2.442 -0.949,-5.268 -0.949,-8.479c-0,-3.255 0.316,-6.104 0.949,-8.546c0.656,-2.464 1.572,-4.521 2.747,-6.172c1.199,-1.673 2.623,-2.928 4.273,-3.764c1.651,-0.837 3.471,-1.255 5.46,-1.255c1.221,-0 2.34,0.147 3.358,0.44c1.017,0.272 1.933,0.668 2.747,1.187c0.814,0.498 1.537,1.086 2.17,1.764c0.656,0.656 1.232,1.379 1.73,2.17l0.339,0c-0.136,-0.881 -0.26,-1.774 -0.373,-2.679c-0.113,-0.768 -0.215,-1.582 -0.305,-2.442c-0.068,-0.881 -0.102,-1.695 -0.102,-2.441l0,-12.141l10.344,-0l-0,52.769l-7.902,-0l-2.001,-4.918l-0.441,0c-0.475,0.769 -1.018,1.504 -1.628,2.205c-0.61,0.678 -1.323,1.265 -2.136,1.763c-0.792,0.498 -1.696,0.893 -2.714,1.187c-0.994,0.294 -2.125,0.441 -3.391,0.441l0,0Zm3.765,-8.241c1.22,0 2.26,-0.203 3.12,-0.61c0.859,-0.43 1.548,-1.063 2.068,-1.899c0.543,-0.859 0.939,-1.922 1.187,-3.188c0.272,-1.266 0.419,-2.747 0.441,-4.443l0,-1.12c0,-1.831 -0.113,-3.459 -0.339,-4.883c-0.226,-1.424 -0.599,-2.611 -1.119,-3.561c-0.52,-0.972 -1.221,-1.707 -2.103,-2.204c-0.881,-0.498 -1.989,-0.747 -3.323,-0.747c-2.171,0 -3.765,0.984 -4.782,2.951c-1.017,1.944 -1.526,4.781 -1.526,8.512c0,3.73 0.509,6.534 1.526,8.41c1.04,1.854 2.657,2.781 4.85,2.781l-0,0.001Z" style="fill-rule:nonzero;"/><path id="path12561" d="M378.913,874.323c1.944,-0 3.719,0.418 5.324,1.255c1.605,0.836 2.984,2.08 4.137,3.73c1.153,1.651 2.046,3.697 2.68,6.138c0.655,2.442 0.983,5.268 0.983,8.479c0,3.255 -0.328,6.115 -0.983,8.58c-0.634,2.441 -1.538,4.488 -2.714,6.138c-1.175,1.65 -2.588,2.894 -4.239,3.73c-1.65,0.837 -3.47,1.255 -5.46,1.255c-1.266,0 -2.396,-0.136 -3.391,-0.407c-0.972,-0.272 -1.843,-0.634 -2.611,-1.086c-0.769,-0.452 -1.447,-0.96 -2.035,-1.526c-0.565,-0.588 -1.085,-1.198 -1.56,-1.831l-0.712,-0l-1.73,4.171l-7.902,0l0,-52.769l10.344,0l-0,12.277c-0,0.746 -0.023,1.56 -0.067,2.442c-0.045,0.859 -0.091,1.661 -0.136,2.408c-0.068,0.881 -0.136,1.763 -0.204,2.645l0.407,-0c0.475,-0.792 1.018,-1.526 1.628,-2.205c0.611,-0.678 1.311,-1.265 2.103,-1.763c0.814,-0.52 1.729,-0.927 2.747,-1.221c1.017,-0.294 2.148,-0.441 3.391,-0.441l-0,0.001Zm-3.493,8.275c-1.153,-0 -2.137,0.215 -2.951,0.645c-0.791,0.407 -1.436,1.028 -1.933,1.865c-0.497,0.836 -0.859,1.899 -1.085,3.188c-0.226,1.266 -0.362,2.747 -0.407,4.442l-0,1.12c-0,1.831 0.102,3.459 0.305,4.883c0.226,1.425 0.588,2.623 1.085,3.595c0.498,0.95 1.153,1.673 1.967,2.171c0.837,0.497 1.865,0.746 3.086,0.746c2.058,0 3.561,-0.972 4.511,-2.916c0.972,-1.967 1.458,-4.816 1.458,-8.547c0,-3.73 -0.486,-6.522 -1.458,-8.376c-0.95,-1.877 -2.476,-2.815 -4.578,-2.815l-0,-0.001Z" style="fill-rule:nonzero;"/><path id="path12563" d="M395.496,875.035l11.327,0l6.104,21.331c0.362,1.176 0.622,2.431 0.78,3.765c0.181,1.334 0.294,2.532 0.339,3.595l0.203,-0c0.047,-0.52 0.104,-1.097 0.17,-1.73c0.091,-0.633 0.192,-1.277 0.305,-1.933c0.113,-0.656 0.238,-1.3 0.373,-1.933c0.158,-0.656 0.317,-1.244 0.475,-1.764l5.969,-21.331l11.395,0l-14.99,42.765c-1.402,4.001 -3.312,6.974 -5.731,8.919c-2.42,1.944 -5.449,2.916 -9.089,2.916c-1.176,0 -2.193,-0.068 -3.052,-0.203c-0.859,-0.113 -1.594,-0.238 -2.205,-0.373l0,-8.207c0.475,0.113 1.074,0.215 1.798,0.305c0.723,0.09 1.481,0.135 2.272,0.135c1.085,0 2.012,-0.146 2.781,-0.44c0.768,-0.294 1.424,-0.712 1.967,-1.255c0.565,-0.52 1.04,-1.153 1.424,-1.899c0.407,-0.747 0.758,-1.583 1.051,-2.51l0.645,-1.899l-14.311,-38.254Z" style="fill-rule:nonzero;"/></g></g><g id="Edubuntu1" serif:id="Edubuntu"><g id="Logo"><rect id="rect6-2" x="236.604" y="137.251" width="435.344" height="670.462" style="fill:#a30b00;"/><circle id="circle8" cx="331.553" cy="579.796" r="45.688" style="fill:#fff;"/><circle id="circle10" cx="521.821" cy="479.619" r="45.688" style="fill:#fff;"/><path id="path12-7" d="M434.596,697.411c-32.677,-6.918 -60.564,-28.19 -75.873,-57.877c-12.228,5.558 -25.871,7.234 -39.081,4.802c23.064,56.527 78.526,93.502 139.575,93.05c-8.382,-10.968 -13.081,-24.313 -13.418,-38.114c-3.763,-0.432 -7.502,-1.053 -11.203,-1.861Z" style="fill:#fff;fill-rule:nonzero;"/><circle id="circle14" cx="511.53" cy="697.616" r="45.688" style="fill:#fff;"/><path id="path16" d="M575.102,680.849c40.056,-50.561 43.071,-121.608 7.444,-175.381c-5.279,12.395 -14.231,22.88 -25.645,30.037c18.539,35.08 17.12,77.487 -3.722,111.25c10.729,8.757 18.407,20.698 21.923,34.094Z" style="fill:#fff;fill-rule:nonzero;"/><path id="path18" d="M328.276,515.586c1.213,0.005 -1.232,-0 0,-0c12.859,0.011 26.152,3.539 35.157,10.218c10.47,-15.706 26.124,-29.495 36.399,-34.503c-0.092,-14.551 1.728,-31.82 6.687,-43.337c-34.888,9.968 -67.822,46.11 -78.243,67.622Z" style="fill:#fff;fill-rule:nonzero;"/><path id="path9434" d="M417.61,460.526c-0,-0 -1.605,4.57 -2.094,22.537c0,0 18.747,-6.878 42.957,-7.697c4.257,-60.688 59.935,-88.466 85.125,-103.603c-0,0 -29.265,37.862 -0,0c-58.821,-4.204 -114.054,29.949 -125.216,84.956l-0.772,3.807Z" style="fill:#fff;fill-rule:nonzero;"/></g><g id="Edubuntu2" serif:id="Edubuntu"><path id="path81268" d="M69.003,1206.01l0,-127.05l73.334,-0l-0,10.816l-60.867,0l0,44.184l54.267,-0l-0,10.633l-54.267,0l0,50.6l65.634,0l-0,10.817l-78.101,-0Z" style="fill:#fefeff;fill-rule:nonzero;stroke:#fff;stroke-width:4.91px;"/><path id="path81270" d="M243.72,1203.07c-3.544,1.223 -8.067,2.384 -13.567,3.484c-5.5,1.1 -12.466,1.65 -20.9,1.65c-6.966,-0 -13.322,-1.1 -19.066,-3.3c-5.622,-2.322 -10.511,-5.622 -14.667,-9.9c-4.033,-4.278 -7.211,-9.472 -9.533,-15.584c-2.2,-6.111 -3.3,-13.016 -3.3,-20.716c-0,-7.211 0.916,-13.811 2.75,-19.8c1.955,-6.111 4.766,-11.367 8.433,-15.767c3.667,-4.4 8.128,-7.822 13.383,-10.267c5.378,-2.444 11.489,-3.666 18.334,-3.666c6.233,-0 11.611,0.916 16.133,2.75c4.645,1.711 8.006,3.361 10.083,4.95l0,-50.967l11.917,-2.2l0,139.333Zm-11.917,-74.616c-1.1,-0.856 -2.505,-1.772 -4.216,-2.75c-1.589,-0.978 -3.484,-1.895 -5.684,-2.75c-2.2,-0.856 -4.583,-1.528 -7.15,-2.017c-2.566,-0.611 -5.255,-0.917 -8.066,-0.917c-5.867,0 -10.817,1.039 -14.85,3.117c-3.911,2.078 -7.089,4.889 -9.534,8.433c-2.444,3.423 -4.216,7.517 -5.316,12.284c-1.1,4.644 -1.65,9.594 -1.65,14.85c-0,12.466 3.116,22.061 9.35,28.783c6.233,6.6 14.483,9.9 24.75,9.9c5.866,0 10.572,-0.244 14.116,-0.733c3.667,-0.611 6.417,-1.222 8.25,-1.834l0,-66.366Z" style="fill:#fefeff;fill-rule:nonzero;stroke:#fff;stroke-width:4.91px;"/><path id="path81272" d="M348.037,1202.71c-3.545,0.978 -8.311,2.078 -14.3,3.3c-5.989,1.222 -13.322,1.833 -22,1.833c-7.089,0 -13.017,-1.039 -17.783,-3.117c-4.767,-2.077 -8.617,-5.011 -11.55,-8.8c-2.934,-3.788 -5.073,-8.372 -6.417,-13.75c-1.222,-5.377 -1.833,-11.305 -1.833,-17.783l-0,-53.167l11.916,0l0,49.317c0,6.722 0.489,12.406 1.467,17.05c0.978,4.645 2.567,8.433 4.767,11.367c2.2,2.811 5.011,4.889 8.433,6.233c3.544,1.222 7.822,1.833 12.833,1.833c5.622,0 10.511,-0.305 14.667,-0.916c4.155,-0.611 6.783,-1.161 7.883,-1.65l0,-83.234l11.917,0l-0,91.484Z" style="fill:#fefeff;fill-rule:nonzero;stroke:#fff;stroke-width:4.91px;"/><path id="path81274" d="M391.487,1116.91c2.078,-1.589 5.378,-3.239 9.9,-4.95c4.644,-1.834 10.083,-2.75 16.317,-2.75c6.844,-0 12.894,1.222 18.15,3.666c5.377,2.445 9.9,5.867 13.566,10.267c3.667,4.4 6.417,9.656 8.25,15.767c1.956,5.989 2.934,12.589 2.934,19.8c-0,7.7 -1.161,14.605 -3.484,20.716c-2.2,6.112 -5.377,11.306 -9.533,15.584c-4.033,4.278 -8.922,7.578 -14.667,9.9c-5.622,2.2 -11.916,3.3 -18.883,3.3c-8.433,-0 -15.4,-0.55 -20.9,-1.65c-5.5,-1.1 -10.022,-2.261 -13.567,-3.484l0,-137.133l11.917,-2.2l0,53.167Zm0,77.916c1.833,0.612 4.522,1.223 8.067,1.834c3.666,0.489 8.433,0.733 14.3,0.733c10.266,0 18.516,-3.3 24.75,-9.9c6.233,-6.722 9.35,-16.317 9.35,-28.783c-0,-5.256 -0.55,-10.206 -1.65,-14.85c-1.1,-4.767 -2.873,-8.861 -5.317,-12.284c-2.444,-3.544 -5.683,-6.355 -9.717,-8.433c-3.911,-2.078 -8.8,-3.117 -14.666,-3.117c-2.811,0 -5.5,0.306 -8.067,0.917c-2.567,0.489 -4.95,1.161 -7.15,2.017c-2.2,0.855 -4.156,1.772 -5.867,2.75c-1.589,0.978 -2.933,1.894 -4.033,2.75l0,66.366Z" style="fill:#fefeff;fill-rule:nonzero;stroke:#fff;stroke-width:4.91px;"/><path id="path81276" d="M559.237,1202.71c-3.544,0.978 -8.311,2.078 -14.3,3.3c-5.989,1.222 -13.322,1.833 -22,1.833c-7.089,0 -13.017,-1.039 -17.783,-3.117c-4.767,-2.077 -8.617,-5.011 -11.55,-8.8c-2.934,-3.788 -5.072,-8.372 -6.417,-13.75c-1.222,-5.377 -1.833,-11.305 -1.833,-17.783l-0,-53.167l11.916,0l0,49.317c0,6.722 0.489,12.406 1.467,17.05c0.978,4.645 2.567,8.433 4.767,11.367c2.2,2.811 5.011,4.889 8.433,6.233c3.545,1.222 7.822,1.833 12.833,1.833c5.623,0 10.512,-0.305 14.667,-0.916c4.156,-0.611 6.783,-1.161 7.883,-1.65l0,-83.234l11.917,0l0,91.484Z" style="fill:#fefeff;fill-rule:nonzero;stroke:#fff;stroke-width:4.91px;"/><path id="path81278" d="M590.771,1114.52c3.544,-0.977 8.311,-2.077 14.3,-3.3c5.988,-1.222 13.322,-1.833 22,-1.833c7.211,0 13.2,1.039 17.966,3.117c4.889,2.078 8.739,5.072 11.55,8.983c2.934,3.789 5.011,8.372 6.234,13.75c1.222,5.378 1.833,11.306 1.833,17.783l-0,52.984l-11.917,-0l0,-49.134c0,-6.722 -0.489,-12.405 -1.466,-17.05c-0.856,-4.644 -2.384,-8.433 -4.584,-11.366c-2.078,-2.934 -4.889,-5.011 -8.433,-6.234c-3.422,-1.344 -7.761,-2.016 -13.017,-2.016c-5.622,-0 -10.511,0.305 -14.666,0.916c-4.034,0.612 -6.662,1.162 -7.884,1.65l0,83.234l-11.916,-0l-0,-91.484Z" style="fill:#fefeff;fill-rule:nonzero;stroke:#fff;stroke-width:4.91px;"/><path id="path81280" d="M706.271,1111.22l37.766,0l0,10.084l-37.766,-0l-0,50.416c-0,5.378 0.427,9.778 1.283,13.2c0.978,3.3 2.322,5.867 4.033,7.7c1.711,1.834 3.789,3.056 6.234,3.667c2.444,0.611 5.133,0.917 8.066,0.917c5.011,-0 9.045,-0.55 12.1,-1.65c3.056,-1.222 5.439,-2.322 7.15,-3.3l2.934,9.9c-1.711,1.1 -4.706,2.383 -8.984,3.85c-4.277,1.344 -8.922,2.016 -13.933,2.016c-5.867,0 -10.817,-0.733 -14.85,-2.2c-3.911,-1.588 -7.089,-3.911 -9.533,-6.966c-2.323,-3.178 -3.973,-7.089 -4.95,-11.734c-0.978,-4.644 -1.467,-10.144 -1.467,-16.5l-0,-87.266l11.917,-2.2l-0,30.066Z" style="fill:#fefeff;fill-rule:nonzero;stroke:#fff;stroke-width:4.91px;"/><path id="path81282" d="M838.821,1202.71c-3.545,0.978 -8.312,2.078 -14.3,3.3c-5.989,1.222 -13.323,1.833 -22,1.833c-7.089,0 -13.017,-1.039 -17.784,-3.117c-4.767,-2.077 -8.617,-5.011 -11.55,-8.8c-2.933,-3.788 -5.072,-8.372 -6.416,-13.75c-1.223,-5.377 -1.834,-11.305 -1.834,-17.783l0,-53.167l11.917,0l-0,49.317c-0,6.722 0.489,12.406 1.467,17.05c0.977,4.645 2.566,8.433 4.766,11.367c2.2,2.811 5.011,4.889 8.434,6.233c3.544,1.222 7.822,1.833 12.833,1.833c5.622,0 10.511,-0.305 14.667,-0.916c4.155,-0.611 6.783,-1.161 7.883,-1.65l-0,-83.234l11.917,0l-0,91.484Z" style="fill:#fefeff;fill-rule:nonzero;stroke:#fff;stroke-width:4.91px;"/></g></g></g></svg>