<?xml version="1.0" encoding="UTF-8" standalone="no"?><!DOCTYPE svg PUBLIC "-//W3C//DTD SVG 1.1//EN" "http://www.w3.org/Graphics/SVG/1.1/DTD/svg11.dtd"><svg width="100%" height="100%" viewBox="0 0 907 1352" version="1.1" xmlns="http://www.w3.org/2000/svg" xmlns:xlink="http://www.w3.org/1999/xlink" xml:space="preserve" xmlns:serif="http://www.serif.com/" style="fill-rule:evenodd;clip-rule:evenodd;stroke-linejoin:round;"><rect id="Elementary-OS" serif:id="Elementary OS" x="0" y="0" width="906.667" height="1351.11" style="fill:none;"/><clipPath id="_clip1"><rect x="0" y="0" width="906.667" height="1351.11"/></clipPath><g clip-path="url(#_clip1)"><g id="READ-ME" serif:id="READ ME"><path id="Frame" d="M897.778,363.221c-0,-195.561 -158.771,-354.332 -354.333,-354.332l-180.224,-0c-195.561,-0 -354.332,158.771 -354.332,354.332l-0,624.669c-0,195.561 158.771,354.332 354.332,354.332l180.224,0c195.562,0 354.333,-158.771 354.333,-354.332l-0,-624.669Z" style="fill:#fff;stroke:#000;stroke-width:17.78px;"/><path id="Bottom" d="M895.371,1141.21c-0,-107.643 -87.393,-195.036 -195.036,-195.036l-494.004,0c-107.643,0 -195.035,87.393 -195.035,195.036c-0,107.643 87.392,195.036 195.035,195.036l494.004,-0c107.643,-0 195.036,-87.393 195.036,-195.036Z" style="stroke:#000;stroke-width:15.52px;"/><g id="Powered-By" serif:id="Powered By"><path id="path12547" d="M59.75,886.702l2.069,0c2.962,0 5.189,-0.588 6.681,-1.763c1.515,-1.176 2.272,-3.087 2.272,-5.732c-0,-2.464 -0.678,-4.284 -2.035,-5.46c-1.334,-1.176 -3.436,-1.763 -6.308,-1.763l-2.679,-0l0,14.718Zm21.671,-7.868c-0,2.171 -0.328,4.251 -0.984,6.24c-0.655,1.99 -1.741,3.742 -3.255,5.257c-1.493,1.515 -3.471,2.724 -5.935,3.628c-2.442,0.905 -5.472,1.357 -9.089,1.357l-2.408,-0l0,17.635l-10.513,-0l0,-49.581l13.769,-0c3.188,-0 5.935,0.362 8.241,1.085c2.328,0.701 4.239,1.718 5.731,3.052c1.515,1.312 2.634,2.928 3.358,4.85c0.723,1.899 1.085,4.058 1.085,6.477l-0,0Z" style="fill-rule:nonzero;"/><path id="path12549" d="M98.581,893.926c-0,3.775 0.531,6.624 1.594,8.546c1.062,1.899 2.792,2.848 5.189,2.848c2.373,0 4.092,-0.96 5.154,-2.882c1.063,-1.922 1.594,-4.759 1.594,-8.512c0,-3.776 -0.531,-6.591 -1.594,-8.445c-1.062,-1.876 -2.803,-2.815 -5.222,-2.815c-2.374,0 -4.092,0.939 -5.155,2.815c-1.04,1.854 -1.56,4.669 -1.56,8.445Zm24.078,-0c0,3.165 -0.407,5.968 -1.221,8.41c-0.791,2.442 -1.944,4.499 -3.459,6.172c-1.492,1.673 -3.323,2.951 -5.494,3.832c-2.148,0.86 -4.567,1.289 -7.257,1.289c-2.51,0 -4.816,-0.429 -6.918,-1.289c-2.103,-0.881 -3.923,-2.159 -5.46,-3.832c-1.515,-1.673 -2.702,-3.73 -3.561,-6.172c-0.859,-2.442 -1.289,-5.245 -1.289,-8.41c-0,-3.143 0.396,-5.935 1.187,-8.377c0.814,-2.442 1.967,-4.488 3.459,-6.138c1.515,-1.673 3.346,-2.939 5.494,-3.799c2.148,-0.859 4.578,-1.288 7.291,-1.288c2.51,-0 4.816,0.429 6.919,1.288c2.102,0.86 3.911,2.126 5.426,3.799c1.537,1.65 2.735,3.696 3.595,6.138c0.859,2.442 1.288,5.234 1.288,8.377Z" style="fill-rule:nonzero;"/><path id="path12551" d="M160.54,912.951l-2.916,-13.26c-0.091,-0.384 -0.215,-0.927 -0.373,-1.628c-0.136,-0.724 -0.294,-1.526 -0.475,-2.408c-0.181,-0.904 -0.373,-1.854 -0.576,-2.849c-0.181,-1.017 -0.373,-2.023 -0.577,-3.018c-0.452,-2.329 -0.95,-4.838 -1.492,-7.529l-0.204,0c-0.52,2.691 -0.994,5.212 -1.424,7.563c-0.181,0.995 -0.373,2.001 -0.576,3.018c-0.181,1.018 -0.362,1.979 -0.543,2.883c-0.181,0.882 -0.35,1.684 -0.509,2.408c-0.135,0.723 -0.248,1.289 -0.339,1.695l-3.052,13.125l-11.124,-0l-10.208,-37.915l10.276,-0l3.832,16.787c0.204,0.882 0.407,1.944 0.611,3.188c0.226,1.221 0.429,2.464 0.61,3.73c0.204,1.244 0.384,2.431 0.543,3.561c0.158,1.108 0.282,1.99 0.373,2.645l0.203,0c0.023,-0.43 0.068,-0.983 0.136,-1.661c0.09,-0.701 0.192,-1.447 0.305,-2.239c0.113,-0.791 0.226,-1.594 0.339,-2.408c0.136,-0.836 0.26,-1.616 0.373,-2.34c0.136,-0.723 0.249,-1.356 0.339,-1.899c0.113,-0.565 0.204,-0.961 0.272,-1.187l4.137,-18.177l11.395,-0l3.968,18.177c0.113,0.498 0.26,1.267 0.441,2.306c0.181,1.04 0.361,2.16 0.542,3.358c0.204,1.176 0.373,2.329 0.509,3.459c0.136,1.108 0.215,1.978 0.237,2.611l0.204,0c0.068,-0.565 0.181,-1.402 0.339,-2.509c0.181,-1.108 0.373,-2.295 0.576,-3.561c0.204,-1.289 0.419,-2.566 0.645,-3.832c0.249,-1.266 0.475,-2.34 0.678,-3.222l3.968,-16.787l10.14,-0l-10.343,37.915l-11.26,-0Z" style="fill-rule:nonzero;"/><path id="path12553" d="M202.898,881.683c-1.831,-0 -3.357,0.644 -4.578,1.933c-1.198,1.289 -1.888,3.312 -2.069,6.07l13.192,0c-0.022,-1.153 -0.169,-2.215 -0.441,-3.187c-0.271,-0.973 -0.678,-1.809 -1.22,-2.51c-0.543,-0.724 -1.221,-1.289 -2.035,-1.696c-0.814,-0.407 -1.764,-0.61 -2.849,-0.61l0,-0Zm1.323,31.946c-2.713,0 -5.212,-0.395 -7.495,-1.187c-2.284,-0.791 -4.251,-1.978 -5.901,-3.561c-1.65,-1.605 -2.939,-3.617 -3.866,-6.036c-0.905,-2.442 -1.357,-5.302 -1.357,-8.58c0,-3.324 0.419,-6.229 1.255,-8.716c0.837,-2.487 2.001,-4.556 3.493,-6.206c1.515,-1.673 3.324,-2.928 5.426,-3.765c2.126,-0.836 4.477,-1.254 7.054,-1.254c2.51,-0 4.771,0.384 6.783,1.152c2.035,0.747 3.753,1.855 5.155,3.324c1.424,1.47 2.509,3.278 3.255,5.426c0.769,2.125 1.153,4.567 1.153,7.325l0,5.019l-23.128,0c0.044,1.447 0.271,2.759 0.678,3.934c0.429,1.153 1.017,2.137 1.763,2.951c0.769,0.791 1.685,1.402 2.747,1.831c1.086,0.43 2.318,0.645 3.697,0.645c1.153,0 2.238,-0.057 3.256,-0.17c1.04,-0.136 2.046,-0.328 3.018,-0.576c0.972,-0.249 1.933,-0.554 2.882,-0.916c0.95,-0.384 1.922,-0.825 2.917,-1.322l-0,8.003c-0.904,0.475 -1.82,0.882 -2.747,1.221c-0.904,0.317 -1.865,0.588 -2.883,0.814c-1.017,0.226 -2.114,0.384 -3.289,0.475c-1.176,0.113 -2.465,0.17 -3.866,0.17l-0,-0.001Z" style="fill-rule:nonzero;"/><path id="path12555" d="M247.698,874.324c0.271,-0 0.565,0.011 0.881,0.035c0.339,0 0.656,0.024 0.95,0.071c0.316,0.024 0.599,0.059 0.848,0.106c0.271,0.024 0.474,0.059 0.61,0.107l-0,9.699c-0.181,-0.047 -0.43,-0.093 -0.746,-0.136c-0.317,-0.047 -0.656,-0.083 -1.018,-0.106c-0.339,-0.048 -0.678,-0.071 -1.017,-0.071c-0.339,-0.024 -0.622,-0.036 -0.848,-0.036c-1.334,0 -2.566,0.17 -3.696,0.509c-1.108,0.34 -2.069,0.894 -2.883,1.662c-0.791,0.747 -1.413,1.741 -1.865,2.984c-0.43,1.221 -0.645,2.725 -0.645,4.511l0,19.297l-10.343,-0l-0,-37.915l7.834,-0l1.526,5.697l0.509,0c0.542,-0.972 1.13,-1.854 1.763,-2.645c0.633,-0.791 1.334,-1.458 2.103,-2.001c0.791,-0.565 1.673,-0.995 2.645,-1.289c0.995,-0.316 2.125,-0.475 3.391,-0.475l0.001,-0.004Z" style="fill-rule:nonzero;"/><path id="path12557" d="M273.404,881.683c-1.832,-0 -3.358,0.644 -4.579,1.933c-1.198,1.289 -1.887,3.312 -2.068,6.07l13.192,0c-0.023,-1.153 -0.17,-2.215 -0.441,-3.187c-0.271,-0.973 -0.678,-1.809 -1.221,-2.51c-0.542,-0.724 -1.221,-1.289 -2.035,-1.696c-0.813,-0.407 -1.763,-0.61 -2.848,-0.61l-0,-0Zm1.322,31.946c-2.713,0 -5.211,-0.395 -7.494,-1.187c-2.284,-0.791 -4.251,-1.978 -5.901,-3.561c-1.651,-1.605 -2.94,-3.617 -3.866,-6.036c-0.905,-2.442 -1.357,-5.302 -1.357,-8.58c-0,-3.324 0.418,-6.229 1.255,-8.716c0.836,-2.487 2.001,-4.556 3.493,-6.206c1.515,-1.673 3.323,-2.928 5.426,-3.765c2.125,-0.836 4.477,-1.254 7.054,-1.254c2.51,-0 4.77,0.384 6.783,1.152c2.034,0.747 3.753,1.855 5.154,3.324c1.425,1.47 2.51,3.278 3.256,5.426c0.769,2.125 1.153,4.567 1.153,7.325l0,5.019l-23.129,0c0.045,1.447 0.271,2.759 0.679,3.934c0.429,1.153 1.017,2.137 1.763,2.951c0.769,0.791 1.684,1.402 2.747,1.831c1.085,0.43 2.317,0.645 3.697,0.645c1.153,0 2.238,-0.057 3.255,-0.17c1.04,-0.136 2.046,-0.328 3.018,-0.576c0.973,-0.249 1.934,-0.554 2.883,-0.916c0.95,-0.384 1.922,-0.825 2.917,-1.322l-0,8.003c-0.905,0.475 -1.82,0.882 -2.747,1.221c-0.905,0.317 -1.866,0.588 -2.883,0.814c-1.017,0.226 -2.114,0.384 -3.29,0.475c-1.175,0.113 -2.464,0.17 -3.866,0.17l0,-0.001Z" style="fill-rule:nonzero;"/><path id="path12559" d="M309.589,913.629c-1.944,0 -3.719,-0.418 -5.324,-1.255c-1.605,-0.836 -2.985,-2.068 -4.138,-3.696c-1.153,-1.651 -2.057,-3.697 -2.713,-6.138c-0.633,-2.442 -0.949,-5.268 -0.949,-8.479c-0,-3.255 0.316,-6.104 0.949,-8.546c0.656,-2.464 1.572,-4.522 2.747,-6.172c1.199,-1.673 2.623,-2.928 4.273,-3.765c1.651,-0.836 3.471,-1.254 5.46,-1.254c1.221,-0 2.34,0.146 3.358,0.44c1.017,0.272 1.933,0.668 2.747,1.187c0.814,0.498 1.537,1.086 2.17,1.764c0.656,0.656 1.232,1.379 1.73,2.17l0.339,0c-0.136,-0.882 -0.26,-1.775 -0.373,-2.679c-0.113,-0.769 -0.215,-1.582 -0.305,-2.442c-0.068,-0.882 -0.102,-1.695 -0.102,-2.442l0,-12.141l10.344,0l-0,52.77l-7.902,-0l-2.001,-4.918l-0.441,0c-0.475,0.769 -1.017,1.503 -1.628,2.205c-0.61,0.677 -1.323,1.265 -2.136,1.763c-0.792,0.498 -1.696,0.893 -2.713,1.187c-0.995,0.294 -2.126,0.44 -3.392,0.44l0,0.001Zm3.765,-8.241c1.22,0 2.26,-0.203 3.12,-0.61c0.859,-0.43 1.548,-1.063 2.068,-1.899c0.543,-0.86 0.939,-1.922 1.187,-3.188c0.272,-1.266 0.419,-2.747 0.441,-4.443l0,-1.12c0,-1.831 -0.113,-3.459 -0.339,-4.883c-0.226,-1.425 -0.599,-2.612 -1.119,-3.561c-0.52,-0.972 -1.221,-1.707 -2.103,-2.204c-0.881,-0.498 -1.989,-0.747 -3.323,-0.747c-2.171,0 -3.764,0.984 -4.782,2.951c-1.017,1.944 -1.526,4.781 -1.526,8.512c0,3.73 0.509,6.534 1.526,8.41c1.04,1.854 2.657,2.781 4.85,2.781l-0,0.001Z" style="fill-rule:nonzero;"/><path id="path12561" d="M378.908,874.324c1.944,-0 3.719,0.418 5.324,1.254c1.606,0.837 2.985,2.08 4.138,3.731c1.153,1.65 2.046,3.697 2.679,6.138c0.656,2.442 0.983,5.268 0.983,8.479c0,3.255 -0.327,6.115 -0.983,8.58c-0.633,2.441 -1.538,4.487 -2.713,6.138c-1.176,1.65 -2.589,2.894 -4.239,3.73c-1.651,0.837 -3.471,1.255 -5.46,1.255c-1.266,0 -2.397,-0.136 -3.392,-0.407c-0.972,-0.272 -1.842,-0.634 -2.611,-1.086c-0.769,-0.452 -1.447,-0.96 -2.035,-1.526c-0.565,-0.588 -1.085,-1.198 -1.56,-1.831l-0.712,-0l-1.73,4.171l-7.901,0l-0,-52.769l10.343,0l0,12.277c0,0.746 -0.022,1.56 -0.067,2.442c-0.045,0.859 -0.09,1.661 -0.136,2.407c-0.068,0.882 -0.135,1.764 -0.203,2.646l0.407,-0c0.474,-0.792 1.017,-1.526 1.627,-2.205c0.611,-0.678 1.312,-1.266 2.103,-1.763c0.814,-0.52 1.73,-0.927 2.747,-1.221c1.017,-0.294 2.148,-0.441 3.391,-0.441l-0,0.001Zm-3.493,8.275c-1.153,-0 -2.137,0.215 -2.951,0.644c-0.791,0.408 -1.435,1.029 -1.933,1.866c-0.497,0.836 -0.859,1.899 -1.085,3.188c-0.226,1.266 -0.362,2.746 -0.407,4.442l0,1.12c0,1.831 0.102,3.459 0.305,4.883c0.226,1.425 0.588,2.623 1.086,3.595c0.497,0.95 1.153,1.673 1.967,2.171c0.836,0.497 1.865,0.746 3.086,0.746c2.057,-0 3.561,-0.972 4.51,-2.917c0.972,-1.967 1.458,-4.815 1.458,-8.546c0,-3.73 -0.486,-6.522 -1.458,-8.376c-0.949,-1.877 -2.476,-2.815 -4.578,-2.815l-0,-0.001Z" style="fill-rule:nonzero;"/><path id="path12563" d="M395.492,875.036l11.327,-0l6.104,21.331c0.361,1.176 0.621,2.431 0.779,3.765c0.182,1.334 0.295,2.532 0.339,3.594l0.204,0c0.047,-0.519 0.104,-1.096 0.17,-1.729c0.09,-0.633 0.192,-1.278 0.304,-1.933c0.114,-0.656 0.238,-1.3 0.374,-1.933c0.158,-0.656 0.316,-1.244 0.474,-1.764l5.969,-21.331l11.395,-0l-14.99,42.764c-1.401,4.002 -3.312,6.975 -5.731,8.92c-2.419,1.944 -5.449,2.916 -9.089,2.916c-1.175,0 -2.193,-0.068 -3.052,-0.203c-0.859,-0.113 -1.594,-0.238 -2.204,-0.373l-0,-8.207c0.475,0.113 1.074,0.215 1.797,0.305c0.724,0.09 1.481,0.135 2.272,0.135c1.086,0 2.013,-0.146 2.781,-0.44c0.769,-0.294 1.425,-0.712 1.967,-1.255c0.565,-0.52 1.04,-1.153 1.425,-1.899c0.407,-0.747 0.757,-1.583 1.051,-2.51l0.645,-1.899l-14.311,-38.254Z" style="fill-rule:nonzero;"/></g></g><g id="Elementary-OS1" serif:id="Elementary OS"><path id="Logo" d="M456.938,149.751c-183.927,-0 -333.03,149.102 -333.03,333.029c0,183.927 149.103,333.029 333.03,333.029c183.927,0 333.029,-149.102 333.029,-333.029c-0,-183.927 -149.102,-333.029 -333.029,-333.029Zm-0,27.752c139.836,0 257.713,94.024 293.863,222.297c-31.136,64.222 -75.441,122.044 -129.396,168.77c-25.919,22.446 -54.218,42.456 -85.477,56.545c-31.259,14.089 -65.643,22.084 -99.874,20.121c-25.719,-1.475 -51.125,-8.639 -73.648,-21.127c59.69,-32.344 113.547,-75.468 157.634,-127.106c28.937,-33.894 54.255,-72.414 64.004,-115.901c4.874,-21.744 5.7,-44.516 1.144,-66.328c-4.555,-21.813 -14.64,-42.6 -29.903,-58.836c-14.91,-15.861 -34.484,-27.097 -55.47,-32.886c-20.985,-5.79 -43.318,-6.238 -64.733,-2.324c-42.829,7.827 -81.068,32.719 -111.738,63.622c-54.059,54.472 -87.479,131.332 -81.349,207.831c3.065,38.249 15.883,75.834 37.847,107.298c4.903,7.023 10.293,13.712 16.062,20.051c-31.997,11.198 -65.128,19.17 -98.729,23.659c-28.849,-46.616 -45.514,-101.56 -45.514,-160.409c-0,-168.6 136.677,-305.277 305.277,-305.277l-0,0Zm1.942,61.68c21.46,0.029 43.066,6.526 60.188,19.461c15.427,11.655 26.858,28.235 33.338,46.451c6.48,18.216 8.143,37.997 5.932,57.205c-4.422,38.414 -23.801,73.644 -47.214,104.418c-41.455,54.49 -96.558,98.103 -157.842,128.633c-6.273,3.125 -12.645,6.095 -19.045,8.95c-13.335,-11.669 -24.764,-25.51 -33.476,-40.935c-18.204,-32.231 -24.208,-70.519 -20.676,-107.367c3.532,-36.848 16.177,-72.362 33.164,-105.251c19.696,-38.134 46.543,-74.255 84.125,-94.983c18.791,-10.364 40.046,-16.611 61.506,-16.582Zm300.594,202.731c1.788,13.369 2.74,27.008 2.74,40.866c0,168.6 -136.677,305.277 -305.276,305.277c-94.688,-0 -179.312,-43.105 -235.306,-110.767c34.561,-7.85 68.34,-19.125 100.741,-33.477c14.169,10.791 29.817,19.641 46.451,26.018c47.901,18.365 102.286,15.707 150.765,-1.075c48.478,-16.783 91.468,-46.906 128.944,-81.939c44.645,-41.734 82.285,-90.925 110.941,-144.903Z" style="fill-rule:nonzero;"/><g id="elementary"><path id="path3062" d="M38.292,1133.49c0,22.859 18.047,46.062 42.968,46.062c13.406,-0 29.906,-7.391 35.406,-21.312l-3.682,-0.004c-5.328,11.688 -18.661,17.879 -31.724,17.879c-21.827,-0 -37.983,-19.25 -39.53,-40.906l81.639,0l-0,-1.89c-0.344,-24.406 -17.531,-46.062 -43.656,-46.062c-24.921,0 -40.733,22.343 -41.421,46.234m3.438,-1.719c1.031,-19.593 14.437,-41.077 37.983,-41.077c22.859,-0 38.5,17.874 40.047,41.077l-78.03,-0" style="fill:#fff;fill-rule:nonzero;"/><path id="path3064" d="M141.835,1164.6c-0,7.562 4.984,14.093 13.578,14.093c6.015,0 7.705,-0.005 7.705,-0.005l-0.003,-3.264c-0.172,0 -2.89,0.004 -7.53,0.004c-6.703,-0 -10.313,-5.844 -10.313,-10.828l0,-107.086l-3.437,0l-0,107.085" style="fill:#fff;fill-rule:nonzero;"/><path id="path3074" d="M643.553,1175.27c-1.742,0 -2.808,-0.018 -10.714,-0.018c-6.015,-0 -11.515,-3.609 -12.031,-10.312l0,-72.874l24.86,-0l0,-3.438l-24.86,0l0,-31.108l-3.437,-0l-0,107.42c-0,8.249 7.219,13.749 15.468,13.749c9.453,0 10.537,0.166 10.708,-0.005" style="fill:#fff;fill-rule:nonzero;"/><path id="path3076" d="M730.02,1174.39c-1.891,0 -2.406,-1.374 -2.75,-3.437l-0,-49.327c-0,-19.25 -11.172,-34.375 -32.656,-34.375c-11,0 -21.656,5.328 -30.937,11.688l2.063,2.75c9.968,-7.047 20.281,-11 28.874,-11c17.703,-0 29.218,12.718 29.218,30.937l0,10.14c-4.64,-1.718 -15.296,-4.984 -29.905,-4.984c-15.469,-0 -36.781,6.187 -36.781,25.437c0,15.297 12.719,27.328 28.875,27.328c13.921,-0 28.702,-5.157 37.811,-16.844l0,8.25c0,3.609 2.235,6.703 6.188,6.875l3.375,0l0.001,-3.436l-3.376,-0.002Zm-8.766,-14.093c-7.046,11 -22.171,15.812 -35.233,15.812c-13.235,0 -25.437,-9.453 -25.437,-23.89c-0,-16.672 18.734,-22 33.343,-22c9.968,0 20.109,1.547 29.905,5.328l0,17.703c0,2.063 -0.859,4.469 -2.578,7.047" style="fill:#fff;fill-rule:nonzero;"/><path id="path3435" d="M804.559,1062.63c-1.987,0.108 -3.943,0.656 -5.67,1.641c-2.594,1.48 -4.62,3.966 -5.483,6.826c-0.59,1.957 -0.635,4.044 -0.447,6.079c0.208,2.265 0.691,4.498 1.342,6.677c0.482,1.612 1.075,3.182 1.716,4.737c-2.511,0.012 -5.023,0.027 -7.534,0.037c-0.606,0.011 -5.378,0.112 -7.796,0.821c-12.797,3.751 -20.674,10.375 -26.743,22.23l0,-23.051l-3.431,0l-0,89.218l3.431,0l0,-56.395c2.235,-8.164 6.352,-15.331 12.197,-20.552c5.845,-5.221 13.419,-8.496 22.528,-8.839c2.809,-0.114 5.814,-0.113 8.691,-0.15l39.947,85.936c-13.578,30.937 -14.098,31.941 -14.957,32.972c-1.203,1.203 -2.557,1.903 -8.056,1.903l-3.059,-0.15l0,3.432l3.059,0.149c6.359,0 9.806,-1.367 11.525,-4.289l1.193,-2.052l53.114,-121.183l-3.805,0l-37.299,84.892l-37.634,-81.684c1.819,-0.027 3.681,0.092 5.483,-0.149c1.95,-0.261 3.799,-1.035 5.483,-2.052c1.768,-1.067 3.359,-2.405 4.588,-4.065c1.708,-2.308 2.644,-5.187 2.723,-8.057c0.066,-2.436 -0.453,-4.881 -1.567,-7.049c-0.872,-1.697 -2.119,-3.213 -3.581,-4.439c-1.837,-1.541 -4.067,-2.646 -6.415,-3.133c-1.168,-0.242 -2.351,-0.326 -3.543,-0.261Zm1.044,2.872c1.902,0.02 3.783,0.689 5.334,1.79c1.551,1.102 2.79,2.632 3.655,4.327c1.073,2.103 1.578,4.511 1.38,6.863c-0.198,2.352 -1.102,4.632 -2.648,6.415c-2.167,2.5 -5.579,3.914 -8.877,3.656l-4.476,0.037l-1.38,-3.245c-0.859,-2.043 -1.486,-4.164 -1.902,-6.341c-0.429,-2.241 -0.792,-4.589 -0.187,-6.788c0.606,-2.203 2.189,-4.072 4.14,-5.259c1.497,-0.911 3.209,-1.473 4.961,-1.455l-0,-0Z" style="fill:#fff;fill-rule:nonzero;"/><path id="path3096" d="M173.177,1133.49c0,22.859 18.047,46.062 42.968,46.062c13.406,-0 29.906,-7.391 35.406,-21.312l-3.681,-0.004c-5.328,11.688 -18.662,17.879 -31.725,17.879c-21.827,-0 -37.983,-19.25 -39.53,-40.906l81.639,0l0,-1.89c-0.344,-24.406 -17.531,-46.062 -43.655,-46.062c-24.922,0 -40.734,22.343 -41.422,46.234m3.438,-1.719c1.031,-19.593 14.437,-41.077 37.984,-41.077c22.859,-0 38.499,17.874 40.046,41.077l-78.03,-0" style="fill:#fff;fill-rule:nonzero;"/><path id="path3106" d="M420.854,1133.49c-0,22.859 18.046,46.062 42.968,46.062c13.406,-0 29.905,-7.391 35.405,-21.313l-3.681,-0.003c-5.328,11.688 -18.662,17.879 -31.724,17.879c-21.828,-0 -37.984,-19.25 -39.531,-40.906l81.639,0l0,-1.89c-0.344,-24.406 -17.531,-46.062 -43.655,-46.062c-24.922,-0 -40.734,22.343 -41.421,46.234m3.437,-1.719c1.031,-19.594 14.437,-41.078 37.984,-41.078c22.859,0 38.499,17.875 40.046,41.078l-78.03,-0" style="fill:#fff;fill-rule:nonzero;"/><path id="path3133" d="M557.425,1087.23c-25.093,-0 -34.576,22.87 -34.576,40.916l0,49.682l3.432,-0l-0,-49.682c-0,-18.734 10.176,-37.485 31.144,-37.485c20.968,0 31.144,18.751 31.144,37.485l0,49.682l3.432,-0l-0,-49.682c-0,-18.046 -9.483,-40.916 -34.576,-40.916Z" style="fill:#fff;fill-rule:nonzero;"/><path id="path3143" d="M401.478,1112.3c-2.555,-12.887 -15.33,-25.05 -31.601,-25.05c-16.925,0 -29.164,12.32 -30.333,25.953c-1.375,-13.75 -15.982,-25.953 -32.653,-25.953c-14.61,0 -26.155,11.17 -29.646,24.854c-1.706,6.687 -2.244,8.908 -2.244,65.723l3.438,-0c-0,-50.004 0.109,-53.729 1.044,-60.552c2.191,-14.426 12.411,-26.735 27.408,-26.587c16.012,-0 31.395,10.323 30.5,37.766c-0,7.309 0.224,19.908 0.224,29.24c-0,10.457 -0.224,20.133 -0.224,20.133l3.437,-0c0,-0 0.371,-33.175 0,-49.339c-0.597,-26.036 13.461,-37.77 29.049,-37.8c16.24,0.244 28.721,12.509 29.692,29.535c0.492,8.629 0.211,42.961 0.211,57.604l3.438,-0c-0,-56.959 -0.541,-59.483 -1.74,-65.527Z" style="fill:#fff;fill-rule:nonzero;"/></g></g></g></svg>