<?xml version="1.0" encoding="UTF-8" standalone="no"?><!DOCTYPE svg PUBLIC "-//W3C//DTD SVG 1.1//EN" "http://www.w3.org/Graphics/SVG/1.1/DTD/svg11.dtd"><svg width="100%" height="100%" viewBox="0 0 907 1352" version="1.1" xmlns="http://www.w3.org/2000/svg" xmlns:xlink="http://www.w3.org/1999/xlink" xml:space="preserve" xmlns:serif="http://www.serif.com/" style="fill-rule:evenodd;clip-rule:evenodd;stroke-linejoin:round;stroke-miterlimit:2;"><rect id="Elementary-OS" serif:id="Elementary OS" x="0" y="0" width="906.667" height="1351.11" style="fill:none;"/><clipPath id="_clip1"><rect x="0" y="0" width="906.667" height="1351.11"/></clipPath><g clip-path="url(#_clip1)"><g><g id="Frame"><path id="path36023" d="M363.216,8.892l180.223,-0c196.299,-0 354.331,36.928 354.331,82.799l0,1167.73c0,45.871 -158.032,82.8 -354.331,82.8l-180.223,-0c-196.3,-0 -354.331,-36.929 -354.331,-82.8l-0,-1167.73c-0,-45.871 158.031,-82.799 354.331,-82.799Z" style="fill:#fff;fill-rule:nonzero;"/><path id="path36025" d="M363.223,0c-98.707,0 -187.78,9.234 -252.805,24.429c-32.513,7.598 -58.999,16.618 -78.087,27.198c-9.543,5.29 -17.286,10.978 -22.976,17.509c-5.69,6.53 -9.365,14.275 -9.365,22.561l-0,1167.72c-0,8.285 3.675,16.03 9.365,22.56c5.69,6.531 13.433,12.219 22.976,17.509c19.088,10.581 45.574,19.6 78.087,27.198c65.025,15.195 154.098,24.429 252.805,24.429l180.21,0c98.707,0 187.781,-9.234 252.806,-24.429c32.512,-7.598 58.999,-16.617 78.086,-27.198c9.544,-5.29 17.286,-10.978 22.976,-17.509c5.69,-6.53 9.366,-14.275 9.366,-22.56l-0,-1167.72c-0,-8.286 -3.676,-16.031 -9.366,-22.561c-5.69,-6.531 -13.432,-12.219 -22.976,-17.509c-19.087,-10.58 -45.574,-19.6 -78.086,-27.198c-65.025,-15.195 -154.099,-24.429 -252.806,-24.429l-180.21,0Zm0,17.786l180.21,-0c97.592,-0 185.703,9.231 248.769,23.968c31.532,7.368 56.817,16.176 73.495,25.421c8.339,4.622 14.482,9.365 18.201,13.633c3.719,4.269 4.983,7.706 4.983,10.889l-0,1167.72c-0,3.182 -1.264,6.619 -4.983,10.888c-3.719,4.269 -9.862,9.011 -18.201,13.633c-16.678,9.245 -41.963,18.053 -73.495,25.421c-63.066,14.738 -151.177,23.969 -248.769,23.969l-180.21,-0c-97.592,-0 -185.703,-9.231 -248.768,-23.969c-31.533,-7.368 -56.818,-16.176 -73.496,-25.421c-8.339,-4.622 -14.482,-9.364 -18.201,-13.633c-3.719,-4.269 -4.983,-7.706 -4.983,-10.888l0,-1167.72c0,-3.183 1.264,-6.62 4.983,-10.889c3.719,-4.268 9.862,-9.011 18.201,-13.633c16.678,-9.245 41.963,-18.053 73.496,-25.421c63.065,-14.737 151.176,-23.968 248.768,-23.968Z" style="fill-rule:nonzero;"/></g><g id="Bottom"><path id="path35979" d="M371.596,946.173l163.463,0c199.609,0 360.304,38.151 360.304,85.54l0,218.99c0,47.389 -160.695,85.54 -360.304,85.54l-163.463,-0c-199.609,-0 -360.304,-38.151 -360.304,-85.54l-0,-218.99c-0,-47.389 160.695,-85.54 360.304,-85.54Z" style="fill-rule:nonzero;"/><path id="path35981" d="M371.597,938.419c-100.298,0 -190.805,9.547 -256.796,25.214c-32.996,7.833 -59.838,17.123 -79.079,27.958c-19.24,10.836 -32.18,23.883 -32.18,40.116l0,218.988c0,16.233 12.94,29.303 32.18,40.139c19.241,10.835 46.083,20.125 79.079,27.958c65.991,15.667 156.498,25.214 256.796,25.214l163.462,0c100.299,0 190.805,-9.547 256.797,-25.214c32.996,-7.833 59.837,-17.123 79.078,-27.958c19.24,-10.836 32.18,-23.906 32.18,-40.139l0,-218.988c0,-16.233 -12.94,-29.28 -32.18,-40.116c-19.241,-10.835 -46.082,-20.125 -79.078,-27.958c-65.992,-15.667 -156.498,-25.214 -256.797,-25.214l-163.462,0Zm0,15.525l163.462,-0c99.31,-0 188.963,9.52 253.221,24.775c32.129,7.628 57.914,16.745 75.041,26.39c17.128,9.646 24.291,19.137 24.291,26.598l0,218.988c0,7.461 -7.163,16.952 -24.291,26.598c-17.127,9.645 -42.912,18.762 -75.041,26.39c-64.258,15.255 -153.911,24.798 -253.221,24.798l-163.462,0c-99.31,0 -188.963,-9.543 -253.221,-24.798c-32.129,-7.628 -57.913,-16.745 -75.041,-26.39c-17.127,-9.646 -24.291,-19.137 -24.291,-26.598l0,-218.988c0,-7.461 7.164,-16.952 24.291,-26.598c17.128,-9.645 42.912,-18.762 75.041,-26.39c64.258,-15.255 153.911,-24.775 253.221,-24.775Z" style="fill-rule:nonzero;"/></g><g id="Powered-By" serif:id="Powered By"><path id="path12547" d="M59.746,886.701l2.069,0c2.961,0 5.188,-0.588 6.68,-1.763c1.515,-1.176 2.273,-3.086 2.273,-5.732c-0,-2.464 -0.679,-4.284 -2.035,-5.46c-1.334,-1.175 -3.437,-1.763 -6.308,-1.763l-2.679,-0l-0,14.718Zm21.67,-7.868c0,2.171 -0.328,4.251 -0.983,6.24c-0.656,1.99 -1.741,3.742 -3.256,5.257c-1.492,1.515 -3.47,2.724 -5.935,3.629c-2.441,0.904 -5.471,1.356 -9.088,1.356l-2.408,0l-0,17.635l-10.513,-0l-0,-49.581l13.768,-0c3.188,-0 5.935,0.362 8.241,1.085c2.329,0.701 4.239,1.719 5.732,3.053c1.514,1.311 2.634,2.927 3.357,4.849c0.724,1.899 1.085,4.058 1.085,6.478l0,-0.001Z" style="fill-rule:nonzero;"/><path id="path12549" d="M98.576,893.925c0,3.775 0.532,6.624 1.594,8.546c1.063,1.899 2.792,2.848 5.189,2.848c2.374,0 4.092,-0.96 5.155,-2.882c1.062,-1.922 1.594,-4.759 1.594,-8.512c-0,-3.776 -0.532,-6.591 -1.594,-8.445c-1.063,-1.876 -2.804,-2.814 -5.223,-2.814c-2.374,-0 -4.092,0.938 -5.155,2.814c-1.04,1.854 -1.56,4.669 -1.56,8.445Zm24.079,-0c-0,3.165 -0.407,5.968 -1.221,8.41c-0.792,2.442 -1.945,4.499 -3.459,6.172c-1.493,1.673 -3.324,2.951 -5.494,3.833c-2.148,0.859 -4.567,1.288 -7.258,1.288c-2.509,0 -4.815,-0.429 -6.918,-1.288c-2.103,-0.882 -3.923,-2.16 -5.46,-3.833c-1.515,-1.673 -2.702,-3.73 -3.561,-6.172c-0.859,-2.442 -1.289,-5.245 -1.289,-8.41c0,-3.143 0.396,-5.935 1.187,-8.377c0.814,-2.442 1.967,-4.488 3.46,-6.138c1.514,-1.673 3.346,-2.939 5.493,-3.798c2.148,-0.86 4.579,-1.289 7.292,-1.289c2.509,-0 4.815,0.429 6.918,1.289c2.103,0.859 3.911,2.125 5.426,3.798c1.538,1.65 2.736,3.696 3.595,6.138c0.859,2.442 1.289,5.234 1.289,8.377Z" style="fill-rule:nonzero;"/><path id="path12551" d="M160.536,912.95l-2.917,-13.26c-0.09,-0.384 -0.215,-0.927 -0.373,-1.628c-0.136,-0.724 -0.294,-1.526 -0.475,-2.408c-0.181,-0.904 -0.373,-1.854 -0.576,-2.848c-0.181,-1.018 -0.373,-2.024 -0.577,-3.019c-0.452,-2.328 -0.949,-4.838 -1.492,-7.528l-0.203,-0c-0.52,2.69 -0.995,5.211 -1.425,7.562c-0.181,0.995 -0.373,2.001 -0.576,3.019c-0.181,1.017 -0.362,1.978 -0.543,2.882c-0.181,0.882 -0.35,1.684 -0.508,2.408c-0.136,0.723 -0.249,1.289 -0.34,1.696l-3.052,13.124l-11.123,-0l-10.208,-37.915l10.275,0l3.833,16.787c0.203,0.882 0.407,1.944 0.61,3.188c0.226,1.221 0.429,2.464 0.61,3.73c0.204,1.244 0.385,2.431 0.543,3.561c0.158,1.108 0.283,1.99 0.373,2.645l0.203,0c0.023,-0.429 0.069,-0.983 0.136,-1.661c0.091,-0.701 0.192,-1.447 0.305,-2.239c0.113,-0.791 0.226,-1.593 0.339,-2.407c0.136,-0.837 0.26,-1.617 0.374,-2.34c0.135,-0.724 0.248,-1.357 0.339,-1.9c0.113,-0.565 0.203,-0.961 0.271,-1.187l4.137,-18.177l11.395,0l3.968,18.177c0.113,0.498 0.26,1.267 0.441,2.307c0.181,1.04 0.362,2.159 0.542,3.357c0.204,1.176 0.374,2.329 0.509,3.459c0.136,1.108 0.215,1.978 0.238,2.611l0.203,0c0.068,-0.565 0.181,-1.401 0.339,-2.509c0.181,-1.108 0.373,-2.295 0.577,-3.561c0.203,-1.289 0.418,-2.566 0.644,-3.832c0.249,-1.266 0.475,-2.34 0.678,-3.222l3.968,-16.787l10.14,0l-10.343,37.915l-11.259,-0Z" style="fill-rule:nonzero;"/><path id="path12553" d="M202.893,881.682c-1.831,0 -3.357,0.644 -4.578,1.933c-1.198,1.289 -1.888,3.312 -2.069,6.071l13.192,-0c-0.022,-1.153 -0.169,-2.216 -0.441,-3.188c-0.271,-0.972 -0.678,-1.809 -1.22,-2.51c-0.543,-0.723 -1.221,-1.289 -2.035,-1.695c-0.814,-0.408 -1.764,-0.611 -2.849,-0.611l0,0Zm1.323,31.946c-2.713,0 -5.212,-0.395 -7.495,-1.187c-2.284,-0.791 -4.251,-1.978 -5.901,-3.561c-1.65,-1.605 -2.939,-3.617 -3.866,-6.036c-0.904,-2.442 -1.357,-5.302 -1.357,-8.58c0,-3.324 0.419,-6.229 1.255,-8.716c0.837,-2.487 2.001,-4.555 3.493,-6.206c1.515,-1.673 3.324,-2.928 5.426,-3.764c2.126,-0.837 4.477,-1.255 7.054,-1.255c2.51,-0 4.771,0.384 6.783,1.153c2.035,0.746 3.753,1.854 5.155,3.323c1.424,1.47 2.509,3.278 3.255,5.426c0.769,2.125 1.153,4.567 1.153,7.325l0,5.02l-23.128,-0c0.044,1.447 0.271,2.758 0.678,3.934c0.429,1.153 1.017,2.136 1.763,2.95c0.769,0.791 1.685,1.402 2.747,1.831c1.086,0.43 2.318,0.645 3.697,0.645c1.153,0 2.238,-0.057 3.256,-0.17c1.04,-0.135 2.046,-0.328 3.018,-0.576c0.972,-0.249 1.933,-0.554 2.882,-0.916c0.95,-0.384 1.922,-0.825 2.917,-1.322l-0,8.003c-0.904,0.475 -1.82,0.882 -2.747,1.221c-0.904,0.317 -1.865,0.588 -2.883,0.814c-1.017,0.226 -2.114,0.384 -3.289,0.475c-1.176,0.113 -2.465,0.17 -3.866,0.17l-0,-0.001Z" style="fill-rule:nonzero;"/><path id="path12555" d="M247.692,874.323c0.272,-0 0.566,0.012 0.882,0.035c0.339,0 0.656,0.024 0.95,0.071c0.316,0.024 0.599,0.059 0.847,0.106c0.272,0.024 0.475,0.059 0.611,0.107l-0,9.699c-0.181,-0.047 -0.43,-0.093 -0.746,-0.136c-0.317,-0.047 -0.656,-0.083 -1.018,-0.106c-0.339,-0.047 -0.678,-0.071 -1.017,-0.071c-0.339,-0.024 -0.622,-0.036 -0.848,-0.036c-1.334,0 -2.566,0.17 -3.696,0.51c-1.108,0.339 -2.069,0.893 -2.883,1.661c-0.791,0.747 -1.413,1.742 -1.865,2.985c-0.43,1.22 -0.645,2.724 -0.645,4.51l0,19.297l-10.343,-0l-0,-37.915l7.834,-0l1.526,5.697l0.509,0c0.542,-0.972 1.13,-1.854 1.763,-2.645c0.633,-0.791 1.334,-1.458 2.103,-2.001c0.791,-0.565 1.673,-0.995 2.645,-1.289c0.995,-0.316 2.125,-0.474 3.391,-0.474l0,-0.005Z" style="fill-rule:nonzero;"/><path id="path12557" d="M273.399,881.682c-1.832,0 -3.358,0.644 -4.579,1.933c-1.198,1.289 -1.888,3.312 -2.068,6.071l13.192,-0c-0.023,-1.153 -0.17,-2.216 -0.441,-3.188c-0.271,-0.972 -0.678,-1.809 -1.221,-2.51c-0.543,-0.723 -1.221,-1.289 -2.035,-1.695c-0.814,-0.408 -1.763,-0.611 -2.848,-0.611l-0,0Zm1.322,31.946c-2.713,0 -5.211,-0.395 -7.495,-1.187c-2.283,-0.791 -4.25,-1.978 -5.901,-3.561c-1.65,-1.605 -2.939,-3.617 -3.866,-6.036c-0.904,-2.442 -1.356,-5.302 -1.356,-8.58c-0,-3.324 0.418,-6.229 1.255,-8.716c0.836,-2.487 2,-4.555 3.493,-6.206c1.514,-1.673 3.323,-2.928 5.426,-3.764c2.125,-0.837 4.476,-1.255 7.054,-1.255c2.509,-0 4.77,0.384 6.782,1.153c2.035,0.746 3.753,1.854 5.155,3.323c1.424,1.47 2.51,3.278 3.256,5.426c0.768,2.125 1.153,4.567 1.153,7.325l-0,5.02l-23.129,-0c0.045,1.447 0.271,2.758 0.678,3.934c0.43,1.153 1.018,2.136 1.764,2.95c0.769,0.791 1.684,1.402 2.747,1.831c1.085,0.43 2.317,0.645 3.696,0.645c1.153,0 2.239,-0.057 3.256,-0.17c1.04,-0.135 2.046,-0.328 3.018,-0.576c0.972,-0.249 1.933,-0.554 2.883,-0.916c0.949,-0.384 1.922,-0.825 2.916,-1.322l0,8.003c-0.904,0.475 -1.82,0.882 -2.747,1.221c-0.904,0.317 -1.865,0.588 -2.882,0.814c-1.018,0.226 -2.114,0.384 -3.29,0.475c-1.175,0.113 -2.464,0.17 -3.866,0.17l0,-0.001Z" style="fill-rule:nonzero;"/><path id="path12559" d="M309.584,913.628c-1.945,0 -3.719,-0.418 -5.325,-1.255c-1.605,-0.836 -2.984,-2.068 -4.137,-3.696c-1.153,-1.651 -2.057,-3.697 -2.713,-6.138c-0.633,-2.442 -0.95,-5.268 -0.95,-8.479c0,-3.255 0.317,-6.104 0.95,-8.546c0.656,-2.464 1.571,-4.521 2.747,-6.172c1.198,-1.673 2.623,-2.928 4.273,-3.764c1.65,-0.837 3.471,-1.255 5.46,-1.255c1.221,-0 2.34,0.147 3.357,0.44c1.018,0.272 1.934,0.668 2.747,1.187c0.814,0.498 1.538,1.086 2.171,1.764c0.656,0.656 1.232,1.379 1.729,2.17l0.34,0c-0.136,-0.881 -0.26,-1.774 -0.373,-2.679c-0.114,-0.768 -0.215,-1.582 -0.306,-2.442c-0.067,-0.881 -0.101,-1.695 -0.101,-2.441l-0,-12.141l10.343,-0l0,52.769l-7.902,-0l-2.001,-4.918l-0.44,0c-0.475,0.769 -1.018,1.504 -1.628,2.205c-0.611,0.678 -1.323,1.265 -2.137,1.763c-0.791,0.498 -1.695,0.893 -2.713,1.187c-0.995,0.294 -2.125,0.441 -3.391,0.441l-0,0Zm3.764,-8.241c1.221,0 2.261,-0.203 3.12,-0.61c0.859,-0.43 1.549,-1.063 2.069,-1.899c0.543,-0.859 0.938,-1.922 1.187,-3.188c0.271,-1.266 0.418,-2.747 0.441,-4.443l-0,-1.12c-0,-1.831 -0.113,-3.459 -0.339,-4.883c-0.226,-1.424 -0.599,-2.611 -1.119,-3.561c-0.52,-0.972 -1.221,-1.707 -2.103,-2.204c-0.882,-0.498 -1.99,-0.747 -3.324,-0.747c-2.17,0 -3.764,0.984 -4.781,2.951c-1.018,1.944 -1.526,4.781 -1.526,8.512c-0,3.73 0.508,6.534 1.526,8.41c1.04,1.854 2.656,2.781 4.849,2.781l0,0.001Z" style="fill-rule:nonzero;"/><path id="path12561" d="M378.902,874.323c1.945,-0 3.719,0.418 5.325,1.255c1.605,0.836 2.984,2.08 4.137,3.73c1.153,1.651 2.046,3.697 2.679,6.138c0.656,2.442 0.984,5.268 0.984,8.479c-0,3.255 -0.328,6.115 -0.984,8.58c-0.633,2.441 -1.537,4.488 -2.713,6.138c-1.176,1.65 -2.589,2.894 -4.239,3.73c-1.65,0.837 -3.47,1.255 -5.46,1.255c-1.266,0 -2.397,-0.136 -3.391,-0.407c-0.973,-0.272 -1.843,-0.634 -2.612,-1.086c-0.768,-0.452 -1.447,-0.96 -2.034,-1.526c-0.566,-0.588 -1.086,-1.198 -1.56,-1.831l-0.713,-0l-1.729,4.171l-7.902,0l0,-52.769l10.344,0l-0,12.277c-0,0.746 -0.023,1.56 -0.068,2.442c-0.045,0.859 -0.09,1.661 -0.135,2.408c-0.068,0.881 -0.136,1.763 -0.204,2.645l0.407,-0c0.475,-0.792 1.017,-1.526 1.628,-2.205c0.61,-0.678 1.311,-1.265 2.102,-1.763c0.814,-0.52 1.73,-0.927 2.747,-1.221c1.018,-0.294 2.148,-0.441 3.392,-0.441l-0.001,0.001Zm-3.493,8.275c-1.153,-0 -2.136,0.215 -2.95,0.645c-0.792,0.407 -1.436,1.028 -1.933,1.865c-0.498,0.836 -0.859,1.899 -1.085,3.188c-0.227,1.266 -0.362,2.747 -0.407,4.442l-0,1.12c-0,1.831 0.101,3.459 0.305,4.883c0.226,1.425 0.588,2.623 1.085,3.595c0.497,0.95 1.153,1.673 1.967,2.171c0.836,0.497 1.865,0.746 3.086,0.746c2.057,0 3.561,-0.972 4.51,-2.916c0.973,-1.967 1.459,-4.816 1.459,-8.547c-0,-3.73 -0.486,-6.522 -1.459,-8.376c-0.949,-1.877 -2.475,-2.815 -4.578,-2.815l0,-0.001Z" style="fill-rule:nonzero;"/><path id="path12563" d="M395.486,875.035l11.327,0l6.104,21.331c0.362,1.176 0.621,2.431 0.78,3.765c0.181,1.334 0.294,2.532 0.339,3.595l0.203,-0c0.047,-0.52 0.104,-1.097 0.17,-1.73c0.09,-0.633 0.192,-1.277 0.305,-1.933c0.113,-0.656 0.237,-1.3 0.373,-1.933c0.158,-0.656 0.316,-1.244 0.475,-1.764l5.968,-21.331l11.395,0l-14.989,42.765c-1.402,4.001 -3.313,6.974 -5.732,8.919c-2.419,1.944 -5.448,2.916 -9.088,2.916c-1.176,0 -2.193,-0.068 -3.053,-0.203c-0.859,-0.113 -1.594,-0.238 -2.204,-0.373l0,-8.207c0.475,0.113 1.074,0.215 1.797,0.305c0.724,0.09 1.481,0.135 2.273,0.135c1.085,0 2.012,-0.146 2.78,-0.44c0.769,-0.294 1.425,-0.712 1.967,-1.255c0.566,-0.52 1.04,-1.153 1.425,-1.899c0.407,-0.747 0.757,-1.583 1.051,-2.51l0.645,-1.899l-14.311,-38.254Z" style="fill-rule:nonzero;"/></g></g><g id="Elementary-OS1" serif:id="Elementary OS"><path id="Logo" d="M456.938,149.751c-183.927,-0 -333.03,149.102 -333.03,333.029c0,183.927 149.103,333.029 333.03,333.029c183.927,0 333.029,-149.102 333.029,-333.029c-0,-183.927 -149.102,-333.029 -333.029,-333.029Zm-0,27.752c139.836,0 257.713,94.024 293.863,222.297c-31.136,64.222 -75.441,122.044 -129.396,168.77c-25.919,22.446 -54.218,42.456 -85.477,56.545c-31.259,14.089 -65.643,22.084 -99.874,20.121c-25.719,-1.475 -51.125,-8.639 -73.648,-21.127c59.69,-32.344 113.547,-75.468 157.634,-127.106c28.937,-33.894 54.255,-72.414 64.004,-115.901c4.874,-21.744 5.7,-44.516 1.144,-66.328c-4.555,-21.813 -14.64,-42.6 -29.903,-58.836c-14.91,-15.861 -34.484,-27.097 -55.47,-32.886c-20.985,-5.79 -43.318,-6.238 -64.733,-2.324c-42.829,7.827 -81.068,32.719 -111.738,63.622c-54.059,54.472 -87.479,131.332 -81.349,207.831c3.065,38.249 15.883,75.834 37.847,107.298c4.903,7.023 10.293,13.712 16.062,20.051c-31.997,11.198 -65.128,19.17 -98.729,23.659c-28.849,-46.616 -45.514,-101.56 -45.514,-160.409c-0,-168.6 136.677,-305.277 305.277,-305.277l-0,0Zm1.942,61.68c21.46,0.029 43.066,6.526 60.188,19.461c15.427,11.655 26.858,28.235 33.338,46.451c6.48,18.216 8.143,37.997 5.932,57.205c-4.422,38.414 -23.801,73.644 -47.214,104.418c-41.455,54.49 -96.558,98.103 -157.842,128.633c-6.273,3.125 -12.645,6.095 -19.045,8.95c-13.335,-11.669 -24.764,-25.51 -33.476,-40.935c-18.204,-32.231 -24.208,-70.519 -20.676,-107.367c3.532,-36.848 16.177,-72.362 33.164,-105.251c19.696,-38.134 46.543,-74.255 84.125,-94.983c18.791,-10.364 40.046,-16.611 61.506,-16.582Zm300.594,202.731c1.788,13.369 2.74,27.008 2.74,40.866c0,168.6 -136.677,305.277 -305.276,305.277c-94.688,-0 -179.312,-43.105 -235.306,-110.767c34.561,-7.85 68.34,-19.125 100.741,-33.477c14.169,10.791 29.817,19.641 46.451,26.018c47.901,18.365 102.286,15.707 150.765,-1.075c48.478,-16.783 91.468,-46.906 128.944,-81.939c44.645,-41.734 82.285,-90.925 110.941,-144.903Z" style="fill-rule:nonzero;"/><g id="elementary"><path id="path3062" d="M38.292,1133.49c0,22.859 18.047,46.062 42.968,46.062c13.406,-0 29.906,-7.391 35.406,-21.312l-3.682,-0.004c-5.328,11.688 -18.661,17.879 -31.724,17.879c-21.827,-0 -37.983,-19.25 -39.53,-40.906l81.639,0l-0,-1.89c-0.344,-24.406 -17.531,-46.062 -43.656,-46.062c-24.921,0 -40.733,22.343 -41.421,46.234m3.438,-1.719c1.031,-19.593 14.437,-41.077 37.983,-41.077c22.859,-0 38.5,17.874 40.047,41.077l-78.03,-0" style="fill:#fff;fill-rule:nonzero;"/><path id="path3064" d="M141.835,1164.6c-0,7.562 4.984,14.093 13.578,14.093c6.015,0 7.705,-0.005 7.705,-0.005l-0.003,-3.264c-0.172,0 -2.89,0.004 -7.53,0.004c-6.703,-0 -10.313,-5.844 -10.313,-10.828l0,-107.086l-3.437,0l-0,107.085" style="fill:#fff;fill-rule:nonzero;"/><path id="path3074" d="M643.553,1175.27c-1.742,0 -2.808,-0.018 -10.714,-0.018c-6.015,-0 -11.515,-3.609 -12.031,-10.312l0,-72.874l24.86,-0l0,-3.438l-24.86,0l0,-31.108l-3.437,-0l-0,107.42c-0,8.249 7.219,13.749 15.468,13.749c9.453,0 10.537,0.166 10.708,-0.005" style="fill:#fff;fill-rule:nonzero;"/><path id="path3076" d="M730.02,1174.39c-1.891,0 -2.406,-1.374 -2.75,-3.437l-0,-49.327c-0,-19.25 -11.172,-34.375 -32.656,-34.375c-11,0 -21.656,5.328 -30.937,11.688l2.063,2.75c9.968,-7.047 20.281,-11 28.874,-11c17.703,-0 29.218,12.718 29.218,30.937l0,10.14c-4.64,-1.718 -15.296,-4.984 -29.905,-4.984c-15.469,-0 -36.781,6.187 -36.781,25.437c0,15.297 12.719,27.328 28.875,27.328c13.921,-0 28.702,-5.157 37.811,-16.844l0,8.25c0,3.609 2.235,6.703 6.188,6.875l3.375,0l0.001,-3.436l-3.376,-0.002Zm-8.766,-14.093c-7.046,11 -22.171,15.812 -35.233,15.812c-13.235,0 -25.437,-9.453 -25.437,-23.89c-0,-16.672 18.734,-22 33.343,-22c9.968,0 20.109,1.547 29.905,5.328l0,17.703c0,2.063 -0.859,4.469 -2.578,7.047" style="fill:#fff;fill-rule:nonzero;"/><path id="path3435" d="M804.559,1062.63c-1.987,0.108 -3.943,0.656 -5.67,1.641c-2.594,1.48 -4.62,3.966 -5.483,6.826c-0.59,1.957 -0.635,4.044 -0.447,6.079c0.208,2.265 0.691,4.498 1.342,6.677c0.482,1.612 1.075,3.182 1.716,4.737c-2.511,0.012 -5.023,0.027 -7.534,0.037c-0.606,0.011 -5.378,0.112 -7.796,0.821c-12.797,3.751 -20.674,10.375 -26.743,22.23l0,-23.051l-3.431,0l-0,89.218l3.431,0l0,-56.395c2.235,-8.164 6.352,-15.331 12.197,-20.552c5.845,-5.221 13.419,-8.496 22.528,-8.839c2.809,-0.114 5.814,-0.113 8.691,-0.15l39.947,85.936c-13.578,30.937 -14.098,31.941 -14.957,32.972c-1.203,1.203 -2.557,1.903 -8.056,1.903l-3.059,-0.15l0,3.432l3.059,0.149c6.359,0 9.806,-1.367 11.525,-4.289l1.193,-2.052l53.114,-121.183l-3.805,0l-37.299,84.892l-37.634,-81.684c1.819,-0.027 3.681,0.092 5.483,-0.149c1.95,-0.261 3.799,-1.035 5.483,-2.052c1.768,-1.067 3.359,-2.405 4.588,-4.065c1.708,-2.308 2.644,-5.187 2.723,-8.057c0.066,-2.436 -0.453,-4.881 -1.567,-7.049c-0.872,-1.697 -2.119,-3.213 -3.581,-4.439c-1.837,-1.541 -4.067,-2.646 -6.415,-3.133c-1.168,-0.242 -2.351,-0.326 -3.543,-0.261Zm1.044,2.872c1.902,0.02 3.783,0.689 5.334,1.79c1.551,1.102 2.79,2.632 3.655,4.327c1.073,2.103 1.578,4.511 1.38,6.863c-0.198,2.352 -1.102,4.632 -2.648,6.415c-2.167,2.5 -5.579,3.914 -8.877,3.656l-4.476,0.037l-1.38,-3.245c-0.859,-2.043 -1.486,-4.164 -1.902,-6.341c-0.429,-2.241 -0.792,-4.589 -0.187,-6.788c0.606,-2.203 2.189,-4.072 4.14,-5.259c1.497,-0.911 3.209,-1.473 4.961,-1.455l-0,-0Z" style="fill:#fff;fill-rule:nonzero;"/><path id="path3096" d="M173.177,1133.49c0,22.859 18.047,46.062 42.968,46.062c13.406,-0 29.906,-7.391 35.406,-21.312l-3.681,-0.004c-5.328,11.688 -18.662,17.879 -31.725,17.879c-21.827,-0 -37.983,-19.25 -39.53,-40.906l81.639,0l0,-1.89c-0.344,-24.406 -17.531,-46.062 -43.655,-46.062c-24.922,0 -40.734,22.343 -41.422,46.234m3.438,-1.719c1.031,-19.593 14.437,-41.077 37.984,-41.077c22.859,-0 38.499,17.874 40.046,41.077l-78.03,-0" style="fill:#fff;fill-rule:nonzero;"/><path id="path3106" d="M420.854,1133.49c-0,22.859 18.046,46.062 42.968,46.062c13.406,-0 29.905,-7.391 35.405,-21.313l-3.681,-0.003c-5.328,11.688 -18.662,17.879 -31.724,17.879c-21.828,-0 -37.984,-19.25 -39.531,-40.906l81.639,0l0,-1.89c-0.344,-24.406 -17.531,-46.062 -43.655,-46.062c-24.922,-0 -40.734,22.343 -41.421,46.234m3.437,-1.719c1.031,-19.594 14.437,-41.078 37.984,-41.078c22.859,0 38.499,17.875 40.046,41.078l-78.03,-0" style="fill:#fff;fill-rule:nonzero;"/><path id="path3133" d="M557.425,1087.23c-25.093,-0 -34.576,22.87 -34.576,40.916l0,49.682l3.432,-0l-0,-49.682c-0,-18.734 10.176,-37.485 31.144,-37.485c20.968,0 31.144,18.751 31.144,37.485l0,49.682l3.432,-0l-0,-49.682c-0,-18.046 -9.483,-40.916 -34.576,-40.916Z" style="fill:#fff;fill-rule:nonzero;"/><path id="path3143" d="M401.478,1112.3c-2.555,-12.887 -15.33,-25.05 -31.601,-25.05c-16.925,0 -29.164,12.32 -30.333,25.953c-1.375,-13.75 -15.982,-25.953 -32.653,-25.953c-14.61,0 -26.155,11.17 -29.646,24.854c-1.706,6.687 -2.244,8.908 -2.244,65.723l3.438,-0c-0,-50.004 0.109,-53.729 1.044,-60.552c2.191,-14.426 12.411,-26.735 27.408,-26.587c16.012,-0 31.395,10.323 30.5,37.766c-0,7.309 0.224,19.908 0.224,29.24c-0,10.457 -0.224,20.133 -0.224,20.133l3.437,-0c0,-0 0.371,-33.175 0,-49.339c-0.597,-26.036 13.461,-37.77 29.049,-37.8c16.24,0.244 28.721,12.509 29.692,29.535c0.492,8.629 0.211,42.961 0.211,57.604l3.438,-0c-0,-56.959 -0.541,-59.483 -1.74,-65.527Z" style="fill:#fff;fill-rule:nonzero;"/></g></g></g></svg>