<?xml version="1.0" encoding="UTF-8" standalone="no"?><!DOCTYPE svg PUBLIC "-//W3C//DTD SVG 1.1//EN" "http://www.w3.org/Graphics/SVG/1.1/DTD/svg11.dtd"><svg width="100%" height="100%" viewBox="0 0 907 1352" version="1.1" xmlns="http://www.w3.org/2000/svg" xmlns:xlink="http://www.w3.org/1999/xlink" xml:space="preserve" xmlns:serif="http://www.serif.com/" style="fill-rule:evenodd;clip-rule:evenodd;stroke-linejoin:round;"><rect id="EndeavourOS" x="-0" y="0" width="906.667" height="1351.11" style="fill:none;"/><clipPath id="_clip1"><rect x="-0" y="0" width="906.667" height="1351.11"/></clipPath><g clip-path="url(#_clip1)"><g id="READ-ME" serif:id="READ ME"><path id="Frame" d="M897.778,363.221c-0,-195.561 -158.771,-354.332 -354.333,-354.332l-180.224,-0c-195.561,-0 -354.332,158.771 -354.332,354.332l-0,624.669c-0,195.561 158.771,354.332 354.332,354.332l180.224,0c195.562,0 354.333,-158.771 354.333,-354.332l-0,-624.669Z" style="fill:#fff;stroke:#000;stroke-width:17.78px;"/><path id="Bottom" d="M895.371,1141.21c-0,-107.643 -87.393,-195.036 -195.036,-195.036l-494.004,0c-107.643,0 -195.035,87.393 -195.035,195.036c-0,107.643 87.392,195.036 195.035,195.036l494.004,-0c107.643,-0 195.036,-87.393 195.036,-195.036Z" style="stroke:#000;stroke-width:15.52px;"/><g id="Powered-By" serif:id="Powered By"><path id="path12547" d="M59.75,886.702l2.069,0c2.962,0 5.189,-0.588 6.681,-1.763c1.515,-1.176 2.272,-3.087 2.272,-5.732c-0,-2.464 -0.678,-4.284 -2.035,-5.46c-1.334,-1.176 -3.436,-1.763 -6.308,-1.763l-2.679,-0l0,14.718Zm21.671,-7.868c-0,2.171 -0.328,4.251 -0.984,6.24c-0.655,1.99 -1.741,3.742 -3.255,5.257c-1.493,1.515 -3.471,2.724 -5.935,3.628c-2.442,0.905 -5.472,1.357 -9.089,1.357l-2.408,-0l0,17.635l-10.513,-0l0,-49.581l13.769,-0c3.188,-0 5.935,0.362 8.241,1.085c2.328,0.701 4.239,1.718 5.731,3.052c1.515,1.312 2.634,2.928 3.358,4.85c0.723,1.899 1.085,4.058 1.085,6.477l-0,0Z" style="fill-rule:nonzero;"/><path id="path12549" d="M98.581,893.926c-0,3.775 0.531,6.624 1.594,8.546c1.062,1.899 2.792,2.848 5.189,2.848c2.373,0 4.092,-0.96 5.154,-2.882c1.063,-1.922 1.594,-4.759 1.594,-8.512c0,-3.776 -0.531,-6.591 -1.594,-8.445c-1.062,-1.876 -2.803,-2.815 -5.222,-2.815c-2.374,0 -4.093,0.939 -5.155,2.815c-1.04,1.854 -1.56,4.669 -1.56,8.445Zm24.078,-0c0,3.165 -0.407,5.968 -1.221,8.41c-0.791,2.442 -1.944,4.499 -3.459,6.172c-1.492,1.673 -3.323,2.951 -5.494,3.832c-2.148,0.86 -4.567,1.289 -7.257,1.289c-2.51,0 -4.816,-0.429 -6.918,-1.289c-2.103,-0.881 -3.923,-2.159 -5.46,-3.832c-1.515,-1.673 -2.702,-3.73 -3.561,-6.172c-0.859,-2.442 -1.289,-5.245 -1.289,-8.41c-0,-3.143 0.396,-5.935 1.187,-8.377c0.814,-2.442 1.967,-4.488 3.459,-6.138c1.515,-1.673 3.346,-2.939 5.494,-3.799c2.148,-0.859 4.578,-1.288 7.291,-1.288c2.51,-0 4.816,0.429 6.919,1.288c2.102,0.86 3.911,2.126 5.426,3.799c1.537,1.65 2.735,3.696 3.595,6.138c0.859,2.442 1.288,5.234 1.288,8.377Z" style="fill-rule:nonzero;"/><path id="path12551" d="M160.54,912.951l-2.916,-13.26c-0.091,-0.384 -0.215,-0.927 -0.373,-1.628c-0.136,-0.724 -0.294,-1.526 -0.475,-2.408c-0.181,-0.904 -0.373,-1.854 -0.576,-2.849c-0.181,-1.017 -0.373,-2.023 -0.577,-3.018c-0.452,-2.329 -0.95,-4.838 -1.492,-7.529l-0.204,0c-0.52,2.691 -0.994,5.212 -1.424,7.563c-0.181,0.995 -0.373,2.001 -0.576,3.018c-0.181,1.018 -0.362,1.979 -0.543,2.883c-0.181,0.882 -0.35,1.684 -0.509,2.408c-0.135,0.723 -0.248,1.289 -0.339,1.695l-3.052,13.125l-11.124,-0l-10.208,-37.915l10.276,-0l3.832,16.787c0.204,0.882 0.407,1.944 0.611,3.188c0.226,1.221 0.429,2.464 0.61,3.73c0.204,1.244 0.384,2.431 0.543,3.561c0.158,1.108 0.282,1.99 0.373,2.645l0.203,0c0.023,-0.43 0.068,-0.983 0.136,-1.661c0.09,-0.701 0.192,-1.447 0.305,-2.239c0.113,-0.791 0.226,-1.594 0.339,-2.408c0.136,-0.836 0.26,-1.616 0.373,-2.34c0.136,-0.723 0.249,-1.356 0.339,-1.899c0.113,-0.565 0.204,-0.961 0.272,-1.187l4.137,-18.177l11.395,-0l3.968,18.177c0.113,0.498 0.26,1.267 0.441,2.306c0.181,1.04 0.361,2.16 0.542,3.358c0.204,1.176 0.373,2.329 0.509,3.459c0.136,1.108 0.215,1.978 0.237,2.611l0.204,0c0.068,-0.565 0.181,-1.402 0.339,-2.509c0.181,-1.108 0.373,-2.295 0.576,-3.561c0.204,-1.289 0.419,-2.566 0.645,-3.832c0.249,-1.266 0.475,-2.34 0.678,-3.222l3.968,-16.787l10.14,-0l-10.343,37.915l-11.26,-0Z" style="fill-rule:nonzero;"/><path id="path12553" d="M202.898,881.683c-1.831,-0 -3.357,0.644 -4.578,1.933c-1.198,1.289 -1.888,3.312 -2.069,6.07l13.192,0c-0.023,-1.153 -0.169,-2.215 -0.441,-3.187c-0.271,-0.973 -0.678,-1.809 -1.22,-2.51c-0.543,-0.724 -1.221,-1.289 -2.035,-1.696c-0.814,-0.407 -1.764,-0.61 -2.849,-0.61l0,-0Zm1.323,31.946c-2.713,0 -5.212,-0.395 -7.495,-1.187c-2.284,-0.791 -4.251,-1.978 -5.901,-3.561c-1.65,-1.605 -2.939,-3.617 -3.866,-6.036c-0.905,-2.442 -1.357,-5.302 -1.357,-8.58c0,-3.324 0.419,-6.229 1.255,-8.716c0.837,-2.487 2.001,-4.556 3.493,-6.206c1.515,-1.673 3.324,-2.928 5.426,-3.765c2.126,-0.836 4.477,-1.254 7.054,-1.254c2.51,-0 4.771,0.384 6.783,1.152c2.035,0.747 3.753,1.855 5.155,3.324c1.424,1.47 2.509,3.278 3.255,5.426c0.769,2.125 1.153,4.567 1.153,7.325l0,5.019l-23.128,0c0.044,1.447 0.271,2.759 0.678,3.934c0.429,1.153 1.017,2.137 1.763,2.951c0.769,0.791 1.685,1.402 2.747,1.831c1.086,0.43 2.318,0.645 3.697,0.645c1.153,0 2.238,-0.057 3.256,-0.17c1.04,-0.136 2.046,-0.328 3.018,-0.576c0.972,-0.249 1.933,-0.554 2.882,-0.916c0.95,-0.384 1.922,-0.825 2.917,-1.322l-0,8.003c-0.904,0.475 -1.82,0.882 -2.747,1.221c-0.904,0.317 -1.865,0.588 -2.883,0.814c-1.017,0.226 -2.114,0.384 -3.289,0.475c-1.176,0.113 -2.465,0.17 -3.866,0.17l-0,-0.001Z" style="fill-rule:nonzero;"/><path id="path12555" d="M247.698,874.324c0.271,-0 0.565,0.011 0.881,0.035c0.339,0 0.656,0.024 0.95,0.071c0.316,0.024 0.599,0.059 0.848,0.106c0.271,0.024 0.474,0.059 0.61,0.107l-0,9.699c-0.181,-0.047 -0.43,-0.093 -0.746,-0.136c-0.317,-0.047 -0.656,-0.083 -1.018,-0.106c-0.339,-0.048 -0.678,-0.071 -1.017,-0.071c-0.339,-0.024 -0.622,-0.036 -0.848,-0.036c-1.334,0 -2.566,0.17 -3.696,0.509c-1.108,0.34 -2.069,0.894 -2.883,1.662c-0.791,0.747 -1.413,1.741 -1.865,2.984c-0.43,1.221 -0.645,2.725 -0.645,4.511l0,19.297l-10.343,-0l-0,-37.915l7.834,-0l1.526,5.697l0.509,0c0.542,-0.972 1.13,-1.854 1.763,-2.645c0.633,-0.791 1.334,-1.458 2.103,-2.001c0.791,-0.565 1.673,-0.995 2.645,-1.289c0.995,-0.316 2.125,-0.475 3.391,-0.475l0.001,-0.004Z" style="fill-rule:nonzero;"/><path id="path12557" d="M273.404,881.683c-1.832,-0 -3.358,0.644 -4.579,1.933c-1.198,1.289 -1.887,3.312 -2.068,6.07l13.192,0c-0.023,-1.153 -0.17,-2.215 -0.441,-3.187c-0.271,-0.973 -0.678,-1.809 -1.221,-2.51c-0.542,-0.724 -1.221,-1.289 -2.035,-1.696c-0.813,-0.407 -1.763,-0.61 -2.848,-0.61l-0,-0Zm1.322,31.946c-2.713,0 -5.211,-0.395 -7.494,-1.187c-2.284,-0.791 -4.251,-1.978 -5.901,-3.561c-1.651,-1.605 -2.94,-3.617 -3.866,-6.036c-0.905,-2.442 -1.357,-5.302 -1.357,-8.58c-0,-3.324 0.418,-6.229 1.255,-8.716c0.836,-2.487 2.001,-4.556 3.493,-6.206c1.515,-1.673 3.323,-2.928 5.426,-3.765c2.125,-0.836 4.477,-1.254 7.054,-1.254c2.51,-0 4.77,0.384 6.783,1.152c2.034,0.747 3.753,1.855 5.154,3.324c1.425,1.47 2.51,3.278 3.256,5.426c0.769,2.125 1.153,4.567 1.153,7.325l0,5.019l-23.129,0c0.045,1.447 0.271,2.759 0.679,3.934c0.429,1.153 1.017,2.137 1.763,2.951c0.769,0.791 1.684,1.402 2.747,1.831c1.085,0.43 2.317,0.645 3.697,0.645c1.153,0 2.238,-0.057 3.255,-0.17c1.04,-0.136 2.046,-0.328 3.018,-0.576c0.973,-0.249 1.934,-0.554 2.883,-0.916c0.95,-0.384 1.922,-0.825 2.917,-1.322l-0,8.003c-0.905,0.475 -1.82,0.882 -2.747,1.221c-0.905,0.317 -1.866,0.588 -2.883,0.814c-1.017,0.226 -2.114,0.384 -3.29,0.475c-1.175,0.113 -2.464,0.17 -3.866,0.17l0,-0.001Z" style="fill-rule:nonzero;"/><path id="path12559" d="M309.589,913.629c-1.944,0 -3.719,-0.418 -5.324,-1.255c-1.605,-0.836 -2.985,-2.068 -4.138,-3.696c-1.153,-1.651 -2.057,-3.697 -2.713,-6.138c-0.633,-2.442 -0.949,-5.268 -0.949,-8.479c-0,-3.255 0.316,-6.104 0.949,-8.546c0.656,-2.464 1.572,-4.522 2.747,-6.172c1.199,-1.673 2.623,-2.928 4.273,-3.765c1.651,-0.836 3.471,-1.254 5.46,-1.254c1.221,-0 2.34,0.146 3.358,0.44c1.017,0.272 1.933,0.668 2.747,1.187c0.814,0.498 1.537,1.086 2.17,1.764c0.656,0.656 1.232,1.379 1.73,2.17l0.339,0c-0.136,-0.882 -0.26,-1.775 -0.373,-2.679c-0.113,-0.769 -0.215,-1.582 -0.305,-2.442c-0.068,-0.882 -0.102,-1.695 -0.102,-2.442l0,-12.141l10.344,0l-0,52.77l-7.902,-0l-2.001,-4.918l-0.441,0c-0.475,0.769 -1.017,1.503 -1.628,2.205c-0.61,0.677 -1.323,1.265 -2.136,1.763c-0.792,0.498 -1.696,0.893 -2.713,1.187c-0.995,0.294 -2.126,0.44 -3.392,0.44l0,0.001Zm3.765,-8.241c1.22,0 2.26,-0.203 3.12,-0.61c0.859,-0.43 1.548,-1.063 2.068,-1.899c0.543,-0.86 0.939,-1.922 1.187,-3.188c0.272,-1.266 0.419,-2.747 0.441,-4.443l0,-1.12c0,-1.831 -0.113,-3.459 -0.339,-4.883c-0.226,-1.425 -0.599,-2.612 -1.119,-3.561c-0.52,-0.972 -1.221,-1.707 -2.103,-2.204c-0.881,-0.498 -1.989,-0.747 -3.323,-0.747c-2.171,0 -3.764,0.984 -4.782,2.951c-1.017,1.944 -1.526,4.781 -1.526,8.512c0,3.73 0.509,6.534 1.526,8.41c1.04,1.854 2.657,2.781 4.85,2.781l-0,0.001Z" style="fill-rule:nonzero;"/><path id="path12561" d="M378.908,874.324c1.944,-0 3.719,0.418 5.324,1.254c1.606,0.837 2.985,2.08 4.138,3.731c1.153,1.65 2.046,3.697 2.679,6.138c0.656,2.442 0.983,5.268 0.983,8.479c0,3.255 -0.327,6.115 -0.983,8.58c-0.633,2.441 -1.538,4.487 -2.713,6.138c-1.176,1.65 -2.589,2.894 -4.239,3.73c-1.651,0.837 -3.471,1.255 -5.46,1.255c-1.266,0 -2.397,-0.136 -3.392,-0.407c-0.972,-0.272 -1.842,-0.634 -2.611,-1.086c-0.769,-0.452 -1.447,-0.96 -2.035,-1.526c-0.565,-0.588 -1.085,-1.198 -1.56,-1.831l-0.712,-0l-1.73,4.171l-7.901,0l-0,-52.769l10.343,0l0,12.277c0,0.746 -0.022,1.56 -0.067,2.442c-0.045,0.859 -0.09,1.661 -0.136,2.407c-0.068,0.882 -0.135,1.764 -0.203,2.646l0.407,-0c0.474,-0.792 1.017,-1.526 1.627,-2.205c0.611,-0.678 1.312,-1.266 2.103,-1.763c0.814,-0.52 1.73,-0.927 2.747,-1.221c1.017,-0.294 2.148,-0.441 3.391,-0.441l-0,0.001Zm-3.493,8.275c-1.153,-0 -2.137,0.215 -2.951,0.644c-0.791,0.408 -1.435,1.029 -1.933,1.866c-0.497,0.836 -0.859,1.899 -1.085,3.188c-0.226,1.266 -0.362,2.746 -0.407,4.442l0,1.12c0,1.831 0.102,3.459 0.305,4.883c0.226,1.425 0.588,2.623 1.086,3.595c0.497,0.95 1.153,1.673 1.967,2.171c0.836,0.497 1.865,0.746 3.086,0.746c2.057,-0 3.561,-0.972 4.51,-2.917c0.972,-1.967 1.458,-4.815 1.458,-8.546c0,-3.73 -0.486,-6.522 -1.458,-8.376c-0.949,-1.877 -2.476,-2.815 -4.578,-2.815l-0,-0.001Z" style="fill-rule:nonzero;"/><path id="path12563" d="M395.492,875.036l11.327,-0l6.104,21.331c0.361,1.176 0.621,2.431 0.779,3.765c0.182,1.334 0.295,2.532 0.339,3.594l0.204,0c0.047,-0.519 0.104,-1.096 0.17,-1.729c0.09,-0.633 0.192,-1.278 0.304,-1.933c0.114,-0.656 0.238,-1.3 0.374,-1.933c0.158,-0.656 0.316,-1.244 0.474,-1.764l5.969,-21.331l11.395,-0l-14.99,42.764c-1.401,4.002 -3.312,6.975 -5.731,8.92c-2.419,1.944 -5.449,2.916 -9.089,2.916c-1.175,0 -2.193,-0.068 -3.052,-0.203c-0.859,-0.113 -1.594,-0.238 -2.204,-0.373l-0,-8.207c0.475,0.113 1.074,0.215 1.797,0.305c0.724,0.09 1.481,0.135 2.272,0.135c1.086,0 2.013,-0.146 2.781,-0.44c0.769,-0.294 1.425,-0.712 1.967,-1.255c0.565,-0.52 1.04,-1.153 1.425,-1.899c0.407,-0.747 0.757,-1.583 1.051,-2.51l0.645,-1.899l-14.311,-38.254Z" style="fill-rule:nonzero;"/></g></g><g id="EndeavourOS1" serif:id="EndeavourOS"><g id="Logo"><path id="path3736" d="M515.797,201.607c60.329,86.915 314.185,423.121 141.251,493.192c-80.79,37.866 -448.835,-22.234 -443.554,-12.41c-26.403,44.198 -47.392,79.773 -47.392,79.773c-0,-0 283.822,13.03 502.959,-17.114c312.865,-42.851 -64.421,-451.419 -153.132,-543.05l-0.132,-0.391Z" style="fill:#7f7fff;fill-rule:nonzero;"/><path id="path3738" d="M515.797,201.607c-20.065,2.816 -388.11,464.895 -388.11,464.895c-0,-0 26.534,7.68 86.863,16.574c19.537,-15.496 294.383,-487.802 302.303,-481.065c-0.141,-0.19 -0.369,-0.26 -0.689,-0.215l-0.367,-0.189Z" style="fill:#ff7f7f;fill-rule:nonzero;"/><path id="path3740" d="M515.797,201.607c-12.673,-2.102 -302.303,481.065 -302.303,481.065c-0,-0 262.7,28.298 370.949,26.411c304.943,-5.255 2.323,-412.341 -68.118,-508.015c-0.092,-0.094 -0.199,-0.145 -0.327,-0.167l-0.201,0.706Z" style="fill:#7f3fbf;fill-rule:nonzero;"/></g><path id="ENDEAVOUR" d="M519.238,1070.32c-10.695,0 -19.369,8.811 -19.369,19.557l-0,103.585c0.211,10.574 8.842,19.342 19.369,19.342l10.485,0c10.274,-0.438 18.485,-8.811 18.695,-19.342l0,-103.585c0,-10.574 -8.421,-19.127 -18.695,-19.557l-10.485,0Zm-450.546,1.35c-3.444,-0 -6.232,2.742 -6.484,6.06l-0.009,0.11l0,133.673l32.591,-0c5.053,-0 8.127,-2.519 9.432,-4.9l0.034,-0.047l0.017,-0.048c0.754,-1.543 2.901,-6.705 4.379,-10.143l1.474,-3.391l-29.644,-0l0,-44.271c0,-0.306 0.552,-0.873 0.854,-0.873l5.685,-0c5.053,-0 8,-2.635 9.263,-4.9l0.034,-0.051l0.017,-0.043c0.403,-0.821 1.048,-2.403 1.873,-4.385c0.826,-1.977 1.773,-4.238 2.518,-5.931l1.474,-3.386l-21.685,0l0,-37.74c0,-0.8 0.066,-0.873 0.854,-0.873l10.948,-0c5.095,-0 8.211,-2.712 9.348,-5.287l6.063,-13.41l-39.036,-0.164Zm63.161,-0l-0,139.69l18.316,0l0,-55.876l9.895,45.56c0.276,1.32 0.725,3.877 2.363,6.233c1.642,2.359 4.716,4.341 9.011,4.341l8.589,-0l0,-139.69l-18.316,-0l-0,56.306l-9.306,-46.85l0,-0.009c-0.4,-2.05 -1.015,-4.513 -2.918,-6.447c-1.907,-1.947 -4.884,-3.013 -9.053,-3.013l-8.581,-0.245Zm76.214,-0l-0,139.69l28.632,0c10.527,0 18.949,-8.639 19.159,-19.342l0,-101.006c-0.211,-10.703 -8.674,-19.342 -19.159,-19.342l-28.632,-0Zm88.845,-0c-3.444,-0 -6.231,2.738 -6.526,6.06l-0.008,0.11l-0,133.673l32.59,-0c5.053,-0 8.127,-2.519 9.432,-4.9l0.017,-0.047l0.033,-0.048c0.754,-1.538 2.901,-6.705 4.379,-10.143l1.474,-3.391l-29.643,-0l-0,-44.271c-0,-0.314 0.546,-0.873 0.846,-0.873l5.684,-0c5.053,-0 8,-2.639 9.264,-4.9l0.016,-0.051l0.017,-0.043c0.4,-0.817 1.056,-2.403 1.882,-4.385c0.829,-1.977 1.773,-4.238 2.518,-5.931l1.474,-3.391l-21.684,-0l-0,-37.741c-0,-0.808 0.066,-0.872 0.846,-0.872l10.948,-0c5.094,-0 8.21,-2.687 9.347,-5.244l0.009,-0.017l6.063,-13.41l-38.978,-0.185Zm75.372,-0l-0.304,2.05l-20.464,137.971l19.748,-0l9.853,-76.937l9.854,76.937l19.748,-0l-19.496,-130.664l0,-0.009c-0.296,-1.912 -0.67,-4.143 -2.122,-6.103c-1.452,-1.969 -4.059,-3.249 -7.411,-3.249l-9.406,0.004Zm49.265,-0l0.419,2.776l18.906,125.507l0,0.011c0.066,0.433 0.437,3.224 1.836,5.888c1.398,2.678 4.295,5.545 8.632,5.545l8.842,0l20.928,-139.69l-18.401,-0l-11.411,76.507l-10.316,-69.2l-0.009,-0.027c-0.889,-5.196 -4.101,-7.216 -6.316,-7.216l-13.11,-0.101Zm162.955,-0c-3.365,-0 -6.021,2.742 -6.316,6.06l-0.009,0.11l0,115.621c0,10.745 8.716,18.998 19.159,18.998l12.759,-0l-0,-0.688c8.968,-1.332 16.253,-8.596 16.253,-18.31l-0,-121.638l-18.317,-0l0,119.058c0,2.747 -2.13,4.9 -4.842,4.9l-2.072,0c-2.694,0 -4.631,-2.097 -4.631,-4.9l-0,-119.058l-11.984,-0.153Zm70.319,-0l-0,139.69l18.316,0l0,-58.025l4.843,-0c1.339,-0 2.383,0.361 3.158,1.165c0.774,0.804 1.474,2.256 1.474,5.114l-0,52.008l18.316,0l0,-54.157c0,0 0.117,-2.759 -0.518,-5.931c-0.451,-2.257 -1.622,-4.685 -3.398,-6.748c0.527,-0.516 1.369,-0.744 1.726,-1.337c0.944,-1.556 1.441,-3.262 1.743,-4.857c0.61,-3.18 0.442,-6.06 0.442,-6.06l0,-41.52c0,-10.789 -8.632,-19.385 -18.99,-19.385l-27.112,0.043Zm-129.69,15.602l1.966,0c2.695,0 4.8,2.111 4.8,5.115l0,98.428c0,3.004 -2.126,5.115 -4.8,5.115l-1.966,-0c-2.758,-0.135 -4.927,-2.36 -4.927,-5.115l0,-98.428c0,-2.751 2.173,-4.986 4.927,-5.115Zm148.217,2.115l4.842,-0c1.381,-0 2.564,0.385 3.322,1.031c0.758,0.65 1.31,1.556 1.31,3.508l-0,36.276c-0,2.635 -0.637,3.727 -1.34,4.341c-0.702,0.628 -1.827,0.959 -3.288,0.959l-4.842,-0l-0.004,-46.115Zm-446.335,0.967l6.526,-0c1.496,-0 2.737,0.4 3.512,1.049c0.775,0.649 1.315,1.543 1.315,3.49l-0,93.27c-0,2.067 -0.561,3.008 -1.332,3.67c-0.771,0.657 -2,1.057 -3.494,1.057l-6.527,0l-0,-102.536Z" style="fill:#fff;fill-rule:nonzero;"/><path id="OS" d="M742.405,1070.32c-10.695,0 -19.369,8.811 -19.369,19.557l0,103.585c0.211,10.574 8.843,19.342 19.369,19.342l10.485,0c10.274,-0.438 18.485,-8.811 18.696,-19.342l-0,-103.585c-0,-10.574 -8.422,-19.127 -18.696,-19.557l-10.485,0Zm77.056,0c-10.821,0 -19.369,9.585 -19.369,20.33l0,13.755c0,-0 -0.538,9.885 6.358,22.737l16.254,31.076l0.016,0.034c0,-0 1.389,2.48 2.796,5.931c1.406,3.447 2.754,7.866 2.754,11.218l-0,15.431c-0,3 -2.131,5.115 -4.842,5.115c-2.695,-0 -4.801,-2.167 -4.801,-4.9l0,-27.251l-3.322,1.505c-1.705,0.773 -3.92,1.788 -5.853,2.652c-1.924,0.864 -3.764,1.637 -3.954,1.702l-0.214,0.075l-0.181,0.119c-2.27,1.289 -5.011,4.427 -5.011,9.627l0,13.926c0.211,10.488 8.422,19.084 18.696,19.514l8.59,0c10.695,0 19.369,-8.811 19.369,-19.557l-0,-17.022c-0,0 0.543,-9.886 -6.316,-22.737l-16.254,-31.291l-0.016,-0.043c-0,-0 -1.386,-2.42 -2.788,-5.803c-1.402,-3.395 -2.753,-7.737 -2.753,-11.089l-0,-12.938c-0,-3.004 2.134,-5.114 4.842,-5.114c2.695,-0 4.842,2.11 4.842,5.114l0,19.256l3.264,-1.41c3.667,-1.577 8.842,-4.014 10.147,-4.685l0.051,-0.034l0.051,-0.027c2.274,-1.29 4.969,-4.427 4.969,-9.628l-0,-5.201c-0,-10.573 -8.253,-20.115 -18.738,-20.33l-0.033,0l-8.554,-0.057Zm-73.266,16.978l1.966,-0c2.695,-0 4.801,2.11 4.801,5.115l-0,98.428c-0,3.004 -2.127,5.114 -4.801,5.114l-1.966,0c-2.762,-0.134 -4.927,-2.359 -4.927,-5.114l0,-98.428c0,-2.751 2.173,-4.986 4.927,-5.115Z" style="fill:#7f7fff;fill-rule:nonzero;"/></g></g></svg>