<?xml version="1.0" encoding="UTF-8" standalone="no"?><!DOCTYPE svg PUBLIC "-//W3C//DTD SVG 1.1//EN" "http://www.w3.org/Graphics/SVG/1.1/DTD/svg11.dtd"><svg width="100%" height="100%" viewBox="0 0 907 1352" version="1.1" xmlns="http://www.w3.org/2000/svg" xmlns:xlink="http://www.w3.org/1999/xlink" xml:space="preserve" xmlns:serif="http://www.serif.com/" style="fill-rule:evenodd;clip-rule:evenodd;stroke-linejoin:round;"><rect id="Gentoo" x="0" y="0" width="906.667" height="1351.11" style="fill:none;"/><clipPath id="_clip1"><rect x="0" y="0" width="906.667" height="1351.11"/></clipPath><g clip-path="url(#_clip1)"><g id="READ-ME" serif:id="READ ME"><path id="Frame" d="M897.778,363.221c-0,-195.561 -158.771,-354.332 -354.333,-354.332l-180.224,-0c-195.561,-0 -354.332,158.771 -354.332,354.332l-0,624.669c-0,195.561 158.771,354.332 354.332,354.332l180.224,0c195.562,0 354.333,-158.771 354.333,-354.332l-0,-624.669Z" style="fill:#fff;stroke:#000;stroke-width:17.78px;"/><path id="Bottom" d="M895.371,1141.21c-0,-107.643 -87.393,-195.036 -195.036,-195.036l-494.004,0c-107.643,0 -195.035,87.393 -195.035,195.036c-0,107.643 87.392,195.036 195.035,195.036l494.004,-0c107.643,-0 195.036,-87.393 195.036,-195.036Z" style="stroke:#000;stroke-width:15.52px;"/><g id="Powered-By" serif:id="Powered By"><path id="path12547" d="M59.75,886.702l2.069,0c2.962,0 5.189,-0.588 6.681,-1.763c1.515,-1.176 2.272,-3.087 2.272,-5.732c-0,-2.464 -0.678,-4.284 -2.035,-5.46c-1.334,-1.176 -3.436,-1.763 -6.308,-1.763l-2.679,-0l0,14.718Zm21.671,-7.868c-0,2.171 -0.328,4.251 -0.984,6.24c-0.655,1.99 -1.741,3.742 -3.255,5.257c-1.493,1.515 -3.471,2.724 -5.935,3.628c-2.442,0.905 -5.472,1.357 -9.089,1.357l-2.408,-0l0,17.635l-10.513,-0l0,-49.581l13.769,-0c3.188,-0 5.935,0.362 8.241,1.085c2.328,0.701 4.239,1.718 5.731,3.052c1.515,1.312 2.634,2.928 3.358,4.85c0.723,1.899 1.085,4.058 1.085,6.477l-0,0Z" style="fill-rule:nonzero;"/><path id="path12549" d="M98.581,893.926c-0,3.775 0.531,6.624 1.594,8.546c1.062,1.899 2.792,2.848 5.189,2.848c2.373,0 4.092,-0.96 5.154,-2.882c1.063,-1.922 1.594,-4.759 1.594,-8.512c0,-3.776 -0.531,-6.591 -1.594,-8.445c-1.062,-1.876 -2.803,-2.815 -5.222,-2.815c-2.374,0 -4.092,0.939 -5.155,2.815c-1.04,1.854 -1.56,4.669 -1.56,8.445Zm24.078,-0c0,3.165 -0.407,5.968 -1.221,8.41c-0.791,2.442 -1.944,4.499 -3.459,6.172c-1.492,1.673 -3.323,2.951 -5.494,3.832c-2.148,0.86 -4.567,1.289 -7.257,1.289c-2.51,0 -4.816,-0.429 -6.918,-1.289c-2.103,-0.881 -3.923,-2.159 -5.46,-3.832c-1.515,-1.673 -2.702,-3.73 -3.561,-6.172c-0.859,-2.442 -1.289,-5.245 -1.289,-8.41c-0,-3.143 0.396,-5.935 1.187,-8.377c0.814,-2.442 1.967,-4.488 3.459,-6.138c1.515,-1.673 3.346,-2.939 5.494,-3.799c2.148,-0.859 4.578,-1.288 7.291,-1.288c2.51,-0 4.816,0.429 6.919,1.288c2.102,0.86 3.911,2.126 5.426,3.799c1.537,1.65 2.735,3.696 3.595,6.138c0.859,2.442 1.288,5.234 1.288,8.377Z" style="fill-rule:nonzero;"/><path id="path12551" d="M160.54,912.951l-2.916,-13.26c-0.091,-0.384 -0.215,-0.927 -0.373,-1.628c-0.136,-0.724 -0.294,-1.526 -0.475,-2.408c-0.181,-0.904 -0.373,-1.854 -0.576,-2.849c-0.181,-1.017 -0.373,-2.023 -0.577,-3.018c-0.452,-2.329 -0.95,-4.838 -1.492,-7.529l-0.204,0c-0.52,2.691 -0.994,5.212 -1.424,7.563c-0.181,0.995 -0.373,2.001 -0.576,3.018c-0.181,1.018 -0.362,1.979 -0.543,2.883c-0.181,0.882 -0.35,1.684 -0.509,2.408c-0.135,0.723 -0.248,1.289 -0.339,1.695l-3.052,13.125l-11.124,-0l-10.208,-37.915l10.276,-0l3.832,16.787c0.204,0.882 0.407,1.944 0.611,3.188c0.226,1.221 0.429,2.464 0.61,3.73c0.204,1.244 0.384,2.431 0.543,3.561c0.158,1.108 0.282,1.99 0.373,2.645l0.203,0c0.023,-0.43 0.068,-0.983 0.136,-1.661c0.09,-0.701 0.192,-1.447 0.305,-2.239c0.113,-0.791 0.226,-1.594 0.339,-2.408c0.136,-0.836 0.26,-1.616 0.373,-2.34c0.136,-0.723 0.249,-1.356 0.339,-1.899c0.113,-0.565 0.204,-0.961 0.272,-1.187l4.137,-18.177l11.395,-0l3.968,18.177c0.113,0.498 0.26,1.267 0.441,2.306c0.181,1.04 0.361,2.16 0.542,3.358c0.204,1.176 0.373,2.329 0.509,3.459c0.136,1.108 0.215,1.978 0.237,2.611l0.204,0c0.068,-0.565 0.181,-1.402 0.339,-2.509c0.181,-1.108 0.373,-2.295 0.576,-3.561c0.204,-1.289 0.419,-2.566 0.645,-3.832c0.249,-1.266 0.475,-2.34 0.678,-3.222l3.968,-16.787l10.14,-0l-10.343,37.915l-11.26,-0Z" style="fill-rule:nonzero;"/><path id="path12553" d="M202.898,881.683c-1.831,-0 -3.357,0.644 -4.578,1.933c-1.198,1.289 -1.888,3.312 -2.069,6.07l13.192,0c-0.022,-1.153 -0.169,-2.215 -0.441,-3.187c-0.271,-0.973 -0.678,-1.809 -1.22,-2.51c-0.543,-0.724 -1.221,-1.289 -2.035,-1.696c-0.814,-0.407 -1.764,-0.61 -2.849,-0.61l0,-0Zm1.323,31.946c-2.713,0 -5.212,-0.395 -7.495,-1.187c-2.284,-0.791 -4.251,-1.978 -5.901,-3.561c-1.65,-1.605 -2.939,-3.617 -3.866,-6.036c-0.905,-2.442 -1.357,-5.302 -1.357,-8.58c0,-3.324 0.419,-6.229 1.255,-8.716c0.837,-2.487 2.001,-4.556 3.493,-6.206c1.515,-1.673 3.324,-2.928 5.426,-3.765c2.126,-0.836 4.477,-1.254 7.054,-1.254c2.51,-0 4.771,0.384 6.783,1.152c2.035,0.747 3.753,1.855 5.155,3.324c1.424,1.47 2.509,3.278 3.255,5.426c0.769,2.125 1.153,4.567 1.153,7.325l0,5.019l-23.128,0c0.044,1.447 0.271,2.759 0.678,3.934c0.429,1.153 1.017,2.137 1.763,2.951c0.769,0.791 1.685,1.402 2.747,1.831c1.086,0.43 2.318,0.645 3.697,0.645c1.153,0 2.238,-0.057 3.256,-0.17c1.04,-0.136 2.046,-0.328 3.018,-0.576c0.972,-0.249 1.933,-0.554 2.882,-0.916c0.95,-0.384 1.922,-0.825 2.917,-1.322l-0,8.003c-0.904,0.475 -1.82,0.882 -2.747,1.221c-0.904,0.317 -1.865,0.588 -2.883,0.814c-1.017,0.226 -2.114,0.384 -3.289,0.475c-1.176,0.113 -2.465,0.17 -3.866,0.17l-0,-0.001Z" style="fill-rule:nonzero;"/><path id="path12555" d="M247.698,874.324c0.271,-0 0.565,0.011 0.881,0.035c0.339,0 0.656,0.024 0.95,0.071c0.316,0.024 0.599,0.059 0.848,0.106c0.271,0.024 0.474,0.059 0.61,0.107l-0,9.699c-0.181,-0.047 -0.43,-0.093 -0.746,-0.136c-0.317,-0.047 -0.656,-0.083 -1.018,-0.106c-0.339,-0.048 -0.678,-0.071 -1.017,-0.071c-0.339,-0.024 -0.622,-0.036 -0.848,-0.036c-1.334,0 -2.566,0.17 -3.696,0.509c-1.108,0.34 -2.069,0.894 -2.883,1.662c-0.791,0.747 -1.413,1.741 -1.865,2.984c-0.43,1.221 -0.645,2.725 -0.645,4.511l0,19.297l-10.343,-0l-0,-37.915l7.834,-0l1.526,5.697l0.509,0c0.542,-0.972 1.13,-1.854 1.763,-2.645c0.633,-0.791 1.334,-1.458 2.103,-2.001c0.791,-0.565 1.673,-0.995 2.645,-1.289c0.995,-0.316 2.125,-0.475 3.391,-0.475l0.001,-0.004Z" style="fill-rule:nonzero;"/><path id="path12557" d="M273.404,881.683c-1.832,-0 -3.358,0.644 -4.579,1.933c-1.198,1.289 -1.887,3.312 -2.068,6.07l13.192,0c-0.023,-1.153 -0.17,-2.215 -0.441,-3.187c-0.271,-0.973 -0.678,-1.809 -1.221,-2.51c-0.542,-0.724 -1.221,-1.289 -2.035,-1.696c-0.813,-0.407 -1.763,-0.61 -2.848,-0.61l-0,-0Zm1.322,31.946c-2.713,0 -5.211,-0.395 -7.494,-1.187c-2.284,-0.791 -4.251,-1.978 -5.901,-3.561c-1.651,-1.605 -2.94,-3.617 -3.866,-6.036c-0.905,-2.442 -1.357,-5.302 -1.357,-8.58c-0,-3.324 0.418,-6.229 1.255,-8.716c0.836,-2.487 2.001,-4.556 3.493,-6.206c1.515,-1.673 3.323,-2.928 5.426,-3.765c2.125,-0.836 4.477,-1.254 7.054,-1.254c2.51,-0 4.77,0.384 6.783,1.152c2.034,0.747 3.753,1.855 5.154,3.324c1.425,1.47 2.51,3.278 3.256,5.426c0.769,2.125 1.153,4.567 1.153,7.325l0,5.019l-23.129,0c0.045,1.447 0.271,2.759 0.679,3.934c0.429,1.153 1.017,2.137 1.763,2.951c0.769,0.791 1.684,1.402 2.747,1.831c1.085,0.43 2.317,0.645 3.697,0.645c1.153,0 2.238,-0.057 3.255,-0.17c1.04,-0.136 2.046,-0.328 3.018,-0.576c0.973,-0.249 1.934,-0.554 2.883,-0.916c0.95,-0.384 1.922,-0.825 2.917,-1.322l-0,8.003c-0.905,0.475 -1.82,0.882 -2.747,1.221c-0.905,0.317 -1.866,0.588 -2.883,0.814c-1.017,0.226 -2.114,0.384 -3.29,0.475c-1.175,0.113 -2.464,0.17 -3.866,0.17l0,-0.001Z" style="fill-rule:nonzero;"/><path id="path12559" d="M309.589,913.629c-1.944,0 -3.719,-0.418 -5.324,-1.255c-1.605,-0.836 -2.985,-2.068 -4.138,-3.696c-1.153,-1.651 -2.057,-3.697 -2.713,-6.138c-0.633,-2.442 -0.949,-5.268 -0.949,-8.479c-0,-3.255 0.316,-6.104 0.949,-8.546c0.656,-2.464 1.572,-4.522 2.747,-6.172c1.199,-1.673 2.623,-2.928 4.273,-3.765c1.651,-0.836 3.471,-1.254 5.46,-1.254c1.221,-0 2.34,0.146 3.358,0.44c1.017,0.272 1.933,0.668 2.747,1.187c0.814,0.498 1.537,1.086 2.17,1.764c0.656,0.656 1.232,1.379 1.73,2.17l0.339,0c-0.136,-0.882 -0.26,-1.775 -0.373,-2.679c-0.113,-0.769 -0.215,-1.582 -0.305,-2.442c-0.068,-0.882 -0.102,-1.695 -0.102,-2.442l0,-12.141l10.344,0l-0,52.77l-7.902,-0l-2.001,-4.918l-0.441,0c-0.475,0.769 -1.017,1.503 -1.628,2.205c-0.61,0.677 -1.323,1.265 -2.136,1.763c-0.792,0.498 -1.696,0.893 -2.713,1.187c-0.995,0.294 -2.126,0.44 -3.392,0.44l0,0.001Zm3.765,-8.241c1.22,0 2.26,-0.203 3.12,-0.61c0.859,-0.43 1.548,-1.063 2.068,-1.899c0.543,-0.86 0.939,-1.922 1.187,-3.188c0.272,-1.266 0.419,-2.747 0.441,-4.443l0,-1.12c0,-1.831 -0.113,-3.459 -0.339,-4.883c-0.226,-1.425 -0.599,-2.612 -1.119,-3.561c-0.52,-0.972 -1.221,-1.707 -2.103,-2.204c-0.881,-0.498 -1.989,-0.747 -3.323,-0.747c-2.171,0 -3.764,0.984 -4.782,2.951c-1.017,1.944 -1.526,4.781 -1.526,8.512c0,3.73 0.509,6.534 1.526,8.41c1.04,1.854 2.657,2.781 4.85,2.781l-0,0.001Z" style="fill-rule:nonzero;"/><path id="path12561" d="M378.908,874.324c1.944,-0 3.719,0.418 5.324,1.254c1.606,0.837 2.985,2.08 4.138,3.731c1.153,1.65 2.046,3.697 2.679,6.138c0.656,2.442 0.983,5.268 0.983,8.479c0,3.255 -0.327,6.115 -0.983,8.58c-0.633,2.441 -1.538,4.487 -2.713,6.138c-1.176,1.65 -2.589,2.894 -4.239,3.73c-1.651,0.837 -3.471,1.255 -5.46,1.255c-1.266,0 -2.397,-0.136 -3.392,-0.407c-0.972,-0.272 -1.842,-0.634 -2.611,-1.086c-0.769,-0.452 -1.447,-0.96 -2.035,-1.526c-0.565,-0.588 -1.085,-1.198 -1.56,-1.831l-0.712,-0l-1.73,4.171l-7.901,0l-0,-52.769l10.343,0l0,12.277c0,0.746 -0.022,1.56 -0.067,2.442c-0.045,0.859 -0.09,1.661 -0.136,2.407c-0.068,0.882 -0.135,1.764 -0.203,2.646l0.407,-0c0.474,-0.792 1.017,-1.526 1.627,-2.205c0.611,-0.678 1.312,-1.266 2.103,-1.763c0.814,-0.52 1.73,-0.927 2.747,-1.221c1.017,-0.294 2.148,-0.441 3.391,-0.441l-0,0.001Zm-3.493,8.275c-1.153,-0 -2.137,0.215 -2.951,0.644c-0.791,0.408 -1.435,1.029 -1.933,1.866c-0.497,0.836 -0.859,1.899 -1.085,3.188c-0.226,1.266 -0.362,2.746 -0.407,4.442l0,1.12c0,1.831 0.102,3.459 0.305,4.883c0.226,1.425 0.588,2.623 1.086,3.595c0.497,0.95 1.153,1.673 1.967,2.171c0.836,0.497 1.865,0.746 3.086,0.746c2.057,-0 3.561,-0.972 4.51,-2.917c0.972,-1.967 1.458,-4.815 1.458,-8.546c0,-3.73 -0.486,-6.522 -1.458,-8.376c-0.949,-1.877 -2.476,-2.815 -4.578,-2.815l-0,-0.001Z" style="fill-rule:nonzero;"/><path id="path12563" d="M395.492,875.036l11.327,-0l6.104,21.331c0.361,1.176 0.621,2.431 0.779,3.765c0.182,1.334 0.295,2.532 0.339,3.594l0.204,0c0.047,-0.519 0.104,-1.096 0.17,-1.729c0.09,-0.633 0.192,-1.278 0.304,-1.933c0.114,-0.656 0.238,-1.3 0.374,-1.933c0.158,-0.656 0.316,-1.244 0.474,-1.764l5.969,-21.331l11.395,-0l-14.99,42.764c-1.401,4.002 -3.312,6.975 -5.731,8.92c-2.419,1.944 -5.449,2.916 -9.089,2.916c-1.175,0 -2.193,-0.068 -3.052,-0.203c-0.859,-0.113 -1.594,-0.238 -2.204,-0.373l-0,-8.207c0.475,0.113 1.074,0.215 1.797,0.305c0.724,0.09 1.481,0.135 2.272,0.135c1.086,0 2.013,-0.146 2.781,-0.44c0.769,-0.294 1.425,-0.712 1.967,-1.255c0.565,-0.52 1.04,-1.153 1.425,-1.899c0.407,-0.747 0.757,-1.583 1.051,-2.51l0.645,-1.899l-14.311,-38.254Z" style="fill-rule:nonzero;"/></g></g><g id="Gentoo1" serif:id="Gentoo"><g id="Logo"><g id="g5680"><path id="path2973" d="M141.231,678.16c0.073,-27.779 23.686,-66.56 57.238,-101.792c22.423,-23.546 45.196,-44.214 94.837,-86.54c-34.337,-18.843 -87.743,-41.575 -114.539,-71.347c-9.914,-11.015 -27.887,-35.972 -24.401,-69.314c7.104,-67.958 90.984,-171.091 210.212,-192.894c39.671,-7.256 85.218,-2.019 122.705,14.834c117.602,52.872 261.425,184.223 279.12,248.359c6.229,22.575 5.032,58.559 -5.707,78.614c-13.307,24.855 -59.378,75.339 -122.409,127.433c-98.901,81.736 -237.492,169.505 -340.975,184.273c-33.438,4.773 -67.6,-0.204 -91.573,-13.731c-37.511,-21.167 -49.962,-49.423 -54.338,-57.894c-11.639,-22.521 -10.195,-51.054 -10.17,-60.001Zm278.345,-312.085c1.277,-15.749 63.035,-0.07 59.134,12.403c-4.117,13.159 -60.6,5.665 -59.134,-12.403Z" style="fill:url(#_Linear2);"/><g id="mid"><path id="path2975" d="M326.731,463.804c-32.5,27.439 -54.108,45.94 -81.198,70.701c-65.239,59.628 -109.566,105.014 -86.713,167.056c26.364,71.569 84.152,67.941 151.92,54.639c174.676,-34.452 461.813,-255.198 447.178,-336.734c-11.843,-65.973 -172.263,-197.14 -267.244,-243.815c-29.674,-14.583 -63.87,-22.125 -98.17,-20.51c-130.605,6.165 -232.599,125.073 -227.389,189.5c5.069,62.678 163.486,117.293 161.616,119.163Zm-19.604,-218.814c-39.299,43.725 -14.174,128.319 50.999,174.429c76.261,53.955 199.755,63.724 224.33,22.114c45.839,-77.613 -4.211,-159.677 -78.922,-196.284c-73.827,-36.175 -171.91,-27.514 -196.407,-0.259Z" style="fill:url(#_Linear3);"/><path id="path4976" d="M441.15,417.585c55.172,7.669 102.727,-14.426 110.164,-68.908c5.665,-41.5 -57.848,-86.842 -96.034,-97.299c-31.888,-8.734 -101.118,2.496 -105.787,62.807c-4.85,62.697 59.487,98.929 91.657,103.4Zm-27.017,-104.277c-36.259,56.172 52.644,73.442 66.255,63.199c58.683,-44.166 -50.281,-87.946 -66.255,-63.199Z" style="fill:url(#_Radial4);"/></g><path id="path2977" d="M381.976,170.067c-64.138,6.757 -76.42,15.013 -134.523,58.972c-19.474,14.733 -55.314,50.582 -64.497,93.111c-3.498,16.197 0.637,30.182 12.301,39.988c37.353,31.404 99.871,56.881 151.161,81.509c15.022,7.214 5.075,20.294 -19.15,41.266c-61.131,52.922 -143.78,117.344 -149.55,166.433c-2.719,23.13 5.201,54.562 33.277,70.647c32.798,18.79 100.881,6.526 146.344,-10.403c66.434,-24.738 153.703,-79.337 222.985,-133.004c72.044,-55.81 139.031,-126.693 142.343,-138.254c4.069,-14.198 3.663,-27.309 -4.189,-42.387c-12.331,-23.675 -28.817,-41.265 -46.518,-60.957c-47.498,-50.074 -97.752,-94.072 -157.878,-127.789c-43.419,-24.349 -81.62,-44.453 -132.106,-39.132Zm94.214,112.26c46.335,22.401 93.917,81.244 -0.414,115.111c-25.651,9.21 -107.001,-22.617 -104.511,-66.051c3.631,-64.16 48.347,-76.413 104.925,-49.06Z" style="fill:url(#_Radial5);"/></g></g><g id="gentoo-linux" serif:id="gentoo linux"><g id="g25413"><path id="path25385" d="M529.675,1015.05l16.081,-0l-0,193.794c-5.36,-0.114 -11.17,0.222 -16.25,-0.171l0,-193.117c-0.015,-0.24 -0.027,-0.478 0.169,-0.506" style="fill:#fefefe;"/><path id="path25387" d="M570.127,1015.05l17.771,-0l0,20.479l-17.94,-0c0.113,-6.771 -0.224,-13.993 0.169,-20.479" style="fill:#fefefe;"/><path id="path25389" d="M302.88,1073.78l12.355,0l0,13.711l-12.187,-0c-0.309,29.992 -0.167,63.497 -0.168,94.948c-0,4.767 -0.271,9.519 1.354,12.188c1.71,2.812 6.679,3.34 11.001,3.048l0,14.215c-10.667,0.683 -21.166,0.064 -25.049,-7.277c-3.525,-6.665 -3.385,-16.539 -3.385,-26.744l-0,-90.378l-8.801,-0l-0,-13.711l8.801,0l-0,-29.787c5.251,-2.141 10.999,-4.686 16.079,-6.433l-0,36.22Z" style="fill:#fefefe;"/><path id="path25391" d="M822.82,1039.42l14.048,-0l-0,3.721l-4.907,0c-0.396,14.557 -0.058,29.845 -0.169,44.686c-1.369,-0.1 -3.14,0.205 -4.232,-0.169l-0,-44.517l-4.909,0c0.111,-1.184 -0.223,-2.817 0.169,-3.721" style="fill:#fefefe;"/><path id="path25393" d="M841.437,1039.42l7.109,-0c1.366,14.994 3.136,29.586 4.569,44.513c0.945,-3.447 1.131,-7.188 1.524,-10.832c1.202,-11.162 2.18,-22.583 3.386,-33.681l7.108,-0l0,48.407c-1.203,-0.094 -2.796,0.199 -3.723,-0.169c-0.113,-14.841 0.223,-30.129 -0.171,-44.684c-0.86,0.484 -0.604,1.802 -0.675,2.539c-1.33,13.787 -3.042,28.582 -4.572,42.314l-5.753,-0c-1.722,-14.924 -3.01,-30.279 -5.079,-44.853c-0.784,14.244 -0.115,29.952 -0.337,44.853l-3.555,-0c0.114,-16.081 -0.226,-32.612 0.169,-48.407" style="fill:#fefefe;"/><path id="path25395" d="M64.913,1111.53l-0,53.485c-0,9.272 -0.3,19.084 3.045,23.696c2.476,3.41 9.061,4.773 13.033,2.537c5.502,-3.093 5.754,-13.57 5.754,-23.696l-0,-59.067c-0,-9.625 0.186,-20.378 -6.093,-23.527c-1.72,-0.862 -5.153,-0.902 -6.769,-0.674c-9.942,1.396 -8.97,15.95 -8.97,27.246m21.832,-29.62c0.522,-2.637 0.821,-5.496 1.355,-8.122l15.063,0l0,142.171c0,12.632 -0.094,23.934 -3.216,32.33c-3.261,8.767 -10.565,13.091 -22.172,13.369c-12.108,0.29 -20.817,-2.744 -25.049,-10.492c-4.071,-7.452 -4.687,-18.032 -4.401,-31.144l16.925,-0c0.471,8.897 -1.048,18.476 2.37,24.204c2.931,4.913 12.268,5.04 15.739,0.676c3.969,-4.984 3.386,-15.551 3.386,-25.387l-0,-24.711c-1.587,1.931 -2.599,3.821 -4.232,5.416c-7.809,7.625 -24.692,7.85 -30.296,-1.692c-3.817,-6.499 -3.892,-17.317 -3.892,-28.097l0,-63.977c0,-17.844 0.117,-34.577 16.079,-35.882c11.425,-0.933 17.952,4.366 22.341,11.338" style="fill:#fefefe;"/><path id="path25397" d="M165.278,1108.82c0,-11.901 0.674,-25.635 -11.678,-24.539c-9.807,0.866 -9.647,13.064 -9.647,24.03l-0,26.914c6.771,0.394 14.272,0.056 21.325,0.169l0,-26.574Zm16.925,40.283l-38.25,-0l-0,24.879c-0,7.84 -0.232,17.327 3.383,21.495c3.303,3.806 11.404,3.692 14.557,-0c5.592,-6.55 2.451,-22.078 3.385,-33.004l16.925,0c-0.351,15.244 0.987,28.383 -4.231,38.759c-3.57,7.101 -11.598,10.467 -21.326,10.834c-9.949,0.37 -18.932,-2.036 -23.525,-8.463c-5.345,-7.479 -5.755,-21.399 -5.755,-34.697l-0,-40.454c-0,-14.527 -0.699,-28.267 1.523,-38.926c2.503,-12.012 8.888,-18.116 22.003,-18.957c13.367,-0.854 22.416,2.529 26.742,10.494c4.383,8.07 4.569,19.583 4.569,31.819l0,36.221Z" style="fill:#fefefe;"/><path id="path25399" d="M261.244,1208.85l-16.079,-0l-0,-92.582c-0,-9.702 1.004,-21.867 -2.877,-27.928c-3.257,-5.085 -13.232,-5.335 -16.756,-0.169c-4.021,5.896 -3.048,18.324 -3.048,27.928l0,92.751l-16.078,-0l-0,-135.065l15.063,0c0.397,2.595 0.712,5.27 1.015,7.955c3.768,-5.222 8.74,-10.472 17.265,-11.171c21.781,-1.777 21.495,17.13 21.495,37.573l-0,100.708Z" style="fill:#fefefe;"/><path id="path25401" d="M347.561,1112.2l0,57.208c0,9.63 -0.798,20.848 3.046,25.726c3.174,4.023 11.118,3.648 14.048,1.013c4.712,-4.231 4.232,-16.124 4.232,-25.895c-0,-20.571 0.002,-38.995 -0,-60.251c-0,-12.364 0.762,-27.181 -12.016,-25.558c-10.528,1.334 -9.31,15.841 -9.31,27.757m6.6,-41.467c9.615,-0.752 18.693,0.965 23.696,5.753c9.521,9.111 7.955,31.574 7.955,50.608c0.002,9.957 -0,19.937 -0,29.281c0.002,19.193 1.514,41.471 -8.464,50.266c-5.488,4.84 -14.645,6.153 -23.693,5.247c-8.412,-0.84 -15.137,-4.247 -18.449,-10.829c-3.516,-6.996 -4.182,-17.238 -4.401,-28.268c-0.232,-11.787 0,-21.538 0,-32.495c0,-11.749 -0.512,-21.84 0,-32.666c0.461,-9.735 1.027,-20.987 4.909,-27.587c3.468,-5.9 10.387,-8.681 18.447,-9.31" style="fill:#fefefe;"/><path id="path25403" d="M426.095,1113.05l-0,59.068c-0,9.724 -0.445,21.147 4.907,24.711c3.449,2.297 9.897,1.575 12.356,-0.678c4.621,-4.229 4.062,-16.466 4.062,-26.064c-0.002,-20.224 0,-39.221 0,-60.253c-0.002,-12.446 0.664,-26.999 -12.017,-25.387c-10.736,1.361 -9.308,16.593 -9.308,28.603m6.6,-42.315c12.021,-0.939 22.772,1.879 27.25,10.665c4.815,9.449 4.4,25.697 4.4,40.958c0.002,15.522 0,29.991 0,45.188c0.002,14.914 -0.238,30.432 -7.446,37.915c-7.036,7.301 -24.534,9.108 -35.374,3.386c-10.359,-5.472 -11.62,-18.647 -12.186,-35.036c-0.396,-11.439 -0,-21.489 -0,-32.329c-0,-11.033 -0.244,-22.342 -0,-32.495c0.238,-9.952 0.906,-21.099 4.4,-27.927c3.399,-6.64 10.46,-9.659 18.956,-10.325" style="fill:#fefefe;"/><path id="path25405" d="M666.601,1208.85l-16.079,-0c0.002,-29.743 -0.002,-61.058 0,-91.907c0,-9.716 1.098,-21.669 -2.537,-28.092c-2.38,-4.211 -9.521,-6.197 -14.559,-3.048c-6.185,3.867 -5.414,16.658 -5.414,26.742l0,96.134c-5.078,0.393 -10.887,0.057 -16.247,0.171l-0,-135.065l15.061,0c0.442,2.551 0.734,5.247 1.016,7.955c3.807,-5.179 8.743,-10.472 17.264,-11.171c21.679,-1.771 21.495,16.831 21.495,37.404c0.002,33.067 -0,69.882 -0,100.877" style="fill:#fefefe;"/><path id="path25407" d="M570.804,1073.78l16.079,0c-0.113,44.966 0.227,90.379 -0.169,135.065l-15.91,-0c-0.395,-44.513 -0.055,-89.761 -0.168,-134.556c-0.016,-0.24 -0.029,-0.478 0.168,-0.509" style="fill:#fefefe;"/><path id="path25409" d="M691.481,1073.78l16.08,0c0.004,29.01 -0.004,61.148 0,91.905c0,11.931 -1.848,28.766 6.938,31.99c5.162,1.89 10.457,-0.188 12.526,-3.556c3.825,-6.232 2.877,-18.257 2.877,-27.928c-0.002,-30.813 0.002,-62.405 0,-92.411l16.416,0l0,134.894c-4.682,0.393 -10.096,0.057 -15.063,0.171c-0.608,-2.551 -0.935,-5.386 -1.353,-8.124c-3.468,6.437 -11.167,11.446 -21.496,11c-17.225,-0.744 -17.096,-18.688 -17.094,-37.066c0.004,-33.299 -0.004,-68.03 -0,-100.366c-0.016,-0.24 -0.029,-0.478 0.169,-0.509" style="fill:#fefefe;"/><path id="path25411" d="M763.075,1073.78l16.754,0c3.919,16.448 7.738,32.996 11.511,49.591c3.972,-16.337 7.571,-33.049 11.34,-49.591l15.401,0c-5.698,20.05 -11.154,40.466 -16.925,61.102c-0.391,1.396 -1.165,2.871 -1.184,3.891c-0.046,2.118 1.912,6.615 2.539,8.801c5.867,20.46 11.553,41.039 17.432,61.271l-17.432,-0c-4.435,-18.528 -8.941,-36.984 -13.202,-55.687c-4.609,18.357 -8.853,37.073 -13.203,55.687l-15.4,-0c5.894,-20.244 11.617,-40.832 17.601,-61.609c0.817,-2.842 2.504,-6.195 2.539,-8.632c0.029,-2.194 -1.48,-5.518 -2.201,-8.124c-5.195,-18.756 -10.37,-37.671 -15.57,-56.191c0.034,-0.292 -0.288,-0.439 -0,-0.509" style="fill:#fefefe;"/></g></g></g></g><defs><linearGradient id="_Linear2" x1="0" y1="0" x2="1" y2="0" gradientUnits="userSpaceOnUse" gradientTransform="matrix(413.282,2164.52,-2164.52,413.282,42.3875,-1352.96)"><stop offset="0" style="stop-color:#fff;stop-opacity:1"/><stop offset="0.34" style="stop-color:#fff;stop-opacity:1"/><stop offset="0.51" style="stop-color:#bebdf3;stop-opacity:1"/><stop offset="0.75" style="stop-color:#867fb7;stop-opacity:1"/><stop offset="0.87" style="stop-color:#9f99c7;stop-opacity:1"/><stop offset="1" style="stop-color:#524c76;stop-opacity:1"/></linearGradient><linearGradient id="_Linear3" x1="0" y1="0" x2="1" y2="0" gradientUnits="userSpaceOnUse" gradientTransform="matrix(-124.834,-559.721,559.721,-124.834,550.799,639.616)"><stop offset="0" style="stop-color:#fff;stop-opacity:1"/><stop offset="0.34" style="stop-color:#fff;stop-opacity:1"/><stop offset="0.51" style="stop-color:#bebbdb;stop-opacity:1"/><stop offset="0.75" style="stop-color:#928bbe;stop-opacity:1"/><stop offset="0.87" style="stop-color:#9f99c7;stop-opacity:1"/><stop offset="1" style="stop-color:#524c76;stop-opacity:1"/></linearGradient><radialGradient id="_Radial4" cx="0" cy="0" r="1" gradientUnits="userSpaceOnUse" gradientTransform="matrix(111.095,0,0,85.1502,404.357,299.34)"><stop offset="0" style="stop-color:#fff;stop-opacity:1"/><stop offset="0.34" style="stop-color:#fff;stop-opacity:1"/><stop offset="0.51" style="stop-color:#bebbdb;stop-opacity:1"/><stop offset="0.75" style="stop-color:#928bbe;stop-opacity:1"/><stop offset="0.87" style="stop-color:#9f99c7;stop-opacity:1"/><stop offset="1" style="stop-color:#524c76;stop-opacity:1"/></radialGradient><radialGradient id="_Radial5" cx="0" cy="0" r="1" gradientUnits="userSpaceOnUse" gradientTransform="matrix(-15.2298,966.346,-824.167,-12.9764,151.599,326.59)"><stop offset="0" style="stop-color:#fff;stop-opacity:1"/><stop offset="0.34" style="stop-color:#fff;stop-opacity:1"/><stop offset="0.51" style="stop-color:#bebbdb;stop-opacity:1"/><stop offset="0.75" style="stop-color:#928bbe;stop-opacity:1"/><stop offset="0.87" style="stop-color:#9f99c7;stop-opacity:1"/><stop offset="1" style="stop-color:#524c76;stop-opacity:1"/></radialGradient></defs></svg>