<?xml version="1.0" encoding="UTF-8" standalone="no"?><!DOCTYPE svg PUBLIC "-//W3C//DTD SVG 1.1//EN" "http://www.w3.org/Graphics/SVG/1.1/DTD/svg11.dtd"><svg width="100%" height="100%" viewBox="0 0 907 1352" version="1.1" xmlns="http://www.w3.org/2000/svg" xmlns:xlink="http://www.w3.org/1999/xlink" xml:space="preserve" xmlns:serif="http://www.serif.com/" style="fill-rule:evenodd;clip-rule:evenodd;stroke-linejoin:round;stroke-miterlimit:2;"><rect id="GhostBSD" x="0" y="0" width="906.667" height="1351.11" style="fill:none;"/><clipPath id="_clip1"><rect x="0" y="0" width="906.667" height="1351.11"/></clipPath><g clip-path="url(#_clip1)"><g><g id="Frame"><path id="path36023" d="M363.226,8.892l180.223,-0c196.3,-0 354.331,36.928 354.331,82.799l0,1167.73c0,45.871 -158.031,82.8 -354.331,82.8l-180.223,-0c-196.299,-0 -354.331,-36.929 -354.331,-82.8l0,-1167.73c0,-45.871 158.032,-82.799 354.331,-82.799Z" style="fill:#fff;fill-rule:nonzero;"/><path id="path36025" d="M363.234,0c-98.707,0 -187.781,9.234 -252.806,24.429c-32.512,7.598 -58.999,16.618 -78.086,27.198c-9.544,5.29 -17.286,10.978 -22.976,17.509c-5.69,6.53 -9.366,14.275 -9.366,22.561l0,1167.72c0,8.285 3.676,16.03 9.366,22.56c5.69,6.531 13.432,12.219 22.976,17.509c19.087,10.581 45.574,19.6 78.086,27.198c65.025,15.195 154.099,24.429 252.806,24.429l180.209,0c98.707,0 187.781,-9.234 252.806,-24.429c32.512,-7.598 58.999,-16.617 78.086,-27.198c9.544,-5.29 17.286,-10.978 22.976,-17.509c5.69,-6.53 9.366,-14.275 9.366,-22.56l-0,-1167.72c-0,-8.286 -3.676,-16.031 -9.366,-22.561c-5.69,-6.531 -13.432,-12.219 -22.976,-17.509c-19.087,-10.58 -45.574,-19.6 -78.086,-27.198c-65.025,-15.195 -154.099,-24.429 -252.806,-24.429l-180.209,0Zm-0,17.786l180.209,-0c97.593,-0 185.703,9.231 248.769,23.968c31.533,7.368 56.818,16.176 73.496,25.421c8.339,4.622 14.481,9.365 18.201,13.633c3.719,4.269 4.982,7.706 4.982,10.889l0,1167.72c0,3.182 -1.263,6.619 -4.982,10.888c-3.72,4.269 -9.862,9.011 -18.201,13.633c-16.678,9.245 -41.963,18.053 -73.496,25.421c-63.066,14.738 -151.176,23.969 -248.769,23.969l-180.209,-0c-97.593,-0 -185.703,-9.231 -248.769,-23.969c-31.533,-7.368 -56.818,-16.176 -73.496,-25.421c-8.339,-4.622 -14.481,-9.364 -18.201,-13.633c-3.719,-4.269 -4.982,-7.706 -4.982,-10.888l-0,-1167.72c-0,-3.183 1.263,-6.62 4.982,-10.889c3.72,-4.268 9.862,-9.011 18.201,-13.633c16.678,-9.245 41.963,-18.053 73.496,-25.421c63.066,-14.737 151.176,-23.968 248.769,-23.968Z" style="fill-rule:nonzero;"/></g><g id="Bottom"><path id="path35979" d="M371.606,946.173l163.464,0c199.608,0 360.304,38.151 360.304,85.54l-0,218.99c-0,47.389 -160.696,85.54 -360.304,85.54l-163.464,-0c-199.609,-0 -360.304,-38.151 -360.304,-85.54l-0,-218.99c-0,-47.389 160.695,-85.54 360.304,-85.54Z" style="fill-rule:nonzero;"/><path id="path35981" d="M371.607,938.419c-100.298,0 -190.804,9.547 -256.796,25.214c-32.996,7.833 -59.838,17.123 -79.078,27.958c-19.241,10.836 -32.18,23.883 -32.18,40.116l-0,218.988c-0,16.233 12.939,29.303 32.18,40.139c19.24,10.835 46.082,20.125 79.078,27.958c65.992,15.667 156.498,25.214 256.796,25.214l163.463,0c100.298,0 190.804,-9.547 256.796,-25.214c32.996,-7.833 59.838,-17.123 79.078,-27.958c19.241,-10.836 32.18,-23.906 32.18,-40.139l0,-218.988c0,-16.233 -12.939,-29.28 -32.18,-40.116c-19.24,-10.835 -46.082,-20.125 -79.078,-27.958c-65.992,-15.667 -156.498,-25.214 -256.796,-25.214l-163.463,0Zm0,15.525l163.463,-0c99.309,-0 188.962,9.52 253.22,24.775c32.129,7.628 57.914,16.745 75.042,26.39c17.127,9.646 24.291,19.137 24.291,26.598l-0,218.988c-0,7.461 -7.164,16.952 -24.291,26.598c-17.128,9.645 -42.913,18.762 -75.042,26.39c-64.258,15.255 -153.911,24.798 -253.22,24.798l-163.463,0c-99.309,0 -188.962,-9.543 -253.22,-24.798c-32.129,-7.628 -57.914,-16.745 -75.042,-26.39c-17.127,-9.646 -24.291,-19.137 -24.291,-26.598l0,-218.988c0,-7.461 7.164,-16.952 24.291,-26.598c17.128,-9.645 42.913,-18.762 75.042,-26.39c64.258,-15.255 153.911,-24.775 253.22,-24.775Z" style="fill-rule:nonzero;"/></g><g id="Powered-By" serif:id="Powered By"><path id="path12547" d="M59.756,886.701l2.069,0c2.962,0 5.189,-0.588 6.681,-1.763c1.515,-1.176 2.272,-3.086 2.272,-5.732c-0,-2.464 -0.678,-4.284 -2.035,-5.46c-1.334,-1.175 -3.436,-1.763 -6.308,-1.763l-2.679,-0l0,14.718Zm21.671,-7.868c-0,2.171 -0.328,4.251 -0.984,6.24c-0.656,1.99 -1.741,3.742 -3.256,5.257c-1.492,1.515 -3.47,2.724 -5.934,3.629c-2.442,0.904 -5.472,1.356 -9.089,1.356l-2.408,0l0,17.635l-10.513,-0l0,-49.581l13.769,-0c3.188,-0 5.935,0.362 8.241,1.085c2.328,0.701 4.239,1.719 5.731,3.053c1.515,1.311 2.634,2.927 3.357,4.849c0.724,1.899 1.086,4.058 1.086,6.478l-0,-0.001Z" style="fill-rule:nonzero;"/><path id="path12549" d="M98.587,893.925c-0,3.775 0.531,6.624 1.594,8.546c1.062,1.899 2.792,2.848 5.188,2.848c2.374,0 4.093,-0.96 5.155,-2.882c1.063,-1.922 1.594,-4.759 1.594,-8.512c0,-3.776 -0.531,-6.591 -1.594,-8.445c-1.062,-1.876 -2.803,-2.814 -5.223,-2.814c-2.373,-0 -4.092,0.938 -5.154,2.814c-1.04,1.854 -1.56,4.669 -1.56,8.445Zm24.078,-0c0,3.165 -0.407,5.968 -1.221,8.41c-0.791,2.442 -1.944,4.499 -3.459,6.172c-1.492,1.673 -3.323,2.951 -5.494,3.833c-2.148,0.859 -4.567,1.288 -7.257,1.288c-2.51,0 -4.816,-0.429 -6.919,-1.288c-2.102,-0.882 -3.922,-2.16 -5.46,-3.833c-1.514,-1.673 -2.701,-3.73 -3.56,-6.172c-0.86,-2.442 -1.289,-5.245 -1.289,-8.41c-0,-3.143 0.395,-5.935 1.187,-8.377c0.814,-2.442 1.967,-4.488 3.459,-6.138c1.515,-1.673 3.346,-2.939 5.494,-3.798c2.148,-0.86 4.578,-1.289 7.291,-1.289c2.51,-0 4.816,0.429 6.918,1.289c2.103,0.859 3.912,2.125 5.427,3.798c1.537,1.65 2.735,3.696 3.594,6.138c0.859,2.442 1.289,5.234 1.289,8.377Z" style="fill-rule:nonzero;"/><path id="path12551" d="M160.546,912.95l-2.917,-13.26c-0.09,-0.384 -0.214,-0.927 -0.373,-1.628c-0.135,-0.724 -0.293,-1.526 -0.474,-2.408c-0.181,-0.904 -0.373,-1.854 -0.577,-2.848c-0.181,-1.018 -0.373,-2.024 -0.576,-3.019c-0.453,-2.328 -0.95,-4.838 -1.492,-7.528l-0.204,-0c-0.52,2.69 -0.995,5.211 -1.424,7.562c-0.181,0.995 -0.373,2.001 -0.577,3.019c-0.181,1.017 -0.362,1.978 -0.542,2.882c-0.181,0.882 -0.351,1.684 -0.509,2.408c-0.136,0.723 -0.249,1.289 -0.339,1.696l-3.052,13.124l-11.124,-0l-10.208,-37.915l10.276,0l3.832,16.787c0.203,0.882 0.407,1.944 0.61,3.188c0.226,1.221 0.43,2.464 0.611,3.73c0.203,1.244 0.384,2.431 0.542,3.561c0.159,1.108 0.283,1.99 0.373,2.645l0.204,0c0.023,-0.429 0.068,-0.983 0.136,-1.661c0.09,-0.701 0.192,-1.447 0.305,-2.239c0.113,-0.791 0.226,-1.593 0.339,-2.407c0.135,-0.837 0.26,-1.617 0.373,-2.34c0.136,-0.724 0.249,-1.357 0.339,-1.9c0.113,-0.565 0.204,-0.961 0.271,-1.187l4.138,-18.177l11.395,0l3.967,18.177c0.113,0.498 0.26,1.267 0.441,2.307c0.181,1.04 0.362,2.159 0.543,3.357c0.203,1.176 0.373,2.329 0.509,3.459c0.135,1.108 0.214,1.978 0.237,2.611l0.203,0c0.068,-0.565 0.181,-1.401 0.34,-2.509c0.18,-1.108 0.373,-2.295 0.576,-3.561c0.203,-1.289 0.418,-2.566 0.644,-3.832c0.249,-1.266 0.475,-2.34 0.679,-3.222l3.968,-16.787l10.14,0l-10.344,37.915l-11.259,-0Z" style="fill-rule:nonzero;"/><path id="path12553" d="M202.903,881.682c-1.831,0 -3.357,0.644 -4.578,1.933c-1.198,1.289 -1.888,3.312 -2.068,6.071l13.192,-0c-0.023,-1.153 -0.17,-2.216 -0.441,-3.188c-0.272,-0.972 -0.678,-1.809 -1.221,-2.51c-0.543,-0.723 -1.221,-1.289 -2.035,-1.695c-0.814,-0.408 -1.763,-0.611 -2.849,-0.611l0,0Zm1.323,31.946c-2.713,0 -5.211,-0.395 -7.495,-1.187c-2.283,-0.791 -4.25,-1.978 -5.901,-3.561c-1.65,-1.605 -2.939,-3.617 -3.866,-6.036c-0.904,-2.442 -1.356,-5.302 -1.356,-8.58c-0,-3.324 0.418,-6.229 1.255,-8.716c0.836,-2.487 2,-4.555 3.493,-6.206c1.514,-1.673 3.323,-2.928 5.426,-3.764c2.125,-0.837 4.476,-1.255 7.054,-1.255c2.509,-0 4.77,0.384 6.782,1.153c2.035,0.746 3.753,1.854 5.155,3.323c1.424,1.47 2.51,3.278 3.256,5.426c0.768,2.125 1.153,4.567 1.153,7.325l-0,5.02l-23.129,-0c0.045,1.447 0.271,2.758 0.678,3.934c0.43,1.153 1.018,2.136 1.764,2.95c0.768,0.791 1.684,1.402 2.747,1.831c1.085,0.43 2.317,0.645 3.696,0.645c1.153,0 2.239,-0.057 3.256,-0.17c1.04,-0.135 2.046,-0.328 3.018,-0.576c0.972,-0.249 1.933,-0.554 2.883,-0.916c0.949,-0.384 1.922,-0.825 2.916,-1.322l0,8.003c-0.904,0.475 -1.82,0.882 -2.747,1.221c-0.904,0.317 -1.865,0.588 -2.882,0.814c-1.018,0.226 -2.114,0.384 -3.29,0.475c-1.175,0.113 -2.464,0.17 -3.866,0.17l0,-0.001Z" style="fill-rule:nonzero;"/><path id="path12555" d="M247.703,874.323c0.271,-0 0.565,0.012 0.881,0.035c0.34,0 0.656,0.024 0.95,0.071c0.317,0.024 0.599,0.059 0.848,0.106c0.271,0.024 0.475,0.059 0.61,0.107l0,9.699c-0.181,-0.047 -0.429,-0.093 -0.746,-0.136c-0.316,-0.047 -0.656,-0.083 -1.017,-0.106c-0.339,-0.047 -0.679,-0.071 -1.018,-0.071c-0.339,-0.024 -0.621,-0.036 -0.847,-0.036c-1.334,0 -2.567,0.17 -3.697,0.51c-1.108,0.339 -2.069,0.893 -2.883,1.661c-0.791,0.747 -1.413,1.742 -1.865,2.985c-0.429,1.22 -0.644,2.724 -0.644,4.51l-0,19.297l-10.344,-0l0,-37.915l7.834,-0l1.526,5.697l0.509,0c0.543,-0.972 1.13,-1.854 1.763,-2.645c0.633,-0.791 1.334,-1.458 2.103,-2.001c0.791,-0.565 1.673,-0.995 2.645,-1.289c0.995,-0.316 2.125,-0.474 3.392,-0.474l-0,-0.005Z" style="fill-rule:nonzero;"/><path id="path12557" d="M273.409,881.682c-1.831,0 -3.358,0.644 -4.578,1.933c-1.199,1.289 -1.888,3.312 -2.069,6.071l13.192,-0c-0.023,-1.153 -0.17,-2.216 -0.441,-3.188c-0.271,-0.972 -0.678,-1.809 -1.221,-2.51c-0.542,-0.723 -1.221,-1.289 -2.034,-1.695c-0.814,-0.408 -1.764,-0.611 -2.849,-0.611l-0,0Zm1.322,31.946c-2.713,0 -5.211,-0.395 -7.494,-1.187c-2.284,-0.791 -4.251,-1.978 -5.901,-3.561c-1.651,-1.605 -2.939,-3.617 -3.866,-6.036c-0.905,-2.442 -1.357,-5.302 -1.357,-8.58c0,-3.324 0.418,-6.229 1.255,-8.716c0.836,-2.487 2.001,-4.555 3.493,-6.206c1.515,-1.673 3.323,-2.928 5.426,-3.764c2.125,-0.837 4.477,-1.255 7.054,-1.255c2.51,-0 4.77,0.384 6.783,1.153c2.034,0.746 3.753,1.854 5.154,3.323c1.425,1.47 2.51,3.278 3.256,5.426c0.769,2.125 1.153,4.567 1.153,7.325l0,5.02l-23.129,-0c0.045,1.447 0.271,2.758 0.679,3.934c0.429,1.153 1.017,2.136 1.763,2.95c0.769,0.791 1.685,1.402 2.747,1.831c1.085,0.43 2.318,0.645 3.697,0.645c1.153,0 2.238,-0.057 3.255,-0.17c1.04,-0.135 2.046,-0.328 3.019,-0.576c0.972,-0.249 1.933,-0.554 2.882,-0.916c0.95,-0.384 1.922,-0.825 2.917,-1.322l-0,8.003c-0.905,0.475 -1.82,0.882 -2.747,1.221c-0.905,0.317 -1.865,0.588 -2.883,0.814c-1.017,0.226 -2.114,0.384 -3.289,0.475c-1.176,0.113 -2.465,0.17 -3.867,0.17l0,-0.001Z" style="fill-rule:nonzero;"/><path id="path12559" d="M309.594,913.628c-1.944,0 -3.719,-0.418 -5.324,-1.255c-1.605,-0.836 -2.985,-2.068 -4.138,-3.696c-1.153,-1.651 -2.057,-3.697 -2.713,-6.138c-0.633,-2.442 -0.949,-5.268 -0.949,-8.479c-0,-3.255 0.316,-6.104 0.949,-8.546c0.656,-2.464 1.572,-4.521 2.747,-6.172c1.199,-1.673 2.623,-2.928 4.273,-3.764c1.651,-0.837 3.471,-1.255 5.46,-1.255c1.221,-0 2.34,0.147 3.358,0.44c1.017,0.272 1.933,0.668 2.747,1.187c0.814,0.498 1.537,1.086 2.17,1.764c0.656,0.656 1.232,1.379 1.73,2.17l0.339,0c-0.136,-0.881 -0.26,-1.774 -0.373,-2.679c-0.113,-0.768 -0.215,-1.582 -0.305,-2.442c-0.068,-0.881 -0.102,-1.695 -0.102,-2.441l0,-12.141l10.344,-0l-0,52.769l-7.902,-0l-2.001,-4.918l-0.441,0c-0.475,0.769 -1.018,1.504 -1.628,2.205c-0.61,0.678 -1.323,1.265 -2.136,1.763c-0.792,0.498 -1.696,0.893 -2.714,1.187c-0.994,0.294 -2.125,0.441 -3.391,0.441l0,0Zm3.765,-8.241c1.22,0 2.26,-0.203 3.12,-0.61c0.859,-0.43 1.548,-1.063 2.068,-1.899c0.543,-0.859 0.939,-1.922 1.187,-3.188c0.272,-1.266 0.419,-2.747 0.441,-4.443l0,-1.12c0,-1.831 -0.113,-3.459 -0.339,-4.883c-0.226,-1.424 -0.599,-2.611 -1.119,-3.561c-0.52,-0.972 -1.221,-1.707 -2.103,-2.204c-0.881,-0.498 -1.989,-0.747 -3.323,-0.747c-2.171,0 -3.765,0.984 -4.782,2.951c-1.017,1.944 -1.526,4.781 -1.526,8.512c0,3.73 0.509,6.534 1.526,8.41c1.04,1.854 2.657,2.781 4.85,2.781l-0,0.001Z" style="fill-rule:nonzero;"/><path id="path12561" d="M378.913,874.323c1.944,-0 3.719,0.418 5.324,1.255c1.605,0.836 2.984,2.08 4.137,3.73c1.153,1.651 2.046,3.697 2.68,6.138c0.655,2.442 0.983,5.268 0.983,8.479c0,3.255 -0.328,6.115 -0.983,8.58c-0.634,2.441 -1.538,4.488 -2.714,6.138c-1.175,1.65 -2.588,2.894 -4.239,3.73c-1.65,0.837 -3.47,1.255 -5.46,1.255c-1.266,0 -2.396,-0.136 -3.391,-0.407c-0.972,-0.272 -1.843,-0.634 -2.611,-1.086c-0.769,-0.452 -1.447,-0.96 -2.035,-1.526c-0.565,-0.588 -1.085,-1.198 -1.56,-1.831l-0.712,-0l-1.73,4.171l-7.902,0l0,-52.769l10.344,0l-0,12.277c-0,0.746 -0.023,1.56 -0.067,2.442c-0.045,0.859 -0.091,1.661 -0.136,2.408c-0.068,0.881 -0.136,1.763 -0.204,2.645l0.407,-0c0.475,-0.792 1.018,-1.526 1.628,-2.205c0.611,-0.678 1.311,-1.265 2.103,-1.763c0.814,-0.52 1.729,-0.927 2.747,-1.221c1.017,-0.294 2.148,-0.441 3.391,-0.441l-0,0.001Zm-3.493,8.275c-1.153,-0 -2.137,0.215 -2.951,0.645c-0.791,0.407 -1.436,1.028 -1.933,1.865c-0.497,0.836 -0.859,1.899 -1.085,3.188c-0.226,1.266 -0.362,2.747 -0.407,4.442l-0,1.12c-0,1.831 0.102,3.459 0.305,4.883c0.226,1.425 0.588,2.623 1.085,3.595c0.498,0.95 1.153,1.673 1.967,2.171c0.837,0.497 1.865,0.746 3.086,0.746c2.058,0 3.561,-0.972 4.511,-2.916c0.972,-1.967 1.458,-4.816 1.458,-8.547c0,-3.73 -0.486,-6.522 -1.458,-8.376c-0.95,-1.877 -2.476,-2.815 -4.578,-2.815l-0,-0.001Z" style="fill-rule:nonzero;"/><path id="path12563" d="M395.496,875.035l11.327,0l6.104,21.331c0.362,1.176 0.622,2.431 0.78,3.765c0.181,1.334 0.294,2.532 0.339,3.595l0.203,-0c0.047,-0.52 0.104,-1.097 0.17,-1.73c0.091,-0.633 0.192,-1.277 0.305,-1.933c0.113,-0.656 0.238,-1.3 0.373,-1.933c0.158,-0.656 0.317,-1.244 0.475,-1.764l5.969,-21.331l11.395,0l-14.99,42.765c-1.402,4.001 -3.312,6.974 -5.731,8.919c-2.42,1.944 -5.449,2.916 -9.089,2.916c-1.176,0 -2.193,-0.068 -3.052,-0.203c-0.859,-0.113 -1.594,-0.238 -2.205,-0.373l0,-8.207c0.475,0.113 1.074,0.215 1.798,0.305c0.723,0.09 1.481,0.135 2.272,0.135c1.085,0 2.012,-0.146 2.781,-0.44c0.768,-0.294 1.424,-0.712 1.967,-1.255c0.565,-0.52 1.04,-1.153 1.424,-1.899c0.407,-0.747 0.758,-1.583 1.051,-2.51l0.645,-1.899l-14.311,-38.254Z" style="fill-rule:nonzero;"/></g></g><g id="GhostBSD1" serif:id="GhostBSD"><g id="GhostBSD2" serif:id="GhostBSD"><g id="text2985-0-8-7-1-2-9-3-0-1-2-5-1-6-3-2"><path id="path428" d="M600.167,1067.53l-60.425,0l0,92.838l60.425,-0c15.4,-0 27.866,-12.613 27.866,-27.866l0,-2.2c0,-5.867 -1.906,-11.587 -5.279,-16.28c4.253,-5.866 5.279,-11.44 5.279,-18.479c0,-15.4 -12.466,-28.013 -27.866,-28.013Zm4.694,64.972c-0,2.493 -2.2,4.546 -4.694,4.546l-37.105,0l-0,-46.198l37.105,-0c4.254,-0 4.694,3.666 4.694,6.893c-0,2.493 -2.2,4.546 -4.694,4.546l-23.172,0l-0,23.32l23.172,-0c4.254,-0 4.694,3.666 4.694,6.893Z" style="fill:#0079a2;fill-rule:nonzero;"/><path id="path430" d="M658.736,1095.39c0,-2.64 2.054,-4.693 4.547,-4.693l53.532,-0l-0,-23.32l-53.532,0c-15.253,0 -27.866,12.613 -27.866,28.013l-0,2.053c-0,15.4 12.613,28.013 27.866,28.013l32.559,-0c4.253,-0 4.693,3.666 4.693,6.746c0,2.64 -2.2,4.694 -4.693,4.694l-53.385,-0l-0,23.319l53.385,-0c15.399,-0 27.866,-12.613 27.866,-28.013l-0,-2.053c-0,-15.4 -12.467,-28.012 -27.866,-28.012l-32.559,-0c-4.253,-0 -4.547,-3.667 -4.547,-6.747Z" style="fill:#0079a2;fill-rule:nonzero;"/><path id="path432" d="M731.091,1067.53l0,92.838l44.146,-0c24.346,-0 44.145,-20.827 44.145,-46.346c0,-25.666 -19.799,-46.492 -44.145,-46.492l-44.146,0Zm23.32,69.518l-0,-46.198l20.826,-0c11.586,-0 20.973,10.413 20.973,23.172c-0,12.76 -9.387,23.026 -20.973,23.026l-20.826,0Z" style="fill:#0079a2;fill-rule:nonzero;"/></g><g id="text2985-0-8-7-1-2-9-7-2-9-72-1-0-3-2-0"><path id="path435" d="M334.804,1140.55c0.376,2.471 0.564,4.431 0.564,5.882c-0,1.396 -0.269,2.631 -0.806,3.706c-0.483,1.02 -1.611,2.497 -3.384,4.431c-1.718,1.879 -3.786,3.786 -6.203,5.72c-5.908,4.672 -11.95,7.009 -18.127,7.009c-8.862,-0 -13.293,-3.921 -13.293,-11.763c-0,-6.821 5.935,-20.409 17.805,-40.765c0.429,-0.752 0.725,-1.289 0.886,-1.611c-4.136,2.9 -12.058,10.822 -23.767,23.766c-11.654,12.89 -19.416,22.021 -23.283,27.392c-0.322,0.483 -1.128,1.02 -2.416,1.611c-1.29,0.591 -2.31,0.886 -3.062,0.886c-0.698,0 -1.45,-0.241 -2.256,-0.725c-0.859,-0.429 -1.396,-0.644 -1.611,-0.644c-0.698,-0 -1.047,-0.242 -1.047,-0.725c-0,-0.43 0.966,-2.874 2.9,-7.332c1.88,-4.511 4.377,-10.097 7.492,-16.757c8.54,-18.369 21.242,-42.269 38.107,-71.702c5.908,-10.312 10.527,-17.617 13.857,-21.914c2.364,-3.061 6.338,-4.592 11.924,-4.592c1.181,0 1.853,0.349 2.014,1.048c0.161,0.698 0.242,1.45 0.242,2.255c-0,0.806 -0.162,1.612 -0.484,2.417l-8.62,13.454c-17.08,26.64 -29.943,48.715 -38.59,66.224c8.378,-10.205 16.515,-18.073 24.411,-23.605c4.887,-3.491 8.539,-5.237 10.956,-5.237c2.471,0 4.7,0.403 6.687,1.209c1.987,0.752 2.981,2.605 2.981,5.559c0,1.074 -1.746,5.048 -5.237,11.923c-10.473,20.625 -15.71,32.091 -15.71,34.401c0,2.256 0.94,3.384 2.82,3.384c2.739,-0 6.955,-2.659 12.649,-7.976c4.296,-4.028 7.009,-6.606 8.137,-7.734c0.644,-0.484 1.235,-0.725 1.772,-0.725c1.02,-0 1.584,0.51 1.692,1.53Z" style="fill:#666;fill-rule:nonzero;"/><path id="path437" d="M383.384,1102.92c1.611,-0 3.25,0.725 4.914,2.175c1.719,1.45 2.579,3.679 2.579,6.687c-0,2.954 -1.048,6.821 -3.142,11.601c-2.095,4.727 -4.969,9.56 -8.621,14.502c-3.652,4.887 -7.68,9.506 -12.084,13.857c-4.351,4.297 -9.077,7.841 -14.18,10.634c-5.048,2.74 -9.641,4.109 -13.776,4.109c-4.136,0 -7.466,-1.289 -9.99,-3.867c-2.471,-2.632 -3.706,-6.257 -3.706,-10.876c-0,-4.673 1.128,-9.829 3.384,-15.469c2.309,-5.639 5.263,-10.607 8.862,-14.904c3.598,-4.35 7.492,-8.244 11.681,-11.682c8.755,-7.036 16.436,-10.554 23.042,-10.554c2.954,0 5.183,0.725 6.687,2.176c0.537,0.483 0.805,0.913 0.805,1.289l0,0.483c0.752,-0.108 1.934,-0.162 3.545,-0.162l0,0.001Zm-8.137,10.715l-0.564,-0c-1.88,-0 -2.82,-1.37 -2.82,-4.109c-3.92,1.289 -8.029,3.545 -12.326,6.768c-4.297,3.222 -8.137,7.035 -11.521,11.44c-6.874,8.808 -10.366,16.247 -10.473,22.316c0,3.008 1.101,4.512 3.303,4.512c2.202,-0 5.478,-1.451 9.829,-4.351c4.351,-2.9 8.647,-7.036 12.89,-12.407c4.297,-5.371 7.493,-10.017 9.588,-13.938c2.148,-3.974 3.222,-6.659 3.222,-8.056c-0,-1.45 -0.376,-2.175 -1.128,-2.175Z" style="fill:#666;fill-rule:nonzero;"/><path id="path439" d="M398.127,1148.2l-0.079,1.289c-0,1.343 0.51,2.498 1.53,3.464c1.021,0.967 1.961,1.45 2.82,1.45c6.445,0 12.138,-0.966 17.08,-2.9c4.995,-1.934 7.492,-3.867 7.492,-5.8c0,-0.914 -0.913,-1.692 -2.739,-2.337c-1.772,-0.698 -4.807,-1.531 -9.104,-2.497c-4.243,-1.021 -7.331,-1.8 -9.265,-2.337c-1.933,-0.591 -3.464,-1.128 -4.592,-1.611c-1.128,-0.483 -2.282,-1.155 -3.464,-2.014c-2.524,-1.773 -3.787,-4.404 -3.787,-7.895c0,-3.545 1.289,-7.036 3.868,-10.474c2.631,-3.491 5.908,-6.472 9.828,-8.942c3.921,-2.471 8.137,-4.646 12.649,-6.526c8.916,-3.706 16.408,-5.559 22.477,-5.559c5.962,0 9.641,1.289 11.038,3.867c0.429,0.913 0.644,1.934 0.644,3.061l0,0.564c0,2.847 -0.618,5.076 -1.853,6.687c-1.181,1.612 -3.088,3.062 -5.72,4.351c-2.578,1.289 -4.646,1.933 -6.203,1.933c-1.504,0 -2.471,-0.107 -2.901,-0.322c-0.376,-0.215 -0.698,-0.483 -0.966,-0.806c-0.269,-0.376 -0.618,-0.644 -1.048,-0.805c-0.376,-0.161 -0.564,-0.564 -0.564,-1.209c0,-0.644 0.269,-1.289 0.806,-1.933c0.537,-0.699 0.913,-1.424 1.128,-2.175c-3.545,0.161 -7.251,0.993 -11.118,2.497c-3.867,1.45 -7.197,3.088 -9.99,4.915c-2.739,1.826 -5.022,3.571 -6.848,5.236c-1.826,1.665 -2.739,2.9 -2.739,3.706c-0,0.752 1.235,1.37 3.706,1.853c11.118,2.202 18.422,4.109 21.913,5.72c3.491,1.611 5.908,3.437 7.251,5.478c1.343,2.041 2.014,3.894 2.014,5.559c0,3.438 -1.369,6.687 -4.109,9.749c-2.739,3.061 -6.123,5.559 -10.151,7.492c-8.647,4.243 -16.193,6.365 -22.638,6.365c-6.392,-0 -10.823,-0.994 -13.293,-2.981c-2.417,-1.934 -3.626,-4.243 -3.626,-6.929c0,-2.685 0.672,-5.156 2.014,-7.412c1.397,-2.309 3.169,-3.464 5.318,-3.464c2.148,0 3.222,0.564 3.222,1.692l-0.001,-0Z" style="fill:#666;fill-rule:nonzero;"/><path id="path441" d="M505.278,1060.55l3.303,0.806c0.483,-0 0.913,0.241 1.289,0.725c0.376,0.483 0.564,0.94 0.564,1.369c-0,0.43 -0.564,1.585 -1.692,3.465c-1.128,1.879 -2.471,4.028 -4.028,6.445c-1.504,2.363 -2.31,3.652 -2.417,3.867c4.189,-0.322 7.143,-0.483 8.862,-0.483c1.772,-0 2.981,0.134 3.625,0.402c0.645,0.215 1.37,0.887 2.176,2.015c0.859,1.074 1.638,1.906 2.336,2.497c0.698,0.537 1.047,1.369 1.047,2.497c0,1.128 -0.698,2.095 -2.094,2.901c-1.343,0.752 -2.793,1.208 -4.351,1.369c-12.46,1.236 -19.335,1.88 -20.624,1.934c-4.351,6.66 -10.447,17.053 -18.288,31.178c-7.788,14.072 -11.924,22.88 -12.407,26.425c-0.215,1.612 -0.323,2.927 -0.323,3.948c0,2.095 1.101,3.142 3.304,3.142c2.202,-0 4.646,-0.833 7.331,-2.498c2.685,-1.718 5.156,-3.571 7.412,-5.558c6.015,-5.371 9.238,-8.057 9.668,-8.057c1.396,0 2.094,2.417 2.094,7.251c0,2.632 -1.208,4.995 -3.625,7.09c-5.425,4.672 -9.99,8.19 -13.696,10.553c-3.706,2.364 -7.412,3.545 -11.118,3.545c-0.806,0 -1.558,-0.08 -2.256,-0.241c-4.296,-0.806 -7.465,-2.364 -9.506,-4.673c-1.988,-2.363 -2.981,-5.532 -2.981,-9.507c0.053,-3.974 1.235,-8.781 3.545,-14.421c2.363,-5.693 5.317,-11.735 8.862,-18.127c5.8,-10.419 11.601,-20.194 17.402,-29.325l-3.062,0.403c-6.23,0.698 -9.856,1.047 -10.876,1.047l-0.725,0c-1.558,0 -3.062,-0.295 -4.512,-0.886c-1.45,-0.645 -2.175,-1.423 -2.175,-2.336c0,-0.913 0.376,-1.8 1.128,-2.659c0.806,-0.859 1.289,-1.531 1.45,-2.014c0.376,-1.182 1.773,-2.498 4.19,-3.948c2.47,-1.45 4.323,-2.202 5.558,-2.256c1.236,-0.107 2.417,-0.188 3.545,-0.241c1.182,-0.054 2.471,-0.107 3.867,-0.162c1.45,-0.053 2.551,-0.107 3.304,-0.161l7.25,-0.323c4.512,-6.767 7.6,-11.117 9.265,-13.051c1.719,-1.934 2.712,-2.981 2.981,-3.142c0.269,-0.215 0.806,-0.322 1.611,-0.322l3.787,-0.483Z" style="fill:#666;fill-rule:nonzero;"/></g><g id="text2985-0-8-7-1-2-9-3-0-1-2-5-5-1-67-2-8"><path id="path444" d="M600.167,1067.53l-60.425,0l0,92.838l60.425,-0c15.4,-0 27.866,-12.613 27.866,-27.866l0,-2.2c0,-5.867 -1.906,-11.587 -5.279,-16.28c4.253,-5.866 5.279,-11.44 5.279,-18.479c0,-15.4 -12.466,-28.013 -27.866,-28.013Zm4.694,64.972c-0,2.493 -2.2,4.546 -4.694,4.546l-37.105,0l-0,-46.198l37.105,-0c4.254,-0 4.694,3.666 4.694,6.893c-0,2.493 -2.2,4.546 -4.694,4.546l-23.172,0l-0,23.32l23.172,-0c4.254,-0 4.694,3.666 4.694,6.893Z" style="fill:url(#_Linear2);fill-rule:nonzero;"/><path id="path446" d="M658.736,1095.39c0,-2.64 2.054,-4.693 4.547,-4.693l53.532,-0l-0,-23.32l-53.532,0c-15.253,0 -27.866,12.613 -27.866,28.013l-0,2.053c-0,15.4 12.613,28.013 27.866,28.013l32.559,-0c4.253,-0 4.693,3.666 4.693,6.746c0,2.64 -2.2,4.694 -4.693,4.694l-53.385,-0l-0,23.319l53.385,-0c15.399,-0 27.866,-12.613 27.866,-28.013l-0,-2.053c-0,-15.4 -12.467,-28.012 -27.866,-28.012l-32.559,-0c-4.253,-0 -4.547,-3.667 -4.547,-6.747Z" style="fill:url(#_Linear3);fill-rule:nonzero;"/><path id="path448" d="M731.091,1067.53l0,92.838l44.146,-0c24.346,-0 44.145,-20.827 44.145,-46.346c0,-25.666 -19.799,-46.492 -44.145,-46.492l-44.146,0Zm23.32,69.518l-0,-46.198l20.826,-0c11.586,-0 20.973,10.413 20.973,23.172c-0,12.76 -9.387,23.026 -20.973,23.026l-20.826,0Z" style="fill:url(#_Linear4);fill-rule:nonzero;"/></g><g id="text2985-0-8-7-1-2-9-7-2-9-72-0-3-5-4-23-7-4-0-4"><path id="path451" d="M297.614,1044.23c-0,4.243 -2.704,9.36 -8.113,15.35c-5.408,5.991 -12.105,11.69 -20.093,17.098c-7.904,5.408 -15.766,9.693 -23.587,12.855c1.747,-0.583 3.536,-0.874 5.366,-0.874c6.157,0 10.234,1.124 12.231,3.37c0.499,0.499 0.749,1.082 0.749,1.747c-0,0.666 -1.124,2.288 -3.37,4.868c-23.38,27.04 -44.846,53.872 -64.398,80.497c7.987,-6.24 15.059,-12.189 21.216,-17.847c3.412,-3.078 7.572,-4.618 12.481,-4.618c3.577,0 5.782,0.458 6.614,1.373c0.832,0.916 1.248,1.706 1.248,2.372c0,0.582 -0.541,1.289 -1.622,2.121c-13.895,12.148 -36.567,29.87 -68.017,53.166c-5.409,6.074 -19.054,20.551 -40.936,43.431c-3.91,3.994 -8.237,5.991 -12.979,5.991c-9.235,-0 -13.853,-2.58 -13.853,-7.738c-0,-2.246 1.789,-5.824 5.366,-10.733c5.159,-7.571 17.764,-19.012 37.816,-34.321c4.409,-4.909 12.022,-13.229 22.838,-24.96c20.468,-22.298 32.823,-36.609 37.066,-42.932c-11.315,10.733 -19.885,18.304 -25.709,22.714c-5.824,4.41 -11.232,8.237 -16.224,11.482c-4.909,3.245 -9.443,5.865 -13.603,7.862c-20.135,9.652 -34.487,9.693 -43.057,0.126c-4.327,-4.743 -6.49,-11.69 -6.49,-20.842c0,-9.235 2.538,-19.386 7.613,-30.452c5.075,-11.066 11.856,-21.965 20.343,-32.698c8.486,-10.816 18.554,-21.341 30.202,-31.575c11.648,-10.234 23.754,-19.22 36.317,-26.957c12.564,-7.738 25.793,-13.937 39.688,-18.596c13.894,-4.742 26.998,-7.114 39.312,-7.114c4.243,0 8.237,0.708 11.981,2.122c3.744,1.414 6.407,2.912 7.988,4.493c3.744,3.744 5.616,10.151 5.616,19.219l-0,-0Zm-72.136,26.083l-0.624,2.496c-0,1.415 0.957,2.122 2.87,2.122c5.076,0 12.023,-2.454 20.842,-7.363c8.82,-4.909 15.933,-9.943 21.342,-15.101c5.408,-5.159 8.112,-9.444 8.112,-12.855c-0,-2.912 -2.579,-4.368 -7.738,-4.368c-9.152,-0 -19.469,2.246 -30.951,6.739c-11.399,4.493 -22.548,10.317 -33.447,17.473c-10.899,7.155 -21.632,15.392 -32.199,24.71c-10.567,9.236 -19.802,18.513 -27.706,27.831c-7.821,9.236 -14.144,18.305 -18.97,27.207c-4.826,8.903 -7.239,16.516 -7.239,22.839c0,2.496 0.708,4.701 2.122,6.615c1.498,1.913 3.661,2.87 6.49,2.87c8.736,0 22.797,-6.698 42.183,-20.093c19.469,-13.396 41.809,-31.658 67.019,-54.788c0.333,-0.333 0.915,-0.957 1.747,-1.872c1.831,-2.247 3.703,-3.869 5.616,-4.868c-6.822,2.746 -12.397,4.119 -16.723,4.119c-4.327,-0 -7.905,-0.957 -10.733,-2.871c-2.829,-1.913 -4.244,-4.492 -4.244,-7.737c0,-3.328 1.456,-6.449 4.368,-9.361c2.912,-2.912 4.951,-4.368 6.116,-4.368c1.164,0 1.747,0.208 1.747,0.624Z" style="fill:#0079a2;fill-rule:nonzero;"/></g><g id="text2985-0-8-7-1-2-9-7-2-9-72-0-3-5-4-2-4-7-0-0-9"><path id="path454" d="M297.614,1044.23c-0,4.243 -2.704,9.36 -8.113,15.35c-5.408,5.991 -12.105,11.69 -20.093,17.098c-7.904,5.408 -15.766,9.693 -23.587,12.855c1.747,-0.583 3.536,-0.874 5.366,-0.874c6.157,0 10.234,1.124 12.231,3.37c0.499,0.499 0.749,1.082 0.749,1.747c-0,0.666 -1.124,2.288 -3.37,4.868c-23.38,27.04 -44.846,53.872 -64.398,80.497c7.987,-6.24 15.059,-12.189 21.216,-17.847c3.412,-3.078 7.572,-4.618 12.481,-4.618c3.577,0 5.782,0.458 6.614,1.373c0.832,0.916 1.248,1.706 1.248,2.372c0,0.582 -0.541,1.289 -1.622,2.121c-13.895,12.148 -36.567,29.87 -68.017,53.166c-5.409,6.074 -19.054,20.551 -40.936,43.431c-3.91,3.994 -8.237,5.991 -12.979,5.991c-9.235,-0 -13.853,-2.58 -13.853,-7.738c-0,-2.246 1.789,-5.824 5.366,-10.733c5.159,-7.571 17.764,-19.012 37.816,-34.321c4.409,-4.909 12.022,-13.229 22.838,-24.96c20.468,-22.298 32.823,-36.609 37.066,-42.932c-11.315,10.733 -19.885,18.304 -25.709,22.714c-5.824,4.41 -11.232,8.237 -16.224,11.482c-4.909,3.245 -9.443,5.865 -13.603,7.862c-20.135,9.652 -34.487,9.693 -43.057,0.126c-4.327,-4.743 -6.49,-11.69 -6.49,-20.842c0,-9.235 2.538,-19.386 7.613,-30.452c5.075,-11.066 11.856,-21.965 20.343,-32.698c8.486,-10.816 18.554,-21.341 30.202,-31.575c11.648,-10.234 23.754,-19.22 36.317,-26.957c12.564,-7.738 25.793,-13.937 39.688,-18.596c13.894,-4.742 26.998,-7.114 39.312,-7.114c4.243,0 8.237,0.708 11.981,2.122c3.744,1.414 6.407,2.912 7.988,4.493c3.744,3.744 5.616,10.151 5.616,19.219l-0,-0Zm-72.136,26.083l-0.624,2.496c-0,1.415 0.957,2.122 2.87,2.122c5.076,0 12.023,-2.454 20.842,-7.363c8.82,-4.909 15.933,-9.943 21.342,-15.101c5.408,-5.159 8.112,-9.444 8.112,-12.855c-0,-2.912 -2.579,-4.368 -7.738,-4.368c-9.152,-0 -19.469,2.246 -30.951,6.739c-11.399,4.493 -22.548,10.317 -33.447,17.473c-10.899,7.155 -21.632,15.392 -32.199,24.71c-10.567,9.236 -19.802,18.513 -27.706,27.831c-7.821,9.236 -14.144,18.305 -18.97,27.207c-4.826,8.903 -7.239,16.516 -7.239,22.839c0,2.496 0.708,4.701 2.122,6.615c1.498,1.913 3.661,2.87 6.49,2.87c8.736,0 22.797,-6.698 42.183,-20.093c19.469,-13.396 41.809,-31.658 67.019,-54.788c0.333,-0.333 0.915,-0.957 1.747,-1.872c1.831,-2.247 3.703,-3.869 5.616,-4.868c-6.822,2.746 -12.397,4.119 -16.723,4.119c-4.327,-0 -7.905,-0.957 -10.733,-2.871c-2.829,-1.913 -4.244,-4.492 -4.244,-7.737c0,-3.328 1.456,-6.449 4.368,-9.361c2.912,-2.912 4.951,-4.368 6.116,-4.368c1.164,0 1.747,0.208 1.747,0.624Z" style="fill:url(#_Linear5);fill-rule:nonzero;"/></g></g><g id="Logo"><path id="path4795-4-4-0-8-5-1-5-2-5" d="M781.08,480.193c-0,180.563 -148.582,329.144 -329.145,329.144c-180.563,0 -329.144,-148.581 -329.144,-329.144c-0,-0 -0,-0 -0,-0c-0,-180.563 148.581,-329.145 329.144,-329.145l0,0c180.563,0 329.145,148.582 329.145,329.145c-0,-0 -0,-0 -0,-0Z" style="fill:#333;fill-rule:nonzero;"/><g id="text2985-0-8-7-1-2-9-7-2-9-72-0-3-5-4-23-4-3-1-2-5-2"><path id="path438-3" d="M644.974,291.026c0,8.23 -5.244,18.155 -15.733,29.773c-10.489,11.619 -23.48,22.673 -38.971,33.162c-15.33,10.489 -30.58,18.8 -45.749,24.932c3.389,-1.13 6.859,-1.695 10.409,-1.695c11.941,0 19.848,2.179 23.721,6.536c0.968,0.968 1.453,2.098 1.453,3.389c-0,1.291 -2.179,4.437 -6.536,9.44c-45.345,52.445 -86.979,104.487 -124.901,156.126c15.492,-12.103 29.208,-23.641 41.15,-34.614c6.616,-5.971 14.684,-8.956 24.205,-8.956c6.939,-0 11.216,0.887 12.829,2.662c1.614,1.775 2.421,3.308 2.421,4.599c-0,1.13 -1.049,2.502 -3.147,4.115c-26.949,23.56 -70.922,57.932 -131.92,103.116c-10.489,11.78 -36.954,39.858 -79.394,84.235c-7.585,7.746 -15.976,11.619 -25.174,11.619c-17.912,0 -26.868,-5.002 -26.868,-15.007c-0,-4.357 3.469,-11.296 10.408,-20.817c10.005,-14.685 34.453,-36.873 73.343,-66.566c8.552,-9.52 23.318,-25.657 44.296,-48.411c39.697,-43.247 63.661,-71.003 71.891,-83.267c-21.947,20.817 -38.568,35.502 -49.864,44.054c-11.296,8.553 -21.785,15.976 -31.467,22.269c-9.521,6.294 -18.316,11.377 -26.384,15.25c-39.052,18.719 -66.888,18.8 -83.509,0.242c-8.392,-9.198 -12.587,-22.673 -12.587,-40.423c-0,-17.912 4.921,-37.6 14.765,-59.062c9.844,-21.462 22.995,-42.602 39.455,-63.418c16.46,-20.979 35.986,-41.392 58.578,-61.24c22.591,-19.849 46.071,-37.277 70.438,-52.285c24.367,-15.007 50.025,-27.029 76.974,-36.066c26.948,-9.198 52.364,-13.797 76.247,-13.797c8.23,0 15.976,1.372 23.237,4.115c7.262,2.743 12.426,5.648 15.492,8.714c7.262,7.262 10.892,19.687 10.892,37.277l0,-0.001Zm-139.908,50.59l-1.21,4.841c0,2.744 1.856,4.115 5.567,4.115c9.844,0 23.318,-4.76 40.424,-14.281c17.105,-9.521 30.902,-19.284 41.391,-29.289c10.489,-10.005 15.734,-18.315 15.734,-24.932c-0,-5.648 -5.003,-8.472 -15.008,-8.472c-17.75,0 -37.76,4.357 -60.03,13.071c-22.107,8.714 -43.731,20.01 -64.87,33.888c-21.14,13.878 -41.957,29.854 -62.451,47.927c-20.494,17.912 -38.406,35.905 -53.736,53.979c-15.169,17.912 -27.433,35.501 -36.793,52.768c-9.359,17.266 -14.039,32.032 -14.039,44.296c0,4.841 1.372,9.117 4.115,12.829c2.905,3.712 7.1,5.567 12.587,5.567c16.944,0 44.215,-12.99 81.815,-38.971c37.76,-25.98 81.088,-61.401 129.984,-106.262c0.645,-0.646 1.775,-1.856 3.388,-3.631c3.551,-4.357 7.181,-7.504 10.893,-9.44c-13.232,5.325 -24.044,7.988 -32.435,7.988c-8.392,-0 -15.331,-1.856 -20.817,-5.568c-5.487,-3.711 -8.23,-8.714 -8.23,-15.007c-0,-6.455 2.824,-12.506 8.472,-18.154c5.648,-5.648 9.601,-8.472 11.861,-8.472c2.259,-0 3.388,0.403 3.388,1.21Z" style="fill:#0079a2;fill-rule:nonzero;"/></g><g id="text2985-0-8-7-1-2-9-7-2-9-72-0-3-5-4-2-4-3-5-7-2-0-7"><path id="path442-8" d="M644.974,291.027c0,8.23 -5.244,18.154 -15.733,29.772c-10.489,11.619 -23.48,22.673 -38.971,33.162c-15.33,10.489 -30.58,18.8 -45.749,24.932c3.389,-1.13 6.859,-1.695 10.409,-1.695c11.941,0 19.848,2.179 23.721,6.536c0.968,0.968 1.452,2.098 1.452,3.389c0,1.291 -2.178,4.437 -6.535,9.44c-45.345,52.445 -86.979,104.487 -124.901,156.126c15.492,-12.103 29.208,-23.641 41.15,-34.614c6.616,-5.971 14.684,-8.956 24.205,-8.956c6.939,-0 11.216,0.887 12.829,2.662c1.614,1.775 2.421,3.308 2.421,4.599c-0,1.13 -1.049,2.502 -3.147,4.115c-26.949,23.56 -70.922,57.932 -131.92,103.116c-10.489,11.78 -36.954,39.858 -79.394,84.235c-7.585,7.746 -15.976,11.619 -25.174,11.619c-17.912,-0 -26.868,-5.003 -26.868,-15.008c-0,-4.357 3.469,-11.296 10.408,-20.816c10.005,-14.685 34.453,-36.873 73.343,-66.566c8.553,-9.52 23.318,-25.658 44.296,-48.411c39.697,-43.247 63.661,-71.003 71.891,-83.267c-21.947,20.817 -38.568,35.502 -49.864,44.054c-11.296,8.553 -21.785,15.976 -31.467,22.269c-9.521,6.294 -18.316,11.377 -26.384,15.25c-39.052,18.719 -66.888,18.8 -83.509,0.242c-8.392,-9.198 -12.587,-22.673 -12.587,-40.423c-0,-17.912 4.922,-37.6 14.765,-59.062c9.844,-21.462 22.995,-42.602 39.455,-63.418c16.46,-20.979 35.986,-41.392 58.578,-61.24c22.592,-19.849 46.071,-37.277 70.438,-52.284c24.367,-15.008 50.025,-27.03 76.973,-36.067c26.949,-9.198 52.365,-13.797 76.248,-13.797c8.23,0 15.976,1.372 23.237,4.115c7.262,2.743 12.426,5.648 15.492,8.714c7.262,7.262 10.892,19.687 10.892,37.277l0,-0Zm-139.908,50.589l-1.21,4.841c0,2.744 1.856,4.115 5.567,4.115c9.844,0 23.318,-4.76 40.424,-14.281c17.105,-9.521 30.902,-19.284 41.391,-29.289c10.489,-10.005 15.734,-18.315 15.734,-24.931c-0,-5.648 -5.003,-8.472 -15.008,-8.472c-17.751,-0 -37.76,4.357 -60.03,13.071c-22.107,8.714 -43.731,20.01 -64.87,33.887c-21.14,13.878 -41.957,29.854 -62.451,47.927c-20.494,17.912 -38.406,35.905 -53.736,53.979c-15.169,17.912 -27.433,35.501 -36.793,52.768c-9.359,17.266 -14.039,32.032 -14.039,44.296c0,4.841 1.372,9.117 4.115,12.829c2.905,3.711 7.101,5.567 12.587,5.567c16.944,0 44.216,-12.99 81.815,-38.971c37.761,-25.98 81.088,-61.401 129.984,-106.262c0.645,-0.646 1.775,-1.856 3.388,-3.631c3.551,-4.357 7.181,-7.504 10.893,-9.44c-13.232,5.325 -24.044,7.988 -32.435,7.988c-8.392,-0 -15.331,-1.856 -20.817,-5.568c-5.487,-3.711 -8.23,-8.714 -8.23,-15.007c-0,-6.455 2.824,-12.506 8.472,-18.154c5.648,-5.648 9.601,-8.472 11.86,-8.472c2.26,-0 3.389,0.403 3.389,1.21Z" style="fill:url(#_Linear6);fill-rule:nonzero;"/></g></g></g></g><defs><linearGradient id="_Linear2" x1="0" y1="0" x2="1" y2="0" gradientUnits="userSpaceOnUse" gradientTransform="matrix(279.64,0,0,279.64,539.742,1113.87)"><stop offset="0" style="stop-color:#00abc5;stop-opacity:1"/><stop offset="1" style="stop-color:#00abc5;stop-opacity:0"/></linearGradient><linearGradient id="_Linear3" x1="0" y1="0" x2="1" y2="0" gradientUnits="userSpaceOnUse" gradientTransform="matrix(279.64,0,0,279.64,539.742,1113.87)"><stop offset="0" style="stop-color:#00abc5;stop-opacity:1"/><stop offset="1" style="stop-color:#00abc5;stop-opacity:0"/></linearGradient><linearGradient id="_Linear4" x1="0" y1="0" x2="1" y2="0" gradientUnits="userSpaceOnUse" gradientTransform="matrix(279.64,0,0,279.64,539.742,1113.87)"><stop offset="0" style="stop-color:#00abc5;stop-opacity:1"/><stop offset="1" style="stop-color:#00abc5;stop-opacity:0"/></linearGradient><linearGradient id="_Linear5" x1="0" y1="0" x2="1" y2="0" gradientUnits="userSpaceOnUse" gradientTransform="matrix(199.06,0,0,199.06,98.5541,1141.76)"><stop offset="0" style="stop-color:#00abc5;stop-opacity:1"/><stop offset="1" style="stop-color:#00abc5;stop-opacity:0"/></linearGradient><linearGradient id="_Linear6" x1="0" y1="0" x2="1" y2="0" gradientUnits="userSpaceOnUse" gradientTransform="matrix(386.078,0,0,386.078,258.896,480.193)"><stop offset="0" style="stop-color:#00b9c5;stop-opacity:1"/><stop offset="1" style="stop-color:#00b9c5;stop-opacity:0"/></linearGradient></defs></svg>