<?xml version="1.0" encoding="UTF-8" standalone="no"?><!DOCTYPE svg PUBLIC "-//W3C//DTD SVG 1.1//EN" "http://www.w3.org/Graphics/SVG/1.1/DTD/svg11.dtd"><svg width="100%" height="100%" viewBox="0 0 907 1352" version="1.1" xmlns="http://www.w3.org/2000/svg" xmlns:xlink="http://www.w3.org/1999/xlink" xml:space="preserve" xmlns:serif="http://www.serif.com/" style="fill-rule:evenodd;clip-rule:evenodd;stroke-linejoin:round;"><rect id="Hyperbola" x="0" y="0" width="906.667" height="1351.11" style="fill:none;"/><clipPath id="_clip1"><rect x="0" y="0" width="906.667" height="1351.11"/></clipPath><g clip-path="url(#_clip1)"><g id="READ-ME" serif:id="READ ME"><path id="Frame" d="M897.778,363.221c-0,-195.561 -158.771,-354.332 -354.333,-354.332l-180.224,-0c-195.561,-0 -354.332,158.771 -354.332,354.332l-0,624.669c-0,195.561 158.771,354.332 354.332,354.332l180.224,0c195.562,0 354.333,-158.771 354.333,-354.332l-0,-624.669Z" style="fill:#fff;stroke:#000;stroke-width:17.78px;"/><path id="Bottom" d="M895.371,1141.21c-0,-107.643 -87.393,-195.036 -195.036,-195.036l-494.004,0c-107.643,0 -195.035,87.393 -195.035,195.036c-0,107.643 87.392,195.036 195.035,195.036l494.004,-0c107.643,-0 195.036,-87.393 195.036,-195.036Z" style="stroke:#000;stroke-width:15.52px;"/><g id="Powered-By" serif:id="Powered By"><path id="path12547" d="M59.75,886.702l2.069,0c2.962,0 5.189,-0.588 6.681,-1.763c1.515,-1.176 2.272,-3.087 2.272,-5.732c-0,-2.464 -0.678,-4.284 -2.035,-5.46c-1.334,-1.176 -3.436,-1.763 -6.308,-1.763l-2.679,-0l0,14.718Zm21.671,-7.868c-0,2.171 -0.328,4.251 -0.984,6.24c-0.655,1.99 -1.741,3.742 -3.255,5.257c-1.493,1.515 -3.471,2.724 -5.935,3.628c-2.442,0.905 -5.472,1.357 -9.089,1.357l-2.408,-0l0,17.635l-10.513,-0l0,-49.581l13.769,-0c3.188,-0 5.935,0.362 8.241,1.085c2.328,0.701 4.239,1.718 5.731,3.052c1.515,1.312 2.634,2.928 3.358,4.85c0.723,1.899 1.085,4.058 1.085,6.477l-0,0Z" style="fill-rule:nonzero;"/><path id="path12549" d="M98.581,893.926c-0,3.775 0.531,6.624 1.594,8.546c1.062,1.899 2.792,2.848 5.189,2.848c2.373,0 4.092,-0.96 5.154,-2.882c1.063,-1.922 1.594,-4.759 1.594,-8.512c0,-3.776 -0.531,-6.591 -1.594,-8.445c-1.062,-1.876 -2.803,-2.815 -5.222,-2.815c-2.374,0 -4.092,0.939 -5.155,2.815c-1.04,1.854 -1.56,4.669 -1.56,8.445Zm24.078,-0c0,3.165 -0.407,5.968 -1.221,8.41c-0.791,2.442 -1.944,4.499 -3.459,6.172c-1.492,1.673 -3.323,2.951 -5.494,3.832c-2.148,0.86 -4.567,1.289 -7.257,1.289c-2.51,0 -4.816,-0.429 -6.918,-1.289c-2.103,-0.881 -3.923,-2.159 -5.46,-3.832c-1.515,-1.673 -2.702,-3.73 -3.561,-6.172c-0.859,-2.442 -1.289,-5.245 -1.289,-8.41c-0,-3.143 0.396,-5.935 1.187,-8.377c0.814,-2.442 1.967,-4.488 3.459,-6.138c1.515,-1.673 3.346,-2.939 5.494,-3.799c2.148,-0.859 4.578,-1.288 7.291,-1.288c2.51,-0 4.816,0.429 6.919,1.288c2.102,0.86 3.911,2.126 5.426,3.799c1.537,1.65 2.735,3.696 3.595,6.138c0.859,2.442 1.288,5.234 1.288,8.377Z" style="fill-rule:nonzero;"/><path id="path12551" d="M160.54,912.951l-2.916,-13.26c-0.091,-0.384 -0.215,-0.927 -0.373,-1.628c-0.136,-0.724 -0.294,-1.526 -0.475,-2.408c-0.181,-0.904 -0.373,-1.854 -0.576,-2.849c-0.181,-1.017 -0.373,-2.023 -0.577,-3.018c-0.452,-2.329 -0.95,-4.838 -1.492,-7.529l-0.204,0c-0.52,2.691 -0.994,5.212 -1.424,7.563c-0.181,0.995 -0.373,2.001 -0.576,3.018c-0.181,1.018 -0.362,1.979 -0.543,2.883c-0.181,0.882 -0.35,1.684 -0.509,2.408c-0.135,0.723 -0.248,1.289 -0.339,1.695l-3.052,13.125l-11.124,-0l-10.208,-37.915l10.276,-0l3.832,16.787c0.204,0.882 0.407,1.944 0.611,3.188c0.226,1.221 0.429,2.464 0.61,3.73c0.204,1.244 0.384,2.431 0.543,3.561c0.158,1.108 0.282,1.99 0.373,2.645l0.203,0c0.023,-0.43 0.068,-0.983 0.136,-1.661c0.09,-0.701 0.192,-1.447 0.305,-2.239c0.113,-0.791 0.226,-1.594 0.339,-2.408c0.136,-0.836 0.26,-1.616 0.373,-2.34c0.136,-0.723 0.249,-1.356 0.339,-1.899c0.113,-0.565 0.204,-0.961 0.272,-1.187l4.137,-18.177l11.395,-0l3.968,18.177c0.113,0.498 0.26,1.267 0.441,2.306c0.181,1.04 0.361,2.16 0.542,3.358c0.204,1.176 0.373,2.329 0.509,3.459c0.136,1.108 0.215,1.978 0.237,2.611l0.204,0c0.068,-0.565 0.181,-1.402 0.339,-2.509c0.181,-1.108 0.373,-2.295 0.576,-3.561c0.204,-1.289 0.419,-2.566 0.645,-3.832c0.249,-1.266 0.475,-2.34 0.678,-3.222l3.968,-16.787l10.14,-0l-10.343,37.915l-11.26,-0Z" style="fill-rule:nonzero;"/><path id="path12553" d="M202.898,881.683c-1.831,-0 -3.357,0.644 -4.578,1.933c-1.198,1.289 -1.888,3.312 -2.069,6.07l13.192,0c-0.022,-1.153 -0.169,-2.215 -0.441,-3.187c-0.271,-0.973 -0.678,-1.809 -1.22,-2.51c-0.543,-0.724 -1.221,-1.289 -2.035,-1.696c-0.814,-0.407 -1.764,-0.61 -2.849,-0.61l0,-0Zm1.323,31.946c-2.713,0 -5.212,-0.395 -7.495,-1.187c-2.284,-0.791 -4.251,-1.978 -5.901,-3.561c-1.65,-1.605 -2.939,-3.617 -3.866,-6.036c-0.905,-2.442 -1.357,-5.302 -1.357,-8.58c0,-3.324 0.419,-6.229 1.255,-8.716c0.837,-2.487 2.001,-4.556 3.493,-6.206c1.515,-1.673 3.324,-2.928 5.426,-3.765c2.126,-0.836 4.477,-1.254 7.054,-1.254c2.51,-0 4.771,0.384 6.783,1.152c2.035,0.747 3.753,1.855 5.155,3.324c1.424,1.47 2.509,3.278 3.255,5.426c0.769,2.125 1.153,4.567 1.153,7.325l0,5.019l-23.128,0c0.044,1.447 0.271,2.759 0.678,3.934c0.429,1.153 1.017,2.137 1.763,2.951c0.769,0.791 1.685,1.402 2.747,1.831c1.086,0.43 2.318,0.645 3.697,0.645c1.153,0 2.238,-0.057 3.256,-0.17c1.04,-0.136 2.046,-0.328 3.018,-0.576c0.972,-0.249 1.933,-0.554 2.882,-0.916c0.95,-0.384 1.922,-0.825 2.917,-1.322l-0,8.003c-0.904,0.475 -1.82,0.882 -2.747,1.221c-0.904,0.317 -1.865,0.588 -2.883,0.814c-1.017,0.226 -2.114,0.384 -3.289,0.475c-1.176,0.113 -2.465,0.17 -3.866,0.17l-0,-0.001Z" style="fill-rule:nonzero;"/><path id="path12555" d="M247.698,874.324c0.271,-0 0.565,0.011 0.881,0.035c0.339,0 0.656,0.024 0.95,0.071c0.316,0.024 0.599,0.059 0.848,0.106c0.271,0.024 0.474,0.059 0.61,0.107l-0,9.699c-0.181,-0.047 -0.43,-0.093 -0.746,-0.136c-0.317,-0.047 -0.656,-0.083 -1.018,-0.106c-0.339,-0.048 -0.678,-0.071 -1.017,-0.071c-0.339,-0.024 -0.622,-0.036 -0.848,-0.036c-1.334,0 -2.566,0.17 -3.696,0.509c-1.108,0.34 -2.069,0.894 -2.883,1.662c-0.791,0.747 -1.413,1.741 -1.865,2.984c-0.43,1.221 -0.645,2.725 -0.645,4.511l0,19.297l-10.343,-0l-0,-37.915l7.834,-0l1.526,5.697l0.509,0c0.542,-0.972 1.13,-1.854 1.763,-2.645c0.633,-0.791 1.334,-1.458 2.103,-2.001c0.791,-0.565 1.673,-0.995 2.645,-1.289c0.995,-0.316 2.125,-0.475 3.391,-0.475l0.001,-0.004Z" style="fill-rule:nonzero;"/><path id="path12557" d="M273.404,881.683c-1.832,-0 -3.358,0.644 -4.579,1.933c-1.198,1.289 -1.887,3.312 -2.068,6.07l13.192,0c-0.023,-1.153 -0.17,-2.215 -0.441,-3.187c-0.271,-0.973 -0.678,-1.809 -1.221,-2.51c-0.542,-0.724 -1.221,-1.289 -2.035,-1.696c-0.813,-0.407 -1.763,-0.61 -2.848,-0.61l-0,-0Zm1.322,31.946c-2.713,0 -5.211,-0.395 -7.494,-1.187c-2.284,-0.791 -4.251,-1.978 -5.901,-3.561c-1.651,-1.605 -2.94,-3.617 -3.866,-6.036c-0.905,-2.442 -1.357,-5.302 -1.357,-8.58c-0,-3.324 0.418,-6.229 1.255,-8.716c0.836,-2.487 2.001,-4.556 3.493,-6.206c1.515,-1.673 3.323,-2.928 5.426,-3.765c2.125,-0.836 4.477,-1.254 7.054,-1.254c2.51,-0 4.77,0.384 6.783,1.152c2.034,0.747 3.753,1.855 5.154,3.324c1.425,1.47 2.51,3.278 3.256,5.426c0.769,2.125 1.153,4.567 1.153,7.325l0,5.019l-23.129,0c0.045,1.447 0.271,2.759 0.679,3.934c0.429,1.153 1.017,2.137 1.763,2.951c0.769,0.791 1.684,1.402 2.747,1.831c1.085,0.43 2.317,0.645 3.697,0.645c1.153,0 2.238,-0.057 3.255,-0.17c1.04,-0.136 2.046,-0.328 3.018,-0.576c0.973,-0.249 1.934,-0.554 2.883,-0.916c0.95,-0.384 1.922,-0.825 2.917,-1.322l-0,8.003c-0.905,0.475 -1.82,0.882 -2.747,1.221c-0.905,0.317 -1.866,0.588 -2.883,0.814c-1.017,0.226 -2.114,0.384 -3.29,0.475c-1.175,0.113 -2.464,0.17 -3.866,0.17l0,-0.001Z" style="fill-rule:nonzero;"/><path id="path12559" d="M309.589,913.629c-1.944,0 -3.719,-0.418 -5.324,-1.255c-1.605,-0.836 -2.985,-2.068 -4.138,-3.696c-1.153,-1.651 -2.057,-3.697 -2.713,-6.138c-0.633,-2.442 -0.949,-5.268 -0.949,-8.479c-0,-3.255 0.316,-6.104 0.949,-8.546c0.656,-2.464 1.572,-4.522 2.747,-6.172c1.199,-1.673 2.623,-2.928 4.273,-3.765c1.651,-0.836 3.471,-1.254 5.46,-1.254c1.221,-0 2.34,0.146 3.358,0.44c1.017,0.272 1.933,0.668 2.747,1.187c0.814,0.498 1.537,1.086 2.17,1.764c0.656,0.656 1.232,1.379 1.73,2.17l0.339,0c-0.136,-0.882 -0.26,-1.775 -0.373,-2.679c-0.113,-0.769 -0.215,-1.582 -0.305,-2.442c-0.068,-0.882 -0.102,-1.695 -0.102,-2.442l0,-12.141l10.344,0l-0,52.77l-7.902,-0l-2.001,-4.918l-0.441,0c-0.475,0.769 -1.017,1.503 -1.628,2.205c-0.61,0.677 -1.323,1.265 -2.136,1.763c-0.792,0.498 -1.696,0.893 -2.713,1.187c-0.995,0.294 -2.126,0.44 -3.392,0.44l0,0.001Zm3.765,-8.241c1.22,0 2.26,-0.203 3.12,-0.61c0.859,-0.43 1.548,-1.063 2.068,-1.899c0.543,-0.86 0.939,-1.922 1.187,-3.188c0.272,-1.266 0.419,-2.747 0.441,-4.443l0,-1.12c0,-1.831 -0.113,-3.459 -0.339,-4.883c-0.226,-1.425 -0.599,-2.612 -1.119,-3.561c-0.52,-0.972 -1.221,-1.707 -2.103,-2.204c-0.881,-0.498 -1.989,-0.747 -3.323,-0.747c-2.171,0 -3.764,0.984 -4.782,2.951c-1.017,1.944 -1.526,4.781 -1.526,8.512c0,3.73 0.509,6.534 1.526,8.41c1.04,1.854 2.657,2.781 4.85,2.781l-0,0.001Z" style="fill-rule:nonzero;"/><path id="path12561" d="M378.908,874.324c1.944,-0 3.719,0.418 5.324,1.254c1.606,0.837 2.985,2.08 4.138,3.731c1.153,1.65 2.046,3.697 2.679,6.138c0.656,2.442 0.983,5.268 0.983,8.479c0,3.255 -0.327,6.115 -0.983,8.58c-0.633,2.441 -1.538,4.487 -2.713,6.138c-1.176,1.65 -2.589,2.894 -4.239,3.73c-1.651,0.837 -3.471,1.255 -5.46,1.255c-1.266,0 -2.397,-0.136 -3.392,-0.407c-0.972,-0.272 -1.842,-0.634 -2.611,-1.086c-0.769,-0.452 -1.447,-0.96 -2.035,-1.526c-0.565,-0.588 -1.085,-1.198 -1.56,-1.831l-0.712,-0l-1.73,4.171l-7.901,0l-0,-52.769l10.343,0l0,12.277c0,0.746 -0.022,1.56 -0.067,2.442c-0.045,0.859 -0.09,1.661 -0.136,2.407c-0.068,0.882 -0.135,1.764 -0.203,2.646l0.407,-0c0.474,-0.792 1.017,-1.526 1.627,-2.205c0.611,-0.678 1.312,-1.266 2.103,-1.763c0.814,-0.52 1.73,-0.927 2.747,-1.221c1.017,-0.294 2.148,-0.441 3.391,-0.441l-0,0.001Zm-3.493,8.275c-1.153,-0 -2.137,0.215 -2.951,0.644c-0.791,0.408 -1.435,1.029 -1.933,1.866c-0.497,0.836 -0.859,1.899 -1.085,3.188c-0.226,1.266 -0.362,2.746 -0.407,4.442l0,1.12c0,1.831 0.102,3.459 0.305,4.883c0.226,1.425 0.588,2.623 1.086,3.595c0.497,0.95 1.153,1.673 1.967,2.171c0.836,0.497 1.865,0.746 3.086,0.746c2.057,-0 3.561,-0.972 4.51,-2.917c0.972,-1.967 1.458,-4.815 1.458,-8.546c0,-3.73 -0.486,-6.522 -1.458,-8.376c-0.949,-1.877 -2.476,-2.815 -4.578,-2.815l-0,-0.001Z" style="fill-rule:nonzero;"/><path id="path12563" d="M395.492,875.036l11.327,-0l6.104,21.331c0.361,1.176 0.621,2.431 0.779,3.765c0.182,1.334 0.295,2.532 0.339,3.594l0.204,0c0.047,-0.519 0.104,-1.096 0.17,-1.729c0.09,-0.633 0.192,-1.278 0.304,-1.933c0.114,-0.656 0.238,-1.3 0.374,-1.933c0.158,-0.656 0.316,-1.244 0.474,-1.764l5.969,-21.331l11.395,-0l-14.99,42.764c-1.401,4.002 -3.312,6.975 -5.731,8.92c-2.419,1.944 -5.449,2.916 -9.089,2.916c-1.175,0 -2.193,-0.068 -3.052,-0.203c-0.859,-0.113 -1.594,-0.238 -2.204,-0.373l-0,-8.207c0.475,0.113 1.074,0.215 1.797,0.305c0.724,0.09 1.481,0.135 2.272,0.135c1.086,0 2.013,-0.146 2.781,-0.44c0.769,-0.294 1.425,-0.712 1.967,-1.255c0.565,-0.52 1.04,-1.153 1.425,-1.899c0.407,-0.747 0.757,-1.583 1.051,-2.51l0.645,-1.899l-14.311,-38.254Z" style="fill-rule:nonzero;"/></g></g><g id="Hyperbola1" serif:id="Hyperbola"><g id="Hyperbola2" serif:id="Hyperbola"><path id="path20297" d="M745.855,1099.74c-13.719,-0 -24.591,10.624 -24.591,24.099c-0,13.718 11.065,24.263 25.412,24.263c7.079,-0 13.088,-2.466 17.701,-7.206c4.299,-4.49 6.7,-10.306 6.7,-16.312l0,-1.137l-30.546,-0l0,8.092l19.347,0c-2.466,5.183 -7.522,8.219 -13.718,8.219c-9.166,0 -16.187,-6.826 -16.187,-15.805c-0,-4.046 1.71,-8.47 4.365,-11.316c2.719,-2.907 6.826,-4.555 11.315,-4.555c5.437,0 9.989,2.216 12.835,6.199l10.177,-0c-3.034,-8.409 -12.645,-14.544 -22.824,-14.544l0.014,0.003Zm30.897,0.824l0,46.721l8.662,0l0,-33.945l19.535,33.945l9.67,0l0,-46.721l-8.662,-0l0,34.015l-19.342,-34.015l-9.863,-0Zm46.792,-0l-0,29.584c-0,4.994 0.758,8.219 2.527,11.002c2.719,4.299 7.781,6.953 13.217,6.953c5.12,0 9.86,-2.275 12.64,-6.006c2.213,-3.033 3.165,-6.512 3.165,-11.951l-0,-29.584l-8.662,-0l-0,29.584c-0,3.477 -0.253,4.935 -1.138,6.452c-1.201,1.959 -3.413,3.16 -6.005,3.16c-2.53,-0 -4.745,-1.2 -5.946,-3.16c-0.885,-1.518 -1.137,-2.975 -1.137,-6.452l0,-29.584l-8.662,-0l0.001,0.002Zm-102.28,54.293l-0,21.9l10.758,0l-0,-3.88l-6.7,0l-0,-18.02l-4.058,-0Zm12.546,-0l0,3.704l3.946,-0l-0,-3.704l-3.946,-0Zm70.047,-0l-0,21.9l3.94,0l0,-21.9l-3.94,-0Zm7.122,-0l-0,3.704l3.94,-0l0,-3.704l-3.94,-0Zm7.117,-0l-0,21.9l3.615,0l-0,-2.103c1.689,1.807 3.261,2.489 5.692,2.489c2.548,0 4.561,-0.949 6.074,-2.876c1.244,-1.6 1.927,-3.645 1.927,-5.837c0,-4.979 -3.526,-8.679 -8.268,-8.679c-2.163,0 -3.559,0.592 -5.099,2.104l0,-6.998l-3.941,-0Zm-68.875,5.099c-1.896,-0 -3.171,0.535 -4.622,1.957l-0,-1.571l-3.646,0l0,16.415l3.941,-0l-0,-7.736c-0,-2.194 0.149,-3.142 0.652,-3.941c0.623,-0.978 1.632,-1.511 2.907,-1.511c1.037,-0 1.836,0.357 2.37,1.039c0.534,0.711 0.769,1.923 0.769,4.116l-0,8.032l3.945,-0l0,-8.801c0,-2.932 -0.3,-4.358 -1.189,-5.631c-1.067,-1.54 -2.843,-2.37 -5.124,-2.37l-0.003,0.002Zm95.623,-0c-1.689,-0 -2.518,0.471 -3.554,1.983l-0,-1.597l-3.615,-0l0,16.414l3.941,0l-0,-9.126c-0.089,-2.431 1.153,-3.791 3.523,-3.88l0,-3.795l-0.296,0l0.001,0.001Zm9.684,-0c-4.832,-0 -8.65,3.823 -8.65,8.652c-0,4.801 3.882,8.534 8.889,8.534c2.696,-0 4.801,-0.977 6.52,-2.961c0.622,-0.771 1.033,-1.454 1.3,-2.284l-4.297,-0c-1.007,1.185 -1.984,1.631 -3.615,1.631c-2.341,0 -4.058,-1.247 -4.534,-3.233l12.711,0c0.118,-0.592 0.15,-0.948 0.15,-1.541c0,-5.068 -3.589,-8.8 -8.477,-8.8l0.003,0.002Zm-120.683,0.386l0,16.415l3.946,-0l-0,-16.415l-3.946,0Zm24.896,0l0,8.8c0,2.785 0.327,4.239 1.245,5.573c1.097,1.57 2.842,2.428 5.005,2.428c1.986,0 3.203,-0.505 4.712,-1.957l0,1.571l3.646,0l-0,-16.414l-3.941,-0l-0,7.736c-0,2.193 -0.149,3.23 -0.623,3.94c-0.563,0.978 -1.658,1.511 -2.991,1.511c-1.007,0 -1.78,-0.327 -2.313,-1.039c-0.563,-0.711 -0.799,-1.893 -0.799,-4.116l0,-8.032l-3.941,0l0,-0.001Zm16.853,0l5.036,7.94l-5.807,8.475l4.743,-0l3.439,-5.627l3.439,5.627l4.737,-0l-5.837,-8.475l5.01,-7.94l-4.447,0l-2.902,4.949l-2.966,-4.949l-4.445,0Zm35.422,0l0,16.415l3.941,-0l-0,-16.415l-3.941,0Zm15.594,3.022c2.816,-0 4.86,2.131 4.86,5.096c-0,3.022 -1.958,5.069 -4.773,5.069c-2.874,-0 -4.86,-2.107 -4.86,-5.099c0,-2.963 1.988,-5.066 4.773,-5.066Zm27.991,0.206c2.431,-0 4.032,1.158 4.536,3.263l-9.101,0c0.623,-2.134 2.222,-3.263 4.562,-3.263l0.003,-0Zm-62.569,2.907l0,3.493l8.208,-0l-0,-3.493l-8.208,-0Z" style="fill:#fff;fill-rule:nonzero;"/><path id="path20299" d="M45.859,1077.19l-0,99.279l9.942,0l0,-46.627l51.457,-0l-0,46.627l9.942,0l-0,-99.279l-9.942,-0l-0,43.65l-51.457,0l0,-43.65l-9.942,-0Zm381.88,-0.007l0,99.286l9.942,0l0,-12.628c6.18,9.135 16.661,14.375 28.741,14.375c22.167,-0 38.821,-16.523 38.821,-38.563c0,-21.628 -16.928,-38.423 -38.68,-38.423c-12.359,0 -22.571,5.106 -28.882,14.375l0,-38.422l-9.942,-0Zm179.477,0.007l-0,99.279l9.942,0l-0,-99.279l-9.942,-0Zm-360.782,24.052c-12.628,-0 -22.57,4.972 -28.881,14.375l-0,-12.629l-9.942,0l-0,99.28l9.942,-0l-0,-38.423c6.449,9.403 16.389,14.375 28.623,14.375c22.032,0 38.962,-16.789 38.962,-38.281c0,-22.032 -16.79,-38.681 -38.68,-38.681l-0.024,-0.016Zm87.957,-0c-21.361,-0 -38.024,16.792 -38.024,38.141c0,21.764 17.062,38.821 38.821,38.821c15.986,0 30.358,-10.343 35.727,-25.927l-10.346,-0c-4.163,10.075 -14.511,16.791 -25.669,16.791c-15.182,0 -27.803,-11.554 -28.624,-26.068l66.507,0c-0,-10.075 -1.344,-16.255 -4.97,-22.702c-6.583,-11.822 -19.345,-19.075 -33.452,-19.075l0.03,0.019Zm82.94,-0c-10.613,0.537 -16.928,4.163 -20.822,12.225l0,-10.479l-9.942,0l0,73.493l9.942,0l0,-42.853c-0.134,-13.299 7.253,-21.495 20.822,-22.571l-0,-9.815Zm137.749,-0c-21.898,-0 -38.563,16.525 -38.563,38.024c-0,22.702 16.524,38.962 39.36,38.962c21.494,-0 37.344,-16.253 37.344,-38.282c-0,-22.435 -15.986,-38.681 -38.141,-38.681l-0,-0.023Zm114.798,-0c-22.032,-0 -38.68,16.661 -38.68,38.68c-0,22.02 16.791,38.282 39.5,38.282c12.495,0 20.287,-4.03 28.225,-14.642l-0,12.893l9.942,0l-0,-73.492l-9.942,-0l-0,13.031c-7.389,-10.209 -16.255,-14.778 -29.022,-14.778l-0.023,0.026Zm-541.29,1.747l28.483,71.078l-11.953,28.201l10.61,0l42.454,-99.279l-10.614,-0l-24.85,58.56l-23.243,-58.56l-10.887,-0Zm117.565,7.387c16.658,-0 29.022,12.631 29.022,29.561c-0,16.525 -12.495,29.162 -28.881,29.162c-16.792,0 -29.28,-12.628 -29.28,-29.701c-0,-16.255 12.764,-29.022 29.162,-29.022l-0.023,-0Zm88.355,-0c14.242,-0 24.99,8.866 28.483,23.653l-56.286,0c2.687,-14.105 13.836,-23.653 27.803,-23.653Zm131.935,-0c16.525,-0 28.882,12.492 28.882,29.022c-0,16.928 -12.364,29.701 -29.022,29.701c-8.196,0 -14.91,-2.82 -20.686,-8.73c-5.776,-5.909 -8.465,-12.63 -8.465,-20.96c-0,-16.388 12.764,-29.022 29.279,-29.022l0.012,-0.011Zm88.754,-0c16.255,-0 28.084,12.495 28.084,29.701c0,16.928 -11.555,29.022 -27.545,29.022c-16.928,0 -29.022,-12.223 -29.022,-29.561c0,-16.658 12.225,-29.162 28.483,-29.162Zm115.056,-0c16.255,-0 28.74,12.626 28.74,29.022c0,16.792 -12.361,29.701 -28.225,29.701c-16.658,0 -29.42,-13.031 -29.42,-29.819c0,-15.985 12.898,-28.881 28.881,-28.881l0.024,-0.023Z" style="fill:#fff;fill-rule:nonzero;"/></g><g id="Logo"><path id="path20301" d="M485.693,446.618c-77.574,1.797 -195.183,84.606 -362.75,312.168c360.538,-266.406 431.535,-209.643 477.126,0.177c26.823,-144.544 -1,-315.003 -114.376,-312.395l-0,0.05Z" style="fill:#c0c0c0;fill-rule:nonzero;"/><path id="path20303" d="M482.574,203.546c-109.5,255.802 137.456,335.872 304.57,6.357c-125.321,106.324 -308.086,223.706 -304.57,-6.357Z" style="fill:#c0c0c0;fill-rule:nonzero;"/></g></g></g></svg>