<?xml version="1.0" encoding="UTF-8" standalone="no"?><!DOCTYPE svg PUBLIC "-//W3C//DTD SVG 1.1//EN" "http://www.w3.org/Graphics/SVG/1.1/DTD/svg11.dtd"><svg width="100%" height="100%" viewBox="0 0 907 1352" version="1.1" xmlns="http://www.w3.org/2000/svg" xmlns:xlink="http://www.w3.org/1999/xlink" xml:space="preserve" xmlns:serif="http://www.serif.com/" style="fill-rule:evenodd;clip-rule:evenodd;stroke-linejoin:round;stroke-miterlimit:2;"><rect id="Hyperbola" x="0" y="0" width="906.667" height="1351.11" style="fill:none;"/><clipPath id="_clip1"><rect x="0" y="0" width="906.667" height="1351.11"/></clipPath><g clip-path="url(#_clip1)"><g><g id="Frame"><path id="path36023" d="M363.216,8.892l180.223,-0c196.299,-0 354.331,36.928 354.331,82.799l0,1167.73c0,45.871 -158.032,82.8 -354.331,82.8l-180.223,-0c-196.3,-0 -354.331,-36.929 -354.331,-82.8l-0,-1167.73c-0,-45.871 158.031,-82.799 354.331,-82.799Z" style="fill:#fff;fill-rule:nonzero;"/><path id="path36025" d="M363.223,0c-98.707,0 -187.78,9.234 -252.805,24.429c-32.513,7.598 -58.999,16.618 -78.087,27.198c-9.543,5.29 -17.286,10.978 -22.976,17.509c-5.69,6.53 -9.365,14.275 -9.365,22.561l-0,1167.72c-0,8.285 3.675,16.03 9.365,22.56c5.69,6.531 13.433,12.219 22.976,17.509c19.088,10.581 45.574,19.6 78.087,27.198c65.025,15.195 154.098,24.429 252.805,24.429l180.21,0c98.707,0 187.781,-9.234 252.806,-24.429c32.512,-7.598 58.999,-16.617 78.086,-27.198c9.544,-5.29 17.286,-10.978 22.976,-17.509c5.69,-6.53 9.366,-14.275 9.366,-22.56l-0,-1167.72c-0,-8.286 -3.676,-16.031 -9.366,-22.561c-5.69,-6.531 -13.432,-12.219 -22.976,-17.509c-19.087,-10.58 -45.574,-19.6 -78.086,-27.198c-65.025,-15.195 -154.099,-24.429 -252.806,-24.429l-180.21,0Zm0,17.786l180.21,-0c97.592,-0 185.703,9.231 248.769,23.968c31.532,7.368 56.817,16.176 73.495,25.421c8.339,4.622 14.482,9.365 18.201,13.633c3.719,4.269 4.983,7.706 4.983,10.889l-0,1167.72c-0,3.182 -1.264,6.619 -4.983,10.888c-3.719,4.269 -9.862,9.011 -18.201,13.633c-16.678,9.245 -41.963,18.053 -73.495,25.421c-63.066,14.738 -151.177,23.969 -248.769,23.969l-180.21,-0c-97.592,-0 -185.703,-9.231 -248.768,-23.969c-31.533,-7.368 -56.818,-16.176 -73.496,-25.421c-8.339,-4.622 -14.482,-9.364 -18.201,-13.633c-3.719,-4.269 -4.983,-7.706 -4.983,-10.888l0,-1167.72c0,-3.183 1.264,-6.62 4.983,-10.889c3.719,-4.268 9.862,-9.011 18.201,-13.633c16.678,-9.245 41.963,-18.053 73.496,-25.421c63.065,-14.737 151.176,-23.968 248.768,-23.968Z" style="fill-rule:nonzero;"/></g><g id="Bottom"><path id="path35979" d="M371.596,946.173l163.463,0c199.609,0 360.304,38.151 360.304,85.54l0,218.99c0,47.389 -160.695,85.54 -360.304,85.54l-163.463,-0c-199.609,-0 -360.304,-38.151 -360.304,-85.54l-0,-218.99c-0,-47.389 160.695,-85.54 360.304,-85.54Z" style="fill-rule:nonzero;"/><path id="path35981" d="M371.597,938.419c-100.298,0 -190.805,9.547 -256.796,25.214c-32.996,7.833 -59.838,17.123 -79.079,27.958c-19.24,10.836 -32.18,23.883 -32.18,40.116l0,218.988c0,16.233 12.94,29.303 32.18,40.139c19.241,10.835 46.083,20.125 79.079,27.958c65.991,15.667 156.498,25.214 256.796,25.214l163.462,0c100.299,0 190.805,-9.547 256.797,-25.214c32.996,-7.833 59.837,-17.123 79.078,-27.958c19.24,-10.836 32.18,-23.906 32.18,-40.139l0,-218.988c0,-16.233 -12.94,-29.28 -32.18,-40.116c-19.241,-10.835 -46.082,-20.125 -79.078,-27.958c-65.992,-15.667 -156.498,-25.214 -256.797,-25.214l-163.462,0Zm0,15.525l163.462,-0c99.31,-0 188.963,9.52 253.221,24.775c32.129,7.628 57.914,16.745 75.041,26.39c17.128,9.646 24.291,19.137 24.291,26.598l0,218.988c0,7.461 -7.163,16.952 -24.291,26.598c-17.127,9.645 -42.912,18.762 -75.041,26.39c-64.258,15.255 -153.911,24.798 -253.221,24.798l-163.462,0c-99.31,0 -188.963,-9.543 -253.221,-24.798c-32.129,-7.628 -57.913,-16.745 -75.041,-26.39c-17.127,-9.646 -24.291,-19.137 -24.291,-26.598l0,-218.988c0,-7.461 7.164,-16.952 24.291,-26.598c17.128,-9.645 42.912,-18.762 75.041,-26.39c64.258,-15.255 153.911,-24.775 253.221,-24.775Z" style="fill-rule:nonzero;"/></g><g id="Powered-By" serif:id="Powered By"><path id="path12547" d="M59.746,886.701l2.069,0c2.961,0 5.188,-0.588 6.68,-1.763c1.515,-1.176 2.273,-3.086 2.273,-5.732c-0,-2.464 -0.679,-4.284 -2.035,-5.46c-1.334,-1.175 -3.437,-1.763 -6.308,-1.763l-2.679,-0l-0,14.718Zm21.67,-7.868c0,2.171 -0.328,4.251 -0.983,6.24c-0.656,1.99 -1.741,3.742 -3.256,5.257c-1.492,1.515 -3.47,2.724 -5.935,3.629c-2.441,0.904 -5.471,1.356 -9.088,1.356l-2.408,0l-0,17.635l-10.513,-0l-0,-49.581l13.768,-0c3.188,-0 5.935,0.362 8.241,1.085c2.329,0.701 4.239,1.719 5.732,3.053c1.514,1.311 2.634,2.927 3.357,4.849c0.724,1.899 1.085,4.058 1.085,6.478l0,-0.001Z" style="fill-rule:nonzero;"/><path id="path12549" d="M98.576,893.925c0,3.775 0.532,6.624 1.594,8.546c1.063,1.899 2.792,2.848 5.189,2.848c2.374,0 4.092,-0.96 5.155,-2.882c1.062,-1.922 1.594,-4.759 1.594,-8.512c-0,-3.776 -0.532,-6.591 -1.594,-8.445c-1.063,-1.876 -2.804,-2.814 -5.223,-2.814c-2.374,-0 -4.092,0.938 -5.155,2.814c-1.04,1.854 -1.56,4.669 -1.56,8.445Zm24.079,-0c-0,3.165 -0.407,5.968 -1.221,8.41c-0.792,2.442 -1.945,4.499 -3.459,6.172c-1.493,1.673 -3.324,2.951 -5.494,3.833c-2.148,0.859 -4.567,1.288 -7.258,1.288c-2.509,0 -4.815,-0.429 -6.918,-1.288c-2.103,-0.882 -3.923,-2.16 -5.46,-3.833c-1.515,-1.673 -2.702,-3.73 -3.561,-6.172c-0.859,-2.442 -1.289,-5.245 -1.289,-8.41c0,-3.143 0.396,-5.935 1.187,-8.377c0.814,-2.442 1.967,-4.488 3.46,-6.138c1.514,-1.673 3.346,-2.939 5.493,-3.798c2.148,-0.86 4.579,-1.289 7.292,-1.289c2.509,-0 4.815,0.429 6.918,1.289c2.103,0.859 3.911,2.125 5.426,3.798c1.538,1.65 2.736,3.696 3.595,6.138c0.859,2.442 1.289,5.234 1.289,8.377Z" style="fill-rule:nonzero;"/><path id="path12551" d="M160.536,912.95l-2.917,-13.26c-0.09,-0.384 -0.215,-0.927 -0.373,-1.628c-0.136,-0.724 -0.294,-1.526 -0.475,-2.408c-0.181,-0.904 -0.373,-1.854 -0.576,-2.848c-0.181,-1.018 -0.373,-2.024 -0.577,-3.019c-0.452,-2.328 -0.949,-4.838 -1.492,-7.528l-0.203,-0c-0.52,2.69 -0.995,5.211 -1.425,7.562c-0.181,0.995 -0.373,2.001 -0.576,3.019c-0.181,1.017 -0.362,1.978 -0.543,2.882c-0.181,0.882 -0.35,1.684 -0.508,2.408c-0.136,0.723 -0.249,1.289 -0.34,1.696l-3.052,13.124l-11.123,-0l-10.208,-37.915l10.275,0l3.833,16.787c0.203,0.882 0.407,1.944 0.61,3.188c0.226,1.221 0.429,2.464 0.61,3.73c0.204,1.244 0.385,2.431 0.543,3.561c0.158,1.108 0.283,1.99 0.373,2.645l0.203,0c0.023,-0.429 0.069,-0.983 0.136,-1.661c0.091,-0.701 0.192,-1.447 0.305,-2.239c0.113,-0.791 0.226,-1.593 0.339,-2.407c0.136,-0.837 0.26,-1.617 0.374,-2.34c0.135,-0.724 0.248,-1.357 0.339,-1.9c0.113,-0.565 0.203,-0.961 0.271,-1.187l4.137,-18.177l11.395,0l3.968,18.177c0.113,0.498 0.26,1.267 0.441,2.307c0.181,1.04 0.362,2.159 0.542,3.357c0.204,1.176 0.374,2.329 0.509,3.459c0.136,1.108 0.215,1.978 0.238,2.611l0.203,0c0.068,-0.565 0.181,-1.401 0.339,-2.509c0.181,-1.108 0.373,-2.295 0.577,-3.561c0.203,-1.289 0.418,-2.566 0.644,-3.832c0.249,-1.266 0.475,-2.34 0.678,-3.222l3.968,-16.787l10.14,0l-10.343,37.915l-11.259,-0Z" style="fill-rule:nonzero;"/><path id="path12553" d="M202.893,881.682c-1.831,0 -3.357,0.644 -4.578,1.933c-1.198,1.289 -1.888,3.312 -2.069,6.071l13.192,-0c-0.022,-1.153 -0.169,-2.216 -0.441,-3.188c-0.271,-0.972 -0.678,-1.809 -1.22,-2.51c-0.543,-0.723 -1.221,-1.289 -2.035,-1.695c-0.814,-0.408 -1.764,-0.611 -2.849,-0.611l0,0Zm1.323,31.946c-2.713,0 -5.212,-0.395 -7.495,-1.187c-2.284,-0.791 -4.251,-1.978 -5.901,-3.561c-1.65,-1.605 -2.939,-3.617 -3.866,-6.036c-0.904,-2.442 -1.357,-5.302 -1.357,-8.58c0,-3.324 0.419,-6.229 1.255,-8.716c0.837,-2.487 2.001,-4.555 3.493,-6.206c1.515,-1.673 3.324,-2.928 5.426,-3.764c2.126,-0.837 4.477,-1.255 7.054,-1.255c2.51,-0 4.771,0.384 6.783,1.153c2.035,0.746 3.753,1.854 5.155,3.323c1.424,1.47 2.509,3.278 3.255,5.426c0.769,2.125 1.153,4.567 1.153,7.325l0,5.02l-23.128,-0c0.044,1.447 0.271,2.758 0.678,3.934c0.429,1.153 1.017,2.136 1.763,2.95c0.769,0.791 1.685,1.402 2.747,1.831c1.086,0.43 2.318,0.645 3.697,0.645c1.153,0 2.238,-0.057 3.256,-0.17c1.04,-0.135 2.046,-0.328 3.018,-0.576c0.972,-0.249 1.933,-0.554 2.882,-0.916c0.95,-0.384 1.922,-0.825 2.917,-1.322l-0,8.003c-0.904,0.475 -1.82,0.882 -2.747,1.221c-0.904,0.317 -1.865,0.588 -2.883,0.814c-1.017,0.226 -2.114,0.384 -3.289,0.475c-1.176,0.113 -2.465,0.17 -3.866,0.17l-0,-0.001Z" style="fill-rule:nonzero;"/><path id="path12555" d="M247.692,874.323c0.272,-0 0.566,0.012 0.882,0.035c0.339,0 0.656,0.024 0.95,0.071c0.316,0.024 0.599,0.059 0.847,0.106c0.272,0.024 0.475,0.059 0.611,0.107l-0,9.699c-0.181,-0.047 -0.43,-0.093 -0.746,-0.136c-0.317,-0.047 -0.656,-0.083 -1.018,-0.106c-0.339,-0.047 -0.678,-0.071 -1.017,-0.071c-0.339,-0.024 -0.622,-0.036 -0.848,-0.036c-1.334,0 -2.566,0.17 -3.696,0.51c-1.108,0.339 -2.069,0.893 -2.883,1.661c-0.791,0.747 -1.413,1.742 -1.865,2.985c-0.43,1.22 -0.645,2.724 -0.645,4.51l0,19.297l-10.343,-0l-0,-37.915l7.834,-0l1.526,5.697l0.509,0c0.542,-0.972 1.13,-1.854 1.763,-2.645c0.633,-0.791 1.334,-1.458 2.103,-2.001c0.791,-0.565 1.673,-0.995 2.645,-1.289c0.995,-0.316 2.125,-0.474 3.391,-0.474l0,-0.005Z" style="fill-rule:nonzero;"/><path id="path12557" d="M273.399,881.682c-1.832,0 -3.358,0.644 -4.579,1.933c-1.198,1.289 -1.888,3.312 -2.068,6.071l13.192,-0c-0.023,-1.153 -0.17,-2.216 -0.441,-3.188c-0.271,-0.972 -0.678,-1.809 -1.221,-2.51c-0.543,-0.723 -1.221,-1.289 -2.035,-1.695c-0.814,-0.408 -1.763,-0.611 -2.848,-0.611l-0,0Zm1.322,31.946c-2.713,0 -5.211,-0.395 -7.495,-1.187c-2.283,-0.791 -4.25,-1.978 -5.901,-3.561c-1.65,-1.605 -2.939,-3.617 -3.866,-6.036c-0.904,-2.442 -1.356,-5.302 -1.356,-8.58c-0,-3.324 0.418,-6.229 1.255,-8.716c0.836,-2.487 2,-4.555 3.493,-6.206c1.514,-1.673 3.323,-2.928 5.426,-3.764c2.125,-0.837 4.476,-1.255 7.054,-1.255c2.509,-0 4.77,0.384 6.782,1.153c2.035,0.746 3.753,1.854 5.155,3.323c1.424,1.47 2.51,3.278 3.256,5.426c0.768,2.125 1.153,4.567 1.153,7.325l-0,5.02l-23.129,-0c0.045,1.447 0.271,2.758 0.678,3.934c0.43,1.153 1.018,2.136 1.764,2.95c0.769,0.791 1.684,1.402 2.747,1.831c1.085,0.43 2.317,0.645 3.696,0.645c1.153,0 2.239,-0.057 3.256,-0.17c1.04,-0.135 2.046,-0.328 3.018,-0.576c0.972,-0.249 1.933,-0.554 2.883,-0.916c0.949,-0.384 1.922,-0.825 2.916,-1.322l0,8.003c-0.904,0.475 -1.82,0.882 -2.747,1.221c-0.904,0.317 -1.865,0.588 -2.882,0.814c-1.018,0.226 -2.114,0.384 -3.29,0.475c-1.175,0.113 -2.464,0.17 -3.866,0.17l0,-0.001Z" style="fill-rule:nonzero;"/><path id="path12559" d="M309.584,913.628c-1.945,0 -3.719,-0.418 -5.325,-1.255c-1.605,-0.836 -2.984,-2.068 -4.137,-3.696c-1.153,-1.651 -2.057,-3.697 -2.713,-6.138c-0.633,-2.442 -0.95,-5.268 -0.95,-8.479c0,-3.255 0.317,-6.104 0.95,-8.546c0.656,-2.464 1.571,-4.521 2.747,-6.172c1.198,-1.673 2.623,-2.928 4.273,-3.764c1.65,-0.837 3.471,-1.255 5.46,-1.255c1.221,-0 2.34,0.147 3.357,0.44c1.018,0.272 1.934,0.668 2.747,1.187c0.814,0.498 1.538,1.086 2.171,1.764c0.656,0.656 1.232,1.379 1.729,2.17l0.34,0c-0.136,-0.881 -0.26,-1.774 -0.373,-2.679c-0.114,-0.768 -0.215,-1.582 -0.306,-2.442c-0.067,-0.881 -0.101,-1.695 -0.101,-2.441l-0,-12.141l10.343,-0l0,52.769l-7.902,-0l-2.001,-4.918l-0.44,0c-0.475,0.769 -1.018,1.504 -1.628,2.205c-0.611,0.678 -1.323,1.265 -2.137,1.763c-0.791,0.498 -1.695,0.893 -2.713,1.187c-0.995,0.294 -2.125,0.441 -3.391,0.441l-0,0Zm3.764,-8.241c1.221,0 2.261,-0.203 3.12,-0.61c0.859,-0.43 1.549,-1.063 2.069,-1.899c0.543,-0.859 0.938,-1.922 1.187,-3.188c0.271,-1.266 0.418,-2.747 0.441,-4.443l-0,-1.12c-0,-1.831 -0.113,-3.459 -0.339,-4.883c-0.226,-1.424 -0.599,-2.611 -1.119,-3.561c-0.52,-0.972 -1.221,-1.707 -2.103,-2.204c-0.882,-0.498 -1.99,-0.747 -3.324,-0.747c-2.17,0 -3.764,0.984 -4.781,2.951c-1.018,1.944 -1.526,4.781 -1.526,8.512c-0,3.73 0.508,6.534 1.526,8.41c1.04,1.854 2.656,2.781 4.849,2.781l0,0.001Z" style="fill-rule:nonzero;"/><path id="path12561" d="M378.902,874.323c1.945,-0 3.719,0.418 5.325,1.255c1.605,0.836 2.984,2.08 4.137,3.73c1.153,1.651 2.046,3.697 2.679,6.138c0.656,2.442 0.984,5.268 0.984,8.479c-0,3.255 -0.328,6.115 -0.984,8.58c-0.633,2.441 -1.537,4.488 -2.713,6.138c-1.176,1.65 -2.589,2.894 -4.239,3.73c-1.65,0.837 -3.47,1.255 -5.46,1.255c-1.266,0 -2.397,-0.136 -3.391,-0.407c-0.973,-0.272 -1.843,-0.634 -2.612,-1.086c-0.768,-0.452 -1.447,-0.96 -2.034,-1.526c-0.566,-0.588 -1.086,-1.198 -1.56,-1.831l-0.713,-0l-1.729,4.171l-7.902,0l0,-52.769l10.344,0l-0,12.277c-0,0.746 -0.023,1.56 -0.068,2.442c-0.045,0.859 -0.09,1.661 -0.135,2.408c-0.068,0.881 -0.136,1.763 -0.204,2.645l0.407,-0c0.475,-0.792 1.017,-1.526 1.628,-2.205c0.61,-0.678 1.311,-1.265 2.102,-1.763c0.814,-0.52 1.73,-0.927 2.747,-1.221c1.018,-0.294 2.148,-0.441 3.392,-0.441l-0.001,0.001Zm-3.493,8.275c-1.153,-0 -2.136,0.215 -2.95,0.645c-0.792,0.407 -1.436,1.028 -1.933,1.865c-0.498,0.836 -0.859,1.899 -1.085,3.188c-0.227,1.266 -0.362,2.747 -0.407,4.442l-0,1.12c-0,1.831 0.101,3.459 0.305,4.883c0.226,1.425 0.588,2.623 1.085,3.595c0.497,0.95 1.153,1.673 1.967,2.171c0.836,0.497 1.865,0.746 3.086,0.746c2.057,0 3.561,-0.972 4.51,-2.916c0.973,-1.967 1.459,-4.816 1.459,-8.547c-0,-3.73 -0.486,-6.522 -1.459,-8.376c-0.949,-1.877 -2.475,-2.815 -4.578,-2.815l0,-0.001Z" style="fill-rule:nonzero;"/><path id="path12563" d="M395.486,875.035l11.327,0l6.104,21.331c0.362,1.176 0.621,2.431 0.78,3.765c0.181,1.334 0.294,2.532 0.339,3.595l0.203,-0c0.047,-0.52 0.104,-1.097 0.17,-1.73c0.09,-0.633 0.192,-1.277 0.305,-1.933c0.113,-0.656 0.237,-1.3 0.373,-1.933c0.158,-0.656 0.316,-1.244 0.475,-1.764l5.968,-21.331l11.395,0l-14.989,42.765c-1.402,4.001 -3.313,6.974 -5.732,8.919c-2.419,1.944 -5.448,2.916 -9.088,2.916c-1.176,0 -2.193,-0.068 -3.053,-0.203c-0.859,-0.113 -1.594,-0.238 -2.204,-0.373l0,-8.207c0.475,0.113 1.074,0.215 1.797,0.305c0.724,0.09 1.481,0.135 2.273,0.135c1.085,0 2.012,-0.146 2.78,-0.44c0.769,-0.294 1.425,-0.712 1.967,-1.255c0.566,-0.52 1.04,-1.153 1.425,-1.899c0.407,-0.747 0.757,-1.583 1.051,-2.51l0.645,-1.899l-14.311,-38.254Z" style="fill-rule:nonzero;"/></g></g><g id="Hyperbola1" serif:id="Hyperbola"><g id="Hyperbola2" serif:id="Hyperbola"><path id="path20297" d="M745.855,1099.74c-13.719,-0 -24.591,10.624 -24.591,24.099c-0,13.718 11.065,24.263 25.412,24.263c7.079,-0 13.088,-2.466 17.701,-7.206c4.299,-4.49 6.7,-10.306 6.7,-16.312l0,-1.137l-30.546,-0l0,8.092l19.347,0c-2.466,5.183 -7.522,8.219 -13.718,8.219c-9.166,0 -16.187,-6.826 -16.187,-15.805c-0,-4.046 1.71,-8.47 4.365,-11.316c2.719,-2.907 6.826,-4.555 11.315,-4.555c5.437,0 9.989,2.216 12.835,6.199l10.177,-0c-3.034,-8.409 -12.645,-14.544 -22.824,-14.544l0.014,0.003Zm30.897,0.824l0,46.721l8.662,0l0,-33.945l19.535,33.945l9.67,0l0,-46.721l-8.662,-0l0,34.015l-19.342,-34.015l-9.863,-0Zm46.792,-0l-0,29.584c-0,4.994 0.758,8.219 2.527,11.002c2.719,4.299 7.781,6.953 13.217,6.953c5.12,0 9.86,-2.275 12.64,-6.006c2.213,-3.033 3.165,-6.512 3.165,-11.951l-0,-29.584l-8.662,-0l-0,29.584c-0,3.477 -0.253,4.935 -1.138,6.452c-1.201,1.959 -3.413,3.16 -6.005,3.16c-2.53,-0 -4.745,-1.2 -5.946,-3.16c-0.885,-1.518 -1.137,-2.975 -1.137,-6.452l0,-29.584l-8.662,-0l0.001,0.002Zm-102.28,54.293l-0,21.9l10.758,0l-0,-3.88l-6.7,0l-0,-18.02l-4.058,-0Zm12.546,-0l0,3.704l3.946,-0l-0,-3.704l-3.946,-0Zm70.047,-0l-0,21.9l3.94,0l0,-21.9l-3.94,-0Zm7.122,-0l-0,3.704l3.94,-0l0,-3.704l-3.94,-0Zm7.117,-0l-0,21.9l3.615,0l-0,-2.103c1.689,1.807 3.261,2.489 5.692,2.489c2.548,0 4.561,-0.949 6.074,-2.876c1.244,-1.6 1.927,-3.645 1.927,-5.837c0,-4.979 -3.526,-8.679 -8.268,-8.679c-2.163,0 -3.559,0.592 -5.099,2.104l0,-6.998l-3.941,-0Zm-68.875,5.099c-1.896,-0 -3.171,0.535 -4.622,1.957l-0,-1.571l-3.646,0l0,16.415l3.941,-0l-0,-7.736c-0,-2.194 0.149,-3.142 0.652,-3.941c0.623,-0.978 1.632,-1.511 2.907,-1.511c1.037,-0 1.836,0.357 2.37,1.039c0.534,0.711 0.769,1.923 0.769,4.116l-0,8.032l3.945,-0l0,-8.801c0,-2.932 -0.3,-4.358 -1.189,-5.631c-1.067,-1.54 -2.843,-2.37 -5.124,-2.37l-0.003,0.002Zm95.623,-0c-1.689,-0 -2.518,0.471 -3.554,1.983l-0,-1.597l-3.615,-0l0,16.414l3.941,0l-0,-9.126c-0.089,-2.431 1.153,-3.791 3.523,-3.88l0,-3.795l-0.296,0l0.001,0.001Zm9.684,-0c-4.832,-0 -8.65,3.823 -8.65,8.652c-0,4.801 3.882,8.534 8.889,8.534c2.696,-0 4.801,-0.977 6.52,-2.961c0.622,-0.771 1.033,-1.454 1.3,-2.284l-4.297,-0c-1.007,1.185 -1.984,1.631 -3.615,1.631c-2.341,0 -4.058,-1.247 -4.534,-3.233l12.711,0c0.118,-0.592 0.15,-0.948 0.15,-1.541c0,-5.068 -3.589,-8.8 -8.477,-8.8l0.003,0.002Zm-120.683,0.386l0,16.415l3.946,-0l-0,-16.415l-3.946,0Zm24.896,0l0,8.8c0,2.785 0.327,4.239 1.245,5.573c1.097,1.57 2.842,2.428 5.005,2.428c1.986,0 3.203,-0.505 4.712,-1.957l0,1.571l3.646,0l-0,-16.414l-3.941,-0l-0,7.736c-0,2.193 -0.149,3.23 -0.623,3.94c-0.563,0.978 -1.658,1.511 -2.991,1.511c-1.007,0 -1.78,-0.327 -2.313,-1.039c-0.563,-0.711 -0.799,-1.893 -0.799,-4.116l0,-8.032l-3.941,0l0,-0.001Zm16.853,0l5.036,7.94l-5.807,8.475l4.743,-0l3.439,-5.627l3.439,5.627l4.737,-0l-5.837,-8.475l5.01,-7.94l-4.447,0l-2.902,4.949l-2.966,-4.949l-4.445,0Zm35.422,0l0,16.415l3.941,-0l-0,-16.415l-3.941,0Zm15.594,3.022c2.816,-0 4.86,2.131 4.86,5.096c-0,3.022 -1.958,5.069 -4.773,5.069c-2.874,-0 -4.86,-2.107 -4.86,-5.099c0,-2.963 1.988,-5.066 4.773,-5.066Zm27.991,0.206c2.431,-0 4.032,1.158 4.536,3.263l-9.101,0c0.623,-2.134 2.222,-3.263 4.562,-3.263l0.003,-0Zm-62.569,2.907l0,3.493l8.208,-0l-0,-3.493l-8.208,-0Z" style="fill:#fff;fill-rule:nonzero;"/><path id="path20299" d="M45.859,1077.19l-0,99.279l9.942,0l0,-46.627l51.457,-0l-0,46.627l9.942,0l-0,-99.279l-9.942,-0l-0,43.65l-51.457,0l0,-43.65l-9.942,-0Zm381.88,-0.007l0,99.286l9.942,0l0,-12.628c6.18,9.135 16.661,14.375 28.741,14.375c22.167,-0 38.821,-16.523 38.821,-38.563c0,-21.628 -16.928,-38.423 -38.68,-38.423c-12.359,0 -22.571,5.106 -28.882,14.375l0,-38.422l-9.942,-0Zm179.477,0.007l-0,99.279l9.942,0l-0,-99.279l-9.942,-0Zm-360.782,24.052c-12.628,-0 -22.57,4.972 -28.881,14.375l-0,-12.629l-9.942,0l-0,99.28l9.942,-0l-0,-38.423c6.449,9.403 16.389,14.375 28.623,14.375c22.032,0 38.962,-16.789 38.962,-38.281c0,-22.032 -16.79,-38.681 -38.68,-38.681l-0.024,-0.016Zm87.957,-0c-21.361,-0 -38.024,16.792 -38.024,38.141c0,21.764 17.062,38.821 38.821,38.821c15.986,0 30.358,-10.343 35.727,-25.927l-10.346,-0c-4.163,10.075 -14.511,16.791 -25.669,16.791c-15.182,0 -27.803,-11.554 -28.624,-26.068l66.507,0c-0,-10.075 -1.344,-16.255 -4.97,-22.702c-6.583,-11.822 -19.345,-19.075 -33.452,-19.075l0.03,0.019Zm82.94,-0c-10.613,0.537 -16.928,4.163 -20.822,12.225l0,-10.479l-9.942,0l0,73.493l9.942,0l0,-42.853c-0.134,-13.299 7.253,-21.495 20.822,-22.571l-0,-9.815Zm137.749,-0c-21.898,-0 -38.563,16.525 -38.563,38.024c-0,22.702 16.524,38.962 39.36,38.962c21.494,-0 37.344,-16.253 37.344,-38.282c-0,-22.435 -15.986,-38.681 -38.141,-38.681l-0,-0.023Zm114.798,-0c-22.032,-0 -38.68,16.661 -38.68,38.68c-0,22.02 16.791,38.282 39.5,38.282c12.495,0 20.287,-4.03 28.225,-14.642l-0,12.893l9.942,0l-0,-73.492l-9.942,-0l-0,13.031c-7.389,-10.209 -16.255,-14.778 -29.022,-14.778l-0.023,0.026Zm-541.29,1.747l28.483,71.078l-11.953,28.201l10.61,0l42.454,-99.279l-10.614,-0l-24.85,58.56l-23.243,-58.56l-10.887,-0Zm117.565,7.387c16.658,-0 29.022,12.631 29.022,29.561c-0,16.525 -12.495,29.162 -28.881,29.162c-16.792,0 -29.28,-12.628 -29.28,-29.701c-0,-16.255 12.764,-29.022 29.162,-29.022l-0.023,-0Zm88.355,-0c14.242,-0 24.99,8.866 28.483,23.653l-56.286,0c2.687,-14.105 13.836,-23.653 27.803,-23.653Zm131.935,-0c16.525,-0 28.882,12.492 28.882,29.022c-0,16.928 -12.364,29.701 -29.022,29.701c-8.196,0 -14.91,-2.82 -20.686,-8.73c-5.776,-5.909 -8.465,-12.63 -8.465,-20.96c-0,-16.388 12.764,-29.022 29.279,-29.022l0.012,-0.011Zm88.754,-0c16.255,-0 28.084,12.495 28.084,29.701c0,16.928 -11.555,29.022 -27.545,29.022c-16.928,0 -29.022,-12.223 -29.022,-29.561c0,-16.658 12.225,-29.162 28.483,-29.162Zm115.056,-0c16.255,-0 28.74,12.626 28.74,29.022c0,16.792 -12.361,29.701 -28.225,29.701c-16.658,0 -29.42,-13.031 -29.42,-29.819c0,-15.985 12.898,-28.881 28.881,-28.881l0.024,-0.023Z" style="fill:#fff;fill-rule:nonzero;"/></g><g id="Logo"><path id="path20301" d="M485.693,446.618c-77.574,1.797 -195.183,84.606 -362.75,312.168c360.538,-266.406 431.535,-209.643 477.126,0.177c26.823,-144.544 -1,-315.003 -114.376,-312.395l-0,0.05Z" style="fill:#c0c0c0;fill-rule:nonzero;"/><path id="path20303" d="M482.574,203.546c-109.5,255.802 137.456,335.872 304.57,6.357c-125.321,106.324 -308.086,223.706 -304.57,-6.357Z" style="fill:#c0c0c0;fill-rule:nonzero;"/></g></g></g></svg>