<?xml version="1.0" encoding="UTF-8" standalone="no"?><!DOCTYPE svg PUBLIC "-//W3C//DTD SVG 1.1//EN" "http://www.w3.org/Graphics/SVG/1.1/DTD/svg11.dtd"><svg width="100%" height="100%" viewBox="0 0 907 1352" version="1.1" xmlns="http://www.w3.org/2000/svg" xmlns:xlink="http://www.w3.org/1999/xlink" xml:space="preserve" xmlns:serif="http://www.serif.com/" style="fill-rule:evenodd;clip-rule:evenodd;"><rect id="KDE-Neon" serif:id="KDE Neon" x="-0" y="0" width="906.667" height="1351.11" style="fill:none;"/><clipPath id="_clip1"><rect x="-0" y="0" width="906.667" height="1351.11"/></clipPath><g clip-path="url(#_clip1)"><g><g id="Frame"><path id="path36023" d="M363.226,8.892l180.223,-0c196.3,-0 354.331,36.928 354.331,82.799l0,1167.73c0,45.871 -158.031,82.8 -354.331,82.8l-180.223,-0c-196.299,-0 -354.331,-36.929 -354.331,-82.8l0,-1167.73c0,-45.871 158.032,-82.799 354.331,-82.799Z" style="fill:#fff;fill-rule:nonzero;"/><path id="path36025" d="M363.234,0c-98.707,0 -187.781,9.234 -252.806,24.429c-32.512,7.598 -58.999,16.618 -78.086,27.198c-9.544,5.29 -17.286,10.978 -22.976,17.509c-5.69,6.53 -9.366,14.275 -9.366,22.561l-0,1167.72c-0,8.285 3.676,16.03 9.366,22.56c5.69,6.531 13.432,12.219 22.976,17.509c19.087,10.581 45.574,19.6 78.086,27.198c65.025,15.195 154.099,24.429 252.806,24.429l180.209,0c98.707,0 187.781,-9.234 252.806,-24.429c32.512,-7.598 58.999,-16.617 78.086,-27.198c9.544,-5.29 17.286,-10.978 22.976,-17.509c5.69,-6.53 9.366,-14.275 9.366,-22.56l-0,-1167.72c-0,-8.286 -3.676,-16.031 -9.366,-22.561c-5.69,-6.531 -13.432,-12.219 -22.976,-17.509c-19.087,-10.58 -45.574,-19.6 -78.086,-27.198c-65.025,-15.195 -154.099,-24.429 -252.806,-24.429l-180.209,0Zm-0,17.786l180.209,-0c97.593,-0 185.703,9.231 248.769,23.968c31.533,7.368 56.818,16.176 73.496,25.421c8.339,4.622 14.481,9.365 18.201,13.633c3.719,4.269 4.982,7.706 4.982,10.889l0,1167.72c0,3.182 -1.263,6.619 -4.982,10.888c-3.72,4.269 -9.862,9.011 -18.201,13.633c-16.678,9.245 -41.963,18.053 -73.496,25.421c-63.066,14.738 -151.176,23.969 -248.769,23.969l-180.209,-0c-97.593,-0 -185.703,-9.231 -248.769,-23.969c-31.533,-7.368 -56.818,-16.176 -73.496,-25.421c-8.339,-4.622 -14.481,-9.364 -18.201,-13.633c-3.719,-4.269 -4.982,-7.706 -4.982,-10.888l-0,-1167.72c-0,-3.183 1.263,-6.62 4.982,-10.889c3.72,-4.268 9.862,-9.011 18.201,-13.633c16.678,-9.245 41.963,-18.053 73.496,-25.421c63.066,-14.737 151.176,-23.968 248.769,-23.968Z" style="fill-rule:nonzero;"/></g><g id="Bottom"><path id="path35979" d="M371.606,946.173l163.464,0c199.608,0 360.304,38.151 360.304,85.54l-0,218.99c-0,47.389 -160.696,85.54 -360.304,85.54l-163.464,-0c-199.609,-0 -360.304,-38.151 -360.304,-85.54l-0,-218.99c-0,-47.389 160.695,-85.54 360.304,-85.54Z" style="fill-rule:nonzero;"/><path id="path35981" d="M371.607,938.419c-100.298,0 -190.804,9.547 -256.796,25.214c-32.996,7.833 -59.838,17.123 -79.078,27.958c-19.241,10.836 -32.18,23.883 -32.18,40.116l-0,218.988c-0,16.233 12.939,29.303 32.18,40.139c19.24,10.835 46.082,20.125 79.078,27.958c65.992,15.667 156.498,25.214 256.796,25.214l163.463,0c100.298,0 190.804,-9.547 256.796,-25.214c32.996,-7.833 59.838,-17.123 79.078,-27.958c19.241,-10.836 32.18,-23.906 32.18,-40.139l0,-218.988c0,-16.233 -12.939,-29.28 -32.18,-40.116c-19.24,-10.835 -46.082,-20.125 -79.078,-27.958c-65.992,-15.667 -156.498,-25.214 -256.796,-25.214l-163.463,0Zm0,15.525l163.463,-0c99.309,-0 188.962,9.52 253.22,24.775c32.129,7.628 57.914,16.745 75.042,26.39c17.127,9.646 24.291,19.137 24.291,26.598l-0,218.988c-0,7.461 -7.164,16.952 -24.291,26.598c-17.128,9.645 -42.913,18.762 -75.042,26.39c-64.258,15.255 -153.911,24.798 -253.22,24.798l-163.463,0c-99.309,0 -188.962,-9.543 -253.22,-24.798c-32.129,-7.628 -57.914,-16.745 -75.042,-26.39c-17.127,-9.646 -24.291,-19.137 -24.291,-26.598l0,-218.988c0,-7.461 7.164,-16.952 24.291,-26.598c17.128,-9.645 42.913,-18.762 75.042,-26.39c64.258,-15.255 153.911,-24.775 253.22,-24.775Z" style="fill-rule:nonzero;"/></g><g id="Powered-By" serif:id="Powered By"><path id="path12547" d="M59.756,886.701l2.069,0c2.962,0 5.189,-0.588 6.681,-1.763c1.515,-1.176 2.272,-3.086 2.272,-5.732c-0,-2.464 -0.678,-4.284 -2.035,-5.46c-1.334,-1.175 -3.436,-1.763 -6.308,-1.763l-2.679,-0l0,14.718Zm21.671,-7.868c-0,2.171 -0.328,4.251 -0.984,6.24c-0.656,1.99 -1.741,3.742 -3.256,5.257c-1.492,1.515 -3.47,2.724 -5.934,3.629c-2.442,0.904 -5.472,1.356 -9.089,1.356l-2.408,0l0,17.635l-10.513,-0l0,-49.581l13.769,-0c3.188,-0 5.935,0.362 8.241,1.085c2.328,0.701 4.239,1.719 5.731,3.053c1.515,1.311 2.634,2.927 3.357,4.849c0.724,1.899 1.086,4.058 1.086,6.478l-0,-0.001Z" style="fill-rule:nonzero;"/><path id="path12549" d="M98.587,893.925c-0,3.775 0.531,6.624 1.594,8.546c1.062,1.899 2.792,2.848 5.188,2.848c2.374,0 4.093,-0.96 5.155,-2.882c1.063,-1.922 1.594,-4.759 1.594,-8.512c0,-3.776 -0.531,-6.591 -1.594,-8.445c-1.062,-1.876 -2.803,-2.814 -5.223,-2.814c-2.373,-0 -4.092,0.938 -5.154,2.814c-1.04,1.854 -1.56,4.669 -1.56,8.445Zm24.078,-0c0,3.165 -0.407,5.968 -1.221,8.41c-0.791,2.442 -1.944,4.499 -3.459,6.172c-1.492,1.673 -3.323,2.951 -5.494,3.833c-2.148,0.859 -4.567,1.288 -7.257,1.288c-2.51,0 -4.816,-0.429 -6.919,-1.288c-2.102,-0.882 -3.922,-2.16 -5.46,-3.833c-1.514,-1.673 -2.701,-3.73 -3.56,-6.172c-0.86,-2.442 -1.289,-5.245 -1.289,-8.41c-0,-3.143 0.395,-5.935 1.187,-8.377c0.814,-2.442 1.967,-4.488 3.459,-6.138c1.515,-1.673 3.346,-2.939 5.494,-3.798c2.148,-0.86 4.578,-1.289 7.291,-1.289c2.51,-0 4.816,0.429 6.918,1.289c2.103,0.859 3.912,2.125 5.427,3.798c1.537,1.65 2.735,3.696 3.594,6.138c0.859,2.442 1.289,5.234 1.289,8.377Z" style="fill-rule:nonzero;"/><path id="path12551" d="M160.546,912.95l-2.917,-13.26c-0.09,-0.384 -0.214,-0.927 -0.373,-1.628c-0.135,-0.724 -0.293,-1.526 -0.474,-2.408c-0.181,-0.904 -0.373,-1.854 -0.577,-2.848c-0.181,-1.018 -0.373,-2.024 -0.576,-3.019c-0.453,-2.328 -0.95,-4.838 -1.492,-7.528l-0.204,-0c-0.52,2.69 -0.995,5.211 -1.424,7.562c-0.181,0.995 -0.373,2.001 -0.577,3.019c-0.181,1.017 -0.362,1.978 -0.542,2.882c-0.181,0.882 -0.351,1.684 -0.509,2.408c-0.136,0.723 -0.249,1.289 -0.339,1.696l-3.052,13.124l-11.124,-0l-10.208,-37.915l10.276,0l3.832,16.787c0.203,0.882 0.407,1.944 0.61,3.188c0.226,1.221 0.43,2.464 0.611,3.73c0.203,1.244 0.384,2.431 0.542,3.561c0.159,1.108 0.283,1.99 0.373,2.645l0.204,0c0.023,-0.429 0.068,-0.983 0.136,-1.661c0.09,-0.701 0.192,-1.447 0.305,-2.239c0.113,-0.791 0.226,-1.593 0.339,-2.407c0.135,-0.837 0.26,-1.617 0.373,-2.34c0.136,-0.724 0.249,-1.357 0.339,-1.9c0.113,-0.565 0.204,-0.961 0.271,-1.187l4.138,-18.177l11.395,0l3.967,18.177c0.113,0.498 0.26,1.267 0.441,2.307c0.181,1.04 0.362,2.159 0.543,3.357c0.203,1.176 0.373,2.329 0.509,3.459c0.135,1.108 0.214,1.978 0.237,2.611l0.203,0c0.068,-0.565 0.181,-1.401 0.34,-2.509c0.18,-1.108 0.373,-2.295 0.576,-3.561c0.203,-1.289 0.418,-2.566 0.644,-3.832c0.249,-1.266 0.475,-2.34 0.679,-3.222l3.968,-16.787l10.14,0l-10.344,37.915l-11.259,-0Z" style="fill-rule:nonzero;"/><path id="path12553" d="M202.903,881.682c-1.831,0 -3.357,0.644 -4.578,1.933c-1.198,1.289 -1.888,3.312 -2.068,6.071l13.192,-0c-0.023,-1.153 -0.17,-2.216 -0.441,-3.188c-0.272,-0.972 -0.678,-1.809 -1.221,-2.51c-0.543,-0.723 -1.221,-1.289 -2.035,-1.695c-0.814,-0.408 -1.763,-0.611 -2.849,-0.611l0,0Zm1.323,31.946c-2.713,0 -5.211,-0.395 -7.495,-1.187c-2.283,-0.791 -4.25,-1.978 -5.901,-3.561c-1.65,-1.605 -2.939,-3.617 -3.866,-6.036c-0.904,-2.442 -1.356,-5.302 -1.356,-8.58c-0,-3.324 0.418,-6.229 1.255,-8.716c0.836,-2.487 2,-4.555 3.493,-6.206c1.514,-1.673 3.323,-2.928 5.426,-3.764c2.125,-0.837 4.476,-1.255 7.054,-1.255c2.509,-0 4.77,0.384 6.782,1.153c2.035,0.746 3.753,1.854 5.155,3.323c1.424,1.47 2.51,3.278 3.256,5.426c0.768,2.125 1.153,4.567 1.153,7.325l-0,5.02l-23.129,-0c0.045,1.447 0.271,2.758 0.678,3.934c0.43,1.153 1.018,2.136 1.764,2.95c0.768,0.791 1.684,1.402 2.747,1.831c1.085,0.43 2.317,0.645 3.696,0.645c1.153,0 2.239,-0.057 3.256,-0.17c1.04,-0.135 2.046,-0.328 3.018,-0.576c0.972,-0.249 1.933,-0.554 2.883,-0.916c0.949,-0.384 1.922,-0.825 2.916,-1.322l0,8.003c-0.904,0.475 -1.82,0.882 -2.747,1.221c-0.904,0.317 -1.865,0.588 -2.882,0.814c-1.018,0.226 -2.114,0.384 -3.29,0.475c-1.175,0.113 -2.464,0.17 -3.866,0.17l0,-0.001Z" style="fill-rule:nonzero;"/><path id="path12555" d="M247.703,874.323c0.271,-0 0.565,0.012 0.881,0.035c0.34,0 0.656,0.024 0.95,0.071c0.317,0.024 0.599,0.059 0.848,0.106c0.271,0.024 0.475,0.059 0.61,0.107l0,9.699c-0.181,-0.047 -0.429,-0.093 -0.746,-0.136c-0.316,-0.047 -0.656,-0.083 -1.017,-0.106c-0.339,-0.047 -0.679,-0.071 -1.018,-0.071c-0.339,-0.024 -0.621,-0.036 -0.847,-0.036c-1.334,0 -2.567,0.17 -3.697,0.51c-1.108,0.339 -2.069,0.893 -2.883,1.661c-0.791,0.747 -1.413,1.742 -1.865,2.985c-0.429,1.22 -0.644,2.724 -0.644,4.51l-0,19.297l-10.344,-0l0,-37.915l7.834,-0l1.526,5.697l0.509,0c0.543,-0.972 1.13,-1.854 1.763,-2.645c0.633,-0.791 1.334,-1.458 2.103,-2.001c0.791,-0.565 1.673,-0.995 2.645,-1.289c0.995,-0.316 2.125,-0.474 3.392,-0.474l-0,-0.005Z" style="fill-rule:nonzero;"/><path id="path12557" d="M273.409,881.682c-1.831,0 -3.358,0.644 -4.578,1.933c-1.199,1.289 -1.888,3.312 -2.069,6.071l13.192,-0c-0.023,-1.153 -0.17,-2.216 -0.441,-3.188c-0.271,-0.972 -0.678,-1.809 -1.221,-2.51c-0.542,-0.723 -1.221,-1.289 -2.034,-1.695c-0.814,-0.408 -1.764,-0.611 -2.849,-0.611l-0,0Zm1.322,31.946c-2.713,0 -5.211,-0.395 -7.494,-1.187c-2.284,-0.791 -4.251,-1.978 -5.901,-3.561c-1.651,-1.605 -2.939,-3.617 -3.866,-6.036c-0.905,-2.442 -1.357,-5.302 -1.357,-8.58c0,-3.324 0.418,-6.229 1.255,-8.716c0.836,-2.487 2.001,-4.555 3.493,-6.206c1.515,-1.673 3.323,-2.928 5.426,-3.764c2.125,-0.837 4.477,-1.255 7.054,-1.255c2.51,-0 4.77,0.384 6.783,1.153c2.034,0.746 3.753,1.854 5.154,3.323c1.425,1.47 2.51,3.278 3.256,5.426c0.769,2.125 1.153,4.567 1.153,7.325l0,5.02l-23.129,-0c0.045,1.447 0.271,2.758 0.679,3.934c0.429,1.153 1.017,2.136 1.763,2.95c0.769,0.791 1.685,1.402 2.747,1.831c1.085,0.43 2.318,0.645 3.697,0.645c1.153,0 2.238,-0.057 3.255,-0.17c1.04,-0.135 2.046,-0.328 3.019,-0.576c0.972,-0.249 1.933,-0.554 2.882,-0.916c0.95,-0.384 1.922,-0.825 2.917,-1.322l-0,8.003c-0.905,0.475 -1.82,0.882 -2.747,1.221c-0.905,0.317 -1.865,0.588 -2.883,0.814c-1.017,0.226 -2.114,0.384 -3.289,0.475c-1.176,0.113 -2.465,0.17 -3.867,0.17l0,-0.001Z" style="fill-rule:nonzero;"/><path id="path12559" d="M309.594,913.628c-1.944,0 -3.719,-0.418 -5.324,-1.255c-1.605,-0.836 -2.985,-2.068 -4.138,-3.696c-1.153,-1.651 -2.057,-3.697 -2.713,-6.138c-0.633,-2.442 -0.949,-5.268 -0.949,-8.479c-0,-3.255 0.316,-6.104 0.949,-8.546c0.656,-2.464 1.572,-4.521 2.747,-6.172c1.199,-1.673 2.623,-2.928 4.273,-3.764c1.651,-0.837 3.471,-1.255 5.46,-1.255c1.221,-0 2.34,0.147 3.358,0.44c1.017,0.272 1.933,0.668 2.747,1.187c0.814,0.498 1.537,1.086 2.17,1.764c0.656,0.656 1.232,1.379 1.73,2.17l0.339,0c-0.136,-0.881 -0.26,-1.774 -0.373,-2.679c-0.113,-0.768 -0.215,-1.582 -0.305,-2.442c-0.068,-0.881 -0.102,-1.695 -0.102,-2.441l0,-12.141l10.344,-0l-0,52.769l-7.902,-0l-2.001,-4.918l-0.441,0c-0.475,0.769 -1.018,1.504 -1.628,2.205c-0.61,0.678 -1.323,1.265 -2.136,1.763c-0.792,0.498 -1.696,0.893 -2.714,1.187c-0.994,0.294 -2.125,0.441 -3.391,0.441l0,0Zm3.765,-8.241c1.22,0 2.26,-0.203 3.12,-0.61c0.859,-0.43 1.548,-1.063 2.068,-1.899c0.543,-0.859 0.939,-1.922 1.187,-3.188c0.272,-1.266 0.419,-2.747 0.441,-4.443l0,-1.12c0,-1.831 -0.113,-3.459 -0.339,-4.883c-0.226,-1.424 -0.599,-2.611 -1.119,-3.561c-0.52,-0.972 -1.221,-1.707 -2.103,-2.204c-0.881,-0.498 -1.989,-0.747 -3.323,-0.747c-2.171,0 -3.765,0.984 -4.782,2.951c-1.017,1.944 -1.526,4.781 -1.526,8.512c0,3.73 0.509,6.534 1.526,8.41c1.04,1.854 2.657,2.781 4.85,2.781l-0,0.001Z" style="fill-rule:nonzero;"/><path id="path12561" d="M378.913,874.323c1.944,-0 3.719,0.418 5.324,1.255c1.605,0.836 2.984,2.08 4.137,3.73c1.153,1.651 2.046,3.697 2.68,6.138c0.655,2.442 0.983,5.268 0.983,8.479c0,3.255 -0.328,6.115 -0.983,8.58c-0.634,2.441 -1.538,4.488 -2.714,6.138c-1.175,1.65 -2.588,2.894 -4.239,3.73c-1.65,0.837 -3.47,1.255 -5.46,1.255c-1.266,0 -2.396,-0.136 -3.391,-0.407c-0.972,-0.272 -1.843,-0.634 -2.611,-1.086c-0.769,-0.452 -1.447,-0.96 -2.035,-1.526c-0.565,-0.588 -1.085,-1.198 -1.56,-1.831l-0.712,-0l-1.73,4.171l-7.902,0l0,-52.769l10.344,0l-0,12.277c-0,0.746 -0.023,1.56 -0.067,2.442c-0.045,0.859 -0.091,1.661 -0.136,2.408c-0.068,0.881 -0.136,1.763 -0.204,2.645l0.407,-0c0.475,-0.792 1.018,-1.526 1.628,-2.205c0.611,-0.678 1.311,-1.265 2.103,-1.763c0.814,-0.52 1.729,-0.927 2.747,-1.221c1.017,-0.294 2.148,-0.441 3.391,-0.441l-0,0.001Zm-3.493,8.275c-1.153,-0 -2.137,0.215 -2.951,0.645c-0.791,0.407 -1.436,1.028 -1.933,1.865c-0.497,0.836 -0.859,1.899 -1.085,3.188c-0.226,1.266 -0.362,2.747 -0.407,4.442l-0,1.12c-0,1.831 0.102,3.459 0.305,4.883c0.226,1.425 0.588,2.623 1.085,3.595c0.498,0.95 1.153,1.673 1.967,2.171c0.837,0.497 1.865,0.746 3.086,0.746c2.058,0 3.561,-0.972 4.511,-2.916c0.972,-1.967 1.458,-4.816 1.458,-8.547c0,-3.73 -0.486,-6.522 -1.458,-8.376c-0.95,-1.877 -2.476,-2.815 -4.578,-2.815l-0,-0.001Z" style="fill-rule:nonzero;"/><path id="path12563" d="M395.496,875.035l11.327,0l6.104,21.331c0.362,1.176 0.622,2.431 0.78,3.765c0.181,1.334 0.294,2.532 0.339,3.595l0.203,-0c0.047,-0.52 0.104,-1.097 0.17,-1.73c0.091,-0.633 0.192,-1.277 0.305,-1.933c0.113,-0.656 0.238,-1.3 0.373,-1.933c0.158,-0.656 0.317,-1.244 0.475,-1.764l5.969,-21.331l11.395,0l-14.99,42.765c-1.402,4.001 -3.312,6.974 -5.731,8.919c-2.42,1.944 -5.449,2.916 -9.089,2.916c-1.176,0 -2.193,-0.068 -3.052,-0.203c-0.859,-0.113 -1.594,-0.238 -2.205,-0.373l0,-8.207c0.475,0.113 1.074,0.215 1.798,0.305c0.723,0.09 1.481,0.135 2.272,0.135c1.085,0 2.012,-0.146 2.781,-0.44c0.768,-0.294 1.424,-0.712 1.967,-1.255c0.565,-0.52 1.04,-1.153 1.424,-1.899c0.407,-0.747 0.758,-1.583 1.051,-2.51l0.645,-1.899l-14.311,-38.254Z" style="fill-rule:nonzero;"/></g></g><g id="KDE-Neon1" serif:id="KDE Neon"><g id="Logo"><circle id="path4136" cx="456.848" cy="481.981" r="329.369" style="fill:url(#_Linear2);"/></g><g id="Logo1" serif:id="Logo"><path id="rect4146" d="M504.801,434.027l-95.906,95.905l227.835,227.808c38.237,-25.014 70.854,-57.712 95.771,-96.012l-227.7,-227.701Z" style="fill:url(#_Linear3);"/><path id="rect4146-1" d="M591.699,347.128l-6.057,6.058c34.172,34.135 53.41,80.493 53.447,128.794c-0.001,99.974 -82.267,182.24 -182.241,182.241c-48.301,-0.038 -94.659,-19.276 -128.794,-53.448l-6.058,6.058l189.827,189.854c137.761,-23.478 246.258,-132.191 269.462,-269.998l-189.586,-189.559Z" style="fill:url(#_Linear4);"/><path id="rect4146-1-9" d="M660.64,278.134l-0,0.054l-15.842,15.841c49.87,49.813 77.945,117.464 78,187.951c0,0.001 0,0.002 0,0.003c0,145.894 -120.053,265.947 -265.947,265.947c-0.001,-0 -0.002,-0 -0.003,-0c-70.49,-0.062 -138.142,-28.148 -187.95,-78.027l-15.842,15.868l112.363,112.363c29.704,8.678 60.483,13.127 91.429,13.214c180.686,0 329.369,-148.682 329.369,-329.368c-0.052,-30.913 -4.455,-61.664 -13.081,-91.349l-112.496,-112.497Z" style="fill:url(#_Linear5);"/><path id="path4146-1-4-0" d="M456.848,193.782c-11.065,0.01 -20.726,7.756 -23.141,18.553c-55.67,4.845 -108.505,26.776 -151.241,62.778c-3.659,-2.181 -7.839,-3.338 -12.099,-3.348c-13.02,0 -23.734,10.714 -23.734,23.734c0.01,4.257 1.165,8.434 3.343,12.091c-36.055,42.733 -58.03,95.588 -62.9,151.287c-10.734,2.463 -18.412,12.09 -18.426,23.103c0.009,11.065 7.755,20.727 18.553,23.142c4.845,55.669 26.777,108.504 62.779,151.24c-2.182,3.659 -3.339,7.839 -3.349,12.099c0,13.02 10.714,23.734 23.734,23.734c4.243,-0.01 8.406,-1.157 12.056,-3.321c42.745,36.055 95.613,58.024 151.323,62.881c2.464,10.733 12.09,18.409 23.102,18.423c11.073,-0.009 20.74,-7.766 23.147,-18.574c55.717,-4.77 108.618,-26.656 151.419,-62.644c3.617,2.11 7.728,3.227 11.915,3.235c13.02,-0 23.734,-10.714 23.734,-23.734c-0.01,-4.251 -1.162,-8.423 -3.335,-12.077c36.147,-42.724 58.201,-95.605 63.121,-151.352c10.626,-2.549 18.184,-12.124 18.197,-23.052c-0.009,-11.073 -7.766,-20.74 -18.574,-23.147c-4.776,-55.713 -26.666,-108.608 -62.654,-151.404c2.116,-3.62 3.236,-7.737 3.245,-11.93c-0,-13.02 -10.714,-23.734 -23.734,-23.734c-4.254,0.01 -8.427,1.163 -12.083,3.338c-42.722,-36.145 -95.601,-58.198 -151.346,-63.119c-2.547,-10.628 -12.123,-18.189 -23.052,-18.202Zm-0,10.174c7.439,-0 13.561,6.121 13.562,13.56c0,7.44 -6.122,13.562 -13.562,13.562c-0,0 -0,0 -0,0c-7.44,0 -13.562,-6.122 -13.562,-13.562c0.001,-7.439 6.123,-13.56 13.562,-13.56Zm-22.324,21.547c3.363,9.412 12.329,15.736 22.324,15.747c9.865,-0.013 18.738,-6.175 22.197,-15.413c52.602,4.622 102.534,25.304 142.999,59.231c-1.601,3.245 -2.438,6.813 -2.449,10.431c-0,13.02 10.714,23.734 23.734,23.734c-0,0 -0,0 -0,0c3.632,-0.005 7.215,-0.844 10.473,-2.451c33.942,40.441 54.649,90.355 59.303,142.947c-9.302,3.428 -15.519,12.338 -15.527,22.251c0.013,9.865 6.174,18.738 15.413,22.196c-4.622,52.603 -25.304,102.536 -59.231,143.001c-3.245,-1.601 -6.813,-2.439 -10.431,-2.45c-0,0 -0,0 -0,0c-13.02,0 -23.734,10.714 -23.734,23.734c0.005,3.623 0.84,7.197 2.44,10.448c-40.436,33.95 -90.345,54.665 -142.936,59.328c-3.428,-9.301 -12.338,-15.519 -22.251,-15.527c-9.858,0.013 -18.728,6.166 -22.191,15.396c-52.614,-4.536 -102.583,-25.139 -143.105,-59.004c1.667,-3.3 2.54,-6.944 2.549,-10.641c-0,-13.02 -10.714,-23.734 -23.734,-23.734c0,0 0,0 0,0c-3.625,0.005 -7.202,0.841 -10.454,2.443c-34.011,-40.391 -54.798,-90.277 -59.533,-142.868c9.408,-3.366 15.728,-12.33 15.738,-22.322c-0.012,-9.858 -6.166,-18.728 -15.396,-22.191c4.54,-52.614 25.146,-102.583 59.014,-143.102c3.297,1.664 6.938,2.536 10.631,2.546l0,0c13.02,0 23.734,-10.714 23.734,-23.734c-0.005,-3.629 -0.842,-7.209 -2.447,-10.463c40.392,-34.011 90.278,-54.799 142.87,-59.533Zm22.324,49.651c-11.136,0.006 -20.842,7.849 -23.188,18.735c-94.592,11.639 -166.503,92.786 -166.684,188.091c0.143,95.347 72.083,176.544 166.718,188.171c2.376,10.842 12.055,18.641 23.154,18.655c11.135,-0.006 20.842,-7.847 23.189,-18.733c94.592,-11.639 166.503,-92.787 166.682,-188.093c-0.142,-95.346 -72.082,-176.544 -166.717,-188.171c-2.375,-10.842 -12.055,-18.641 -23.154,-18.655Zm-186.481,6.783c7.44,-0 13.562,6.122 13.562,13.562c0,7.44 -6.122,13.562 -13.562,13.562c-7.44,0 -13.562,-6.122 -13.562,-13.562c-0,-7.44 6.122,-13.562 13.562,-13.562Zm372.962,-0c7.44,-0 13.562,6.122 13.562,13.562c0,7.44 -6.122,13.562 -13.562,13.562c-7.44,0 -13.562,-6.122 -13.562,-13.562c-0,-7.44 6.122,-13.562 13.562,-13.562Zm-186.481,3.39c7.439,0 13.561,6.122 13.562,13.561c0,0.001 0,0.002 0,0.003c0,7.44 -6.122,13.563 -13.562,13.563c-0,-0 -0,-0 -0,-0c-7.44,-0 -13.562,-6.123 -13.562,-13.563c-0,-0.001 -0,-0.002 -0,-0.003c0.001,-7.439 6.123,-13.561 13.562,-13.561Zm-22.17,22.014c3.498,9.178 12.348,15.278 22.17,15.281c9.798,-0.012 18.625,-6.089 22.133,-15.237c87.579,11.081 154.016,86.317 154.176,174.595c-0.135,88.282 -66.558,163.538 -154.139,174.639c-3.498,-9.178 -12.348,-15.278 -22.17,-15.281c-9.797,0.012 -18.625,6.089 -22.132,15.237c-87.58,-11.081 -154.017,-86.317 -154.177,-174.595c0.135,-88.282 66.558,-163.539 154.139,-174.639Zm22.17,106.828c-0,-0 -0,-0 -0,-0c-37.2,-0 -67.811,30.611 -67.811,67.811c-0,37.2 30.611,67.811 67.811,67.811l-0,0c37.2,0 67.811,-30.611 67.811,-67.811c0,-37.2 -30.611,-67.811 -67.811,-67.811Zm-264.464,54.25c7.44,0 13.561,6.122 13.562,13.561c-0.001,7.439 -6.122,13.561 -13.562,13.561c-7.439,-0 -13.561,-6.122 -13.562,-13.561c0.001,-7.439 6.123,-13.561 13.562,-13.561Zm528.928,0c7.439,0 13.561,6.122 13.562,13.561c-0.001,7.439 -6.123,13.561 -13.562,13.561c-7.44,-0 -13.562,-6.122 -13.562,-13.561c0,-7.439 6.122,-13.561 13.562,-13.561Zm-264.464,183.087c7.44,0 13.562,6.123 13.562,13.563c0,0.001 0,0.002 0,0.003c-0.001,7.439 -6.123,13.561 -13.562,13.561c-7.439,-0 -13.561,-6.122 -13.562,-13.561c-0,-0.001 -0,-0.002 -0,-0.003c-0,-7.44 6.122,-13.563 13.562,-13.563c-0,0 -0,0 -0,0Zm-186.481,3.393c7.44,-0 13.562,6.122 13.562,13.562c0,7.44 -6.122,13.562 -13.562,13.562c-7.44,0 -13.562,-6.122 -13.562,-13.562c-0,-7.44 6.122,-13.562 13.562,-13.562Zm372.962,-0c7.44,-0 13.562,6.122 13.562,13.562c0,7.44 -6.122,13.562 -13.562,13.562c-7.44,0 -13.562,-6.122 -13.562,-13.562c-0,-7.44 6.122,-13.562 13.562,-13.562Zm-186.481,77.983c7.44,-0 13.562,6.122 13.562,13.562c-0.001,7.439 -6.123,13.56 -13.562,13.56c-7.439,0 -13.561,-6.121 -13.562,-13.56c-0,-7.44 6.122,-13.562 13.562,-13.562c-0,-0 -0,-0 -0,-0Z" style="fill:#fcfcfc;"/></g><g id="KDE-neon" serif:id="KDE neon"><path id="path81294" d="M165.926,1199.64l-17.075,-0l-44.767,-60.397l-13.252,11.892l0,48.505l-14.44,-0l-0,-124.192l14.44,-0l0,61.926c3.228,-3.681 6.541,-7.334 9.939,-10.958c3.398,-3.681 6.768,-7.391 10.109,-11.128l36.272,-39.84l16.905,-0l-49.439,53.856l51.308,70.336Z" style="fill:#fff;fill-rule:nonzero;stroke:#fff;stroke-width:5.13px;"/><path id="path81296" d="M281.538,1136.35c0,13.987 -2.548,25.682 -7.645,35.083c-5.097,9.344 -12.487,16.394 -22.171,21.151c-9.627,4.701 -21.322,7.051 -35.083,7.051l-33.724,-0l-0,-124.192l37.461,-0c12.629,-0 23.502,2.322 32.62,6.965c9.118,4.587 16.14,11.411 21.067,20.472c4.983,9.005 7.475,20.161 7.475,33.47Zm-15.205,0.509c-0,-11.156 -1.869,-20.359 -5.607,-27.608c-3.681,-7.248 -9.117,-12.628 -16.31,-16.139c-7.135,-3.568 -15.885,-5.352 -26.248,-5.352l-20.812,-0l-0,99.473l17.584,-0c17.103,-0 29.929,-4.219 38.481,-12.657c8.608,-8.438 12.912,-21.011 12.912,-37.717Z" style="fill:#fff;fill-rule:nonzero;stroke:#fff;stroke-width:5.13px;"/><path id="path81298" d="M378.293,1199.64l-69.147,-0l-0,-124.192l69.147,-0l-0,12.742l-54.706,-0l-0,40.18l51.563,-0l-0,12.572l-51.563,-0l-0,45.956l54.706,-0l-0,12.742Z" style="fill:#fff;fill-rule:nonzero;stroke:#fff;stroke-width:5.13px;"/><path id="path81300" d="M492.971,1104.84c11.043,0 19.396,2.719 25.059,8.155c5.663,5.38 8.495,14.045 8.495,25.994l0,60.652l-13.931,-0l-0,-59.718c-0,-7.758 -1.784,-13.563 -5.352,-17.414c-3.511,-3.851 -8.919,-5.776 -16.225,-5.776c-10.307,-0 -17.555,2.916 -21.746,8.749c-4.191,5.833 -6.286,14.3 -6.286,25.399l-0,48.76l-14.101,-0l-0,-93.102l11.382,0l2.124,13.422l0.765,-0c1.982,-3.285 4.502,-6.031 7.56,-8.24c3.058,-2.265 6.484,-3.964 10.278,-5.097c3.795,-1.189 7.787,-1.784 11.978,-1.784Z" style="fill:#fff;fill-rule:nonzero;stroke:#fff;stroke-width:5.13px;"/><path id="path81302" d="M591.424,1104.84c7.929,0 14.725,1.756 20.388,5.267c5.663,3.511 9.995,8.438 12.997,14.781c3.001,6.286 4.502,13.648 4.502,22.086l-0,8.749l-64.305,0c0.17,10.93 2.888,19.255 8.155,24.975c5.267,5.72 12.685,8.579 22.256,8.579c5.89,0 11.1,-0.538 15.63,-1.614c4.531,-1.076 9.231,-2.661 14.101,-4.757l0,12.403c-4.7,2.095 -9.372,3.624 -14.016,4.587c-4.587,0.963 -10.024,1.444 -16.31,1.444c-8.947,-0 -16.762,-1.812 -23.445,-5.437c-6.626,-3.681 -11.779,-9.061 -15.46,-16.14c-3.681,-7.079 -5.522,-15.743 -5.522,-25.993c0,-10.024 1.671,-18.689 5.012,-25.994c3.398,-7.362 8.155,-13.025 14.271,-16.989c6.173,-3.965 13.422,-5.947 21.746,-5.947Zm-0.169,11.553c-7.532,0 -13.535,2.463 -18.009,7.39c-4.474,4.927 -7.136,11.808 -7.985,20.642l49.269,0c-0.057,-5.549 -0.934,-10.42 -2.633,-14.61c-1.643,-4.248 -4.163,-7.532 -7.561,-9.854c-3.397,-2.379 -7.758,-3.568 -13.081,-3.568Z" style="fill:#fff;fill-rule:nonzero;stroke:#fff;stroke-width:5.13px;"/><path id="path81304" d="M733.541,1152.92c-0,7.645 -0.991,14.469 -2.974,20.472c-1.982,6.003 -4.842,11.072 -8.579,15.206c-3.738,4.134 -8.268,7.305 -13.592,9.514c-5.266,2.152 -11.241,3.228 -17.923,3.228c-6.23,-0 -11.95,-1.076 -17.16,-3.228c-5.153,-2.209 -9.627,-5.38 -13.421,-9.514c-3.738,-4.134 -6.655,-9.203 -8.75,-15.206c-2.039,-6.003 -3.058,-12.827 -3.058,-20.472c0,-10.193 1.727,-18.858 5.182,-25.994c3.454,-7.192 8.381,-12.657 14.781,-16.394c6.456,-3.795 14.129,-5.692 23.02,-5.692c8.495,0 15.914,1.897 22.256,5.692c6.4,3.794 11.355,9.287 14.866,16.479c3.568,7.136 5.352,15.772 5.352,25.909Zm-70.846,0c-0,7.476 0.991,13.96 2.973,19.453c1.982,5.493 5.04,9.741 9.174,12.742c4.134,3.002 9.458,4.502 15.97,4.502c6.456,0 11.751,-1.5 15.885,-4.502c4.191,-3.001 7.277,-7.249 9.26,-12.742c1.982,-5.493 2.973,-11.977 2.973,-19.453c-0,-7.419 -0.991,-13.818 -2.973,-19.198c-1.983,-5.436 -5.041,-9.627 -9.175,-12.572c-4.134,-2.945 -9.485,-4.417 -16.055,-4.417c-9.684,-0 -16.791,3.199 -21.321,9.599c-4.474,6.399 -6.711,15.262 -6.711,26.588Z" style="fill:#fff;fill-rule:nonzero;stroke:#fff;stroke-width:5.13px;"/><path id="path81306" d="M802.008,1104.84c11.043,0 19.396,2.719 25.059,8.155c5.663,5.38 8.495,14.045 8.495,25.994l-0,60.652l-13.932,-0l0,-59.718c0,-7.758 -1.783,-13.563 -5.351,-17.414c-3.511,-3.851 -8.92,-5.776 -16.225,-5.776c-10.307,-0 -17.556,2.916 -21.746,8.749c-4.191,5.833 -6.286,14.3 -6.286,25.399l-0,48.76l-14.102,-0l0,-93.102l11.383,0l2.124,13.422l0.764,-0c1.983,-3.285 4.503,-6.031 7.561,-8.24c3.058,-2.265 6.484,-3.964 10.278,-5.097c3.795,-1.189 7.787,-1.784 11.978,-1.784Z" style="fill:#fff;fill-rule:nonzero;stroke:#fff;stroke-width:5.13px;"/></g></g></g><defs><linearGradient id="_Linear2" x1="0" y1="0" x2="1" y2="0" gradientUnits="userSpaceOnUse" gradientTransform="matrix(4.03361e-14,658.738,-658.738,4.03361e-14,470.572,152.612)"><stop offset="0" style="stop-color:#1abc9c;stop-opacity:1"/><stop offset="1" style="stop-color:#2980b9;stop-opacity:1"/></linearGradient><linearGradient id="_Linear3" x1="0" y1="0" x2="1" y2="0" gradientUnits="userSpaceOnUse" gradientTransform="matrix(299.686,299.686,-299.686,299.686,456.848,481.979)"><stop offset="0" style="stop-color:#000;stop-opacity:0.2"/><stop offset="1" style="stop-color:#000;stop-opacity:0"/></linearGradient><linearGradient id="_Linear4" x1="0" y1="0" x2="1" y2="0" gradientUnits="userSpaceOnUse" gradientTransform="matrix(299.686,299.686,-299.686,299.686,456.851,481.978)"><stop offset="0" style="stop-color:#000;stop-opacity:0.2"/><stop offset="1" style="stop-color:#000;stop-opacity:0"/></linearGradient><linearGradient id="_Linear5" x1="0" y1="0" x2="1" y2="0" gradientUnits="userSpaceOnUse" gradientTransform="matrix(299.686,299.686,-299.686,299.686,456.85,481.978)"><stop offset="0" style="stop-color:#000;stop-opacity:0.2"/><stop offset="1" style="stop-color:#000;stop-opacity:0"/></linearGradient></defs></svg>