<?xml version="1.0" encoding="UTF-8" standalone="no"?><!DOCTYPE svg PUBLIC "-//W3C//DTD SVG 1.1//EN" "http://www.w3.org/Graphics/SVG/1.1/DTD/svg11.dtd"><svg width="100%" height="100%" viewBox="0 0 907 1352" version="1.1" xmlns="http://www.w3.org/2000/svg" xmlns:xlink="http://www.w3.org/1999/xlink" xml:space="preserve" xmlns:serif="http://www.serif.com/" style="fill-rule:evenodd;clip-rule:evenodd;stroke-linejoin:round;"><rect id="Kubuntu" x="0" y="0" width="906.667" height="1351.11" style="fill:none;"/><clipPath id="_clip1"><rect x="0" y="0" width="906.667" height="1351.11"/></clipPath><g clip-path="url(#_clip1)"><g id="READ-ME" serif:id="READ ME"><path id="Frame" d="M897.778,363.221c-0,-195.561 -158.771,-354.332 -354.333,-354.332l-180.224,-0c-195.561,-0 -354.332,158.771 -354.332,354.332l-0,624.669c-0,195.561 158.771,354.332 354.332,354.332l180.224,0c195.562,0 354.333,-158.771 354.333,-354.332l-0,-624.669Z" style="fill:#fff;stroke:#000;stroke-width:17.78px;"/><path id="Bottom" d="M895.371,1141.21c-0,-107.643 -87.393,-195.036 -195.036,-195.036l-494.004,0c-107.643,0 -195.035,87.393 -195.035,195.036c-0,107.643 87.392,195.036 195.035,195.036l494.004,-0c107.643,-0 195.036,-87.393 195.036,-195.036Z" style="stroke:#000;stroke-width:15.52px;"/><g id="Powered-By" serif:id="Powered By"><path id="path12547" d="M59.75,886.702l2.069,0c2.962,0 5.189,-0.588 6.681,-1.763c1.515,-1.176 2.272,-3.087 2.272,-5.732c-0,-2.464 -0.678,-4.284 -2.035,-5.46c-1.334,-1.176 -3.436,-1.763 -6.308,-1.763l-2.679,-0l0,14.718Zm21.671,-7.868c-0,2.171 -0.328,4.251 -0.984,6.24c-0.655,1.99 -1.741,3.742 -3.255,5.257c-1.493,1.515 -3.471,2.724 -5.935,3.628c-2.442,0.905 -5.472,1.357 -9.089,1.357l-2.408,-0l0,17.635l-10.513,-0l0,-49.581l13.769,-0c3.188,-0 5.935,0.362 8.241,1.085c2.328,0.701 4.239,1.718 5.731,3.052c1.515,1.312 2.634,2.928 3.358,4.85c0.723,1.899 1.085,4.058 1.085,6.477l-0,0Z" style="fill-rule:nonzero;"/><path id="path12549" d="M98.581,893.926c-0,3.775 0.531,6.624 1.594,8.546c1.062,1.899 2.792,2.848 5.189,2.848c2.373,0 4.092,-0.96 5.154,-2.882c1.063,-1.922 1.594,-4.759 1.594,-8.512c0,-3.776 -0.531,-6.591 -1.594,-8.445c-1.062,-1.876 -2.803,-2.815 -5.222,-2.815c-2.374,0 -4.092,0.939 -5.155,2.815c-1.04,1.854 -1.56,4.669 -1.56,8.445Zm24.078,-0c0,3.165 -0.407,5.968 -1.221,8.41c-0.791,2.442 -1.944,4.499 -3.459,6.172c-1.492,1.673 -3.323,2.951 -5.494,3.832c-2.148,0.86 -4.567,1.289 -7.257,1.289c-2.51,0 -4.816,-0.429 -6.918,-1.289c-2.103,-0.881 -3.923,-2.159 -5.46,-3.832c-1.515,-1.673 -2.702,-3.73 -3.561,-6.172c-0.859,-2.442 -1.289,-5.245 -1.289,-8.41c-0,-3.143 0.396,-5.935 1.187,-8.377c0.814,-2.442 1.967,-4.488 3.459,-6.138c1.515,-1.673 3.346,-2.939 5.494,-3.799c2.148,-0.859 4.578,-1.288 7.291,-1.288c2.51,-0 4.816,0.429 6.919,1.288c2.102,0.86 3.911,2.126 5.426,3.799c1.537,1.65 2.735,3.696 3.595,6.138c0.859,2.442 1.288,5.234 1.288,8.377Z" style="fill-rule:nonzero;"/><path id="path12551" d="M160.54,912.951l-2.916,-13.26c-0.091,-0.384 -0.215,-0.927 -0.373,-1.628c-0.136,-0.724 -0.294,-1.526 -0.475,-2.408c-0.181,-0.904 -0.373,-1.854 -0.576,-2.849c-0.181,-1.017 -0.373,-2.023 -0.577,-3.018c-0.452,-2.329 -0.95,-4.838 -1.492,-7.529l-0.204,0c-0.52,2.691 -0.994,5.212 -1.424,7.563c-0.181,0.995 -0.373,2.001 -0.576,3.018c-0.181,1.018 -0.362,1.979 -0.543,2.883c-0.181,0.882 -0.35,1.684 -0.509,2.408c-0.135,0.723 -0.248,1.289 -0.339,1.695l-3.052,13.125l-11.124,-0l-10.208,-37.915l10.276,-0l3.832,16.787c0.204,0.882 0.407,1.944 0.611,3.188c0.226,1.221 0.429,2.464 0.61,3.73c0.204,1.244 0.384,2.431 0.543,3.561c0.158,1.108 0.282,1.99 0.373,2.645l0.203,0c0.023,-0.43 0.068,-0.983 0.136,-1.661c0.09,-0.701 0.192,-1.447 0.305,-2.239c0.113,-0.791 0.226,-1.594 0.339,-2.408c0.136,-0.836 0.26,-1.616 0.373,-2.34c0.136,-0.723 0.249,-1.356 0.339,-1.899c0.113,-0.565 0.204,-0.961 0.272,-1.187l4.137,-18.177l11.395,-0l3.968,18.177c0.113,0.498 0.26,1.267 0.441,2.306c0.181,1.04 0.361,2.16 0.542,3.358c0.204,1.176 0.373,2.329 0.509,3.459c0.136,1.108 0.215,1.978 0.237,2.611l0.204,0c0.068,-0.565 0.181,-1.402 0.339,-2.509c0.181,-1.108 0.373,-2.295 0.576,-3.561c0.204,-1.289 0.419,-2.566 0.645,-3.832c0.249,-1.266 0.475,-2.34 0.678,-3.222l3.968,-16.787l10.14,-0l-10.343,37.915l-11.26,-0Z" style="fill-rule:nonzero;"/><path id="path12553" d="M202.898,881.683c-1.831,-0 -3.357,0.644 -4.578,1.933c-1.198,1.289 -1.888,3.312 -2.069,6.07l13.192,0c-0.022,-1.153 -0.169,-2.215 -0.441,-3.187c-0.271,-0.973 -0.678,-1.809 -1.22,-2.51c-0.543,-0.724 -1.221,-1.289 -2.035,-1.696c-0.814,-0.407 -1.764,-0.61 -2.849,-0.61l0,-0Zm1.323,31.946c-2.713,0 -5.212,-0.395 -7.495,-1.187c-2.284,-0.791 -4.251,-1.978 -5.901,-3.561c-1.65,-1.605 -2.939,-3.617 -3.866,-6.036c-0.905,-2.442 -1.357,-5.302 -1.357,-8.58c0,-3.324 0.419,-6.229 1.255,-8.716c0.837,-2.487 2.001,-4.556 3.493,-6.206c1.515,-1.673 3.324,-2.928 5.426,-3.765c2.126,-0.836 4.477,-1.254 7.054,-1.254c2.51,-0 4.771,0.384 6.783,1.152c2.035,0.747 3.753,1.855 5.155,3.324c1.424,1.47 2.509,3.278 3.255,5.426c0.769,2.125 1.153,4.567 1.153,7.325l0,5.019l-23.128,0c0.044,1.447 0.271,2.759 0.678,3.934c0.429,1.153 1.017,2.137 1.763,2.951c0.769,0.791 1.685,1.402 2.747,1.831c1.086,0.43 2.318,0.645 3.697,0.645c1.153,0 2.238,-0.057 3.256,-0.17c1.04,-0.136 2.046,-0.328 3.018,-0.576c0.972,-0.249 1.933,-0.554 2.882,-0.916c0.95,-0.384 1.922,-0.825 2.917,-1.322l-0,8.003c-0.904,0.475 -1.82,0.882 -2.747,1.221c-0.904,0.317 -1.865,0.588 -2.883,0.814c-1.017,0.226 -2.114,0.384 -3.289,0.475c-1.176,0.113 -2.465,0.17 -3.866,0.17l-0,-0.001Z" style="fill-rule:nonzero;"/><path id="path12555" d="M247.698,874.324c0.271,-0 0.565,0.011 0.881,0.035c0.339,0 0.656,0.024 0.95,0.071c0.316,0.024 0.599,0.059 0.848,0.106c0.271,0.024 0.474,0.059 0.61,0.107l-0,9.699c-0.181,-0.047 -0.43,-0.093 -0.746,-0.136c-0.317,-0.047 -0.656,-0.083 -1.018,-0.106c-0.339,-0.048 -0.678,-0.071 -1.017,-0.071c-0.339,-0.024 -0.622,-0.036 -0.848,-0.036c-1.334,0 -2.566,0.17 -3.696,0.509c-1.108,0.34 -2.069,0.894 -2.883,1.662c-0.791,0.747 -1.413,1.741 -1.865,2.984c-0.43,1.221 -0.645,2.725 -0.645,4.511l0,19.297l-10.343,-0l-0,-37.915l7.834,-0l1.526,5.697l0.509,0c0.542,-0.972 1.13,-1.854 1.763,-2.645c0.633,-0.791 1.334,-1.458 2.103,-2.001c0.791,-0.565 1.673,-0.995 2.645,-1.289c0.995,-0.316 2.125,-0.475 3.391,-0.475l0.001,-0.004Z" style="fill-rule:nonzero;"/><path id="path12557" d="M273.404,881.683c-1.832,-0 -3.358,0.644 -4.579,1.933c-1.198,1.289 -1.887,3.312 -2.068,6.07l13.192,0c-0.023,-1.153 -0.17,-2.215 -0.441,-3.187c-0.271,-0.973 -0.678,-1.809 -1.221,-2.51c-0.542,-0.724 -1.221,-1.289 -2.035,-1.696c-0.813,-0.407 -1.763,-0.61 -2.848,-0.61l-0,-0Zm1.322,31.946c-2.713,0 -5.211,-0.395 -7.494,-1.187c-2.284,-0.791 -4.251,-1.978 -5.901,-3.561c-1.651,-1.605 -2.94,-3.617 -3.866,-6.036c-0.905,-2.442 -1.357,-5.302 -1.357,-8.58c-0,-3.324 0.418,-6.229 1.255,-8.716c0.836,-2.487 2.001,-4.556 3.493,-6.206c1.515,-1.673 3.323,-2.928 5.426,-3.765c2.125,-0.836 4.477,-1.254 7.054,-1.254c2.51,-0 4.77,0.384 6.783,1.152c2.034,0.747 3.753,1.855 5.154,3.324c1.425,1.47 2.51,3.278 3.256,5.426c0.769,2.125 1.153,4.567 1.153,7.325l0,5.019l-23.129,0c0.045,1.447 0.271,2.759 0.679,3.934c0.429,1.153 1.017,2.137 1.763,2.951c0.769,0.791 1.684,1.402 2.747,1.831c1.085,0.43 2.317,0.645 3.697,0.645c1.153,0 2.238,-0.057 3.255,-0.17c1.04,-0.136 2.046,-0.328 3.018,-0.576c0.973,-0.249 1.934,-0.554 2.883,-0.916c0.95,-0.384 1.922,-0.825 2.917,-1.322l-0,8.003c-0.905,0.475 -1.82,0.882 -2.747,1.221c-0.905,0.317 -1.866,0.588 -2.883,0.814c-1.017,0.226 -2.114,0.384 -3.29,0.475c-1.175,0.113 -2.464,0.17 -3.866,0.17l0,-0.001Z" style="fill-rule:nonzero;"/><path id="path12559" d="M309.589,913.629c-1.944,0 -3.719,-0.418 -5.324,-1.255c-1.605,-0.836 -2.985,-2.068 -4.138,-3.696c-1.153,-1.651 -2.057,-3.697 -2.713,-6.138c-0.633,-2.442 -0.949,-5.268 -0.949,-8.479c-0,-3.255 0.316,-6.104 0.949,-8.546c0.656,-2.464 1.572,-4.522 2.747,-6.172c1.199,-1.673 2.623,-2.928 4.273,-3.765c1.651,-0.836 3.471,-1.254 5.46,-1.254c1.221,-0 2.34,0.146 3.358,0.44c1.017,0.272 1.933,0.668 2.747,1.187c0.814,0.498 1.537,1.086 2.17,1.764c0.656,0.656 1.232,1.379 1.73,2.17l0.339,0c-0.136,-0.882 -0.26,-1.775 -0.373,-2.679c-0.113,-0.769 -0.215,-1.582 -0.305,-2.442c-0.068,-0.882 -0.102,-1.695 -0.102,-2.442l0,-12.141l10.344,0l-0,52.77l-7.902,-0l-2.001,-4.918l-0.441,0c-0.475,0.769 -1.017,1.503 -1.628,2.205c-0.61,0.677 -1.323,1.265 -2.136,1.763c-0.792,0.498 -1.696,0.893 -2.713,1.187c-0.995,0.294 -2.126,0.44 -3.392,0.44l0,0.001Zm3.765,-8.241c1.22,0 2.26,-0.203 3.12,-0.61c0.859,-0.43 1.548,-1.063 2.068,-1.899c0.543,-0.86 0.939,-1.922 1.187,-3.188c0.272,-1.266 0.419,-2.747 0.441,-4.443l0,-1.12c0,-1.831 -0.113,-3.459 -0.339,-4.883c-0.226,-1.425 -0.599,-2.612 -1.119,-3.561c-0.52,-0.972 -1.221,-1.707 -2.103,-2.204c-0.881,-0.498 -1.989,-0.747 -3.323,-0.747c-2.171,0 -3.764,0.984 -4.782,2.951c-1.017,1.944 -1.526,4.781 -1.526,8.512c0,3.73 0.509,6.534 1.526,8.41c1.04,1.854 2.657,2.781 4.85,2.781l-0,0.001Z" style="fill-rule:nonzero;"/><path id="path12561" d="M378.908,874.324c1.944,-0 3.719,0.418 5.324,1.254c1.606,0.837 2.985,2.08 4.138,3.731c1.153,1.65 2.046,3.697 2.679,6.138c0.656,2.442 0.983,5.268 0.983,8.479c0,3.255 -0.327,6.115 -0.983,8.58c-0.633,2.441 -1.538,4.487 -2.713,6.138c-1.176,1.65 -2.589,2.894 -4.239,3.73c-1.651,0.837 -3.471,1.255 -5.46,1.255c-1.266,0 -2.397,-0.136 -3.392,-0.407c-0.972,-0.272 -1.842,-0.634 -2.611,-1.086c-0.769,-0.452 -1.447,-0.96 -2.035,-1.526c-0.565,-0.588 -1.085,-1.198 -1.56,-1.831l-0.712,-0l-1.73,4.171l-7.901,0l-0,-52.769l10.343,0l0,12.277c0,0.746 -0.022,1.56 -0.067,2.442c-0.045,0.859 -0.09,1.661 -0.136,2.407c-0.068,0.882 -0.135,1.764 -0.203,2.646l0.407,-0c0.474,-0.792 1.017,-1.526 1.627,-2.205c0.611,-0.678 1.312,-1.266 2.103,-1.763c0.814,-0.52 1.73,-0.927 2.747,-1.221c1.017,-0.294 2.148,-0.441 3.391,-0.441l-0,0.001Zm-3.493,8.275c-1.153,-0 -2.137,0.215 -2.951,0.644c-0.791,0.408 -1.435,1.029 -1.933,1.866c-0.497,0.836 -0.859,1.899 -1.085,3.188c-0.226,1.266 -0.362,2.746 -0.407,4.442l0,1.12c0,1.831 0.102,3.459 0.305,4.883c0.226,1.425 0.588,2.623 1.086,3.595c0.497,0.95 1.153,1.673 1.967,2.171c0.836,0.497 1.865,0.746 3.086,0.746c2.057,-0 3.561,-0.972 4.51,-2.917c0.972,-1.967 1.458,-4.815 1.458,-8.546c0,-3.73 -0.486,-6.522 -1.458,-8.376c-0.949,-1.877 -2.476,-2.815 -4.578,-2.815l-0,-0.001Z" style="fill-rule:nonzero;"/><path id="path12563" d="M395.492,875.036l11.327,-0l6.104,21.331c0.361,1.176 0.621,2.431 0.779,3.765c0.182,1.334 0.295,2.532 0.339,3.594l0.204,0c0.047,-0.519 0.104,-1.096 0.17,-1.729c0.09,-0.633 0.192,-1.278 0.304,-1.933c0.114,-0.656 0.238,-1.3 0.374,-1.933c0.158,-0.656 0.316,-1.244 0.474,-1.764l5.969,-21.331l11.395,-0l-14.99,42.764c-1.401,4.002 -3.312,6.975 -5.731,8.92c-2.419,1.944 -5.449,2.916 -9.089,2.916c-1.175,0 -2.193,-0.068 -3.052,-0.203c-0.859,-0.113 -1.594,-0.238 -2.204,-0.373l-0,-8.207c0.475,0.113 1.074,0.215 1.797,0.305c0.724,0.09 1.481,0.135 2.272,0.135c1.086,0 2.013,-0.146 2.781,-0.44c0.769,-0.294 1.425,-0.712 1.967,-1.255c0.565,-0.52 1.04,-1.153 1.425,-1.899c0.407,-0.747 0.757,-1.583 1.051,-2.51l0.645,-1.899l-14.311,-38.254Z" style="fill-rule:nonzero;"/></g></g><g id="Kubuntu1" serif:id="Kubuntu"><g id="Logo"><path id="path2819-8-3-8" d="M785.355,476.149c-0,182.024 -147.569,329.607 -329.603,329.607c-182.027,0 -329.591,-147.583 -329.591,-329.607c0,-182.026 147.564,-329.586 329.591,-329.586c182.034,-0 329.603,147.56 329.603,329.586Z" style="fill:#0079c1;fill-rule:nonzero;"/><g id="g4835-5-6-3"><path id="path79-9-8-1" d="M347.786,593.888l11.201,-243.013l-74.486,-67.851c-1.77,-1.156 -4.101,-0.916 -5.588,0.581l-34.412,34.407c-1.447,1.451 -1.719,3.705 -0.653,5.462l40.288,66.351c-7.146,12.014 -12.869,24.968 -16.962,38.632l-73.966,15.385c-2.058,0.426 -3.54,2.249 -3.54,4.361l-0,48.657c-0,2.058 1.405,3.84 3.388,4.32l71.789,17.547c3.828,15.825 9.762,30.83 17.603,44.618l-41.552,63.367c-1.159,1.77 -0.916,4.103 0.581,5.595l34.402,34.406c1.447,1.444 3.705,1.723 5.469,0.662l66.438,-73.487Z" style="fill:#fff;fill-rule:nonzero;"/></g><g id="g4835-5-6-3-7"><path id="path79-9-8-1-7" d="M404.395,324.812l208.151,127.642l97.763,-21.4c1.907,-0.911 2.914,-3.027 2.407,-5.076l-11.516,-47.28c-0.488,-1.99 -2.272,-3.394 -4.327,-3.396l-77.625,-0.056c-6.551,-12.347 -14.645,-23.968 -24.192,-34.565l25.289,-71.191c0.704,-1.98 -0.082,-4.194 -1.887,-5.292l-41.572,-25.283c-1.758,-1.069 -4.011,-0.795 -5.451,0.65l-52.296,52.219c-15.51,-4.952 -31.413,-7.678 -47.267,-8.144l-32.549,-68.428c-0.911,-1.911 -3.03,-2.916 -5.083,-2.411l-47.272,11.514c-1.985,0.486 -3.397,2.271 -3.408,4.33l20.835,96.167Z" style="fill:#fff;fill-rule:nonzero;"/></g><g id="g4835-5-6-3-1"><path id="path79-9-8-1-5" d="M608.462,509.859l-210.05,115.16l-25.414,96.183c-0.118,2.112 1.253,4.011 3.293,4.552l46.991,12.641c1.98,0.529 4.069,-0.36 5.059,-2.161l37.379,-68.032c13.977,0.194 28.058,-1.314 41.941,-4.588l50.255,56.409c1.397,1.57 3.717,1.945 5.547,0.891l42.16,-24.291c1.783,-1.027 2.626,-3.134 2.051,-5.092l-20.634,-70.964c11.801,-11.217 21.839,-23.85 29.872,-37.527l75.649,4.37c2.112,0.121 4.013,-1.254 4.558,-3.297l12.638,-46.984c0.529,-1.975 -0.357,-4.071 -2.157,-5.07l-99.138,-22.2Z" style="fill:#fff;fill-rule:nonzero;"/></g><path id="path2819-8-3-8-5" d="M614.854,476.154c-0,87.863 -71.231,159.102 -159.099,159.102c-87.864,-0 -159.093,-71.239 -159.093,-159.102c-0,-87.864 71.229,-159.091 159.093,-159.091c87.868,0 159.099,71.227 159.099,159.091Z" style="fill:#0079c1;fill-rule:nonzero;"/></g><g id="Kubuntu2" serif:id="Kubuntu"><path id="path81309" d="M186.193,1076.15c-6.805,10.139 -14.305,20.209 -22.5,30.209c-8.055,10 -16.805,20 -26.25,30c4.445,3.75 9.167,8.125 14.167,13.125c5,5 9.861,10.486 14.583,16.458c4.861,5.833 9.375,12.083 13.542,18.75c4.305,6.667 7.917,13.472 10.833,20.417l-19.375,-0c-3.472,-6.389 -7.222,-12.639 -11.25,-18.75c-4.028,-6.112 -8.333,-11.806 -12.917,-17.084c-4.444,-5.278 -9.097,-10.069 -13.958,-14.375c-4.722,-4.444 -9.514,-8.264 -14.375,-11.458l0,61.667l-17.083,-0l-0,-128.959l17.083,0l0,57.5c9.028,-9.305 17.639,-19.028 25.833,-29.166c8.334,-10.139 15.625,-19.584 21.876,-28.334l19.791,0Z" style="fill:#fff;fill-rule:nonzero;stroke:#fff;stroke-width:4.91px;stroke-linejoin:miter;"/><path id="path81311" d="M281.818,1202.4c-3.75,0.972 -8.75,2.014 -15,3.125c-6.111,1.111 -13.333,1.667 -21.666,1.667c-7.362,-0 -13.473,-1.042 -18.334,-3.125c-4.861,-2.222 -8.819,-5.278 -11.875,-9.167c-3.055,-4.028 -5.208,-8.75 -6.458,-14.166c-1.25,-5.417 -1.875,-11.389 -1.875,-17.917l-0,-54.375l17.083,-0l0,50.625c0,11.944 1.736,20.417 5.209,25.417c3.611,5 9.583,7.5 17.916,7.5c1.806,-0 3.611,-0.07 5.417,-0.209c1.944,-0.139 3.75,-0.278 5.417,-0.416c1.666,-0.278 3.125,-0.487 4.375,-0.625c1.25,-0.278 2.083,-0.487 2.5,-0.625l-0,-81.667l17.291,-0l0,93.958Z" style="fill:#fff;fill-rule:nonzero;stroke:#fff;stroke-width:4.91px;stroke-linejoin:miter;"/><path id="path81313" d="M328.693,1111.98c2.084,-1.25 5.07,-2.5 8.959,-3.75c4.027,-1.389 8.472,-2.084 13.333,-2.084c6.528,0 12.361,1.25 17.5,3.75c5.139,2.5 9.444,5.972 12.917,10.417c3.611,4.444 6.319,9.792 8.125,16.042c1.944,6.111 2.916,12.916 2.916,20.416c0,7.778 -1.111,14.792 -3.333,21.042c-2.222,6.25 -5.347,11.597 -9.375,16.042c-4.028,4.305 -8.889,7.638 -14.583,10c-5.695,2.361 -12.014,3.541 -18.959,3.541c-7.639,0 -14.444,-0.555 -20.416,-1.666c-5.973,-1.112 -10.764,-2.223 -14.375,-3.334l-0,-138.75l17.291,-2.916l0,51.25Zm0,78.125c2.639,0.694 5.278,1.25 7.917,1.666c2.639,0.278 5.139,0.417 7.5,0.417c9.583,-0 17.083,-2.917 22.5,-8.75c5.417,-5.972 8.125,-14.861 8.125,-26.667c-0,-5 -0.486,-9.653 -1.458,-13.958c-0.973,-4.445 -2.5,-8.195 -4.584,-11.25c-2.083,-3.195 -4.791,-5.695 -8.125,-7.5c-3.194,-1.806 -7.083,-2.708 -11.666,-2.708c-4.028,-0 -7.917,0.833 -11.667,2.5c-3.75,1.527 -6.597,3.194 -8.542,5l0,61.25Z" style="fill:#fff;fill-rule:nonzero;stroke:#fff;stroke-width:4.91px;stroke-linejoin:miter;"/><path id="path81315" d="M490.152,1202.4c-3.75,0.972 -8.75,2.014 -15,3.125c-6.111,1.111 -13.334,1.667 -21.667,1.667c-7.361,-0 -13.472,-1.042 -18.333,-3.125c-4.861,-2.222 -8.82,-5.278 -11.875,-9.167c-3.056,-4.028 -5.209,-8.75 -6.459,-14.166c-1.25,-5.417 -1.875,-11.389 -1.875,-17.917l0,-54.375l17.084,-0l-0,50.625c-0,11.944 1.736,20.417 5.208,25.417c3.611,5 9.583,7.5 17.917,7.5c1.805,-0 3.611,-0.07 5.416,-0.209c1.945,-0.139 3.75,-0.278 5.417,-0.416c1.667,-0.278 3.125,-0.487 4.375,-0.625c1.25,-0.278 2.083,-0.487 2.5,-0.625l0,-81.667l17.292,-0l-0,93.958Z" style="fill:#fff;fill-rule:nonzero;stroke:#fff;stroke-width:4.91px;stroke-linejoin:miter;"/><path id="path81317" d="M519.735,1111.15c6.25,-1.528 12.431,-2.708 18.542,-3.541c6.25,-0.834 12.083,-1.25 17.5,-1.25c12.916,-0 22.639,3.333 29.166,10c6.667,6.666 10,17.361 10,32.083l0,56.667l-17.083,-0l0,-53.542c0,-6.25 -0.555,-11.32 -1.667,-15.208c-1.111,-3.889 -2.708,-6.875 -4.791,-8.959c-1.945,-2.222 -4.375,-3.75 -7.292,-4.583c-2.778,-0.833 -5.833,-1.25 -9.167,-1.25c-2.777,-0 -5.764,0.208 -8.958,0.625c-3.056,0.278 -6.042,0.694 -8.958,1.25l-0,81.667l-17.292,-0l0,-93.959Z" style="fill:#fff;fill-rule:nonzero;stroke:#fff;stroke-width:4.91px;stroke-linejoin:miter;"/><path id="path81319" d="M659.735,1108.44l40.833,-0l0,14.375l-40.833,-0l0,45c0,4.861 0.347,8.819 1.042,11.875c0.694,3.055 1.805,5.555 3.333,7.5c1.667,1.805 3.75,3.055 6.25,3.75c2.5,0.694 5.556,1.042 9.167,1.042c5,-0 9.028,-0.417 12.083,-1.25c3.056,-0.834 5.972,-1.945 8.75,-3.334l2.5,14.584c-1.944,0.833 -5.069,1.944 -9.375,3.333c-4.167,1.389 -9.375,2.083 -15.625,2.083c-7.222,0 -13.125,-0.833 -17.708,-2.5c-4.584,-1.666 -8.195,-4.166 -10.834,-7.5c-2.5,-3.333 -4.236,-7.43 -5.208,-12.291c-0.972,-5 -1.458,-10.764 -1.458,-17.292l-0,-45l-20.417,-0l0,-14.375l20.417,-0l-0,-27.083l17.083,-2.917l0,30Z" style="fill:#fff;fill-rule:nonzero;stroke:#fff;stroke-width:4.91px;stroke-linejoin:miter;"/><path id="path81321" d="M802.652,1202.4c-3.75,0.972 -8.75,2.014 -15,3.125c-6.111,1.111 -13.334,1.667 -21.667,1.667c-7.361,-0 -13.472,-1.042 -18.333,-3.125c-4.861,-2.222 -8.82,-5.278 -11.875,-9.167c-3.056,-4.028 -5.209,-8.75 -6.459,-14.166c-1.25,-5.417 -1.875,-11.389 -1.875,-17.917l0,-54.375l17.084,-0l-0,50.625c-0,11.944 1.736,20.417 5.208,25.417c3.611,5 9.583,7.5 17.917,7.5c1.805,-0 3.611,-0.07 5.416,-0.209c1.945,-0.139 3.75,-0.278 5.417,-0.416c1.667,-0.278 3.125,-0.487 4.375,-0.625c1.25,-0.278 2.083,-0.487 2.5,-0.625l0,-81.667l17.292,-0l-0,93.958Z" style="fill:#fff;fill-rule:nonzero;stroke:#fff;stroke-width:4.91px;stroke-linejoin:miter;"/></g></g></g></svg>