<?xml version="1.0" encoding="UTF-8" standalone="no"?><!DOCTYPE svg PUBLIC "-//W3C//DTD SVG 1.1//EN" "http://www.w3.org/Graphics/SVG/1.1/DTD/svg11.dtd"><svg width="100%" height="100%" viewBox="0 0 907 1352" version="1.1" xmlns="http://www.w3.org/2000/svg" xmlns:xlink="http://www.w3.org/1999/xlink" xml:space="preserve" xmlns:serif="http://www.serif.com/" style="fill-rule:evenodd;clip-rule:evenodd;"><rect id="Mabox-Linux" serif:id="Mabox Linux" x="-0" y="-0" width="906.667" height="1351.11" style="fill:none;"/><clipPath id="_clip1"><rect x="-0" y="-0" width="906.667" height="1351.11"/></clipPath><g clip-path="url(#_clip1)"><g id="READ-ME" serif:id="READ ME"><g id="Frame"><path id="path3892" d="M363.221,8.889l180.221,-0c196.3,-0 354.333,36.929 354.333,82.8l-0,1167.73c-0,45.871 -158.033,82.8 -354.333,82.8l-180.221,0c-196.3,0 -354.332,-36.929 -354.332,-82.8l-0,-1167.73c-0,-45.871 158.032,-82.8 354.332,-82.8Z" style="fill:#fff;fill-rule:nonzero;"/><path id="path3894" d="M363.229,-0.003c-98.707,0 -187.781,9.235 -252.807,24.43c-32.512,7.597 -58.999,16.617 -78.086,27.197c-9.544,5.291 -17.286,10.978 -22.976,17.509c-5.691,6.531 -9.366,14.275 -9.366,22.561l-0,1167.72c-0,8.286 3.675,16.053 9.366,22.584c5.69,6.531 13.432,12.195 22.976,17.486c19.087,10.58 45.574,19.6 78.086,27.197c65.026,15.195 154.1,24.43 252.807,24.43l180.21,-0c98.708,-0 187.782,-9.235 252.807,-24.43c32.513,-7.597 58.999,-16.617 78.086,-27.197c9.544,-5.291 17.287,-10.955 22.977,-17.486c5.69,-6.531 9.365,-14.298 9.365,-22.584l0,-1167.72c0,-8.286 -3.675,-16.03 -9.365,-22.561c-5.69,-6.531 -13.433,-12.218 -22.977,-17.509c-19.087,-10.58 -45.573,-19.6 -78.086,-27.197c-65.025,-15.195 -154.099,-24.43 -252.807,-24.43l-180.21,0Zm-0,17.786l180.21,0c97.593,0 185.704,9.231 248.77,23.968c31.533,7.369 56.818,16.177 73.496,25.422c8.339,4.622 14.482,9.364 18.201,13.633c3.719,4.269 4.983,7.706 4.983,10.888l-0,1167.72c-0,3.182 -1.264,6.62 -4.983,10.888c-3.719,4.269 -9.862,9.011 -18.201,13.634c-16.678,9.245 -41.963,18.052 -73.496,25.421c-63.066,14.737 -151.177,23.968 -248.77,23.968l-180.21,0c-97.593,0 -185.704,-9.231 -248.77,-23.968c-31.533,-7.369 -56.818,-16.176 -73.496,-25.421c-8.339,-4.623 -14.482,-9.365 -18.201,-13.634c-3.719,-4.268 -4.982,-7.706 -4.982,-10.888l-0,-1167.72c-0,-3.182 1.263,-6.619 4.982,-10.888c3.719,-4.269 9.862,-9.011 18.201,-13.633c16.678,-9.245 41.963,-18.053 73.496,-25.422c63.066,-14.737 151.177,-23.968 248.77,-23.968Z" style="fill-rule:nonzero;"/></g><g id="Bottom"><path id="path4063" d="M371.601,946.174l163.465,0c199.609,0 360.305,38.151 360.305,85.54l-0,218.992c-0,47.389 -160.696,85.54 -360.305,85.54l-163.465,-0c-199.609,-0 -360.305,-38.151 -360.305,-85.54l-0,-218.992c-0,-47.389 160.696,-85.54 360.305,-85.54Z" style="fill-rule:nonzero;"/><path id="path3900" d="M371.603,938.42c-100.299,0 -190.806,9.547 -256.798,25.214c-32.996,7.833 -59.838,17.123 -79.078,27.959c-19.241,10.835 -32.181,23.882 -32.181,40.116l0,218.988c0,16.233 12.94,29.303 32.181,40.139c19.24,10.836 46.082,20.125 79.078,27.959c65.992,15.667 156.499,25.214 256.798,25.214l163.462,-0c100.299,-0 190.806,-9.547 256.798,-25.214c32.996,-7.834 59.838,-17.123 79.078,-27.959c19.241,-10.836 32.181,-23.906 32.181,-40.139l-0,-218.988c-0,-16.234 -12.94,-29.281 -32.181,-40.116c-19.24,-10.836 -46.082,-20.126 -79.078,-27.959c-65.992,-15.667 -156.499,-25.214 -256.798,-25.214l-163.462,0Zm-0,15.525l163.462,0c99.31,0 188.964,9.52 253.222,24.776c32.129,7.627 57.914,16.744 75.042,26.39c17.127,9.645 24.291,19.136 24.291,26.598l-0,218.988c-0,7.461 -7.164,16.952 -24.291,26.598c-17.128,9.646 -42.913,18.762 -75.042,26.39c-64.258,15.256 -153.912,24.799 -253.222,24.799l-163.462,-0c-99.31,-0 -188.964,-9.543 -253.222,-24.799c-32.129,-7.628 -57.914,-16.744 -75.042,-26.39c-17.127,-9.646 -24.291,-19.137 -24.291,-26.598l0,-218.988c0,-7.462 7.164,-16.953 24.291,-26.598c17.128,-9.646 42.913,-18.763 75.042,-26.39c64.258,-15.256 153.912,-24.776 253.222,-24.776Z" style="fill-rule:nonzero;"/></g><g id="Powered-By" serif:id="Powered By"><path id="path12547" d="M59.75,886.702l2.069,0c2.962,0 5.189,-0.588 6.681,-1.763c1.515,-1.176 2.272,-3.087 2.272,-5.732c-0,-2.464 -0.678,-4.284 -2.035,-5.46c-1.334,-1.176 -3.436,-1.763 -6.308,-1.763l-2.679,-0l0,14.718Zm21.671,-7.868c-0,2.171 -0.328,4.251 -0.984,6.24c-0.655,1.99 -1.741,3.742 -3.255,5.257c-1.493,1.515 -3.471,2.724 -5.935,3.628c-2.442,0.905 -5.472,1.357 -9.089,1.357l-2.408,-0l0,17.635l-10.513,-0l0,-49.581l13.769,-0c3.188,-0 5.935,0.362 8.241,1.085c2.328,0.701 4.239,1.718 5.731,3.052c1.515,1.312 2.634,2.928 3.358,4.85c0.723,1.899 1.085,4.058 1.085,6.477l-0,0Z" style="fill-rule:nonzero;"/><path id="path12549" d="M98.581,893.926c-0,3.775 0.531,6.624 1.594,8.546c1.062,1.899 2.792,2.848 5.189,2.848c2.373,0 4.092,-0.96 5.154,-2.882c1.063,-1.922 1.594,-4.759 1.594,-8.512c0,-3.776 -0.531,-6.591 -1.594,-8.445c-1.062,-1.876 -2.803,-2.815 -5.222,-2.815c-2.374,0 -4.093,0.939 -5.155,2.815c-1.04,1.854 -1.56,4.669 -1.56,8.445Zm24.078,-0c0,3.165 -0.407,5.968 -1.221,8.41c-0.791,2.442 -1.944,4.499 -3.459,6.172c-1.492,1.673 -3.323,2.951 -5.494,3.832c-2.148,0.86 -4.567,1.289 -7.257,1.289c-2.51,0 -4.816,-0.429 -6.918,-1.289c-2.103,-0.881 -3.923,-2.159 -5.46,-3.832c-1.515,-1.673 -2.702,-3.73 -3.561,-6.172c-0.859,-2.442 -1.289,-5.245 -1.289,-8.41c-0,-3.143 0.396,-5.935 1.187,-8.377c0.814,-2.442 1.967,-4.488 3.459,-6.138c1.515,-1.673 3.346,-2.939 5.494,-3.799c2.148,-0.859 4.578,-1.288 7.291,-1.288c2.51,-0 4.816,0.429 6.919,1.288c2.102,0.86 3.911,2.126 5.426,3.799c1.537,1.65 2.735,3.696 3.595,6.138c0.859,2.442 1.288,5.234 1.288,8.377Z" style="fill-rule:nonzero;"/><path id="path12551" d="M160.54,912.951l-2.916,-13.26c-0.091,-0.384 -0.215,-0.927 -0.373,-1.628c-0.136,-0.724 -0.294,-1.526 -0.475,-2.408c-0.181,-0.904 -0.373,-1.854 -0.576,-2.849c-0.181,-1.017 -0.373,-2.023 -0.577,-3.018c-0.452,-2.329 -0.95,-4.838 -1.492,-7.529l-0.204,0c-0.52,2.691 -0.994,5.212 -1.424,7.563c-0.181,0.995 -0.373,2.001 -0.576,3.018c-0.181,1.018 -0.362,1.979 -0.543,2.883c-0.181,0.882 -0.35,1.684 -0.509,2.408c-0.135,0.723 -0.248,1.289 -0.339,1.695l-3.052,13.125l-11.124,-0l-10.208,-37.915l10.276,-0l3.832,16.787c0.204,0.882 0.407,1.944 0.611,3.188c0.226,1.221 0.429,2.464 0.61,3.73c0.204,1.244 0.384,2.431 0.543,3.561c0.158,1.108 0.282,1.99 0.373,2.645l0.203,0c0.023,-0.43 0.068,-0.983 0.136,-1.661c0.09,-0.701 0.192,-1.447 0.305,-2.239c0.113,-0.791 0.226,-1.594 0.339,-2.408c0.136,-0.836 0.26,-1.616 0.373,-2.34c0.136,-0.723 0.249,-1.356 0.339,-1.899c0.113,-0.565 0.204,-0.961 0.272,-1.187l4.137,-18.177l11.395,-0l3.968,18.177c0.113,0.498 0.26,1.267 0.441,2.306c0.181,1.04 0.361,2.16 0.542,3.358c0.204,1.176 0.373,2.329 0.509,3.459c0.136,1.108 0.215,1.978 0.237,2.611l0.204,0c0.068,-0.565 0.181,-1.402 0.339,-2.509c0.181,-1.108 0.373,-2.295 0.576,-3.561c0.204,-1.289 0.419,-2.566 0.645,-3.832c0.249,-1.266 0.475,-2.34 0.678,-3.222l3.968,-16.787l10.14,-0l-10.343,37.915l-11.26,-0Z" style="fill-rule:nonzero;"/><path id="path12553" d="M202.898,881.683c-1.831,-0 -3.357,0.644 -4.578,1.933c-1.198,1.289 -1.888,3.312 -2.069,6.07l13.192,0c-0.023,-1.153 -0.169,-2.215 -0.441,-3.187c-0.271,-0.973 -0.678,-1.809 -1.22,-2.51c-0.543,-0.724 -1.221,-1.289 -2.035,-1.696c-0.814,-0.407 -1.764,-0.61 -2.849,-0.61l0,-0Zm1.323,31.946c-2.713,0 -5.212,-0.395 -7.495,-1.187c-2.284,-0.791 -4.251,-1.978 -5.901,-3.561c-1.65,-1.605 -2.939,-3.617 -3.866,-6.036c-0.905,-2.442 -1.357,-5.302 -1.357,-8.58c0,-3.324 0.419,-6.229 1.255,-8.716c0.837,-2.487 2.001,-4.556 3.493,-6.206c1.515,-1.673 3.324,-2.928 5.426,-3.765c2.126,-0.836 4.477,-1.254 7.054,-1.254c2.51,-0 4.771,0.384 6.783,1.152c2.035,0.747 3.753,1.855 5.155,3.324c1.424,1.47 2.509,3.278 3.255,5.426c0.769,2.125 1.153,4.567 1.153,7.325l0,5.019l-23.128,0c0.044,1.447 0.271,2.759 0.678,3.934c0.429,1.153 1.017,2.137 1.763,2.951c0.769,0.791 1.685,1.402 2.747,1.831c1.086,0.43 2.318,0.645 3.697,0.645c1.153,-0 2.238,-0.057 3.256,-0.17c1.04,-0.136 2.046,-0.328 3.018,-0.576c0.972,-0.249 1.933,-0.554 2.882,-0.916c0.95,-0.384 1.922,-0.825 2.917,-1.322l-0,8.003c-0.904,0.475 -1.82,0.882 -2.747,1.221c-0.904,0.317 -1.865,0.588 -2.883,0.814c-1.017,0.226 -2.114,0.384 -3.289,0.475c-1.176,0.113 -2.465,0.17 -3.866,0.17l-0,-0.001Z" style="fill-rule:nonzero;"/><path id="path12555" d="M247.698,874.324c0.271,-0 0.565,0.011 0.881,0.035c0.339,0 0.656,0.024 0.95,0.071c0.316,0.024 0.599,0.059 0.848,0.106c0.271,0.024 0.474,0.059 0.61,0.107l-0,9.699c-0.181,-0.047 -0.43,-0.093 -0.746,-0.136c-0.317,-0.047 -0.656,-0.083 -1.018,-0.106c-0.339,-0.048 -0.678,-0.071 -1.017,-0.071c-0.339,-0.024 -0.622,-0.036 -0.848,-0.036c-1.334,0 -2.566,0.17 -3.696,0.509c-1.108,0.34 -2.069,0.894 -2.883,1.662c-0.791,0.747 -1.413,1.741 -1.865,2.984c-0.43,1.221 -0.645,2.725 -0.645,4.511l0,19.297l-10.343,-0l-0,-37.915l7.834,-0l1.526,5.697l0.509,0c0.542,-0.972 1.13,-1.854 1.763,-2.645c0.633,-0.791 1.334,-1.458 2.103,-2.001c0.791,-0.565 1.673,-0.995 2.645,-1.289c0.995,-0.316 2.125,-0.475 3.391,-0.475l0.001,-0.004Z" style="fill-rule:nonzero;"/><path id="path12557" d="M273.404,881.683c-1.832,-0 -3.358,0.644 -4.579,1.933c-1.198,1.289 -1.887,3.312 -2.068,6.07l13.192,0c-0.023,-1.153 -0.17,-2.215 -0.441,-3.187c-0.271,-0.973 -0.678,-1.809 -1.221,-2.51c-0.542,-0.724 -1.221,-1.289 -2.035,-1.696c-0.813,-0.407 -1.763,-0.61 -2.848,-0.61l-0,-0Zm1.322,31.946c-2.713,0 -5.211,-0.395 -7.494,-1.187c-2.284,-0.791 -4.251,-1.978 -5.901,-3.561c-1.651,-1.605 -2.94,-3.617 -3.866,-6.036c-0.905,-2.442 -1.357,-5.302 -1.357,-8.58c-0,-3.324 0.418,-6.229 1.255,-8.716c0.836,-2.487 2.001,-4.556 3.493,-6.206c1.515,-1.673 3.323,-2.928 5.426,-3.765c2.125,-0.836 4.477,-1.254 7.054,-1.254c2.51,-0 4.77,0.384 6.783,1.152c2.034,0.747 3.753,1.855 5.154,3.324c1.425,1.47 2.51,3.278 3.256,5.426c0.769,2.125 1.153,4.567 1.153,7.325l0,5.019l-23.129,0c0.045,1.447 0.271,2.759 0.679,3.934c0.429,1.153 1.017,2.137 1.763,2.951c0.769,0.791 1.684,1.402 2.747,1.831c1.085,0.43 2.317,0.645 3.697,0.645c1.153,-0 2.238,-0.057 3.255,-0.17c1.04,-0.136 2.046,-0.328 3.018,-0.576c0.973,-0.249 1.934,-0.554 2.883,-0.916c0.95,-0.384 1.922,-0.825 2.917,-1.322l-0,8.003c-0.905,0.475 -1.82,0.882 -2.747,1.221c-0.905,0.317 -1.866,0.588 -2.883,0.814c-1.017,0.226 -2.114,0.384 -3.29,0.475c-1.175,0.113 -2.464,0.17 -3.866,0.17l0,-0.001Z" style="fill-rule:nonzero;"/><path id="path12559" d="M309.589,913.629c-1.944,0 -3.719,-0.418 -5.324,-1.255c-1.605,-0.836 -2.985,-2.068 -4.138,-3.696c-1.153,-1.651 -2.057,-3.697 -2.713,-6.138c-0.633,-2.442 -0.949,-5.268 -0.949,-8.479c-0,-3.255 0.316,-6.104 0.949,-8.546c0.656,-2.464 1.572,-4.522 2.747,-6.172c1.199,-1.673 2.623,-2.928 4.273,-3.765c1.651,-0.836 3.471,-1.254 5.46,-1.254c1.221,-0 2.34,0.146 3.358,0.44c1.017,0.272 1.933,0.668 2.747,1.187c0.814,0.498 1.537,1.086 2.17,1.764c0.656,0.656 1.232,1.379 1.73,2.17l0.339,0c-0.136,-0.882 -0.26,-1.775 -0.373,-2.679c-0.113,-0.769 -0.215,-1.582 -0.305,-2.442c-0.068,-0.882 -0.102,-1.695 -0.102,-2.442l0,-12.141l10.344,0l-0,52.77l-7.902,-0l-2.001,-4.918l-0.441,0c-0.475,0.769 -1.017,1.503 -1.628,2.205c-0.61,0.677 -1.323,1.265 -2.136,1.763c-0.792,0.498 -1.696,0.893 -2.713,1.187c-0.995,0.294 -2.126,0.44 -3.392,0.44l0,0.001Zm3.765,-8.241c1.22,0 2.26,-0.203 3.12,-0.61c0.859,-0.43 1.548,-1.063 2.068,-1.899c0.543,-0.86 0.939,-1.922 1.187,-3.188c0.272,-1.266 0.419,-2.747 0.441,-4.443l0,-1.12c0,-1.831 -0.113,-3.459 -0.339,-4.883c-0.226,-1.425 -0.599,-2.612 -1.119,-3.561c-0.52,-0.972 -1.221,-1.707 -2.103,-2.204c-0.881,-0.498 -1.989,-0.747 -3.323,-0.747c-2.171,0 -3.764,0.984 -4.782,2.951c-1.017,1.944 -1.526,4.781 -1.526,8.512c0,3.73 0.509,6.534 1.526,8.41c1.04,1.854 2.657,2.781 4.85,2.781l-0,0.001Z" style="fill-rule:nonzero;"/><path id="path12561" d="M378.908,874.324c1.944,-0 3.719,0.418 5.324,1.254c1.606,0.837 2.985,2.08 4.138,3.731c1.153,1.65 2.046,3.697 2.679,6.138c0.656,2.442 0.983,5.268 0.983,8.479c0,3.255 -0.327,6.115 -0.983,8.58c-0.633,2.441 -1.538,4.487 -2.713,6.138c-1.176,1.65 -2.589,2.894 -4.239,3.73c-1.651,0.837 -3.471,1.255 -5.46,1.255c-1.266,0 -2.397,-0.136 -3.392,-0.407c-0.972,-0.272 -1.842,-0.634 -2.611,-1.086c-0.769,-0.452 -1.447,-0.96 -2.035,-1.526c-0.565,-0.588 -1.085,-1.198 -1.56,-1.831l-0.712,-0l-1.73,4.171l-7.901,0l-0,-52.769l10.343,0l0,12.277c0,0.746 -0.022,1.56 -0.067,2.442c-0.045,0.859 -0.09,1.661 -0.136,2.407c-0.068,0.882 -0.135,1.764 -0.203,2.646l0.407,-0c0.474,-0.792 1.017,-1.526 1.627,-2.205c0.611,-0.678 1.312,-1.266 2.103,-1.763c0.814,-0.52 1.73,-0.927 2.747,-1.221c1.017,-0.294 2.148,-0.441 3.391,-0.441l-0,0.001Zm-3.493,8.275c-1.153,-0 -2.137,0.215 -2.951,0.644c-0.791,0.408 -1.435,1.029 -1.933,1.866c-0.497,0.836 -0.859,1.899 -1.085,3.188c-0.226,1.266 -0.362,2.746 -0.407,4.442l0,1.12c0,1.831 0.102,3.459 0.305,4.883c0.226,1.425 0.588,2.623 1.086,3.595c0.497,0.95 1.153,1.673 1.967,2.171c0.836,0.497 1.865,0.746 3.086,0.746c2.057,-0 3.561,-0.972 4.51,-2.917c0.972,-1.967 1.458,-4.815 1.458,-8.546c0,-3.73 -0.486,-6.522 -1.458,-8.376c-0.949,-1.877 -2.476,-2.815 -4.578,-2.815l-0,-0.001Z" style="fill-rule:nonzero;"/><path id="path12563" d="M395.492,875.036l11.327,-0l6.104,21.331c0.361,1.176 0.621,2.431 0.779,3.765c0.182,1.334 0.295,2.532 0.339,3.594l0.204,0c0.047,-0.519 0.104,-1.096 0.17,-1.729c0.09,-0.633 0.192,-1.278 0.304,-1.933c0.114,-0.656 0.238,-1.3 0.374,-1.933c0.158,-0.656 0.316,-1.244 0.474,-1.764l5.969,-21.331l11.395,-0l-14.99,42.764c-1.401,4.002 -3.312,6.975 -5.731,8.92c-2.419,1.944 -5.449,2.916 -9.089,2.916c-1.175,0 -2.193,-0.068 -3.052,-0.203c-0.859,-0.113 -1.594,-0.238 -2.204,-0.373l-0,-8.207c0.475,0.113 1.074,0.215 1.797,0.305c0.724,0.09 1.481,0.135 2.272,0.135c1.086,0 2.013,-0.146 2.781,-0.44c0.769,-0.294 1.425,-0.712 1.967,-1.255c0.565,-0.52 1.04,-1.153 1.425,-1.899c0.407,-0.747 0.757,-1.583 1.051,-2.51l0.645,-1.899l-14.311,-38.254Z" style="fill-rule:nonzero;"/></g></g><g id="Mabox-Linux1" serif:id="Mabox Linux"><path id="Logo" d="M454.502,150c-119.899,38.686 -204.836,65.975 -316.17,102.238l34.121,369.941l281.902,191.465c0.003,0 0.128,-0.082 0.148,-0.091c0.019,0.011 0.144,0.092 0.147,0.091l281.902,-191.465l34.121,-369.941c-111.334,-36.263 -196.271,-63.552 -316.171,-102.238Zm-0.001,6.049c0,0 0.001,0 0.001,0c1.523,-0.432 297.821,98.063 297.45,98.433c-0.718,0.719 -296.364,133.655 -297.31,133.685l-0.139,-0.064l-0.142,0.064c-0.946,-0.029 -296.592,-132.966 -297.31,-133.685c-0.37,-0.37 295.928,-98.865 297.45,-98.433l0,0Zm-0.012,14.97l-254.152,85.695c0.258,0.258 170.578,76.494 174.835,78.257c2.581,-0.14 0.648,-69.533 1.314,-77.03l28.366,-0c0.128,30.129 0.256,60.259 0.384,90.389l49.264,21.448l49.264,-21.448c0.129,-30.13 0.257,-60.26 0.385,-90.389l28.366,-0c0.665,7.497 -1.269,76.889 1.312,77.03c4.257,-1.763 174.577,-77.999 174.835,-78.257l-254.15,-85.695l-0.012,0.003l-0.011,-0.003Zm-308.022,94.991l298.076,137.294l0.767,392.194l-266.433,-178.275l-32.41,-351.213Zm616.07,0l-32.41,351.213l-266.433,178.275l0.766,-392.194l298.077,-137.294Zm-594.386,37.289c-0.318,0.317 25.492,304.412 25.922,304.685l56.424,35.966l-13.631,-215.988l18.904,9.838l14.406,219.441l63.39,41.385c-0.93,-74.982 -7.186,-146.686 -8.045,-223.713l20.362,10.084l8.116,226.886l69.709,44.754l-4.581,-333.828c-0.999,-1.011 -250.614,-119.873 -250.977,-119.51l0.001,-0Zm572.702,-0c-0.363,-0.363 -249.977,118.499 -250.976,119.51l-4.581,333.828l69.709,-44.754l8.116,-226.886l20.362,-10.084c-0.859,77.027 -7.115,148.731 -8.045,223.713l63.39,-41.385l14.406,-219.441l18.903,-9.838l-13.63,215.988l56.424,-35.966c0.43,-0.273 26.24,-304.367 25.922,-304.685l0,-0Z" style="fill:#32b557;fill-rule:nonzero;"/><path id="Mabox" d="M103.831,1187.61l-31.333,-83.467l-0.533,0c0.177,1.778 0.311,4.045 0.4,6.8c0.177,2.756 0.311,5.778 0.4,9.067c0.088,3.2 0.133,6.489 0.133,9.867l-0,57.733l-11.067,0l0,-95.2l17.734,-0l29.333,78l0.533,0l29.867,-78l17.6,-0l0,95.2l-11.867,0l0,-58.533c0,-3.111 0.045,-6.178 0.134,-9.2c0.089,-3.111 0.222,-6 0.4,-8.667c0.177,-2.756 0.311,-5.067 0.4,-6.933l-0.534,-0l-31.733,83.333l-9.867,0Zm104.4,-72.667c8.711,0 15.156,1.911 19.334,5.734c4.177,3.822 6.266,9.911 6.266,18.266l0,48.667l-8.533,0l-2.267,-10.133l-0.533,-0c-2.044,2.577 -4.178,4.755 -6.4,6.533c-2.133,1.689 -4.622,2.933 -7.467,3.733c-2.755,0.8 -6.133,1.2 -10.133,1.2c-4.267,0 -8.133,-0.755 -11.6,-2.266c-3.378,-1.511 -6.044,-3.823 -8,-6.934c-1.956,-3.2 -2.933,-7.2 -2.933,-12c-0,-7.111 2.8,-12.577 8.4,-16.4c5.6,-3.911 14.222,-6.044 25.866,-6.4l12.134,-0.4l-0,-4.266c-0,-5.956 -1.289,-10.089 -3.867,-12.4c-2.578,-2.311 -6.222,-3.467 -10.933,-3.467c-3.734,-0 -7.289,0.578 -10.667,1.733c-3.378,1.067 -6.533,2.311 -9.467,3.734l-3.6,-8.8c3.111,-1.689 6.8,-3.111 11.067,-4.267c4.267,-1.244 8.711,-1.867 13.333,-1.867Zm3.467,38.134c-8.889,0.355 -15.067,1.777 -18.533,4.266c-3.378,2.489 -5.067,6 -5.067,10.534c-0,4 1.2,6.933 3.6,8.8c2.489,1.866 5.644,2.8 9.467,2.8c6.044,-0 11.066,-1.645 15.066,-4.934c4,-3.377 6,-8.533 6,-15.466l0,-6.4l-10.533,0.4Zm56,-42.134c0,3.023 -0.089,5.867 -0.267,8.534c-0.088,2.577 -0.222,4.622 -0.4,6.133l0.667,-0c2.045,-3.022 4.845,-5.556 8.4,-7.6c3.556,-2.044 8.133,-3.067 13.733,-3.067c8.889,0 16,3.111 21.334,9.334c5.422,6.133 8.133,15.333 8.133,27.6c0,8.177 -1.244,15.022 -3.733,20.533c-2.4,5.511 -5.822,9.644 -10.267,12.4c-4.444,2.756 -9.6,4.133 -15.467,4.133c-5.6,0 -10.177,-1.022 -13.733,-3.066c-3.555,-2.045 -6.355,-4.489 -8.4,-7.334l-0.933,0l-2.4,9.067l-8.4,0l-0,-101.333l11.733,-0l0,24.666Zm20.133,13.734c-5.066,-0 -9.066,0.977 -12,2.933c-2.933,1.867 -5.022,4.8 -6.266,8.8c-1.245,3.911 -1.867,8.933 -1.867,15.067l0,0.533c0,8.8 1.422,15.556 4.267,20.267c2.933,4.622 8.311,6.933 16.133,6.933c6.4,0 11.156,-2.356 14.267,-7.067c3.2,-4.711 4.8,-11.511 4.8,-20.4c-0,-8.977 -1.6,-15.733 -4.8,-20.266c-3.111,-4.534 -7.956,-6.8 -14.534,-6.8Zm112.267,27.066c0,5.956 -0.8,11.245 -2.4,15.867c-1.511,4.533 -3.733,8.4 -6.666,11.6c-2.845,3.2 -6.356,5.644 -10.534,7.333c-4.089,1.6 -8.666,2.4 -13.733,2.4c-4.711,0 -9.067,-0.8 -13.067,-2.4c-4,-1.689 -7.466,-4.133 -10.4,-7.333c-2.933,-3.2 -5.244,-7.067 -6.933,-11.6c-1.6,-4.622 -2.4,-9.911 -2.4,-15.867c-0,-7.911 1.333,-14.577 4,-20c2.666,-5.511 6.489,-9.689 11.466,-12.533c4.978,-2.933 10.889,-4.4 17.734,-4.4c6.489,-0 12.178,1.467 17.067,4.4c4.977,2.844 8.844,7.022 11.6,12.533c2.844,5.423 4.266,12.089 4.266,20Zm-54,0c0,5.6 0.711,10.489 2.133,14.667c1.512,4.089 3.823,7.244 6.934,9.467c3.111,2.222 7.067,3.333 11.867,3.333c4.8,0 8.755,-1.111 11.866,-3.333c3.111,-2.223 5.378,-5.378 6.8,-9.467c1.511,-4.178 2.267,-9.067 2.267,-14.667c-0,-5.689 -0.756,-10.533 -2.267,-14.533c-1.511,-4 -3.822,-7.067 -6.933,-9.2c-3.022,-2.222 -6.978,-3.333 -11.867,-3.333c-7.289,-0 -12.578,2.4 -15.867,7.2c-3.288,4.8 -4.933,11.422 -4.933,19.866Zm86.8,-0.666l-24.667,-34.934l13.334,0l18.4,26.934l18.266,-26.934l13.2,0l-24.666,34.934l26,36.533l-13.334,0l-19.466,-28.533l-19.734,28.533l-13.2,0l25.867,-36.533Zm89.867,36.533l-0,-95.2l12,-0l-0,84.533l41.6,0l-0,10.667l-53.6,0Zm80,-71.467l-0,71.467l-11.733,0l-0,-71.467l11.733,0Zm-5.733,-26.8c1.777,0 3.333,0.623 4.666,1.867c1.422,1.156 2.134,3.022 2.134,5.6c-0,2.489 -0.712,4.356 -2.134,5.6c-1.333,1.244 -2.889,1.867 -4.666,1.867c-1.956,-0 -3.601,-0.623 -4.934,-1.867c-1.333,-1.244 -2,-3.111 -2,-5.6c0,-2.578 0.667,-4.444 2,-5.6c1.333,-1.244 2.978,-1.867 4.934,-1.867Zm62.799,25.467c8.534,-0 14.978,2.089 19.334,6.267c4.355,4.089 6.533,10.755 6.533,20l0,46.533l-11.6,0l0,-45.733c0,-5.778 -1.289,-10.089 -3.867,-12.934c-2.577,-2.844 -6.622,-4.266 -12.133,-4.266c-7.911,-0 -13.378,2.222 -16.4,6.666c-3.022,4.445 -4.533,10.845 -4.533,19.2l-0,37.067l-11.734,0l0,-71.467l9.467,0l1.733,9.734l0.667,-0c1.6,-2.489 3.556,-4.534 5.867,-6.134c2.4,-1.689 5.022,-2.933 7.866,-3.733c2.845,-0.8 5.778,-1.2 8.8,-1.2Zm107.734,1.333l-0,71.467l-9.6,0l-1.733,-9.467l-0.534,0c-1.511,2.489 -3.466,4.534 -5.866,6.134c-2.4,1.6 -5.023,2.755 -7.867,3.466c-2.845,0.8 -5.822,1.2 -8.933,1.2c-5.689,0 -10.489,-0.889 -14.4,-2.666c-3.823,-1.867 -6.712,-4.711 -8.667,-8.534c-1.956,-3.822 -2.933,-8.755 -2.933,-14.8l-0,-46.8l11.866,0l0,46c0,5.689 1.289,9.956 3.867,12.8c2.578,2.845 6.578,4.267 12,4.267c5.333,0 9.511,-0.978 12.533,-2.933c3.111,-2.045 5.289,-4.978 6.534,-8.8c1.333,-3.911 2,-8.623 2,-14.134l-0,-37.2l11.733,0Zm39.6,34.934l-24.667,-34.934l13.334,0l18.4,26.934l18.266,-26.934l13.2,0l-24.666,34.934l26,36.533l-13.334,0l-19.466,-28.533l-19.734,28.533l-13.2,0l25.867,-36.533Z" style="fill:#fefefe;fill-rule:nonzero;stroke:#fff;stroke-width:4.91px;"/></g></g></svg>