<?xml version="1.0" encoding="UTF-8" standalone="no"?><!DOCTYPE svg PUBLIC "-//W3C//DTD SVG 1.1//EN" "http://www.w3.org/Graphics/SVG/1.1/DTD/svg11.dtd"><svg width="100%" height="100%" viewBox="0 0 907 1352" version="1.1" xmlns="http://www.w3.org/2000/svg" xmlns:xlink="http://www.w3.org/1999/xlink" xml:space="preserve" xmlns:serif="http://www.serif.com/" style="fill-rule:evenodd;clip-rule:evenodd;stroke-linejoin:round;"><rect id="Manjaro" x="0" y="0" width="906.667" height="1351.11" style="fill:none;"/><clipPath id="_clip1"><rect x="0" y="0" width="906.667" height="1351.11"/></clipPath><g clip-path="url(#_clip1)"><g id="READ-ME" serif:id="READ ME"><path id="Frame" d="M897.778,363.221c-0,-195.561 -158.771,-354.332 -354.333,-354.332l-180.224,-0c-195.561,-0 -354.332,158.771 -354.332,354.332l-0,624.669c-0,195.561 158.771,354.332 354.332,354.332l180.224,0c195.562,0 354.333,-158.771 354.333,-354.332l-0,-624.669Z" style="fill:#fff;stroke:#000;stroke-width:17.78px;"/><path id="Bottom" d="M895.371,1141.21c-0,-107.643 -87.393,-195.036 -195.036,-195.036l-494.004,0c-107.643,0 -195.035,87.393 -195.035,195.036c-0,107.643 87.392,195.036 195.035,195.036l494.004,-0c107.643,-0 195.036,-87.393 195.036,-195.036Z" style="stroke:#000;stroke-width:15.52px;"/><g id="Powered-By" serif:id="Powered By"><path id="path12547" d="M59.75,886.702l2.069,0c2.962,0 5.189,-0.588 6.681,-1.763c1.515,-1.176 2.272,-3.087 2.272,-5.732c-0,-2.464 -0.678,-4.284 -2.035,-5.46c-1.334,-1.176 -3.436,-1.763 -6.308,-1.763l-2.679,-0l0,14.718Zm21.671,-7.868c-0,2.171 -0.328,4.251 -0.984,6.24c-0.655,1.99 -1.741,3.742 -3.255,5.257c-1.493,1.515 -3.471,2.724 -5.935,3.628c-2.442,0.905 -5.472,1.357 -9.089,1.357l-2.408,-0l0,17.635l-10.513,-0l0,-49.581l13.769,-0c3.188,-0 5.935,0.362 8.241,1.085c2.328,0.701 4.239,1.718 5.731,3.052c1.515,1.312 2.634,2.928 3.358,4.85c0.723,1.899 1.085,4.058 1.085,6.477l-0,0Z" style="fill-rule:nonzero;"/><path id="path12549" d="M98.581,893.926c-0,3.775 0.531,6.624 1.594,8.546c1.062,1.899 2.792,2.848 5.189,2.848c2.373,0 4.092,-0.96 5.154,-2.882c1.063,-1.922 1.594,-4.759 1.594,-8.512c0,-3.776 -0.531,-6.591 -1.594,-8.445c-1.062,-1.876 -2.803,-2.815 -5.222,-2.815c-2.374,0 -4.092,0.939 -5.155,2.815c-1.04,1.854 -1.56,4.669 -1.56,8.445Zm24.078,-0c0,3.165 -0.407,5.968 -1.221,8.41c-0.791,2.442 -1.944,4.499 -3.459,6.172c-1.492,1.673 -3.323,2.951 -5.494,3.832c-2.148,0.86 -4.567,1.289 -7.257,1.289c-2.51,0 -4.816,-0.429 -6.918,-1.289c-2.103,-0.881 -3.923,-2.159 -5.46,-3.832c-1.515,-1.673 -2.702,-3.73 -3.561,-6.172c-0.859,-2.442 -1.289,-5.245 -1.289,-8.41c-0,-3.143 0.396,-5.935 1.187,-8.377c0.814,-2.442 1.967,-4.488 3.459,-6.138c1.515,-1.673 3.346,-2.939 5.494,-3.799c2.148,-0.859 4.578,-1.288 7.291,-1.288c2.51,-0 4.816,0.429 6.919,1.288c2.102,0.86 3.911,2.126 5.426,3.799c1.537,1.65 2.735,3.696 3.595,6.138c0.859,2.442 1.288,5.234 1.288,8.377Z" style="fill-rule:nonzero;"/><path id="path12551" d="M160.54,912.951l-2.916,-13.26c-0.091,-0.384 -0.215,-0.927 -0.373,-1.628c-0.136,-0.724 -0.294,-1.526 -0.475,-2.408c-0.181,-0.904 -0.373,-1.854 -0.576,-2.849c-0.181,-1.017 -0.373,-2.023 -0.577,-3.018c-0.452,-2.329 -0.95,-4.838 -1.492,-7.529l-0.204,0c-0.52,2.691 -0.994,5.212 -1.424,7.563c-0.181,0.995 -0.373,2.001 -0.576,3.018c-0.181,1.018 -0.362,1.979 -0.543,2.883c-0.181,0.882 -0.35,1.684 -0.509,2.408c-0.135,0.723 -0.248,1.289 -0.339,1.695l-3.052,13.125l-11.124,-0l-10.208,-37.915l10.276,-0l3.832,16.787c0.204,0.882 0.407,1.944 0.611,3.188c0.226,1.221 0.429,2.464 0.61,3.73c0.204,1.244 0.384,2.431 0.543,3.561c0.158,1.108 0.282,1.99 0.373,2.645l0.203,0c0.023,-0.43 0.068,-0.983 0.136,-1.661c0.09,-0.701 0.192,-1.447 0.305,-2.239c0.113,-0.791 0.226,-1.594 0.339,-2.408c0.136,-0.836 0.26,-1.616 0.373,-2.34c0.136,-0.723 0.249,-1.356 0.339,-1.899c0.113,-0.565 0.204,-0.961 0.272,-1.187l4.137,-18.177l11.395,-0l3.968,18.177c0.113,0.498 0.26,1.267 0.441,2.306c0.181,1.04 0.361,2.16 0.542,3.358c0.204,1.176 0.373,2.329 0.509,3.459c0.136,1.108 0.215,1.978 0.237,2.611l0.204,0c0.068,-0.565 0.181,-1.402 0.339,-2.509c0.181,-1.108 0.373,-2.295 0.576,-3.561c0.204,-1.289 0.419,-2.566 0.645,-3.832c0.249,-1.266 0.475,-2.34 0.678,-3.222l3.968,-16.787l10.14,-0l-10.343,37.915l-11.26,-0Z" style="fill-rule:nonzero;"/><path id="path12553" d="M202.898,881.683c-1.831,-0 -3.357,0.644 -4.578,1.933c-1.198,1.289 -1.888,3.312 -2.069,6.07l13.192,0c-0.022,-1.153 -0.169,-2.215 -0.441,-3.187c-0.271,-0.973 -0.678,-1.809 -1.22,-2.51c-0.543,-0.724 -1.221,-1.289 -2.035,-1.696c-0.814,-0.407 -1.764,-0.61 -2.849,-0.61l0,-0Zm1.323,31.946c-2.713,0 -5.212,-0.395 -7.495,-1.187c-2.284,-0.791 -4.251,-1.978 -5.901,-3.561c-1.65,-1.605 -2.939,-3.617 -3.866,-6.036c-0.905,-2.442 -1.357,-5.302 -1.357,-8.58c0,-3.324 0.419,-6.229 1.255,-8.716c0.837,-2.487 2.001,-4.556 3.493,-6.206c1.515,-1.673 3.324,-2.928 5.426,-3.765c2.126,-0.836 4.477,-1.254 7.054,-1.254c2.51,-0 4.771,0.384 6.783,1.152c2.035,0.747 3.753,1.855 5.155,3.324c1.424,1.47 2.509,3.278 3.255,5.426c0.769,2.125 1.153,4.567 1.153,7.325l0,5.019l-23.128,0c0.044,1.447 0.271,2.759 0.678,3.934c0.429,1.153 1.017,2.137 1.763,2.951c0.769,0.791 1.685,1.402 2.747,1.831c1.086,0.43 2.318,0.645 3.697,0.645c1.153,0 2.238,-0.057 3.256,-0.17c1.04,-0.136 2.046,-0.328 3.018,-0.576c0.972,-0.249 1.933,-0.554 2.882,-0.916c0.95,-0.384 1.922,-0.825 2.917,-1.322l-0,8.003c-0.904,0.475 -1.82,0.882 -2.747,1.221c-0.904,0.317 -1.865,0.588 -2.883,0.814c-1.017,0.226 -2.114,0.384 -3.289,0.475c-1.176,0.113 -2.465,0.17 -3.866,0.17l-0,-0.001Z" style="fill-rule:nonzero;"/><path id="path12555" d="M247.698,874.324c0.271,-0 0.565,0.011 0.881,0.035c0.339,0 0.656,0.024 0.95,0.071c0.316,0.024 0.599,0.059 0.848,0.106c0.271,0.024 0.474,0.059 0.61,0.107l-0,9.699c-0.181,-0.047 -0.43,-0.093 -0.746,-0.136c-0.317,-0.047 -0.656,-0.083 -1.018,-0.106c-0.339,-0.048 -0.678,-0.071 -1.017,-0.071c-0.339,-0.024 -0.622,-0.036 -0.848,-0.036c-1.334,0 -2.566,0.17 -3.696,0.509c-1.108,0.34 -2.069,0.894 -2.883,1.662c-0.791,0.747 -1.413,1.741 -1.865,2.984c-0.43,1.221 -0.645,2.725 -0.645,4.511l0,19.297l-10.343,-0l-0,-37.915l7.834,-0l1.526,5.697l0.509,0c0.542,-0.972 1.13,-1.854 1.763,-2.645c0.633,-0.791 1.334,-1.458 2.103,-2.001c0.791,-0.565 1.673,-0.995 2.645,-1.289c0.995,-0.316 2.125,-0.475 3.391,-0.475l0.001,-0.004Z" style="fill-rule:nonzero;"/><path id="path12557" d="M273.404,881.683c-1.832,-0 -3.358,0.644 -4.579,1.933c-1.198,1.289 -1.887,3.312 -2.068,6.07l13.192,0c-0.023,-1.153 -0.17,-2.215 -0.441,-3.187c-0.271,-0.973 -0.678,-1.809 -1.221,-2.51c-0.542,-0.724 -1.221,-1.289 -2.035,-1.696c-0.813,-0.407 -1.763,-0.61 -2.848,-0.61l-0,-0Zm1.322,31.946c-2.713,0 -5.211,-0.395 -7.494,-1.187c-2.284,-0.791 -4.251,-1.978 -5.901,-3.561c-1.651,-1.605 -2.94,-3.617 -3.866,-6.036c-0.905,-2.442 -1.357,-5.302 -1.357,-8.58c-0,-3.324 0.418,-6.229 1.255,-8.716c0.836,-2.487 2.001,-4.556 3.493,-6.206c1.515,-1.673 3.323,-2.928 5.426,-3.765c2.125,-0.836 4.477,-1.254 7.054,-1.254c2.51,-0 4.77,0.384 6.783,1.152c2.034,0.747 3.753,1.855 5.154,3.324c1.425,1.47 2.51,3.278 3.256,5.426c0.769,2.125 1.153,4.567 1.153,7.325l0,5.019l-23.129,0c0.045,1.447 0.271,2.759 0.679,3.934c0.429,1.153 1.017,2.137 1.763,2.951c0.769,0.791 1.684,1.402 2.747,1.831c1.085,0.43 2.317,0.645 3.697,0.645c1.153,0 2.238,-0.057 3.255,-0.17c1.04,-0.136 2.046,-0.328 3.018,-0.576c0.973,-0.249 1.934,-0.554 2.883,-0.916c0.95,-0.384 1.922,-0.825 2.917,-1.322l-0,8.003c-0.905,0.475 -1.82,0.882 -2.747,1.221c-0.905,0.317 -1.866,0.588 -2.883,0.814c-1.017,0.226 -2.114,0.384 -3.29,0.475c-1.175,0.113 -2.464,0.17 -3.866,0.17l0,-0.001Z" style="fill-rule:nonzero;"/><path id="path12559" d="M309.589,913.629c-1.944,0 -3.719,-0.418 -5.324,-1.255c-1.605,-0.836 -2.985,-2.068 -4.138,-3.696c-1.153,-1.651 -2.057,-3.697 -2.713,-6.138c-0.633,-2.442 -0.949,-5.268 -0.949,-8.479c-0,-3.255 0.316,-6.104 0.949,-8.546c0.656,-2.464 1.572,-4.522 2.747,-6.172c1.199,-1.673 2.623,-2.928 4.273,-3.765c1.651,-0.836 3.471,-1.254 5.46,-1.254c1.221,-0 2.34,0.146 3.358,0.44c1.017,0.272 1.933,0.668 2.747,1.187c0.814,0.498 1.537,1.086 2.17,1.764c0.656,0.656 1.232,1.379 1.73,2.17l0.339,0c-0.136,-0.882 -0.26,-1.775 -0.373,-2.679c-0.113,-0.769 -0.215,-1.582 -0.305,-2.442c-0.068,-0.882 -0.102,-1.695 -0.102,-2.442l0,-12.141l10.344,0l-0,52.77l-7.902,-0l-2.001,-4.918l-0.441,0c-0.475,0.769 -1.017,1.503 -1.628,2.205c-0.61,0.677 -1.323,1.265 -2.136,1.763c-0.792,0.498 -1.696,0.893 -2.713,1.187c-0.995,0.294 -2.126,0.44 -3.392,0.44l0,0.001Zm3.765,-8.241c1.22,0 2.26,-0.203 3.12,-0.61c0.859,-0.43 1.548,-1.063 2.068,-1.899c0.543,-0.86 0.939,-1.922 1.187,-3.188c0.272,-1.266 0.419,-2.747 0.441,-4.443l0,-1.12c0,-1.831 -0.113,-3.459 -0.339,-4.883c-0.226,-1.425 -0.599,-2.612 -1.119,-3.561c-0.52,-0.972 -1.221,-1.707 -2.103,-2.204c-0.881,-0.498 -1.989,-0.747 -3.323,-0.747c-2.171,0 -3.764,0.984 -4.782,2.951c-1.017,1.944 -1.526,4.781 -1.526,8.512c0,3.73 0.509,6.534 1.526,8.41c1.04,1.854 2.657,2.781 4.85,2.781l-0,0.001Z" style="fill-rule:nonzero;"/><path id="path12561" d="M378.908,874.324c1.944,-0 3.719,0.418 5.324,1.254c1.606,0.837 2.985,2.08 4.138,3.731c1.153,1.65 2.046,3.697 2.679,6.138c0.656,2.442 0.983,5.268 0.983,8.479c0,3.255 -0.327,6.115 -0.983,8.58c-0.633,2.441 -1.538,4.487 -2.713,6.138c-1.176,1.65 -2.589,2.894 -4.239,3.73c-1.651,0.837 -3.471,1.255 -5.46,1.255c-1.266,0 -2.397,-0.136 -3.392,-0.407c-0.972,-0.272 -1.842,-0.634 -2.611,-1.086c-0.769,-0.452 -1.447,-0.96 -2.035,-1.526c-0.565,-0.588 -1.085,-1.198 -1.56,-1.831l-0.712,-0l-1.73,4.171l-7.901,0l-0,-52.769l10.343,0l0,12.277c0,0.746 -0.022,1.56 -0.067,2.442c-0.045,0.859 -0.09,1.661 -0.136,2.407c-0.068,0.882 -0.135,1.764 -0.203,2.646l0.407,-0c0.474,-0.792 1.017,-1.526 1.627,-2.205c0.611,-0.678 1.312,-1.266 2.103,-1.763c0.814,-0.52 1.73,-0.927 2.747,-1.221c1.017,-0.294 2.148,-0.441 3.391,-0.441l-0,0.001Zm-3.493,8.275c-1.153,-0 -2.137,0.215 -2.951,0.644c-0.791,0.408 -1.435,1.029 -1.933,1.866c-0.497,0.836 -0.859,1.899 -1.085,3.188c-0.226,1.266 -0.362,2.746 -0.407,4.442l0,1.12c0,1.831 0.102,3.459 0.305,4.883c0.226,1.425 0.588,2.623 1.086,3.595c0.497,0.95 1.153,1.673 1.967,2.171c0.836,0.497 1.865,0.746 3.086,0.746c2.057,-0 3.561,-0.972 4.51,-2.917c0.972,-1.967 1.458,-4.815 1.458,-8.546c0,-3.73 -0.486,-6.522 -1.458,-8.376c-0.949,-1.877 -2.476,-2.815 -4.578,-2.815l-0,-0.001Z" style="fill-rule:nonzero;"/><path id="path12563" d="M395.492,875.036l11.327,-0l6.104,21.331c0.361,1.176 0.621,2.431 0.779,3.765c0.182,1.334 0.295,2.532 0.339,3.594l0.204,0c0.047,-0.519 0.104,-1.096 0.17,-1.729c0.09,-0.633 0.192,-1.278 0.304,-1.933c0.114,-0.656 0.238,-1.3 0.374,-1.933c0.158,-0.656 0.316,-1.244 0.474,-1.764l5.969,-21.331l11.395,-0l-14.99,42.764c-1.401,4.002 -3.312,6.975 -5.731,8.92c-2.419,1.944 -5.449,2.916 -9.089,2.916c-1.175,0 -2.193,-0.068 -3.052,-0.203c-0.859,-0.113 -1.594,-0.238 -2.204,-0.373l-0,-8.207c0.475,0.113 1.074,0.215 1.797,0.305c0.724,0.09 1.481,0.135 2.272,0.135c1.086,0 2.013,-0.146 2.781,-0.44c0.769,-0.294 1.425,-0.712 1.967,-1.255c0.565,-0.52 1.04,-1.153 1.425,-1.899c0.407,-0.747 0.757,-1.583 1.051,-2.51l0.645,-1.899l-14.311,-38.254Z" style="fill-rule:nonzero;"/></g></g><g id="Manjaro1" serif:id="Manjaro"><g id="Logo"><g id="g4446"><rect id="rect4149-7" x="592.334" y="149.208" width="195.116" height="666.667" style="fill:#16a085;"/><rect id="rect4149-0-6" x="356.552" y="384.979" width="195.116" height="430.896" style="fill:#16a085;"/></g><path id="path5961" d="M120.784,149.208l430.887,0l0,195.117l-236.433,-0l-0,471.55l-194.454,-0l-0,-666.667Z" style="fill:#16a085;"/></g><g id="manjaro"><path id="path81574" d="M203.887,1182.04c-2.688,0 -4.95,-0.855 -6.783,-2.566c-1.711,-1.834 -2.567,-4.095 -2.567,-6.784l0,-52.433c0,-7.7 -1.894,-13.384 -5.683,-17.05c-3.789,-3.789 -8.739,-5.684 -14.85,-5.684c-6.355,0 -11.611,2.2 -15.767,6.601c-4.033,4.4 -6.05,10.022 -6.05,16.866l-15.216,0c-0,-7.944 1.711,-14.911 5.133,-20.9c3.422,-6.111 8.189,-10.878 14.3,-14.3c6.233,-3.422 13.322,-5.133 21.267,-5.133c6.966,-0 13.139,1.528 18.516,4.583c5.378,3.056 9.534,7.578 12.467,13.567c3.056,5.866 4.583,13.016 4.583,21.45l0,52.433c0,2.689 -0.855,4.95 -2.566,6.784c-1.711,1.711 -3.972,2.566 -6.784,2.566Zm-122.283,0c-2.689,0 -4.95,-0.855 -6.783,-2.566c-1.711,-1.834 -2.567,-4.095 -2.567,-6.784l0,-81.583c0,-2.811 0.856,-5.072 2.567,-6.784c1.833,-1.711 4.094,-2.566 6.783,-2.566c2.811,-0 5.072,0.855 6.783,2.566c1.712,1.712 2.567,3.973 2.567,6.784l0,81.583c0,2.689 -0.855,4.95 -2.567,6.784c-1.711,1.711 -3.972,2.566 -6.783,2.566Zm61.233,0c-2.688,0 -4.95,-0.855 -6.783,-2.566c-1.711,-1.834 -2.567,-4.095 -2.567,-6.784l0,-52.433c0,-7.7 -1.894,-13.384 -5.683,-17.05c-3.789,-3.789 -8.739,-5.684 -14.85,-5.684c-6.355,0 -11.611,2.2 -15.767,6.601c-4.155,4.4 -6.233,10.022 -6.233,16.866l-11.55,0c0,-7.944 1.589,-14.911 4.767,-20.9c3.178,-6.111 7.578,-10.878 13.2,-14.3c5.622,-3.422 12.039,-5.133 19.25,-5.133c6.966,-0 13.139,1.528 18.516,4.583c5.378,3.056 9.534,7.578 12.467,13.567c3.056,5.866 4.583,13.016 4.583,21.45l0,52.433c0,2.689 -0.855,4.95 -2.566,6.784c-1.711,1.711 -3.972,2.566 -6.784,2.566Z" style="fill:#fff;fill-rule:nonzero;"/><path id="path81576" d="M286.021,1182.59c-8.922,0 -16.928,-2.2 -24.017,-6.6c-7.089,-4.522 -12.711,-10.572 -16.867,-18.15c-4.033,-7.7 -6.05,-16.378 -6.05,-26.033c0,-9.656 2.2,-18.333 6.6,-26.033c4.523,-7.701 10.573,-13.751 18.15,-18.151c7.7,-4.522 16.317,-6.783 25.85,-6.783c9.534,0 18.089,2.261 25.667,6.783c7.578,4.4 13.567,10.45 17.967,18.151c4.522,7.7 6.783,16.377 6.783,26.033l-7.15,-0c0,9.655 -2.078,18.333 -6.233,26.033c-4.034,7.578 -9.595,13.628 -16.684,18.15c-7.088,4.4 -15.094,6.6 -24.016,6.6Zm3.666,-16.5c6.234,0 11.795,-1.466 16.684,-4.4c4.889,-3.055 8.739,-7.15 11.55,-12.283c2.811,-5.256 4.216,-11.122 4.216,-17.6c0,-6.6 -1.405,-12.467 -4.216,-17.6c-2.811,-5.256 -6.661,-9.35 -11.55,-12.283c-4.889,-3.056 -10.45,-4.584 -16.684,-4.584c-6.111,0 -11.672,1.528 -16.683,4.584c-4.889,2.933 -8.8,7.027 -11.733,12.283c-2.811,5.133 -4.217,11 -4.217,17.6c0,6.478 1.406,12.344 4.217,17.6c2.933,5.133 6.844,9.228 11.733,12.283c5.011,2.934 10.572,4.4 16.683,4.4Zm41.067,15.95c-2.689,0 -4.95,-0.855 -6.783,-2.566c-1.711,-1.834 -2.567,-4.095 -2.567,-6.784l0,-28.05l3.483,-19.433l15.217,6.6l0,40.883c0,2.689 -0.917,4.95 -2.75,6.784c-1.711,1.711 -3.911,2.566 -6.6,2.566Z" style="fill:#fff;fill-rule:nonzero;"/><path id="path81578" d="M452.671,1182.04c-2.689,0 -4.95,-0.855 -6.784,-2.566c-1.711,-1.834 -2.566,-4.095 -2.566,-6.784l-0,-45.1c-0,-6.967 -1.284,-12.65 -3.85,-17.05c-2.567,-4.4 -6.05,-7.639 -10.45,-9.716c-4.278,-2.201 -9.228,-3.301 -14.85,-3.301c-5.134,0 -9.778,1.039 -13.934,3.117c-4.155,2.078 -7.455,4.889 -9.9,8.434c-2.444,3.422 -3.666,7.394 -3.666,11.916l-11.55,0c-0,-7.7 1.833,-14.544 5.5,-20.533c3.789,-6.111 8.922,-10.939 15.4,-14.484c6.477,-3.544 13.75,-5.316 21.816,-5.316c8.434,-0 15.95,1.833 22.55,5.5c6.723,3.544 11.978,8.8 15.767,15.767c3.911,6.966 5.867,15.522 5.867,25.666l-0,45.1c-0,2.689 -0.917,4.95 -2.75,6.784c-1.711,1.711 -3.911,2.566 -6.6,2.566Zm-75.35,0c-2.689,0 -4.95,-0.855 -6.784,-2.566c-1.711,-1.834 -2.566,-4.095 -2.566,-6.784l-0,-81.767c-0,-2.811 0.855,-5.072 2.566,-6.783c1.834,-1.711 4.095,-2.567 6.784,-2.567c2.811,0 5.072,0.856 6.783,2.567c1.711,1.711 2.567,3.972 2.567,6.783l-0,81.767c-0,2.689 -0.856,4.95 -2.567,6.784c-1.711,1.711 -3.972,2.566 -6.783,2.566Z" style="fill:#fff;fill-rule:nonzero;"/><path id="path81580" d="M467.337,1224.76c-2.689,-0 -4.889,-0.917 -6.6,-2.75c-1.711,-1.711 -2.566,-3.911 -2.566,-6.6c-0,-2.811 0.855,-5.072 2.566,-6.783c1.711,-1.712 3.911,-2.567 6.6,-2.567c4.889,-0 9.167,-1.1 12.834,-3.3c3.666,-2.078 6.539,-4.95 8.616,-8.617c2.2,-3.666 3.3,-7.883 3.3,-12.65l0,-90.567c0,-2.811 0.856,-5.072 2.567,-6.783c1.833,-1.711 4.094,-2.567 6.783,-2.567c2.811,0 5.073,0.856 6.784,2.567c1.711,1.711 2.566,3.972 2.566,6.783l0,90.567c0,8.434 -1.894,15.889 -5.683,22.367c-3.667,6.478 -8.739,11.55 -15.217,15.217c-6.477,3.788 -13.994,5.683 -22.55,5.683Zm34.1,-159.5c-3.3,-0 -6.172,-1.161 -8.616,-3.484c-2.323,-2.444 -3.484,-5.316 -3.484,-8.616c0,-3.3 1.161,-6.111 3.484,-8.434c2.444,-2.444 5.316,-3.666 8.616,-3.666c3.3,-0 6.111,1.222 8.434,3.666c2.444,2.323 3.666,5.134 3.666,8.434c0,3.3 -1.222,6.172 -3.666,8.616c-2.323,2.323 -5.134,3.484 -8.434,3.484Z" style="fill:#fff;fill-rule:nonzero;"/><path id="path81582" d="M580.087,1182.59c-8.922,0 -16.927,-2.2 -24.016,-6.6c-7.089,-4.522 -12.712,-10.572 -16.867,-18.15c-4.033,-7.7 -6.05,-16.378 -6.05,-26.033c-0,-9.656 2.2,-18.333 6.6,-26.033c4.522,-7.701 10.572,-13.751 18.15,-18.151c7.7,-4.522 16.317,-6.783 25.85,-6.783c9.533,0 18.089,2.261 25.667,6.783c7.577,4.4 13.566,10.45 17.966,18.151c4.523,7.7 6.784,16.377 6.784,26.033l-7.15,-0c-0,9.655 -2.078,18.333 -6.234,26.033c-4.033,7.578 -9.594,13.628 -16.683,18.15c-7.089,4.4 -15.094,6.6 -24.017,6.6Zm3.667,-16.5c6.233,0 11.794,-1.466 16.683,-4.4c4.889,-3.055 8.739,-7.15 11.55,-12.283c2.811,-5.256 4.217,-11.122 4.217,-17.6c-0,-6.6 -1.406,-12.467 -4.217,-17.6c-2.811,-5.256 -6.661,-9.35 -11.55,-12.283c-4.889,-3.056 -10.45,-4.584 -16.683,-4.584c-6.111,0 -11.672,1.528 -16.683,4.584c-4.889,2.933 -8.8,7.027 -11.734,12.283c-2.811,5.133 -4.216,11 -4.216,17.6c-0,6.478 1.405,12.344 4.216,17.6c2.934,5.133 6.845,9.228 11.734,12.283c5.011,2.934 10.572,4.4 16.683,4.4Zm41.067,15.95c-2.689,0 -4.95,-0.855 -6.784,-2.566c-1.711,-1.834 -2.566,-4.095 -2.566,-6.784l-0,-28.05l3.483,-19.433l15.217,6.6l-0,40.883c-0,2.689 -0.917,4.95 -2.75,6.784c-1.711,1.711 -3.911,2.566 -6.6,2.566Z" style="fill:#fff;fill-rule:nonzero;"/><path id="path81584" d="M671.021,1119.16c-0,-7.334 1.772,-13.872 5.316,-19.617c3.667,-5.867 8.556,-10.511 14.667,-13.933c6.111,-3.422 12.833,-5.134 20.167,-5.134c7.333,0 12.772,1.223 16.316,3.667c3.667,2.322 5.072,5.133 4.217,8.433c-0.367,1.712 -1.1,3.056 -2.2,4.034c-0.978,0.855 -2.139,1.405 -3.483,1.65c-1.345,0.244 -2.812,0.183 -4.4,-0.184c-7.823,-1.588 -14.85,-1.711 -21.084,-0.366c-6.233,1.344 -11.183,3.85 -14.85,7.516c-3.544,3.667 -5.316,8.312 -5.316,13.934l-9.35,-0Zm0.183,62.7c-2.933,-0 -5.194,-0.733 -6.783,-2.2c-1.589,-1.589 -2.384,-3.911 -2.384,-6.967l0,-81.95c0,-2.933 0.795,-5.194 2.384,-6.783c1.589,-1.589 3.85,-2.384 6.783,-2.384c3.056,0 5.317,0.795 6.783,2.384c1.589,1.466 2.384,3.728 2.384,6.783l-0,81.95c-0,2.934 -0.795,5.195 -2.384,6.784c-1.466,1.588 -3.727,2.383 -6.783,2.383Z" style="fill:#fff;fill-rule:nonzero;"/><path id="path81586" d="M789.27,1182.59c-9.9,0 -18.638,-2.139 -26.216,-6.416c-7.578,-4.4 -13.567,-10.389 -17.967,-17.967c-4.278,-7.7 -6.417,-16.5 -6.417,-26.4c0,-10.022 2.139,-18.822 6.417,-26.4c4.4,-7.7 10.389,-13.689 17.967,-17.967c7.578,-4.4 16.316,-6.6 26.216,-6.6c9.778,0 18.456,2.2 26.034,6.6c7.578,4.278 13.505,10.267 17.783,17.967c4.4,7.578 6.6,16.378 6.6,26.4c0,9.9 -2.139,18.7 -6.417,26.4c-4.277,7.578 -10.205,13.567 -17.783,17.967c-7.578,4.277 -16.317,6.416 -26.217,6.416Zm0,-16.5c6.356,0 11.978,-1.466 16.867,-4.4c4.889,-2.933 8.678,-6.966 11.367,-12.1c2.811,-5.133 4.216,-11.061 4.216,-17.783c0,-6.722 -1.405,-12.65 -4.216,-17.783c-2.689,-5.256 -6.478,-9.351 -11.367,-12.284c-4.889,-2.933 -10.511,-4.4 -16.867,-4.4c-6.355,0 -11.977,1.467 -16.866,4.4c-4.889,2.933 -8.739,7.028 -11.55,12.284c-2.811,5.133 -4.217,11.061 -4.217,17.783c0,6.722 1.406,12.65 4.217,17.783c2.811,5.134 6.661,9.167 11.55,12.1c4.889,2.934 10.511,4.4 16.866,4.4Z" style="fill:#fff;fill-rule:nonzero;"/></g></g></g></svg>