<?xml version="1.0" encoding="UTF-8" standalone="no"?><!DOCTYPE svg PUBLIC "-//W3C//DTD SVG 1.1//EN" "http://www.w3.org/Graphics/SVG/1.1/DTD/svg11.dtd"><svg width="100%" height="100%" viewBox="0 0 907 1352" version="1.1" xmlns="http://www.w3.org/2000/svg" xmlns:xlink="http://www.w3.org/1999/xlink" xml:space="preserve" xmlns:serif="http://www.serif.com/" style="fill-rule:evenodd;clip-rule:evenodd;stroke-linejoin:round;stroke-miterlimit:2;"><rect id="MidnightBSD" x="0" y="0" width="906.667" height="1351.11" style="fill:none;"/><clipPath id="_clip1"><rect x="0" y="0" width="906.667" height="1351.11"/></clipPath><g clip-path="url(#_clip1)"><g><g id="Frame"><path id="path36023" d="M363.226,8.892l180.223,-0c196.3,-0 354.331,36.928 354.331,82.799l0,1167.73c0,45.871 -158.031,82.8 -354.331,82.8l-180.223,-0c-196.299,-0 -354.331,-36.929 -354.331,-82.8l0,-1167.73c0,-45.871 158.032,-82.799 354.331,-82.799Z" style="fill:#fff;fill-rule:nonzero;"/><path id="path36025" d="M363.234,0c-98.707,0 -187.781,9.234 -252.806,24.429c-32.512,7.598 -58.999,16.618 -78.086,27.198c-9.544,5.29 -17.286,10.978 -22.976,17.509c-5.69,6.53 -9.366,14.275 -9.366,22.561l0,1167.72c0,8.285 3.676,16.03 9.366,22.56c5.69,6.531 13.432,12.219 22.976,17.509c19.087,10.581 45.574,19.6 78.086,27.198c65.025,15.195 154.099,24.429 252.806,24.429l180.209,0c98.707,0 187.781,-9.234 252.806,-24.429c32.512,-7.598 58.999,-16.617 78.086,-27.198c9.544,-5.29 17.286,-10.978 22.976,-17.509c5.69,-6.53 9.366,-14.275 9.366,-22.56l-0,-1167.72c-0,-8.286 -3.676,-16.031 -9.366,-22.561c-5.69,-6.531 -13.432,-12.219 -22.976,-17.509c-19.087,-10.58 -45.574,-19.6 -78.086,-27.198c-65.025,-15.195 -154.099,-24.429 -252.806,-24.429l-180.209,0Zm-0,17.786l180.209,-0c97.593,-0 185.703,9.231 248.769,23.968c31.533,7.368 56.818,16.176 73.496,25.421c8.339,4.622 14.481,9.365 18.201,13.633c3.719,4.269 4.982,7.706 4.982,10.889l0,1167.72c0,3.182 -1.263,6.619 -4.982,10.888c-3.72,4.269 -9.862,9.011 -18.201,13.633c-16.678,9.245 -41.963,18.053 -73.496,25.421c-63.066,14.738 -151.176,23.969 -248.769,23.969l-180.209,-0c-97.593,-0 -185.703,-9.231 -248.769,-23.969c-31.533,-7.368 -56.818,-16.176 -73.496,-25.421c-8.339,-4.622 -14.481,-9.364 -18.201,-13.633c-3.719,-4.269 -4.982,-7.706 -4.982,-10.888l-0,-1167.72c-0,-3.183 1.263,-6.62 4.982,-10.889c3.72,-4.268 9.862,-9.011 18.201,-13.633c16.678,-9.245 41.963,-18.053 73.496,-25.421c63.066,-14.737 151.176,-23.968 248.769,-23.968Z" style="fill-rule:nonzero;"/></g><g id="Bottom"><path id="path35979" d="M371.606,946.173l163.464,0c199.608,0 360.304,38.151 360.304,85.54l-0,218.99c-0,47.389 -160.696,85.54 -360.304,85.54l-163.464,-0c-199.609,-0 -360.304,-38.151 -360.304,-85.54l-0,-218.99c-0,-47.389 160.695,-85.54 360.304,-85.54Z" style="fill-rule:nonzero;"/><path id="path35981" d="M371.607,938.419c-100.298,0 -190.804,9.547 -256.796,25.214c-32.996,7.833 -59.838,17.123 -79.078,27.958c-19.241,10.836 -32.18,23.883 -32.18,40.116l-0,218.988c-0,16.233 12.939,29.303 32.18,40.139c19.24,10.835 46.082,20.125 79.078,27.958c65.992,15.667 156.498,25.214 256.796,25.214l163.463,0c100.298,0 190.804,-9.547 256.796,-25.214c32.996,-7.833 59.838,-17.123 79.078,-27.958c19.241,-10.836 32.18,-23.906 32.18,-40.139l0,-218.988c0,-16.233 -12.939,-29.28 -32.18,-40.116c-19.24,-10.835 -46.082,-20.125 -79.078,-27.958c-65.992,-15.667 -156.498,-25.214 -256.796,-25.214l-163.463,0Zm0,15.525l163.463,-0c99.309,-0 188.962,9.52 253.22,24.775c32.129,7.628 57.914,16.745 75.042,26.39c17.127,9.646 24.291,19.137 24.291,26.598l-0,218.988c-0,7.461 -7.164,16.952 -24.291,26.598c-17.128,9.645 -42.913,18.762 -75.042,26.39c-64.258,15.255 -153.911,24.798 -253.22,24.798l-163.463,0c-99.309,0 -188.962,-9.543 -253.22,-24.798c-32.129,-7.628 -57.914,-16.745 -75.042,-26.39c-17.127,-9.646 -24.291,-19.137 -24.291,-26.598l0,-218.988c0,-7.461 7.164,-16.952 24.291,-26.598c17.128,-9.645 42.913,-18.762 75.042,-26.39c64.258,-15.255 153.911,-24.775 253.22,-24.775Z" style="fill-rule:nonzero;"/></g><g id="Powered-By" serif:id="Powered By"><path id="path12547" d="M59.756,886.701l2.069,0c2.962,0 5.189,-0.588 6.681,-1.763c1.515,-1.176 2.272,-3.086 2.272,-5.732c-0,-2.464 -0.678,-4.284 -2.035,-5.46c-1.334,-1.175 -3.436,-1.763 -6.308,-1.763l-2.679,-0l0,14.718Zm21.671,-7.868c-0,2.171 -0.328,4.251 -0.984,6.24c-0.656,1.99 -1.741,3.742 -3.256,5.257c-1.492,1.515 -3.47,2.724 -5.934,3.629c-2.442,0.904 -5.472,1.356 -9.089,1.356l-2.408,0l0,17.635l-10.513,-0l0,-49.581l13.769,-0c3.188,-0 5.935,0.362 8.241,1.085c2.328,0.701 4.239,1.719 5.731,3.053c1.515,1.311 2.634,2.927 3.357,4.849c0.724,1.899 1.086,4.058 1.086,6.478l-0,-0.001Z" style="fill-rule:nonzero;"/><path id="path12549" d="M98.587,893.925c-0,3.775 0.531,6.624 1.594,8.546c1.062,1.899 2.792,2.848 5.188,2.848c2.374,0 4.093,-0.96 5.155,-2.882c1.063,-1.922 1.594,-4.759 1.594,-8.512c0,-3.776 -0.531,-6.591 -1.594,-8.445c-1.062,-1.876 -2.803,-2.814 -5.223,-2.814c-2.373,-0 -4.092,0.938 -5.154,2.814c-1.04,1.854 -1.56,4.669 -1.56,8.445Zm24.078,-0c0,3.165 -0.407,5.968 -1.221,8.41c-0.791,2.442 -1.944,4.499 -3.459,6.172c-1.492,1.673 -3.323,2.951 -5.494,3.833c-2.148,0.859 -4.567,1.288 -7.257,1.288c-2.51,0 -4.816,-0.429 -6.919,-1.288c-2.102,-0.882 -3.922,-2.16 -5.46,-3.833c-1.514,-1.673 -2.701,-3.73 -3.56,-6.172c-0.86,-2.442 -1.289,-5.245 -1.289,-8.41c-0,-3.143 0.395,-5.935 1.187,-8.377c0.814,-2.442 1.967,-4.488 3.459,-6.138c1.515,-1.673 3.346,-2.939 5.494,-3.798c2.148,-0.86 4.578,-1.289 7.291,-1.289c2.51,-0 4.816,0.429 6.918,1.289c2.103,0.859 3.912,2.125 5.427,3.798c1.537,1.65 2.735,3.696 3.594,6.138c0.859,2.442 1.289,5.234 1.289,8.377Z" style="fill-rule:nonzero;"/><path id="path12551" d="M160.546,912.95l-2.917,-13.26c-0.09,-0.384 -0.214,-0.927 -0.373,-1.628c-0.135,-0.724 -0.293,-1.526 -0.474,-2.408c-0.181,-0.904 -0.373,-1.854 -0.577,-2.848c-0.181,-1.018 -0.373,-2.024 -0.576,-3.019c-0.453,-2.328 -0.95,-4.838 -1.492,-7.528l-0.204,-0c-0.52,2.69 -0.995,5.211 -1.424,7.562c-0.181,0.995 -0.373,2.001 -0.577,3.019c-0.181,1.017 -0.362,1.978 -0.542,2.882c-0.181,0.882 -0.351,1.684 -0.509,2.408c-0.136,0.723 -0.249,1.289 -0.339,1.696l-3.052,13.124l-11.124,-0l-10.208,-37.915l10.276,0l3.832,16.787c0.203,0.882 0.407,1.944 0.61,3.188c0.226,1.221 0.43,2.464 0.611,3.73c0.203,1.244 0.384,2.431 0.542,3.561c0.159,1.108 0.283,1.99 0.373,2.645l0.204,0c0.023,-0.429 0.068,-0.983 0.136,-1.661c0.09,-0.701 0.192,-1.447 0.305,-2.239c0.113,-0.791 0.226,-1.593 0.339,-2.407c0.135,-0.837 0.26,-1.617 0.373,-2.34c0.136,-0.724 0.249,-1.357 0.339,-1.9c0.113,-0.565 0.204,-0.961 0.271,-1.187l4.138,-18.177l11.395,0l3.967,18.177c0.113,0.498 0.26,1.267 0.441,2.307c0.181,1.04 0.362,2.159 0.543,3.357c0.203,1.176 0.373,2.329 0.509,3.459c0.135,1.108 0.214,1.978 0.237,2.611l0.203,0c0.068,-0.565 0.181,-1.401 0.34,-2.509c0.18,-1.108 0.373,-2.295 0.576,-3.561c0.203,-1.289 0.418,-2.566 0.644,-3.832c0.249,-1.266 0.475,-2.34 0.679,-3.222l3.968,-16.787l10.14,0l-10.344,37.915l-11.259,-0Z" style="fill-rule:nonzero;"/><path id="path12553" d="M202.903,881.682c-1.831,0 -3.357,0.644 -4.578,1.933c-1.198,1.289 -1.888,3.312 -2.068,6.071l13.192,-0c-0.023,-1.153 -0.17,-2.216 -0.441,-3.188c-0.272,-0.972 -0.678,-1.809 -1.221,-2.51c-0.543,-0.723 -1.221,-1.289 -2.035,-1.695c-0.814,-0.408 -1.763,-0.611 -2.849,-0.611l0,0Zm1.323,31.946c-2.713,0 -5.211,-0.395 -7.495,-1.187c-2.283,-0.791 -4.25,-1.978 -5.901,-3.561c-1.65,-1.605 -2.939,-3.617 -3.866,-6.036c-0.904,-2.442 -1.356,-5.302 -1.356,-8.58c-0,-3.324 0.418,-6.229 1.255,-8.716c0.836,-2.487 2,-4.555 3.493,-6.206c1.514,-1.673 3.323,-2.928 5.426,-3.764c2.125,-0.837 4.476,-1.255 7.054,-1.255c2.509,-0 4.77,0.384 6.782,1.153c2.035,0.746 3.753,1.854 5.155,3.323c1.424,1.47 2.51,3.278 3.256,5.426c0.768,2.125 1.153,4.567 1.153,7.325l-0,5.02l-23.129,-0c0.045,1.447 0.271,2.758 0.678,3.934c0.43,1.153 1.018,2.136 1.764,2.95c0.768,0.791 1.684,1.402 2.747,1.831c1.085,0.43 2.317,0.645 3.696,0.645c1.153,0 2.239,-0.057 3.256,-0.17c1.04,-0.135 2.046,-0.328 3.018,-0.576c0.972,-0.249 1.933,-0.554 2.883,-0.916c0.949,-0.384 1.922,-0.825 2.916,-1.322l0,8.003c-0.904,0.475 -1.82,0.882 -2.747,1.221c-0.904,0.317 -1.865,0.588 -2.882,0.814c-1.018,0.226 -2.114,0.384 -3.29,0.475c-1.175,0.113 -2.464,0.17 -3.866,0.17l0,-0.001Z" style="fill-rule:nonzero;"/><path id="path12555" d="M247.703,874.323c0.271,-0 0.565,0.012 0.881,0.035c0.34,0 0.656,0.024 0.95,0.071c0.317,0.024 0.599,0.059 0.848,0.106c0.271,0.024 0.475,0.059 0.61,0.107l0,9.699c-0.181,-0.047 -0.429,-0.093 -0.746,-0.136c-0.316,-0.047 -0.656,-0.083 -1.017,-0.106c-0.339,-0.047 -0.679,-0.071 -1.018,-0.071c-0.339,-0.024 -0.621,-0.036 -0.847,-0.036c-1.334,0 -2.567,0.17 -3.697,0.51c-1.108,0.339 -2.069,0.893 -2.883,1.661c-0.791,0.747 -1.413,1.742 -1.865,2.985c-0.429,1.22 -0.644,2.724 -0.644,4.51l-0,19.297l-10.344,-0l0,-37.915l7.834,-0l1.526,5.697l0.509,0c0.543,-0.972 1.13,-1.854 1.763,-2.645c0.633,-0.791 1.334,-1.458 2.103,-2.001c0.791,-0.565 1.673,-0.995 2.645,-1.289c0.995,-0.316 2.125,-0.474 3.392,-0.474l-0,-0.005Z" style="fill-rule:nonzero;"/><path id="path12557" d="M273.409,881.682c-1.831,0 -3.358,0.644 -4.578,1.933c-1.199,1.289 -1.888,3.312 -2.069,6.071l13.192,-0c-0.023,-1.153 -0.17,-2.216 -0.441,-3.188c-0.271,-0.972 -0.678,-1.809 -1.221,-2.51c-0.542,-0.723 -1.221,-1.289 -2.034,-1.695c-0.814,-0.408 -1.764,-0.611 -2.849,-0.611l-0,0Zm1.322,31.946c-2.713,0 -5.211,-0.395 -7.494,-1.187c-2.284,-0.791 -4.251,-1.978 -5.901,-3.561c-1.651,-1.605 -2.939,-3.617 -3.866,-6.036c-0.905,-2.442 -1.357,-5.302 -1.357,-8.58c0,-3.324 0.418,-6.229 1.255,-8.716c0.836,-2.487 2.001,-4.555 3.493,-6.206c1.515,-1.673 3.323,-2.928 5.426,-3.764c2.125,-0.837 4.477,-1.255 7.054,-1.255c2.51,-0 4.77,0.384 6.783,1.153c2.034,0.746 3.753,1.854 5.154,3.323c1.425,1.47 2.51,3.278 3.256,5.426c0.769,2.125 1.153,4.567 1.153,7.325l0,5.02l-23.129,-0c0.045,1.447 0.271,2.758 0.679,3.934c0.429,1.153 1.017,2.136 1.763,2.95c0.769,0.791 1.685,1.402 2.747,1.831c1.085,0.43 2.318,0.645 3.697,0.645c1.153,0 2.238,-0.057 3.255,-0.17c1.04,-0.135 2.046,-0.328 3.019,-0.576c0.972,-0.249 1.933,-0.554 2.882,-0.916c0.95,-0.384 1.922,-0.825 2.917,-1.322l-0,8.003c-0.905,0.475 -1.82,0.882 -2.747,1.221c-0.905,0.317 -1.865,0.588 -2.883,0.814c-1.017,0.226 -2.114,0.384 -3.289,0.475c-1.176,0.113 -2.465,0.17 -3.867,0.17l0,-0.001Z" style="fill-rule:nonzero;"/><path id="path12559" d="M309.594,913.628c-1.944,0 -3.719,-0.418 -5.324,-1.255c-1.605,-0.836 -2.985,-2.068 -4.138,-3.696c-1.153,-1.651 -2.057,-3.697 -2.713,-6.138c-0.633,-2.442 -0.949,-5.268 -0.949,-8.479c-0,-3.255 0.316,-6.104 0.949,-8.546c0.656,-2.464 1.572,-4.521 2.747,-6.172c1.199,-1.673 2.623,-2.928 4.273,-3.764c1.651,-0.837 3.471,-1.255 5.46,-1.255c1.221,-0 2.34,0.147 3.358,0.44c1.017,0.272 1.933,0.668 2.747,1.187c0.814,0.498 1.537,1.086 2.17,1.764c0.656,0.656 1.232,1.379 1.73,2.17l0.339,0c-0.136,-0.881 -0.26,-1.774 -0.373,-2.679c-0.113,-0.768 -0.215,-1.582 -0.305,-2.442c-0.068,-0.881 -0.102,-1.695 -0.102,-2.441l0,-12.141l10.344,-0l-0,52.769l-7.902,-0l-2.001,-4.918l-0.441,0c-0.475,0.769 -1.018,1.504 -1.628,2.205c-0.61,0.678 -1.323,1.265 -2.136,1.763c-0.792,0.498 -1.696,0.893 -2.714,1.187c-0.994,0.294 -2.125,0.441 -3.391,0.441l0,0Zm3.765,-8.241c1.22,0 2.26,-0.203 3.12,-0.61c0.859,-0.43 1.548,-1.063 2.068,-1.899c0.543,-0.859 0.939,-1.922 1.187,-3.188c0.272,-1.266 0.419,-2.747 0.441,-4.443l0,-1.12c0,-1.831 -0.113,-3.459 -0.339,-4.883c-0.226,-1.424 -0.599,-2.611 -1.119,-3.561c-0.52,-0.972 -1.221,-1.707 -2.103,-2.204c-0.881,-0.498 -1.989,-0.747 -3.323,-0.747c-2.171,0 -3.765,0.984 -4.782,2.951c-1.017,1.944 -1.526,4.781 -1.526,8.512c0,3.73 0.509,6.534 1.526,8.41c1.04,1.854 2.657,2.781 4.85,2.781l-0,0.001Z" style="fill-rule:nonzero;"/><path id="path12561" d="M378.913,874.323c1.944,-0 3.719,0.418 5.324,1.255c1.605,0.836 2.984,2.08 4.137,3.73c1.153,1.651 2.046,3.697 2.68,6.138c0.655,2.442 0.983,5.268 0.983,8.479c0,3.255 -0.328,6.115 -0.983,8.58c-0.634,2.441 -1.538,4.488 -2.714,6.138c-1.175,1.65 -2.588,2.894 -4.239,3.73c-1.65,0.837 -3.47,1.255 -5.46,1.255c-1.266,0 -2.396,-0.136 -3.391,-0.407c-0.972,-0.272 -1.843,-0.634 -2.611,-1.086c-0.769,-0.452 -1.447,-0.96 -2.035,-1.526c-0.565,-0.588 -1.085,-1.198 -1.56,-1.831l-0.712,-0l-1.73,4.171l-7.902,0l0,-52.769l10.344,0l-0,12.277c-0,0.746 -0.023,1.56 -0.067,2.442c-0.045,0.859 -0.091,1.661 -0.136,2.408c-0.068,0.881 -0.136,1.763 -0.204,2.645l0.407,-0c0.475,-0.792 1.018,-1.526 1.628,-2.205c0.611,-0.678 1.311,-1.265 2.103,-1.763c0.814,-0.52 1.729,-0.927 2.747,-1.221c1.017,-0.294 2.148,-0.441 3.391,-0.441l-0,0.001Zm-3.493,8.275c-1.153,-0 -2.137,0.215 -2.951,0.645c-0.791,0.407 -1.436,1.028 -1.933,1.865c-0.497,0.836 -0.859,1.899 -1.085,3.188c-0.226,1.266 -0.362,2.747 -0.407,4.442l-0,1.12c-0,1.831 0.102,3.459 0.305,4.883c0.226,1.425 0.588,2.623 1.085,3.595c0.498,0.95 1.153,1.673 1.967,2.171c0.837,0.497 1.865,0.746 3.086,0.746c2.058,0 3.561,-0.972 4.511,-2.916c0.972,-1.967 1.458,-4.816 1.458,-8.547c0,-3.73 -0.486,-6.522 -1.458,-8.376c-0.95,-1.877 -2.476,-2.815 -4.578,-2.815l-0,-0.001Z" style="fill-rule:nonzero;"/><path id="path12563" d="M395.496,875.035l11.327,0l6.104,21.331c0.362,1.176 0.622,2.431 0.78,3.765c0.181,1.334 0.294,2.532 0.339,3.595l0.203,-0c0.047,-0.52 0.104,-1.097 0.17,-1.73c0.091,-0.633 0.192,-1.277 0.305,-1.933c0.113,-0.656 0.238,-1.3 0.373,-1.933c0.158,-0.656 0.317,-1.244 0.475,-1.764l5.969,-21.331l11.395,0l-14.99,42.765c-1.402,4.001 -3.312,6.974 -5.731,8.919c-2.42,1.944 -5.449,2.916 -9.089,2.916c-1.176,0 -2.193,-0.068 -3.052,-0.203c-0.859,-0.113 -1.594,-0.238 -2.205,-0.373l0,-8.207c0.475,0.113 1.074,0.215 1.798,0.305c0.723,0.09 1.481,0.135 2.272,0.135c1.085,0 2.012,-0.146 2.781,-0.44c0.768,-0.294 1.424,-0.712 1.967,-1.255c0.565,-0.52 1.04,-1.153 1.424,-1.899c0.407,-0.747 0.758,-1.583 1.051,-2.51l0.645,-1.899l-14.311,-38.254Z" style="fill-rule:nonzero;"/></g></g><g id="MidnightBSD1" serif:id="MidnightBSD"><g id="Logo"><path id="path16482" d="M455.441,146.372c-183.693,0 -332.605,148.913 -332.605,332.605c0,183.691 148.912,332.605 332.605,332.605c183.691,0 332.605,-148.914 332.605,-332.605c-0,-183.692 -148.914,-332.605 -332.605,-332.605Zm-0,633.361c-166.103,0 -300.758,-134.653 -300.758,-300.756c0,-166.103 134.655,-300.757 300.758,-300.757c166.103,-0 300.756,134.654 300.756,300.757c0,166.103 -134.653,300.756 -300.756,300.756Z" style="fill-rule:nonzero;"/><path id="path16484" d="M596.171,662.543c-1.12,-10.651 -3.973,-34.523 -7.024,-33.97c-3.238,0.591 -8.892,26.89 -10.758,36.004c5.992,-0.466 11.918,-1.156 17.782,-2.034Z" style="fill:none;fill-rule:nonzero;"/><g id="g16488"><path id="path16486" d="M626.465,656.037c-3.668,-1.987 -8.023,-4.256 -8.765,-5.495c-1.07,-1.781 -2.498,-50.627 0.714,-56.33c3.208,-5.707 13.189,-19.974 16.042,-28.883c2.856,-8.915 0.355,-33.867 -1.067,-40.287c-1.428,-6.418 7.526,-11.06 11.734,-11.901c2.565,-0.514 8.207,-2.565 9.303,-6.64c1.48,-5.52 6.772,-8.916 6.415,-17.114c-0.181,-4.235 -4.548,-7.302 -7.744,-12.187c-2.991,-4.572 -4.776,-11.044 -6.157,-12.77c-2.852,-3.563 -13.872,-10.435 -14.36,-13.669c-0.492,-3.235 -8.482,-22.421 -14.472,-21.567c-6.358,0.91 -6.557,22.25 -6.557,22.25c-0,-0 -17.442,5.813 -21.546,17.268c-2.918,8.154 -4.929,16.053 -8.72,21.544c-7.094,10.292 -16.179,15.127 -19.201,18.384c-4.634,4.99 -9.268,13.548 -17.113,14.973c-7.847,1.429 -19.482,5.456 -34.807,13.656c-15.334,8.204 -26.576,27.875 -29.073,40.353c-2.492,12.475 -6.295,33.686 -2.733,46.166c3.564,12.476 3.508,14.27 3.864,18.908c0.352,4.637 -17.597,-10.215 -21.73,-16.775c-5.265,-8.357 -14.976,-21.838 -13.082,-35.734c2.393,-17.554 12.472,-26.162 15.644,-34.029c11.282,-27.951 -24.929,-50.073 -29.237,-42.058c-4.273,7.952 29.748,16.412 18.208,37.704c-5.399,9.955 -14.361,18.98 -17.18,36.158c-3.227,19.668 12.602,45.759 17.036,53.254c-83.933,-40.02 -141.936,-125.646 -141.936,-224.825c-0,-78.979 36.79,-149.363 94.157,-194.967c-117.219,25.753 -204.95,130.198 -204.95,255.153c-0,144.287 116.966,261.251 261.251,261.251c80.945,0 153.282,-36.813 201.204,-94.608c-11.286,5.12 -23.034,9.41 -35.142,12.817Zm-37.318,-27.466c3.049,-0.553 5.904,23.319 7.024,33.97c-5.864,0.88 -11.792,1.57 -17.782,2.034c1.867,-9.112 7.52,-35.411 10.758,-36.004Z" style="fill-rule:nonzero;"/></g></g><g id="MidnightBSD2" serif:id="MidnightBSD"><path id="path16510" d="M45.576,1057.31l19.738,-0l37.895,87.632l0.315,0l38.212,-87.632l19.263,-0l0,111.79l-13.263,-0l0,-93.79l-0.317,-0l-40.106,93.792l-8.053,0l-40.105,-93.792l-0.316,-0l0,93.792l-13.263,0l-0,-111.792Z" style="fill:#fff;fill-rule:nonzero;"/><path id="path16512" d="M183.122,1057.31c5.052,-0 8.999,4.105 8.999,8.999c0,5.211 -3.788,9.001 -8.999,9.001c-5.212,-0 -9.001,-3.789 -9.001,-9.001c0,-4.894 3.947,-8.999 9.001,-8.999Zm-6.158,37.895l12.317,-0l-0,73.897l-12.317,0l0,-73.897Z" style="fill:#fff;fill-rule:nonzero;"/><path id="path16514" d="M263.885,1155.99l-0.318,-0c-4.578,8.369 -15.158,15 -28.42,15c-20.685,-0 -36.948,-16.737 -36.948,-38.841c0,-22.422 15.631,-38.844 38.843,-38.844c10.737,-0 19.736,4.737 26.526,12.632l0.317,-0l0,-56.212l12.317,0l-0,119.37l-12.317,-0l0,-13.105Zm-26.212,-51.316c-15.948,0 -26.211,12 -26.211,27.475c0,15.474 10.263,27.473 26.211,27.473c15.948,0 26.211,-12.002 26.211,-27.473c0,-15.473 -10.263,-27.475 -26.211,-27.475Z" style="fill:#fff;fill-rule:nonzero;"/><path id="path16516" d="M289.194,1112.73c0,-6.79 -0.631,-12.632 -0.631,-17.527l11.685,0c0,3.948 0.316,8.054 0.316,12.159l0.316,0c3.316,-7.264 12.474,-14.053 24.631,-14.053c19.422,0 28.106,12.317 28.106,30.158l-0,45.633l-12.317,0l0,-44.369c0,-12.315 -5.369,-20.052 -16.896,-20.052c-15.947,-0 -22.895,11.527 -22.895,28.421l0,36l-12.316,0l0.001,-56.37Z" style="fill:#fff;fill-rule:nonzero;"/><path id="path16518" d="M373.039,1057.31c5.053,-0 8.999,4.105 8.999,8.999c0,5.211 -3.789,9.001 -8.999,9.001c-5.211,-0 -9,-3.789 -9,-9.001c0,-4.894 3.949,-8.999 9,-8.999Zm-6.159,37.895l12.319,-0l-0,73.897l-12.319,0l-0,-73.897Z" style="fill:#fff;fill-rule:nonzero;"/><path id="path16520" d="M466.117,1165.78c0,26.685 -14.369,41.212 -40.262,41.212c-14.369,-0 -25.896,-3.791 -36.316,-14.054l8.842,-10.105c7.736,8.368 16.107,12.791 27.475,12.791c22.105,-0 27.947,-14.211 27.947,-29.844l0,-9.472l-0.316,-0c-5.842,9.472 -16.264,13.736 -26.054,13.736c-23.21,-0 -39.316,-16.105 -39.316,-37.895c0,-24.159 15.791,-38.844 39.316,-38.844c9.95,-0 21.16,4.737 26.054,14.527l0.316,-0l0,-12.632l12.317,-0l-0.003,70.58Zm-38.684,-7.106c16.898,0 26.37,-12.632 26.37,-26.842c0,-15.948 -10.738,-27.158 -26.37,-27.158c-15.474,0 -26.05,12 -26.05,27.474c-0.001,15.001 11.681,26.526 26.05,26.526Z" style="fill:#fff;fill-rule:nonzero;"/><path id="path16522" d="M478.985,1049.73l12.32,0l0,55.739l0.316,0c3.316,-5.842 12.158,-12.158 23.683,-12.158c19.422,0 28.105,12.316 28.105,30.158l0,45.631l-12.315,-0l-0,-44.368c-0,-12.316 -5.371,-20.053 -16.896,-20.053c-15.948,0 -22.895,11.527 -22.895,28.421l-0,36.001l-12.318,-0l0,-119.371Z" style="fill:#fff;fill-rule:nonzero;"/><path id="path16524" d="M596.212,1105.62l-21.791,0l-0,36.948c-0,9.475 0.157,17.055 11.052,17.055c3.633,-0 7.58,-0.79 10.897,-2.527l0.473,11.212c-4.261,1.892 -9.789,2.683 -14.369,2.683c-17.528,-0 -20.37,-9.473 -20.37,-24.79l0,-40.58l-16.106,0l0,-10.423l16.106,-0l0,-20.998l12.318,-0l-0,20.999l21.79,-0l-0,10.421Z" style="fill:#fff;fill-rule:nonzero;"/><path id="path16526" d="M602.54,1057.31l34.107,-0c18.473,-0 37.105,6.948 37.105,27.475c0,12.946 -7.579,21.631 -19.578,25.262l0,0.316c14.369,1.264 25.264,12.789 25.264,27.475c0,24.63 -22.895,31.263 -43.579,31.263l-33.318,-0l0,-111.791l-0.001,-0Zm13.263,47.369l18.316,0c12.473,0 25.42,-2.684 25.42,-18.158c-0,-13.736 -12,-16.895 -23.999,-16.895l-19.737,0l0,35.053Zm0,52.107l22.421,-0c12.948,-0 27.001,-5.211 27.001,-19.422c-0,-15.631 -13.264,-20.369 -26.684,-20.369l-22.738,-0l0,39.791Z" style="fill:#fff;fill-rule:nonzero;"/><path id="path16528" d="M742.896,1077.05c-4.422,-7.106 -12.318,-10.263 -20.37,-10.263c-11.684,-0 -23.842,5.526 -23.842,18.79c-0,10.263 5.684,14.842 23.526,20.527c17.368,5.526 33.475,11.209 33.475,33.159c0,22.263 -19.106,32.683 -39.317,32.683c-12.947,-0 -26.843,-4.263 -34.423,-15.473l11.369,-9.316c4.738,8.211 14.211,12.474 23.843,12.474c11.367,-0 24.315,-6.632 24.315,-19.422c-0,-13.738 -9.315,-16.107 -29.212,-22.737c-15.789,-5.212 -27.787,-12.159 -27.787,-30.791c-0,-21.474 18.472,-32.211 38.053,-32.211c12.474,0 23.053,3.474 31.263,13.105l-10.893,9.475Z" style="fill:#fff;fill-rule:nonzero;"/><path id="path16530" d="M765.157,1057.31l42.949,-0c21.947,-0 54.791,14.684 54.791,55.896c-0,41.212 -32.843,55.896 -54.791,55.896l-42.949,0l0,-111.792Zm13.266,99.476l25.264,-0c25.579,-0 45,-12.947 45,-43.58c-0,-30.633 -19.421,-43.58 -45,-43.58l-25.264,0l0,87.16Z" style="fill:#fff;fill-rule:nonzero;"/><path id="path16532" d="M491.28,1193.77l-6.947,-0l-0,15.841c-0,2.157 1.263,3.421 3.367,3.421c1.211,0 2.472,-0.37 3.58,-0.843l0.262,2.842c-1.157,0.423 -2.895,0.843 -4.105,0.843c-4.527,-0 -6.263,-2.789 -6.263,-6.263l-0,-15.841l-5.264,-0l0,-2.841l5.264,0l-0,-7l3.157,-0l0,7l6.948,0l-0,2.841l0.001,-0Z" style="fill:#fff;fill-rule:nonzero;"/><path id="path16534" d="M491.9,1175.45l3.158,0l-0,19.734l0.104,0c1.266,-2.684 4.37,-4.894 8.316,-4.894c7.578,0 9.262,5.158 9.262,10.473l-0,14.472l-3.157,0l0,-14.315c0,-3.947 -1.106,-7.788 -6.105,-7.788c-4.684,0 -8.42,3.263 -8.42,9.948l-0,12.156l-3.158,0l0,-39.786Z" style="fill:#fff;fill-rule:nonzero;"/><path id="path16536" d="M537.309,1210.66c-2.472,3.683 -6.209,5.211 -10.524,5.211c-7.422,-0 -12.316,-5.316 -12.316,-12.842c-0,-7.262 5.053,-12.734 12.157,-12.734c7.473,-0 11.42,5.735 11.42,11.366l-0,2.21l-20.42,0c0,2.631 1.841,9.157 9.209,9.157c3.21,-0 6.578,-1.685 8.156,-4.316l2.318,1.948Zm-2.421,-9.629c0,-4.316 -3.736,-7.895 -8.42,-7.895c-6.894,0 -8.842,6.631 -8.842,7.895l17.262,-0Z" style="fill:#fff;fill-rule:nonzero;"/><path id="path16538" d="M549.154,1175.45l3.158,0l-0,19.734l0.105,0c1.947,-3.366 6.105,-4.894 9.737,-4.894c7.471,0 12.788,5.367 12.788,12.788c-0,7.421 -5.317,12.788 -12.788,12.788c-3.633,0 -7.789,-1.527 -9.737,-4.893l-0.105,-0l-0,4.261l-3.158,0l0,-39.784Zm13,37.576c5.946,-0 9.629,-4.474 9.629,-9.948c0,-5.473 -3.683,-9.947 -9.629,-9.947c-5.737,0 -10.158,4.473 -10.158,9.947c0,5.474 4.421,9.948 10.158,9.948Z" style="fill:#fff;fill-rule:nonzero;"/><path id="path16540" d="M576.94,1209.03c1.313,2.579 4.209,4 7.051,4c2.736,-0 5.577,-1.685 5.577,-4.474c0,-6.683 -14.419,-1.999 -14.419,-11.261c-0,-4.737 4.314,-6.999 8.315,-6.999c3.947,-0 6.999,1.474 8.579,4.578l-2.843,1.683c-1.21,-2.209 -2.895,-3.42 -5.736,-3.42c-2.263,0 -5.158,1.369 -5.158,3.897c0,6.577 14.421,1.473 14.421,11.312c-0,5.001 -4.158,7.527 -8.789,7.527c-4.159,-0 -7.896,-1.581 -9.789,-4.947l2.791,-1.896Z" style="fill:#fff;fill-rule:nonzero;"/><path id="path16542" d="M615.446,1210.98l-0.106,-0c-1.946,3.367 -6.104,4.895 -9.736,4.895c-7.473,-0 -12.788,-5.368 -12.788,-12.788c0,-7.422 5.316,-12.788 12.788,-12.788c3.632,-0 7.789,1.527 9.736,4.894l0.106,-0l0,-19.734l3.158,-0l-0,39.784l-3.158,0l0,-4.263Zm-9.839,-17.841c-5.949,0 -9.631,4.473 -9.631,9.948c-0,5.472 3.682,9.947 9.631,9.947c5.736,0 10.155,-4.474 10.155,-9.947c-0,-5.475 -4.419,-9.948 -10.155,-9.948Z" style="fill:#fff;fill-rule:nonzero;"/><path id="path16544" d="M632.872,1193.77l-5.054,-0l0,-2.841l5.054,0l-0,-7.947c-0,-6.263 4.157,-8.158 7.262,-8.158c1.527,0 2.684,0.209 3.631,0.631l-0.63,2.737c-0.735,-0.369 -1.631,-0.527 -2.842,-0.527c-2.896,-0 -4.261,2.106 -4.261,6.474l-0,6.79l5.681,0l-0,2.842l-5.681,-0l-0,21.472l-3.158,-0l-0.002,-21.473Z" style="fill:#fff;fill-rule:nonzero;"/><path id="path16546" d="M652.29,1190.29c7.472,-0 12.788,5.366 12.788,12.788c0,7.42 -5.316,12.788 -12.788,12.788c-7.472,-0 -12.788,-5.368 -12.788,-12.788c0,-7.422 5.316,-12.788 12.788,-12.788Zm0,22.734c5.948,-0 9.631,-4.474 9.631,-9.948c-0,-5.473 -3.683,-9.947 -9.631,-9.947c-5.947,0 -9.63,4.473 -9.63,9.947c-0,5.474 3.684,9.948 9.63,9.948Z" style="fill:#fff;fill-rule:nonzero;"/><path id="path16548" d="M666.844,1197.77c-0,-1.789 -0.264,-5.578 -0.264,-6.839l3.158,0c0.053,1.789 0.107,3.789 0.21,4.26c1.579,-2.843 4.107,-4.894 7.736,-4.894c0.631,0 1.212,0.107 1.842,0.264l-0.368,3.103c-0.475,-0.157 -0.896,-0.21 -1.212,-0.21c-5.472,-0 -7.947,3.789 -7.947,8.527l-0,13.261l-3.157,0l0.002,-17.472Z" style="fill:#fff;fill-rule:nonzero;"/><path id="path16550" d="M710.58,1210.66c-2.475,3.683 -6.212,5.211 -10.528,5.211c-7.419,-0 -12.314,-5.316 -12.314,-12.842c-0,-7.262 5.052,-12.734 12.156,-12.734c7.474,-0 11.42,5.735 11.42,11.366l-0,2.21l-20.419,0c0,2.631 1.841,9.157 9.209,9.157c3.21,-0 6.577,-1.685 8.156,-4.316l2.32,1.948Zm-2.421,-9.629c-0,-4.316 -3.737,-7.895 -8.422,-7.895c-6.893,0 -8.841,6.631 -8.841,7.895l17.263,-0Z" style="fill:#fff;fill-rule:nonzero;"/><path id="path16552" d="M709.299,1190.93l3.577,0l8.106,20.891l7.893,-20.891l3.21,0l-9.578,24.311l-3.262,0l-9.946,-24.311Z" style="fill:#fff;fill-rule:nonzero;"/><path id="path16554" d="M752.74,1210.66c-2.475,3.683 -6.211,5.211 -10.527,5.211c-7.42,-0 -12.315,-5.316 -12.315,-12.842c-0,-7.262 5.053,-12.734 12.156,-12.734c7.475,-0 11.421,5.735 11.421,11.366l-0,2.21l-20.42,0c0,2.631 1.842,9.157 9.21,9.157c3.209,-0 6.576,-1.685 8.156,-4.316l2.319,1.948Zm-2.42,-9.629c-0,-4.316 -3.737,-7.895 -8.422,-7.895c-6.892,0 -8.842,6.631 -8.842,7.895l17.264,-0Z" style="fill:#fff;fill-rule:nonzero;"/><path id="path16556" d="M755.341,1197.77c-0,-1.789 -0.264,-5.578 -0.264,-6.839l3.159,0c0.052,1.789 0.106,3.789 0.209,4.26c1.58,-2.843 4.107,-4.894 7.736,-4.894c0.631,0 1.211,0.107 1.841,0.264l-0.367,3.103c-0.476,-0.157 -0.896,-0.21 -1.212,-0.21c-5.472,-0 -7.946,3.789 -7.946,8.527l-0,13.261l-3.159,0l0.003,-17.472Z" style="fill:#fff;fill-rule:nonzero;"/><path id="path16558" d="M777.867,1222.76c-1.211,3.104 -3.209,5.104 -6.684,5.104c-1.051,0 -2.104,-0.212 -3.104,-0.474l0.317,-2.948c0.894,0.263 1.894,0.58 2.842,0.58c2.315,0 3.314,-2.158 4.053,-4.052l2.208,-5.632l-9.894,-24.418l3.526,-0l8.053,20.471l7.839,-20.471l3.37,-0l-12.526,31.84Z" style="fill:#fff;fill-rule:nonzero;"/><path id="path16560" d="M800.966,1190.29c7.472,-0 12.788,5.366 12.788,12.788c0,7.42 -5.316,12.788 -12.788,12.788c-7.473,-0 -12.788,-5.368 -12.788,-12.788c0,-7.422 5.316,-12.788 12.788,-12.788Zm0,22.734c5.948,-0 9.631,-4.474 9.631,-9.948c-0,-5.473 -3.683,-9.947 -9.631,-9.947c-5.947,0 -9.63,4.473 -9.63,9.947c0.001,5.474 3.683,9.948 9.63,9.948Z" style="fill:#fff;fill-rule:nonzero;"/><path id="path16562" d="M815.521,1197.77c0,-1.789 -0.263,-5.578 -0.263,-6.839l3.158,0c0.052,1.789 0.105,3.789 0.209,4.26l0.158,0c1.263,-2.684 4.367,-4.894 8.314,-4.894c7.58,0 9.262,5.158 9.262,10.473l0,14.472l-3.156,0l0,-14.315c0,-3.947 -1.105,-7.788 -6.106,-7.788c-4.684,0 -8.418,3.263 -8.418,9.948l-0,12.156l-3.159,0l0.001,-17.473Z" style="fill:#fff;fill-rule:nonzero;"/><path id="path16564" d="M860.93,1210.66c-2.474,3.683 -6.212,5.211 -10.526,5.211c-7.42,-0 -12.315,-5.316 -12.315,-12.842c-0,-7.262 5.052,-12.734 12.156,-12.734c7.474,-0 11.419,5.735 11.419,11.366l0,2.21l-20.418,0c-0,2.631 1.84,9.157 9.208,9.157c3.211,-0 6.578,-1.685 8.157,-4.316l2.319,1.948Zm-2.419,-9.629c-0,-4.316 -3.738,-7.895 -8.423,-7.895c-6.893,0 -8.841,6.631 -8.841,7.895l17.264,-0Z" style="fill:#fff;fill-rule:nonzero;"/></g></g></g></svg>