<?xml version="1.0" encoding="UTF-8" standalone="no"?><!DOCTYPE svg PUBLIC "-//W3C//DTD SVG 1.1//EN" "http://www.w3.org/Graphics/SVG/1.1/DTD/svg11.dtd"><svg width="100%" height="100%" viewBox="0 0 907 1352" version="1.1" xmlns="http://www.w3.org/2000/svg" xmlns:xlink="http://www.w3.org/1999/xlink" xml:space="preserve" xmlns:serif="http://www.serif.com/" style="fill-rule:evenodd;clip-rule:evenodd;stroke-linejoin:round;stroke-miterlimit:2;"><rect id="Nobara" x="0" y="-0" width="906.667" height="1351.11" style="fill:none;"/><clipPath id="_clip1"><rect x="0" y="-0" width="906.667" height="1351.11"/></clipPath><g clip-path="url(#_clip1)"><g id="READ-ME" serif:id="READ ME"><g id="Frame"><path id="path3892" d="M363.221,8.889l180.221,-0c196.3,-0 354.333,36.929 354.333,82.8l-0,1167.73c-0,45.871 -158.033,82.8 -354.333,82.8l-180.221,0c-196.3,0 -354.332,-36.929 -354.332,-82.8l-0,-1167.73c-0,-45.871 158.032,-82.8 354.332,-82.8Z" style="fill:#fff;fill-rule:nonzero;"/><path id="path3894" d="M363.229,-0.003c-98.707,0 -187.781,9.235 -252.807,24.43c-32.512,7.597 -58.999,16.617 -78.086,27.197c-9.544,5.291 -17.286,10.978 -22.976,17.509c-5.691,6.531 -9.366,14.275 -9.366,22.561l-0,1167.72c-0,8.286 3.675,16.053 9.366,22.584c5.69,6.531 13.432,12.195 22.976,17.486c19.087,10.58 45.574,19.6 78.086,27.197c65.026,15.195 154.1,24.43 252.807,24.43l180.21,-0c98.708,-0 187.782,-9.235 252.807,-24.43c32.513,-7.597 58.999,-16.617 78.086,-27.197c9.544,-5.291 17.287,-10.955 22.977,-17.486c5.69,-6.531 9.365,-14.298 9.365,-22.584l0,-1167.72c0,-8.286 -3.675,-16.03 -9.365,-22.561c-5.69,-6.531 -13.433,-12.218 -22.977,-17.509c-19.087,-10.58 -45.573,-19.6 -78.086,-27.197c-65.025,-15.195 -154.099,-24.43 -252.807,-24.43l-180.21,0Zm-0,17.786l180.21,0c97.593,0 185.704,9.231 248.77,23.968c31.533,7.369 56.818,16.177 73.496,25.422c8.339,4.622 14.482,9.364 18.201,13.633c3.719,4.269 4.983,7.706 4.983,10.888l-0,1167.72c-0,3.182 -1.264,6.62 -4.983,10.888c-3.719,4.269 -9.862,9.011 -18.201,13.634c-16.678,9.245 -41.963,18.052 -73.496,25.421c-63.066,14.737 -151.177,23.968 -248.77,23.968l-180.21,0c-97.593,0 -185.704,-9.231 -248.77,-23.968c-31.533,-7.369 -56.818,-16.176 -73.496,-25.421c-8.339,-4.623 -14.482,-9.365 -18.201,-13.634c-3.719,-4.268 -4.982,-7.706 -4.982,-10.888l-0,-1167.72c-0,-3.182 1.263,-6.619 4.982,-10.888c3.719,-4.269 9.862,-9.011 18.201,-13.633c16.678,-9.245 41.963,-18.053 73.496,-25.422c63.066,-14.737 151.177,-23.968 248.77,-23.968Z" style="fill-rule:nonzero;"/></g><g id="Bottom"><path id="path4063" d="M371.601,946.174l163.465,0c199.609,0 360.305,38.151 360.305,85.54l0,218.992c0,47.389 -160.696,85.54 -360.305,85.54l-163.465,-0c-199.609,-0 -360.305,-38.151 -360.305,-85.54l-0,-218.992c-0,-47.389 160.696,-85.54 360.305,-85.54Z" style="fill-rule:nonzero;"/><path id="path3900" d="M371.603,938.42c-100.299,0 -190.806,9.547 -256.798,25.214c-32.996,7.833 -59.838,17.123 -79.078,27.959c-19.241,10.835 -32.181,23.882 -32.181,40.116l0,218.988c0,16.233 12.94,29.303 32.181,40.139c19.24,10.836 46.082,20.125 79.078,27.959c65.992,15.667 156.499,25.214 256.798,25.214l163.462,-0c100.299,-0 190.806,-9.547 256.798,-25.214c32.996,-7.834 59.838,-17.123 79.078,-27.959c19.241,-10.836 32.181,-23.906 32.181,-40.139l-0,-218.988c-0,-16.234 -12.94,-29.281 -32.181,-40.116c-19.24,-10.836 -46.082,-20.126 -79.078,-27.959c-65.992,-15.667 -156.499,-25.214 -256.798,-25.214l-163.462,0Zm-0,15.525l163.462,0c99.31,0 188.964,9.52 253.222,24.776c32.129,7.627 57.914,16.744 75.042,26.39c17.127,9.645 24.291,19.136 24.291,26.598l-0,218.988c-0,7.461 -7.164,16.952 -24.291,26.598c-17.128,9.646 -42.913,18.762 -75.042,26.39c-64.258,15.256 -153.912,24.799 -253.222,24.799l-163.462,-0c-99.31,-0 -188.964,-9.543 -253.222,-24.799c-32.129,-7.628 -57.914,-16.744 -75.042,-26.39c-17.127,-9.646 -24.291,-19.137 -24.291,-26.598l0,-218.988c0,-7.462 7.164,-16.953 24.291,-26.598c17.128,-9.646 42.913,-18.763 75.042,-26.39c64.258,-15.256 153.912,-24.776 253.222,-24.776Z" style="fill-rule:nonzero;"/></g><g id="Powered-By" serif:id="Powered By"><path id="path12547" d="M59.75,886.702l2.069,0c2.962,0 5.189,-0.588 6.681,-1.763c1.515,-1.176 2.272,-3.087 2.272,-5.732c-0,-2.464 -0.678,-4.284 -2.035,-5.46c-1.334,-1.176 -3.436,-1.763 -6.308,-1.763l-2.679,-0l0,14.718Zm21.671,-7.868c-0,2.171 -0.328,4.251 -0.984,6.24c-0.655,1.99 -1.741,3.742 -3.255,5.257c-1.493,1.515 -3.471,2.724 -5.935,3.628c-2.442,0.905 -5.472,1.357 -9.089,1.357l-2.408,-0l0,17.635l-10.513,-0l0,-49.581l13.769,-0c3.188,-0 5.935,0.362 8.241,1.085c2.328,0.701 4.239,1.718 5.731,3.052c1.515,1.312 2.634,2.928 3.358,4.85c0.723,1.899 1.085,4.058 1.085,6.477l-0,0Z" style="fill-rule:nonzero;"/><path id="path12549" d="M98.581,893.926c-0,3.775 0.531,6.624 1.594,8.546c1.062,1.899 2.792,2.848 5.189,2.848c2.373,0 4.092,-0.96 5.154,-2.882c1.063,-1.922 1.594,-4.759 1.594,-8.512c0,-3.776 -0.531,-6.591 -1.594,-8.445c-1.062,-1.876 -2.803,-2.815 -5.222,-2.815c-2.374,0 -4.092,0.939 -5.155,2.815c-1.04,1.854 -1.56,4.669 -1.56,8.445Zm24.078,-0c0,3.165 -0.407,5.968 -1.221,8.41c-0.791,2.442 -1.944,4.499 -3.459,6.172c-1.492,1.673 -3.323,2.951 -5.494,3.832c-2.148,0.86 -4.567,1.289 -7.257,1.289c-2.51,0 -4.816,-0.429 -6.918,-1.289c-2.103,-0.881 -3.923,-2.159 -5.46,-3.832c-1.515,-1.673 -2.702,-3.73 -3.561,-6.172c-0.859,-2.442 -1.289,-5.245 -1.289,-8.41c-0,-3.143 0.396,-5.935 1.187,-8.377c0.814,-2.442 1.967,-4.488 3.459,-6.138c1.515,-1.673 3.346,-2.939 5.494,-3.799c2.148,-0.859 4.578,-1.288 7.291,-1.288c2.51,-0 4.816,0.429 6.919,1.288c2.102,0.86 3.911,2.126 5.426,3.799c1.537,1.65 2.735,3.696 3.595,6.138c0.859,2.442 1.288,5.234 1.288,8.377Z" style="fill-rule:nonzero;"/><path id="path12551" d="M160.54,912.951l-2.916,-13.26c-0.091,-0.384 -0.215,-0.927 -0.373,-1.628c-0.136,-0.724 -0.294,-1.526 -0.475,-2.408c-0.181,-0.904 -0.373,-1.854 -0.576,-2.849c-0.181,-1.017 -0.373,-2.023 -0.577,-3.018c-0.452,-2.329 -0.95,-4.838 -1.492,-7.529l-0.204,0c-0.52,2.691 -0.994,5.212 -1.424,7.563c-0.181,0.995 -0.373,2.001 -0.576,3.018c-0.181,1.018 -0.362,1.979 -0.543,2.883c-0.181,0.882 -0.35,1.684 -0.509,2.408c-0.135,0.723 -0.248,1.289 -0.339,1.695l-3.052,13.125l-11.124,-0l-10.208,-37.915l10.276,-0l3.832,16.787c0.204,0.882 0.407,1.944 0.611,3.188c0.226,1.221 0.429,2.464 0.61,3.73c0.204,1.244 0.384,2.431 0.543,3.561c0.158,1.108 0.282,1.99 0.373,2.645l0.203,0c0.023,-0.43 0.068,-0.983 0.136,-1.661c0.09,-0.701 0.192,-1.447 0.305,-2.239c0.113,-0.791 0.226,-1.594 0.339,-2.408c0.136,-0.836 0.26,-1.616 0.373,-2.34c0.136,-0.723 0.249,-1.356 0.339,-1.899c0.113,-0.565 0.204,-0.961 0.272,-1.187l4.137,-18.177l11.395,-0l3.968,18.177c0.113,0.498 0.26,1.267 0.441,2.306c0.181,1.04 0.361,2.16 0.542,3.358c0.204,1.176 0.373,2.329 0.509,3.459c0.136,1.108 0.215,1.978 0.237,2.611l0.204,0c0.068,-0.565 0.181,-1.402 0.339,-2.509c0.181,-1.108 0.373,-2.295 0.576,-3.561c0.204,-1.289 0.419,-2.566 0.645,-3.832c0.249,-1.266 0.475,-2.34 0.678,-3.222l3.968,-16.787l10.14,-0l-10.343,37.915l-11.26,-0Z" style="fill-rule:nonzero;"/><path id="path12553" d="M202.898,881.683c-1.831,-0 -3.357,0.644 -4.578,1.933c-1.198,1.289 -1.888,3.312 -2.069,6.07l13.192,0c-0.022,-1.153 -0.169,-2.215 -0.441,-3.187c-0.271,-0.973 -0.678,-1.809 -1.22,-2.51c-0.543,-0.724 -1.221,-1.289 -2.035,-1.696c-0.814,-0.407 -1.764,-0.61 -2.849,-0.61l0,-0Zm1.323,31.946c-2.713,0 -5.212,-0.395 -7.495,-1.187c-2.284,-0.791 -4.251,-1.978 -5.901,-3.561c-1.65,-1.605 -2.939,-3.617 -3.866,-6.036c-0.905,-2.442 -1.357,-5.302 -1.357,-8.58c0,-3.324 0.419,-6.229 1.255,-8.716c0.837,-2.487 2.001,-4.556 3.493,-6.206c1.515,-1.673 3.324,-2.928 5.426,-3.765c2.126,-0.836 4.477,-1.254 7.054,-1.254c2.51,-0 4.771,0.384 6.783,1.152c2.035,0.747 3.753,1.855 5.155,3.324c1.424,1.47 2.509,3.278 3.255,5.426c0.769,2.125 1.153,4.567 1.153,7.325l0,5.019l-23.128,0c0.044,1.447 0.271,2.759 0.678,3.934c0.429,1.153 1.017,2.137 1.763,2.951c0.769,0.791 1.685,1.402 2.747,1.831c1.086,0.43 2.318,0.645 3.697,0.645c1.153,-0 2.238,-0.057 3.256,-0.17c1.04,-0.136 2.046,-0.328 3.018,-0.576c0.972,-0.249 1.933,-0.554 2.882,-0.916c0.95,-0.384 1.922,-0.825 2.917,-1.322l-0,8.003c-0.904,0.475 -1.82,0.882 -2.747,1.221c-0.904,0.317 -1.865,0.588 -2.883,0.814c-1.017,0.226 -2.114,0.384 -3.289,0.475c-1.176,0.113 -2.465,0.17 -3.866,0.17l-0,-0.001Z" style="fill-rule:nonzero;"/><path id="path12555" d="M247.698,874.324c0.271,-0 0.565,0.011 0.881,0.035c0.339,0 0.656,0.024 0.95,0.071c0.316,0.024 0.599,0.059 0.848,0.106c0.271,0.024 0.474,0.059 0.61,0.107l-0,9.699c-0.181,-0.047 -0.43,-0.093 -0.746,-0.136c-0.317,-0.047 -0.656,-0.083 -1.018,-0.106c-0.339,-0.048 -0.678,-0.071 -1.017,-0.071c-0.339,-0.024 -0.622,-0.036 -0.848,-0.036c-1.334,0 -2.566,0.17 -3.696,0.509c-1.108,0.34 -2.069,0.894 -2.883,1.662c-0.791,0.747 -1.413,1.741 -1.865,2.984c-0.43,1.221 -0.645,2.725 -0.645,4.511l0,19.297l-10.343,-0l-0,-37.915l7.834,-0l1.526,5.697l0.509,0c0.542,-0.972 1.13,-1.854 1.763,-2.645c0.633,-0.791 1.334,-1.458 2.103,-2.001c0.791,-0.565 1.673,-0.995 2.645,-1.289c0.995,-0.316 2.125,-0.475 3.391,-0.475l0.001,-0.004Z" style="fill-rule:nonzero;"/><path id="path12557" d="M273.404,881.683c-1.832,-0 -3.358,0.644 -4.579,1.933c-1.198,1.289 -1.887,3.312 -2.068,6.07l13.192,0c-0.023,-1.153 -0.17,-2.215 -0.441,-3.187c-0.271,-0.973 -0.678,-1.809 -1.221,-2.51c-0.542,-0.724 -1.221,-1.289 -2.035,-1.696c-0.813,-0.407 -1.763,-0.61 -2.848,-0.61l-0,-0Zm1.322,31.946c-2.713,0 -5.211,-0.395 -7.494,-1.187c-2.284,-0.791 -4.251,-1.978 -5.901,-3.561c-1.651,-1.605 -2.94,-3.617 -3.866,-6.036c-0.905,-2.442 -1.357,-5.302 -1.357,-8.58c-0,-3.324 0.418,-6.229 1.255,-8.716c0.836,-2.487 2.001,-4.556 3.493,-6.206c1.515,-1.673 3.323,-2.928 5.426,-3.765c2.125,-0.836 4.477,-1.254 7.054,-1.254c2.51,-0 4.77,0.384 6.783,1.152c2.034,0.747 3.753,1.855 5.154,3.324c1.425,1.47 2.51,3.278 3.256,5.426c0.769,2.125 1.153,4.567 1.153,7.325l0,5.019l-23.129,0c0.045,1.447 0.271,2.759 0.679,3.934c0.429,1.153 1.017,2.137 1.763,2.951c0.769,0.791 1.684,1.402 2.747,1.831c1.085,0.43 2.317,0.645 3.697,0.645c1.153,-0 2.238,-0.057 3.255,-0.17c1.04,-0.136 2.046,-0.328 3.018,-0.576c0.973,-0.249 1.934,-0.554 2.883,-0.916c0.95,-0.384 1.922,-0.825 2.917,-1.322l-0,8.003c-0.905,0.475 -1.82,0.882 -2.747,1.221c-0.905,0.317 -1.866,0.588 -2.883,0.814c-1.017,0.226 -2.114,0.384 -3.29,0.475c-1.175,0.113 -2.464,0.17 -3.866,0.17l0,-0.001Z" style="fill-rule:nonzero;"/><path id="path12559" d="M309.589,913.629c-1.944,0 -3.719,-0.418 -5.324,-1.255c-1.605,-0.836 -2.985,-2.068 -4.138,-3.696c-1.153,-1.651 -2.057,-3.697 -2.713,-6.138c-0.633,-2.442 -0.949,-5.268 -0.949,-8.479c-0,-3.255 0.316,-6.104 0.949,-8.546c0.656,-2.464 1.572,-4.522 2.747,-6.172c1.199,-1.673 2.623,-2.928 4.273,-3.765c1.651,-0.836 3.471,-1.254 5.46,-1.254c1.221,-0 2.34,0.146 3.358,0.44c1.017,0.272 1.933,0.668 2.747,1.187c0.814,0.498 1.537,1.086 2.17,1.764c0.656,0.656 1.232,1.379 1.73,2.17l0.339,0c-0.136,-0.882 -0.26,-1.775 -0.373,-2.679c-0.113,-0.769 -0.215,-1.582 -0.305,-2.442c-0.068,-0.882 -0.102,-1.695 -0.102,-2.442l0,-12.141l10.344,0l-0,52.77l-7.902,-0l-2.001,-4.918l-0.441,0c-0.475,0.769 -1.017,1.503 -1.628,2.205c-0.61,0.677 -1.323,1.265 -2.136,1.763c-0.792,0.498 -1.696,0.893 -2.713,1.187c-0.995,0.294 -2.126,0.44 -3.392,0.44l0,0.001Zm3.765,-8.241c1.22,0 2.26,-0.203 3.12,-0.61c0.859,-0.43 1.548,-1.063 2.068,-1.899c0.543,-0.86 0.939,-1.922 1.187,-3.188c0.272,-1.266 0.419,-2.747 0.441,-4.443l0,-1.12c0,-1.831 -0.113,-3.459 -0.339,-4.883c-0.226,-1.425 -0.599,-2.612 -1.119,-3.561c-0.52,-0.972 -1.221,-1.707 -2.103,-2.204c-0.881,-0.498 -1.989,-0.747 -3.323,-0.747c-2.171,0 -3.764,0.984 -4.782,2.951c-1.017,1.944 -1.526,4.781 -1.526,8.512c0,3.73 0.509,6.534 1.526,8.41c1.04,1.854 2.657,2.781 4.85,2.781l-0,0.001Z" style="fill-rule:nonzero;"/><path id="path12561" d="M378.908,874.324c1.944,-0 3.719,0.418 5.324,1.254c1.606,0.837 2.985,2.08 4.138,3.731c1.153,1.65 2.046,3.697 2.679,6.138c0.656,2.442 0.983,5.268 0.983,8.479c0,3.255 -0.327,6.115 -0.983,8.58c-0.633,2.441 -1.538,4.487 -2.713,6.138c-1.176,1.65 -2.589,2.894 -4.239,3.73c-1.651,0.837 -3.471,1.255 -5.46,1.255c-1.266,0 -2.397,-0.136 -3.392,-0.407c-0.972,-0.272 -1.842,-0.634 -2.611,-1.086c-0.769,-0.452 -1.447,-0.96 -2.035,-1.526c-0.565,-0.588 -1.085,-1.198 -1.56,-1.831l-0.712,-0l-1.73,4.171l-7.901,0l-0,-52.769l10.343,0l0,12.277c0,0.746 -0.022,1.56 -0.067,2.442c-0.045,0.859 -0.09,1.661 -0.136,2.407c-0.068,0.882 -0.135,1.764 -0.203,2.646l0.407,-0c0.474,-0.792 1.017,-1.526 1.627,-2.205c0.611,-0.678 1.312,-1.266 2.103,-1.763c0.814,-0.52 1.73,-0.927 2.747,-1.221c1.017,-0.294 2.148,-0.441 3.391,-0.441l-0,0.001Zm-3.493,8.275c-1.153,-0 -2.137,0.215 -2.951,0.644c-0.791,0.408 -1.435,1.029 -1.933,1.866c-0.497,0.836 -0.859,1.899 -1.085,3.188c-0.226,1.266 -0.362,2.746 -0.407,4.442l0,1.12c0,1.831 0.102,3.459 0.305,4.883c0.226,1.425 0.588,2.623 1.086,3.595c0.497,0.95 1.153,1.673 1.967,2.171c0.836,0.497 1.865,0.746 3.086,0.746c2.057,-0 3.561,-0.972 4.51,-2.917c0.972,-1.967 1.458,-4.815 1.458,-8.546c0,-3.73 -0.486,-6.522 -1.458,-8.376c-0.949,-1.877 -2.476,-2.815 -4.578,-2.815l-0,-0.001Z" style="fill-rule:nonzero;"/><path id="path12563" d="M395.492,875.036l11.327,-0l6.104,21.331c0.361,1.176 0.621,2.431 0.779,3.765c0.182,1.334 0.295,2.532 0.339,3.594l0.204,0c0.047,-0.519 0.104,-1.096 0.17,-1.729c0.09,-0.633 0.192,-1.278 0.304,-1.933c0.114,-0.656 0.238,-1.3 0.374,-1.933c0.158,-0.656 0.316,-1.244 0.474,-1.764l5.969,-21.331l11.395,-0l-14.99,42.764c-1.401,4.002 -3.312,6.975 -5.731,8.92c-2.419,1.944 -5.449,2.916 -9.089,2.916c-1.175,0 -2.193,-0.068 -3.052,-0.203c-0.859,-0.113 -1.594,-0.238 -2.204,-0.373l-0,-8.207c0.475,0.113 1.074,0.215 1.797,0.305c0.724,0.09 1.481,0.135 2.272,0.135c1.086,0 2.013,-0.146 2.781,-0.44c0.769,-0.294 1.425,-0.712 1.967,-1.255c0.565,-0.52 1.04,-1.153 1.425,-1.899c0.407,-0.747 0.757,-1.583 1.051,-2.51l0.645,-1.899l-14.311,-38.254Z" style="fill-rule:nonzero;"/></g></g><g id="Nobara1" serif:id="Nobara"><path id="Word-mark" serif:id="Word mark" d="M546.619,1229.21c-7.386,-0.617 -11.88,-1.457 -17.348,-3.237c-12.197,-3.971 -23.131,-11.944 -31.244,-22.784c-10.087,-13.478 -14.584,-30.785 -12.75,-49.07c0.813,-8.112 2.876,-15.561 6.254,-22.584c4.89,-10.168 12.492,-18.95 22,-25.419c9.873,-6.716 20.236,-10.392 32.496,-11.528c2.788,-0.258 10.078,-0.215 13.128,0.079c11.476,1.103 21.248,4.572 30.961,10.99c13.461,8.896 23.294,22.934 27.315,38.999c0.711,2.84 1.457,6.719 1.457,7.575c0,0.217 0.163,0.547 0.362,0.733l0.361,0.336l-0.031,29.077c-0.03,28.506 -0.036,29.11 -0.373,30.769c-0.653,3.214 -2.165,6.368 -4.267,8.902c-1.991,2.4 -5.741,4.604 -9.536,5.605c-1.878,0.496 -2.189,0.528 -4.966,0.528c-2.77,0 -3.089,-0.035 -4.946,-0.524c-3.331,-0.879 -6.537,-2.6 -8.564,-4.596c-0.765,-0.752 -2.07,-2.334 -2.505,-3.034c-0.019,-0.035 -0.476,0.225 -1.014,0.569c-0.538,0.344 -1.896,1.108 -3.018,1.698c-6.525,3.426 -14.008,5.666 -22.011,6.589c-2.221,0.256 -10.019,0.472 -11.763,0.325l0.002,0.002Zm10.806,-37.064c8.225,-1.235 15.526,-6.184 19.776,-13.406c4.131,-7.019 5.454,-15.505 3.752,-24.069c-0.504,-2.539 -1.18,-4.503 -2.424,-7.042c-2.256,-4.607 -5.109,-8.126 -8.723,-10.758c-5.885,-4.287 -11.2,-5.908 -18.61,-5.677c-4.144,0.129 -6.907,0.689 -10.181,2.062c-4.812,2.018 -9.821,5.989 -12.712,10.075c-1.961,2.772 -3.812,6.701 -4.605,9.775c-1.148,4.445 -1.322,10.888 -0.421,15.566c1.24,6.439 4.676,12.564 9.329,16.627c4.7,4.104 10.43,6.558 16.592,7.104c2.148,0.191 6.057,0.071 8.227,-0.257l-0,0Zm-418.233,35.433c-0.202,-1.75 -0.885,-3.921 -1.879,-5.971c-4.447,-9.167 -14.853,-13.55 -24.647,-10.383c-4.098,1.326 -7.972,4.326 -10.639,8.239c-2.073,3.042 -4.575,5.242 -7.724,6.794c-1.912,0.942 -3.258,1.406 -5.232,1.806c-1.677,0.34 -5.738,0.241 -7.8,-0.19c-7.217,-1.508 -13.074,-6.714 -15.304,-13.602c-1.008,-3.111 -0.944,0.516 -0.944,-53.763c-0,-48.09 0.012,-49.981 0.316,-51.366c0.915,-4.172 2.985,-7.852 6.029,-10.716c8.131,-7.648 20.884,-7.29 28.571,0.802c1.194,1.257 1.497,1.444 1.819,1.121c0.214,-0.214 4.341,-2.086 6.254,-2.836c5.194,-2.038 11.014,-3.468 17.179,-4.221c3.471,-0.424 11.466,-0.426 14.892,-0.003c13.443,1.661 24.672,6.34 35.036,14.602c2.929,2.335 7.884,7.29 10.221,10.221c8.157,10.228 12.919,21.63 14.597,34.949c0.272,2.154 0.304,4.798 0.361,29.027c0.043,19.229 0.006,27.093 -0.131,28.222c-1.082,8.798 -7.477,15.748 -16.162,17.563c-2.104,0.439 -6.12,0.53 -7.874,0.177c-7.124,-1.434 -13.042,-6.599 -15.313,-13.365c-1.058,-3.153 -0.989,-1.45 -1.053,-25.929l-0.055,-22.357l9.948,-2.837c5.472,-1.56 10.002,-2.885 10.067,-2.945c0.065,-0.067 -4.556,-1.441 -10.267,-3.07l-10.385,-2.962l-0.367,-1.354c-0.501,-1.85 -1.722,-4.705 -2.725,-6.373c-4.069,-6.77 -10.269,-11.177 -18.094,-12.86c-1.518,-0.328 -2.282,-0.382 -5.246,-0.382c-3.826,-0 -5.46,0.243 -8.547,1.272c-8.049,2.683 -14.548,9.192 -17.161,17.188c-1.272,3.891 -1.409,5.531 -1.33,15.88c0.056,7.634 0.101,8.748 0.365,9.641c1.791,6.041 7.101,10.073 13.275,10.077c8.453,0.007 16.359,5.708 19.056,13.743c1.01,3.007 0.989,2.736 1.062,14.098c0.037,5.771 0.044,11.103 0.019,11.847l-0.049,1.354l-0.139,-1.138Zm127.49,0.877c-13.393,-1.247 -24.948,-5.554 -34.84,-12.988c-6.329,-4.756 -11.539,-10.389 -15.844,-17.131c-1.536,-2.406 -4.367,-7.892 -5.326,-10.325c-2.238,-5.671 -3.719,-11.598 -4.525,-18.109c-0.239,-1.936 -0.304,-3.722 -0.306,-8.463c-0.003,-6.467 0.112,-8.077 0.93,-12.968c4.638,-27.726 25.594,-48.805 53.311,-53.624c7.48,-1.301 15.879,-1.448 23.356,-0.41c14.196,1.971 26.792,8.049 36.789,17.751c10.621,10.309 17.185,23.325 19.397,38.466c0.599,4.105 0.757,6.423 0.748,11.039c-0.006,4.954 -0.258,8.021 -1,12.271c-3.305,18.947 -14.512,35.412 -30.789,45.234c-7.905,4.77 -16.097,7.569 -26.16,8.938c-2.133,0.29 -3.699,0.367 -8.378,0.413c-3.165,0.035 -6.478,-0.011 -7.362,-0.094l-0.001,0Zm11.932,-36.956c10.457,-1.803 18.608,-8.734 22.066,-18.764c1.357,-3.934 1.79,-7.187 1.669,-12.54c-0.117,-5.179 -0.727,-8.285 -2.418,-12.295c-2.67,-6.334 -7.069,-11.155 -12.972,-14.217c-6.799,-3.527 -16.212,-4.191 -23.831,-1.681c-7.108,2.342 -13.284,7.826 -16.568,14.713c-2.283,4.788 -3.208,9.664 -3.016,15.909c0.269,8.749 2.954,15.354 8.498,20.901c4.594,4.596 10.586,7.472 17.094,8.204c1.958,0.221 7.67,0.083 9.478,-0.23l0,-0Zm128.873,36.963c-11.237,-0.834 -21.834,-4.163 -30.624,-9.619c-8.101,-5.028 -14.844,-11.487 -20.191,-19.339c-5.196,-7.63 -8.852,-17.062 -10.355,-26.721c-0.875,-5.619 -0.823,-2.333 -0.89,-56.448c-0.043,-35.702 -0.006,-50.74 0.124,-51.9c0.91,-8.011 5.826,-13.929 13.388,-16.114c3.333,-0.964 7.249,-1.041 10.393,-0.203c1.896,0.505 4.594,1.727 6.159,2.79c3.878,2.633 6.588,6.841 7.751,12.033c0.253,1.131 0.289,3.223 0.343,19.756c0.031,10.169 0.097,18.49 0.141,18.49c0.044,-0 1.051,-0.486 2.236,-1.08c9.343,-4.68 20.003,-6.82 31.605,-6.346c12.891,0.527 24.763,4.576 35.064,11.957c12.569,9.007 21.645,22.496 25.441,37.812c1.587,6.403 2.106,11.36 1.98,18.925c-0.091,5.515 -0.321,7.985 -1.135,12.273c-3.2,16.854 -12.889,31.974 -26.845,41.892c-2.753,1.957 -5.203,3.402 -8.61,5.079c-7.367,3.625 -14.851,5.715 -23.61,6.593c-2.432,0.243 -9.976,0.347 -12.365,0.17l0,-0Zm7.804,-36.737c7.033,-0.552 12.656,-2.992 17.46,-7.575c4.313,-4.116 7.586,-10.052 8.743,-15.856c1.158,-5.803 0.85,-12.343 -0.826,-17.545c-0.672,-2.085 -2.557,-5.866 -4.079,-8.182c-1.628,-2.478 -4.781,-5.653 -7.206,-7.257c-5.159,-3.412 -10.155,-4.843 -16.893,-4.838c-6.374,0.005 -11.433,1.487 -16.417,4.81c-6.157,4.105 -10.621,11.13 -12.111,19.061c-0.526,2.797 -0.649,8.534 -0.251,11.671c1.808,14.236 12.329,24.654 25.96,25.704c2.645,0.204 3.117,0.204 5.62,0.006l-0,0.001Zm227.038,36.619c-2.466,-0.225 -5.276,-1.021 -7.44,-2.109c-5.134,-2.583 -8.216,-6.884 -9.518,-13.281c-0.29,-1.427 -0.305,-3.947 -0.305,-51.007c-0,-46.905 0.018,-49.585 0.303,-51.028c1.47,-7.388 5.503,-12.162 12.136,-14.367c1.973,-0.656 4.72,-1.12 6.623,-1.118c2.737,0.002 6.032,0.747 8.534,1.929c2.116,1.001 3.233,1.748 4.708,3.148l1.264,1.201l1.515,-0.862c5.353,-3.043 12.055,-5.214 19.161,-6.205c3.018,-0.421 11.552,-0.422 14.555,-0.002c4.727,0.661 7.747,1.518 11.086,3.143c6.129,2.984 9.675,7.429 10.668,13.373c1.32,7.895 -2.826,16.007 -9.834,19.245c-3.293,1.522 -6.422,1.832 -13.443,1.332c-9.044,-0.643 -13.224,-0.216 -18.328,1.874c-3.024,1.239 -4.355,2.107 -6.467,4.219c-1.897,1.898 -2.672,2.994 -3.414,4.83c-1.033,2.558 -0.963,0.169 -1.072,36.467c-0.108,36.526 -0.025,33.674 -1.113,36.944c-1.636,4.908 -5.189,8.768 -9.862,10.714c-2.942,1.224 -6.75,1.833 -9.757,1.56l0,-0Zm127.444,0.011c-17.468,-1.385 -31.049,-7.756 -42.945,-20.147c-3.916,-4.08 -8.245,-10.204 -10.748,-15.205c-3.691,-7.375 -5.949,-15.24 -6.924,-24.118c-0.359,-3.269 -0.409,-11.605 -0.087,-14.725c1.258,-12.235 4.732,-22.215 10.929,-31.394c5.155,-7.635 12.072,-14.266 19.904,-19.08c9.648,-5.931 19.222,-9.036 30.705,-9.959c3.605,-0.289 11.266,-0.114 14.572,0.333c9.881,1.337 17.856,4.095 25.976,8.985c8.664,5.216 15.234,11.439 20.73,19.635c5.588,8.332 8.946,16.818 10.657,26.929c0.286,1.695 0.485,2.437 0.688,2.586c0.266,0.195 0.285,2.165 0.264,29.187c-0.022,31.362 0.011,30.179 -0.935,33.075c-1.781,5.454 -5.313,9.358 -10.314,11.397c-0.807,0.329 -2.207,0.796 -3.112,1.039c-1.488,0.398 -1.945,0.44 -4.776,0.444c-2.84,0.003 -3.281,-0.035 -4.739,-0.431c-4.47,-1.209 -8.109,-3.432 -10.223,-6.244c-0.433,-0.575 -0.845,-1.152 -0.918,-1.281c-0.104,-0.186 -0.438,-0.048 -1.562,0.629c-6.836,4.136 -15.286,6.922 -24.363,8.032c-2.185,0.267 -10.717,0.477 -12.778,0.313l-0.001,-0Zm12.12,-37.115c11.904,-2.054 20.904,-11.42 23.191,-24.132c0.49,-2.725 0.542,-8.692 0.1,-11.509c-0.98,-6.25 -3.756,-12.002 -7.908,-16.388c-3.315,-3.502 -8.455,-6.645 -12.882,-7.878c-4.305,-1.199 -10.388,-1.35 -14.871,-0.369c-5.964,1.306 -12.275,5.215 -16.126,9.988c-3.511,4.353 -5.614,9.157 -6.484,14.816c-0.382,2.487 -0.388,7.924 -0.012,10.472c2.049,13.811 12.333,23.906 25.793,25.317c2.257,0.238 6.918,0.083 9.197,-0.317l0.002,0Zm-652.725,-15.177c-5.051,-1.13 -8.952,-4.858 -10.345,-9.886c-0.228,-0.824 -0.303,-1.694 -0.299,-3.47c0.006,-2.197 0.044,-2.485 0.54,-3.977c1.486,-4.477 4.882,-7.717 9.428,-8.994c1.087,-0.306 1.771,-0.379 3.469,-0.372c2.584,0.011 4.05,0.364 6.309,1.524c1.279,0.657 1.853,1.093 3.178,2.418c1.324,1.324 1.76,1.898 2.417,3.177c3.994,7.783 0.089,16.888 -8.305,19.363c-1.581,0.466 -4.79,0.574 -6.391,0.217l-0.001,-0Z" style="fill:#fff;fill-rule:nonzero;"/><g id="Logo"><path id="path1719" d="M520.79,476.405c0,23.387 -12.297,43.901 -30.788,55.423c-10.004,6.251 -21.828,9.858 -34.493,9.858c-36.051,-0 -65.281,-29.23 -65.281,-65.281c0,-36.051 29.23,-65.281 65.281,-65.281c12.665,-0 24.489,3.607 34.493,9.857c18.491,11.522 30.788,32.037 30.788,55.424Z" style="fill-rule:nonzero;"/><path id="path1721" d="M311.712,754.893c-0.899,1.543 -1.826,3.054 -2.817,4.537c-1.052,1.606 -2.154,3.183 -3.311,4.725c0.986,-1.706 2.034,-3.37 3.124,-5.002c0.965,-1.452 1.968,-2.875 3.004,-4.26Z" style="fill-rule:nonzero;"/><path id="path1723" d="M311.712,754.893c-0.899,1.543 -1.826,3.054 -2.817,4.537c-0.083,-0.083 -0.125,-0.208 -0.208,-0.291c0.966,-1.452 1.968,-2.87 3.004,-4.259l0.021,0.013Z" style="fill-rule:nonzero;"/><path id="path1725" d="M311.712,754.893c-0.899,1.543 -1.826,3.054 -2.817,4.537c-1.052,1.606 -2.154,3.183 -3.311,4.725c0.986,-1.706 2.034,-3.37 3.124,-5.002c0.965,-1.452 1.968,-2.875 3.004,-4.26Z" style="fill-rule:nonzero;"/><path id="path1727" d="M781.914,476.405l-0,228.483c-0,0.125 -0,0.291 -0.01,0.416c-0.208,53.889 -43.975,97.513 -97.913,97.513l-12.705,0c-48.08,-6.234 -85.217,-47.336 -85.217,-97.105l0,-201.318l97.922,-27.981l-101.136,-28.895c-13.146,-58.206 -65.167,-101.667 -127.347,-101.667c-72.111,0 -130.562,58.451 -130.562,130.562l0,65.281c0,36.051 29.229,65.281 65.281,65.281c54.077,-0 97.921,43.844 97.921,97.921l0,108.53c0,-20.074 -6.038,-38.737 -16.402,-54.265c-17.552,-26.316 -47.508,-43.657 -81.519,-43.657c-32.135,0 -60.663,15.48 -78.517,39.397c-1.036,1.385 -2.038,2.808 -3.003,4.26c-1.094,1.631 -2.139,3.295 -3.124,5.002c-15.447,20.743 -38.932,35.162 -65.852,38.654l-12.706,0c-53.938,0 -97.701,-43.624 -97.913,-97.513c-0.006,-0.125 -0.006,-0.29 -0.006,-0.416l-0,-456.967c-0.002,-54.076 43.842,-97.921 97.919,-97.921c31.172,0 58.949,14.566 76.877,37.267c45.301,-23.803 96.881,-37.267 151.61,-37.267c180.266,0 326.405,146.14 326.405,326.405l-0.003,-0Z" style="fill-rule:nonzero;"/><path id="line1729" d="M488.15,815.596l-0,-2.179" style="fill:none;fill-rule:nonzero;"/></g></g></g></svg>