<?xml version="1.0" encoding="UTF-8" standalone="no"?><!DOCTYPE svg PUBLIC "-//W3C//DTD SVG 1.1//EN" "http://www.w3.org/Graphics/SVG/1.1/DTD/svg11.dtd"><svg width="100%" height="100%" viewBox="0 0 907 1352" version="1.1" xmlns="http://www.w3.org/2000/svg" xmlns:xlink="http://www.w3.org/1999/xlink" xml:space="preserve" xmlns:serif="http://www.serif.com/" style="fill-rule:evenodd;clip-rule:evenodd;stroke-linejoin:round;stroke-miterlimit:2;"><rect id="openSUSE" x="0" y="-0" width="906.667" height="1351.11" style="fill:none;"/><clipPath id="_clip1"><rect x="0" y="-0" width="906.667" height="1351.11"/></clipPath><g clip-path="url(#_clip1)"><g><g id="Frame"><path id="path36023" d="M363.226,8.892l180.223,-0c196.3,-0 354.331,36.928 354.331,82.799l0,1167.73c0,45.871 -158.031,82.8 -354.331,82.8l-180.223,-0c-196.299,-0 -354.331,-36.929 -354.331,-82.8l0,-1167.73c0,-45.871 158.032,-82.799 354.331,-82.799Z" style="fill:#fff;fill-rule:nonzero;"/><path id="path36025" d="M363.234,-0c-98.707,-0 -187.781,9.234 -252.806,24.429c-32.512,7.598 -58.999,16.618 -78.086,27.198c-9.544,5.29 -17.286,10.978 -22.976,17.509c-5.69,6.53 -9.366,14.275 -9.366,22.561l0,1167.72c0,8.285 3.676,16.03 9.366,22.56c5.69,6.531 13.432,12.219 22.976,17.509c19.087,10.581 45.574,19.6 78.086,27.198c65.025,15.195 154.099,24.429 252.806,24.429l180.209,0c98.707,0 187.781,-9.234 252.806,-24.429c32.512,-7.598 58.999,-16.617 78.086,-27.198c9.544,-5.29 17.286,-10.978 22.976,-17.509c5.69,-6.53 9.366,-14.275 9.366,-22.56l-0,-1167.72c-0,-8.286 -3.676,-16.031 -9.366,-22.561c-5.69,-6.531 -13.432,-12.219 -22.976,-17.509c-19.087,-10.58 -45.574,-19.6 -78.086,-27.198c-65.025,-15.195 -154.099,-24.429 -252.806,-24.429l-180.209,-0Zm-0,17.786l180.209,-0c97.593,-0 185.703,9.231 248.769,23.968c31.533,7.368 56.818,16.176 73.496,25.421c8.339,4.622 14.481,9.365 18.201,13.633c3.719,4.269 4.982,7.706 4.982,10.889l0,1167.72c0,3.182 -1.263,6.619 -4.982,10.888c-3.72,4.269 -9.862,9.011 -18.201,13.633c-16.678,9.245 -41.963,18.053 -73.496,25.421c-63.066,14.738 -151.176,23.969 -248.769,23.969l-180.209,-0c-97.593,-0 -185.703,-9.231 -248.769,-23.969c-31.533,-7.368 -56.818,-16.176 -73.496,-25.421c-8.339,-4.622 -14.481,-9.364 -18.201,-13.633c-3.719,-4.269 -4.982,-7.706 -4.982,-10.888l-0,-1167.72c-0,-3.183 1.263,-6.62 4.982,-10.889c3.72,-4.268 9.862,-9.011 18.201,-13.633c16.678,-9.245 41.963,-18.053 73.496,-25.421c63.066,-14.737 151.176,-23.968 248.769,-23.968Z" style="fill-rule:nonzero;"/></g><g id="Bottom"><path id="path35979" d="M371.606,946.173l163.464,0c199.608,0 360.304,38.151 360.304,85.54l-0,218.99c-0,47.389 -160.696,85.54 -360.304,85.54l-163.464,-0c-199.609,-0 -360.304,-38.151 -360.304,-85.54l-0,-218.99c-0,-47.389 160.695,-85.54 360.304,-85.54Z" style="fill-rule:nonzero;"/><path id="path35981" d="M371.607,938.419c-100.298,0 -190.804,9.547 -256.796,25.214c-32.996,7.833 -59.838,17.123 -79.078,27.958c-19.241,10.836 -32.18,23.883 -32.18,40.116l-0,218.988c-0,16.233 12.939,29.303 32.18,40.139c19.24,10.835 46.082,20.125 79.078,27.958c65.992,15.667 156.498,25.214 256.796,25.214l163.463,0c100.298,0 190.804,-9.547 256.796,-25.214c32.996,-7.833 59.838,-17.123 79.078,-27.958c19.241,-10.836 32.18,-23.906 32.18,-40.139l0,-218.988c0,-16.233 -12.939,-29.28 -32.18,-40.116c-19.24,-10.835 -46.082,-20.125 -79.078,-27.958c-65.992,-15.667 -156.498,-25.214 -256.796,-25.214l-163.463,0Zm0,15.525l163.463,-0c99.309,-0 188.962,9.52 253.22,24.775c32.129,7.628 57.914,16.745 75.042,26.39c17.127,9.646 24.291,19.137 24.291,26.598l-0,218.988c-0,7.461 -7.164,16.952 -24.291,26.598c-17.128,9.645 -42.913,18.762 -75.042,26.39c-64.258,15.255 -153.911,24.798 -253.22,24.798l-163.463,0c-99.309,0 -188.962,-9.543 -253.22,-24.798c-32.129,-7.628 -57.914,-16.745 -75.042,-26.39c-17.127,-9.646 -24.291,-19.137 -24.291,-26.598l0,-218.988c0,-7.461 7.164,-16.952 24.291,-26.598c17.128,-9.645 42.913,-18.762 75.042,-26.39c64.258,-15.255 153.911,-24.775 253.22,-24.775Z" style="fill-rule:nonzero;"/></g><g id="Powered-By" serif:id="Powered By"><path id="path12547" d="M59.756,886.701l2.069,0c2.962,0 5.189,-0.588 6.681,-1.763c1.515,-1.176 2.272,-3.086 2.272,-5.732c-0,-2.464 -0.678,-4.284 -2.035,-5.46c-1.334,-1.175 -3.436,-1.763 -6.308,-1.763l-2.679,-0l0,14.718Zm21.671,-7.868c-0,2.171 -0.328,4.251 -0.984,6.24c-0.656,1.99 -1.741,3.742 -3.256,5.257c-1.492,1.515 -3.47,2.724 -5.934,3.629c-2.442,0.904 -5.472,1.356 -9.089,1.356l-2.408,0l0,17.635l-10.513,-0l0,-49.581l13.769,-0c3.188,-0 5.935,0.362 8.241,1.085c2.328,0.701 4.239,1.719 5.731,3.053c1.515,1.311 2.634,2.927 3.357,4.849c0.724,1.899 1.086,4.058 1.086,6.478l-0,-0.001Z" style="fill-rule:nonzero;"/><path id="path12549" d="M98.587,893.925c-0,3.775 0.531,6.624 1.594,8.546c1.062,1.899 2.792,2.848 5.188,2.848c2.374,0 4.093,-0.96 5.155,-2.882c1.063,-1.922 1.594,-4.759 1.594,-8.512c0,-3.776 -0.531,-6.591 -1.594,-8.445c-1.062,-1.876 -2.803,-2.814 -5.223,-2.814c-2.373,-0 -4.092,0.938 -5.154,2.814c-1.04,1.854 -1.56,4.669 -1.56,8.445Zm24.078,-0c0,3.165 -0.407,5.968 -1.221,8.41c-0.791,2.442 -1.944,4.499 -3.459,6.172c-1.492,1.673 -3.323,2.951 -5.494,3.833c-2.148,0.859 -4.567,1.288 -7.257,1.288c-2.51,0 -4.816,-0.429 -6.919,-1.288c-2.102,-0.882 -3.922,-2.16 -5.46,-3.833c-1.514,-1.673 -2.701,-3.73 -3.56,-6.172c-0.86,-2.442 -1.289,-5.245 -1.289,-8.41c-0,-3.143 0.395,-5.935 1.187,-8.377c0.814,-2.442 1.967,-4.488 3.459,-6.138c1.515,-1.673 3.346,-2.939 5.494,-3.798c2.148,-0.86 4.578,-1.289 7.291,-1.289c2.51,-0 4.816,0.429 6.918,1.289c2.103,0.859 3.912,2.125 5.427,3.798c1.537,1.65 2.735,3.696 3.594,6.138c0.859,2.442 1.289,5.234 1.289,8.377Z" style="fill-rule:nonzero;"/><path id="path12551" d="M160.546,912.95l-2.917,-13.26c-0.09,-0.384 -0.214,-0.927 -0.373,-1.628c-0.135,-0.724 -0.293,-1.526 -0.474,-2.408c-0.181,-0.904 -0.373,-1.854 -0.577,-2.848c-0.181,-1.018 -0.373,-2.024 -0.576,-3.019c-0.453,-2.328 -0.95,-4.838 -1.492,-7.528l-0.204,-0c-0.52,2.69 -0.995,5.211 -1.424,7.562c-0.181,0.995 -0.373,2.001 -0.577,3.019c-0.181,1.017 -0.362,1.978 -0.542,2.882c-0.181,0.882 -0.351,1.684 -0.509,2.408c-0.136,0.723 -0.249,1.289 -0.339,1.696l-3.052,13.124l-11.124,-0l-10.208,-37.915l10.276,0l3.832,16.787c0.203,0.882 0.407,1.944 0.61,3.188c0.226,1.221 0.43,2.464 0.611,3.73c0.203,1.244 0.384,2.431 0.542,3.561c0.159,1.108 0.283,1.99 0.373,2.645l0.204,0c0.023,-0.429 0.068,-0.983 0.136,-1.661c0.09,-0.701 0.192,-1.447 0.305,-2.239c0.113,-0.791 0.226,-1.593 0.339,-2.407c0.135,-0.837 0.26,-1.617 0.373,-2.34c0.136,-0.724 0.249,-1.357 0.339,-1.9c0.113,-0.565 0.204,-0.961 0.271,-1.187l4.138,-18.177l11.395,0l3.967,18.177c0.113,0.498 0.26,1.267 0.441,2.307c0.181,1.04 0.362,2.159 0.543,3.357c0.203,1.176 0.373,2.329 0.509,3.459c0.135,1.108 0.214,1.978 0.237,2.611l0.203,0c0.068,-0.565 0.181,-1.401 0.34,-2.509c0.18,-1.108 0.373,-2.295 0.576,-3.561c0.203,-1.289 0.418,-2.566 0.644,-3.832c0.249,-1.266 0.475,-2.34 0.679,-3.222l3.968,-16.787l10.14,0l-10.344,37.915l-11.259,-0Z" style="fill-rule:nonzero;"/><path id="path12553" d="M202.903,881.682c-1.831,0 -3.357,0.644 -4.578,1.933c-1.198,1.289 -1.888,3.312 -2.068,6.071l13.192,-0c-0.023,-1.153 -0.17,-2.216 -0.441,-3.188c-0.272,-0.972 -0.678,-1.809 -1.221,-2.51c-0.543,-0.723 -1.221,-1.289 -2.035,-1.695c-0.814,-0.408 -1.763,-0.611 -2.849,-0.611l0,0Zm1.323,31.946c-2.713,0 -5.211,-0.395 -7.495,-1.187c-2.283,-0.791 -4.25,-1.978 -5.901,-3.561c-1.65,-1.605 -2.939,-3.617 -3.866,-6.036c-0.904,-2.442 -1.356,-5.302 -1.356,-8.58c-0,-3.324 0.418,-6.229 1.255,-8.716c0.836,-2.487 2,-4.555 3.493,-6.206c1.514,-1.673 3.323,-2.928 5.426,-3.764c2.125,-0.837 4.476,-1.255 7.054,-1.255c2.509,-0 4.77,0.384 6.782,1.153c2.035,0.746 3.753,1.854 5.155,3.323c1.424,1.47 2.51,3.278 3.256,5.426c0.768,2.125 1.153,4.567 1.153,7.325l-0,5.02l-23.129,-0c0.045,1.447 0.271,2.758 0.678,3.934c0.43,1.153 1.018,2.136 1.764,2.95c0.768,0.791 1.684,1.402 2.747,1.831c1.085,0.43 2.317,0.645 3.696,0.645c1.153,0 2.239,-0.057 3.256,-0.17c1.04,-0.135 2.046,-0.328 3.018,-0.576c0.972,-0.249 1.933,-0.554 2.883,-0.916c0.949,-0.384 1.922,-0.825 2.916,-1.322l0,8.003c-0.904,0.475 -1.82,0.882 -2.747,1.221c-0.904,0.317 -1.865,0.588 -2.882,0.814c-1.018,0.226 -2.114,0.384 -3.29,0.475c-1.175,0.113 -2.464,0.17 -3.866,0.17l0,-0.001Z" style="fill-rule:nonzero;"/><path id="path12555" d="M247.703,874.323c0.271,-0 0.565,0.012 0.881,0.035c0.34,0 0.656,0.024 0.95,0.071c0.317,0.024 0.599,0.059 0.848,0.106c0.271,0.024 0.475,0.059 0.61,0.107l0,9.699c-0.181,-0.047 -0.429,-0.093 -0.746,-0.136c-0.316,-0.047 -0.656,-0.083 -1.017,-0.106c-0.339,-0.047 -0.679,-0.071 -1.018,-0.071c-0.339,-0.024 -0.621,-0.036 -0.847,-0.036c-1.334,0 -2.567,0.17 -3.697,0.51c-1.108,0.339 -2.069,0.893 -2.883,1.661c-0.791,0.747 -1.413,1.742 -1.865,2.985c-0.429,1.22 -0.644,2.724 -0.644,4.51l-0,19.297l-10.344,-0l0,-37.915l7.834,-0l1.526,5.697l0.509,0c0.543,-0.972 1.13,-1.854 1.763,-2.645c0.633,-0.791 1.334,-1.458 2.103,-2.001c0.791,-0.565 1.673,-0.995 2.645,-1.289c0.995,-0.316 2.125,-0.474 3.392,-0.474l-0,-0.005Z" style="fill-rule:nonzero;"/><path id="path12557" d="M273.409,881.682c-1.831,0 -3.358,0.644 -4.578,1.933c-1.199,1.289 -1.888,3.312 -2.069,6.071l13.192,-0c-0.023,-1.153 -0.17,-2.216 -0.441,-3.188c-0.271,-0.972 -0.678,-1.809 -1.221,-2.51c-0.542,-0.723 -1.221,-1.289 -2.034,-1.695c-0.814,-0.408 -1.764,-0.611 -2.849,-0.611l-0,0Zm1.322,31.946c-2.713,0 -5.211,-0.395 -7.494,-1.187c-2.284,-0.791 -4.251,-1.978 -5.901,-3.561c-1.651,-1.605 -2.939,-3.617 -3.866,-6.036c-0.905,-2.442 -1.357,-5.302 -1.357,-8.58c0,-3.324 0.418,-6.229 1.255,-8.716c0.836,-2.487 2.001,-4.555 3.493,-6.206c1.515,-1.673 3.323,-2.928 5.426,-3.764c2.125,-0.837 4.477,-1.255 7.054,-1.255c2.51,-0 4.77,0.384 6.783,1.153c2.034,0.746 3.753,1.854 5.154,3.323c1.425,1.47 2.51,3.278 3.256,5.426c0.769,2.125 1.153,4.567 1.153,7.325l0,5.02l-23.129,-0c0.045,1.447 0.271,2.758 0.679,3.934c0.429,1.153 1.017,2.136 1.763,2.95c0.769,0.791 1.685,1.402 2.747,1.831c1.085,0.43 2.318,0.645 3.697,0.645c1.153,0 2.238,-0.057 3.255,-0.17c1.04,-0.135 2.046,-0.328 3.019,-0.576c0.972,-0.249 1.933,-0.554 2.882,-0.916c0.95,-0.384 1.922,-0.825 2.917,-1.322l-0,8.003c-0.905,0.475 -1.82,0.882 -2.747,1.221c-0.905,0.317 -1.865,0.588 -2.883,0.814c-1.017,0.226 -2.114,0.384 -3.289,0.475c-1.176,0.113 -2.465,0.17 -3.867,0.17l0,-0.001Z" style="fill-rule:nonzero;"/><path id="path12559" d="M309.594,913.628c-1.944,0 -3.719,-0.418 -5.324,-1.255c-1.605,-0.836 -2.985,-2.068 -4.138,-3.696c-1.153,-1.651 -2.057,-3.697 -2.713,-6.138c-0.633,-2.442 -0.949,-5.268 -0.949,-8.479c-0,-3.255 0.316,-6.104 0.949,-8.546c0.656,-2.464 1.572,-4.521 2.747,-6.172c1.199,-1.673 2.623,-2.928 4.273,-3.764c1.651,-0.837 3.471,-1.255 5.46,-1.255c1.221,-0 2.34,0.147 3.358,0.44c1.017,0.272 1.933,0.668 2.747,1.187c0.814,0.498 1.537,1.086 2.17,1.764c0.656,0.656 1.232,1.379 1.73,2.17l0.339,0c-0.136,-0.881 -0.26,-1.774 -0.373,-2.679c-0.113,-0.768 -0.215,-1.582 -0.305,-2.442c-0.068,-0.881 -0.102,-1.695 -0.102,-2.441l0,-12.141l10.344,-0l-0,52.769l-7.902,-0l-2.001,-4.918l-0.441,0c-0.475,0.769 -1.018,1.504 -1.628,2.205c-0.61,0.678 -1.323,1.265 -2.136,1.763c-0.792,0.498 -1.696,0.893 -2.714,1.187c-0.994,0.294 -2.125,0.441 -3.391,0.441l0,0Zm3.765,-8.241c1.22,0 2.26,-0.203 3.12,-0.61c0.859,-0.43 1.548,-1.063 2.068,-1.899c0.543,-0.859 0.939,-1.922 1.187,-3.188c0.272,-1.266 0.419,-2.747 0.441,-4.443l0,-1.12c0,-1.831 -0.113,-3.459 -0.339,-4.883c-0.226,-1.424 -0.599,-2.611 -1.119,-3.561c-0.52,-0.972 -1.221,-1.707 -2.103,-2.204c-0.881,-0.498 -1.989,-0.747 -3.323,-0.747c-2.171,0 -3.765,0.984 -4.782,2.951c-1.017,1.944 -1.526,4.781 -1.526,8.512c0,3.73 0.509,6.534 1.526,8.41c1.04,1.854 2.657,2.781 4.85,2.781l-0,0.001Z" style="fill-rule:nonzero;"/><path id="path12561" d="M378.913,874.323c1.944,-0 3.719,0.418 5.324,1.255c1.605,0.836 2.984,2.08 4.137,3.73c1.153,1.651 2.046,3.697 2.68,6.138c0.655,2.442 0.983,5.268 0.983,8.479c0,3.255 -0.328,6.115 -0.983,8.58c-0.634,2.441 -1.538,4.488 -2.714,6.138c-1.175,1.65 -2.588,2.894 -4.239,3.73c-1.65,0.837 -3.47,1.255 -5.46,1.255c-1.266,0 -2.396,-0.136 -3.391,-0.407c-0.972,-0.272 -1.843,-0.634 -2.611,-1.086c-0.769,-0.452 -1.447,-0.96 -2.035,-1.526c-0.565,-0.588 -1.085,-1.198 -1.56,-1.831l-0.712,-0l-1.73,4.171l-7.902,0l0,-52.769l10.344,0l-0,12.277c-0,0.746 -0.023,1.56 -0.067,2.442c-0.045,0.859 -0.091,1.661 -0.136,2.408c-0.068,0.881 -0.136,1.763 -0.204,2.645l0.407,-0c0.475,-0.792 1.018,-1.526 1.628,-2.205c0.611,-0.678 1.311,-1.265 2.103,-1.763c0.814,-0.52 1.729,-0.927 2.747,-1.221c1.017,-0.294 2.148,-0.441 3.391,-0.441l-0,0.001Zm-3.493,8.275c-1.153,-0 -2.137,0.215 -2.951,0.645c-0.791,0.407 -1.436,1.028 -1.933,1.865c-0.497,0.836 -0.859,1.899 -1.085,3.188c-0.226,1.266 -0.362,2.747 -0.407,4.442l-0,1.12c-0,1.831 0.102,3.459 0.305,4.883c0.226,1.425 0.588,2.623 1.085,3.595c0.498,0.95 1.153,1.673 1.967,2.171c0.837,0.497 1.865,0.746 3.086,0.746c2.058,0 3.561,-0.972 4.511,-2.916c0.972,-1.967 1.458,-4.816 1.458,-8.547c0,-3.73 -0.486,-6.522 -1.458,-8.376c-0.95,-1.877 -2.476,-2.815 -4.578,-2.815l-0,-0.001Z" style="fill-rule:nonzero;"/><path id="path12563" d="M395.496,875.035l11.327,0l6.104,21.331c0.362,1.176 0.622,2.431 0.78,3.765c0.181,1.334 0.294,2.532 0.339,3.595l0.203,-0c0.047,-0.52 0.104,-1.097 0.17,-1.73c0.091,-0.633 0.192,-1.277 0.305,-1.933c0.113,-0.656 0.238,-1.3 0.373,-1.933c0.158,-0.656 0.317,-1.244 0.475,-1.764l5.969,-21.331l11.395,0l-14.99,42.765c-1.402,4.001 -3.312,6.974 -5.731,8.919c-2.42,1.944 -5.449,2.916 -9.089,2.916c-1.176,0 -2.193,-0.068 -3.052,-0.203c-0.859,-0.113 -1.594,-0.238 -2.205,-0.373l0,-8.207c0.475,0.113 1.074,0.215 1.798,0.305c0.723,0.09 1.481,0.135 2.272,0.135c1.085,0 2.012,-0.146 2.781,-0.44c0.768,-0.294 1.424,-0.712 1.967,-1.255c0.565,-0.52 1.04,-1.153 1.424,-1.899c0.407,-0.747 0.758,-1.583 1.051,-2.51l0.645,-1.899l-14.311,-38.254Z" style="fill-rule:nonzero;"/></g></g><g id="openSUSE1" serif:id="openSUSE"><path id="Geeko" d="M723.273,375.472c-7.485,-0.27 -14.581,2.375 -20.004,7.461c-5.423,5.086 -8.623,11.976 -8.849,19.437c-0.519,15.417 11.553,28.387 26.935,28.955c7.48,0.226 14.612,-2.418 20.067,-7.504c5.447,-5.11 8.578,-12.004 8.816,-19.438c0.52,-15.413 -11.548,-28.364 -26.965,-28.911l-0,-0Zm4.567,30.542c-6.851,-0 -12.385,-3.707 -12.385,-8.25c0,-4.587 5.534,-8.274 12.385,-8.274c6.85,0 12.4,3.687 12.4,8.274c-0,4.543 -5.554,8.25 -12.4,8.25Zm65.093,33.292c0.201,-0.156 0.667,-0.567 0.606,-0.947c-1.547,-9.672 -15.956,-56.574 -26.861,-67.853c-3.005,-3.073 -5.412,-6.101 -10.284,-8.952c-39.452,-22.99 -133.05,-36.864 -137.435,-37.499c0,0 -0.44,-0.092 -0.745,0.206c-0.237,0.232 -0.282,0.678 -0.282,0.678c0,0 -0.36,19.394 -0.416,21.562c-9.558,-3.211 -79.048,-25.657 -144.189,-27.917c-55.243,-1.943 -135.695,-9.086 -242.308,56.463l-3.151,1.962c-50.157,31.285 -84.785,69.867 -102.886,114.687c-5.677,14.105 -13.312,45.93 -5.745,75.877c3.259,13.09 9.336,26.245 17.531,38.017c18.521,26.604 49.6,44.257 83.065,47.239c47.25,4.226 83.028,-16.995 95.754,-56.732c8.749,-27.418 0,-67.648 -33.541,-88.172c-27.282,-16.705 -56.619,-12.907 -73.637,-1.649c-14.763,9.788 -23.123,25 -22.976,41.706c0.34,29.633 25.867,45.383 44.221,45.43c5.332,0 10.688,-0.927 16.725,-2.894c2.149,-0.654 4.17,-1.467 6.398,-2.846l0.698,-0.408l0.44,-0.294l-0.147,0.088c4.183,-2.851 6.7,-7.485 6.7,-12.456c0,-1.356 -0.19,-2.732 -0.579,-4.115c-2.168,-7.505 -9.581,-12.044 -17.264,-10.644l-1.039,0.245l-1.403,0.429l-2.038,0.701c-4.226,1.039 -7.39,1.13 -8.067,1.154c-2.149,-0.139 -12.714,-3.302 -12.714,-14.874l0,-0.159c0,-4.25 1.705,-7.231 2.644,-8.86c3.287,-5.154 12.286,-10.212 24.444,-9.154c15.956,1.38 27.46,9.562 35.08,24.999c7.072,14.351 5.221,32.005 -4.769,44.936c-9.923,12.813 -27.588,18.26 -51.079,15.73c-23.691,-2.62 -43.715,-16.253 -54.933,-37.474c-10.977,-20.745 -11.576,-45.34 -1.55,-64.234c23.98,-45.272 69.277,-44.8 94.113,-40.507c36.753,6.374 78.565,40.276 93.395,79.425c2.394,6.24 3.615,11.188 4.682,15.711l1.601,6.759l41.523,20.273c0.891,0.436 1.193,0.583 1.55,0.318c0.428,-0.319 0.183,-1.198 0.183,-1.198c-0.258,-0.927 -0.86,-1.784 -1.82,-13.403c-0.789,-10.311 -2.394,-38.541 11.818,-52.53c5.518,-5.467 13.926,-10.347 20.567,-11.909c27.214,-6.648 59.128,-2.061 89.299,32.863c15.619,18.038 23.233,26.263 27.056,29.947c-0,0 0.87,0.822 1.332,1.201c0.505,0.415 0.834,0.764 1.57,1.174c1.261,0.702 51.883,24.007 51.883,24.007c0,-0 0.6,0.298 1.043,-0.25c0.437,-0.541 0.026,-1.082 0.026,-1.082c-0.338,-0.385 -32.095,-41.427 -26.442,-75.222c4.452,-26.918 25.874,-24.479 55.51,-21.133c9.672,1.129 20.685,2.394 32.087,2.648c31.835,0.202 66.124,-5.677 87.258,-14.922c13.673,-5.942 22.398,-9.899 27.866,-14.87c1.966,-1.629 2.985,-4.273 4.047,-7.12l0.745,-1.879c0.884,-2.307 2.185,-7.167 2.755,-9.831c0.23,-1.174 0.499,-2.323 -0.471,-3.073c-0.888,-0.685 -2.926,0.544 -2.926,0.544c-9.28,5.585 -32.479,16.162 -54.169,16.614c-26.929,0.543 -81.494,-27.262 -87.147,-30.198c-3.784,-9.009 -7.563,-18.02 -11.401,-27.007c39.036,25.721 71.413,39.936 96.198,42.129c27.592,2.457 49.101,-12.596 58.436,-18.859c1.222,-0.813 2.441,-1.722 3.562,-2.596l0.003,0Zm-110.738,-36.999c0.396,-10.692 4.871,-20.615 12.689,-27.893c7.822,-7.302 18.026,-11.076 28.725,-10.735c22.061,0.789 39.397,19.413 38.64,41.45c-0.416,10.692 -4.892,20.614 -12.69,27.87c-7.821,7.346 -18.001,11.12 -28.749,10.759c-22.038,-0.813 -39.355,-19.393 -38.615,-41.45l-0,-0.001Z" style="fill:#73bb25;"/><g id="openSUSE2" serif:id="openSUSE"><path id="path6255" d="M386.585,1059.4c-19.863,-0 -30.789,16.792 -30.789,28.402l0,14.904c0,17.097 13.969,27.691 26.923,27.691l45.473,0c5.729,0 6.928,3.751 6.928,6.915l0,9.618c0,1.021 -0.206,10.258 -6.928,10.258l-62.019,0c-6.164,0 -10.617,4.288 -10.617,10.156l0,2.658c0,5.846 4.453,10.106 10.617,10.106l65.39,0c17.093,0 28.122,-11.891 28.122,-30.314l-0,-16.081c-0,-17.298 -12.429,-25.032 -24.768,-25.032l-44.743,-0c-6.736,-0 -9.788,-5.053 -9.788,-8.625l-0,-8.88c-0,-5.59 3.737,-8.83 10.271,-8.83l49.528,-0c6.074,-0 10.643,-4.364 10.643,-10.133l0,-2.654c0,-5.792 -4.645,-10.16 -10.849,-10.16l-53.391,-0l-0.003,0.001Z" style="fill:#fff;fill-rule:nonzero;"/><path id="path6257" d="M572.518,1059.4c-5.872,-0 -10.603,4.771 -10.603,10.643l0,76.144c0,6.1 -4.977,11.001 -11.001,11.001l-34.566,0c-6.046,0 -10.996,-4.901 -10.996,-11.001l-0,-76.144c-0,-5.872 -4.772,-10.643 -10.639,-10.643l-3.343,-0c-5.958,-0 -10.644,4.699 -10.644,10.643l0,79.028c0,18.399 14.479,31.745 34.423,31.745l36.965,0c19.917,0 34.387,-13.342 34.387,-31.745l-0,-79.028c-0,-5.944 -4.669,-10.643 -10.617,-10.643l-3.366,-0Z" style="fill:#fff;fill-rule:nonzero;"/><path id="path6259" d="M638.689,1059.4c-19.854,-0 -30.812,16.792 -30.812,28.402l0,14.904c0,17.097 13.996,27.691 26.959,27.691l45.46,0c5.738,0 6.942,3.751 6.942,6.915l-0,9.618c-0,1.021 -0.207,10.258 -6.942,10.258l-62.048,0c-6.136,0 -10.616,4.288 -10.616,10.156l0,2.658c0,5.846 4.48,10.106 10.616,10.106l65.414,0c17.097,0 28.175,-11.891 28.175,-30.314l0,-16.081c0,-17.298 -12.465,-25.032 -24.804,-25.032l-44.743,-0c-6.754,-0 -9.797,-5.053 -9.797,-8.625l-0,-8.88c-0,-5.59 3.737,-8.83 10.272,-8.83l49.555,-0c6.06,-0 10.612,-4.364 10.612,-10.133l0,-2.654c0,-5.792 -4.641,-10.16 -10.871,-10.16l-53.369,-0l-0.003,0.001Z" style="fill:#fff;fill-rule:nonzero;"/><path id="path6261" d="M732.906,1069.56l-0,100.438c-0,5.765 4.35,10.107 10.115,10.107l80.038,-0c6.163,-0 10.617,-4.261 10.617,-10.107l-0,-2.658c-0,-5.868 -4.454,-10.155 -10.617,-10.155l-65.551,-0l0,-25.571l48.032,0c6.15,0 10.617,-4.314 10.617,-10.16l-0,-2.654c-0,-5.872 -4.467,-10.132 -10.617,-10.132l-48.032,-0l0,-26.336l62.221,-0c6.141,-0 10.616,-4.234 10.616,-10.133l0,-2.654c0,-5.872 -4.475,-10.161 -10.616,-10.16l-76.476,0.008c-5.886,-0 -10.348,4.376 -10.348,10.167l0.001,0Z" style="fill:#fff;fill-rule:nonzero;"/><g id="g6271"><path id="path6263" d="M62.909,1107.21c-10.03,-0 -18.194,7.805 -18.194,17.428l-0,37.87c-0,9.775 7.9,17.738 17.585,17.738l24.496,-0c9.686,-0 17.586,-7.963 17.586,-17.738l-0,-37.87c-0,-9.618 -8.169,-17.428 -18.194,-17.428l-23.279,-0Zm-5.299,53.794l-0,-34.58c-0,-4.055 3.33,-7.371 7.403,-7.371l19.084,-0c3.984,-0 7.377,3.392 7.377,7.371l-0,34.58c-0,4.082 -3.304,7.399 -7.377,7.399l-19.228,-0c-4.082,-0 -7.259,-3.245 -7.259,-7.399Z" style="fill:#fff;fill-rule:nonzero;"/><path id="path6265" d="M159.855,1106.76c-7.063,-0 -12.389,2.524 -16.664,4.592c-2.604,1.249 -4.86,2.328 -6.61,2.328c-0.793,-0 -1.468,-0.358 -1.826,-0.945l-1.63,-3.115c-0.407,-0.819 -2.041,-2.421 -4.059,-2.421l-2.422,-0c-2.327,-0 -4.189,2.09 -4.189,4.641l0,96.055c0,3.012 2.377,5.385 5.384,5.385l2.095,-0c2.985,-0 5.411,-2.399 5.411,-5.385l0,-31.872c0,-0.944 0.614,-1.965 1.236,-1.965c1.75,0 4.006,1.025 6.61,2.22c4.275,1.965 9.601,4.386 16.664,4.386l2.26,0c12.506,0 20.285,-7.147 20.285,-18.628l-0,-36.666c-0,-11.306 -7.945,-18.606 -20.285,-18.606l-2.26,0l-0,-0.004Zm-24.505,53.495l-0,-33.076c-0,-4.57 3.572,-8.137 8.137,-8.137l17.89,-0c4.569,-0 8.137,3.571 8.137,8.137l-0,33.076c-0,4.489 -3.662,8.137 -8.137,8.137l-17.89,-0c-4.48,-0 -8.137,-3.648 -8.137,-8.137Z" style="fill:#fff;fill-rule:nonzero;"/><path id="path6267" d="M200.45,1124.62l0,37.588c0,9.749 7.914,18.015 17.25,18.015l25.275,0c3.124,0 5.384,-2.166 5.384,-5.107l0,-1.656c0,-2.958 -2.26,-5.08 -5.384,-5.08l-20.763,0c-5.819,0 -8.889,-2.86 -8.889,-8.298l-0,-10.997l37.458,0c6.024,0 9.587,-3.674 9.587,-9.9l0,-14.574c0,-9.618 -8.155,-17.43 -18.145,-17.428l-23.601,0.004c-10.026,0.009 -18.172,7.81 -18.172,17.433Zm12.877,1.661c0,-4.06 3.192,-7.246 7.256,-7.246l19.675,-0c4.055,-0 7.22,3.186 7.22,7.246l-0,11.736l-34.155,-0c0.004,-1.531 0.004,-11.736 0.004,-11.736Z" style="fill:#fff;fill-rule:nonzero;"/><path id="path6269" d="M312.435,1106.76c-7.04,-0 -12.353,2.524 -16.641,4.57c-2.668,1.253 -4.946,2.35 -6.808,2.35c-0.819,-0 -1.15,-0.103 -1.786,-1.204l-1.481,-2.704c-0.85,-1.71 -2.296,-2.573 -4.248,-2.573l-2.081,-0c-2.515,-0 -4.35,1.96 -4.35,4.641l-0,63.006c-0,2.985 2.358,5.384 5.398,5.384l2.081,0c2.985,0 5.42,-2.426 5.42,-5.384l-0,-47.667c-0,-4.467 3.648,-8.137 8.115,-8.137l17.898,-0c4.481,-0 8.128,3.67 8.128,8.137l0,47.667c0,2.985 2.373,5.384 5.385,5.384l2.103,0c2.986,0 5.412,-2.426 5.412,-5.384l-0,-49.48c-0,-11.306 -7.949,-18.606 -20.298,-18.606l-2.247,-0Z" style="fill:#fff;fill-rule:nonzero;"/></g><g id="g6275"><path id="path6273" d="M851.59,1155.82c5.452,-0 9.794,4.431 9.794,9.976c-0,5.626 -4.346,10.013 -9.838,10.013c-5.452,-0 -9.883,-4.387 -9.883,-10.013c0,-5.541 4.431,-9.976 9.883,-9.976l0.044,-0Zm-0.044,1.548c-4.387,0 -7.976,3.769 -7.976,8.424c-0,4.744 3.589,8.464 8.02,8.464c4.432,0.049 7.976,-3.72 7.976,-8.419c0,-4.7 -3.544,-8.469 -7.976,-8.469l-0.044,0Zm-1.858,14.229l-1.777,0l0,-11.122c0.931,-0.135 1.818,-0.269 3.147,-0.269c1.687,0 2.793,0.354 3.455,0.842c0.667,0.483 1.025,1.235 1.025,2.305c0,1.459 -0.976,2.345 -2.171,2.703l0,0.094c0.976,0.175 1.639,1.061 1.862,2.703c0.269,1.732 0.528,2.395 0.708,2.748l-1.862,0c-0.269,-0.353 -0.533,-1.374 -0.752,-2.837c-0.269,-1.415 -0.976,-1.952 -2.395,-1.952l-1.24,0l0,4.785Zm-0.004,-6.163l1.284,-0c1.464,-0 2.704,-0.528 2.704,-1.907c-0,-0.976 -0.707,-1.951 -2.704,-1.951c-0.577,-0 -0.975,0.044 -1.284,0.094l-0,3.764Z" style="fill:#73ba25;fill-rule:nonzero;"/></g></g></g></g></svg>