<?xml version="1.0" encoding="UTF-8" standalone="no"?><!DOCTYPE svg PUBLIC "-//W3C//DTD SVG 1.1//EN" "http://www.w3.org/Graphics/SVG/1.1/DTD/svg11.dtd"><svg width="100%" height="100%" viewBox="0 0 907 1352" version="1.1" xmlns="http://www.w3.org/2000/svg" xmlns:xlink="http://www.w3.org/1999/xlink" xml:space="preserve" xmlns:serif="http://www.serif.com/" style="fill-rule:evenodd;clip-rule:evenodd;stroke-linejoin:round;"><rect id="Parabola" x="0" y="-0" width="906.667" height="1351.11" style="fill:none;"/><clipPath id="_clip1"><rect x="0" y="-0" width="906.667" height="1351.11"/></clipPath><g clip-path="url(#_clip1)"><g id="READ-ME" serif:id="READ ME"><path id="Frame" d="M897.778,363.221c-0,-195.561 -158.771,-354.332 -354.333,-354.332l-180.224,-0c-195.561,-0 -354.332,158.771 -354.332,354.332l-0,624.669c-0,195.561 158.771,354.332 354.332,354.332l180.224,0c195.562,0 354.333,-158.771 354.333,-354.332l-0,-624.669Z" style="fill:#fff;stroke:#000;stroke-width:17.78px;"/><path id="Bottom" d="M895.371,1141.21c-0,-107.643 -87.393,-195.036 -195.036,-195.036l-494.004,0c-107.643,0 -195.035,87.393 -195.035,195.036c-0,107.643 87.392,195.036 195.035,195.036l494.004,-0c107.643,-0 195.036,-87.393 195.036,-195.036Z" style="stroke:#000;stroke-width:15.52px;"/><g id="Powered-By" serif:id="Powered By"><path id="path12547" d="M59.75,886.702l2.069,0c2.962,0 5.189,-0.588 6.681,-1.763c1.515,-1.176 2.272,-3.087 2.272,-5.732c-0,-2.464 -0.678,-4.284 -2.035,-5.46c-1.334,-1.176 -3.436,-1.763 -6.308,-1.763l-2.679,-0l0,14.718Zm21.671,-7.868c-0,2.171 -0.328,4.251 -0.984,6.24c-0.655,1.99 -1.741,3.742 -3.255,5.257c-1.493,1.515 -3.471,2.724 -5.935,3.628c-2.442,0.905 -5.472,1.357 -9.089,1.357l-2.408,-0l0,17.635l-10.513,-0l0,-49.581l13.769,-0c3.188,-0 5.935,0.362 8.241,1.085c2.328,0.701 4.239,1.718 5.731,3.052c1.515,1.312 2.634,2.928 3.358,4.85c0.723,1.899 1.085,4.058 1.085,6.477l-0,0Z" style="fill-rule:nonzero;"/><path id="path12549" d="M98.581,893.926c-0,3.775 0.531,6.624 1.594,8.546c1.062,1.899 2.792,2.848 5.189,2.848c2.373,0 4.092,-0.96 5.154,-2.882c1.063,-1.922 1.594,-4.759 1.594,-8.512c0,-3.776 -0.531,-6.591 -1.594,-8.445c-1.062,-1.876 -2.803,-2.815 -5.222,-2.815c-2.374,0 -4.092,0.939 -5.155,2.815c-1.04,1.854 -1.56,4.669 -1.56,8.445Zm24.078,-0c0,3.165 -0.407,5.968 -1.221,8.41c-0.791,2.442 -1.944,4.499 -3.459,6.172c-1.492,1.673 -3.323,2.951 -5.494,3.832c-2.148,0.86 -4.567,1.289 -7.257,1.289c-2.51,0 -4.816,-0.429 -6.918,-1.289c-2.103,-0.881 -3.923,-2.159 -5.46,-3.832c-1.515,-1.673 -2.702,-3.73 -3.561,-6.172c-0.859,-2.442 -1.289,-5.245 -1.289,-8.41c-0,-3.143 0.396,-5.935 1.187,-8.377c0.814,-2.442 1.967,-4.488 3.459,-6.138c1.515,-1.673 3.346,-2.939 5.494,-3.799c2.148,-0.859 4.578,-1.288 7.291,-1.288c2.51,-0 4.816,0.429 6.919,1.288c2.102,0.86 3.911,2.126 5.426,3.799c1.537,1.65 2.735,3.696 3.595,6.138c0.859,2.442 1.288,5.234 1.288,8.377Z" style="fill-rule:nonzero;"/><path id="path12551" d="M160.54,912.951l-2.916,-13.26c-0.091,-0.384 -0.215,-0.927 -0.373,-1.628c-0.136,-0.724 -0.294,-1.526 -0.475,-2.408c-0.181,-0.904 -0.373,-1.854 -0.576,-2.849c-0.181,-1.017 -0.373,-2.023 -0.577,-3.018c-0.452,-2.329 -0.95,-4.838 -1.492,-7.529l-0.204,0c-0.52,2.691 -0.994,5.212 -1.424,7.563c-0.181,0.995 -0.373,2.001 -0.576,3.018c-0.181,1.018 -0.362,1.979 -0.543,2.883c-0.181,0.882 -0.35,1.684 -0.509,2.408c-0.135,0.723 -0.248,1.289 -0.339,1.695l-3.052,13.125l-11.124,-0l-10.208,-37.915l10.276,-0l3.832,16.787c0.204,0.882 0.407,1.944 0.611,3.188c0.226,1.221 0.429,2.464 0.61,3.73c0.204,1.244 0.384,2.431 0.543,3.561c0.158,1.108 0.282,1.99 0.373,2.645l0.203,0c0.023,-0.43 0.068,-0.983 0.136,-1.661c0.09,-0.701 0.192,-1.447 0.305,-2.239c0.113,-0.791 0.226,-1.594 0.339,-2.408c0.136,-0.836 0.26,-1.616 0.373,-2.34c0.136,-0.723 0.249,-1.356 0.339,-1.899c0.113,-0.565 0.204,-0.961 0.272,-1.187l4.137,-18.177l11.395,-0l3.968,18.177c0.113,0.498 0.26,1.267 0.441,2.306c0.181,1.04 0.361,2.16 0.542,3.358c0.204,1.176 0.373,2.329 0.509,3.459c0.136,1.108 0.215,1.978 0.237,2.611l0.204,0c0.068,-0.565 0.181,-1.402 0.339,-2.509c0.181,-1.108 0.373,-2.295 0.576,-3.561c0.204,-1.289 0.419,-2.566 0.645,-3.832c0.249,-1.266 0.475,-2.34 0.678,-3.222l3.968,-16.787l10.14,-0l-10.343,37.915l-11.26,-0Z" style="fill-rule:nonzero;"/><path id="path12553" d="M202.898,881.683c-1.831,-0 -3.357,0.644 -4.578,1.933c-1.198,1.289 -1.888,3.312 -2.069,6.07l13.192,0c-0.022,-1.153 -0.169,-2.215 -0.441,-3.187c-0.271,-0.973 -0.678,-1.809 -1.22,-2.51c-0.543,-0.724 -1.221,-1.289 -2.035,-1.696c-0.814,-0.407 -1.764,-0.61 -2.849,-0.61l0,-0Zm1.323,31.946c-2.713,0 -5.212,-0.395 -7.495,-1.187c-2.284,-0.791 -4.251,-1.978 -5.901,-3.561c-1.65,-1.605 -2.939,-3.617 -3.866,-6.036c-0.905,-2.442 -1.357,-5.302 -1.357,-8.58c0,-3.324 0.419,-6.229 1.255,-8.716c0.837,-2.487 2.001,-4.556 3.493,-6.206c1.515,-1.673 3.324,-2.928 5.426,-3.765c2.126,-0.836 4.477,-1.254 7.054,-1.254c2.51,-0 4.771,0.384 6.783,1.152c2.035,0.747 3.753,1.855 5.155,3.324c1.424,1.47 2.509,3.278 3.255,5.426c0.769,2.125 1.153,4.567 1.153,7.325l0,5.019l-23.128,0c0.044,1.447 0.271,2.759 0.678,3.934c0.429,1.153 1.017,2.137 1.763,2.951c0.769,0.791 1.685,1.402 2.747,1.831c1.086,0.43 2.318,0.645 3.697,0.645c1.153,-0 2.238,-0.057 3.256,-0.17c1.04,-0.136 2.046,-0.328 3.018,-0.576c0.972,-0.249 1.933,-0.554 2.882,-0.916c0.95,-0.384 1.922,-0.825 2.917,-1.322l-0,8.003c-0.904,0.475 -1.82,0.882 -2.747,1.221c-0.904,0.317 -1.865,0.588 -2.883,0.814c-1.017,0.226 -2.114,0.384 -3.289,0.475c-1.176,0.113 -2.465,0.17 -3.866,0.17l-0,-0.001Z" style="fill-rule:nonzero;"/><path id="path12555" d="M247.698,874.324c0.271,-0 0.565,0.011 0.881,0.035c0.339,0 0.656,0.024 0.95,0.071c0.316,0.024 0.599,0.059 0.848,0.106c0.271,0.024 0.474,0.059 0.61,0.107l-0,9.699c-0.181,-0.047 -0.43,-0.093 -0.746,-0.136c-0.317,-0.047 -0.656,-0.083 -1.018,-0.106c-0.339,-0.048 -0.678,-0.071 -1.017,-0.071c-0.339,-0.024 -0.622,-0.036 -0.848,-0.036c-1.334,0 -2.566,0.17 -3.696,0.509c-1.108,0.34 -2.069,0.894 -2.883,1.662c-0.791,0.747 -1.413,1.741 -1.865,2.984c-0.43,1.221 -0.645,2.725 -0.645,4.511l0,19.297l-10.343,-0l-0,-37.915l7.834,-0l1.526,5.697l0.509,0c0.542,-0.972 1.13,-1.854 1.763,-2.645c0.633,-0.791 1.334,-1.458 2.103,-2.001c0.791,-0.565 1.673,-0.995 2.645,-1.289c0.995,-0.316 2.125,-0.475 3.391,-0.475l0.001,-0.004Z" style="fill-rule:nonzero;"/><path id="path12557" d="M273.404,881.683c-1.832,-0 -3.358,0.644 -4.579,1.933c-1.198,1.289 -1.887,3.312 -2.068,6.07l13.192,0c-0.023,-1.153 -0.17,-2.215 -0.441,-3.187c-0.271,-0.973 -0.678,-1.809 -1.221,-2.51c-0.542,-0.724 -1.221,-1.289 -2.035,-1.696c-0.813,-0.407 -1.763,-0.61 -2.848,-0.61l-0,-0Zm1.322,31.946c-2.713,0 -5.211,-0.395 -7.494,-1.187c-2.284,-0.791 -4.251,-1.978 -5.901,-3.561c-1.651,-1.605 -2.94,-3.617 -3.866,-6.036c-0.905,-2.442 -1.357,-5.302 -1.357,-8.58c-0,-3.324 0.418,-6.229 1.255,-8.716c0.836,-2.487 2.001,-4.556 3.493,-6.206c1.515,-1.673 3.323,-2.928 5.426,-3.765c2.125,-0.836 4.477,-1.254 7.054,-1.254c2.51,-0 4.77,0.384 6.783,1.152c2.034,0.747 3.753,1.855 5.154,3.324c1.425,1.47 2.51,3.278 3.256,5.426c0.769,2.125 1.153,4.567 1.153,7.325l0,5.019l-23.129,0c0.045,1.447 0.271,2.759 0.679,3.934c0.429,1.153 1.017,2.137 1.763,2.951c0.769,0.791 1.684,1.402 2.747,1.831c1.085,0.43 2.317,0.645 3.697,0.645c1.153,-0 2.238,-0.057 3.255,-0.17c1.04,-0.136 2.046,-0.328 3.018,-0.576c0.973,-0.249 1.934,-0.554 2.883,-0.916c0.95,-0.384 1.922,-0.825 2.917,-1.322l-0,8.003c-0.905,0.475 -1.82,0.882 -2.747,1.221c-0.905,0.317 -1.866,0.588 -2.883,0.814c-1.017,0.226 -2.114,0.384 -3.29,0.475c-1.175,0.113 -2.464,0.17 -3.866,0.17l0,-0.001Z" style="fill-rule:nonzero;"/><path id="path12559" d="M309.589,913.629c-1.944,0 -3.719,-0.418 -5.324,-1.255c-1.605,-0.836 -2.985,-2.068 -4.138,-3.696c-1.153,-1.651 -2.057,-3.697 -2.713,-6.138c-0.633,-2.442 -0.949,-5.268 -0.949,-8.479c-0,-3.255 0.316,-6.104 0.949,-8.546c0.656,-2.464 1.572,-4.522 2.747,-6.172c1.199,-1.673 2.623,-2.928 4.273,-3.765c1.651,-0.836 3.471,-1.254 5.46,-1.254c1.221,-0 2.34,0.146 3.358,0.44c1.017,0.272 1.933,0.668 2.747,1.187c0.814,0.498 1.537,1.086 2.17,1.764c0.656,0.656 1.232,1.379 1.73,2.17l0.339,0c-0.136,-0.882 -0.26,-1.775 -0.373,-2.679c-0.113,-0.769 -0.215,-1.582 -0.305,-2.442c-0.068,-0.882 -0.102,-1.695 -0.102,-2.442l0,-12.141l10.344,0l-0,52.77l-7.902,-0l-2.001,-4.918l-0.441,0c-0.475,0.769 -1.017,1.503 -1.628,2.205c-0.61,0.677 -1.323,1.265 -2.136,1.763c-0.792,0.498 -1.696,0.893 -2.713,1.187c-0.995,0.294 -2.126,0.44 -3.392,0.44l0,0.001Zm3.765,-8.241c1.22,0 2.26,-0.203 3.12,-0.61c0.859,-0.43 1.548,-1.063 2.068,-1.899c0.543,-0.86 0.939,-1.922 1.187,-3.188c0.272,-1.266 0.419,-2.747 0.441,-4.443l0,-1.12c0,-1.831 -0.113,-3.459 -0.339,-4.883c-0.226,-1.425 -0.599,-2.612 -1.119,-3.561c-0.52,-0.972 -1.221,-1.707 -2.103,-2.204c-0.881,-0.498 -1.989,-0.747 -3.323,-0.747c-2.171,0 -3.764,0.984 -4.782,2.951c-1.017,1.944 -1.526,4.781 -1.526,8.512c0,3.73 0.509,6.534 1.526,8.41c1.04,1.854 2.657,2.781 4.85,2.781l-0,0.001Z" style="fill-rule:nonzero;"/><path id="path12561" d="M378.908,874.324c1.944,-0 3.719,0.418 5.324,1.254c1.606,0.837 2.985,2.08 4.138,3.731c1.153,1.65 2.046,3.697 2.679,6.138c0.656,2.442 0.983,5.268 0.983,8.479c0,3.255 -0.327,6.115 -0.983,8.58c-0.633,2.441 -1.538,4.487 -2.713,6.138c-1.176,1.65 -2.589,2.894 -4.239,3.73c-1.651,0.837 -3.471,1.255 -5.46,1.255c-1.266,0 -2.397,-0.136 -3.392,-0.407c-0.972,-0.272 -1.842,-0.634 -2.611,-1.086c-0.769,-0.452 -1.447,-0.96 -2.035,-1.526c-0.565,-0.588 -1.085,-1.198 -1.56,-1.831l-0.712,-0l-1.73,4.171l-7.901,0l-0,-52.769l10.343,0l0,12.277c0,0.746 -0.022,1.56 -0.067,2.442c-0.045,0.859 -0.09,1.661 -0.136,2.407c-0.068,0.882 -0.135,1.764 -0.203,2.646l0.407,-0c0.474,-0.792 1.017,-1.526 1.627,-2.205c0.611,-0.678 1.312,-1.266 2.103,-1.763c0.814,-0.52 1.73,-0.927 2.747,-1.221c1.017,-0.294 2.148,-0.441 3.391,-0.441l-0,0.001Zm-3.493,8.275c-1.153,-0 -2.137,0.215 -2.951,0.644c-0.791,0.408 -1.435,1.029 -1.933,1.866c-0.497,0.836 -0.859,1.899 -1.085,3.188c-0.226,1.266 -0.362,2.746 -0.407,4.442l0,1.12c0,1.831 0.102,3.459 0.305,4.883c0.226,1.425 0.588,2.623 1.086,3.595c0.497,0.95 1.153,1.673 1.967,2.171c0.836,0.497 1.865,0.746 3.086,0.746c2.057,-0 3.561,-0.972 4.51,-2.917c0.972,-1.967 1.458,-4.815 1.458,-8.546c0,-3.73 -0.486,-6.522 -1.458,-8.376c-0.949,-1.877 -2.476,-2.815 -4.578,-2.815l-0,-0.001Z" style="fill-rule:nonzero;"/><path id="path12563" d="M395.492,875.036l11.327,-0l6.104,21.331c0.361,1.176 0.621,2.431 0.779,3.765c0.182,1.334 0.295,2.532 0.339,3.594l0.204,0c0.047,-0.519 0.104,-1.096 0.17,-1.729c0.09,-0.633 0.192,-1.278 0.304,-1.933c0.114,-0.656 0.238,-1.3 0.374,-1.933c0.158,-0.656 0.316,-1.244 0.474,-1.764l5.969,-21.331l11.395,-0l-14.99,42.764c-1.401,4.002 -3.312,6.975 -5.731,8.92c-2.419,1.944 -5.449,2.916 -9.089,2.916c-1.175,0 -2.193,-0.068 -3.052,-0.203c-0.859,-0.113 -1.594,-0.238 -2.204,-0.373l-0,-8.207c0.475,0.113 1.074,0.215 1.797,0.305c0.724,0.09 1.481,0.135 2.272,0.135c1.086,0 2.013,-0.146 2.781,-0.44c0.769,-0.294 1.425,-0.712 1.967,-1.255c0.565,-0.52 1.04,-1.153 1.425,-1.899c0.407,-0.747 0.757,-1.583 1.051,-2.51l0.645,-1.899l-14.311,-38.254Z" style="fill-rule:nonzero;"/></g></g><g id="Parabola1" serif:id="Parabola"><g id="Parabola2" serif:id="Parabola"><g id="text3940"><path id="path4361-6" d="M56.382,1189.75l10.808,0l-0,-43.668l20.739,-0c14.604,-0 22.491,-1.899 29.063,-6.719c7.01,-5.111 10.808,-14.02 10.808,-24.828c-0,-12.414 -4.674,-22.199 -12.852,-27.019c-6.719,-4.089 -14.897,-5.696 -28.772,-5.696l-29.794,0l0,107.93m10.808,-53.454l-0,-44.69l15.335,-0c12.414,-0 20.154,1.022 24.536,3.213c6.28,3.213 9.785,10.077 9.785,19.716c0,8.325 -3.359,15.043 -8.909,18.11c-4.527,2.629 -10.807,3.651 -20.739,3.651l-20.008,0" style="fill:#fff;fill-rule:nonzero;"/><path id="path4363" d="M222.263,1109.86l-10.807,-0l-0,14.166c-7.887,-11.099 -17.672,-16.065 -31.547,-16.065c-23.952,0 -42.062,18.11 -42.062,42.062c0,23.806 18.256,41.624 42.793,41.624c13.582,-0 22.345,-4.528 30.816,-15.92l-0,14.021l10.807,0l0,-79.888m-42.062,8.032c17.526,0 31.255,13.729 31.255,31.547c-0,18.11 -13.437,32.276 -30.67,32.276c-18.11,0 -31.985,-14.166 -31.985,-32.422c0,-17.38 14.021,-31.401 31.4,-31.401" style="fill:#fff;fill-rule:nonzero;"/><path id="path4365" d="M240.752,1189.75l10.808,0l-0,-46.589c-0,-14.897 7.594,-23.076 22.637,-24.536l0,-10.662c-11.538,0.584 -18.402,4.528 -22.637,13.29l-0,-11.391l-10.808,-0l0,79.888" style="fill:#fff;fill-rule:nonzero;"/><path id="path4367" d="M366.029,1109.86l-10.807,-0l-0,14.166c-7.887,-11.099 -17.672,-16.065 -31.547,-16.065c-23.951,0 -42.061,18.11 -42.061,42.062c-0,23.806 18.256,41.624 42.792,41.624c13.582,-0 22.345,-4.528 30.816,-15.92l-0,14.021l10.807,0l0,-79.888m-42.061,8.032c17.525,0 31.254,13.729 31.254,31.547c-0,18.11 -13.437,32.276 -30.67,32.276c-18.11,0 -31.985,-14.166 -31.985,-32.422c0,-17.38 14.021,-31.401 31.401,-31.401" style="fill:#fff;fill-rule:nonzero;"/><path id="path4369" d="M384.518,1189.75l10.808,0l-0,-13.729c6.718,9.932 18.11,15.628 31.254,15.628c24.098,-0 42.208,-17.964 42.208,-41.916c-0,-23.514 -18.402,-41.77 -42.062,-41.77c-13.436,0 -24.536,5.55 -31.4,15.627l-0,-41.77l-10.808,0l0,107.93m41.916,-71.856c17.964,0 31.4,13.583 31.4,31.547c0,18.402 -13.582,32.276 -31.546,32.276c-8.909,0 -16.211,-3.067 -22.491,-9.493c-6.28,-6.426 -9.201,-13.728 -9.201,-22.783c-0,-17.672 14.02,-31.547 31.838,-31.547" style="fill:#fff;fill-rule:nonzero;"/><path id="path4371" d="M522.919,1107.96c-23.659,0 -41.915,17.964 -41.915,41.332c-0,24.536 17.963,42.354 42.792,42.354c23.367,-0 40.601,-17.672 40.601,-41.624c0,-24.39 -17.526,-42.062 -41.478,-42.062m0,9.931c17.526,0 30.524,13.729 30.524,32.277c0,18.256 -12.56,31.546 -29.939,31.546c-18.402,0 -31.547,-13.436 -31.547,-32.13c0,-18.11 13.291,-31.693 30.962,-31.693" style="fill:#fff;fill-rule:nonzero;"/><path id="path4373-2" d="M579.629,1189.75l10.808,0l0,-107.93l-10.808,0l0,107.93" style="fill:#fff;fill-rule:nonzero;"/><path id="path4375" d="M690.074,1109.86l-10.808,-0l0,14.166c-7.886,-11.099 -17.672,-16.065 -31.546,-16.065c-23.952,0 -42.062,18.11 -42.062,42.062c-0,23.806 18.256,41.624 42.792,41.624c13.583,-0 22.345,-4.528 30.816,-15.92l0,14.021l10.808,0l-0,-79.888m-42.062,8.032c17.526,0 31.254,13.729 31.254,31.547c0,18.11 -13.436,32.276 -30.67,32.276c-18.11,0 -31.984,-14.166 -31.984,-32.422c-0,-17.38 14.02,-31.401 31.4,-31.401" style="fill:#fff;fill-rule:nonzero;"/></g><g id="g5438"><path id="path4306-9" d="M720.141,1142.23l20.847,-0c-2.725,5.586 -8.176,8.857 -14.784,8.857c-9.879,-0 -17.441,-7.426 -17.441,-17.032c0,-4.361 1.84,-9.13 4.701,-12.127c2.93,-3.202 7.358,-4.974 12.195,-4.974c5.859,0 10.696,2.317 13.83,6.677l10.969,-0c-3.271,-9.061 -13.626,-15.67 -24.595,-15.67c-14.715,0 -26.501,11.514 -26.501,25.957c-0,14.716 11.922,26.161 27.387,26.161c7.562,0 14.103,-2.657 19.076,-7.766c4.633,-4.837 7.222,-11.105 7.222,-17.577l-0,-1.226l-32.906,-0l-0,8.72" style="fill:#fff;fill-rule:nonzero;"/><path id="path4308-2" d="M759.167,1159.19l9.334,-0l-0,-36.585l21.052,36.585l10.423,-0l0,-50.347l-9.333,0l-0,36.653l-20.848,-36.653l-10.628,0l0,50.347" style="fill:#fff;fill-rule:nonzero;"/><path id="path4310-5" d="M809.598,1108.84l0,31.884c0,5.382 0.818,8.789 2.725,11.854c2.93,4.633 8.38,7.494 14.239,7.494c5.45,0 10.628,-2.452 13.626,-6.472c2.452,-3.27 3.406,-7.017 3.406,-12.876l0,-31.884l-9.333,0l-0,31.884c-0,3.747 -0.273,5.314 -1.227,6.949c-1.294,2.112 -3.747,3.407 -6.404,3.407c-2.725,-0 -5.177,-1.295 -6.472,-3.407c-0.954,-1.635 -1.226,-3.202 -1.226,-6.949l-0,-31.884l-9.334,0" style="fill:#fff;fill-rule:nonzero;"/><path id="path5235" d="M699.362,1191.24l11.41,0l-0,-4.118l-7.104,0l-0,-19.111l-4.306,0l-0,23.229" style="fill:#fff;fill-rule:nonzero;"/><path id="path5259" d="M712.735,1191.24l4.18,0l0,-17.414l-4.18,0l-0,17.414" style="fill:#fff;fill-rule:nonzero;"/><path id="path5237" d="M714.914,1167.11l-2.956,2.956l2.778,2.778l2.956,-2.956l-2.778,-2.778" style="fill:#fff;fill-rule:nonzero;"/><path id="path5239" d="M720.286,1191.24l4.18,0l0,-8.204c0,-2.326 0.158,-3.332 0.692,-4.18c0.66,-1.038 1.76,-1.604 3.08,-1.604c1.069,0 1.949,0.378 2.515,1.101c0.566,0.754 0.817,2.043 0.817,4.369l0,8.518l4.181,0l-0,-9.335c-0,-3.112 -0.315,-4.621 -1.258,-5.973c-1.131,-1.634 -3.017,-2.514 -5.437,-2.514c-1.981,-0 -3.364,0.597 -4.904,2.074l0,-1.666l-3.866,0l-0,17.414" style="fill:#fff;fill-rule:nonzero;"/><path id="path5241" d="M754.63,1173.82l-4.181,0l-0,8.204c-0,2.295 -0.157,3.426 -0.66,4.181c-0.597,1.006 -1.76,1.603 -3.175,1.603c-1.069,-0 -1.886,-0.346 -2.452,-1.1c-0.597,-0.755 -0.848,-2.043 -0.848,-4.369l-0,-8.519l-4.181,0l0,9.336c0,2.954 0.346,4.463 1.32,5.909c1.163,1.666 3.049,2.578 5.312,2.578c2.106,-0 3.427,-0.535 4.998,-2.075l0,1.666l3.867,0l-0,-17.414" style="fill:#fff;fill-rule:nonzero;"/><path id="path5243" d="M756.315,1191.24l5.029,0l3.646,-5.972l3.646,5.972l5.029,0l-6.192,-8.99l5.312,-8.424l-4.715,0l-3.08,5.25l-3.143,-5.25l-4.715,0l5.343,8.424l-6.16,8.99" style="fill:#fff;fill-rule:nonzero;"/><path id="path5245" d="M776.229,1184.04l8.707,-0l-0,-3.709l-8.707,-0l-0,3.709" style="fill:#fff;fill-rule:nonzero;"/><path id="path5247" d="M788.799,1191.24l4.181,0l-0,-23.229l-4.181,0l0,23.229" style="fill:#fff;fill-rule:nonzero;"/><path id="path5263" d="M796.35,1191.24l4.181,0l0,-17.414l-4.181,0l0,17.414" style="fill:#fff;fill-rule:nonzero;"/><path id="path5249" d="M798.53,1167.11l-2.956,2.956l2.778,2.778l2.956,-2.956l-2.778,-2.778" style="fill:#fff;fill-rule:nonzero;"/><path id="path5251" d="M803.902,1191.24l3.834,0l0,-2.232c1.792,1.918 3.458,2.641 6.036,2.641c2.703,-0 4.84,-1.006 6.443,-3.049c1.32,-1.698 2.043,-3.867 2.043,-6.193c0,-5.249 -3.772,-9.209 -8.769,-9.209c-2.263,-0 -3.804,0.628 -5.407,2.231l0,-7.418l-4.18,0l-0,23.229m8.989,-14.208c2.987,0 5.155,2.295 5.155,5.407c0,3.175 -2.074,5.375 -5.06,5.375c-3.018,-0 -5.155,-2.232 -5.155,-5.407c-0,-3.143 2.137,-5.375 5.06,-5.375" style="fill:#fff;fill-rule:nonzero;"/><path id="path5253" d="M824.652,1191.24l4.181,0l-0,-9.681c-0,-2.703 1.226,-4.055 3.74,-4.118l0,-4.023l-0.314,-0c-1.792,-0 -2.672,0.503 -3.772,2.106l-0,-1.698l-3.835,0l0,17.414" style="fill:#fff;fill-rule:nonzero;"/><path id="path5255" d="M851.977,1184.38c0.126,-0.598 0.157,-0.975 0.157,-1.603c0,-5.407 -3.803,-9.367 -8.99,-9.367c-5.123,-0 -9.178,4.055 -9.178,9.178c0,5.092 4.118,9.053 9.43,9.053c2.86,-0 5.092,-1.038 6.915,-3.144c0.66,-0.817 1.1,-1.54 1.383,-2.42l-4.558,0c-1.068,1.257 -2.106,1.729 -3.834,1.729c-2.484,-0 -4.307,-1.32 -4.81,-3.426l13.485,-0m-13.61,-3.678c0.66,-2.232 2.357,-3.458 4.84,-3.458c2.578,0 4.275,1.226 4.81,3.458l-9.65,0" style="fill:#fff;fill-rule:nonzero;"/></g></g><path id="Logo" d="M654.884,200.033c-17.075,1.632 -35.204,4.631 -54.114,8.63l-119.803,122.95c13.732,1.652 26.299,4.38 37.768,8.224l136.149,-139.804Zm84.37,6.904l-165.795,170.059c46.628,60.427 30.203,181.809 -67.922,381.847c72.597,-79.248 389.438,-473.069 244.479,-547.337c-3.366,-1.724 -7.046,-3.208 -10.762,-4.569Zm-220.925,23.961c-22.935,7.298 -46.28,15.572 -69.547,24.366l-79.293,81.324c18.189,-2.949 35.435,-4.931 51.678,-5.99l97.162,-99.7Zm-118.889,43.758c-144.662,59.505 -274.024,132.19 -274.024,132.19c76.848,-28.8 146.251,-50.329 206.812,-63.252l67.212,-68.938Z" style="fill:#787dab;fill-rule:nonzero;"/></g></g></svg>