<?xml version="1.0" encoding="UTF-8" standalone="no"?><!DOCTYPE svg PUBLIC "-//W3C//DTD SVG 1.1//EN" "http://www.w3.org/Graphics/SVG/1.1/DTD/svg11.dtd"><svg width="100%" height="100%" viewBox="0 0 907 1352" version="1.1" xmlns="http://www.w3.org/2000/svg" xmlns:xlink="http://www.w3.org/1999/xlink" xml:space="preserve" xmlns:serif="http://www.serif.com/" style="fill-rule:evenodd;clip-rule:evenodd;stroke-linejoin:round;stroke-miterlimit:2;"><rect id="Parabola" x="0" y="-0" width="906.667" height="1351.11" style="fill:none;"/><clipPath id="_clip1"><rect x="0" y="-0" width="906.667" height="1351.11"/></clipPath><g clip-path="url(#_clip1)"><g><g id="Frame"><path id="path36023" d="M363.226,8.892l180.223,-0c196.3,-0 354.331,36.928 354.331,82.799l0,1167.73c0,45.871 -158.031,82.8 -354.331,82.8l-180.223,-0c-196.299,-0 -354.331,-36.929 -354.331,-82.8l0,-1167.73c0,-45.871 158.032,-82.799 354.331,-82.799Z" style="fill:#fff;fill-rule:nonzero;"/><path id="path36025" d="M363.234,-0c-98.707,-0 -187.781,9.234 -252.806,24.429c-32.512,7.598 -58.999,16.618 -78.086,27.198c-9.544,5.29 -17.286,10.978 -22.976,17.509c-5.69,6.53 -9.366,14.275 -9.366,22.561l0,1167.72c0,8.285 3.676,16.03 9.366,22.56c5.69,6.531 13.432,12.219 22.976,17.509c19.087,10.581 45.574,19.6 78.086,27.198c65.025,15.195 154.099,24.429 252.806,24.429l180.209,0c98.707,0 187.781,-9.234 252.806,-24.429c32.512,-7.598 58.999,-16.617 78.086,-27.198c9.544,-5.29 17.286,-10.978 22.976,-17.509c5.69,-6.53 9.366,-14.275 9.366,-22.56l-0,-1167.72c-0,-8.286 -3.676,-16.031 -9.366,-22.561c-5.69,-6.531 -13.432,-12.219 -22.976,-17.509c-19.087,-10.58 -45.574,-19.6 -78.086,-27.198c-65.025,-15.195 -154.099,-24.429 -252.806,-24.429l-180.209,-0Zm-0,17.786l180.209,-0c97.593,-0 185.703,9.231 248.769,23.968c31.533,7.368 56.818,16.176 73.496,25.421c8.339,4.622 14.481,9.365 18.201,13.633c3.719,4.269 4.982,7.706 4.982,10.889l0,1167.72c0,3.182 -1.263,6.619 -4.982,10.888c-3.72,4.269 -9.862,9.011 -18.201,13.633c-16.678,9.245 -41.963,18.053 -73.496,25.421c-63.066,14.738 -151.176,23.969 -248.769,23.969l-180.209,-0c-97.593,-0 -185.703,-9.231 -248.769,-23.969c-31.533,-7.368 -56.818,-16.176 -73.496,-25.421c-8.339,-4.622 -14.481,-9.364 -18.201,-13.633c-3.719,-4.269 -4.982,-7.706 -4.982,-10.888l-0,-1167.72c-0,-3.183 1.263,-6.62 4.982,-10.889c3.72,-4.268 9.862,-9.011 18.201,-13.633c16.678,-9.245 41.963,-18.053 73.496,-25.421c63.066,-14.737 151.176,-23.968 248.769,-23.968Z" style="fill-rule:nonzero;"/></g><g id="Bottom"><path id="path35979" d="M371.606,946.173l163.464,0c199.608,0 360.304,38.151 360.304,85.54l-0,218.99c-0,47.389 -160.696,85.54 -360.304,85.54l-163.464,-0c-199.609,-0 -360.304,-38.151 -360.304,-85.54l-0,-218.99c-0,-47.389 160.695,-85.54 360.304,-85.54Z" style="fill-rule:nonzero;"/><path id="path35981" d="M371.607,938.419c-100.298,0 -190.804,9.547 -256.796,25.214c-32.996,7.833 -59.838,17.123 -79.078,27.958c-19.241,10.836 -32.18,23.883 -32.18,40.116l-0,218.988c-0,16.233 12.939,29.303 32.18,40.139c19.24,10.835 46.082,20.125 79.078,27.958c65.992,15.667 156.498,25.214 256.796,25.214l163.463,0c100.298,0 190.804,-9.547 256.796,-25.214c32.996,-7.833 59.838,-17.123 79.078,-27.958c19.241,-10.836 32.18,-23.906 32.18,-40.139l0,-218.988c0,-16.233 -12.939,-29.28 -32.18,-40.116c-19.24,-10.835 -46.082,-20.125 -79.078,-27.958c-65.992,-15.667 -156.498,-25.214 -256.796,-25.214l-163.463,0Zm0,15.525l163.463,-0c99.309,-0 188.962,9.52 253.22,24.775c32.129,7.628 57.914,16.745 75.042,26.39c17.127,9.646 24.291,19.137 24.291,26.598l-0,218.988c-0,7.461 -7.164,16.952 -24.291,26.598c-17.128,9.645 -42.913,18.762 -75.042,26.39c-64.258,15.255 -153.911,24.798 -253.22,24.798l-163.463,0c-99.309,0 -188.962,-9.543 -253.22,-24.798c-32.129,-7.628 -57.914,-16.745 -75.042,-26.39c-17.127,-9.646 -24.291,-19.137 -24.291,-26.598l0,-218.988c0,-7.461 7.164,-16.952 24.291,-26.598c17.128,-9.645 42.913,-18.762 75.042,-26.39c64.258,-15.255 153.911,-24.775 253.22,-24.775Z" style="fill-rule:nonzero;"/></g><g id="Powered-By" serif:id="Powered By"><path id="path12547" d="M59.756,886.701l2.069,0c2.962,0 5.189,-0.588 6.681,-1.763c1.515,-1.176 2.272,-3.086 2.272,-5.732c-0,-2.464 -0.678,-4.284 -2.035,-5.46c-1.334,-1.175 -3.436,-1.763 -6.308,-1.763l-2.679,-0l0,14.718Zm21.671,-7.868c-0,2.171 -0.328,4.251 -0.984,6.24c-0.656,1.99 -1.741,3.742 -3.256,5.257c-1.492,1.515 -3.47,2.724 -5.934,3.629c-2.442,0.904 -5.472,1.356 -9.089,1.356l-2.408,0l0,17.635l-10.513,-0l0,-49.581l13.769,-0c3.188,-0 5.935,0.362 8.241,1.085c2.328,0.701 4.239,1.719 5.731,3.053c1.515,1.311 2.634,2.927 3.357,4.849c0.724,1.899 1.086,4.058 1.086,6.478l-0,-0.001Z" style="fill-rule:nonzero;"/><path id="path12549" d="M98.587,893.925c-0,3.775 0.531,6.624 1.594,8.546c1.062,1.899 2.792,2.848 5.188,2.848c2.374,0 4.093,-0.96 5.155,-2.882c1.063,-1.922 1.594,-4.759 1.594,-8.512c0,-3.776 -0.531,-6.591 -1.594,-8.445c-1.062,-1.876 -2.803,-2.814 -5.223,-2.814c-2.373,-0 -4.092,0.938 -5.154,2.814c-1.04,1.854 -1.56,4.669 -1.56,8.445Zm24.078,-0c0,3.165 -0.407,5.968 -1.221,8.41c-0.791,2.442 -1.944,4.499 -3.459,6.172c-1.492,1.673 -3.323,2.951 -5.494,3.833c-2.148,0.859 -4.567,1.288 -7.257,1.288c-2.51,0 -4.816,-0.429 -6.919,-1.288c-2.102,-0.882 -3.922,-2.16 -5.46,-3.833c-1.514,-1.673 -2.701,-3.73 -3.56,-6.172c-0.86,-2.442 -1.289,-5.245 -1.289,-8.41c-0,-3.143 0.395,-5.935 1.187,-8.377c0.814,-2.442 1.967,-4.488 3.459,-6.138c1.515,-1.673 3.346,-2.939 5.494,-3.798c2.148,-0.86 4.578,-1.289 7.291,-1.289c2.51,-0 4.816,0.429 6.918,1.289c2.103,0.859 3.912,2.125 5.427,3.798c1.537,1.65 2.735,3.696 3.594,6.138c0.859,2.442 1.289,5.234 1.289,8.377Z" style="fill-rule:nonzero;"/><path id="path12551" d="M160.546,912.95l-2.917,-13.26c-0.09,-0.384 -0.214,-0.927 -0.373,-1.628c-0.135,-0.724 -0.293,-1.526 -0.474,-2.408c-0.181,-0.904 -0.373,-1.854 -0.577,-2.848c-0.181,-1.018 -0.373,-2.024 -0.576,-3.019c-0.453,-2.328 -0.95,-4.838 -1.492,-7.528l-0.204,-0c-0.52,2.69 -0.995,5.211 -1.424,7.562c-0.181,0.995 -0.373,2.001 -0.577,3.019c-0.181,1.017 -0.362,1.978 -0.542,2.882c-0.181,0.882 -0.351,1.684 -0.509,2.408c-0.136,0.723 -0.249,1.289 -0.339,1.696l-3.052,13.124l-11.124,-0l-10.208,-37.915l10.276,0l3.832,16.787c0.203,0.882 0.407,1.944 0.61,3.188c0.226,1.221 0.43,2.464 0.611,3.73c0.203,1.244 0.384,2.431 0.542,3.561c0.159,1.108 0.283,1.99 0.373,2.645l0.204,0c0.023,-0.429 0.068,-0.983 0.136,-1.661c0.09,-0.701 0.192,-1.447 0.305,-2.239c0.113,-0.791 0.226,-1.593 0.339,-2.407c0.135,-0.837 0.26,-1.617 0.373,-2.34c0.136,-0.724 0.249,-1.357 0.339,-1.9c0.113,-0.565 0.204,-0.961 0.271,-1.187l4.138,-18.177l11.395,0l3.967,18.177c0.113,0.498 0.26,1.267 0.441,2.307c0.181,1.04 0.362,2.159 0.543,3.357c0.203,1.176 0.373,2.329 0.509,3.459c0.135,1.108 0.214,1.978 0.237,2.611l0.203,0c0.068,-0.565 0.181,-1.401 0.34,-2.509c0.18,-1.108 0.373,-2.295 0.576,-3.561c0.203,-1.289 0.418,-2.566 0.644,-3.832c0.249,-1.266 0.475,-2.34 0.679,-3.222l3.968,-16.787l10.14,0l-10.344,37.915l-11.259,-0Z" style="fill-rule:nonzero;"/><path id="path12553" d="M202.903,881.682c-1.831,0 -3.357,0.644 -4.578,1.933c-1.198,1.289 -1.888,3.312 -2.068,6.071l13.192,-0c-0.023,-1.153 -0.17,-2.216 -0.441,-3.188c-0.272,-0.972 -0.678,-1.809 -1.221,-2.51c-0.543,-0.723 -1.221,-1.289 -2.035,-1.695c-0.814,-0.408 -1.763,-0.611 -2.849,-0.611l0,0Zm1.323,31.946c-2.713,0 -5.211,-0.395 -7.495,-1.187c-2.283,-0.791 -4.25,-1.978 -5.901,-3.561c-1.65,-1.605 -2.939,-3.617 -3.866,-6.036c-0.904,-2.442 -1.356,-5.302 -1.356,-8.58c-0,-3.324 0.418,-6.229 1.255,-8.716c0.836,-2.487 2,-4.555 3.493,-6.206c1.514,-1.673 3.323,-2.928 5.426,-3.764c2.125,-0.837 4.476,-1.255 7.054,-1.255c2.509,-0 4.77,0.384 6.782,1.153c2.035,0.746 3.753,1.854 5.155,3.323c1.424,1.47 2.51,3.278 3.256,5.426c0.768,2.125 1.153,4.567 1.153,7.325l-0,5.02l-23.129,-0c0.045,1.447 0.271,2.758 0.678,3.934c0.43,1.153 1.018,2.136 1.764,2.95c0.768,0.791 1.684,1.402 2.747,1.831c1.085,0.43 2.317,0.645 3.696,0.645c1.153,0 2.239,-0.057 3.256,-0.17c1.04,-0.135 2.046,-0.328 3.018,-0.576c0.972,-0.249 1.933,-0.554 2.883,-0.916c0.949,-0.384 1.922,-0.825 2.916,-1.322l0,8.003c-0.904,0.475 -1.82,0.882 -2.747,1.221c-0.904,0.317 -1.865,0.588 -2.882,0.814c-1.018,0.226 -2.114,0.384 -3.29,0.475c-1.175,0.113 -2.464,0.17 -3.866,0.17l0,-0.001Z" style="fill-rule:nonzero;"/><path id="path12555" d="M247.703,874.323c0.271,-0 0.565,0.012 0.881,0.035c0.34,0 0.656,0.024 0.95,0.071c0.317,0.024 0.599,0.059 0.848,0.106c0.271,0.024 0.475,0.059 0.61,0.107l0,9.699c-0.181,-0.047 -0.429,-0.093 -0.746,-0.136c-0.316,-0.047 -0.656,-0.083 -1.017,-0.106c-0.339,-0.047 -0.679,-0.071 -1.018,-0.071c-0.339,-0.024 -0.621,-0.036 -0.847,-0.036c-1.334,0 -2.567,0.17 -3.697,0.51c-1.108,0.339 -2.069,0.893 -2.883,1.661c-0.791,0.747 -1.413,1.742 -1.865,2.985c-0.429,1.22 -0.644,2.724 -0.644,4.51l-0,19.297l-10.344,-0l0,-37.915l7.834,-0l1.526,5.697l0.509,0c0.543,-0.972 1.13,-1.854 1.763,-2.645c0.633,-0.791 1.334,-1.458 2.103,-2.001c0.791,-0.565 1.673,-0.995 2.645,-1.289c0.995,-0.316 2.125,-0.474 3.392,-0.474l-0,-0.005Z" style="fill-rule:nonzero;"/><path id="path12557" d="M273.409,881.682c-1.831,0 -3.358,0.644 -4.578,1.933c-1.199,1.289 -1.888,3.312 -2.069,6.071l13.192,-0c-0.023,-1.153 -0.17,-2.216 -0.441,-3.188c-0.271,-0.972 -0.678,-1.809 -1.221,-2.51c-0.542,-0.723 -1.221,-1.289 -2.034,-1.695c-0.814,-0.408 -1.764,-0.611 -2.849,-0.611l-0,0Zm1.322,31.946c-2.713,0 -5.211,-0.395 -7.494,-1.187c-2.284,-0.791 -4.251,-1.978 -5.901,-3.561c-1.651,-1.605 -2.939,-3.617 -3.866,-6.036c-0.905,-2.442 -1.357,-5.302 -1.357,-8.58c0,-3.324 0.418,-6.229 1.255,-8.716c0.836,-2.487 2.001,-4.555 3.493,-6.206c1.515,-1.673 3.323,-2.928 5.426,-3.764c2.125,-0.837 4.477,-1.255 7.054,-1.255c2.51,-0 4.77,0.384 6.783,1.153c2.034,0.746 3.753,1.854 5.154,3.323c1.425,1.47 2.51,3.278 3.256,5.426c0.769,2.125 1.153,4.567 1.153,7.325l0,5.02l-23.129,-0c0.045,1.447 0.271,2.758 0.679,3.934c0.429,1.153 1.017,2.136 1.763,2.95c0.769,0.791 1.685,1.402 2.747,1.831c1.085,0.43 2.318,0.645 3.697,0.645c1.153,0 2.238,-0.057 3.255,-0.17c1.04,-0.135 2.046,-0.328 3.019,-0.576c0.972,-0.249 1.933,-0.554 2.882,-0.916c0.95,-0.384 1.922,-0.825 2.917,-1.322l-0,8.003c-0.905,0.475 -1.82,0.882 -2.747,1.221c-0.905,0.317 -1.865,0.588 -2.883,0.814c-1.017,0.226 -2.114,0.384 -3.289,0.475c-1.176,0.113 -2.465,0.17 -3.867,0.17l0,-0.001Z" style="fill-rule:nonzero;"/><path id="path12559" d="M309.594,913.628c-1.944,0 -3.719,-0.418 -5.324,-1.255c-1.605,-0.836 -2.985,-2.068 -4.138,-3.696c-1.153,-1.651 -2.057,-3.697 -2.713,-6.138c-0.633,-2.442 -0.949,-5.268 -0.949,-8.479c-0,-3.255 0.316,-6.104 0.949,-8.546c0.656,-2.464 1.572,-4.521 2.747,-6.172c1.199,-1.673 2.623,-2.928 4.273,-3.764c1.651,-0.837 3.471,-1.255 5.46,-1.255c1.221,-0 2.34,0.147 3.358,0.44c1.017,0.272 1.933,0.668 2.747,1.187c0.814,0.498 1.537,1.086 2.17,1.764c0.656,0.656 1.232,1.379 1.73,2.17l0.339,0c-0.136,-0.881 -0.26,-1.774 -0.373,-2.679c-0.113,-0.768 -0.215,-1.582 -0.305,-2.442c-0.068,-0.881 -0.102,-1.695 -0.102,-2.441l0,-12.141l10.344,-0l-0,52.769l-7.902,-0l-2.001,-4.918l-0.441,0c-0.475,0.769 -1.018,1.504 -1.628,2.205c-0.61,0.678 -1.323,1.265 -2.136,1.763c-0.792,0.498 -1.696,0.893 -2.714,1.187c-0.994,0.294 -2.125,0.441 -3.391,0.441l0,0Zm3.765,-8.241c1.22,0 2.26,-0.203 3.12,-0.61c0.859,-0.43 1.548,-1.063 2.068,-1.899c0.543,-0.859 0.939,-1.922 1.187,-3.188c0.272,-1.266 0.419,-2.747 0.441,-4.443l0,-1.12c0,-1.831 -0.113,-3.459 -0.339,-4.883c-0.226,-1.424 -0.599,-2.611 -1.119,-3.561c-0.52,-0.972 -1.221,-1.707 -2.103,-2.204c-0.881,-0.498 -1.989,-0.747 -3.323,-0.747c-2.171,0 -3.765,0.984 -4.782,2.951c-1.017,1.944 -1.526,4.781 -1.526,8.512c0,3.73 0.509,6.534 1.526,8.41c1.04,1.854 2.657,2.781 4.85,2.781l-0,0.001Z" style="fill-rule:nonzero;"/><path id="path12561" d="M378.913,874.323c1.944,-0 3.719,0.418 5.324,1.255c1.605,0.836 2.984,2.08 4.137,3.73c1.153,1.651 2.046,3.697 2.68,6.138c0.655,2.442 0.983,5.268 0.983,8.479c0,3.255 -0.328,6.115 -0.983,8.58c-0.634,2.441 -1.538,4.488 -2.714,6.138c-1.175,1.65 -2.588,2.894 -4.239,3.73c-1.65,0.837 -3.47,1.255 -5.46,1.255c-1.266,0 -2.396,-0.136 -3.391,-0.407c-0.972,-0.272 -1.843,-0.634 -2.611,-1.086c-0.769,-0.452 -1.447,-0.96 -2.035,-1.526c-0.565,-0.588 -1.085,-1.198 -1.56,-1.831l-0.712,-0l-1.73,4.171l-7.902,0l0,-52.769l10.344,0l-0,12.277c-0,0.746 -0.023,1.56 -0.067,2.442c-0.045,0.859 -0.091,1.661 -0.136,2.408c-0.068,0.881 -0.136,1.763 -0.204,2.645l0.407,-0c0.475,-0.792 1.018,-1.526 1.628,-2.205c0.611,-0.678 1.311,-1.265 2.103,-1.763c0.814,-0.52 1.729,-0.927 2.747,-1.221c1.017,-0.294 2.148,-0.441 3.391,-0.441l-0,0.001Zm-3.493,8.275c-1.153,-0 -2.137,0.215 -2.951,0.645c-0.791,0.407 -1.436,1.028 -1.933,1.865c-0.497,0.836 -0.859,1.899 -1.085,3.188c-0.226,1.266 -0.362,2.747 -0.407,4.442l-0,1.12c-0,1.831 0.102,3.459 0.305,4.883c0.226,1.425 0.588,2.623 1.085,3.595c0.498,0.95 1.153,1.673 1.967,2.171c0.837,0.497 1.865,0.746 3.086,0.746c2.058,0 3.561,-0.972 4.511,-2.916c0.972,-1.967 1.458,-4.816 1.458,-8.547c0,-3.73 -0.486,-6.522 -1.458,-8.376c-0.95,-1.877 -2.476,-2.815 -4.578,-2.815l-0,-0.001Z" style="fill-rule:nonzero;"/><path id="path12563" d="M395.496,875.035l11.327,0l6.104,21.331c0.362,1.176 0.622,2.431 0.78,3.765c0.181,1.334 0.294,2.532 0.339,3.595l0.203,-0c0.047,-0.52 0.104,-1.097 0.17,-1.73c0.091,-0.633 0.192,-1.277 0.305,-1.933c0.113,-0.656 0.238,-1.3 0.373,-1.933c0.158,-0.656 0.317,-1.244 0.475,-1.764l5.969,-21.331l11.395,0l-14.99,42.765c-1.402,4.001 -3.312,6.974 -5.731,8.919c-2.42,1.944 -5.449,2.916 -9.089,2.916c-1.176,0 -2.193,-0.068 -3.052,-0.203c-0.859,-0.113 -1.594,-0.238 -2.205,-0.373l0,-8.207c0.475,0.113 1.074,0.215 1.798,0.305c0.723,0.09 1.481,0.135 2.272,0.135c1.085,0 2.012,-0.146 2.781,-0.44c0.768,-0.294 1.424,-0.712 1.967,-1.255c0.565,-0.52 1.04,-1.153 1.424,-1.899c0.407,-0.747 0.758,-1.583 1.051,-2.51l0.645,-1.899l-14.311,-38.254Z" style="fill-rule:nonzero;"/></g></g><g id="Parabola1" serif:id="Parabola"><g id="Parabola2" serif:id="Parabola"><g id="text3940"><path id="path4361-6" d="M56.382,1189.75l10.808,0l-0,-43.668l20.739,-0c14.604,-0 22.491,-1.899 29.063,-6.719c7.01,-5.111 10.808,-14.02 10.808,-24.828c-0,-12.414 -4.674,-22.199 -12.852,-27.019c-6.719,-4.089 -14.897,-5.696 -28.772,-5.696l-29.794,0l0,107.93m10.808,-53.454l-0,-44.69l15.335,-0c12.414,-0 20.154,1.022 24.536,3.213c6.28,3.213 9.785,10.077 9.785,19.716c0,8.325 -3.359,15.043 -8.909,18.11c-4.527,2.629 -10.807,3.651 -20.739,3.651l-20.008,0" style="fill:#fff;fill-rule:nonzero;"/><path id="path4363" d="M222.263,1109.86l-10.807,-0l-0,14.166c-7.887,-11.099 -17.672,-16.065 -31.547,-16.065c-23.952,0 -42.062,18.11 -42.062,42.062c0,23.806 18.256,41.624 42.793,41.624c13.582,-0 22.345,-4.528 30.816,-15.92l-0,14.021l10.807,0l0,-79.888m-42.062,8.032c17.526,0 31.255,13.729 31.255,31.547c-0,18.11 -13.437,32.276 -30.67,32.276c-18.11,0 -31.985,-14.166 -31.985,-32.422c0,-17.38 14.021,-31.401 31.4,-31.401" style="fill:#fff;fill-rule:nonzero;"/><path id="path4365" d="M240.752,1189.75l10.808,0l-0,-46.589c-0,-14.897 7.594,-23.076 22.637,-24.536l0,-10.662c-11.538,0.584 -18.402,4.528 -22.637,13.29l-0,-11.391l-10.808,-0l0,79.888" style="fill:#fff;fill-rule:nonzero;"/><path id="path4367" d="M366.029,1109.86l-10.807,-0l-0,14.166c-7.887,-11.099 -17.672,-16.065 -31.547,-16.065c-23.951,0 -42.061,18.11 -42.061,42.062c-0,23.806 18.256,41.624 42.792,41.624c13.582,-0 22.345,-4.528 30.816,-15.92l-0,14.021l10.807,0l0,-79.888m-42.061,8.032c17.525,0 31.254,13.729 31.254,31.547c-0,18.11 -13.437,32.276 -30.67,32.276c-18.11,0 -31.985,-14.166 -31.985,-32.422c0,-17.38 14.021,-31.401 31.401,-31.401" style="fill:#fff;fill-rule:nonzero;"/><path id="path4369" d="M384.518,1189.75l10.808,0l-0,-13.729c6.718,9.932 18.11,15.628 31.254,15.628c24.098,-0 42.208,-17.964 42.208,-41.916c-0,-23.514 -18.402,-41.77 -42.062,-41.77c-13.436,0 -24.536,5.55 -31.4,15.627l-0,-41.77l-10.808,0l0,107.93m41.916,-71.856c17.964,0 31.4,13.583 31.4,31.547c0,18.402 -13.582,32.276 -31.546,32.276c-8.909,0 -16.211,-3.067 -22.491,-9.493c-6.28,-6.426 -9.201,-13.728 -9.201,-22.783c-0,-17.672 14.02,-31.547 31.838,-31.547" style="fill:#fff;fill-rule:nonzero;"/><path id="path4371" d="M522.919,1107.96c-23.659,0 -41.915,17.964 -41.915,41.332c-0,24.536 17.963,42.354 42.792,42.354c23.367,-0 40.601,-17.672 40.601,-41.624c0,-24.39 -17.526,-42.062 -41.478,-42.062m0,9.931c17.526,0 30.524,13.729 30.524,32.277c0,18.256 -12.56,31.546 -29.939,31.546c-18.402,0 -31.547,-13.436 -31.547,-32.13c0,-18.11 13.291,-31.693 30.962,-31.693" style="fill:#fff;fill-rule:nonzero;"/><path id="path4373-2" d="M579.629,1189.75l10.808,0l0,-107.93l-10.808,0l0,107.93" style="fill:#fff;fill-rule:nonzero;"/><path id="path4375" d="M690.074,1109.86l-10.808,-0l0,14.166c-7.886,-11.099 -17.672,-16.065 -31.546,-16.065c-23.952,0 -42.062,18.11 -42.062,42.062c-0,23.806 18.256,41.624 42.792,41.624c13.583,-0 22.345,-4.528 30.816,-15.92l0,14.021l10.808,0l-0,-79.888m-42.062,8.032c17.526,0 31.254,13.729 31.254,31.547c0,18.11 -13.436,32.276 -30.67,32.276c-18.11,0 -31.984,-14.166 -31.984,-32.422c-0,-17.38 14.02,-31.401 31.4,-31.401" style="fill:#fff;fill-rule:nonzero;"/></g><g id="g5438"><path id="path4306-9" d="M720.141,1142.23l20.847,-0c-2.725,5.586 -8.176,8.857 -14.784,8.857c-9.879,-0 -17.441,-7.426 -17.441,-17.032c0,-4.361 1.84,-9.13 4.701,-12.127c2.93,-3.202 7.358,-4.974 12.195,-4.974c5.859,0 10.696,2.317 13.83,6.677l10.969,-0c-3.271,-9.061 -13.626,-15.67 -24.595,-15.67c-14.715,0 -26.501,11.514 -26.501,25.957c-0,14.716 11.922,26.161 27.387,26.161c7.562,0 14.103,-2.657 19.076,-7.766c4.633,-4.837 7.222,-11.105 7.222,-17.577l-0,-1.226l-32.906,-0l-0,8.72" style="fill:#fff;fill-rule:nonzero;"/><path id="path4308-2" d="M759.167,1159.19l9.334,-0l-0,-36.585l21.052,36.585l10.423,-0l0,-50.347l-9.333,0l-0,36.653l-20.848,-36.653l-10.628,0l0,50.347" style="fill:#fff;fill-rule:nonzero;"/><path id="path4310-5" d="M809.598,1108.84l0,31.884c0,5.382 0.818,8.789 2.725,11.854c2.93,4.633 8.38,7.494 14.239,7.494c5.45,0 10.628,-2.452 13.626,-6.472c2.452,-3.27 3.406,-7.017 3.406,-12.876l0,-31.884l-9.333,0l-0,31.884c-0,3.747 -0.273,5.314 -1.227,6.949c-1.294,2.112 -3.747,3.407 -6.404,3.407c-2.725,-0 -5.177,-1.295 -6.472,-3.407c-0.954,-1.635 -1.226,-3.202 -1.226,-6.949l-0,-31.884l-9.334,0" style="fill:#fff;fill-rule:nonzero;"/><path id="path5235" d="M699.362,1191.24l11.41,0l-0,-4.118l-7.104,0l-0,-19.111l-4.306,0l-0,23.229" style="fill:#fff;fill-rule:nonzero;"/><path id="path5259" d="M712.735,1191.24l4.18,0l0,-17.414l-4.18,0l-0,17.414" style="fill:#fff;fill-rule:nonzero;"/><path id="path5237" d="M714.914,1167.11l-2.956,2.956l2.778,2.778l2.956,-2.956l-2.778,-2.778" style="fill:#fff;fill-rule:nonzero;"/><path id="path5239" d="M720.286,1191.24l4.18,0l0,-8.204c0,-2.326 0.158,-3.332 0.692,-4.18c0.66,-1.038 1.76,-1.604 3.08,-1.604c1.069,0 1.949,0.378 2.515,1.101c0.566,0.754 0.817,2.043 0.817,4.369l0,8.518l4.181,0l-0,-9.335c-0,-3.112 -0.315,-4.621 -1.258,-5.973c-1.131,-1.634 -3.017,-2.514 -5.437,-2.514c-1.981,-0 -3.364,0.597 -4.904,2.074l0,-1.666l-3.866,0l-0,17.414" style="fill:#fff;fill-rule:nonzero;"/><path id="path5241" d="M754.63,1173.82l-4.181,0l-0,8.204c-0,2.295 -0.157,3.426 -0.66,4.181c-0.597,1.006 -1.76,1.603 -3.175,1.603c-1.069,-0 -1.886,-0.346 -2.452,-1.1c-0.597,-0.755 -0.848,-2.043 -0.848,-4.369l-0,-8.519l-4.181,0l0,9.336c0,2.954 0.346,4.463 1.32,5.909c1.163,1.666 3.049,2.578 5.312,2.578c2.106,-0 3.427,-0.535 4.998,-2.075l0,1.666l3.867,0l-0,-17.414" style="fill:#fff;fill-rule:nonzero;"/><path id="path5243" d="M756.315,1191.24l5.029,0l3.646,-5.972l3.646,5.972l5.029,0l-6.192,-8.99l5.312,-8.424l-4.715,0l-3.08,5.25l-3.143,-5.25l-4.715,0l5.343,8.424l-6.16,8.99" style="fill:#fff;fill-rule:nonzero;"/><path id="path5245" d="M776.229,1184.04l8.707,-0l-0,-3.709l-8.707,-0l-0,3.709" style="fill:#fff;fill-rule:nonzero;"/><path id="path5247" d="M788.799,1191.24l4.181,0l-0,-23.229l-4.181,0l0,23.229" style="fill:#fff;fill-rule:nonzero;"/><path id="path5263" d="M796.35,1191.24l4.181,0l0,-17.414l-4.181,0l0,17.414" style="fill:#fff;fill-rule:nonzero;"/><path id="path5249" d="M798.53,1167.11l-2.956,2.956l2.778,2.778l2.956,-2.956l-2.778,-2.778" style="fill:#fff;fill-rule:nonzero;"/><path id="path5251" d="M803.902,1191.24l3.834,0l0,-2.232c1.792,1.918 3.458,2.641 6.036,2.641c2.703,-0 4.84,-1.006 6.443,-3.049c1.32,-1.698 2.043,-3.867 2.043,-6.193c0,-5.249 -3.772,-9.209 -8.769,-9.209c-2.263,-0 -3.804,0.628 -5.407,2.231l0,-7.418l-4.18,0l-0,23.229m8.989,-14.208c2.987,0 5.155,2.295 5.155,5.407c0,3.175 -2.074,5.375 -5.06,5.375c-3.018,-0 -5.155,-2.232 -5.155,-5.407c-0,-3.143 2.137,-5.375 5.06,-5.375" style="fill:#fff;fill-rule:nonzero;"/><path id="path5253" d="M824.652,1191.24l4.181,0l-0,-9.681c-0,-2.703 1.226,-4.055 3.74,-4.118l0,-4.023l-0.314,-0c-1.792,-0 -2.672,0.503 -3.772,2.106l-0,-1.698l-3.835,0l0,17.414" style="fill:#fff;fill-rule:nonzero;"/><path id="path5255" d="M851.977,1184.38c0.126,-0.598 0.157,-0.975 0.157,-1.603c0,-5.407 -3.803,-9.367 -8.99,-9.367c-5.123,-0 -9.178,4.055 -9.178,9.178c0,5.092 4.118,9.053 9.43,9.053c2.86,-0 5.092,-1.038 6.915,-3.144c0.66,-0.817 1.1,-1.54 1.383,-2.42l-4.558,0c-1.068,1.257 -2.106,1.729 -3.834,1.729c-2.484,-0 -4.307,-1.32 -4.81,-3.426l13.485,-0m-13.61,-3.678c0.66,-2.232 2.357,-3.458 4.84,-3.458c2.578,0 4.275,1.226 4.81,3.458l-9.65,0" style="fill:#fff;fill-rule:nonzero;"/></g></g><path id="Logo" d="M654.884,200.033c-17.075,1.632 -35.204,4.631 -54.114,8.63l-119.803,122.95c13.732,1.652 26.299,4.38 37.768,8.224l136.149,-139.804Zm84.37,6.904l-165.795,170.059c46.628,60.427 30.203,181.809 -67.922,381.847c72.597,-79.248 389.438,-473.069 244.479,-547.337c-3.366,-1.724 -7.046,-3.208 -10.762,-4.569Zm-220.925,23.961c-22.935,7.298 -46.28,15.572 -69.547,24.366l-79.293,81.324c18.189,-2.949 35.435,-4.931 51.678,-5.99l97.162,-99.7Zm-118.889,43.758c-144.662,59.505 -274.024,132.19 -274.024,132.19c76.848,-28.8 146.251,-50.329 206.812,-63.252l67.212,-68.938Z" style="fill:#787dab;fill-rule:nonzero;"/></g></g></svg>