<?xml version="1.0" encoding="UTF-8" standalone="no"?><!DOCTYPE svg PUBLIC "-//W3C//DTD SVG 1.1//EN" "http://www.w3.org/Graphics/SVG/1.1/DTD/svg11.dtd"><svg width="100%" height="100%" viewBox="0 0 907 1352" version="1.1" xmlns="http://www.w3.org/2000/svg" xmlns:xlink="http://www.w3.org/1999/xlink" xml:space="preserve" xmlns:serif="http://www.serif.com/" style="fill-rule:evenodd;clip-rule:evenodd;stroke-linejoin:round;"><rect id="PCLinuxOS" x="0" y="-0" width="906.667" height="1351.11" style="fill:none;"/><clipPath id="_clip1"><rect x="0" y="-0" width="906.667" height="1351.11"/></clipPath><g clip-path="url(#_clip1)"><g id="READ-ME" serif:id="READ ME"><path id="Frame" d="M897.778,363.221c-0,-195.561 -158.771,-354.332 -354.333,-354.332l-180.224,-0c-195.561,-0 -354.332,158.771 -354.332,354.332l-0,624.669c-0,195.561 158.771,354.332 354.332,354.332l180.224,0c195.562,0 354.333,-158.771 354.333,-354.332l-0,-624.669Z" style="fill:#fff;stroke:#000;stroke-width:17.78px;"/><path id="Bottom" d="M895.371,1141.21c-0,-107.643 -87.393,-195.036 -195.036,-195.036l-494.004,0c-107.643,0 -195.035,87.393 -195.035,195.036c-0,107.643 87.392,195.036 195.035,195.036l494.004,-0c107.643,-0 195.036,-87.393 195.036,-195.036Z" style="stroke:#000;stroke-width:15.52px;"/><g id="Powered-By" serif:id="Powered By"><path id="path12547" d="M59.75,886.702l2.069,0c2.962,0 5.189,-0.588 6.681,-1.763c1.515,-1.176 2.272,-3.087 2.272,-5.732c-0,-2.464 -0.678,-4.284 -2.035,-5.46c-1.334,-1.176 -3.436,-1.763 -6.308,-1.763l-2.679,-0l0,14.718Zm21.671,-7.868c-0,2.171 -0.328,4.251 -0.984,6.24c-0.655,1.99 -1.741,3.742 -3.255,5.257c-1.493,1.515 -3.471,2.724 -5.935,3.628c-2.442,0.905 -5.472,1.357 -9.089,1.357l-2.408,-0l0,17.635l-10.513,-0l0,-49.581l13.769,-0c3.188,-0 5.935,0.362 8.241,1.085c2.328,0.701 4.239,1.718 5.731,3.052c1.515,1.312 2.634,2.928 3.358,4.85c0.723,1.899 1.085,4.058 1.085,6.477l-0,0Z" style="fill-rule:nonzero;"/><path id="path12549" d="M98.581,893.926c-0,3.775 0.531,6.624 1.594,8.546c1.062,1.899 2.792,2.848 5.189,2.848c2.373,0 4.092,-0.96 5.154,-2.882c1.063,-1.922 1.594,-4.759 1.594,-8.512c0,-3.776 -0.531,-6.591 -1.594,-8.445c-1.062,-1.876 -2.803,-2.815 -5.222,-2.815c-2.374,0 -4.092,0.939 -5.155,2.815c-1.04,1.854 -1.56,4.669 -1.56,8.445Zm24.078,-0c0,3.165 -0.407,5.968 -1.221,8.41c-0.791,2.442 -1.944,4.499 -3.459,6.172c-1.492,1.673 -3.323,2.951 -5.494,3.832c-2.148,0.86 -4.567,1.289 -7.257,1.289c-2.51,0 -4.816,-0.429 -6.918,-1.289c-2.103,-0.881 -3.923,-2.159 -5.46,-3.832c-1.515,-1.673 -2.702,-3.73 -3.561,-6.172c-0.859,-2.442 -1.289,-5.245 -1.289,-8.41c-0,-3.143 0.396,-5.935 1.187,-8.377c0.814,-2.442 1.967,-4.488 3.459,-6.138c1.515,-1.673 3.346,-2.939 5.494,-3.799c2.148,-0.859 4.578,-1.288 7.291,-1.288c2.51,-0 4.816,0.429 6.919,1.288c2.102,0.86 3.911,2.126 5.426,3.799c1.537,1.65 2.735,3.696 3.595,6.138c0.859,2.442 1.288,5.234 1.288,8.377Z" style="fill-rule:nonzero;"/><path id="path12551" d="M160.54,912.951l-2.916,-13.26c-0.091,-0.384 -0.215,-0.927 -0.373,-1.628c-0.136,-0.724 -0.294,-1.526 -0.475,-2.408c-0.181,-0.904 -0.373,-1.854 -0.576,-2.849c-0.181,-1.017 -0.373,-2.023 -0.577,-3.018c-0.452,-2.329 -0.95,-4.838 -1.492,-7.529l-0.204,0c-0.52,2.691 -0.994,5.212 -1.424,7.563c-0.181,0.995 -0.373,2.001 -0.576,3.018c-0.181,1.018 -0.362,1.979 -0.543,2.883c-0.181,0.882 -0.35,1.684 -0.509,2.408c-0.135,0.723 -0.248,1.289 -0.339,1.695l-3.052,13.125l-11.124,-0l-10.208,-37.915l10.276,-0l3.832,16.787c0.204,0.882 0.407,1.944 0.611,3.188c0.226,1.221 0.429,2.464 0.61,3.73c0.204,1.244 0.384,2.431 0.543,3.561c0.158,1.108 0.282,1.99 0.373,2.645l0.203,0c0.023,-0.43 0.068,-0.983 0.136,-1.661c0.09,-0.701 0.192,-1.447 0.305,-2.239c0.113,-0.791 0.226,-1.594 0.339,-2.408c0.136,-0.836 0.26,-1.616 0.373,-2.34c0.136,-0.723 0.249,-1.356 0.339,-1.899c0.113,-0.565 0.204,-0.961 0.272,-1.187l4.137,-18.177l11.395,-0l3.968,18.177c0.113,0.498 0.26,1.267 0.441,2.306c0.181,1.04 0.361,2.16 0.542,3.358c0.204,1.176 0.373,2.329 0.509,3.459c0.136,1.108 0.215,1.978 0.237,2.611l0.204,0c0.068,-0.565 0.181,-1.402 0.339,-2.509c0.181,-1.108 0.373,-2.295 0.576,-3.561c0.204,-1.289 0.419,-2.566 0.645,-3.832c0.249,-1.266 0.475,-2.34 0.678,-3.222l3.968,-16.787l10.14,-0l-10.343,37.915l-11.26,-0Z" style="fill-rule:nonzero;"/><path id="path12553" d="M202.898,881.683c-1.831,-0 -3.357,0.644 -4.578,1.933c-1.198,1.289 -1.888,3.312 -2.069,6.07l13.192,0c-0.022,-1.153 -0.169,-2.215 -0.441,-3.187c-0.271,-0.973 -0.678,-1.809 -1.22,-2.51c-0.543,-0.724 -1.221,-1.289 -2.035,-1.696c-0.814,-0.407 -1.764,-0.61 -2.849,-0.61l0,-0Zm1.323,31.946c-2.713,0 -5.212,-0.395 -7.495,-1.187c-2.284,-0.791 -4.251,-1.978 -5.901,-3.561c-1.65,-1.605 -2.939,-3.617 -3.866,-6.036c-0.905,-2.442 -1.357,-5.302 -1.357,-8.58c0,-3.324 0.419,-6.229 1.255,-8.716c0.837,-2.487 2.001,-4.556 3.493,-6.206c1.515,-1.673 3.324,-2.928 5.426,-3.765c2.126,-0.836 4.477,-1.254 7.054,-1.254c2.51,-0 4.771,0.384 6.783,1.152c2.035,0.747 3.753,1.855 5.155,3.324c1.424,1.47 2.509,3.278 3.255,5.426c0.769,2.125 1.153,4.567 1.153,7.325l0,5.019l-23.128,0c0.044,1.447 0.271,2.759 0.678,3.934c0.429,1.153 1.017,2.137 1.763,2.951c0.769,0.791 1.685,1.402 2.747,1.831c1.086,0.43 2.318,0.645 3.697,0.645c1.153,-0 2.238,-0.057 3.256,-0.17c1.04,-0.136 2.046,-0.328 3.018,-0.576c0.972,-0.249 1.933,-0.554 2.882,-0.916c0.95,-0.384 1.922,-0.825 2.917,-1.322l-0,8.003c-0.904,0.475 -1.82,0.882 -2.747,1.221c-0.904,0.317 -1.865,0.588 -2.883,0.814c-1.017,0.226 -2.114,0.384 -3.289,0.475c-1.176,0.113 -2.465,0.17 -3.866,0.17l-0,-0.001Z" style="fill-rule:nonzero;"/><path id="path12555" d="M247.698,874.324c0.271,-0 0.565,0.011 0.881,0.035c0.339,0 0.656,0.024 0.95,0.071c0.316,0.024 0.599,0.059 0.848,0.106c0.271,0.024 0.474,0.059 0.61,0.107l-0,9.699c-0.181,-0.047 -0.43,-0.093 -0.746,-0.136c-0.317,-0.047 -0.656,-0.083 -1.018,-0.106c-0.339,-0.048 -0.678,-0.071 -1.017,-0.071c-0.339,-0.024 -0.622,-0.036 -0.848,-0.036c-1.334,0 -2.566,0.17 -3.696,0.509c-1.108,0.34 -2.069,0.894 -2.883,1.662c-0.791,0.747 -1.413,1.741 -1.865,2.984c-0.43,1.221 -0.645,2.725 -0.645,4.511l0,19.297l-10.343,-0l-0,-37.915l7.834,-0l1.526,5.697l0.509,0c0.542,-0.972 1.13,-1.854 1.763,-2.645c0.633,-0.791 1.334,-1.458 2.103,-2.001c0.791,-0.565 1.673,-0.995 2.645,-1.289c0.995,-0.316 2.125,-0.475 3.391,-0.475l0.001,-0.004Z" style="fill-rule:nonzero;"/><path id="path12557" d="M273.404,881.683c-1.832,-0 -3.358,0.644 -4.579,1.933c-1.198,1.289 -1.887,3.312 -2.068,6.07l13.192,0c-0.023,-1.153 -0.17,-2.215 -0.441,-3.187c-0.271,-0.973 -0.678,-1.809 -1.221,-2.51c-0.542,-0.724 -1.221,-1.289 -2.035,-1.696c-0.813,-0.407 -1.763,-0.61 -2.848,-0.61l-0,-0Zm1.322,31.946c-2.713,0 -5.211,-0.395 -7.494,-1.187c-2.284,-0.791 -4.251,-1.978 -5.901,-3.561c-1.651,-1.605 -2.94,-3.617 -3.866,-6.036c-0.905,-2.442 -1.357,-5.302 -1.357,-8.58c-0,-3.324 0.418,-6.229 1.255,-8.716c0.836,-2.487 2.001,-4.556 3.493,-6.206c1.515,-1.673 3.323,-2.928 5.426,-3.765c2.125,-0.836 4.477,-1.254 7.054,-1.254c2.51,-0 4.77,0.384 6.783,1.152c2.034,0.747 3.753,1.855 5.154,3.324c1.425,1.47 2.51,3.278 3.256,5.426c0.769,2.125 1.153,4.567 1.153,7.325l0,5.019l-23.129,0c0.045,1.447 0.271,2.759 0.679,3.934c0.429,1.153 1.017,2.137 1.763,2.951c0.769,0.791 1.684,1.402 2.747,1.831c1.085,0.43 2.317,0.645 3.697,0.645c1.153,-0 2.238,-0.057 3.255,-0.17c1.04,-0.136 2.046,-0.328 3.018,-0.576c0.973,-0.249 1.934,-0.554 2.883,-0.916c0.95,-0.384 1.922,-0.825 2.917,-1.322l-0,8.003c-0.905,0.475 -1.82,0.882 -2.747,1.221c-0.905,0.317 -1.866,0.588 -2.883,0.814c-1.017,0.226 -2.114,0.384 -3.29,0.475c-1.175,0.113 -2.464,0.17 -3.866,0.17l0,-0.001Z" style="fill-rule:nonzero;"/><path id="path12559" d="M309.589,913.629c-1.944,0 -3.719,-0.418 -5.324,-1.255c-1.605,-0.836 -2.985,-2.068 -4.138,-3.696c-1.153,-1.651 -2.057,-3.697 -2.713,-6.138c-0.633,-2.442 -0.949,-5.268 -0.949,-8.479c-0,-3.255 0.316,-6.104 0.949,-8.546c0.656,-2.464 1.572,-4.522 2.747,-6.172c1.199,-1.673 2.623,-2.928 4.273,-3.765c1.651,-0.836 3.471,-1.254 5.46,-1.254c1.221,-0 2.34,0.146 3.358,0.44c1.017,0.272 1.933,0.668 2.747,1.187c0.814,0.498 1.537,1.086 2.17,1.764c0.656,0.656 1.232,1.379 1.73,2.17l0.339,0c-0.136,-0.882 -0.26,-1.775 -0.373,-2.679c-0.113,-0.769 -0.215,-1.582 -0.305,-2.442c-0.068,-0.882 -0.102,-1.695 -0.102,-2.442l0,-12.141l10.344,0l-0,52.77l-7.902,-0l-2.001,-4.918l-0.441,0c-0.475,0.769 -1.017,1.503 -1.628,2.205c-0.61,0.677 -1.323,1.265 -2.136,1.763c-0.792,0.498 -1.696,0.893 -2.713,1.187c-0.995,0.294 -2.126,0.44 -3.392,0.44l0,0.001Zm3.765,-8.241c1.22,0 2.26,-0.203 3.12,-0.61c0.859,-0.43 1.548,-1.063 2.068,-1.899c0.543,-0.86 0.939,-1.922 1.187,-3.188c0.272,-1.266 0.419,-2.747 0.441,-4.443l0,-1.12c0,-1.831 -0.113,-3.459 -0.339,-4.883c-0.226,-1.425 -0.599,-2.612 -1.119,-3.561c-0.52,-0.972 -1.221,-1.707 -2.103,-2.204c-0.881,-0.498 -1.989,-0.747 -3.323,-0.747c-2.171,0 -3.764,0.984 -4.782,2.951c-1.017,1.944 -1.526,4.781 -1.526,8.512c0,3.73 0.509,6.534 1.526,8.41c1.04,1.854 2.657,2.781 4.85,2.781l-0,0.001Z" style="fill-rule:nonzero;"/><path id="path12561" d="M378.908,874.324c1.944,-0 3.719,0.418 5.324,1.254c1.606,0.837 2.985,2.08 4.138,3.731c1.153,1.65 2.046,3.697 2.679,6.138c0.656,2.442 0.983,5.268 0.983,8.479c0,3.255 -0.327,6.115 -0.983,8.58c-0.633,2.441 -1.538,4.487 -2.713,6.138c-1.176,1.65 -2.589,2.894 -4.239,3.73c-1.651,0.837 -3.471,1.255 -5.46,1.255c-1.266,0 -2.397,-0.136 -3.392,-0.407c-0.972,-0.272 -1.842,-0.634 -2.611,-1.086c-0.769,-0.452 -1.447,-0.96 -2.035,-1.526c-0.565,-0.588 -1.085,-1.198 -1.56,-1.831l-0.712,-0l-1.73,4.171l-7.901,0l-0,-52.769l10.343,0l0,12.277c0,0.746 -0.022,1.56 -0.067,2.442c-0.045,0.859 -0.09,1.661 -0.136,2.407c-0.068,0.882 -0.135,1.764 -0.203,2.646l0.407,-0c0.474,-0.792 1.017,-1.526 1.627,-2.205c0.611,-0.678 1.312,-1.266 2.103,-1.763c0.814,-0.52 1.73,-0.927 2.747,-1.221c1.017,-0.294 2.148,-0.441 3.391,-0.441l-0,0.001Zm-3.493,8.275c-1.153,-0 -2.137,0.215 -2.951,0.644c-0.791,0.408 -1.435,1.029 -1.933,1.866c-0.497,0.836 -0.859,1.899 -1.085,3.188c-0.226,1.266 -0.362,2.746 -0.407,4.442l0,1.12c0,1.831 0.102,3.459 0.305,4.883c0.226,1.425 0.588,2.623 1.086,3.595c0.497,0.95 1.153,1.673 1.967,2.171c0.836,0.497 1.865,0.746 3.086,0.746c2.057,-0 3.561,-0.972 4.51,-2.917c0.972,-1.967 1.458,-4.815 1.458,-8.546c0,-3.73 -0.486,-6.522 -1.458,-8.376c-0.949,-1.877 -2.476,-2.815 -4.578,-2.815l-0,-0.001Z" style="fill-rule:nonzero;"/><path id="path12563" d="M395.492,875.036l11.327,-0l6.104,21.331c0.361,1.176 0.621,2.431 0.779,3.765c0.182,1.334 0.295,2.532 0.339,3.594l0.204,0c0.047,-0.519 0.104,-1.096 0.17,-1.729c0.09,-0.633 0.192,-1.278 0.304,-1.933c0.114,-0.656 0.238,-1.3 0.374,-1.933c0.158,-0.656 0.316,-1.244 0.474,-1.764l5.969,-21.331l11.395,-0l-14.99,42.764c-1.401,4.002 -3.312,6.975 -5.731,8.92c-2.419,1.944 -5.449,2.916 -9.089,2.916c-1.175,0 -2.193,-0.068 -3.052,-0.203c-0.859,-0.113 -1.594,-0.238 -2.204,-0.373l-0,-8.207c0.475,0.113 1.074,0.215 1.797,0.305c0.724,0.09 1.481,0.135 2.272,0.135c1.086,0 2.013,-0.146 2.781,-0.44c0.769,-0.294 1.425,-0.712 1.967,-1.255c0.565,-0.52 1.04,-1.153 1.425,-1.899c0.407,-0.747 0.757,-1.583 1.051,-2.51l0.645,-1.899l-14.311,-38.254Z" style="fill-rule:nonzero;"/></g></g><g id="PCLinuxOS1" serif:id="PCLinuxOS"><g id="Logo"><circle id="path2912" cx="455.861" cy="481.536" r="328.284" style="fill:url(#_Linear2);stroke:#000;stroke-width:6.77px;stroke-linecap:round;"/><circle id="path3288" cx="455.259" cy="482.381" r="267.365"/><path id="path4053" d="M445.611,450.77c-3.453,0 -6.613,0.792 -9.468,2.374c-2.856,1.549 -5.574,3.955 -8.116,7.255l0,-8.244l-16.845,-0l-0,56.517l16.845,-0l0,-27.83c0,-5.151 1.004,-9.173 3.013,-12.068c2.008,-2.929 4.785,-4.353 8.3,-4.353c1.443,0 2.743,0.316 3.873,0.989c1.13,0.64 1.984,1.526 2.644,2.704c0.502,0.876 0.856,2.238 1.045,4.089c0.219,1.852 0.307,5.209 0.307,10.09l0.061,0.066l0,4.286c0,7.642 1.626,13.47 4.796,17.477c3.201,4.006 7.806,6.001 13.894,6.001c3.421,-0 6.582,-0.76 9.407,-2.309c2.856,-1.582 5.511,-4.02 8.054,-7.319l-0,8.177l16.907,-0l-0,-56.517l-16.907,-0l-0,27.896c-0,5.15 -1.004,9.173 -3.013,12.068c-2.009,2.895 -4.723,4.353 -8.238,4.353c-1.444,-0 -2.744,-0.35 -3.873,-0.99c-1.099,-0.639 -2.015,-1.525 -2.706,-2.703c-0.533,-0.909 -0.886,-2.367 -1.106,-4.353c-0.22,-2.02 -0.308,-5.281 -0.308,-9.826l0,-4.353c0,-7.642 -1.564,-13.47 -4.734,-17.476c-3.138,-4.006 -7.744,-6.001 -13.833,-6.001l0.001,0Zm-241.645,-17.493l30.082,-0c8.945,-0 15.802,2.138 20.572,6.413c4.802,4.242 7.203,10.301 7.203,18.179c0,7.911 -2.401,14.004 -7.203,18.28c-4.77,4.242 -11.627,6.362 -20.572,6.362l-11.957,0l-0,26.158l-18.125,-0l0,-75.392m18.125,14.088l-0,21.058l10.027,-0c3.515,-0 6.23,-0.909 8.144,-2.727c1.915,-1.852 2.872,-4.461 2.872,-7.827c-0,-3.367 -0.957,-5.959 -2.872,-7.777c-1.914,-1.818 -4.629,-2.726 -8.144,-2.727l-10.027,0m102.607,57.163c-3.327,1.852 -6.795,3.249 -10.404,4.191c-3.609,0.943 -7.375,1.414 -11.298,1.414c-11.706,0 -20.98,-3.501 -27.822,-10.503c-6.842,-7.036 -10.263,-16.563 -10.263,-28.581c0,-12.052 3.421,-21.579 10.263,-28.582c6.842,-7.036 16.116,-10.554 27.822,-10.554c3.923,0 7.689,0.472 11.298,1.414c3.609,0.943 7.077,2.34 10.404,4.192l-0,15.603c-3.358,-2.457 -6.669,-4.258 -9.933,-5.403c-3.264,-1.145 -6.701,-1.717 -10.31,-1.717c-6.465,0 -11.549,2.222 -15.253,6.666c-3.703,4.443 -5.555,10.57 -5.554,18.381c-0.001,7.776 1.851,13.886 5.554,18.33c3.704,4.444 8.788,6.666 15.253,6.666c3.609,-0 7.046,-0.573 10.31,-1.717c3.264,-1.145 6.575,-2.946 9.933,-5.404l-0,15.604m276.868,-58.526c-5.523,0 -9.807,2.188 -12.851,6.565c-3.045,4.376 -4.567,10.537 -4.567,18.482c0,7.911 1.522,14.055 4.567,18.431c3.044,4.376 7.328,6.565 12.851,6.565c5.555,-0 9.855,-2.189 12.899,-6.565c3.045,-4.376 4.567,-10.52 4.567,-18.431c-0,-7.945 -1.522,-14.106 -4.567,-18.482c-3.044,-4.377 -7.344,-6.565 -12.899,-6.565m0,-14.089c11.299,0 20.149,3.468 26.551,10.403c6.403,6.935 9.604,16.512 9.604,28.733c-0,12.186 -3.201,21.747 -9.604,28.682c-6.402,6.935 -15.252,10.402 -26.551,10.402c-11.266,0 -20.117,-3.467 -26.551,-10.402c-6.402,-6.935 -9.603,-16.496 -9.603,-28.682c-0,-12.221 3.201,-21.798 9.603,-28.733c6.434,-6.935 15.285,-10.403 26.551,-10.403m90.251,3.737l-0,15.957c-3.861,-1.851 -7.627,-3.248 -11.299,-4.191c-3.672,-0.943 -7.14,-1.414 -10.403,-1.414c-4.331,0 -7.533,0.64 -9.604,1.919c-2.071,1.279 -3.107,3.265 -3.107,5.959c-0,2.019 0.69,3.602 2.071,4.746c1.413,1.111 3.955,2.071 7.627,2.879l7.72,1.666c7.815,1.683 13.37,4.242 16.665,7.676c3.295,3.433 4.943,8.315 4.943,14.644c0,8.315 -2.307,14.509 -6.92,18.583c-4.582,4.039 -11.597,6.059 -21.043,6.059c-4.457,0 -8.929,-0.454 -13.417,-1.363c-4.488,-0.909 -8.976,-2.256 -13.464,-4.04l0,-16.412c4.488,2.559 8.819,4.495 12.993,5.808c4.206,1.279 8.254,1.919 12.146,1.919c3.954,-0 6.983,-0.707 9.086,-2.121c2.102,-1.414 3.154,-3.434 3.154,-6.06c-0,-2.356 -0.722,-4.174 -2.166,-5.454c-1.412,-1.279 -4.252,-2.423 -8.52,-3.433l-7.015,-1.667c-7.03,-1.616 -12.177,-4.191 -15.441,-7.726c-3.232,-3.535 -4.849,-8.298 -4.849,-14.291c0,-7.507 2.26,-13.28 6.779,-17.32c4.52,-4.04 11.016,-6.06 19.49,-6.06c3.86,0 7.83,0.32 11.91,0.96c4.08,0.606 8.301,1.532 12.664,2.777m-359.911,-2.36l18.124,0l-0,60.698l31.823,-0l0,14.694l-49.947,0l-0,-75.392m195.198,46.457l-19.019,-27.621l17.842,-0l10.781,16.765l10.921,-16.765l17.842,-0l-19.019,27.521l19.961,29.035l-17.842,0l-11.863,-17.876l-11.723,17.876l-17.841,0l19.96,-28.935m-131.157,-55.88c2.888,-0 5.349,1.126 7.384,3.379c2.034,2.183 3.052,4.823 3.052,7.921c-0,3.239 -1.018,5.949 -3.052,8.131c-1.969,2.183 -4.431,3.274 -7.384,3.274c-2.691,0 -5.087,-1.126 -7.187,-3.379c-2.035,-2.323 -3.052,-4.999 -3.052,-8.026c-0,-3.028 1.017,-5.668 3.052,-7.921c2.1,-2.253 4.496,-3.379 7.187,-3.379m7.482,84.815l-15.358,0l-0,-42.273l-10.849,0l0,-14.257l26.207,0l0,56.53"/><path id="path4057" d="M449.633,455.998c-3.453,0 -6.612,0.792 -9.468,2.374c-2.856,1.549 -5.574,3.955 -8.115,7.255l-0,-8.244l-16.846,0l-0,56.517l16.846,0l-0,-27.83c-0,-5.15 1.003,-9.173 3.012,-12.068c2.008,-2.929 4.785,-4.353 8.3,-4.353c1.443,0 2.743,0.316 3.873,0.99c1.13,0.639 1.985,1.525 2.644,2.703c0.502,0.876 0.856,2.238 1.045,4.089c0.22,1.852 0.307,5.209 0.307,10.09l0.062,0.066l-0,4.286c-0,7.642 1.625,13.47 4.795,17.476c3.201,4.007 7.806,6.002 13.895,6.002c3.421,-0 6.581,-0.76 9.406,-2.309c2.856,-1.582 5.512,-4.02 8.054,-7.32l0,8.178l16.907,-0l0,-56.517l-16.907,-0l0,27.896c-0,5.15 -1.004,9.173 -3.013,12.068c-2.008,2.895 -4.723,4.353 -8.238,4.353c-1.444,-0 -2.743,-0.35 -3.873,-0.99c-1.099,-0.639 -2.015,-1.525 -2.705,-2.703c-0.534,-0.909 -0.887,-2.367 -1.107,-4.353c-0.22,-2.02 -0.307,-5.281 -0.307,-9.826l-0,-4.353c-0,-7.642 -1.564,-13.47 -4.734,-17.476c-3.139,-4.006 -7.745,-6.001 -13.833,-6.001l-0,0Zm-241.644,-17.493l30.081,-0c8.945,-0 15.802,2.138 20.573,6.413c4.801,4.242 7.202,10.301 7.202,18.179c0,7.911 -2.401,14.004 -7.202,18.28c-4.771,4.242 -11.628,6.362 -20.573,6.362l-11.957,0l-0,26.158l-18.124,-0l-0,-75.392m18.124,14.089l-0,21.057l10.027,-0c3.515,-0 6.23,-0.909 8.144,-2.727c1.915,-1.852 2.872,-4.461 2.872,-7.827c0,-3.367 -0.957,-5.959 -2.872,-7.777c-1.914,-1.817 -4.629,-2.726 -8.144,-2.726l-10.027,-0m102.607,57.162c-3.327,1.852 -6.795,3.249 -10.404,4.191c-3.609,0.943 -7.375,1.414 -11.298,1.414c-11.706,0 -20.98,-3.501 -27.822,-10.503c-6.842,-7.036 -10.263,-16.563 -10.263,-28.581c0,-12.052 3.421,-21.579 10.263,-28.582c6.842,-7.036 16.116,-10.553 27.822,-10.554c3.923,0.001 7.689,0.472 11.298,1.414c3.609,0.943 7.077,2.34 10.404,4.192l0,15.603c-3.358,-2.457 -6.669,-4.258 -9.933,-5.403c-3.264,-1.144 -6.7,-1.717 -10.31,-1.717c-6.465,0 -11.549,2.222 -15.252,6.666c-3.704,4.444 -5.555,10.57 -5.555,18.381c-0,7.776 1.851,13.886 5.555,18.33c3.703,4.444 8.787,6.666 15.252,6.666c3.61,-0 7.046,-0.573 10.31,-1.717c3.264,-1.145 6.575,-2.946 9.933,-5.403l0,15.603m276.869,-58.526c-5.524,0 -9.808,2.188 -12.852,6.565c-3.044,4.376 -4.567,10.537 -4.567,18.482c0,7.911 1.523,14.055 4.567,18.431c3.044,4.376 7.328,6.565 12.852,6.565c5.555,-0 9.854,-2.189 12.899,-6.565c3.044,-4.376 4.566,-10.52 4.566,-18.431c-0,-7.945 -1.522,-14.106 -4.566,-18.482c-3.045,-4.377 -7.344,-6.565 -12.899,-6.565m-0,-14.089c11.298,0.001 20.148,3.468 26.551,10.403c6.402,6.935 9.603,16.512 9.603,28.733c0,12.186 -3.201,21.747 -9.603,28.682c-6.403,6.935 -15.253,10.402 -26.551,10.402c-11.267,0 -20.118,-3.467 -26.551,-10.402c-6.403,-6.935 -9.604,-16.496 -9.604,-28.682c0,-12.221 3.201,-21.798 9.604,-28.733c6.433,-6.935 15.284,-10.402 26.551,-10.403m90.25,3.737l-0,15.957c-3.86,-1.851 -7.626,-3.248 -11.298,-4.191c-3.672,-0.943 -7.14,-1.414 -10.404,-1.414c-4.331,0 -7.532,0.64 -9.604,1.919c-2.071,1.279 -3.107,3.266 -3.107,5.959c0,2.02 0.691,3.602 2.072,4.746c1.412,1.111 3.954,2.071 7.626,2.879l7.72,1.666c7.815,1.683 13.37,4.242 16.665,7.676c3.296,3.434 4.943,8.315 4.943,14.644c0,8.315 -2.306,14.509 -6.92,18.583c-4.582,4.039 -11.596,6.059 -21.043,6.059c-4.456,0 -8.929,-0.454 -13.417,-1.363c-4.488,-0.909 -8.975,-2.256 -13.463,-4.04l-0,-16.411c4.488,2.558 8.819,4.494 12.993,5.807c4.205,1.279 8.254,1.919 12.145,1.919c3.955,-0 6.983,-0.707 9.086,-2.121c2.103,-1.414 3.154,-3.434 3.154,-6.06c0,-2.356 -0.722,-4.174 -2.165,-5.454c-1.413,-1.279 -4.253,-2.423 -8.521,-3.433l-7.014,-1.667c-7.031,-1.616 -12.178,-4.191 -15.442,-7.726c-3.232,-3.535 -4.848,-8.298 -4.848,-14.29c-0,-7.508 2.259,-13.281 6.779,-17.321c4.519,-4.04 11.015,-6.059 19.489,-6.06c3.86,0.001 7.83,0.32 11.91,0.96c4.08,0.606 8.301,1.532 12.664,2.777m-359.911,-2.36l18.124,0l0,60.698l31.824,-0l-0,14.695l-49.948,-0l-0,-75.393m195.198,46.458l-19.019,-27.622l17.842,-0l10.781,16.765l10.921,-16.765l17.842,-0l-19.019,27.521l19.961,29.036l-17.842,-0l-11.863,-17.877l-11.722,17.877l-17.842,-0l19.96,-28.935m-131.157,-55.881c2.888,0 5.349,1.127 7.384,3.379c2.035,2.183 3.052,4.823 3.052,7.921c-0,3.239 -1.017,5.949 -3.052,8.131c-1.969,2.183 -4.43,3.274 -7.384,3.274c-2.691,0 -5.087,-1.126 -7.187,-3.379c-2.035,-2.323 -3.052,-4.999 -3.052,-8.026c0,-3.027 1.017,-5.668 3.052,-7.921c2.1,-2.252 4.496,-3.379 7.187,-3.379m7.482,84.816l-15.358,-0l-0,-42.274l-10.848,0l-0,-14.257l26.206,0l0,56.531" style="fill:url(#_Linear3);"/></g><path id="path4057-3" d="M452.916,1114.65c-5.499,-0 -10.533,1.261 -15.082,3.781c-4.549,2.467 -8.877,6.3 -12.926,11.556l-0,-13.131l-26.834,-0l0,90.025l26.834,-0l-0,-44.33c-0,-8.204 1.599,-14.612 4.798,-19.223c3.199,-4.666 7.622,-6.933 13.221,-6.933c2.299,-0 4.37,0.503 6.17,1.575c1.799,1.019 3.16,2.43 4.211,4.307c0.799,1.394 1.364,3.564 1.664,6.513c0.35,2.949 0.489,8.297 0.491,16.072l0.094,0.105l0,6.828c0,12.173 2.59,21.456 7.639,27.837c5.099,6.382 12.434,9.56 22.132,9.56c5.449,-0 10.484,-1.21 14.984,-3.677c4.549,-2.52 8.779,-6.405 12.829,-11.66l-0,13.026l26.93,-0l0,-90.026l-26.93,0l-0,44.435c-0,8.205 -1.599,14.612 -4.799,19.224c-3.199,4.611 -7.523,6.933 -13.122,6.933c-2.3,-0 -4.371,-0.557 -6.17,-1.576c-1.75,-1.018 -3.209,-2.43 -4.309,-4.307c-0.85,-1.448 -1.413,-3.769 -1.763,-6.933c-0.349,-3.217 -0.49,-8.412 -0.49,-15.652l0,-6.933c0,-12.173 -2.491,-21.456 -7.541,-27.837c-4.999,-6.382 -12.336,-9.559 -22.034,-9.56l0.003,0.001Zm-384.913,-27.865l47.917,-0c14.248,-0 25.171,3.405 32.77,10.215c7.648,6.757 11.472,16.409 11.473,28.957c-0.001,12.602 -3.825,22.308 -11.473,29.118c-7.599,6.757 -18.522,10.135 -32.77,10.135l-19.047,-0l0,41.666l-28.87,-0l0,-120.091m28.87,22.441l0,33.542l15.973,0c5.599,0 9.923,-1.448 12.972,-4.343c3.05,-2.95 4.575,-7.105 4.575,-12.468c-0,-5.362 -1.525,-9.491 -4.575,-12.387c-3.049,-2.896 -7.373,-4.343 -12.972,-4.344l-15.973,0m163.442,91.054c-5.299,2.949 -10.823,5.175 -16.572,6.676c-5.749,1.502 -11.748,2.252 -17.997,2.252c-18.647,0 -33.419,-5.576 -44.317,-16.73c-10.898,-11.208 -16.347,-26.383 -16.347,-45.527c-0,-19.197 5.449,-34.373 16.347,-45.527c10.898,-11.207 25.67,-16.811 44.317,-16.811c6.249,0 12.248,0.751 17.997,2.252c5.749,1.502 11.273,3.727 16.572,6.676l0,24.855c-5.349,-3.914 -10.623,-6.783 -15.822,-8.607c-5.199,-1.823 -10.673,-2.734 -16.422,-2.734c-10.298,-0 -18.397,3.539 -24.296,10.617c-5.899,7.079 -8.849,16.838 -8.849,29.279c0,12.387 2.95,22.12 8.849,29.198c5.899,7.079 13.998,10.618 24.296,10.618c5.749,-0 11.223,-0.912 16.422,-2.735c5.199,-1.823 10.473,-4.692 15.822,-8.607l0,24.855m441.021,-93.225c-8.798,-0 -15.622,3.485 -20.471,10.456c-4.85,6.972 -7.274,16.785 -7.274,29.44c-0,12.602 2.424,22.388 7.274,29.359c4.849,6.971 11.673,10.457 20.471,10.457c8.848,-0 15.697,-3.486 20.547,-10.457c4.849,-6.971 7.273,-16.757 7.273,-29.359c0,-12.655 -2.424,-22.468 -7.273,-29.44c-4.85,-6.971 -11.699,-10.456 -20.547,-10.456m0,-22.442c17.997,0 32.095,5.523 42.293,16.57c10.198,11.046 15.297,26.302 15.297,45.768c0,19.412 -5.099,34.641 -15.297,45.687c-10.198,11.047 -24.296,16.57 -42.293,16.57c-17.947,0 -32.044,-5.523 -42.293,-16.57c-10.198,-11.046 -15.297,-26.275 -15.297,-45.687c-0,-19.466 5.099,-34.722 15.297,-45.768c10.249,-11.047 24.346,-16.57 42.293,-16.57m143.759,5.952l-0,25.418c-6.149,-2.949 -12.148,-5.175 -17.997,-6.676c-5.849,-1.501 -11.373,-2.252 -16.572,-2.252c-6.899,-0 -11.998,1.019 -15.298,3.056c-3.299,2.038 -4.949,5.202 -4.949,9.492c0,3.217 1.1,5.738 3.3,7.561c2.249,1.769 6.299,3.298 12.148,4.585l12.297,2.654c12.448,2.681 21.297,6.757 26.546,12.226c5.249,5.47 7.874,13.245 7.874,23.327c-0,13.245 -3.675,23.112 -11.023,29.6c-7.299,6.435 -18.472,9.652 -33.52,9.652c-7.099,0 -14.222,-0.724 -21.371,-2.172c-7.149,-1.447 -14.298,-3.592 -21.446,-6.434l-0,-26.142c7.148,4.076 14.047,7.159 20.696,9.25c6.699,2.038 13.148,3.057 19.347,3.057c6.299,-0 11.123,-1.126 14.472,-3.378c3.35,-2.253 5.024,-5.47 5.024,-9.653c0,-3.753 -1.15,-6.649 -3.449,-8.687c-2.25,-2.038 -6.774,-3.861 -13.573,-5.47l-11.173,-2.654c-11.198,-2.574 -19.397,-6.676 -24.596,-12.307c-5.149,-5.63 -7.723,-13.218 -7.723,-22.763c-0,-11.958 3.599,-21.155 10.798,-27.59c7.199,-6.434 17.547,-9.652 31.045,-9.652c6.149,0 12.472,0.51 18.971,1.528c6.499,0.966 13.223,2.44 20.172,4.424m-573.299,-3.759l28.87,0l0,96.684l50.692,0l-0,23.407l-79.562,0l0,-120.091m310.929,74.001l-30.294,-43.998l28.42,-0l17.172,26.705l17.397,-26.705l28.42,-0l-30.295,43.838l31.795,46.25l-28.42,0l-18.897,-28.474l-18.672,28.474l-28.42,0l31.794,-46.09m-208.918,-89.011c4.6,-0 8.521,1.794 11.762,5.383c3.241,3.476 4.861,7.682 4.861,12.616c0,5.159 -1.62,9.477 -4.861,12.953c-3.137,3.477 -7.057,5.215 -11.762,5.215c-4.287,0 -8.103,-1.794 -11.448,-5.383c-3.241,-3.701 -4.862,-7.962 -4.861,-12.785c-0.001,-4.822 1.62,-9.027 4.861,-12.616c3.345,-3.589 7.161,-5.383 11.448,-5.383m11.919,135.101l-24.465,0l0,-67.336l-17.28,0l-0,-22.71l41.745,0l-0,90.046" style="fill:url(#_Linear4);"/></g></g><defs><linearGradient id="_Linear2" x1="0" y1="0" x2="1" y2="0" gradientUnits="userSpaceOnUse" gradientTransform="matrix(4.02032e-14,656.568,-656.568,4.02032e-14,455.861,153.252)"><stop offset="0" style="stop-color:#bde9ff;stop-opacity:1"/><stop offset="0.2" style="stop-color:#1c7dbd;stop-opacity:1"/><stop offset="0.3" style="stop-color:#1e5ba1;stop-opacity:1"/><stop offset="0.54" style="stop-color:#262e36;stop-opacity:1"/><stop offset="0.73" style="stop-color:#186d99;stop-opacity:1"/><stop offset="1" style="stop-color:#0071bf;stop-opacity:1"/></linearGradient><linearGradient id="_Linear3" x1="0" y1="0" x2="1" y2="0" gradientUnits="userSpaceOnUse" gradientTransform="matrix(4.7919e-15,-78.2577,78.2577,4.7919e-15,454.225,493.344)"><stop offset="0" style="stop-color:#fff;stop-opacity:1"/><stop offset="1" style="stop-color:#707070;stop-opacity:1"/></linearGradient><linearGradient id="_Linear4" x1="0" y1="0" x2="1" y2="0" gradientUnits="userSpaceOnUse" gradientTransform="matrix(7.63297e-15,-124.656,124.656,7.63297e-15,460.231,1174.14)"><stop offset="0" style="stop-color:#fff;stop-opacity:1"/><stop offset="1" style="stop-color:#707070;stop-opacity:1"/></linearGradient></defs></svg>