<?xml version="1.0" encoding="UTF-8" standalone="no"?><!DOCTYPE svg PUBLIC "-//W3C//DTD SVG 1.1//EN" "http://www.w3.org/Graphics/SVG/1.1/DTD/svg11.dtd"><svg width="100%" height="100%" viewBox="0 0 907 1352" version="1.1" xmlns="http://www.w3.org/2000/svg" xmlns:xlink="http://www.w3.org/1999/xlink" xml:space="preserve" xmlns:serif="http://www.serif.com/" style="fill-rule:evenodd;clip-rule:evenodd;"><rect id="Pop-_OS" serif:id="Pop!_OS" x="0" y="-0" width="906.667" height="1351.11" style="fill:none;"/><clipPath id="_clip1"><rect x="0" y="-0" width="906.667" height="1351.11"/></clipPath><g clip-path="url(#_clip1)"><g><g id="Frame"><path id="path36023" d="M363.216,8.892l180.223,-0c196.299,-0 354.331,36.928 354.331,82.799l0,1167.73c0,45.871 -158.032,82.8 -354.331,82.8l-180.223,-0c-196.3,-0 -354.331,-36.929 -354.331,-82.8l-0,-1167.73c-0,-45.871 158.031,-82.799 354.331,-82.799Z" style="fill:#fff;fill-rule:nonzero;"/><path id="path36025" d="M363.223,-0c-98.707,-0 -187.78,9.234 -252.805,24.429c-32.513,7.598 -58.999,16.618 -78.087,27.198c-9.543,5.29 -17.286,10.978 -22.976,17.509c-5.69,6.53 -9.365,14.275 -9.365,22.561l-0,1167.72c-0,8.285 3.675,16.03 9.365,22.56c5.69,6.531 13.433,12.219 22.976,17.509c19.088,10.581 45.574,19.6 78.087,27.198c65.025,15.195 154.098,24.429 252.805,24.429l180.21,0c98.707,0 187.781,-9.234 252.806,-24.429c32.512,-7.598 58.999,-16.617 78.086,-27.198c9.544,-5.29 17.286,-10.978 22.976,-17.509c5.69,-6.53 9.366,-14.275 9.366,-22.56l-0,-1167.72c-0,-8.286 -3.676,-16.031 -9.366,-22.561c-5.69,-6.531 -13.432,-12.219 -22.976,-17.509c-19.087,-10.58 -45.574,-19.6 -78.086,-27.198c-65.025,-15.195 -154.099,-24.429 -252.806,-24.429l-180.21,-0Zm0,17.786l180.21,-0c97.592,-0 185.703,9.231 248.769,23.968c31.532,7.368 56.817,16.176 73.495,25.421c8.339,4.622 14.482,9.365 18.201,13.633c3.719,4.269 4.983,7.706 4.983,10.889l-0,1167.72c-0,3.182 -1.264,6.619 -4.983,10.888c-3.719,4.269 -9.862,9.011 -18.201,13.633c-16.678,9.245 -41.963,18.053 -73.495,25.421c-63.066,14.738 -151.177,23.969 -248.769,23.969l-180.21,-0c-97.592,-0 -185.703,-9.231 -248.768,-23.969c-31.533,-7.368 -56.818,-16.176 -73.496,-25.421c-8.339,-4.622 -14.482,-9.364 -18.201,-13.633c-3.719,-4.269 -4.983,-7.706 -4.983,-10.888l0,-1167.72c0,-3.183 1.264,-6.62 4.983,-10.889c3.719,-4.268 9.862,-9.011 18.201,-13.633c16.678,-9.245 41.963,-18.053 73.496,-25.421c63.065,-14.737 151.176,-23.968 248.768,-23.968Z" style="fill-rule:nonzero;"/></g><g id="Bottom"><path id="path35979" d="M371.596,946.173l163.463,0c199.609,0 360.304,38.151 360.304,85.54l0,218.99c0,47.389 -160.695,85.54 -360.304,85.54l-163.463,-0c-199.609,-0 -360.304,-38.151 -360.304,-85.54l-0,-218.99c-0,-47.389 160.695,-85.54 360.304,-85.54Z" style="fill-rule:nonzero;"/><path id="path35981" d="M371.597,938.419c-100.298,0 -190.805,9.547 -256.796,25.214c-32.996,7.833 -59.838,17.123 -79.079,27.958c-19.24,10.836 -32.18,23.883 -32.18,40.116l0,218.988c0,16.233 12.94,29.303 32.18,40.139c19.241,10.835 46.083,20.125 79.079,27.958c65.991,15.667 156.498,25.214 256.796,25.214l163.462,0c100.299,0 190.805,-9.547 256.797,-25.214c32.996,-7.833 59.837,-17.123 79.078,-27.958c19.24,-10.836 32.18,-23.906 32.18,-40.139l0,-218.988c0,-16.233 -12.94,-29.28 -32.18,-40.116c-19.241,-10.835 -46.082,-20.125 -79.078,-27.958c-65.992,-15.667 -156.498,-25.214 -256.797,-25.214l-163.462,0Zm0,15.525l163.462,-0c99.31,-0 188.963,9.52 253.221,24.775c32.129,7.628 57.914,16.745 75.041,26.39c17.128,9.646 24.291,19.137 24.291,26.598l0,218.988c0,7.461 -7.163,16.952 -24.291,26.598c-17.127,9.645 -42.912,18.762 -75.041,26.39c-64.258,15.255 -153.911,24.798 -253.221,24.798l-163.462,0c-99.31,0 -188.963,-9.543 -253.221,-24.798c-32.129,-7.628 -57.913,-16.745 -75.041,-26.39c-17.127,-9.646 -24.291,-19.137 -24.291,-26.598l0,-218.988c0,-7.461 7.164,-16.952 24.291,-26.598c17.128,-9.645 42.912,-18.762 75.041,-26.39c64.258,-15.255 153.911,-24.775 253.221,-24.775Z" style="fill-rule:nonzero;"/></g><g id="Powered-By" serif:id="Powered By"><path id="path12547" d="M59.746,886.701l2.069,0c2.961,0 5.188,-0.588 6.68,-1.763c1.515,-1.176 2.273,-3.086 2.273,-5.732c-0,-2.464 -0.679,-4.284 -2.035,-5.46c-1.334,-1.175 -3.437,-1.763 -6.308,-1.763l-2.679,-0l-0,14.718Zm21.67,-7.868c0,2.171 -0.328,4.251 -0.983,6.24c-0.656,1.99 -1.741,3.742 -3.256,5.257c-1.492,1.515 -3.47,2.724 -5.935,3.629c-2.441,0.904 -5.471,1.356 -9.088,1.356l-2.408,0l-0,17.635l-10.513,-0l-0,-49.581l13.768,-0c3.188,-0 5.935,0.362 8.241,1.085c2.329,0.701 4.239,1.719 5.732,3.053c1.514,1.311 2.634,2.927 3.357,4.849c0.724,1.899 1.085,4.058 1.085,6.478l0,-0.001Z" style="fill-rule:nonzero;"/><path id="path12549" d="M98.576,893.925c0,3.775 0.532,6.624 1.594,8.546c1.063,1.899 2.792,2.848 5.189,2.848c2.374,0 4.092,-0.96 5.155,-2.882c1.062,-1.922 1.594,-4.759 1.594,-8.512c-0,-3.776 -0.532,-6.591 -1.594,-8.445c-1.063,-1.876 -2.804,-2.814 -5.223,-2.814c-2.374,-0 -4.092,0.938 -5.155,2.814c-1.04,1.854 -1.56,4.669 -1.56,8.445Zm24.079,-0c-0,3.165 -0.407,5.968 -1.221,8.41c-0.792,2.442 -1.945,4.499 -3.459,6.172c-1.493,1.673 -3.324,2.951 -5.494,3.833c-2.148,0.859 -4.567,1.288 -7.258,1.288c-2.509,0 -4.815,-0.429 -6.918,-1.288c-2.103,-0.882 -3.923,-2.16 -5.46,-3.833c-1.515,-1.673 -2.702,-3.73 -3.561,-6.172c-0.859,-2.442 -1.289,-5.245 -1.289,-8.41c0,-3.143 0.396,-5.935 1.187,-8.377c0.814,-2.442 1.967,-4.488 3.46,-6.138c1.514,-1.673 3.346,-2.939 5.493,-3.798c2.148,-0.86 4.579,-1.289 7.292,-1.289c2.509,-0 4.815,0.429 6.918,1.289c2.103,0.859 3.911,2.125 5.426,3.798c1.538,1.65 2.736,3.696 3.595,6.138c0.859,2.442 1.289,5.234 1.289,8.377Z" style="fill-rule:nonzero;"/><path id="path12551" d="M160.536,912.95l-2.917,-13.26c-0.09,-0.384 -0.215,-0.927 -0.373,-1.628c-0.136,-0.724 -0.294,-1.526 -0.475,-2.408c-0.181,-0.904 -0.373,-1.854 -0.576,-2.848c-0.181,-1.018 -0.373,-2.024 -0.577,-3.019c-0.452,-2.328 -0.949,-4.838 -1.492,-7.528l-0.203,-0c-0.52,2.69 -0.995,5.211 -1.425,7.562c-0.181,0.995 -0.373,2.001 -0.576,3.019c-0.181,1.017 -0.362,1.978 -0.543,2.882c-0.181,0.882 -0.35,1.684 -0.508,2.408c-0.136,0.723 -0.249,1.289 -0.34,1.696l-3.052,13.124l-11.123,-0l-10.208,-37.915l10.275,0l3.833,16.787c0.203,0.882 0.407,1.944 0.61,3.188c0.226,1.221 0.429,2.464 0.61,3.73c0.204,1.244 0.385,2.431 0.543,3.561c0.158,1.108 0.283,1.99 0.373,2.645l0.203,0c0.023,-0.429 0.069,-0.983 0.136,-1.661c0.091,-0.701 0.192,-1.447 0.305,-2.239c0.113,-0.791 0.226,-1.593 0.339,-2.407c0.136,-0.837 0.26,-1.617 0.374,-2.34c0.135,-0.724 0.248,-1.357 0.339,-1.9c0.113,-0.565 0.203,-0.961 0.271,-1.187l4.137,-18.177l11.395,0l3.968,18.177c0.113,0.498 0.26,1.267 0.441,2.307c0.181,1.04 0.362,2.159 0.542,3.357c0.204,1.176 0.374,2.329 0.509,3.459c0.136,1.108 0.215,1.978 0.238,2.611l0.203,0c0.068,-0.565 0.181,-1.401 0.339,-2.509c0.181,-1.108 0.373,-2.295 0.577,-3.561c0.203,-1.289 0.418,-2.566 0.644,-3.832c0.249,-1.266 0.475,-2.34 0.678,-3.222l3.968,-16.787l10.14,0l-10.343,37.915l-11.259,-0Z" style="fill-rule:nonzero;"/><path id="path12553" d="M202.893,881.682c-1.831,0 -3.357,0.644 -4.578,1.933c-1.198,1.289 -1.888,3.312 -2.069,6.071l13.192,-0c-0.022,-1.153 -0.169,-2.216 -0.441,-3.188c-0.271,-0.972 -0.678,-1.809 -1.22,-2.51c-0.543,-0.723 -1.221,-1.289 -2.035,-1.695c-0.814,-0.408 -1.764,-0.611 -2.849,-0.611l0,0Zm1.323,31.946c-2.713,0 -5.212,-0.395 -7.495,-1.187c-2.284,-0.791 -4.251,-1.978 -5.901,-3.561c-1.65,-1.605 -2.939,-3.617 -3.866,-6.036c-0.904,-2.442 -1.357,-5.302 -1.357,-8.58c0,-3.324 0.419,-6.229 1.255,-8.716c0.837,-2.487 2.001,-4.555 3.493,-6.206c1.515,-1.673 3.324,-2.928 5.426,-3.764c2.126,-0.837 4.477,-1.255 7.054,-1.255c2.51,-0 4.771,0.384 6.783,1.153c2.035,0.746 3.753,1.854 5.155,3.323c1.424,1.47 2.509,3.278 3.255,5.426c0.769,2.125 1.153,4.567 1.153,7.325l0,5.02l-23.128,-0c0.044,1.447 0.271,2.758 0.678,3.934c0.429,1.153 1.017,2.136 1.763,2.95c0.769,0.791 1.685,1.402 2.747,1.831c1.086,0.43 2.318,0.645 3.697,0.645c1.153,0 2.238,-0.057 3.256,-0.17c1.04,-0.135 2.046,-0.328 3.018,-0.576c0.972,-0.249 1.933,-0.554 2.882,-0.916c0.95,-0.384 1.922,-0.825 2.917,-1.322l-0,8.003c-0.904,0.475 -1.82,0.882 -2.747,1.221c-0.904,0.317 -1.865,0.588 -2.883,0.814c-1.017,0.226 -2.114,0.384 -3.289,0.475c-1.176,0.113 -2.465,0.17 -3.866,0.17l-0,-0.001Z" style="fill-rule:nonzero;"/><path id="path12555" d="M247.692,874.323c0.272,-0 0.566,0.012 0.882,0.035c0.339,0 0.656,0.024 0.95,0.071c0.316,0.024 0.599,0.059 0.847,0.106c0.272,0.024 0.475,0.059 0.611,0.107l-0,9.699c-0.181,-0.047 -0.43,-0.093 -0.746,-0.136c-0.317,-0.047 -0.656,-0.083 -1.018,-0.106c-0.339,-0.047 -0.678,-0.071 -1.017,-0.071c-0.339,-0.024 -0.622,-0.036 -0.848,-0.036c-1.334,0 -2.566,0.17 -3.696,0.51c-1.108,0.339 -2.069,0.893 -2.883,1.661c-0.791,0.747 -1.413,1.742 -1.865,2.985c-0.43,1.22 -0.645,2.724 -0.645,4.51l0,19.297l-10.343,-0l-0,-37.915l7.834,-0l1.526,5.697l0.509,0c0.542,-0.972 1.13,-1.854 1.763,-2.645c0.633,-0.791 1.334,-1.458 2.103,-2.001c0.791,-0.565 1.673,-0.995 2.645,-1.289c0.995,-0.316 2.125,-0.474 3.391,-0.474l0,-0.005Z" style="fill-rule:nonzero;"/><path id="path12557" d="M273.399,881.682c-1.832,0 -3.358,0.644 -4.579,1.933c-1.198,1.289 -1.888,3.312 -2.068,6.071l13.192,-0c-0.023,-1.153 -0.17,-2.216 -0.441,-3.188c-0.271,-0.972 -0.678,-1.809 -1.221,-2.51c-0.543,-0.723 -1.221,-1.289 -2.035,-1.695c-0.814,-0.408 -1.763,-0.611 -2.848,-0.611l-0,0Zm1.322,31.946c-2.713,0 -5.211,-0.395 -7.495,-1.187c-2.283,-0.791 -4.25,-1.978 -5.901,-3.561c-1.65,-1.605 -2.939,-3.617 -3.866,-6.036c-0.904,-2.442 -1.356,-5.302 -1.356,-8.58c-0,-3.324 0.418,-6.229 1.255,-8.716c0.836,-2.487 2,-4.555 3.493,-6.206c1.514,-1.673 3.323,-2.928 5.426,-3.764c2.125,-0.837 4.476,-1.255 7.054,-1.255c2.509,-0 4.77,0.384 6.782,1.153c2.035,0.746 3.753,1.854 5.155,3.323c1.424,1.47 2.51,3.278 3.256,5.426c0.768,2.125 1.153,4.567 1.153,7.325l-0,5.02l-23.129,-0c0.045,1.447 0.271,2.758 0.678,3.934c0.43,1.153 1.018,2.136 1.764,2.95c0.769,0.791 1.684,1.402 2.747,1.831c1.085,0.43 2.317,0.645 3.696,0.645c1.153,0 2.239,-0.057 3.256,-0.17c1.04,-0.135 2.046,-0.328 3.018,-0.576c0.972,-0.249 1.933,-0.554 2.883,-0.916c0.949,-0.384 1.922,-0.825 2.916,-1.322l0,8.003c-0.904,0.475 -1.82,0.882 -2.747,1.221c-0.904,0.317 -1.865,0.588 -2.882,0.814c-1.018,0.226 -2.114,0.384 -3.29,0.475c-1.175,0.113 -2.464,0.17 -3.866,0.17l0,-0.001Z" style="fill-rule:nonzero;"/><path id="path12559" d="M309.584,913.628c-1.945,0 -3.719,-0.418 -5.325,-1.255c-1.605,-0.836 -2.984,-2.068 -4.137,-3.696c-1.153,-1.651 -2.057,-3.697 -2.713,-6.138c-0.633,-2.442 -0.95,-5.268 -0.95,-8.479c0,-3.255 0.317,-6.104 0.95,-8.546c0.656,-2.464 1.571,-4.521 2.747,-6.172c1.198,-1.673 2.623,-2.928 4.273,-3.764c1.65,-0.837 3.471,-1.255 5.46,-1.255c1.221,-0 2.34,0.147 3.357,0.44c1.018,0.272 1.934,0.668 2.747,1.187c0.814,0.498 1.538,1.086 2.171,1.764c0.656,0.656 1.232,1.379 1.729,2.17l0.34,0c-0.136,-0.881 -0.26,-1.774 -0.373,-2.679c-0.114,-0.768 -0.215,-1.582 -0.306,-2.442c-0.067,-0.881 -0.101,-1.695 -0.101,-2.441l-0,-12.141l10.343,-0l0,52.769l-7.902,-0l-2.001,-4.918l-0.44,0c-0.475,0.769 -1.018,1.504 -1.628,2.205c-0.611,0.678 -1.323,1.265 -2.137,1.763c-0.791,0.498 -1.695,0.893 -2.713,1.187c-0.995,0.294 -2.125,0.441 -3.391,0.441l-0,0Zm3.764,-8.241c1.221,0 2.261,-0.203 3.12,-0.61c0.859,-0.43 1.549,-1.063 2.069,-1.899c0.543,-0.859 0.938,-1.922 1.187,-3.188c0.271,-1.266 0.418,-2.747 0.441,-4.443l-0,-1.12c-0,-1.831 -0.113,-3.459 -0.339,-4.883c-0.226,-1.424 -0.599,-2.611 -1.119,-3.561c-0.52,-0.972 -1.221,-1.707 -2.103,-2.204c-0.882,-0.498 -1.99,-0.747 -3.324,-0.747c-2.17,0 -3.764,0.984 -4.781,2.951c-1.018,1.944 -1.526,4.781 -1.526,8.512c-0,3.73 0.508,6.534 1.526,8.41c1.04,1.854 2.656,2.781 4.849,2.781l0,0.001Z" style="fill-rule:nonzero;"/><path id="path12561" d="M378.902,874.323c1.945,-0 3.719,0.418 5.325,1.255c1.605,0.836 2.984,2.08 4.137,3.73c1.153,1.651 2.046,3.697 2.679,6.138c0.656,2.442 0.984,5.268 0.984,8.479c-0,3.255 -0.328,6.115 -0.984,8.58c-0.633,2.441 -1.537,4.488 -2.713,6.138c-1.176,1.65 -2.589,2.894 -4.239,3.73c-1.65,0.837 -3.47,1.255 -5.46,1.255c-1.266,0 -2.397,-0.136 -3.391,-0.407c-0.973,-0.272 -1.843,-0.634 -2.612,-1.086c-0.768,-0.452 -1.447,-0.96 -2.034,-1.526c-0.566,-0.588 -1.086,-1.198 -1.56,-1.831l-0.713,-0l-1.729,4.171l-7.902,0l0,-52.769l10.344,0l-0,12.277c-0,0.746 -0.023,1.56 -0.068,2.442c-0.045,0.859 -0.09,1.661 -0.135,2.408c-0.068,0.881 -0.136,1.763 -0.204,2.645l0.407,-0c0.475,-0.792 1.017,-1.526 1.628,-2.205c0.61,-0.678 1.311,-1.265 2.102,-1.763c0.814,-0.52 1.73,-0.927 2.747,-1.221c1.018,-0.294 2.148,-0.441 3.392,-0.441l-0.001,0.001Zm-3.493,8.275c-1.153,-0 -2.136,0.215 -2.95,0.645c-0.792,0.407 -1.436,1.028 -1.933,1.865c-0.498,0.836 -0.859,1.899 -1.085,3.188c-0.227,1.266 -0.362,2.747 -0.407,4.442l-0,1.12c-0,1.831 0.101,3.459 0.305,4.883c0.226,1.425 0.588,2.623 1.085,3.595c0.497,0.95 1.153,1.673 1.967,2.171c0.836,0.497 1.865,0.746 3.086,0.746c2.057,0 3.561,-0.972 4.51,-2.916c0.973,-1.967 1.459,-4.816 1.459,-8.547c-0,-3.73 -0.486,-6.522 -1.459,-8.376c-0.949,-1.877 -2.475,-2.815 -4.578,-2.815l0,-0.001Z" style="fill-rule:nonzero;"/><path id="path12563" d="M395.486,875.035l11.327,0l6.104,21.331c0.362,1.176 0.621,2.431 0.78,3.765c0.181,1.334 0.294,2.532 0.339,3.595l0.203,-0c0.047,-0.52 0.104,-1.097 0.17,-1.73c0.09,-0.633 0.192,-1.277 0.305,-1.933c0.113,-0.656 0.237,-1.3 0.373,-1.933c0.158,-0.656 0.316,-1.244 0.475,-1.764l5.968,-21.331l11.395,0l-14.989,42.765c-1.402,4.001 -3.313,6.974 -5.732,8.919c-2.419,1.944 -5.448,2.916 -9.088,2.916c-1.176,0 -2.193,-0.068 -3.053,-0.203c-0.859,-0.113 -1.594,-0.238 -2.204,-0.373l0,-8.207c0.475,0.113 1.074,0.215 1.797,0.305c0.724,0.09 1.481,0.135 2.273,0.135c1.085,0 2.012,-0.146 2.78,-0.44c0.769,-0.294 1.425,-0.712 1.967,-1.255c0.566,-0.52 1.04,-1.153 1.425,-1.899c0.407,-0.747 0.757,-1.583 1.051,-2.51l0.645,-1.899l-14.311,-38.254Z" style="fill-rule:nonzero;"/></g></g><g id="Pop-_OS1" serif:id="Pop!_OS"><g id="Logo"><g id="g8"><circle id="circle4" cx="452.784" cy="480.472" r="331.773" style="fill:#48b9c7;"/><path id="rect6" d="M628.14,684.221c-0,-14.897 -12.094,-26.991 -26.991,-26.991l-296.729,0c-14.897,0 -26.991,12.094 -26.991,26.991c-0,14.897 12.094,26.991 26.991,26.991l296.729,-0c14.897,-0 26.991,-12.094 26.991,-26.991Z" style="fill:#fff;"/></g><path id="path10" d="M496.974,398.406c-16.834,35.772 -44.891,64.53 -84.171,78.559l33.668,87.678c6.313,16.132 11.925,32.966 7.015,48.398c-4.91,15.431 -27.356,20.341 -43.488,3.507c-30.863,-32.967 -134.673,-240.588 -142.389,-256.019c-7.716,-15.431 -16.133,-28.057 -16.133,-43.488c0.702,-23.147 36.474,-46.996 54.01,-58.92c17.535,-11.924 51.905,-28.057 82.066,-28.758c30.161,-0.701 42.787,6.313 60.322,17.535c26.654,17.536 45.593,44.891 52.607,76.455c7.014,31.564 4.91,56.114 -3.507,73.65m-79.261,-37.877c-6.313,-21.744 -19.64,-42.787 -37.175,-56.815c-3.507,-2.806 -7.716,-6.313 -12.626,-7.716c-32.265,-10.521 -18.237,43.488 -13.327,57.517c4.91,14.028 18.237,43.488 32.967,58.218c3.507,3.507 7.014,6.313 11.223,7.014c4.208,0.701 12.625,-3.507 16.133,-9.118c3.507,-5.612 4.208,-9.82 4.208,-15.432c1.662,-11.21 1.186,-22.635 -1.403,-33.668Z" style="fill:#fff;fill-rule:nonzero;"/><g id="g16"><path id="path12" d="M559.4,613.742c-1.402,6.313 -4.91,11.924 -10.521,15.431c-5.611,3.507 -18.938,3.507 -26.654,-2.805c-7.716,-6.313 -9.118,-16.834 -7.014,-25.251c2.104,-8.418 9.118,-17.536 18.938,-20.342c20.341,-6.313 29.46,16.133 25.251,32.967Z" style="fill:#fff;fill-rule:nonzero;"/><path id="path14" d="M546.775,549.913c-12.626,-4.91 -8.417,-72.247 3.507,-154.313c3.507,-22.446 9.118,-33.668 15.431,-39.28c6.313,-5.611 25.251,-8.417 36.474,-6.313c12.921,1.92 24.933,7.803 34.37,16.835c8.417,7.715 9.118,16.132 6.313,26.654c-2.806,10.521 -12.626,32.966 -20.342,49.099l-19.639,37.176c-37.877,67.336 -45.593,74.35 -56.114,70.142Z" style="fill:#fff;fill-rule:nonzero;"/></g></g><g id="Pop-_OS2" serif:id="Pop!_OS"><path id="path81628" d="M67.794,1192.43l-0,-12.817l16.581,-2.848l0,-116.679l-16.581,-2.849l-0,-12.919l68.054,0c10.58,0 19.599,1.865 27.059,5.595c7.46,3.662 13.157,8.816 17.09,15.462c3.933,6.646 5.9,14.411 5.9,23.295c-0,8.952 -1.967,16.751 -5.9,23.397c-3.933,6.646 -9.63,11.8 -17.09,15.462c-7.46,3.663 -16.479,5.494 -27.059,5.494l-31.433,-0l0,43.742l16.581,2.848l0,12.817l-53.202,0Zm36.621,-75.073l31.433,-0c10.037,-0 17.531,-2.679 22.481,-8.036c5.019,-5.426 7.528,-12.241 7.528,-20.447c0,-8.206 -2.509,-15.055 -7.528,-20.549c-4.95,-5.493 -12.444,-8.239 -22.481,-8.239l-31.433,-0l0,57.271Z" style="fill:#fff;fill-rule:nonzero;stroke:#fff;stroke-width:4.91px;"/><path id="path81630" d="M246.729,1194.57c-10.173,0 -18.955,-2.373 -26.347,-7.12c-7.324,-4.815 -12.987,-11.427 -16.988,-19.837c-4.001,-8.477 -6.002,-18.141 -6.002,-28.991l-0,-2.238c-0,-10.851 2.001,-20.481 6.002,-28.89c4.001,-8.478 9.664,-15.124 16.988,-19.939c7.392,-4.815 16.106,-7.222 26.143,-7.222c10.173,-0 18.921,2.407 26.245,7.222c7.392,4.815 13.089,11.428 17.09,19.837c4.001,8.409 6.002,18.073 6.002,28.992l0,2.238c0,10.918 -2.001,20.616 -6.002,29.093c-4.001,8.409 -9.664,14.987 -16.988,19.735c-7.324,4.747 -16.039,7.12 -26.143,7.12Zm-0,-15.665c6.374,-0 11.698,-1.73 15.971,-5.188c4.34,-3.527 7.595,-8.308 9.765,-14.344c2.238,-6.103 3.357,-13.02 3.357,-20.751l0,-2.238c0,-7.732 -1.119,-14.615 -3.357,-20.651c-2.17,-6.103 -5.425,-10.884 -9.765,-14.343c-4.341,-3.526 -9.732,-5.29 -16.175,-5.29c-6.375,0 -11.732,1.764 -16.072,5.29c-4.341,3.459 -7.596,8.24 -9.766,14.343c-2.17,6.036 -3.255,12.919 -3.255,20.651l-0,2.238c-0,7.731 1.085,14.648 3.255,20.751c2.17,6.036 5.425,10.817 9.766,14.344c4.408,3.458 9.833,5.188 16.276,5.188Z" style="fill:#fff;fill-rule:nonzero;stroke:#fff;stroke-width:4.91px;"/><path id="path81632" d="M308.273,1234.75l-0,-12.919l15.564,-2.848l-0,-120.85l-16.582,-2.848l0,-12.92l33.773,0l1.831,13.428c3.662,-5.018 8.104,-8.85 13.326,-11.495c5.29,-2.645 11.393,-3.967 18.311,-3.967c9.087,-0 16.852,2.475 23.295,7.426c6.442,4.883 11.359,11.766 14.75,20.65c3.391,8.816 5.086,19.158 5.086,31.026l0,2.137c0,10.579 -1.729,19.836 -5.188,27.771c-3.391,7.934 -8.273,14.139 -14.648,18.615c-6.375,4.408 -14.038,6.612 -22.99,6.612c-6.782,0 -12.75,-1.119 -17.904,-3.357c-5.086,-2.305 -9.426,-5.696 -13.021,-10.172l0,37.944l17.497,2.848l0,12.919l-53.1,-0Zm60.323,-55.847c9.494,-0 16.683,-3.459 21.565,-10.376c4.883,-6.918 7.325,-15.903 7.325,-26.957l-0,-2.137c-0,-8.409 -1.085,-15.801 -3.256,-22.176c-2.17,-6.442 -5.425,-11.495 -9.765,-15.157c-4.273,-3.662 -9.63,-5.493 -16.073,-5.493c-5.696,-0 -10.579,1.288 -14.648,3.866c-4.069,2.577 -7.358,6.103 -9.868,10.579l0,53.609c2.51,4.544 5.765,8.07 9.766,10.58c4.069,2.441 9.054,3.662 14.954,3.662Z" style="fill:#fff;fill-rule:nonzero;stroke:#fff;stroke-width:4.91px;"/><path id="path81634" d="M440.109,1143.81l-0,-99.488l20.039,0l0,99.488l-20.039,-0Zm-0,48.624l-0,-20.752l20.039,0l0,20.752l-20.039,0Z" style="fill:#fff;fill-rule:nonzero;stroke:#fff;stroke-width:4.91px;"/><rect id="path81636" x="486.8" y="1192.43" width="93.791" height="15.666" style="fill:#fff;fill-rule:nonzero;stroke:#fff;stroke-width:4.91px;"/><path id="path81638" d="M662.175,1194.57c-9.562,0 -18.141,-1.831 -25.737,-5.493c-7.595,-3.662 -14.072,-8.816 -19.429,-15.462c-5.29,-6.714 -9.359,-14.648 -12.207,-23.804c-2.781,-9.155 -4.171,-19.26 -4.171,-30.314l0,-2.136c0,-10.986 1.39,-21.057 4.171,-30.212c2.848,-9.224 6.917,-17.192 12.207,-23.906c5.357,-6.714 11.834,-11.902 19.429,-15.564c7.596,-3.662 16.175,-5.493 25.737,-5.493c10.105,-0 18.989,1.831 26.652,5.493c7.663,3.662 14.072,8.85 19.226,15.564c5.222,6.714 9.155,14.682 11.8,23.906c2.645,9.155 3.967,19.226 3.967,30.212l0,2.136c0,11.054 -1.322,21.159 -3.967,30.314c-2.645,9.156 -6.578,17.09 -11.8,23.804c-5.154,6.646 -11.563,11.8 -19.226,15.462c-7.663,3.662 -16.547,5.493 -26.652,5.493Zm-0,-16.683c9.833,0 17.768,-2.441 23.804,-7.324c6.103,-4.883 10.579,-11.698 13.427,-20.447c2.849,-8.816 4.273,-19.022 4.273,-30.619l-0,-2.34c-0,-11.528 -1.458,-21.633 -4.374,-30.314c-2.849,-8.748 -7.325,-15.564 -13.428,-20.446c-6.104,-4.951 -14.004,-7.426 -23.702,-7.426c-8.884,-0 -16.412,2.475 -22.583,7.426c-6.171,4.95 -10.851,11.8 -14.038,20.548c-3.188,8.681 -4.781,18.751 -4.781,30.212l-0,2.34c-0,11.529 1.593,21.702 4.781,30.518c3.187,8.748 7.867,15.598 14.038,20.548c6.171,4.883 13.699,7.324 22.583,7.324Z" style="fill:#fff;fill-rule:nonzero;stroke:#fff;stroke-width:4.91px;"/><path id="path81640" d="M792.587,1194.57c-9.02,0 -17.7,-1.322 -26.042,-3.967c-8.341,-2.645 -16.31,-6.714 -23.905,-12.207l-0,-31.636l15.564,-0l3.357,23.295c4.408,2.712 9.189,4.815 14.343,6.307c5.154,1.492 10.715,2.238 16.683,2.238c6.781,-0 12.512,-1.018 17.191,-3.052c4.747,-2.103 8.376,-4.985 10.885,-8.647c2.509,-3.662 3.764,-7.934 3.764,-12.817c-0,-4.544 -1.085,-8.545 -3.255,-12.004c-2.171,-3.458 -5.765,-6.476 -10.783,-9.053c-4.951,-2.645 -11.733,-4.951 -20.345,-6.918c-10.173,-2.373 -18.786,-5.527 -25.839,-9.46c-6.985,-4.001 -12.308,-8.816 -15.97,-14.445c-3.595,-5.697 -5.392,-12.207 -5.392,-19.531c0,-7.732 2.035,-14.649 6.104,-20.752c4.136,-6.104 9.867,-10.919 17.191,-14.445c7.324,-3.527 15.869,-5.29 25.635,-5.29c10.376,-0 19.531,1.594 27.466,4.781c8.002,3.12 14.58,6.917 19.734,11.393l0,29.602l-15.563,0l-3.357,-21.159c-3.052,-2.441 -6.85,-4.475 -11.394,-6.103c-4.543,-1.628 -10.172,-2.441 -16.886,-2.441c-5.697,-0 -10.715,1.017 -15.055,3.051c-4.341,1.967 -7.732,4.747 -10.173,8.342c-2.441,3.594 -3.662,7.833 -3.662,12.715c-0,4.273 1.085,8.003 3.255,11.19c2.238,3.188 5.832,6.002 10.783,8.443c5.018,2.374 11.698,4.612 20.04,6.714c15.598,3.866 27.398,9.596 35.4,17.192c8.071,7.528 12.106,16.852 12.106,27.974c-0,7.935 -2.137,14.988 -6.409,21.159c-4.273,6.104 -10.308,10.885 -18.107,14.343c-7.731,3.459 -16.853,5.188 -27.364,5.188Z" style="fill:#fff;fill-rule:nonzero;stroke:#fff;stroke-width:4.91px;"/></g></g></g></svg>