<?xml version="1.0" encoding="UTF-8" standalone="no"?><!DOCTYPE svg PUBLIC "-//W3C//DTD SVG 1.1//EN" "http://www.w3.org/Graphics/SVG/1.1/DTD/svg11.dtd"><svg width="100%" height="100%" viewBox="0 0 907 1352" version="1.1" xmlns="http://www.w3.org/2000/svg" xmlns:xlink="http://www.w3.org/1999/xlink" xml:space="preserve" xmlns:serif="http://www.serif.com/" style="fill-rule:evenodd;clip-rule:evenodd;"><rect id="RebornOS" x="0" y="-0" width="906.667" height="1351.11" style="fill:none;"/><clipPath id="_clip1"><rect x="0" y="-0" width="906.667" height="1351.11"/></clipPath><g clip-path="url(#_clip1)"><g><g id="Frame"><path id="path36023" d="M363.226,8.892l180.223,-0c196.3,-0 354.331,36.928 354.331,82.799l0,1167.73c0,45.871 -158.031,82.8 -354.331,82.8l-180.223,-0c-196.299,-0 -354.331,-36.929 -354.331,-82.8l0,-1167.73c0,-45.871 158.032,-82.799 354.331,-82.799Z" style="fill:#fff;fill-rule:nonzero;"/><path id="path36025" d="M363.234,0c-98.707,0 -187.781,9.234 -252.806,24.429c-32.512,7.598 -58.999,16.618 -78.086,27.198c-9.544,5.29 -17.286,10.978 -22.976,17.509c-5.69,6.53 -9.366,14.275 -9.366,22.561l0,1167.72c0,8.285 3.676,16.03 9.366,22.56c5.69,6.531 13.432,12.219 22.976,17.509c19.087,10.581 45.574,19.6 78.086,27.198c65.025,15.195 154.099,24.429 252.806,24.429l180.209,0c98.707,0 187.781,-9.234 252.806,-24.429c32.512,-7.598 58.999,-16.617 78.086,-27.198c9.544,-5.29 17.286,-10.978 22.976,-17.509c5.69,-6.53 9.366,-14.275 9.366,-22.56l-0,-1167.72c-0,-8.286 -3.676,-16.031 -9.366,-22.561c-5.69,-6.531 -13.432,-12.219 -22.976,-17.509c-19.087,-10.58 -45.574,-19.6 -78.086,-27.198c-65.025,-15.195 -154.099,-24.429 -252.806,-24.429l-180.209,0Zm-0,17.786l180.209,-0c97.593,-0 185.703,9.231 248.769,23.968c31.533,7.368 56.818,16.176 73.496,25.421c8.339,4.622 14.481,9.365 18.201,13.633c3.719,4.269 4.982,7.706 4.982,10.889l0,1167.72c0,3.182 -1.263,6.619 -4.982,10.888c-3.72,4.269 -9.862,9.011 -18.201,13.633c-16.678,9.245 -41.963,18.053 -73.496,25.421c-63.066,14.738 -151.176,23.969 -248.769,23.969l-180.209,-0c-97.593,-0 -185.703,-9.231 -248.769,-23.969c-31.533,-7.368 -56.818,-16.176 -73.496,-25.421c-8.339,-4.622 -14.481,-9.364 -18.201,-13.633c-3.719,-4.269 -4.982,-7.706 -4.982,-10.888l-0,-1167.72c-0,-3.183 1.263,-6.62 4.982,-10.889c3.72,-4.268 9.862,-9.011 18.201,-13.633c16.678,-9.245 41.963,-18.053 73.496,-25.421c63.066,-14.737 151.176,-23.968 248.769,-23.968Z" style="fill-rule:nonzero;"/></g><g id="Bottom"><path id="path35979" d="M371.606,946.173l163.464,0c199.608,0 360.304,38.151 360.304,85.54l-0,218.99c-0,47.389 -160.696,85.54 -360.304,85.54l-163.464,-0c-199.609,-0 -360.304,-38.151 -360.304,-85.54l-0,-218.99c-0,-47.389 160.695,-85.54 360.304,-85.54Z" style="fill-rule:nonzero;"/><path id="path35981" d="M371.607,938.419c-100.298,0 -190.804,9.547 -256.796,25.214c-32.996,7.833 -59.838,17.123 -79.078,27.958c-19.241,10.836 -32.18,23.883 -32.18,40.116l-0,218.988c-0,16.233 12.939,29.303 32.18,40.139c19.24,10.835 46.082,20.125 79.078,27.958c65.992,15.667 156.498,25.214 256.796,25.214l163.463,0c100.298,0 190.804,-9.547 256.796,-25.214c32.996,-7.833 59.838,-17.123 79.078,-27.958c19.241,-10.836 32.18,-23.906 32.18,-40.139l0,-218.988c0,-16.233 -12.939,-29.28 -32.18,-40.116c-19.24,-10.835 -46.082,-20.125 -79.078,-27.958c-65.992,-15.667 -156.498,-25.214 -256.796,-25.214l-163.463,0Zm0,15.525l163.463,-0c99.309,-0 188.962,9.52 253.22,24.775c32.129,7.628 57.914,16.745 75.042,26.39c17.127,9.646 24.291,19.137 24.291,26.598l-0,218.988c-0,7.461 -7.164,16.952 -24.291,26.598c-17.128,9.645 -42.913,18.762 -75.042,26.39c-64.258,15.255 -153.911,24.798 -253.22,24.798l-163.463,0c-99.309,0 -188.962,-9.543 -253.22,-24.798c-32.129,-7.628 -57.914,-16.745 -75.042,-26.39c-17.127,-9.646 -24.291,-19.137 -24.291,-26.598l0,-218.988c0,-7.461 7.164,-16.952 24.291,-26.598c17.128,-9.645 42.913,-18.762 75.042,-26.39c64.258,-15.255 153.911,-24.775 253.22,-24.775Z" style="fill-rule:nonzero;"/></g><g id="Powered-By" serif:id="Powered By"><path id="path12547" d="M59.756,886.701l2.069,0c2.962,0 5.189,-0.588 6.681,-1.763c1.515,-1.176 2.272,-3.086 2.272,-5.732c-0,-2.464 -0.678,-4.284 -2.035,-5.46c-1.334,-1.175 -3.436,-1.763 -6.308,-1.763l-2.679,-0l0,14.718Zm21.671,-7.868c-0,2.171 -0.328,4.251 -0.984,6.24c-0.656,1.99 -1.741,3.742 -3.256,5.257c-1.492,1.515 -3.47,2.724 -5.934,3.629c-2.442,0.904 -5.472,1.356 -9.089,1.356l-2.408,0l0,17.635l-10.513,-0l0,-49.581l13.769,-0c3.188,-0 5.935,0.362 8.241,1.085c2.328,0.701 4.239,1.719 5.731,3.053c1.515,1.311 2.634,2.927 3.357,4.849c0.724,1.899 1.086,4.058 1.086,6.478l-0,-0.001Z" style="fill-rule:nonzero;"/><path id="path12549" d="M98.587,893.925c-0,3.775 0.531,6.624 1.594,8.546c1.062,1.899 2.792,2.848 5.188,2.848c2.374,0 4.093,-0.96 5.155,-2.882c1.063,-1.922 1.594,-4.759 1.594,-8.512c0,-3.776 -0.531,-6.591 -1.594,-8.445c-1.062,-1.876 -2.803,-2.814 -5.223,-2.814c-2.373,-0 -4.092,0.938 -5.154,2.814c-1.04,1.854 -1.56,4.669 -1.56,8.445Zm24.078,-0c0,3.165 -0.407,5.968 -1.221,8.41c-0.791,2.442 -1.944,4.499 -3.459,6.172c-1.492,1.673 -3.323,2.951 -5.494,3.833c-2.148,0.859 -4.567,1.288 -7.257,1.288c-2.51,0 -4.816,-0.429 -6.919,-1.288c-2.102,-0.882 -3.922,-2.16 -5.46,-3.833c-1.514,-1.673 -2.701,-3.73 -3.56,-6.172c-0.86,-2.442 -1.289,-5.245 -1.289,-8.41c-0,-3.143 0.395,-5.935 1.187,-8.377c0.814,-2.442 1.967,-4.488 3.459,-6.138c1.515,-1.673 3.346,-2.939 5.494,-3.798c2.148,-0.86 4.578,-1.289 7.291,-1.289c2.51,-0 4.816,0.429 6.918,1.289c2.103,0.859 3.912,2.125 5.427,3.798c1.537,1.65 2.735,3.696 3.594,6.138c0.859,2.442 1.289,5.234 1.289,8.377Z" style="fill-rule:nonzero;"/><path id="path12551" d="M160.546,912.95l-2.917,-13.26c-0.09,-0.384 -0.214,-0.927 -0.373,-1.628c-0.135,-0.724 -0.293,-1.526 -0.474,-2.408c-0.181,-0.904 -0.373,-1.854 -0.577,-2.848c-0.181,-1.018 -0.373,-2.024 -0.576,-3.019c-0.453,-2.328 -0.95,-4.838 -1.492,-7.528l-0.204,-0c-0.52,2.69 -0.995,5.211 -1.424,7.562c-0.181,0.995 -0.373,2.001 -0.577,3.019c-0.181,1.017 -0.362,1.978 -0.542,2.882c-0.181,0.882 -0.351,1.684 -0.509,2.408c-0.136,0.723 -0.249,1.289 -0.339,1.696l-3.052,13.124l-11.124,-0l-10.208,-37.915l10.276,0l3.832,16.787c0.203,0.882 0.407,1.944 0.61,3.188c0.226,1.221 0.43,2.464 0.611,3.73c0.203,1.244 0.384,2.431 0.542,3.561c0.159,1.108 0.283,1.99 0.373,2.645l0.204,0c0.023,-0.429 0.068,-0.983 0.136,-1.661c0.09,-0.701 0.192,-1.447 0.305,-2.239c0.113,-0.791 0.226,-1.593 0.339,-2.407c0.135,-0.837 0.26,-1.617 0.373,-2.34c0.136,-0.724 0.249,-1.357 0.339,-1.9c0.113,-0.565 0.204,-0.961 0.271,-1.187l4.138,-18.177l11.395,0l3.967,18.177c0.113,0.498 0.26,1.267 0.441,2.307c0.181,1.04 0.362,2.159 0.543,3.357c0.203,1.176 0.373,2.329 0.509,3.459c0.135,1.108 0.214,1.978 0.237,2.611l0.203,0c0.068,-0.565 0.181,-1.401 0.34,-2.509c0.18,-1.108 0.373,-2.295 0.576,-3.561c0.203,-1.289 0.418,-2.566 0.644,-3.832c0.249,-1.266 0.475,-2.34 0.679,-3.222l3.968,-16.787l10.14,0l-10.344,37.915l-11.259,-0Z" style="fill-rule:nonzero;"/><path id="path12553" d="M202.903,881.682c-1.831,0 -3.357,0.644 -4.578,1.933c-1.198,1.289 -1.888,3.312 -2.068,6.071l13.192,-0c-0.023,-1.153 -0.17,-2.216 -0.441,-3.188c-0.272,-0.972 -0.678,-1.809 -1.221,-2.51c-0.543,-0.723 -1.221,-1.289 -2.035,-1.695c-0.814,-0.408 -1.763,-0.611 -2.849,-0.611l0,0Zm1.323,31.946c-2.713,0 -5.211,-0.395 -7.495,-1.187c-2.283,-0.791 -4.25,-1.978 -5.901,-3.561c-1.65,-1.605 -2.939,-3.617 -3.866,-6.036c-0.904,-2.442 -1.356,-5.302 -1.356,-8.58c-0,-3.324 0.418,-6.229 1.255,-8.716c0.836,-2.487 2,-4.555 3.493,-6.206c1.514,-1.673 3.323,-2.928 5.426,-3.764c2.125,-0.837 4.476,-1.255 7.054,-1.255c2.509,-0 4.77,0.384 6.782,1.153c2.035,0.746 3.753,1.854 5.155,3.323c1.424,1.47 2.51,3.278 3.256,5.426c0.768,2.125 1.153,4.567 1.153,7.325l-0,5.02l-23.129,-0c0.045,1.447 0.271,2.758 0.678,3.934c0.43,1.153 1.018,2.136 1.764,2.95c0.768,0.791 1.684,1.402 2.747,1.831c1.085,0.43 2.317,0.645 3.696,0.645c1.153,0 2.239,-0.057 3.256,-0.17c1.04,-0.135 2.046,-0.328 3.018,-0.576c0.972,-0.249 1.933,-0.554 2.883,-0.916c0.949,-0.384 1.922,-0.825 2.916,-1.322l0,8.003c-0.904,0.475 -1.82,0.882 -2.747,1.221c-0.904,0.317 -1.865,0.588 -2.882,0.814c-1.018,0.226 -2.114,0.384 -3.29,0.475c-1.175,0.113 -2.464,0.17 -3.866,0.17l0,-0.001Z" style="fill-rule:nonzero;"/><path id="path12555" d="M247.703,874.323c0.271,-0 0.565,0.012 0.881,0.035c0.34,0 0.656,0.024 0.95,0.071c0.317,0.024 0.599,0.059 0.848,0.106c0.271,0.024 0.475,0.059 0.61,0.107l0,9.699c-0.181,-0.047 -0.429,-0.093 -0.746,-0.136c-0.316,-0.047 -0.656,-0.083 -1.017,-0.106c-0.339,-0.047 -0.679,-0.071 -1.018,-0.071c-0.339,-0.024 -0.621,-0.036 -0.847,-0.036c-1.334,0 -2.567,0.17 -3.697,0.51c-1.108,0.339 -2.069,0.893 -2.883,1.661c-0.791,0.747 -1.413,1.742 -1.865,2.985c-0.429,1.22 -0.644,2.724 -0.644,4.51l-0,19.297l-10.344,-0l0,-37.915l7.834,-0l1.526,5.697l0.509,0c0.543,-0.972 1.13,-1.854 1.763,-2.645c0.633,-0.791 1.334,-1.458 2.103,-2.001c0.791,-0.565 1.673,-0.995 2.645,-1.289c0.995,-0.316 2.125,-0.474 3.392,-0.474l-0,-0.005Z" style="fill-rule:nonzero;"/><path id="path12557" d="M273.409,881.682c-1.831,0 -3.358,0.644 -4.578,1.933c-1.199,1.289 -1.888,3.312 -2.069,6.071l13.192,-0c-0.023,-1.153 -0.17,-2.216 -0.441,-3.188c-0.271,-0.972 -0.678,-1.809 -1.221,-2.51c-0.542,-0.723 -1.221,-1.289 -2.034,-1.695c-0.814,-0.408 -1.764,-0.611 -2.849,-0.611l-0,0Zm1.322,31.946c-2.713,0 -5.211,-0.395 -7.494,-1.187c-2.284,-0.791 -4.251,-1.978 -5.901,-3.561c-1.651,-1.605 -2.939,-3.617 -3.866,-6.036c-0.905,-2.442 -1.357,-5.302 -1.357,-8.58c0,-3.324 0.418,-6.229 1.255,-8.716c0.836,-2.487 2.001,-4.555 3.493,-6.206c1.515,-1.673 3.323,-2.928 5.426,-3.764c2.125,-0.837 4.477,-1.255 7.054,-1.255c2.51,-0 4.77,0.384 6.783,1.153c2.034,0.746 3.753,1.854 5.154,3.323c1.425,1.47 2.51,3.278 3.256,5.426c0.769,2.125 1.153,4.567 1.153,7.325l0,5.02l-23.129,-0c0.045,1.447 0.271,2.758 0.679,3.934c0.429,1.153 1.017,2.136 1.763,2.95c0.769,0.791 1.685,1.402 2.747,1.831c1.085,0.43 2.318,0.645 3.697,0.645c1.153,0 2.238,-0.057 3.255,-0.17c1.04,-0.135 2.046,-0.328 3.019,-0.576c0.972,-0.249 1.933,-0.554 2.882,-0.916c0.95,-0.384 1.922,-0.825 2.917,-1.322l-0,8.003c-0.905,0.475 -1.82,0.882 -2.747,1.221c-0.905,0.317 -1.865,0.588 -2.883,0.814c-1.017,0.226 -2.114,0.384 -3.289,0.475c-1.176,0.113 -2.465,0.17 -3.867,0.17l0,-0.001Z" style="fill-rule:nonzero;"/><path id="path12559" d="M309.594,913.628c-1.944,0 -3.719,-0.418 -5.324,-1.255c-1.605,-0.836 -2.985,-2.068 -4.138,-3.696c-1.153,-1.651 -2.057,-3.697 -2.713,-6.138c-0.633,-2.442 -0.949,-5.268 -0.949,-8.479c-0,-3.255 0.316,-6.104 0.949,-8.546c0.656,-2.464 1.572,-4.521 2.747,-6.172c1.199,-1.673 2.623,-2.928 4.273,-3.764c1.651,-0.837 3.471,-1.255 5.46,-1.255c1.221,-0 2.34,0.147 3.358,0.44c1.017,0.272 1.933,0.668 2.747,1.187c0.814,0.498 1.537,1.086 2.17,1.764c0.656,0.656 1.232,1.379 1.73,2.17l0.339,0c-0.136,-0.881 -0.26,-1.774 -0.373,-2.679c-0.113,-0.768 -0.215,-1.582 -0.305,-2.442c-0.068,-0.881 -0.102,-1.695 -0.102,-2.441l0,-12.141l10.344,-0l-0,52.769l-7.902,-0l-2.001,-4.918l-0.441,0c-0.475,0.769 -1.018,1.504 -1.628,2.205c-0.61,0.678 -1.323,1.265 -2.136,1.763c-0.792,0.498 -1.696,0.893 -2.714,1.187c-0.994,0.294 -2.125,0.441 -3.391,0.441l0,0Zm3.765,-8.241c1.22,0 2.26,-0.203 3.12,-0.61c0.859,-0.43 1.548,-1.063 2.068,-1.899c0.543,-0.859 0.939,-1.922 1.187,-3.188c0.272,-1.266 0.419,-2.747 0.441,-4.443l0,-1.12c0,-1.831 -0.113,-3.459 -0.339,-4.883c-0.226,-1.424 -0.599,-2.611 -1.119,-3.561c-0.52,-0.972 -1.221,-1.707 -2.103,-2.204c-0.881,-0.498 -1.989,-0.747 -3.323,-0.747c-2.171,0 -3.765,0.984 -4.782,2.951c-1.017,1.944 -1.526,4.781 -1.526,8.512c0,3.73 0.509,6.534 1.526,8.41c1.04,1.854 2.657,2.781 4.85,2.781l-0,0.001Z" style="fill-rule:nonzero;"/><path id="path12561" d="M378.913,874.323c1.944,-0 3.719,0.418 5.324,1.255c1.605,0.836 2.984,2.08 4.137,3.73c1.153,1.651 2.046,3.697 2.68,6.138c0.655,2.442 0.983,5.268 0.983,8.479c0,3.255 -0.328,6.115 -0.983,8.58c-0.634,2.441 -1.538,4.488 -2.714,6.138c-1.175,1.65 -2.588,2.894 -4.239,3.73c-1.65,0.837 -3.47,1.255 -5.46,1.255c-1.266,0 -2.396,-0.136 -3.391,-0.407c-0.972,-0.272 -1.843,-0.634 -2.611,-1.086c-0.769,-0.452 -1.447,-0.96 -2.035,-1.526c-0.565,-0.588 -1.085,-1.198 -1.56,-1.831l-0.712,-0l-1.73,4.171l-7.902,0l0,-52.769l10.344,0l-0,12.277c-0,0.746 -0.023,1.56 -0.067,2.442c-0.045,0.859 -0.091,1.661 -0.136,2.408c-0.068,0.881 -0.136,1.763 -0.204,2.645l0.407,-0c0.475,-0.792 1.018,-1.526 1.628,-2.205c0.611,-0.678 1.311,-1.265 2.103,-1.763c0.814,-0.52 1.729,-0.927 2.747,-1.221c1.017,-0.294 2.148,-0.441 3.391,-0.441l-0,0.001Zm-3.493,8.275c-1.153,-0 -2.137,0.215 -2.951,0.645c-0.791,0.407 -1.436,1.028 -1.933,1.865c-0.497,0.836 -0.859,1.899 -1.085,3.188c-0.226,1.266 -0.362,2.747 -0.407,4.442l-0,1.12c-0,1.831 0.102,3.459 0.305,4.883c0.226,1.425 0.588,2.623 1.085,3.595c0.498,0.95 1.153,1.673 1.967,2.171c0.837,0.497 1.865,0.746 3.086,0.746c2.058,0 3.561,-0.972 4.511,-2.916c0.972,-1.967 1.458,-4.816 1.458,-8.547c0,-3.73 -0.486,-6.522 -1.458,-8.376c-0.95,-1.877 -2.476,-2.815 -4.578,-2.815l-0,-0.001Z" style="fill-rule:nonzero;"/><path id="path12563" d="M395.496,875.035l11.327,0l6.104,21.331c0.362,1.176 0.622,2.431 0.78,3.765c0.181,1.334 0.294,2.532 0.339,3.595l0.203,-0c0.047,-0.52 0.104,-1.097 0.17,-1.73c0.091,-0.633 0.192,-1.277 0.305,-1.933c0.113,-0.656 0.238,-1.3 0.373,-1.933c0.158,-0.656 0.317,-1.244 0.475,-1.764l5.969,-21.331l11.395,0l-14.99,42.765c-1.402,4.001 -3.312,6.974 -5.731,8.919c-2.42,1.944 -5.449,2.916 -9.089,2.916c-1.176,0 -2.193,-0.068 -3.052,-0.203c-0.859,-0.113 -1.594,-0.238 -2.205,-0.373l0,-8.207c0.475,0.113 1.074,0.215 1.798,0.305c0.723,0.09 1.481,0.135 2.272,0.135c1.085,0 2.012,-0.146 2.781,-0.44c0.768,-0.294 1.424,-0.712 1.967,-1.255c0.565,-0.52 1.04,-1.153 1.424,-1.899c0.407,-0.747 0.758,-1.583 1.051,-2.51l0.645,-1.899l-14.311,-38.254Z" style="fill-rule:nonzero;"/></g></g><g id="RebornOS1" serif:id="RebornOS"><g id="Logo"><path id="path31881" d="M617.796,766.258l-329.081,-0l-164.535,-285l164.54,-284.982l329.08,-0l164.54,284.991l-164.544,284.991Z" style="fill:#00222b;fill-rule:nonzero;stroke:#aef;stroke-opacity:0;stroke-width:1.54px;"/><path id="path31883" d="M301.474,218.412l-68.735,118.961l67.925,39.217l46.094,-79.795l92.148,0l0,-78.435l-137.432,0.052Zm166.14,0l-0,78.436l92.148,-0l46.094,79.742l67.925,-39.217l-68.735,-119.048l-137.432,0.087Zm220.525,143.916l-67.925,39.218l46.059,79.764l-46.094,79.839l67.925,39.218l68.736,-119.048l-68.701,-118.991Zm-469.758,0l-68.692,118.939l68.735,119.047l67.921,-39.217l-46.094,-79.839l46.059,-79.764l-67.929,-39.166Zm82.274,223.642l-67.925,39.217l68.696,118.983l137.428,-0l-0,-78.436l-92.096,0l-46.103,-79.764Zm305.114,-0l-46.059,79.764l-92.092,0l0,78.436l137.436,-0l68.692,-118.983l-67.977,-39.217Z" style="fill:#006680;fill-rule:nonzero;"/><path id="path31885" d="M360.597,320.762l-39.218,67.846l58.64,33.858l19.63,-33.997l39.218,-0l0,-67.716l-78.27,0.009Zm107.021,-0l0,67.716l39.218,-0l19.63,33.997l58.64,-33.858l-39.218,-67.847l-78.27,-0.008Zm-160.557,92.719l-39.087,67.777l39.217,67.847l58.64,-33.858l-19.631,-33.998l19.587,-33.923l-58.726,-33.845Zm292.39,0l-58.64,33.858l19.587,33.924l-19.63,33.997l58.639,33.858l39.218,-67.847l-39.174,-67.79Zm-219.35,126.647l-58.639,33.858l39.131,67.786l78.305,-0l-0,-67.716l-39.218,0l-19.579,-33.928Zm146.317,0l-19.587,33.924l-39.217,-0l-0,67.716l78.304,-0l39.131,-67.786l-58.631,-33.854Z" style="fill:#08a;fill-rule:nonzero;"/><path id="path31887" d="M492.168,548.652l-77.816,-0l-38.913,-67.389l38.913,-67.39l77.816,0l38.913,67.39l-38.913,67.389Z" style="fill:#00aad4;fill-rule:nonzero;"/></g><g id="RebornOS2" serif:id="RebornOS"><path id="path81643" d="M92.663,1102.9l-0,46.712l23.356,-0c3.201,-0 6.212,-0.597 9.033,-1.791c2.821,-1.247 5.29,-2.929 7.406,-5.045c2.116,-2.116 3.77,-4.585 4.964,-7.406c1.248,-2.875 1.872,-5.913 1.872,-9.114c-0,-3.201 -0.624,-6.212 -1.872,-9.033c-1.194,-2.876 -2.848,-5.372 -4.964,-7.487c-2.116,-2.116 -4.585,-3.771 -7.406,-4.965c-2.821,-1.247 -5.832,-1.871 -9.033,-1.871l-23.356,-0Zm-0,93.343l-23.356,-0l-0,-116.699l46.712,-0c4.286,-0 8.409,0.569 12.37,1.709c3.96,1.085 7.649,2.658 11.067,4.72c3.473,2.007 6.619,4.448 9.441,7.324c2.875,2.821 5.316,5.968 7.324,9.44c2.061,3.472 3.635,7.188 4.72,11.149c1.139,3.96 1.709,8.084 1.709,12.37c-0,4.014 -0.516,7.921 -1.546,11.718c-0.977,3.798 -2.415,7.406 -4.314,10.824c-1.844,3.418 -4.123,6.565 -6.836,9.44c-2.712,2.876 -5.75,5.371 -9.114,7.487l12.939,30.518l-24.821,-0l-10.172,-23.519l-26.123,0.163l-0,23.356Z" style="fill:#fff;fill-rule:nonzero;stroke:#fff;stroke-width:4.91px;"/><path id="path81645" d="M209.281,1174.92c0.868,0.271 1.736,0.461 2.604,0.57c0.868,0.054 1.736,0.081 2.604,0.081c2.17,-0 4.259,-0.298 6.266,-0.895c2.008,-0.597 3.879,-1.438 5.615,-2.523c1.791,-1.139 3.364,-2.496 4.72,-4.069c1.411,-1.628 2.55,-3.418 3.418,-5.371l16.276,16.357c-2.061,2.93 -4.448,5.561 -7.161,7.894c-2.658,2.333 -5.561,4.313 -8.708,5.941c-3.092,1.628 -6.374,2.848 -9.847,3.662c-3.418,0.868 -6.944,1.302 -10.579,1.302c-6.131,0 -11.909,-1.139 -17.334,-3.418c-5.371,-2.278 -10.091,-5.452 -14.16,-9.521c-4.015,-4.069 -7.189,-8.898 -9.522,-14.486c-2.333,-5.642 -3.499,-11.827 -3.499,-18.555c-0,-6.89 1.166,-13.183 3.499,-18.88c2.333,-5.696 5.507,-10.552 9.522,-14.567c4.069,-4.015 8.789,-7.134 14.16,-9.359c5.425,-2.224 11.203,-3.336 17.334,-3.336c3.635,-0 7.188,0.434 10.661,1.302c3.472,0.868 6.754,2.116 9.847,3.743c3.146,1.628 6.076,3.635 8.789,6.023c2.712,2.332 5.1,4.964 7.161,7.893l-41.666,50.212Zm11.393,-45.817c-1.031,-0.38 -2.062,-0.624 -3.093,-0.732c-0.976,-0.109 -2.007,-0.163 -3.092,-0.163c-3.038,-0 -5.914,0.569 -8.626,1.709c-2.659,1.085 -4.992,2.658 -6.999,4.72c-1.953,2.061 -3.499,4.557 -4.639,7.487c-1.139,2.875 -1.709,6.13 -1.709,9.765c0,0.814 0.027,1.737 0.082,2.767c0.108,1.031 0.244,2.089 0.407,3.174c0.217,1.031 0.461,2.035 0.732,3.011c0.271,0.977 0.624,1.845 1.058,2.604l25.879,-34.342Z" style="fill:#fff;fill-rule:nonzero;stroke:#fff;stroke-width:4.91px;"/><path id="path81647" d="M349.336,1151.89c-0,6.836 -1.167,13.076 -3.499,18.718c-2.333,5.642 -5.507,10.498 -9.522,14.567c-4.015,4.015 -8.735,7.134 -14.16,9.359c-5.371,2.224 -11.149,3.336 -17.334,3.336c-6.131,0 -11.909,-1.139 -17.334,-3.418c-5.371,-2.278 -10.091,-5.452 -14.16,-9.521c-4.015,-4.069 -7.189,-8.898 -9.522,-14.486c-2.333,-5.642 -3.499,-11.827 -3.499,-18.555l-0,-77.473l22.298,-0l0,40.69c1.194,-1.519 2.631,-2.876 4.313,-4.069c1.736,-1.194 3.581,-2.17 5.534,-2.93c2.007,-0.76 4.069,-1.329 6.185,-1.709c2.116,-0.434 4.178,-0.651 6.185,-0.651c6.185,-0 11.963,1.166 17.334,3.499c5.425,2.279 10.145,5.48 14.16,9.603c4.015,4.123 7.189,9.006 9.522,14.649c2.332,5.588 3.499,11.718 3.499,18.391Zm-22.38,0c0,-3.363 -0.596,-6.483 -1.79,-9.358c-1.139,-2.93 -2.713,-5.453 -4.72,-7.569c-2.007,-2.115 -4.368,-3.77 -7.08,-4.964c-2.659,-1.193 -5.507,-1.79 -8.545,-1.79c-3.038,-0 -5.914,0.678 -8.626,2.034c-2.659,1.302 -4.992,3.066 -6.999,5.29c-2.007,2.17 -3.581,4.693 -4.72,7.568c-1.139,2.822 -1.709,5.751 -1.709,8.789c-0,3.364 0.57,6.484 1.709,9.359c1.139,2.876 2.713,5.371 4.72,7.487c2.007,2.116 4.34,3.798 6.999,5.046c2.712,1.193 5.588,1.79 8.626,1.79c3.038,0 5.886,-0.597 8.545,-1.79c2.712,-1.248 5.073,-2.93 7.08,-5.046c2.007,-2.116 3.581,-4.611 4.72,-7.487c1.194,-2.875 1.79,-5.995 1.79,-9.359Z" style="fill:#fff;fill-rule:nonzero;stroke:#fff;stroke-width:4.91px;"/><path id="path81649" d="M445.853,1151.89c-0,6.511 -1.167,12.587 -3.5,18.23c-2.333,5.588 -5.506,10.443 -9.521,14.567c-4.015,4.069 -8.735,7.297 -14.16,9.684c-5.371,2.333 -11.149,3.499 -17.334,3.499c-6.131,0 -11.909,-1.166 -17.334,-3.499c-5.371,-2.387 -10.091,-5.615 -14.16,-9.684c-4.015,-4.124 -7.189,-8.979 -9.522,-14.567c-2.333,-5.643 -3.499,-11.719 -3.499,-18.23c-0,-6.618 1.166,-12.749 3.499,-18.391c2.333,-5.643 5.507,-10.498 9.522,-14.567c4.069,-4.124 8.789,-7.352 14.16,-9.685c5.425,-2.333 11.203,-3.499 17.334,-3.499c6.185,-0 11.963,1.112 17.334,3.337c5.425,2.17 10.145,5.289 14.16,9.358c4.015,4.015 7.188,8.871 9.521,14.567c2.333,5.643 3.5,11.936 3.5,18.88Zm-22.38,0c0,-3.58 -0.597,-6.808 -1.79,-9.684c-1.14,-2.929 -2.713,-5.425 -4.72,-7.487c-2.008,-2.116 -4.368,-3.716 -7.08,-4.801c-2.659,-1.139 -5.507,-1.709 -8.545,-1.709c-3.038,-0 -5.914,0.57 -8.627,1.709c-2.658,1.085 -4.991,2.685 -6.998,4.801c-1.953,2.062 -3.5,4.558 -4.639,7.487c-1.139,2.876 -1.709,6.104 -1.709,9.684c0,3.364 0.57,6.484 1.709,9.359c1.139,2.876 2.686,5.371 4.639,7.487c2.007,2.116 4.34,3.798 6.998,5.046c2.713,1.193 5.589,1.79 8.627,1.79c3.038,0 5.886,-0.57 8.545,-1.709c2.712,-1.139 5.072,-2.74 7.08,-4.801c2.007,-2.062 3.58,-4.558 4.72,-7.487c1.193,-2.93 1.79,-6.158 1.79,-9.685Z" style="fill:#fff;fill-rule:nonzero;stroke:#fff;stroke-width:4.91px;"/><path id="path81651" d="M480.358,1196.24l-22.217,-0l0,-87.158l5.371,-0l7.324,10.335c3.581,-3.255 7.65,-5.751 12.207,-7.487c4.558,-1.791 9.278,-2.686 14.161,-2.686l19.612,0l0,22.136l-19.612,-0c-2.333,-0 -4.531,0.434 -6.592,1.302c-2.062,0.868 -3.852,2.061 -5.371,3.58c-1.519,1.52 -2.713,3.31 -3.581,5.372c-0.868,2.061 -1.302,4.258 -1.302,6.591l-0,48.015Z" style="fill:#fff;fill-rule:nonzero;stroke:#fff;stroke-width:4.91px;"/><path id="path81653" d="M549.368,1196.24l-22.217,-0l0,-87.158l5.372,-0l7.324,8.463c3.58,-3.255 7.622,-5.751 12.125,-7.487c4.558,-1.79 9.305,-2.685 14.242,-2.685c5.317,-0 10.335,1.03 15.055,3.092c4.72,2.007 8.844,4.801 12.37,8.382c3.527,3.527 6.293,7.677 8.301,12.451c2.061,4.72 3.092,9.766 3.092,15.137l0,49.805l-22.216,-0l-0,-49.805c-0,-2.279 -0.435,-4.422 -1.303,-6.429c-0.868,-2.062 -2.061,-3.852 -3.58,-5.371c-1.519,-1.519 -3.283,-2.713 -5.29,-3.581c-2.007,-0.868 -4.15,-1.302 -6.429,-1.302c-2.333,0 -4.53,0.434 -6.592,1.302c-2.061,0.868 -3.852,2.062 -5.371,3.581c-1.519,1.519 -2.713,3.309 -3.581,5.371c-0.868,2.007 -1.302,4.15 -1.302,6.429l0,49.805Z" style="fill:#fff;fill-rule:nonzero;stroke:#fff;stroke-width:4.91px;"/><path id="path81655" d="M737.519,1138.38c0,5.534 -0.732,10.878 -2.197,16.032c-1.411,5.1 -3.418,9.902 -6.022,14.405c-2.604,4.448 -5.751,8.517 -9.44,12.207c-3.689,3.689 -7.759,6.863 -12.207,9.521c-4.449,2.604 -9.25,4.612 -14.405,6.022c-5.154,1.465 -10.498,2.197 -16.031,2.197c-5.534,0 -10.878,-0.732 -16.032,-2.197c-5.1,-1.41 -9.902,-3.418 -14.405,-6.022c-4.448,-2.658 -8.517,-5.832 -12.207,-9.521c-3.689,-3.69 -6.863,-7.759 -9.521,-12.207c-2.604,-4.503 -4.639,-9.305 -6.104,-14.405c-1.41,-5.154 -2.116,-10.498 -2.116,-16.032c0,-5.533 0.706,-10.877 2.116,-16.032c1.465,-5.154 3.5,-9.955 6.104,-14.404c2.658,-4.449 5.832,-8.518 9.521,-12.207c3.69,-3.689 7.759,-6.836 12.207,-9.44c4.503,-2.604 9.305,-4.611 14.405,-6.022c5.154,-1.465 10.498,-2.197 16.032,-2.197c5.533,-0 10.877,0.732 16.031,2.197c5.155,1.411 9.956,3.418 14.405,6.022c4.448,2.604 8.518,5.751 12.207,9.44c3.689,3.689 6.836,7.758 9.44,12.207c2.604,4.449 4.611,9.25 6.022,14.404c1.465,5.155 2.197,10.499 2.197,16.032Zm-23.193,0c-0,-5.099 -0.977,-9.901 -2.93,-14.404c-1.953,-4.557 -4.611,-8.491 -7.975,-11.8c-3.31,-3.364 -7.243,-6.022 -11.8,-7.975c-4.503,-1.953 -9.305,-2.93 -14.404,-2.93c-5.155,0 -9.983,0.977 -14.486,2.93c-4.503,1.953 -8.437,4.611 -11.8,7.975c-3.364,3.309 -6.022,7.243 -7.976,11.8c-1.953,4.503 -2.929,9.305 -2.929,14.404c-0,5.1 0.976,9.902 2.929,14.405c1.954,4.448 4.612,8.355 7.976,11.718c3.363,3.364 7.297,6.023 11.8,7.976c4.503,1.953 9.331,2.929 14.486,2.929c5.099,0 9.901,-0.976 14.404,-2.929c4.557,-1.953 8.49,-4.612 11.8,-7.976c3.364,-3.363 6.022,-7.27 7.975,-11.718c1.953,-4.503 2.93,-9.305 2.93,-14.405Z" style="fill:#fff;fill-rule:nonzero;stroke:#fff;stroke-width:4.91px;"/><path id="path81657" d="M745.983,1114.53c-0,-4.829 0.922,-9.359 2.767,-13.59c1.844,-4.232 4.34,-7.921 7.487,-11.068c3.201,-3.201 6.917,-5.724 11.149,-7.569c4.232,-1.844 8.762,-2.766 13.59,-2.766l53.548,-0l0,23.356l-53.548,-0c-1.627,-0 -3.146,0.298 -4.557,0.895c-1.411,0.597 -2.658,1.438 -3.744,2.523c-1.03,1.03 -1.844,2.251 -2.441,3.662c-0.597,1.41 -0.895,2.929 -0.895,4.557c-0,1.628 0.298,3.174 0.895,4.639c0.597,1.41 1.411,2.658 2.441,3.743c1.086,1.031 2.333,1.845 3.744,2.442c1.411,0.596 2.93,0.895 4.557,0.895l23.356,-0c4.829,-0 9.359,0.922 13.591,2.767c4.286,1.79 8.002,4.286 11.149,7.487c3.201,3.146 5.696,6.863 7.487,11.149c1.844,4.231 2.767,8.762 2.767,13.59c-0,4.829 -0.923,9.359 -2.767,13.591c-1.791,4.231 -4.286,7.948 -7.487,11.149c-3.147,3.146 -6.863,5.642 -11.149,7.487c-4.232,1.844 -8.762,2.767 -13.591,2.767l-51.839,-0l0,-23.356l51.839,-0c1.628,-0 3.147,-0.299 4.558,-0.896c1.41,-0.596 2.631,-1.41 3.662,-2.441c1.085,-1.085 1.926,-2.333 2.523,-3.744c0.596,-1.41 0.895,-2.929 0.895,-4.557c-0,-1.627 -0.299,-3.146 -0.895,-4.557c-0.597,-1.411 -1.438,-2.631 -2.523,-3.662c-1.031,-1.085 -2.252,-1.926 -3.662,-2.523c-1.411,-0.597 -2.93,-0.895 -4.558,-0.895l-23.356,-0c-4.828,-0 -9.358,-0.922 -13.59,-2.767c-4.232,-1.845 -7.948,-4.34 -11.149,-7.487c-3.147,-3.201 -5.643,-6.917 -7.487,-11.149c-1.845,-4.286 -2.767,-8.843 -2.767,-13.672Z" style="fill:#fff;fill-rule:nonzero;stroke:#fff;stroke-width:4.91px;"/></g></g></g></svg>