<?xml version="1.0" encoding="UTF-8" standalone="no"?><!DOCTYPE svg PUBLIC "-//W3C//DTD SVG 1.1//EN" "http://www.w3.org/Graphics/SVG/1.1/DTD/svg11.dtd"><svg width="100%" height="100%" viewBox="0 0 907 1352" version="1.1" xmlns="http://www.w3.org/2000/svg" xmlns:xlink="http://www.w3.org/1999/xlink" xml:space="preserve" xmlns:serif="http://www.serif.com/" style="fill-rule:evenodd;clip-rule:evenodd;stroke-linejoin:round;stroke-miterlimit:2;"><rect id="Rocky-Linux" serif:id="Rocky Linux" x="0" y="-0" width="906.667" height="1351.11" style="fill:none;"/><clipPath id="_clip1"><rect x="0" y="-0" width="906.667" height="1351.11"/></clipPath><g clip-path="url(#_clip1)"><g><g id="Frame"><path id="path36023" d="M363.226,8.892l180.223,-0c196.3,-0 354.331,36.928 354.331,82.799l0,1167.73c0,45.871 -158.031,82.8 -354.331,82.8l-180.223,-0c-196.299,-0 -354.331,-36.929 -354.331,-82.8l0,-1167.73c0,-45.871 158.032,-82.799 354.331,-82.799Z" style="fill:#fff;fill-rule:nonzero;"/><path id="path36025" d="M363.234,-0c-98.707,-0 -187.781,9.234 -252.806,24.429c-32.512,7.598 -58.999,16.618 -78.086,27.198c-9.544,5.29 -17.286,10.978 -22.976,17.509c-5.69,6.53 -9.366,14.275 -9.366,22.561l0,1167.72c0,8.285 3.676,16.03 9.366,22.56c5.69,6.531 13.432,12.219 22.976,17.509c19.087,10.581 45.574,19.6 78.086,27.198c65.025,15.195 154.099,24.429 252.806,24.429l180.209,0c98.707,0 187.781,-9.234 252.806,-24.429c32.512,-7.598 58.999,-16.617 78.086,-27.198c9.544,-5.29 17.286,-10.978 22.976,-17.509c5.69,-6.53 9.366,-14.275 9.366,-22.56l-0,-1167.72c-0,-8.286 -3.676,-16.031 -9.366,-22.561c-5.69,-6.531 -13.432,-12.219 -22.976,-17.509c-19.087,-10.58 -45.574,-19.6 -78.086,-27.198c-65.025,-15.195 -154.099,-24.429 -252.806,-24.429l-180.209,-0Zm-0,17.786l180.209,-0c97.593,-0 185.703,9.231 248.769,23.968c31.533,7.368 56.818,16.176 73.496,25.421c8.339,4.622 14.481,9.365 18.201,13.633c3.719,4.269 4.982,7.706 4.982,10.889l0,1167.72c0,3.182 -1.263,6.619 -4.982,10.888c-3.72,4.269 -9.862,9.011 -18.201,13.633c-16.678,9.245 -41.963,18.053 -73.496,25.421c-63.066,14.738 -151.176,23.969 -248.769,23.969l-180.209,-0c-97.593,-0 -185.703,-9.231 -248.769,-23.969c-31.533,-7.368 -56.818,-16.176 -73.496,-25.421c-8.339,-4.622 -14.481,-9.364 -18.201,-13.633c-3.719,-4.269 -4.982,-7.706 -4.982,-10.888l-0,-1167.72c-0,-3.183 1.263,-6.62 4.982,-10.889c3.72,-4.268 9.862,-9.011 18.201,-13.633c16.678,-9.245 41.963,-18.053 73.496,-25.421c63.066,-14.737 151.176,-23.968 248.769,-23.968Z" style="fill-rule:nonzero;"/></g><g id="Bottom"><path id="path35979" d="M371.606,946.173l163.464,0c199.608,0 360.304,38.151 360.304,85.54l-0,218.99c-0,47.389 -160.696,85.54 -360.304,85.54l-163.464,-0c-199.609,-0 -360.304,-38.151 -360.304,-85.54l-0,-218.99c-0,-47.389 160.695,-85.54 360.304,-85.54Z" style="fill-rule:nonzero;"/><path id="path35981" d="M371.607,938.419c-100.298,0 -190.804,9.547 -256.796,25.214c-32.996,7.833 -59.838,17.123 -79.078,27.958c-19.241,10.836 -32.18,23.883 -32.18,40.116l-0,218.988c-0,16.233 12.939,29.303 32.18,40.139c19.24,10.835 46.082,20.125 79.078,27.958c65.992,15.667 156.498,25.214 256.796,25.214l163.463,0c100.298,0 190.804,-9.547 256.796,-25.214c32.996,-7.833 59.838,-17.123 79.078,-27.958c19.241,-10.836 32.18,-23.906 32.18,-40.139l0,-218.988c0,-16.233 -12.939,-29.28 -32.18,-40.116c-19.24,-10.835 -46.082,-20.125 -79.078,-27.958c-65.992,-15.667 -156.498,-25.214 -256.796,-25.214l-163.463,0Zm0,15.525l163.463,-0c99.309,-0 188.962,9.52 253.22,24.775c32.129,7.628 57.914,16.745 75.042,26.39c17.127,9.646 24.291,19.137 24.291,26.598l-0,218.988c-0,7.461 -7.164,16.952 -24.291,26.598c-17.128,9.645 -42.913,18.762 -75.042,26.39c-64.258,15.255 -153.911,24.798 -253.22,24.798l-163.463,0c-99.309,0 -188.962,-9.543 -253.22,-24.798c-32.129,-7.628 -57.914,-16.745 -75.042,-26.39c-17.127,-9.646 -24.291,-19.137 -24.291,-26.598l0,-218.988c0,-7.461 7.164,-16.952 24.291,-26.598c17.128,-9.645 42.913,-18.762 75.042,-26.39c64.258,-15.255 153.911,-24.775 253.22,-24.775Z" style="fill-rule:nonzero;"/></g><g id="Powered-By" serif:id="Powered By"><path id="path12547" d="M59.756,886.701l2.069,0c2.962,0 5.189,-0.588 6.681,-1.763c1.515,-1.176 2.272,-3.086 2.272,-5.732c-0,-2.464 -0.678,-4.284 -2.035,-5.46c-1.334,-1.175 -3.436,-1.763 -6.308,-1.763l-2.679,-0l0,14.718Zm21.671,-7.868c-0,2.171 -0.328,4.251 -0.984,6.24c-0.656,1.99 -1.741,3.742 -3.256,5.257c-1.492,1.515 -3.47,2.724 -5.934,3.629c-2.442,0.904 -5.472,1.356 -9.089,1.356l-2.408,0l0,17.635l-10.513,-0l0,-49.581l13.769,-0c3.188,-0 5.935,0.362 8.241,1.085c2.328,0.701 4.239,1.719 5.731,3.053c1.515,1.311 2.634,2.927 3.357,4.849c0.724,1.899 1.086,4.058 1.086,6.478l-0,-0.001Z" style="fill-rule:nonzero;"/><path id="path12549" d="M98.587,893.925c-0,3.775 0.531,6.624 1.594,8.546c1.062,1.899 2.792,2.848 5.188,2.848c2.374,0 4.093,-0.96 5.155,-2.882c1.063,-1.922 1.594,-4.759 1.594,-8.512c0,-3.776 -0.531,-6.591 -1.594,-8.445c-1.062,-1.876 -2.803,-2.814 -5.223,-2.814c-2.373,-0 -4.092,0.938 -5.154,2.814c-1.04,1.854 -1.56,4.669 -1.56,8.445Zm24.078,-0c0,3.165 -0.407,5.968 -1.221,8.41c-0.791,2.442 -1.944,4.499 -3.459,6.172c-1.492,1.673 -3.323,2.951 -5.494,3.833c-2.148,0.859 -4.567,1.288 -7.257,1.288c-2.51,0 -4.816,-0.429 -6.919,-1.288c-2.102,-0.882 -3.922,-2.16 -5.46,-3.833c-1.514,-1.673 -2.701,-3.73 -3.56,-6.172c-0.86,-2.442 -1.289,-5.245 -1.289,-8.41c-0,-3.143 0.395,-5.935 1.187,-8.377c0.814,-2.442 1.967,-4.488 3.459,-6.138c1.515,-1.673 3.346,-2.939 5.494,-3.798c2.148,-0.86 4.578,-1.289 7.291,-1.289c2.51,-0 4.816,0.429 6.918,1.289c2.103,0.859 3.912,2.125 5.427,3.798c1.537,1.65 2.735,3.696 3.594,6.138c0.859,2.442 1.289,5.234 1.289,8.377Z" style="fill-rule:nonzero;"/><path id="path12551" d="M160.546,912.95l-2.917,-13.26c-0.09,-0.384 -0.214,-0.927 -0.373,-1.628c-0.135,-0.724 -0.293,-1.526 -0.474,-2.408c-0.181,-0.904 -0.373,-1.854 -0.577,-2.848c-0.181,-1.018 -0.373,-2.024 -0.576,-3.019c-0.453,-2.328 -0.95,-4.838 -1.492,-7.528l-0.204,-0c-0.52,2.69 -0.995,5.211 -1.424,7.562c-0.181,0.995 -0.373,2.001 -0.577,3.019c-0.181,1.017 -0.362,1.978 -0.542,2.882c-0.181,0.882 -0.351,1.684 -0.509,2.408c-0.136,0.723 -0.249,1.289 -0.339,1.696l-3.052,13.124l-11.124,-0l-10.208,-37.915l10.276,0l3.832,16.787c0.203,0.882 0.407,1.944 0.61,3.188c0.226,1.221 0.43,2.464 0.611,3.73c0.203,1.244 0.384,2.431 0.542,3.561c0.159,1.108 0.283,1.99 0.373,2.645l0.204,0c0.023,-0.429 0.068,-0.983 0.136,-1.661c0.09,-0.701 0.192,-1.447 0.305,-2.239c0.113,-0.791 0.226,-1.593 0.339,-2.407c0.135,-0.837 0.26,-1.617 0.373,-2.34c0.136,-0.724 0.249,-1.357 0.339,-1.9c0.113,-0.565 0.204,-0.961 0.271,-1.187l4.138,-18.177l11.395,0l3.967,18.177c0.113,0.498 0.26,1.267 0.441,2.307c0.181,1.04 0.362,2.159 0.543,3.357c0.203,1.176 0.373,2.329 0.509,3.459c0.135,1.108 0.214,1.978 0.237,2.611l0.203,0c0.068,-0.565 0.181,-1.401 0.34,-2.509c0.18,-1.108 0.373,-2.295 0.576,-3.561c0.203,-1.289 0.418,-2.566 0.644,-3.832c0.249,-1.266 0.475,-2.34 0.679,-3.222l3.968,-16.787l10.14,0l-10.344,37.915l-11.259,-0Z" style="fill-rule:nonzero;"/><path id="path12553" d="M202.903,881.682c-1.831,0 -3.357,0.644 -4.578,1.933c-1.198,1.289 -1.888,3.312 -2.068,6.071l13.192,-0c-0.023,-1.153 -0.17,-2.216 -0.441,-3.188c-0.272,-0.972 -0.678,-1.809 -1.221,-2.51c-0.543,-0.723 -1.221,-1.289 -2.035,-1.695c-0.814,-0.408 -1.763,-0.611 -2.849,-0.611l0,0Zm1.323,31.946c-2.713,0 -5.211,-0.395 -7.495,-1.187c-2.283,-0.791 -4.25,-1.978 -5.901,-3.561c-1.65,-1.605 -2.939,-3.617 -3.866,-6.036c-0.904,-2.442 -1.356,-5.302 -1.356,-8.58c-0,-3.324 0.418,-6.229 1.255,-8.716c0.836,-2.487 2,-4.555 3.493,-6.206c1.514,-1.673 3.323,-2.928 5.426,-3.764c2.125,-0.837 4.476,-1.255 7.054,-1.255c2.509,-0 4.77,0.384 6.782,1.153c2.035,0.746 3.753,1.854 5.155,3.323c1.424,1.47 2.51,3.278 3.256,5.426c0.768,2.125 1.153,4.567 1.153,7.325l-0,5.02l-23.129,-0c0.045,1.447 0.271,2.758 0.678,3.934c0.43,1.153 1.018,2.136 1.764,2.95c0.768,0.791 1.684,1.402 2.747,1.831c1.085,0.43 2.317,0.645 3.696,0.645c1.153,0 2.239,-0.057 3.256,-0.17c1.04,-0.135 2.046,-0.328 3.018,-0.576c0.972,-0.249 1.933,-0.554 2.883,-0.916c0.949,-0.384 1.922,-0.825 2.916,-1.322l0,8.003c-0.904,0.475 -1.82,0.882 -2.747,1.221c-0.904,0.317 -1.865,0.588 -2.882,0.814c-1.018,0.226 -2.114,0.384 -3.29,0.475c-1.175,0.113 -2.464,0.17 -3.866,0.17l0,-0.001Z" style="fill-rule:nonzero;"/><path id="path12555" d="M247.703,874.323c0.271,-0 0.565,0.012 0.881,0.035c0.34,0 0.656,0.024 0.95,0.071c0.317,0.024 0.599,0.059 0.848,0.106c0.271,0.024 0.475,0.059 0.61,0.107l0,9.699c-0.181,-0.047 -0.429,-0.093 -0.746,-0.136c-0.316,-0.047 -0.656,-0.083 -1.017,-0.106c-0.339,-0.047 -0.679,-0.071 -1.018,-0.071c-0.339,-0.024 -0.621,-0.036 -0.847,-0.036c-1.334,0 -2.567,0.17 -3.697,0.51c-1.108,0.339 -2.069,0.893 -2.883,1.661c-0.791,0.747 -1.413,1.742 -1.865,2.985c-0.429,1.22 -0.644,2.724 -0.644,4.51l-0,19.297l-10.344,-0l0,-37.915l7.834,-0l1.526,5.697l0.509,0c0.543,-0.972 1.13,-1.854 1.763,-2.645c0.633,-0.791 1.334,-1.458 2.103,-2.001c0.791,-0.565 1.673,-0.995 2.645,-1.289c0.995,-0.316 2.125,-0.474 3.392,-0.474l-0,-0.005Z" style="fill-rule:nonzero;"/><path id="path12557" d="M273.409,881.682c-1.831,0 -3.358,0.644 -4.578,1.933c-1.199,1.289 -1.888,3.312 -2.069,6.071l13.192,-0c-0.023,-1.153 -0.17,-2.216 -0.441,-3.188c-0.271,-0.972 -0.678,-1.809 -1.221,-2.51c-0.542,-0.723 -1.221,-1.289 -2.034,-1.695c-0.814,-0.408 -1.764,-0.611 -2.849,-0.611l-0,0Zm1.322,31.946c-2.713,0 -5.211,-0.395 -7.494,-1.187c-2.284,-0.791 -4.251,-1.978 -5.901,-3.561c-1.651,-1.605 -2.939,-3.617 -3.866,-6.036c-0.905,-2.442 -1.357,-5.302 -1.357,-8.58c0,-3.324 0.418,-6.229 1.255,-8.716c0.836,-2.487 2.001,-4.555 3.493,-6.206c1.515,-1.673 3.323,-2.928 5.426,-3.764c2.125,-0.837 4.477,-1.255 7.054,-1.255c2.51,-0 4.77,0.384 6.783,1.153c2.034,0.746 3.753,1.854 5.154,3.323c1.425,1.47 2.51,3.278 3.256,5.426c0.769,2.125 1.153,4.567 1.153,7.325l0,5.02l-23.129,-0c0.045,1.447 0.271,2.758 0.679,3.934c0.429,1.153 1.017,2.136 1.763,2.95c0.769,0.791 1.685,1.402 2.747,1.831c1.085,0.43 2.318,0.645 3.697,0.645c1.153,0 2.238,-0.057 3.255,-0.17c1.04,-0.135 2.046,-0.328 3.019,-0.576c0.972,-0.249 1.933,-0.554 2.882,-0.916c0.95,-0.384 1.922,-0.825 2.917,-1.322l-0,8.003c-0.905,0.475 -1.82,0.882 -2.747,1.221c-0.905,0.317 -1.865,0.588 -2.883,0.814c-1.017,0.226 -2.114,0.384 -3.289,0.475c-1.176,0.113 -2.465,0.17 -3.867,0.17l0,-0.001Z" style="fill-rule:nonzero;"/><path id="path12559" d="M309.594,913.628c-1.944,0 -3.719,-0.418 -5.324,-1.255c-1.605,-0.836 -2.985,-2.068 -4.138,-3.696c-1.153,-1.651 -2.057,-3.697 -2.713,-6.138c-0.633,-2.442 -0.949,-5.268 -0.949,-8.479c-0,-3.255 0.316,-6.104 0.949,-8.546c0.656,-2.464 1.572,-4.521 2.747,-6.172c1.199,-1.673 2.623,-2.928 4.273,-3.764c1.651,-0.837 3.471,-1.255 5.46,-1.255c1.221,-0 2.34,0.147 3.358,0.44c1.017,0.272 1.933,0.668 2.747,1.187c0.814,0.498 1.537,1.086 2.17,1.764c0.656,0.656 1.232,1.379 1.73,2.17l0.339,0c-0.136,-0.881 -0.26,-1.774 -0.373,-2.679c-0.113,-0.768 -0.215,-1.582 -0.305,-2.442c-0.068,-0.881 -0.102,-1.695 -0.102,-2.441l0,-12.141l10.344,-0l-0,52.769l-7.902,-0l-2.001,-4.918l-0.441,0c-0.475,0.769 -1.018,1.504 -1.628,2.205c-0.61,0.678 -1.323,1.265 -2.136,1.763c-0.792,0.498 -1.696,0.893 -2.714,1.187c-0.994,0.294 -2.125,0.441 -3.391,0.441l0,0Zm3.765,-8.241c1.22,0 2.26,-0.203 3.12,-0.61c0.859,-0.43 1.548,-1.063 2.068,-1.899c0.543,-0.859 0.939,-1.922 1.187,-3.188c0.272,-1.266 0.419,-2.747 0.441,-4.443l0,-1.12c0,-1.831 -0.113,-3.459 -0.339,-4.883c-0.226,-1.424 -0.599,-2.611 -1.119,-3.561c-0.52,-0.972 -1.221,-1.707 -2.103,-2.204c-0.881,-0.498 -1.989,-0.747 -3.323,-0.747c-2.171,0 -3.765,0.984 -4.782,2.951c-1.017,1.944 -1.526,4.781 -1.526,8.512c0,3.73 0.509,6.534 1.526,8.41c1.04,1.854 2.657,2.781 4.85,2.781l-0,0.001Z" style="fill-rule:nonzero;"/><path id="path12561" d="M378.913,874.323c1.944,-0 3.719,0.418 5.324,1.255c1.605,0.836 2.984,2.08 4.137,3.73c1.153,1.651 2.046,3.697 2.68,6.138c0.655,2.442 0.983,5.268 0.983,8.479c0,3.255 -0.328,6.115 -0.983,8.58c-0.634,2.441 -1.538,4.488 -2.714,6.138c-1.175,1.65 -2.588,2.894 -4.239,3.73c-1.65,0.837 -3.47,1.255 -5.46,1.255c-1.266,0 -2.396,-0.136 -3.391,-0.407c-0.972,-0.272 -1.843,-0.634 -2.611,-1.086c-0.769,-0.452 -1.447,-0.96 -2.035,-1.526c-0.565,-0.588 -1.085,-1.198 -1.56,-1.831l-0.712,-0l-1.73,4.171l-7.902,0l0,-52.769l10.344,0l-0,12.277c-0,0.746 -0.023,1.56 -0.067,2.442c-0.045,0.859 -0.091,1.661 -0.136,2.408c-0.068,0.881 -0.136,1.763 -0.204,2.645l0.407,-0c0.475,-0.792 1.018,-1.526 1.628,-2.205c0.611,-0.678 1.311,-1.265 2.103,-1.763c0.814,-0.52 1.729,-0.927 2.747,-1.221c1.017,-0.294 2.148,-0.441 3.391,-0.441l-0,0.001Zm-3.493,8.275c-1.153,-0 -2.137,0.215 -2.951,0.645c-0.791,0.407 -1.436,1.028 -1.933,1.865c-0.497,0.836 -0.859,1.899 -1.085,3.188c-0.226,1.266 -0.362,2.747 -0.407,4.442l-0,1.12c-0,1.831 0.102,3.459 0.305,4.883c0.226,1.425 0.588,2.623 1.085,3.595c0.498,0.95 1.153,1.673 1.967,2.171c0.837,0.497 1.865,0.746 3.086,0.746c2.058,0 3.561,-0.972 4.511,-2.916c0.972,-1.967 1.458,-4.816 1.458,-8.547c0,-3.73 -0.486,-6.522 -1.458,-8.376c-0.95,-1.877 -2.476,-2.815 -4.578,-2.815l-0,-0.001Z" style="fill-rule:nonzero;"/><path id="path12563" d="M395.496,875.035l11.327,0l6.104,21.331c0.362,1.176 0.622,2.431 0.78,3.765c0.181,1.334 0.294,2.532 0.339,3.595l0.203,-0c0.047,-0.52 0.104,-1.097 0.17,-1.73c0.091,-0.633 0.192,-1.277 0.305,-1.933c0.113,-0.656 0.238,-1.3 0.373,-1.933c0.158,-0.656 0.317,-1.244 0.475,-1.764l5.969,-21.331l11.395,0l-14.99,42.765c-1.402,4.001 -3.312,6.974 -5.731,8.919c-2.42,1.944 -5.449,2.916 -9.089,2.916c-1.176,0 -2.193,-0.068 -3.052,-0.203c-0.859,-0.113 -1.594,-0.238 -2.205,-0.373l0,-8.207c0.475,0.113 1.074,0.215 1.798,0.305c0.723,0.09 1.481,0.135 2.272,0.135c1.085,0 2.012,-0.146 2.781,-0.44c0.768,-0.294 1.424,-0.712 1.967,-1.255c0.565,-0.52 1.04,-1.153 1.424,-1.899c0.407,-0.747 0.758,-1.583 1.051,-2.51l0.645,-1.899l-14.311,-38.254Z" style="fill-rule:nonzero;"/></g></g><g id="Rocky-Linux1" serif:id="Rocky Linux"><path id="Logo" d="M764.296,593c11.951,-34.226 18.446,-71.011 18.446,-109.315c0,-183.076 -148.413,-331.488 -331.488,-331.488c-183.076,0 -331.488,148.412 -331.488,331.488c0,90.586 36.336,172.688 95.228,232.518l336.252,-336.252l83.017,83.016l130.033,130.033Zm-60.551,105.479l-152.499,-152.495l-238.81,238.81c42.227,19.499 89.252,30.379 138.818,30.379c101.132,0 191.69,-45.289 252.491,-116.694Z" style="fill:#10b981;"/><g id="Rocky-Linux2" serif:id="Rocky Linux"><path id="path98822" d="M40.918,1174.11l0,-98.284l47.877,-0c4.953,-0 9.478,0.747 13.624,2.238c4.204,1.498 7.804,3.6 10.801,6.306c2.988,2.617 5.323,5.79 7.007,9.526c1.683,3.737 2.52,7.844 2.52,12.359c-0,6.169 -1.771,11.677 -5.323,16.543c-3.454,4.855 -8.077,8.456 -13.915,10.801l21.7,40.384l-22.673,0l-19.171,-37.562l-22.187,0l0,37.562l-20.337,0l0.077,0.127Zm46.126,-80.574l-25.788,0l0,26.372l25.788,-0c4.573,-0 8.222,-1.217 10.899,-3.64c2.802,-2.433 4.203,-5.605 4.203,-9.527c0,-3.921 -1.401,-7.103 -4.203,-9.526c-2.706,-2.433 -6.355,-3.64 -10.899,-3.64l-0,-0.039Zm40.092,44.179c-0,-5.323 0.983,-10.315 2.939,-14.888c2.053,-4.671 4.807,-8.69 8.271,-12.067c3.552,-3.454 7.707,-6.169 12.456,-8.125c4.748,-1.956 9.828,-2.939 15.277,-2.939c5.45,0 10.51,0.983 15.278,2.939c4.769,1.956 8.875,4.671 12.359,8.125c3.552,3.367 6.306,7.376 8.271,12.067c2.053,4.573 3.085,9.527 3.085,14.888c-0,5.362 -1.031,10.315 -3.085,14.986c-1.965,4.574 -4.719,8.544 -8.271,11.872c-3.455,3.367 -7.571,6.024 -12.359,7.989c-4.787,1.966 -9.828,2.939 -15.278,2.939c-5.449,0 -10.509,-0.982 -15.277,-2.939c-4.768,-1.956 -8.924,-4.622 -12.456,-7.989c-3.455,-3.367 -6.208,-7.337 -8.271,-11.872c-1.966,-4.671 -2.939,-9.672 -2.939,-14.986Zm38.924,21.117c5.605,-0 10.412,-2.053 14.305,-6.17c3.892,-4.116 5.887,-9.108 5.887,-14.986c0,-5.974 -1.966,-10.996 -5.887,-15.18c-3.922,-4.184 -8.69,-6.17 -14.305,-6.17c-5.615,0 -10.412,2.054 -14.305,6.17c-3.892,4.116 -5.887,9.157 -5.887,15.18c0,5.888 1.966,10.899 5.887,14.986c3.922,4.087 8.69,6.17 14.305,6.17Zm86.996,-0.14c3.27,-0 6.306,-0.654 9.108,-1.966c2.9,-1.304 5.654,-3.367 8.272,-6.17l11.482,11.872c-3.736,4.107 -8.222,7.338 -13.429,9.673c-5.235,2.238 -10.606,3.367 -16.25,3.367c-5.323,0 -10.413,-0.983 -15.181,-2.939c-4.671,-1.965 -8.738,-4.622 -12.164,-7.989c-3.367,-3.367 -6.023,-7.337 -7.989,-11.872c-1.966,-4.671 -2.939,-9.673 -2.939,-14.986c0,-5.313 0.984,-10.315 2.939,-14.888c1.966,-4.671 4.622,-8.69 7.989,-12.067c3.455,-3.454 7.522,-6.169 12.164,-8.125c4.768,-1.966 9.828,-2.939 15.181,-2.939c5.79,-0 11.385,1.168 16.64,3.503c5.323,2.238 9.828,5.42 13.623,9.527l-11.774,12.456c-2.618,-2.9 -5.421,-5.09 -8.408,-6.588c-2.987,-1.499 -6.208,-2.238 -9.673,-2.238c-5.507,-0 -10.217,2.053 -14.013,6.169c-3.736,4.107 -5.605,9.157 -5.605,15.181c0,6.023 1.917,10.996 5.742,14.985c3.921,4.019 8.69,6.024 14.304,6.024l-0.019,0.01Zm38.827,15.375l-0,-98.284l19.17,-4.204l0,60.138l31.529,-30.847l21.7,-0l-34.156,33.474l36.297,39.509l-24.522,-0l-30.848,-33.378l0,33.378l-19.17,-0l-0,0.214Zm101.203,3.367l1.119,-2.667l-28.415,-73.664l21.117,0l18.1,49.726l20.727,-49.726l20.727,0l-33.67,78.725c-3.736,8.777 -8.076,15.083 -13.039,18.781c-4.963,3.697 -11.386,5.605 -19.365,5.605c-1.683,-0 -3.318,-0.095 -4.904,-0.28c-1.499,-0.095 -2.706,-0.28 -3.64,-0.56l0,-16.543c0.935,0.187 1.917,0.326 2.939,0.421c1.022,0.094 2.287,0.14 3.785,0.14c3.455,0 6.355,-0.841 8.69,-2.52c2.433,-1.684 4.34,-4.155 5.742,-7.425l0.087,-0.013Zm91.57,-3.367l-0,-98.284l10.801,-0l0,88.455l58.387,0l-0,9.673l-69.188,0l-0,0.156Zm87.774,-83.688c-1.868,0 -3.503,-0.7 -4.904,-2.102c-1.401,-1.401 -2.102,-3.036 -2.102,-4.904c-0,-1.966 0.701,-3.6 2.102,-4.904c1.401,-1.402 3.036,-2.102 4.904,-2.102c1.966,-0 3.601,0.7 4.905,2.102c1.401,1.304 2.102,2.938 2.102,4.904c-0,1.868 -0.701,3.503 -2.102,4.904c-1.304,1.402 -2.939,2.102 -4.905,2.102Zm5.187,13.429l-0,70.162l-10.412,-0l-0,-70.162l10.412,0Zm17.711,70.162l-0,-70.162l10.412,0l-0,8.272c2.705,-3.173 5.936,-5.557 9.672,-7.143c3.737,-1.683 7.892,-2.52 12.456,-2.52c7.941,-0 14.402,2.52 19.462,7.571c5.061,5.05 7.571,11.58 7.571,19.656l0,44.374l-10.217,0l-0,-42.33c-0,-6.17 -1.771,-11.094 -5.323,-14.694c-3.552,-3.601 -8.311,-5.469 -14.305,-5.469c-4.204,0 -7.989,0.934 -11.385,2.803c-3.27,1.868 -5.936,4.534 -7.99,7.989l0,51.672l-10.412,-0l0.059,-0.019Zm86.217,-70.162l-0,42.331c-0,6.169 1.771,11.093 5.323,14.693c3.552,3.601 8.31,5.469 14.305,5.469c4.203,0 7.94,-0.934 11.19,-2.802c3.367,-1.966 6.073,-4.671 8.126,-8.126l-0,-51.574l10.412,-0l0,70.161l-10.412,-0l-0,-8.126c-2.705,3.173 -5.936,5.557 -9.673,7.143c-3.639,1.586 -7.756,2.384 -12.358,2.384c-8.038,0 -14.597,-2.52 -19.657,-7.571c-5.06,-5.05 -7.571,-11.58 -7.571,-19.657l-0,-44.373l10.218,-0l0.097,0.048Zm58.873,70.162l27.636,-36.2l-26.176,-34.059l12.358,-0l19.852,26.371l19.851,-26.371l11.872,-0l-25.885,33.864l27.734,36.297l-12.359,0l-21.408,-28.609l-21.7,28.609l-11.775,0l0,0.098Z" style="fill:#fff;fill-rule:nonzero;"/><path id="path98824" d="M816.486,1100.15l-0,-15.18l-5.041,-0l0,-2.939l5.041,0l-0,-5.936l3.406,-0.887l-0,6.821l7.055,0l-0,2.939l-7.055,-0l-0,14.305c-0,1.245 0.282,2.15 0.846,2.705c0.555,0.529 1.479,0.794 2.754,0.794c0.652,-0 1.226,-0.046 1.732,-0.14c0.526,-0.094 1.091,-0.249 1.674,-0.467l0,3.036c-0.583,0.218 -1.256,0.374 -2.004,0.467c-0.721,0.093 -1.421,0.14 -2.102,0.14c-2.024,0 -3.581,-0.483 -4.671,-1.45c-1.091,-0.967 -1.635,-2.365 -1.635,-4.204l-0,-0.004Zm14.207,5.236l0,-23.355l3.455,0l-0,2.569c0.866,-0.992 1.878,-1.742 3.036,-2.238c1.149,-0.529 2.423,-0.794 3.824,-0.794c1.625,-0 3.075,0.389 4.35,1.168c1.304,0.747 2.316,1.771 3.036,3.084c0.963,-1.43 2.112,-2.491 3.455,-3.172c1.372,-0.716 2.9,-1.07 4.573,-1.07c2.53,-0 4.584,0.84 6.17,2.52c1.615,1.683 2.433,3.863 2.433,6.539l-0,14.792l-3.416,-0l0,-14.111c0,-2.053 -0.545,-3.688 -1.635,-4.904c-1.09,-1.216 -2.569,-1.82 -4.437,-1.82c-1.275,0 -2.443,0.327 -3.503,0.983c-1.061,0.656 -1.956,1.606 -2.706,2.851c0.065,0.343 0.103,0.701 0.136,1.071c0.065,0.342 0.103,0.716 0.103,1.119l-0,14.791l-3.416,0l-0,-14.11c-0,-2.053 -0.545,-3.688 -1.635,-4.904c-1.09,-1.217 -2.549,-1.82 -4.389,-1.82c-1.245,-0 -2.384,0.296 -3.406,0.887c-1.002,0.561 -1.858,1.402 -2.569,2.521l0,17.418l-3.454,0l-0.005,-0.015Z" style="fill:#fff;fill-rule:nonzero;"/></g></g></g></svg>