<?xml version="1.0" encoding="UTF-8" standalone="no"?><!DOCTYPE svg PUBLIC "-//W3C//DTD SVG 1.1//EN" "http://www.w3.org/Graphics/SVG/1.1/DTD/svg11.dtd"><svg width="100%" height="100%" viewBox="0 0 907 1352" version="1.1" xmlns="http://www.w3.org/2000/svg" xmlns:xlink="http://www.w3.org/1999/xlink" xml:space="preserve" xmlns:serif="http://www.serif.com/" style="fill-rule:evenodd;clip-rule:evenodd;"><rect id="Tuxedo-OS" serif:id="Tuxedo OS" x="-0" y="-0" width="906.667" height="1351.11" style="fill:none;"/><clipPath id="_clip1"><rect x="-0" y="-0" width="906.667" height="1351.11"/></clipPath><g clip-path="url(#_clip1)"><g id="READ-ME" serif:id="READ ME"><g id="Frame"><path id="path3892" d="M363.221,8.889l180.221,-0c196.3,-0 354.333,36.929 354.333,82.8l-0,1167.73c-0,45.871 -158.033,82.8 -354.333,82.8l-180.221,0c-196.3,0 -354.332,-36.929 -354.332,-82.8l-0,-1167.73c-0,-45.871 158.032,-82.8 354.332,-82.8Z" style="fill:#fff;fill-rule:nonzero;"/><path id="path3894" d="M363.229,-0.003c-98.707,0 -187.781,9.235 -252.807,24.43c-32.512,7.597 -58.999,16.617 -78.086,27.197c-9.544,5.291 -17.286,10.978 -22.976,17.509c-5.691,6.531 -9.366,14.275 -9.366,22.561l-0,1167.72c-0,8.286 3.675,16.053 9.366,22.584c5.69,6.531 13.432,12.195 22.976,17.486c19.087,10.58 45.574,19.6 78.086,27.197c65.026,15.195 154.1,24.43 252.807,24.43l180.21,-0c98.708,-0 187.782,-9.235 252.807,-24.43c32.513,-7.597 58.999,-16.617 78.086,-27.197c9.544,-5.291 17.287,-10.955 22.977,-17.486c5.69,-6.531 9.365,-14.298 9.365,-22.584l0,-1167.72c0,-8.286 -3.675,-16.03 -9.365,-22.561c-5.69,-6.531 -13.433,-12.218 -22.977,-17.509c-19.087,-10.58 -45.573,-19.6 -78.086,-27.197c-65.025,-15.195 -154.099,-24.43 -252.807,-24.43l-180.21,0Zm-0,17.786l180.21,0c97.593,0 185.704,9.231 248.77,23.968c31.533,7.369 56.818,16.177 73.496,25.422c8.339,4.622 14.482,9.364 18.201,13.633c3.719,4.269 4.983,7.706 4.983,10.888l-0,1167.72c-0,3.182 -1.264,6.62 -4.983,10.888c-3.719,4.269 -9.862,9.011 -18.201,13.634c-16.678,9.245 -41.963,18.052 -73.496,25.421c-63.066,14.737 -151.177,23.968 -248.77,23.968l-180.21,0c-97.593,0 -185.704,-9.231 -248.77,-23.968c-31.533,-7.369 -56.818,-16.176 -73.496,-25.421c-8.339,-4.623 -14.482,-9.365 -18.201,-13.634c-3.719,-4.268 -4.982,-7.706 -4.982,-10.888l-0,-1167.72c-0,-3.182 1.263,-6.619 4.982,-10.888c3.719,-4.269 9.862,-9.011 18.201,-13.633c16.678,-9.245 41.963,-18.053 73.496,-25.422c63.066,-14.737 151.177,-23.968 248.77,-23.968Z" style="fill-rule:nonzero;"/></g><g id="Bottom"><path id="path4063" d="M371.601,946.174l163.465,0c199.609,0 360.305,38.151 360.305,85.54l-0,218.992c-0,47.389 -160.696,85.54 -360.305,85.54l-163.465,-0c-199.609,-0 -360.305,-38.151 -360.305,-85.54l-0,-218.992c-0,-47.389 160.696,-85.54 360.305,-85.54Z" style="fill-rule:nonzero;"/><path id="path3900" d="M371.603,938.42c-100.299,0 -190.806,9.547 -256.798,25.214c-32.996,7.833 -59.838,17.123 -79.078,27.959c-19.241,10.835 -32.181,23.882 -32.181,40.116l0,218.988c0,16.233 12.94,29.303 32.181,40.139c19.24,10.836 46.082,20.125 79.078,27.959c65.992,15.667 156.499,25.214 256.798,25.214l163.462,-0c100.299,-0 190.806,-9.547 256.798,-25.214c32.996,-7.834 59.838,-17.123 79.078,-27.959c19.241,-10.836 32.181,-23.906 32.181,-40.139l-0,-218.988c-0,-16.234 -12.94,-29.281 -32.181,-40.116c-19.24,-10.836 -46.082,-20.126 -79.078,-27.959c-65.992,-15.667 -156.499,-25.214 -256.798,-25.214l-163.462,0Zm-0,15.525l163.462,0c99.31,0 188.964,9.52 253.222,24.776c32.129,7.627 57.914,16.744 75.042,26.39c17.127,9.645 24.291,19.136 24.291,26.598l-0,218.988c-0,7.461 -7.164,16.952 -24.291,26.598c-17.128,9.646 -42.913,18.762 -75.042,26.39c-64.258,15.256 -153.912,24.799 -253.222,24.799l-163.462,-0c-99.31,-0 -188.964,-9.543 -253.222,-24.799c-32.129,-7.628 -57.914,-16.744 -75.042,-26.39c-17.127,-9.646 -24.291,-19.137 -24.291,-26.598l0,-218.988c0,-7.462 7.164,-16.953 24.291,-26.598c17.128,-9.646 42.913,-18.763 75.042,-26.39c64.258,-15.256 153.912,-24.776 253.222,-24.776Z" style="fill-rule:nonzero;"/></g><g id="Powered-By" serif:id="Powered By"><path id="path12547" d="M59.75,886.702l2.069,0c2.962,0 5.189,-0.588 6.681,-1.763c1.515,-1.176 2.272,-3.087 2.272,-5.732c-0,-2.464 -0.678,-4.284 -2.035,-5.46c-1.334,-1.176 -3.436,-1.763 -6.308,-1.763l-2.679,-0l0,14.718Zm21.671,-7.868c-0,2.171 -0.328,4.251 -0.984,6.24c-0.655,1.99 -1.741,3.742 -3.255,5.257c-1.493,1.515 -3.471,2.724 -5.935,3.628c-2.442,0.905 -5.472,1.357 -9.089,1.357l-2.408,-0l0,17.635l-10.513,-0l0,-49.581l13.769,-0c3.188,-0 5.935,0.362 8.241,1.085c2.328,0.701 4.239,1.718 5.731,3.052c1.515,1.312 2.634,2.928 3.358,4.85c0.723,1.899 1.085,4.058 1.085,6.477l-0,0Z" style="fill-rule:nonzero;"/><path id="path12549" d="M98.581,893.926c-0,3.775 0.531,6.624 1.594,8.546c1.062,1.899 2.792,2.848 5.189,2.848c2.373,0 4.092,-0.96 5.154,-2.882c1.063,-1.922 1.594,-4.759 1.594,-8.512c0,-3.776 -0.531,-6.591 -1.594,-8.445c-1.062,-1.876 -2.803,-2.815 -5.222,-2.815c-2.374,0 -4.093,0.939 -5.155,2.815c-1.04,1.854 -1.56,4.669 -1.56,8.445Zm24.078,-0c0,3.165 -0.407,5.968 -1.221,8.41c-0.791,2.442 -1.944,4.499 -3.459,6.172c-1.492,1.673 -3.323,2.951 -5.494,3.832c-2.148,0.86 -4.567,1.289 -7.257,1.289c-2.51,0 -4.816,-0.429 -6.918,-1.289c-2.103,-0.881 -3.923,-2.159 -5.46,-3.832c-1.515,-1.673 -2.702,-3.73 -3.561,-6.172c-0.859,-2.442 -1.289,-5.245 -1.289,-8.41c-0,-3.143 0.396,-5.935 1.187,-8.377c0.814,-2.442 1.967,-4.488 3.459,-6.138c1.515,-1.673 3.346,-2.939 5.494,-3.799c2.148,-0.859 4.578,-1.288 7.291,-1.288c2.51,-0 4.816,0.429 6.919,1.288c2.102,0.86 3.911,2.126 5.426,3.799c1.537,1.65 2.735,3.696 3.595,6.138c0.859,2.442 1.288,5.234 1.288,8.377Z" style="fill-rule:nonzero;"/><path id="path12551" d="M160.54,912.951l-2.916,-13.26c-0.091,-0.384 -0.215,-0.927 -0.373,-1.628c-0.136,-0.724 -0.294,-1.526 -0.475,-2.408c-0.181,-0.904 -0.373,-1.854 -0.576,-2.849c-0.181,-1.017 -0.373,-2.023 -0.577,-3.018c-0.452,-2.329 -0.95,-4.838 -1.492,-7.529l-0.204,0c-0.52,2.691 -0.994,5.212 -1.424,7.563c-0.181,0.995 -0.373,2.001 -0.576,3.018c-0.181,1.018 -0.362,1.979 -0.543,2.883c-0.181,0.882 -0.35,1.684 -0.509,2.408c-0.135,0.723 -0.248,1.289 -0.339,1.695l-3.052,13.125l-11.124,-0l-10.208,-37.915l10.276,-0l3.832,16.787c0.204,0.882 0.407,1.944 0.611,3.188c0.226,1.221 0.429,2.464 0.61,3.73c0.204,1.244 0.384,2.431 0.543,3.561c0.158,1.108 0.282,1.99 0.373,2.645l0.203,0c0.023,-0.43 0.068,-0.983 0.136,-1.661c0.09,-0.701 0.192,-1.447 0.305,-2.239c0.113,-0.791 0.226,-1.594 0.339,-2.408c0.136,-0.836 0.26,-1.616 0.373,-2.34c0.136,-0.723 0.249,-1.356 0.339,-1.899c0.113,-0.565 0.204,-0.961 0.272,-1.187l4.137,-18.177l11.395,-0l3.968,18.177c0.113,0.498 0.26,1.267 0.441,2.306c0.181,1.04 0.361,2.16 0.542,3.358c0.204,1.176 0.373,2.329 0.509,3.459c0.136,1.108 0.215,1.978 0.237,2.611l0.204,0c0.068,-0.565 0.181,-1.402 0.339,-2.509c0.181,-1.108 0.373,-2.295 0.576,-3.561c0.204,-1.289 0.419,-2.566 0.645,-3.832c0.249,-1.266 0.475,-2.34 0.678,-3.222l3.968,-16.787l10.14,-0l-10.343,37.915l-11.26,-0Z" style="fill-rule:nonzero;"/><path id="path12553" d="M202.898,881.683c-1.831,-0 -3.357,0.644 -4.578,1.933c-1.198,1.289 -1.888,3.312 -2.069,6.07l13.192,0c-0.023,-1.153 -0.169,-2.215 -0.441,-3.187c-0.271,-0.973 -0.678,-1.809 -1.22,-2.51c-0.543,-0.724 -1.221,-1.289 -2.035,-1.696c-0.814,-0.407 -1.764,-0.61 -2.849,-0.61l0,-0Zm1.323,31.946c-2.713,0 -5.212,-0.395 -7.495,-1.187c-2.284,-0.791 -4.251,-1.978 -5.901,-3.561c-1.65,-1.605 -2.939,-3.617 -3.866,-6.036c-0.905,-2.442 -1.357,-5.302 -1.357,-8.58c0,-3.324 0.419,-6.229 1.255,-8.716c0.837,-2.487 2.001,-4.556 3.493,-6.206c1.515,-1.673 3.324,-2.928 5.426,-3.765c2.126,-0.836 4.477,-1.254 7.054,-1.254c2.51,-0 4.771,0.384 6.783,1.152c2.035,0.747 3.753,1.855 5.155,3.324c1.424,1.47 2.509,3.278 3.255,5.426c0.769,2.125 1.153,4.567 1.153,7.325l0,5.019l-23.128,0c0.044,1.447 0.271,2.759 0.678,3.934c0.429,1.153 1.017,2.137 1.763,2.951c0.769,0.791 1.685,1.402 2.747,1.831c1.086,0.43 2.318,0.645 3.697,0.645c1.153,-0 2.238,-0.057 3.256,-0.17c1.04,-0.136 2.046,-0.328 3.018,-0.576c0.972,-0.249 1.933,-0.554 2.882,-0.916c0.95,-0.384 1.922,-0.825 2.917,-1.322l-0,8.003c-0.904,0.475 -1.82,0.882 -2.747,1.221c-0.904,0.317 -1.865,0.588 -2.883,0.814c-1.017,0.226 -2.114,0.384 -3.289,0.475c-1.176,0.113 -2.465,0.17 -3.866,0.17l-0,-0.001Z" style="fill-rule:nonzero;"/><path id="path12555" d="M247.698,874.324c0.271,-0 0.565,0.011 0.881,0.035c0.339,0 0.656,0.024 0.95,0.071c0.316,0.024 0.599,0.059 0.848,0.106c0.271,0.024 0.474,0.059 0.61,0.107l-0,9.699c-0.181,-0.047 -0.43,-0.093 -0.746,-0.136c-0.317,-0.047 -0.656,-0.083 -1.018,-0.106c-0.339,-0.048 -0.678,-0.071 -1.017,-0.071c-0.339,-0.024 -0.622,-0.036 -0.848,-0.036c-1.334,0 -2.566,0.17 -3.696,0.509c-1.108,0.34 -2.069,0.894 -2.883,1.662c-0.791,0.747 -1.413,1.741 -1.865,2.984c-0.43,1.221 -0.645,2.725 -0.645,4.511l0,19.297l-10.343,-0l-0,-37.915l7.834,-0l1.526,5.697l0.509,0c0.542,-0.972 1.13,-1.854 1.763,-2.645c0.633,-0.791 1.334,-1.458 2.103,-2.001c0.791,-0.565 1.673,-0.995 2.645,-1.289c0.995,-0.316 2.125,-0.475 3.391,-0.475l0.001,-0.004Z" style="fill-rule:nonzero;"/><path id="path12557" d="M273.404,881.683c-1.832,-0 -3.358,0.644 -4.579,1.933c-1.198,1.289 -1.887,3.312 -2.068,6.07l13.192,0c-0.023,-1.153 -0.17,-2.215 -0.441,-3.187c-0.271,-0.973 -0.678,-1.809 -1.221,-2.51c-0.542,-0.724 -1.221,-1.289 -2.035,-1.696c-0.813,-0.407 -1.763,-0.61 -2.848,-0.61l-0,-0Zm1.322,31.946c-2.713,0 -5.211,-0.395 -7.494,-1.187c-2.284,-0.791 -4.251,-1.978 -5.901,-3.561c-1.651,-1.605 -2.94,-3.617 -3.866,-6.036c-0.905,-2.442 -1.357,-5.302 -1.357,-8.58c-0,-3.324 0.418,-6.229 1.255,-8.716c0.836,-2.487 2.001,-4.556 3.493,-6.206c1.515,-1.673 3.323,-2.928 5.426,-3.765c2.125,-0.836 4.477,-1.254 7.054,-1.254c2.51,-0 4.77,0.384 6.783,1.152c2.034,0.747 3.753,1.855 5.154,3.324c1.425,1.47 2.51,3.278 3.256,5.426c0.769,2.125 1.153,4.567 1.153,7.325l0,5.019l-23.129,0c0.045,1.447 0.271,2.759 0.679,3.934c0.429,1.153 1.017,2.137 1.763,2.951c0.769,0.791 1.684,1.402 2.747,1.831c1.085,0.43 2.317,0.645 3.697,0.645c1.153,-0 2.238,-0.057 3.255,-0.17c1.04,-0.136 2.046,-0.328 3.018,-0.576c0.973,-0.249 1.934,-0.554 2.883,-0.916c0.95,-0.384 1.922,-0.825 2.917,-1.322l-0,8.003c-0.905,0.475 -1.82,0.882 -2.747,1.221c-0.905,0.317 -1.866,0.588 -2.883,0.814c-1.017,0.226 -2.114,0.384 -3.29,0.475c-1.175,0.113 -2.464,0.17 -3.866,0.17l0,-0.001Z" style="fill-rule:nonzero;"/><path id="path12559" d="M309.589,913.629c-1.944,0 -3.719,-0.418 -5.324,-1.255c-1.605,-0.836 -2.985,-2.068 -4.138,-3.696c-1.153,-1.651 -2.057,-3.697 -2.713,-6.138c-0.633,-2.442 -0.949,-5.268 -0.949,-8.479c-0,-3.255 0.316,-6.104 0.949,-8.546c0.656,-2.464 1.572,-4.522 2.747,-6.172c1.199,-1.673 2.623,-2.928 4.273,-3.765c1.651,-0.836 3.471,-1.254 5.46,-1.254c1.221,-0 2.34,0.146 3.358,0.44c1.017,0.272 1.933,0.668 2.747,1.187c0.814,0.498 1.537,1.086 2.17,1.764c0.656,0.656 1.232,1.379 1.73,2.17l0.339,0c-0.136,-0.882 -0.26,-1.775 -0.373,-2.679c-0.113,-0.769 -0.215,-1.582 -0.305,-2.442c-0.068,-0.882 -0.102,-1.695 -0.102,-2.442l0,-12.141l10.344,0l-0,52.77l-7.902,-0l-2.001,-4.918l-0.441,0c-0.475,0.769 -1.017,1.503 -1.628,2.205c-0.61,0.677 -1.323,1.265 -2.136,1.763c-0.792,0.498 -1.696,0.893 -2.713,1.187c-0.995,0.294 -2.126,0.44 -3.392,0.44l0,0.001Zm3.765,-8.241c1.22,0 2.26,-0.203 3.12,-0.61c0.859,-0.43 1.548,-1.063 2.068,-1.899c0.543,-0.86 0.939,-1.922 1.187,-3.188c0.272,-1.266 0.419,-2.747 0.441,-4.443l0,-1.12c0,-1.831 -0.113,-3.459 -0.339,-4.883c-0.226,-1.425 -0.599,-2.612 -1.119,-3.561c-0.52,-0.972 -1.221,-1.707 -2.103,-2.204c-0.881,-0.498 -1.989,-0.747 -3.323,-0.747c-2.171,0 -3.764,0.984 -4.782,2.951c-1.017,1.944 -1.526,4.781 -1.526,8.512c0,3.73 0.509,6.534 1.526,8.41c1.04,1.854 2.657,2.781 4.85,2.781l-0,0.001Z" style="fill-rule:nonzero;"/><path id="path12561" d="M378.908,874.324c1.944,-0 3.719,0.418 5.324,1.254c1.606,0.837 2.985,2.08 4.138,3.731c1.153,1.65 2.046,3.697 2.679,6.138c0.656,2.442 0.983,5.268 0.983,8.479c0,3.255 -0.327,6.115 -0.983,8.58c-0.633,2.441 -1.538,4.487 -2.713,6.138c-1.176,1.65 -2.589,2.894 -4.239,3.73c-1.651,0.837 -3.471,1.255 -5.46,1.255c-1.266,0 -2.397,-0.136 -3.392,-0.407c-0.972,-0.272 -1.842,-0.634 -2.611,-1.086c-0.769,-0.452 -1.447,-0.96 -2.035,-1.526c-0.565,-0.588 -1.085,-1.198 -1.56,-1.831l-0.712,-0l-1.73,4.171l-7.901,0l-0,-52.769l10.343,0l0,12.277c0,0.746 -0.022,1.56 -0.067,2.442c-0.045,0.859 -0.09,1.661 -0.136,2.407c-0.068,0.882 -0.135,1.764 -0.203,2.646l0.407,-0c0.474,-0.792 1.017,-1.526 1.627,-2.205c0.611,-0.678 1.312,-1.266 2.103,-1.763c0.814,-0.52 1.73,-0.927 2.747,-1.221c1.017,-0.294 2.148,-0.441 3.391,-0.441l-0,0.001Zm-3.493,8.275c-1.153,-0 -2.137,0.215 -2.951,0.644c-0.791,0.408 -1.435,1.029 -1.933,1.866c-0.497,0.836 -0.859,1.899 -1.085,3.188c-0.226,1.266 -0.362,2.746 -0.407,4.442l0,1.12c0,1.831 0.102,3.459 0.305,4.883c0.226,1.425 0.588,2.623 1.086,3.595c0.497,0.95 1.153,1.673 1.967,2.171c0.836,0.497 1.865,0.746 3.086,0.746c2.057,-0 3.561,-0.972 4.51,-2.917c0.972,-1.967 1.458,-4.815 1.458,-8.546c0,-3.73 -0.486,-6.522 -1.458,-8.376c-0.949,-1.877 -2.476,-2.815 -4.578,-2.815l-0,-0.001Z" style="fill-rule:nonzero;"/><path id="path12563" d="M395.492,875.036l11.327,-0l6.104,21.331c0.361,1.176 0.621,2.431 0.779,3.765c0.182,1.334 0.295,2.532 0.339,3.594l0.204,0c0.047,-0.519 0.104,-1.096 0.17,-1.729c0.09,-0.633 0.192,-1.278 0.304,-1.933c0.114,-0.656 0.238,-1.3 0.374,-1.933c0.158,-0.656 0.316,-1.244 0.474,-1.764l5.969,-21.331l11.395,-0l-14.99,42.764c-1.401,4.002 -3.312,6.975 -5.731,8.92c-2.419,1.944 -5.449,2.916 -9.089,2.916c-1.175,0 -2.193,-0.068 -3.052,-0.203c-0.859,-0.113 -1.594,-0.238 -2.204,-0.373l-0,-8.207c0.475,0.113 1.074,0.215 1.797,0.305c0.724,0.09 1.481,0.135 2.272,0.135c1.086,0 2.013,-0.146 2.781,-0.44c0.769,-0.294 1.425,-0.712 1.967,-1.255c0.565,-0.52 1.04,-1.153 1.425,-1.899c0.407,-0.747 0.757,-1.583 1.051,-2.51l0.645,-1.899l-14.311,-38.254Z" style="fill-rule:nonzero;"/></g></g><g id="Tuxedo-OS1" serif:id="Tuxedo OS"><path id="Logo" d="M452.931,146.875c-106.815,0.085 -207.291,51.654 -269.633,138.388c160.66,-0.313 221.372,-0.722 423.773,-0.722l-116.949,178.179l87.385,141.499l-66.693,0l-55.83,-93.532l-82.408,120.981l375.981,-0.896c24.094,-46.873 36.698,-98.812 36.768,-151.515c-0.002,-182.34 -150.046,-332.382 -332.386,-332.382c-0.003,0 -0.005,0 -0.008,0l-0,0Zm-45.204,178.876c-88.711,0.087 -137.41,0.833 -249.788,0.822c-24.491,47.17 -37.314,99.534 -37.39,152.684c-0,0.003 -0,0.005 -0,0.008c-0,182.34 150.042,332.384 332.382,332.386c107.199,-0.078 207.994,-52.011 270.28,-139.259c-161.234,0.834 -222.384,1.594 -425.017,1.594l136.67,-194.317l-77.182,-126.63l66.494,0l45.329,77.829l66.332,-104.829c-53.02,-0.254 -93.657,-0.321 -128.11,-0.286l-0,-0.002Z" style="fill:#141414;fill-rule:nonzero;"/><g id="Tuxedo-OS2" serif:id="Tuxedo OS"><path id="path7" d="M96.531,1190.84l-5.85,0l0,-101.7l-35.1,0l0,-5.4l76.2,0l0,5.4l-35.25,0l0,101.7Zm129,-37.8c0,12.9 -3.6,22.7 -10.8,29.4c-7.2,6.6 -16.9,9.9 -29.1,9.9c-12.5,0 -22.2,-3.4 -29.1,-10.2c-6.8,-6.8 -10.2,-16.6 -10.2,-29.4l0,-69l5.85,0l0,68.85c0,11.3 2.9,19.85 8.7,25.65c5.9,5.8 14.25,8.7 25.05,8.7c10.5,0 18.75,-2.8 24.75,-8.4c6.1,-5.6 9.15,-13.8 9.15,-24.6l0,-70.2l5.7,0l0,69.3Zm93,37.8l-6.75,0l-32.7,-51.3l-33.15,51.3l-6.6,0l36.15,-55.5l-32.7,-51.6l6.75,0l29.85,47.25l29.85,-47.25l6.6,0l-33,51.45l35.7,55.65Zm73.35,0l-58.2,0l0,-107.1l58.2,0l0,5.4l-52.35,0l0,42.6l49.35,0l0,5.4l-49.35,0l0,48.3l52.35,0l0,5.4Zm104.55,-54.6c0,18 -4.65,31.6 -13.95,40.8c-9.3,9.2 -23.2,13.8 -41.7,13.8l-24.45,0l0,-107.1l27.9,0c17.3,0 30.3,4.5 39,13.5c8.8,8.9 13.2,21.9 13.2,39Zm-6,0.15c0,-15.5 -3.85,-27.25 -11.55,-35.25c-7.7,-8 -19.8,-12 -36.3,-12l-20.4,0l0,96.3l18.6,0c33.1,0 49.65,-16.35 49.65,-49.05Zm120,0.75c0,10.8 -1.75,20.35 -5.25,28.65c-3.5,8.3 -8.8,14.8 -15.9,19.5c-7,4.7 -15.8,7.05 -26.4,7.05c-10.5,0 -19.3,-2.35 -26.4,-7.05c-7,-4.7 -12.25,-11.2 -15.75,-19.5c-3.5,-8.3 -5.25,-17.9 -5.25,-28.8c0,-10.8 1.8,-20.3 5.4,-28.5c3.7,-8.3 9.15,-14.75 16.35,-19.35c7.2,-4.7 16,-7.05 26.4,-7.05c15,0 26.55,4.9 34.65,14.7c8.1,9.7 12.15,23.15 12.15,40.35Zm-88.95,-0.15c0,9.8 1.5,18.45 4.5,25.95c3,7.5 7.55,13.4 13.65,17.7c6.2,4.2 14,6.3 23.4,6.3c9.4,0 17.15,-2.1 23.25,-6.3c6.1,-4.2 10.6,-10 13.5,-17.4c3,-7.5 4.5,-16.2 4.5,-26.1c0,-15.7 -3.5,-27.9 -10.5,-36.6c-6.9,-8.7 -16.95,-13.05 -30.15,-13.05c-9.5,0 -17.35,2.1 -23.55,6.3c-6.2,4.2 -10.85,10.05 -13.95,17.55c-3.1,7.4 -4.65,15.95 -4.65,25.65Z" style="fill:#fefeff;fill-rule:nonzero;stroke:#fff;stroke-width:4.91px;"/><path id="path11" d="M767.631,1137.14c0,8.3 -1.05,15.85 -3.15,22.65c-2,6.7 -5.1,12.5 -9.3,17.4c-4.1,4.9 -9.3,8.65 -15.6,11.25c-6.2,2.6 -13.45,3.9 -21.75,3.9c-8.5,0 -15.9,-1.3 -22.2,-3.9c-6.2,-2.7 -11.4,-6.45 -15.6,-11.25c-4.1,-4.9 -7.15,-10.75 -9.15,-17.55c-2,-6.8 -3,-14.35 -3,-22.65c0,-11 1.8,-20.6 5.4,-28.8c3.6,-8.2 9.1,-14.6 16.5,-19.2c7.5,-4.6 16.9,-6.9 28.2,-6.9c11,0 20.15,2.3 27.45,6.9c7.4,4.5 12.95,10.9 16.65,19.2c3.7,8.2 5.55,17.85 5.55,28.95Zm-82.65,0c0,8.6 1.15,16 3.45,22.2c2.3,6.1 5.9,10.85 10.8,14.25c4.9,3.3 11.1,4.95 18.6,4.95c7.6,0 13.8,-1.65 18.6,-4.95c4.8,-3.4 8.35,-8.15 10.65,-14.25c2.3,-6.2 3.45,-13.6 3.45,-22.2c0,-12.9 -2.6,-22.95 -7.8,-30.15c-5.1,-7.3 -13.35,-10.95 -24.75,-10.95c-7.6,0 -13.85,1.65 -18.75,4.95c-4.9,3.3 -8.5,8 -10.8,14.1c-2.3,6.1 -3.45,13.45 -3.45,22.05Zm167.4,24.75c0,6.4 -1.55,11.85 -4.65,16.35c-3.1,4.5 -7.55,8 -13.35,10.5c-5.8,2.4 -12.7,3.6 -20.7,3.6c-3.9,0 -7.65,-0.25 -11.25,-0.75c-3.6,-0.4 -6.95,-1 -10.05,-1.8c-3.1,-0.8 -5.85,-1.8 -8.25,-3l0,-15.3c4,1.8 8.7,3.45 14.1,4.95c5.4,1.4 10.9,2.1 16.5,2.1c4.8,0 8.8,-0.65 12,-1.95c3.2,-1.3 5.6,-3.1 7.2,-5.4c1.6,-2.3 2.4,-5 2.4,-8.1c0,-3.3 -0.85,-6.05 -2.55,-8.25c-1.6,-2.3 -4.15,-4.4 -7.65,-6.3c-3.4,-2 -8,-4.1 -13.8,-6.3c-4,-1.5 -7.65,-3.15 -10.95,-4.95c-3.2,-1.9 -6.05,-4.1 -8.55,-6.6c-2.4,-2.5 -4.25,-5.4 -5.55,-8.7c-1.3,-3.3 -1.95,-7.15 -1.95,-11.55c0,-5.9 1.45,-10.95 4.35,-15.15c3,-4.2 7.1,-7.4 12.3,-9.6c5.2,-2.3 11.25,-3.45 18.15,-3.45c5.8,0 11.15,0.6 16.05,1.8c5,1.1 9.75,2.65 14.25,4.65l-5.1,13.35c-4.1,-1.7 -8.25,-3.1 -12.45,-4.2c-4.2,-1.1 -8.6,-1.65 -13.2,-1.65c-4,0 -7.35,0.6 -10.05,1.8c-2.7,1.2 -4.75,2.85 -6.15,4.95c-1.3,2.1 -1.95,4.55 -1.95,7.35c0,3.3 0.75,6.05 2.25,8.25c1.5,2.2 3.9,4.25 7.2,6.15c3.3,1.8 7.65,3.8 13.05,6c6,2.3 11.1,4.8 15.3,7.5c4.3,2.7 7.55,5.95 9.75,9.75c2.2,3.7 3.3,8.35 3.3,13.95Z" style="fill:#fefeff;fill-rule:nonzero;stroke:#fff;stroke-width:4.91px;"/></g></g></g></svg>