<?xml version="1.0" encoding="UTF-8" standalone="no"?><!DOCTYPE svg PUBLIC "-//W3C//DTD SVG 1.1//EN" "http://www.w3.org/Graphics/SVG/1.1/DTD/svg11.dtd"><svg width="100%" height="100%" viewBox="0 0 907 1352" version="1.1" xmlns="http://www.w3.org/2000/svg" xmlns:xlink="http://www.w3.org/1999/xlink" xml:space="preserve" xmlns:serif="http://www.serif.com/" style="fill-rule:evenodd;clip-rule:evenodd;stroke-linejoin:round;stroke-miterlimit:2;"><rect id="Ubuntu-Budgie" serif:id="Ubuntu Budgie" x="0" y="-0" width="906.667" height="1351.11" style="fill:none;"/><clipPath id="_clip1"><rect x="0" y="-0" width="906.667" height="1351.11"/></clipPath><g clip-path="url(#_clip1)"><g><g id="Frame"><path id="path36023" d="M363.226,8.892l180.223,-0c196.3,-0 354.331,36.928 354.331,82.799l0,1167.73c0,45.871 -158.031,82.8 -354.331,82.8l-180.223,-0c-196.299,-0 -354.331,-36.929 -354.331,-82.8l0,-1167.73c0,-45.871 158.032,-82.799 354.331,-82.799Z" style="fill:#fff;fill-rule:nonzero;"/><path id="path36025" d="M363.234,-0c-98.707,-0 -187.781,9.234 -252.806,24.429c-32.512,7.598 -58.999,16.618 -78.086,27.198c-9.544,5.29 -17.286,10.978 -22.976,17.509c-5.69,6.53 -9.366,14.275 -9.366,22.561l0,1167.72c0,8.285 3.676,16.03 9.366,22.56c5.69,6.531 13.432,12.219 22.976,17.509c19.087,10.581 45.574,19.6 78.086,27.198c65.025,15.195 154.099,24.429 252.806,24.429l180.209,0c98.707,0 187.781,-9.234 252.806,-24.429c32.512,-7.598 58.999,-16.617 78.086,-27.198c9.544,-5.29 17.286,-10.978 22.976,-17.509c5.69,-6.53 9.366,-14.275 9.366,-22.56l-0,-1167.72c-0,-8.286 -3.676,-16.031 -9.366,-22.561c-5.69,-6.531 -13.432,-12.219 -22.976,-17.509c-19.087,-10.58 -45.574,-19.6 -78.086,-27.198c-65.025,-15.195 -154.099,-24.429 -252.806,-24.429l-180.209,-0Zm-0,17.786l180.209,-0c97.593,-0 185.703,9.231 248.769,23.968c31.533,7.368 56.818,16.176 73.496,25.421c8.339,4.622 14.481,9.365 18.201,13.633c3.719,4.269 4.982,7.706 4.982,10.889l0,1167.72c0,3.182 -1.263,6.619 -4.982,10.888c-3.72,4.269 -9.862,9.011 -18.201,13.633c-16.678,9.245 -41.963,18.053 -73.496,25.421c-63.066,14.738 -151.176,23.969 -248.769,23.969l-180.209,-0c-97.593,-0 -185.703,-9.231 -248.769,-23.969c-31.533,-7.368 -56.818,-16.176 -73.496,-25.421c-8.339,-4.622 -14.481,-9.364 -18.201,-13.633c-3.719,-4.269 -4.982,-7.706 -4.982,-10.888l-0,-1167.72c-0,-3.183 1.263,-6.62 4.982,-10.889c3.72,-4.268 9.862,-9.011 18.201,-13.633c16.678,-9.245 41.963,-18.053 73.496,-25.421c63.066,-14.737 151.176,-23.968 248.769,-23.968Z" style="fill-rule:nonzero;"/></g><g id="Bottom"><path id="path35979" d="M371.606,946.173l163.464,0c199.608,0 360.304,38.151 360.304,85.54l-0,218.99c-0,47.389 -160.696,85.54 -360.304,85.54l-163.464,-0c-199.609,-0 -360.304,-38.151 -360.304,-85.54l-0,-218.99c-0,-47.389 160.695,-85.54 360.304,-85.54Z" style="fill-rule:nonzero;"/><path id="path35981" d="M371.607,938.419c-100.298,0 -190.804,9.547 -256.796,25.214c-32.996,7.833 -59.838,17.123 -79.078,27.958c-19.241,10.836 -32.18,23.883 -32.18,40.116l-0,218.988c-0,16.233 12.939,29.303 32.18,40.139c19.24,10.835 46.082,20.125 79.078,27.958c65.992,15.667 156.498,25.214 256.796,25.214l163.463,0c100.298,0 190.804,-9.547 256.796,-25.214c32.996,-7.833 59.838,-17.123 79.078,-27.958c19.241,-10.836 32.18,-23.906 32.18,-40.139l0,-218.988c0,-16.233 -12.939,-29.28 -32.18,-40.116c-19.24,-10.835 -46.082,-20.125 -79.078,-27.958c-65.992,-15.667 -156.498,-25.214 -256.796,-25.214l-163.463,0Zm0,15.525l163.463,-0c99.309,-0 188.962,9.52 253.22,24.775c32.129,7.628 57.914,16.745 75.042,26.39c17.127,9.646 24.291,19.137 24.291,26.598l-0,218.988c-0,7.461 -7.164,16.952 -24.291,26.598c-17.128,9.645 -42.913,18.762 -75.042,26.39c-64.258,15.255 -153.911,24.798 -253.22,24.798l-163.463,0c-99.309,0 -188.962,-9.543 -253.22,-24.798c-32.129,-7.628 -57.914,-16.745 -75.042,-26.39c-17.127,-9.646 -24.291,-19.137 -24.291,-26.598l0,-218.988c0,-7.461 7.164,-16.952 24.291,-26.598c17.128,-9.645 42.913,-18.762 75.042,-26.39c64.258,-15.255 153.911,-24.775 253.22,-24.775Z" style="fill-rule:nonzero;"/></g><g id="Powered-By" serif:id="Powered By"><path id="path12547" d="M59.756,886.701l2.069,0c2.962,0 5.189,-0.588 6.681,-1.763c1.515,-1.176 2.272,-3.086 2.272,-5.732c-0,-2.464 -0.678,-4.284 -2.035,-5.46c-1.334,-1.175 -3.436,-1.763 -6.308,-1.763l-2.679,-0l0,14.718Zm21.671,-7.868c-0,2.171 -0.328,4.251 -0.984,6.24c-0.656,1.99 -1.741,3.742 -3.256,5.257c-1.492,1.515 -3.47,2.724 -5.934,3.629c-2.442,0.904 -5.472,1.356 -9.089,1.356l-2.408,0l0,17.635l-10.513,-0l0,-49.581l13.769,-0c3.188,-0 5.935,0.362 8.241,1.085c2.328,0.701 4.239,1.719 5.731,3.053c1.515,1.311 2.634,2.927 3.357,4.849c0.724,1.899 1.086,4.058 1.086,6.478l-0,-0.001Z" style="fill-rule:nonzero;"/><path id="path12549" d="M98.587,893.925c-0,3.775 0.531,6.624 1.594,8.546c1.062,1.899 2.792,2.848 5.188,2.848c2.374,0 4.093,-0.96 5.155,-2.882c1.063,-1.922 1.594,-4.759 1.594,-8.512c0,-3.776 -0.531,-6.591 -1.594,-8.445c-1.062,-1.876 -2.803,-2.814 -5.223,-2.814c-2.373,-0 -4.092,0.938 -5.154,2.814c-1.04,1.854 -1.56,4.669 -1.56,8.445Zm24.078,-0c0,3.165 -0.407,5.968 -1.221,8.41c-0.791,2.442 -1.944,4.499 -3.459,6.172c-1.492,1.673 -3.323,2.951 -5.494,3.833c-2.148,0.859 -4.567,1.288 -7.257,1.288c-2.51,0 -4.816,-0.429 -6.919,-1.288c-2.102,-0.882 -3.922,-2.16 -5.46,-3.833c-1.514,-1.673 -2.701,-3.73 -3.56,-6.172c-0.86,-2.442 -1.289,-5.245 -1.289,-8.41c-0,-3.143 0.395,-5.935 1.187,-8.377c0.814,-2.442 1.967,-4.488 3.459,-6.138c1.515,-1.673 3.346,-2.939 5.494,-3.798c2.148,-0.86 4.578,-1.289 7.291,-1.289c2.51,-0 4.816,0.429 6.918,1.289c2.103,0.859 3.912,2.125 5.427,3.798c1.537,1.65 2.735,3.696 3.594,6.138c0.859,2.442 1.289,5.234 1.289,8.377Z" style="fill-rule:nonzero;"/><path id="path12551" d="M160.546,912.95l-2.917,-13.26c-0.09,-0.384 -0.214,-0.927 -0.373,-1.628c-0.135,-0.724 -0.293,-1.526 -0.474,-2.408c-0.181,-0.904 -0.373,-1.854 -0.577,-2.848c-0.181,-1.018 -0.373,-2.024 -0.576,-3.019c-0.453,-2.328 -0.95,-4.838 -1.492,-7.528l-0.204,-0c-0.52,2.69 -0.995,5.211 -1.424,7.562c-0.181,0.995 -0.373,2.001 -0.577,3.019c-0.181,1.017 -0.362,1.978 -0.542,2.882c-0.181,0.882 -0.351,1.684 -0.509,2.408c-0.136,0.723 -0.249,1.289 -0.339,1.696l-3.052,13.124l-11.124,-0l-10.208,-37.915l10.276,0l3.832,16.787c0.203,0.882 0.407,1.944 0.61,3.188c0.226,1.221 0.43,2.464 0.611,3.73c0.203,1.244 0.384,2.431 0.542,3.561c0.159,1.108 0.283,1.99 0.373,2.645l0.204,0c0.023,-0.429 0.068,-0.983 0.136,-1.661c0.09,-0.701 0.192,-1.447 0.305,-2.239c0.113,-0.791 0.226,-1.593 0.339,-2.407c0.135,-0.837 0.26,-1.617 0.373,-2.34c0.136,-0.724 0.249,-1.357 0.339,-1.9c0.113,-0.565 0.204,-0.961 0.271,-1.187l4.138,-18.177l11.395,0l3.967,18.177c0.113,0.498 0.26,1.267 0.441,2.307c0.181,1.04 0.362,2.159 0.543,3.357c0.203,1.176 0.373,2.329 0.509,3.459c0.135,1.108 0.214,1.978 0.237,2.611l0.203,0c0.068,-0.565 0.181,-1.401 0.34,-2.509c0.18,-1.108 0.373,-2.295 0.576,-3.561c0.203,-1.289 0.418,-2.566 0.644,-3.832c0.249,-1.266 0.475,-2.34 0.679,-3.222l3.968,-16.787l10.14,0l-10.344,37.915l-11.259,-0Z" style="fill-rule:nonzero;"/><path id="path12553" d="M202.903,881.682c-1.831,0 -3.357,0.644 -4.578,1.933c-1.198,1.289 -1.888,3.312 -2.068,6.071l13.192,-0c-0.023,-1.153 -0.17,-2.216 -0.441,-3.188c-0.272,-0.972 -0.678,-1.809 -1.221,-2.51c-0.543,-0.723 -1.221,-1.289 -2.035,-1.695c-0.814,-0.408 -1.763,-0.611 -2.849,-0.611l0,0Zm1.323,31.946c-2.713,0 -5.211,-0.395 -7.495,-1.187c-2.283,-0.791 -4.25,-1.978 -5.901,-3.561c-1.65,-1.605 -2.939,-3.617 -3.866,-6.036c-0.904,-2.442 -1.356,-5.302 -1.356,-8.58c-0,-3.324 0.418,-6.229 1.255,-8.716c0.836,-2.487 2,-4.555 3.493,-6.206c1.514,-1.673 3.323,-2.928 5.426,-3.764c2.125,-0.837 4.476,-1.255 7.054,-1.255c2.509,-0 4.77,0.384 6.782,1.153c2.035,0.746 3.753,1.854 5.155,3.323c1.424,1.47 2.51,3.278 3.256,5.426c0.768,2.125 1.153,4.567 1.153,7.325l-0,5.02l-23.129,-0c0.045,1.447 0.271,2.758 0.678,3.934c0.43,1.153 1.018,2.136 1.764,2.95c0.768,0.791 1.684,1.402 2.747,1.831c1.085,0.43 2.317,0.645 3.696,0.645c1.153,0 2.239,-0.057 3.256,-0.17c1.04,-0.135 2.046,-0.328 3.018,-0.576c0.972,-0.249 1.933,-0.554 2.883,-0.916c0.949,-0.384 1.922,-0.825 2.916,-1.322l0,8.003c-0.904,0.475 -1.82,0.882 -2.747,1.221c-0.904,0.317 -1.865,0.588 -2.882,0.814c-1.018,0.226 -2.114,0.384 -3.29,0.475c-1.175,0.113 -2.464,0.17 -3.866,0.17l0,-0.001Z" style="fill-rule:nonzero;"/><path id="path12555" d="M247.703,874.323c0.271,-0 0.565,0.012 0.881,0.035c0.34,0 0.656,0.024 0.95,0.071c0.317,0.024 0.599,0.059 0.848,0.106c0.271,0.024 0.475,0.059 0.61,0.107l0,9.699c-0.181,-0.047 -0.429,-0.093 -0.746,-0.136c-0.316,-0.047 -0.656,-0.083 -1.017,-0.106c-0.339,-0.047 -0.679,-0.071 -1.018,-0.071c-0.339,-0.024 -0.621,-0.036 -0.847,-0.036c-1.334,0 -2.567,0.17 -3.697,0.51c-1.108,0.339 -2.069,0.893 -2.883,1.661c-0.791,0.747 -1.413,1.742 -1.865,2.985c-0.429,1.22 -0.644,2.724 -0.644,4.51l-0,19.297l-10.344,-0l0,-37.915l7.834,-0l1.526,5.697l0.509,0c0.543,-0.972 1.13,-1.854 1.763,-2.645c0.633,-0.791 1.334,-1.458 2.103,-2.001c0.791,-0.565 1.673,-0.995 2.645,-1.289c0.995,-0.316 2.125,-0.474 3.392,-0.474l-0,-0.005Z" style="fill-rule:nonzero;"/><path id="path12557" d="M273.409,881.682c-1.831,0 -3.358,0.644 -4.578,1.933c-1.199,1.289 -1.888,3.312 -2.069,6.071l13.192,-0c-0.023,-1.153 -0.17,-2.216 -0.441,-3.188c-0.271,-0.972 -0.678,-1.809 -1.221,-2.51c-0.542,-0.723 -1.221,-1.289 -2.034,-1.695c-0.814,-0.408 -1.764,-0.611 -2.849,-0.611l-0,0Zm1.322,31.946c-2.713,0 -5.211,-0.395 -7.494,-1.187c-2.284,-0.791 -4.251,-1.978 -5.901,-3.561c-1.651,-1.605 -2.939,-3.617 -3.866,-6.036c-0.905,-2.442 -1.357,-5.302 -1.357,-8.58c0,-3.324 0.418,-6.229 1.255,-8.716c0.836,-2.487 2.001,-4.555 3.493,-6.206c1.515,-1.673 3.323,-2.928 5.426,-3.764c2.125,-0.837 4.477,-1.255 7.054,-1.255c2.51,-0 4.77,0.384 6.783,1.153c2.034,0.746 3.753,1.854 5.154,3.323c1.425,1.47 2.51,3.278 3.256,5.426c0.769,2.125 1.153,4.567 1.153,7.325l0,5.02l-23.129,-0c0.045,1.447 0.271,2.758 0.679,3.934c0.429,1.153 1.017,2.136 1.763,2.95c0.769,0.791 1.685,1.402 2.747,1.831c1.085,0.43 2.318,0.645 3.697,0.645c1.153,0 2.238,-0.057 3.255,-0.17c1.04,-0.135 2.046,-0.328 3.019,-0.576c0.972,-0.249 1.933,-0.554 2.882,-0.916c0.95,-0.384 1.922,-0.825 2.917,-1.322l-0,8.003c-0.905,0.475 -1.82,0.882 -2.747,1.221c-0.905,0.317 -1.865,0.588 -2.883,0.814c-1.017,0.226 -2.114,0.384 -3.289,0.475c-1.176,0.113 -2.465,0.17 -3.867,0.17l0,-0.001Z" style="fill-rule:nonzero;"/><path id="path12559" d="M309.594,913.628c-1.944,0 -3.719,-0.418 -5.324,-1.255c-1.605,-0.836 -2.985,-2.068 -4.138,-3.696c-1.153,-1.651 -2.057,-3.697 -2.713,-6.138c-0.633,-2.442 -0.949,-5.268 -0.949,-8.479c-0,-3.255 0.316,-6.104 0.949,-8.546c0.656,-2.464 1.572,-4.521 2.747,-6.172c1.199,-1.673 2.623,-2.928 4.273,-3.764c1.651,-0.837 3.471,-1.255 5.46,-1.255c1.221,-0 2.34,0.147 3.358,0.44c1.017,0.272 1.933,0.668 2.747,1.187c0.814,0.498 1.537,1.086 2.17,1.764c0.656,0.656 1.232,1.379 1.73,2.17l0.339,0c-0.136,-0.881 -0.26,-1.774 -0.373,-2.679c-0.113,-0.768 -0.215,-1.582 -0.305,-2.442c-0.068,-0.881 -0.102,-1.695 -0.102,-2.441l0,-12.141l10.344,-0l-0,52.769l-7.902,-0l-2.001,-4.918l-0.441,0c-0.475,0.769 -1.018,1.504 -1.628,2.205c-0.61,0.678 -1.323,1.265 -2.136,1.763c-0.792,0.498 -1.696,0.893 -2.714,1.187c-0.994,0.294 -2.125,0.441 -3.391,0.441l0,0Zm3.765,-8.241c1.22,0 2.26,-0.203 3.12,-0.61c0.859,-0.43 1.548,-1.063 2.068,-1.899c0.543,-0.859 0.939,-1.922 1.187,-3.188c0.272,-1.266 0.419,-2.747 0.441,-4.443l0,-1.12c0,-1.831 -0.113,-3.459 -0.339,-4.883c-0.226,-1.424 -0.599,-2.611 -1.119,-3.561c-0.52,-0.972 -1.221,-1.707 -2.103,-2.204c-0.881,-0.498 -1.989,-0.747 -3.323,-0.747c-2.171,0 -3.765,0.984 -4.782,2.951c-1.017,1.944 -1.526,4.781 -1.526,8.512c0,3.73 0.509,6.534 1.526,8.41c1.04,1.854 2.657,2.781 4.85,2.781l-0,0.001Z" style="fill-rule:nonzero;"/><path id="path12561" d="M378.913,874.323c1.944,-0 3.719,0.418 5.324,1.255c1.605,0.836 2.984,2.08 4.137,3.73c1.153,1.651 2.046,3.697 2.68,6.138c0.655,2.442 0.983,5.268 0.983,8.479c0,3.255 -0.328,6.115 -0.983,8.58c-0.634,2.441 -1.538,4.488 -2.714,6.138c-1.175,1.65 -2.588,2.894 -4.239,3.73c-1.65,0.837 -3.47,1.255 -5.46,1.255c-1.266,0 -2.396,-0.136 -3.391,-0.407c-0.972,-0.272 -1.843,-0.634 -2.611,-1.086c-0.769,-0.452 -1.447,-0.96 -2.035,-1.526c-0.565,-0.588 -1.085,-1.198 -1.56,-1.831l-0.712,-0l-1.73,4.171l-7.902,0l0,-52.769l10.344,0l-0,12.277c-0,0.746 -0.023,1.56 -0.067,2.442c-0.045,0.859 -0.091,1.661 -0.136,2.408c-0.068,0.881 -0.136,1.763 -0.204,2.645l0.407,-0c0.475,-0.792 1.018,-1.526 1.628,-2.205c0.611,-0.678 1.311,-1.265 2.103,-1.763c0.814,-0.52 1.729,-0.927 2.747,-1.221c1.017,-0.294 2.148,-0.441 3.391,-0.441l-0,0.001Zm-3.493,8.275c-1.153,-0 -2.137,0.215 -2.951,0.645c-0.791,0.407 -1.436,1.028 -1.933,1.865c-0.497,0.836 -0.859,1.899 -1.085,3.188c-0.226,1.266 -0.362,2.747 -0.407,4.442l-0,1.12c-0,1.831 0.102,3.459 0.305,4.883c0.226,1.425 0.588,2.623 1.085,3.595c0.498,0.95 1.153,1.673 1.967,2.171c0.837,0.497 1.865,0.746 3.086,0.746c2.058,0 3.561,-0.972 4.511,-2.916c0.972,-1.967 1.458,-4.816 1.458,-8.547c0,-3.73 -0.486,-6.522 -1.458,-8.376c-0.95,-1.877 -2.476,-2.815 -4.578,-2.815l-0,-0.001Z" style="fill-rule:nonzero;"/><path id="path12563" d="M395.496,875.035l11.327,0l6.104,21.331c0.362,1.176 0.622,2.431 0.78,3.765c0.181,1.334 0.294,2.532 0.339,3.595l0.203,-0c0.047,-0.52 0.104,-1.097 0.17,-1.73c0.091,-0.633 0.192,-1.277 0.305,-1.933c0.113,-0.656 0.238,-1.3 0.373,-1.933c0.158,-0.656 0.317,-1.244 0.475,-1.764l5.969,-21.331l11.395,0l-14.99,42.765c-1.402,4.001 -3.312,6.974 -5.731,8.919c-2.42,1.944 -5.449,2.916 -9.089,2.916c-1.176,0 -2.193,-0.068 -3.052,-0.203c-0.859,-0.113 -1.594,-0.238 -2.205,-0.373l0,-8.207c0.475,0.113 1.074,0.215 1.798,0.305c0.723,0.09 1.481,0.135 2.272,0.135c1.085,0 2.012,-0.146 2.781,-0.44c0.768,-0.294 1.424,-0.712 1.967,-1.255c0.565,-0.52 1.04,-1.153 1.424,-1.899c0.407,-0.747 0.758,-1.583 1.051,-2.51l0.645,-1.899l-14.311,-38.254Z" style="fill-rule:nonzero;"/></g></g><g id="Ubuntu-Budgie1" serif:id="Ubuntu Budgie"><g id="Logo"><circle id="circle33465" cx="450.742" cy="481.697" r="327.794" style="fill:#404552;"/><path id="budgie" d="M563.422,538.037c-44.959,-0 -82.756,31.939 -94.753,74.266c-2.533,8.934 -4.276,11.995 -7.683,17.926c-4.394,7.647 -13.313,18.691 -25.609,25.609c-10.004,5.627 -18.624,10.416 -31.507,8.475c-3.353,-0.505 -9.294,-1.439 -15.24,-4.859c-9.475,-5.455 -12.599,-10.244 -19.846,-24.098c1.034,14.786 -0.872,20.18 6.402,46.096c14.479,51.586 70.12,92.192 135.727,92.192c48.634,-0 93.708,-20.27 119.071,-51.213c9.276,-11.317 16.261,-20.246 23.048,-35.852c6.175,-14.2 7.689,-32.403 7.693,-48.662c0.02,-55.203 -43.568,-99.875 -97.314,-99.875l0.011,-0.005Z" style="fill:#fff;fill-rule:nonzero;"/><path id="use33468" d="M345.606,551.113c22.48,-38.936 13.717,-87.638 -16.94,-119.192c-6.471,-6.661 -8.251,-9.7 -11.683,-15.617c-4.426,-7.628 -9.531,-20.875 -9.374,-34.982c0.128,-11.477 0.292,-21.337 8.413,-31.524c2.115,-2.651 5.894,-7.33 11.829,-10.768c9.462,-5.479 15.171,-5.79 30.793,-5.139c-13.323,-6.497 -17.041,-10.845 -43.122,-17.504c-51.915,-13.253 -114.901,14.63 -147.705,71.448c-24.317,42.119 -29.299,91.289 -15.183,128.726c5.162,13.692 9.403,24.206 19.525,37.887c9.21,12.447 24.218,22.859 38.296,30.993c47.798,27.618 108.279,12.206 135.152,-34.34l-0.001,0.012Z" style="fill:#fff;fill-rule:nonzero;"/><path id="use33470" d="M443.197,355.939c22.479,38.936 69.038,55.699 111.693,44.926c9.004,-2.274 12.526,-2.295 19.366,-2.31c8.819,-0.018 22.844,2.184 34.982,9.374c9.876,5.849 18.333,10.921 23.094,23.048c1.239,3.156 3.401,8.769 3.411,15.628c0.014,10.933 -2.571,16.033 -10.946,29.237c12.288,-8.289 17.913,-9.335 36.719,-28.593c37.436,-38.333 44.782,-106.822 11.978,-163.64c-24.317,-42.118 -64.408,-71.019 -103.888,-77.513c-14.438,-2.375 -25.664,-3.959 -42.573,-2.034c-15.385,1.752 -31.906,9.543 -45.989,17.669c-47.817,27.584 -64.711,87.669 -37.838,134.214l-0.009,-0.006Z" style="fill:#fff;fill-rule:nonzero;"/></g><g id="ubuntu-Budgie" serif:id="ubuntu Budgie"><path id="path4139" d="M101.624,1168.63c-2.352,0.588 -5.477,1.213 -9.373,1.874c-3.823,0.662 -8.271,0.993 -13.344,0.993c-4.411,-0 -8.123,-0.625 -11.138,-1.875c-3.014,-1.323 -5.44,-3.161 -7.278,-5.514c-1.838,-2.352 -3.161,-5.109 -3.97,-8.27c-0.808,-3.235 -1.213,-6.801 -1.213,-10.697l0,-32.201l10.256,0l-0,29.995c-0,6.984 1.103,11.984 3.308,14.998c2.206,3.014 5.918,4.521 11.138,4.521c1.103,0 2.242,-0.037 3.419,-0.11c1.176,-0.074 2.279,-0.147 3.308,-0.221c1.029,-0.147 1.948,-0.257 2.757,-0.331c0.882,-0.147 1.507,-0.294 1.874,-0.441l0,-48.411l10.256,0l0,55.69Z" style="fill:#fff;fill-rule:nonzero;"/><path id="path4141" d="M129.548,1115.47c1.25,-0.809 3.124,-1.655 5.624,-2.537c2.573,-0.882 5.514,-1.323 8.822,-1.323c4.117,-0 7.756,0.735 10.917,2.205c3.235,1.471 5.955,3.529 8.161,6.176c2.205,2.647 3.859,5.808 4.962,9.484c1.177,3.675 1.765,7.719 1.765,12.13c-0,4.632 -0.699,8.822 -2.096,12.571c-1.323,3.676 -3.234,6.801 -5.734,9.374c-2.5,2.573 -5.514,4.558 -9.043,5.955c-3.528,1.397 -7.498,2.095 -11.909,2.095c-4.779,-0 -9.006,-0.331 -12.682,-0.993c-3.676,-0.661 -6.69,-1.323 -9.043,-1.984l0,-82.156l10.256,-1.764l0,30.767Zm0,45.874c1.029,0.294 2.463,0.588 4.301,0.883c1.911,0.22 4.264,0.33 7.057,0.33c5.514,0 9.925,-1.801 13.233,-5.403c3.309,-3.676 4.963,-8.859 4.963,-15.549c-0,-2.941 -0.294,-5.698 -0.882,-8.271c-0.588,-2.573 -1.544,-4.778 -2.867,-6.616c-1.324,-1.912 -3.051,-3.382 -5.183,-4.411c-2.059,-1.103 -4.558,-1.654 -7.499,-1.654c-2.794,-0 -5.367,0.477 -7.719,1.433c-2.353,0.956 -4.154,1.948 -5.404,2.978l0,36.28Z" style="fill:#fff;fill-rule:nonzero;"/><path id="path4143" d="M229.992,1168.63c-2.353,0.588 -5.477,1.213 -9.373,1.874c-3.823,0.662 -8.271,0.993 -13.344,0.993c-4.411,-0 -8.123,-0.625 -11.138,-1.875c-3.014,-1.323 -5.44,-3.161 -7.278,-5.514c-1.838,-2.352 -3.161,-5.109 -3.97,-8.27c-0.808,-3.235 -1.213,-6.801 -1.213,-10.697l0,-32.201l10.256,0l-0,29.995c-0,6.984 1.103,11.984 3.308,14.998c2.206,3.014 5.918,4.521 11.138,4.521c1.103,0 2.242,-0.037 3.418,-0.11c1.177,-0.074 2.28,-0.147 3.309,-0.221c1.029,-0.147 1.948,-0.257 2.757,-0.331c0.882,-0.147 1.507,-0.294 1.874,-0.441l0,-48.411l10.256,0l-0,55.69Z" style="fill:#fff;fill-rule:nonzero;"/><path id="path4145" d="M247.66,1114.59c2.353,-0.588 5.477,-1.213 9.374,-1.874c3.896,-0.662 8.381,-0.993 13.453,-0.993c4.558,0 8.344,0.662 11.359,1.985c3.014,1.25 5.403,3.051 7.168,5.404c1.838,2.279 3.124,5.036 3.859,8.27c0.735,3.235 1.103,6.801 1.103,10.697l0,32.201l-10.256,-0l0,-29.995c0,-3.529 -0.257,-6.543 -0.772,-9.043c-0.441,-2.5 -1.213,-4.521 -2.315,-6.065c-1.103,-1.544 -2.573,-2.647 -4.411,-3.308c-1.838,-0.736 -4.117,-1.103 -6.837,-1.103c-1.103,-0 -2.243,0.037 -3.419,0.11c-1.176,0.074 -2.316,0.184 -3.419,0.331c-1.029,0.073 -1.985,0.184 -2.867,0.331c-0.808,0.147 -1.397,0.257 -1.764,0.331l-0,48.411l-10.256,-0l0,-55.69Z" style="fill:#fff;fill-rule:nonzero;"/><path id="path4147" d="M320.577,1112.94l21.724,0l-0,8.602l-21.724,-0l-0,26.466c-0,2.867 0.22,5.256 0.661,7.168c0.441,1.838 1.103,3.308 1.985,4.411c0.882,1.029 1.985,1.764 3.308,2.205c1.324,0.442 2.868,0.662 4.632,0.662c3.088,0 5.551,-0.331 7.389,-0.992c1.911,-0.736 3.234,-1.25 3.969,-1.544l1.985,8.491c-1.029,0.515 -2.83,1.139 -5.403,1.875c-2.573,0.808 -5.514,1.213 -8.822,1.213c-3.897,-0 -7.131,-0.478 -9.704,-1.434c-2.5,-1.029 -4.522,-2.536 -6.066,-4.521c-1.543,-1.985 -2.646,-4.411 -3.308,-7.278c-0.588,-2.941 -0.882,-6.323 -0.882,-10.146l-0,-51.168l10.256,-1.764l-0,17.754Z" style="fill:#fff;fill-rule:nonzero;"/><path id="path4149" d="M401.006,1168.63c-2.353,0.588 -5.478,1.213 -9.374,1.874c-3.823,0.662 -8.271,0.993 -13.343,0.993c-4.411,-0 -8.124,-0.625 -11.138,-1.875c-3.014,-1.323 -5.44,-3.161 -7.278,-5.514c-1.838,-2.352 -3.162,-5.109 -3.97,-8.27c-0.809,-3.235 -1.213,-6.801 -1.213,-10.697l-0,-32.201l10.255,0l0,29.995c0,6.984 1.103,11.984 3.309,14.998c2.205,3.014 5.918,4.521 11.137,4.521c1.103,0 2.243,-0.037 3.419,-0.11c1.176,-0.074 2.279,-0.147 3.308,-0.221c1.03,-0.147 1.948,-0.257 2.757,-0.331c0.882,-0.147 1.507,-0.294 1.875,-0.441l-0,-48.411l10.256,0l-0,55.69Z" style="fill:#fff;fill-rule:nonzero;"/><path id="path4151" d="M500.42,1148.69c-0,7.466 -2.567,12.94 -7.7,16.422c-5.133,3.447 -12.259,5.17 -21.377,5.17l-27.999,-0l-0,-74.523l26.33,0c9.549,0 16.387,1.4 20.515,4.2c4.128,2.764 6.193,7.162 6.193,13.192c-0,4.631 -1.131,8.382 -3.393,11.254c-2.225,2.872 -5.725,4.792 -10.5,5.762c6.246,0.861 10.787,2.836 13.623,5.923c2.872,3.087 4.308,7.287 4.308,12.6Zm-19.384,-32.2c-0,-2.836 -1.041,-4.792 -3.123,-5.869c-2.083,-1.113 -5.313,-1.669 -9.693,-1.669l-9.692,-0l0,15.992l9.262,-0c4.487,-0 7.807,-0.629 9.961,-1.885c2.19,-1.256 3.285,-3.446 3.285,-6.569Zm3.876,30.853c0,-3.338 -1.13,-5.689 -3.392,-7.053c-2.261,-1.4 -6.497,-2.1 -12.707,-2.1l-10.285,-0l0,18.63l7.7,0c5.923,0 9.997,-0.287 12.223,-0.861c2.261,-0.575 3.895,-1.544 4.9,-2.908c1.041,-1.364 1.561,-3.267 1.561,-5.708Z" style="fill:#fff;fill-rule:nonzero;"/><path id="path4153" d="M549.043,1170.28l-0,-7.27c-2.441,2.621 -5.439,4.775 -8.993,6.462c-3.518,1.651 -6.91,2.477 -10.177,2.477c-6.389,-0 -10.858,-1.759 -13.407,-5.277c-2.549,-3.554 -3.823,-8.597 -3.823,-15.131l-0,-37.745l13.892,-0l0,31.122c0,3.985 0.233,7.036 0.7,9.154c0.467,2.118 1.221,3.59 2.262,4.415c1.076,0.79 2.638,1.185 4.684,1.185c4.128,0 9.082,-2.71 14.862,-8.131l-0,-37.745l13.892,-0l-0,56.484l-13.892,-0Z" style="fill:#fff;fill-rule:nonzero;"/><path id="path4155" d="M615.649,1170.28l0,-5.493c-2.584,2.19 -5.312,3.931 -8.184,5.223c-2.872,1.293 -6.138,1.939 -9.8,1.939c-7.108,-0 -12.546,-2.567 -16.315,-7.7c-3.769,-5.133 -5.654,-12.385 -5.654,-21.754c0,-9.584 2.064,-17.033 6.192,-22.346c4.164,-5.312 9.998,-7.969 17.5,-7.969c2.657,0 5.385,0.557 8.185,1.669c2.8,1.077 5.115,2.459 6.946,4.147l-0,-27.892l13.892,-0l-0,80.176l-12.762,-0Zm-1.13,-40.815c-1.472,-1.328 -3.303,-2.495 -5.492,-3.5c-2.154,-1.041 -4.362,-1.562 -6.624,-1.562c-3.733,0 -6.73,1.616 -8.992,4.846c-2.261,3.195 -3.392,7.539 -3.392,13.031c0,5.42 0.915,9.674 2.746,12.761c1.867,3.087 4.739,4.631 8.615,4.631c2.298,0 4.631,-0.52 7,-1.561c2.405,-1.077 4.452,-2.388 6.139,-3.931l-0,-24.715Z" style="fill:#fff;fill-rule:nonzero;"/><path id="path4157" d="M693.887,1169.2c0,7.538 -2.315,13.138 -6.946,16.8c-4.631,3.697 -12.061,5.546 -22.292,5.546c-8.436,-0 -15.813,-1.616 -22.131,-4.846l4.093,-11.362c5.851,2.728 11.864,4.092 18.038,4.092c5.744,0 9.728,-0.825 11.954,-2.477c2.261,-1.651 3.392,-4.433 3.392,-8.346l-0,-4.63c-4.595,4.2 -10.141,6.3 -16.638,6.3c-6.893,-0 -12.313,-2.477 -16.262,-7.431c-3.948,-4.954 -5.923,-12.079 -5.923,-21.377c0,-5.815 0.916,-10.93 2.746,-15.346c1.867,-4.451 4.577,-7.879 8.131,-10.284c3.59,-2.441 7.915,-3.662 12.977,-3.662c2.979,0 5.959,0.664 8.938,1.993c2.98,1.292 5.475,2.943 7.485,4.953l1.831,-5.33l10.607,-0l0,55.407Zm-13.892,-39.738c-3.805,-3.375 -7.951,-5.062 -12.438,-5.062c-3.375,0 -6.229,1.544 -8.562,4.631c-2.333,3.087 -3.5,7.161 -3.5,12.223c0,5.743 1.023,9.979 3.069,12.707c2.082,2.729 4.775,4.093 8.077,4.093c4.595,-0 9.046,-1.849 13.354,-5.546l-0,-23.046Z" style="fill:#fff;fill-rule:nonzero;"/><path id="path4159" d="M724.202,1098.4c0,2.62 -0.646,4.451 -1.938,5.492c-1.293,1.041 -3.267,1.562 -5.923,1.562c-2.944,-0 -4.954,-0.611 -6.031,-1.831c-1.041,-1.221 -1.562,-2.962 -1.562,-5.223c0,-2.513 0.575,-4.308 1.724,-5.385c1.148,-1.113 3.105,-1.669 5.869,-1.669c2.8,0 4.81,0.538 6.03,1.615c1.221,1.041 1.831,2.854 1.831,5.439Zm-14.7,71.884l0,-56.484l13.893,-0l-0,56.484l-13.893,-0Z" style="fill:#fff;fill-rule:nonzero;"/><path id="path4161" d="M750.479,1145.67c0.251,5.026 1.472,8.633 3.661,10.823c2.19,2.19 5.636,3.285 10.339,3.285c2.728,-0 5.115,-0.341 7.161,-1.023c2.082,-0.682 3.895,-1.993 5.439,-3.931l10.338,7.377c-2.262,3.266 -5.205,5.707 -8.831,7.323c-3.589,1.615 -8.507,2.423 -14.753,2.423c-9.298,-0 -16.244,-2.441 -20.839,-7.323c-4.559,-4.882 -6.838,-12.259 -6.838,-22.131c-0,-20.21 9.046,-30.315 27.138,-30.315c8.041,0 14.161,2.28 18.361,6.839c4.236,4.523 6.354,11.128 6.354,19.815l0,6.838l-37.53,0Zm23.746,-9.584c-0,-8.58 -3.752,-12.869 -11.254,-12.869c-2.477,-0 -4.505,0.43 -6.085,1.292c-1.579,0.826 -2.853,2.082 -3.823,3.769c-0.933,1.651 -1.669,4.254 -2.207,7.808l23.369,-0Z" style="fill:#fff;fill-rule:nonzero;"/><path id="path12-8" d="M825.792,1076.2c-0,0 -0,0 -0,0c-14.12,0 -25.739,11.619 -25.739,25.739c0,14.12 11.619,25.739 25.739,25.739c-0,-0 -0,-0 -0,-0c14.12,-0 25.739,-11.619 25.739,-25.739c-0,-14.12 -11.619,-25.739 -25.739,-25.739Zm7.239,3.861c0.708,0 1.351,0.129 2.091,0.222c3.089,0.515 6.242,2.799 8.172,6.114c2.574,4.439 1.995,9.812 -0.965,12.869c-1.448,1.48 -1.93,1.609 -2.895,2.252c0.643,-1.062 0.9,-1.48 0.868,-2.349c0.129,-0.515 -0.064,-0.965 -0.16,-1.222c-0.322,-0.966 -1.03,-1.352 -1.802,-1.802c-0.965,-0.579 -2.091,-0.74 -2.799,-0.74c-0.483,-0 -0.772,-0 -1.48,0.192c-3.346,0.836 -7.014,-0.483 -8.751,-3.539c-2.124,-3.668 -0.805,-8.365 2.96,-10.521c1.094,-0.643 2.413,-1.287 3.603,-1.415c0.322,-0 0.644,-0 0.965,-0.064l0.322,0l-0.129,0.003Zm-19.787,8.687c0.644,-0 1.287,0.065 1.931,0.222c2.059,0.515 2.349,0.836 3.378,1.351c-1.222,-0.131 -1.673,-0.131 -2.413,0.322c-0.45,0.322 -0.772,0.643 -0.965,0.836c-0.643,0.805 -0.643,1.609 -0.643,2.478c-0,1.093 0.418,2.155 0.74,2.735c0.321,0.45 0.418,0.643 0.965,1.286c2.381,2.413 3.056,6.21 1.287,9.33c-2.092,3.604 -6.853,4.827 -10.618,2.639c-1.093,-0.643 -2.252,-1.448 -2.992,-2.413c-0.804,-1.094 -1.126,-1.931 -1.544,-2.992c-1.094,-2.896 -0.708,-6.757 1.19,-10.103c2.092,-3.732 5.953,-5.887 9.652,-5.791l0.032,0.1Zm21.396,17.599c4.183,-0 7.625,3.539 7.625,7.85c0,1.287 -0.096,2.799 -0.579,3.861c-0.547,1.287 -1.094,1.93 -1.834,2.896c-1.93,2.413 -5.534,3.989 -9.33,3.989c-5.148,0 -9.523,-3.217 -10.617,-7.207c-0.644,-2.091 -0.483,-2.509 -0.547,-3.668c0.579,1.095 0.804,1.481 1.544,1.931c0.483,0.222 0.965,0.322 1.223,0.322c0.965,0.161 1.673,-0.194 2.445,-0.644c0.965,-0.547 1.673,-1.415 2.027,-2.027c0.257,-0.45 0.386,-0.643 0.643,-1.383c0.901,-3.378 3.861,-5.856 7.4,-5.856l-0,-0.064Z" style="fill:#fff;fill-rule:nonzero;"/></g></g></g></svg>