<?xml version="1.0" encoding="UTF-8" standalone="no"?><!DOCTYPE svg PUBLIC "-//W3C//DTD SVG 1.1//EN" "http://www.w3.org/Graphics/SVG/1.1/DTD/svg11.dtd"><svg width="100%" height="100%" viewBox="0 0 907 1352" version="1.1" xmlns="http://www.w3.org/2000/svg" xmlns:xlink="http://www.w3.org/1999/xlink" xml:space="preserve" xmlns:serif="http://www.serif.com/" style="fill-rule:evenodd;clip-rule:evenodd;"><rect id="Ultramarine" x="0" y="-0" width="906.667" height="1351.11" style="fill:none;"/><clipPath id="_clip1"><rect x="0" y="-0" width="906.667" height="1351.11"/></clipPath><g clip-path="url(#_clip1)"><g><g id="Frame"><path id="path36023" d="M363.216,8.892l180.223,-0c196.299,-0 354.331,36.928 354.331,82.799l0,1167.73c0,45.871 -158.032,82.8 -354.331,82.8l-180.223,-0c-196.3,-0 -354.331,-36.929 -354.331,-82.8l-0,-1167.73c-0,-45.871 158.031,-82.799 354.331,-82.799Z" style="fill:#fff;fill-rule:nonzero;"/><path id="path36025" d="M363.223,-0c-98.707,-0 -187.78,9.234 -252.805,24.429c-32.513,7.598 -58.999,16.618 -78.087,27.198c-9.543,5.29 -17.286,10.978 -22.976,17.509c-5.69,6.53 -9.365,14.275 -9.365,22.561l-0,1167.72c-0,8.285 3.675,16.03 9.365,22.56c5.69,6.531 13.433,12.219 22.976,17.509c19.088,10.581 45.574,19.6 78.087,27.198c65.025,15.195 154.098,24.429 252.805,24.429l180.21,0c98.707,0 187.781,-9.234 252.806,-24.429c32.512,-7.598 58.999,-16.617 78.086,-27.198c9.544,-5.29 17.286,-10.978 22.976,-17.509c5.69,-6.53 9.366,-14.275 9.366,-22.56l-0,-1167.72c-0,-8.286 -3.676,-16.031 -9.366,-22.561c-5.69,-6.531 -13.432,-12.219 -22.976,-17.509c-19.087,-10.58 -45.574,-19.6 -78.086,-27.198c-65.025,-15.195 -154.099,-24.429 -252.806,-24.429l-180.21,-0Zm0,17.786l180.21,-0c97.592,-0 185.703,9.231 248.769,23.968c31.532,7.368 56.817,16.176 73.495,25.421c8.339,4.622 14.482,9.365 18.201,13.633c3.719,4.269 4.983,7.706 4.983,10.889l-0,1167.72c-0,3.182 -1.264,6.619 -4.983,10.888c-3.719,4.269 -9.862,9.011 -18.201,13.633c-16.678,9.245 -41.963,18.053 -73.495,25.421c-63.066,14.738 -151.177,23.969 -248.769,23.969l-180.21,-0c-97.592,-0 -185.703,-9.231 -248.768,-23.969c-31.533,-7.368 -56.818,-16.176 -73.496,-25.421c-8.339,-4.622 -14.482,-9.364 -18.201,-13.633c-3.719,-4.269 -4.983,-7.706 -4.983,-10.888l0,-1167.72c0,-3.183 1.264,-6.62 4.983,-10.889c3.719,-4.268 9.862,-9.011 18.201,-13.633c16.678,-9.245 41.963,-18.053 73.496,-25.421c63.065,-14.737 151.176,-23.968 248.768,-23.968Z" style="fill-rule:nonzero;"/></g><g id="Bottom"><path id="path35979" d="M371.596,946.173l163.463,0c199.609,0 360.304,38.151 360.304,85.54l0,218.99c0,47.389 -160.695,85.54 -360.304,85.54l-163.463,-0c-199.609,-0 -360.304,-38.151 -360.304,-85.54l-0,-218.99c-0,-47.389 160.695,-85.54 360.304,-85.54Z" style="fill-rule:nonzero;"/><path id="path35981" d="M371.597,938.419c-100.298,0 -190.805,9.547 -256.796,25.214c-32.996,7.833 -59.838,17.123 -79.079,27.958c-19.24,10.836 -32.18,23.883 -32.18,40.116l0,218.988c0,16.233 12.94,29.303 32.18,40.139c19.241,10.835 46.083,20.125 79.079,27.958c65.991,15.667 156.498,25.214 256.796,25.214l163.462,0c100.299,0 190.805,-9.547 256.797,-25.214c32.996,-7.833 59.837,-17.123 79.078,-27.958c19.24,-10.836 32.18,-23.906 32.18,-40.139l0,-218.988c0,-16.233 -12.94,-29.28 -32.18,-40.116c-19.241,-10.835 -46.082,-20.125 -79.078,-27.958c-65.992,-15.667 -156.498,-25.214 -256.797,-25.214l-163.462,0Zm0,15.525l163.462,-0c99.31,-0 188.963,9.52 253.221,24.775c32.129,7.628 57.914,16.745 75.041,26.39c17.128,9.646 24.291,19.137 24.291,26.598l0,218.988c0,7.461 -7.163,16.952 -24.291,26.598c-17.127,9.645 -42.912,18.762 -75.041,26.39c-64.258,15.255 -153.911,24.798 -253.221,24.798l-163.462,0c-99.31,0 -188.963,-9.543 -253.221,-24.798c-32.129,-7.628 -57.913,-16.745 -75.041,-26.39c-17.127,-9.646 -24.291,-19.137 -24.291,-26.598l0,-218.988c0,-7.461 7.164,-16.952 24.291,-26.598c17.128,-9.645 42.912,-18.762 75.041,-26.39c64.258,-15.255 153.911,-24.775 253.221,-24.775Z" style="fill-rule:nonzero;"/></g><g id="Powered-By" serif:id="Powered By"><path id="path12547" d="M59.746,886.701l2.069,0c2.961,0 5.188,-0.588 6.68,-1.763c1.515,-1.176 2.273,-3.086 2.273,-5.732c-0,-2.464 -0.679,-4.284 -2.035,-5.46c-1.334,-1.175 -3.437,-1.763 -6.308,-1.763l-2.679,-0l-0,14.718Zm21.67,-7.868c0,2.171 -0.328,4.251 -0.983,6.24c-0.656,1.99 -1.741,3.742 -3.256,5.257c-1.492,1.515 -3.47,2.724 -5.935,3.629c-2.441,0.904 -5.471,1.356 -9.088,1.356l-2.408,0l-0,17.635l-10.513,-0l-0,-49.581l13.768,-0c3.188,-0 5.935,0.362 8.241,1.085c2.329,0.701 4.239,1.719 5.732,3.053c1.514,1.311 2.634,2.927 3.357,4.849c0.724,1.899 1.085,4.058 1.085,6.478l0,-0.001Z" style="fill-rule:nonzero;"/><path id="path12549" d="M98.576,893.925c0,3.775 0.532,6.624 1.594,8.546c1.063,1.899 2.792,2.848 5.189,2.848c2.374,0 4.092,-0.96 5.155,-2.882c1.062,-1.922 1.594,-4.759 1.594,-8.512c-0,-3.776 -0.532,-6.591 -1.594,-8.445c-1.063,-1.876 -2.804,-2.814 -5.223,-2.814c-2.374,-0 -4.092,0.938 -5.155,2.814c-1.04,1.854 -1.56,4.669 -1.56,8.445Zm24.079,-0c-0,3.165 -0.407,5.968 -1.221,8.41c-0.792,2.442 -1.945,4.499 -3.459,6.172c-1.493,1.673 -3.324,2.951 -5.494,3.833c-2.148,0.859 -4.567,1.288 -7.258,1.288c-2.509,0 -4.815,-0.429 -6.918,-1.288c-2.103,-0.882 -3.923,-2.16 -5.46,-3.833c-1.515,-1.673 -2.702,-3.73 -3.561,-6.172c-0.859,-2.442 -1.289,-5.245 -1.289,-8.41c0,-3.143 0.396,-5.935 1.187,-8.377c0.814,-2.442 1.967,-4.488 3.46,-6.138c1.514,-1.673 3.346,-2.939 5.493,-3.798c2.148,-0.86 4.579,-1.289 7.292,-1.289c2.509,-0 4.815,0.429 6.918,1.289c2.103,0.859 3.911,2.125 5.426,3.798c1.538,1.65 2.736,3.696 3.595,6.138c0.859,2.442 1.289,5.234 1.289,8.377Z" style="fill-rule:nonzero;"/><path id="path12551" d="M160.536,912.95l-2.917,-13.26c-0.09,-0.384 -0.215,-0.927 -0.373,-1.628c-0.136,-0.724 -0.294,-1.526 -0.475,-2.408c-0.181,-0.904 -0.373,-1.854 -0.576,-2.848c-0.181,-1.018 -0.373,-2.024 -0.577,-3.019c-0.452,-2.328 -0.949,-4.838 -1.492,-7.528l-0.203,-0c-0.52,2.69 -0.995,5.211 -1.425,7.562c-0.181,0.995 -0.373,2.001 -0.576,3.019c-0.181,1.017 -0.362,1.978 -0.543,2.882c-0.181,0.882 -0.35,1.684 -0.508,2.408c-0.136,0.723 -0.249,1.289 -0.34,1.696l-3.052,13.124l-11.123,-0l-10.208,-37.915l10.275,0l3.833,16.787c0.203,0.882 0.407,1.944 0.61,3.188c0.226,1.221 0.429,2.464 0.61,3.73c0.204,1.244 0.385,2.431 0.543,3.561c0.158,1.108 0.283,1.99 0.373,2.645l0.203,0c0.023,-0.429 0.069,-0.983 0.136,-1.661c0.091,-0.701 0.192,-1.447 0.305,-2.239c0.113,-0.791 0.226,-1.593 0.339,-2.407c0.136,-0.837 0.26,-1.617 0.374,-2.34c0.135,-0.724 0.248,-1.357 0.339,-1.9c0.113,-0.565 0.203,-0.961 0.271,-1.187l4.137,-18.177l11.395,0l3.968,18.177c0.113,0.498 0.26,1.267 0.441,2.307c0.181,1.04 0.362,2.159 0.542,3.357c0.204,1.176 0.374,2.329 0.509,3.459c0.136,1.108 0.215,1.978 0.238,2.611l0.203,0c0.068,-0.565 0.181,-1.401 0.339,-2.509c0.181,-1.108 0.373,-2.295 0.577,-3.561c0.203,-1.289 0.418,-2.566 0.644,-3.832c0.249,-1.266 0.475,-2.34 0.678,-3.222l3.968,-16.787l10.14,0l-10.343,37.915l-11.259,-0Z" style="fill-rule:nonzero;"/><path id="path12553" d="M202.893,881.682c-1.831,0 -3.357,0.644 -4.578,1.933c-1.198,1.289 -1.888,3.312 -2.069,6.071l13.192,-0c-0.022,-1.153 -0.169,-2.216 -0.441,-3.188c-0.271,-0.972 -0.678,-1.809 -1.22,-2.51c-0.543,-0.723 -1.221,-1.289 -2.035,-1.695c-0.814,-0.408 -1.764,-0.611 -2.849,-0.611l0,0Zm1.323,31.946c-2.713,0 -5.212,-0.395 -7.495,-1.187c-2.284,-0.791 -4.251,-1.978 -5.901,-3.561c-1.65,-1.605 -2.939,-3.617 -3.866,-6.036c-0.904,-2.442 -1.357,-5.302 -1.357,-8.58c0,-3.324 0.419,-6.229 1.255,-8.716c0.837,-2.487 2.001,-4.555 3.493,-6.206c1.515,-1.673 3.324,-2.928 5.426,-3.764c2.126,-0.837 4.477,-1.255 7.054,-1.255c2.51,-0 4.771,0.384 6.783,1.153c2.035,0.746 3.753,1.854 5.155,3.323c1.424,1.47 2.509,3.278 3.255,5.426c0.769,2.125 1.153,4.567 1.153,7.325l0,5.02l-23.128,-0c0.044,1.447 0.271,2.758 0.678,3.934c0.429,1.153 1.017,2.136 1.763,2.95c0.769,0.791 1.685,1.402 2.747,1.831c1.086,0.43 2.318,0.645 3.697,0.645c1.153,0 2.238,-0.057 3.256,-0.17c1.04,-0.135 2.046,-0.328 3.018,-0.576c0.972,-0.249 1.933,-0.554 2.882,-0.916c0.95,-0.384 1.922,-0.825 2.917,-1.322l-0,8.003c-0.904,0.475 -1.82,0.882 -2.747,1.221c-0.904,0.317 -1.865,0.588 -2.883,0.814c-1.017,0.226 -2.114,0.384 -3.289,0.475c-1.176,0.113 -2.465,0.17 -3.866,0.17l-0,-0.001Z" style="fill-rule:nonzero;"/><path id="path12555" d="M247.692,874.323c0.272,-0 0.566,0.012 0.882,0.035c0.339,0 0.656,0.024 0.95,0.071c0.316,0.024 0.599,0.059 0.847,0.106c0.272,0.024 0.475,0.059 0.611,0.107l-0,9.699c-0.181,-0.047 -0.43,-0.093 -0.746,-0.136c-0.317,-0.047 -0.656,-0.083 -1.018,-0.106c-0.339,-0.047 -0.678,-0.071 -1.017,-0.071c-0.339,-0.024 -0.622,-0.036 -0.848,-0.036c-1.334,0 -2.566,0.17 -3.696,0.51c-1.108,0.339 -2.069,0.893 -2.883,1.661c-0.791,0.747 -1.413,1.742 -1.865,2.985c-0.43,1.22 -0.645,2.724 -0.645,4.51l0,19.297l-10.343,-0l-0,-37.915l7.834,-0l1.526,5.697l0.509,0c0.542,-0.972 1.13,-1.854 1.763,-2.645c0.633,-0.791 1.334,-1.458 2.103,-2.001c0.791,-0.565 1.673,-0.995 2.645,-1.289c0.995,-0.316 2.125,-0.474 3.391,-0.474l0,-0.005Z" style="fill-rule:nonzero;"/><path id="path12557" d="M273.399,881.682c-1.832,0 -3.358,0.644 -4.579,1.933c-1.198,1.289 -1.888,3.312 -2.068,6.071l13.192,-0c-0.023,-1.153 -0.17,-2.216 -0.441,-3.188c-0.271,-0.972 -0.678,-1.809 -1.221,-2.51c-0.543,-0.723 -1.221,-1.289 -2.035,-1.695c-0.814,-0.408 -1.763,-0.611 -2.848,-0.611l-0,0Zm1.322,31.946c-2.713,0 -5.211,-0.395 -7.495,-1.187c-2.283,-0.791 -4.25,-1.978 -5.901,-3.561c-1.65,-1.605 -2.939,-3.617 -3.866,-6.036c-0.904,-2.442 -1.356,-5.302 -1.356,-8.58c-0,-3.324 0.418,-6.229 1.255,-8.716c0.836,-2.487 2,-4.555 3.493,-6.206c1.514,-1.673 3.323,-2.928 5.426,-3.764c2.125,-0.837 4.476,-1.255 7.054,-1.255c2.509,-0 4.77,0.384 6.782,1.153c2.035,0.746 3.753,1.854 5.155,3.323c1.424,1.47 2.51,3.278 3.256,5.426c0.768,2.125 1.153,4.567 1.153,7.325l-0,5.02l-23.129,-0c0.045,1.447 0.271,2.758 0.678,3.934c0.43,1.153 1.018,2.136 1.764,2.95c0.769,0.791 1.684,1.402 2.747,1.831c1.085,0.43 2.317,0.645 3.696,0.645c1.153,0 2.239,-0.057 3.256,-0.17c1.04,-0.135 2.046,-0.328 3.018,-0.576c0.972,-0.249 1.933,-0.554 2.883,-0.916c0.949,-0.384 1.922,-0.825 2.916,-1.322l0,8.003c-0.904,0.475 -1.82,0.882 -2.747,1.221c-0.904,0.317 -1.865,0.588 -2.882,0.814c-1.018,0.226 -2.114,0.384 -3.29,0.475c-1.175,0.113 -2.464,0.17 -3.866,0.17l0,-0.001Z" style="fill-rule:nonzero;"/><path id="path12559" d="M309.584,913.628c-1.945,0 -3.719,-0.418 -5.325,-1.255c-1.605,-0.836 -2.984,-2.068 -4.137,-3.696c-1.153,-1.651 -2.057,-3.697 -2.713,-6.138c-0.633,-2.442 -0.95,-5.268 -0.95,-8.479c0,-3.255 0.317,-6.104 0.95,-8.546c0.656,-2.464 1.571,-4.521 2.747,-6.172c1.198,-1.673 2.623,-2.928 4.273,-3.764c1.65,-0.837 3.471,-1.255 5.46,-1.255c1.221,-0 2.34,0.147 3.357,0.44c1.018,0.272 1.934,0.668 2.747,1.187c0.814,0.498 1.538,1.086 2.171,1.764c0.656,0.656 1.232,1.379 1.729,2.17l0.34,0c-0.136,-0.881 -0.26,-1.774 -0.373,-2.679c-0.114,-0.768 -0.215,-1.582 -0.306,-2.442c-0.067,-0.881 -0.101,-1.695 -0.101,-2.441l-0,-12.141l10.343,-0l0,52.769l-7.902,-0l-2.001,-4.918l-0.44,0c-0.475,0.769 -1.018,1.504 -1.628,2.205c-0.611,0.678 -1.323,1.265 -2.137,1.763c-0.791,0.498 -1.695,0.893 -2.713,1.187c-0.995,0.294 -2.125,0.441 -3.391,0.441l-0,0Zm3.764,-8.241c1.221,0 2.261,-0.203 3.12,-0.61c0.859,-0.43 1.549,-1.063 2.069,-1.899c0.543,-0.859 0.938,-1.922 1.187,-3.188c0.271,-1.266 0.418,-2.747 0.441,-4.443l-0,-1.12c-0,-1.831 -0.113,-3.459 -0.339,-4.883c-0.226,-1.424 -0.599,-2.611 -1.119,-3.561c-0.52,-0.972 -1.221,-1.707 -2.103,-2.204c-0.882,-0.498 -1.99,-0.747 -3.324,-0.747c-2.17,0 -3.764,0.984 -4.781,2.951c-1.018,1.944 -1.526,4.781 -1.526,8.512c-0,3.73 0.508,6.534 1.526,8.41c1.04,1.854 2.656,2.781 4.849,2.781l0,0.001Z" style="fill-rule:nonzero;"/><path id="path12561" d="M378.902,874.323c1.945,-0 3.719,0.418 5.325,1.255c1.605,0.836 2.984,2.08 4.137,3.73c1.153,1.651 2.046,3.697 2.679,6.138c0.656,2.442 0.984,5.268 0.984,8.479c-0,3.255 -0.328,6.115 -0.984,8.58c-0.633,2.441 -1.537,4.488 -2.713,6.138c-1.176,1.65 -2.589,2.894 -4.239,3.73c-1.65,0.837 -3.47,1.255 -5.46,1.255c-1.266,0 -2.397,-0.136 -3.391,-0.407c-0.973,-0.272 -1.843,-0.634 -2.612,-1.086c-0.768,-0.452 -1.447,-0.96 -2.034,-1.526c-0.566,-0.588 -1.086,-1.198 -1.56,-1.831l-0.713,-0l-1.729,4.171l-7.902,0l0,-52.769l10.344,0l-0,12.277c-0,0.746 -0.023,1.56 -0.068,2.442c-0.045,0.859 -0.09,1.661 -0.135,2.408c-0.068,0.881 -0.136,1.763 -0.204,2.645l0.407,-0c0.475,-0.792 1.017,-1.526 1.628,-2.205c0.61,-0.678 1.311,-1.265 2.102,-1.763c0.814,-0.52 1.73,-0.927 2.747,-1.221c1.018,-0.294 2.148,-0.441 3.392,-0.441l-0.001,0.001Zm-3.493,8.275c-1.153,-0 -2.136,0.215 -2.95,0.645c-0.792,0.407 -1.436,1.028 -1.933,1.865c-0.498,0.836 -0.859,1.899 -1.085,3.188c-0.227,1.266 -0.362,2.747 -0.407,4.442l-0,1.12c-0,1.831 0.101,3.459 0.305,4.883c0.226,1.425 0.588,2.623 1.085,3.595c0.497,0.95 1.153,1.673 1.967,2.171c0.836,0.497 1.865,0.746 3.086,0.746c2.057,0 3.561,-0.972 4.51,-2.916c0.973,-1.967 1.459,-4.816 1.459,-8.547c-0,-3.73 -0.486,-6.522 -1.459,-8.376c-0.949,-1.877 -2.475,-2.815 -4.578,-2.815l0,-0.001Z" style="fill-rule:nonzero;"/><path id="path12563" d="M395.486,875.035l11.327,0l6.104,21.331c0.362,1.176 0.621,2.431 0.78,3.765c0.181,1.334 0.294,2.532 0.339,3.595l0.203,-0c0.047,-0.52 0.104,-1.097 0.17,-1.73c0.09,-0.633 0.192,-1.277 0.305,-1.933c0.113,-0.656 0.237,-1.3 0.373,-1.933c0.158,-0.656 0.316,-1.244 0.475,-1.764l5.968,-21.331l11.395,0l-14.989,42.765c-1.402,4.001 -3.313,6.974 -5.732,8.919c-2.419,1.944 -5.448,2.916 -9.088,2.916c-1.176,0 -2.193,-0.068 -3.053,-0.203c-0.859,-0.113 -1.594,-0.238 -2.204,-0.373l0,-8.207c0.475,0.113 1.074,0.215 1.797,0.305c0.724,0.09 1.481,0.135 2.273,0.135c1.085,0 2.012,-0.146 2.78,-0.44c0.769,-0.294 1.425,-0.712 1.967,-1.255c0.566,-0.52 1.04,-1.153 1.425,-1.899c0.407,-0.747 0.757,-1.583 1.051,-2.51l0.645,-1.899l-14.311,-38.254Z" style="fill-rule:nonzero;"/></g></g><g id="Ultramarine1" serif:id="Ultramarine"><g id="Logo"><g id="g38137"><path id="path38135" d="M453.24,151.1c181.969,0 329.473,147.504 329.473,329.474c-0,181.969 -147.504,329.473 -329.473,329.473c-181.97,-0 -329.474,-147.504 -329.474,-329.473c0,-181.97 147.504,-329.474 329.474,-329.474" style="fill:#000890;"/></g><g id="g38141"><path id="path38139" d="M731.183,585.873c-49.063,-11.283 -97.032,-28.048 -129.822,-47.14c-89.733,-52.218 -120.778,-166.562 -247.374,-124.093c100.028,116.706 -67.749,152.846 -181.317,164.04c40.583,116.019 150.713,199.37 280.57,199.37c127.16,-0 235.386,-79.931 277.943,-192.177" style="fill:#fefeff;fill-rule:nonzero;"/></g></g><g id="Ultramarine2" serif:id="Ultramarine"><path id="path81721" d="M140.344,1086.64l0,69.287c0,8.35 -1.611,15.454 -4.834,21.314c-3.222,5.81 -7.861,10.254 -13.916,13.33c-6.006,3.076 -13.208,4.614 -21.606,4.614c-12.744,-0 -22.534,-3.442 -29.37,-10.327c-6.836,-6.934 -10.254,-16.675 -10.254,-29.224l-0,-68.994l7.47,0l0,68.994c0,10.742 2.784,18.921 8.35,24.536c5.615,5.567 13.672,8.35 24.17,8.35c6.885,-0 12.744,-1.221 17.578,-3.662c4.834,-2.49 8.521,-6.104 11.06,-10.84c2.539,-4.785 3.808,-10.571 3.808,-17.358l0,-70.02l7.544,0Z" style="fill:#fff;fill-rule:nonzero;stroke:#fff;stroke-width:4.91px;"/><rect id="path81723" x="167.517" y="1079.76" width="7.471" height="113.965" style="fill:#fff;fill-rule:nonzero;stroke:#fff;stroke-width:4.91px;"/><path id="path81725" d="M222.888,1188.82c2.295,-0 4.419,-0.171 6.372,-0.513c2.002,-0.342 3.76,-0.781 5.274,-1.318l-0,6.152c-1.563,0.537 -3.394,1.001 -5.493,1.392c-2.1,0.439 -4.419,0.659 -6.958,0.659c-4.493,-0 -8.228,-0.83 -11.207,-2.49c-2.978,-1.709 -5.224,-4.273 -6.738,-7.691c-1.513,-3.467 -2.27,-7.861 -2.27,-13.183l-0,-51.563l-11.866,0l0,-4.394l11.792,-2.271l2.564,-18.75l4.907,0l0,19.263l24.829,-0l0,6.152l-24.829,0l0,51.123c0,5.713 1.05,10.059 3.15,13.037c2.148,2.93 5.639,4.395 10.473,4.395Z" style="fill:#fff;fill-rule:nonzero;stroke:#fff;stroke-width:4.91px;"/><path id="path81727" d="M283.24,1112.72c2.099,0 4.077,0.122 5.932,0.366c1.856,0.245 3.589,0.586 5.201,1.026l-1.172,6.811c-1.612,-0.439 -3.247,-0.756 -4.908,-0.952c-1.66,-0.244 -3.442,-0.366 -5.346,-0.366c-3.76,0 -7.129,0.708 -10.108,2.124c-2.929,1.416 -5.42,3.442 -7.47,6.079c-2.051,2.637 -3.614,5.811 -4.688,9.522c-1.074,3.711 -1.611,7.861 -1.611,12.451l-0,43.945l-7.471,0l0,-79.614l6.372,-0l0.733,15.014l0.439,0c1.221,-3.076 2.93,-5.834 5.127,-8.276c2.246,-2.49 4.956,-4.468 8.13,-5.932c3.174,-1.465 6.787,-2.198 10.84,-2.198Z" style="fill:#fff;fill-rule:nonzero;stroke:#fff;stroke-width:4.91px;"/><path id="path81729" d="M337.732,1112.72c8.74,0 15.283,2.198 19.629,6.592c4.346,4.395 6.518,11.401 6.518,21.021l0,53.393l-5.712,0l-1.319,-13.916l-0.439,0c-1.709,2.979 -3.784,5.64 -6.226,7.983c-2.441,2.295 -5.444,4.102 -9.009,5.42c-3.515,1.319 -7.812,1.978 -12.89,1.978c-5.127,-0 -9.522,-0.855 -13.184,-2.564c-3.613,-1.709 -6.421,-4.199 -8.423,-7.47c-1.953,-3.272 -2.929,-7.251 -2.929,-11.939c-0,-7.91 3.271,-13.916 9.814,-18.017c6.543,-4.151 15.942,-6.494 28.198,-7.032l14.795,-0.732l0,-5.786c0,-8.154 -1.611,-13.965 -4.834,-17.432c-3.222,-3.467 -7.983,-5.2 -14.282,-5.2c-4.102,0 -8.057,0.537 -11.865,1.611c-3.76,1.026 -7.593,2.515 -11.499,4.468l-2.344,-6.152c3.809,-1.807 7.886,-3.296 12.231,-4.468c4.395,-1.172 8.985,-1.758 13.77,-1.758Zm18.75,40.503l-13.916,0.586c-10.107,0.488 -17.798,2.295 -23.071,5.42c-5.274,3.125 -7.911,7.813 -7.911,14.063c0,5.029 1.563,8.886 4.688,11.572c3.174,2.685 7.568,4.028 13.184,4.028c8.74,0 15.405,-2.49 19.995,-7.471c4.638,-4.98 6.982,-11.767 7.031,-20.361l-0,-7.837Z" style="fill:#fff;fill-rule:nonzero;stroke:#fff;stroke-width:4.91px;"/><path id="path81731" d="M471.545,1112.57c7.666,-0 13.721,2.221 18.164,6.665c4.444,4.443 6.666,11.45 6.666,21.02l-0,53.467l-7.251,0l-0,-53.174c-0,-7.373 -1.685,-12.793 -5.054,-16.259c-3.369,-3.467 -7.813,-5.201 -13.33,-5.201c-7.569,0 -13.501,2.222 -17.798,6.665c-4.248,4.395 -6.372,11.328 -6.372,20.801l-0,47.168l-7.324,0l-0,-53.174c-0,-4.931 -0.782,-8.96 -2.344,-12.085c-1.514,-3.174 -3.638,-5.517 -6.372,-7.031c-2.735,-1.562 -5.957,-2.344 -9.668,-2.344c-4.932,0 -9.204,1.026 -12.818,3.076c-3.613,2.002 -6.396,5.127 -8.349,9.375c-1.953,4.2 -2.93,9.546 -2.93,16.041l0,46.142l-7.397,0l-0,-79.614l6.006,-0l1.098,13.037l0.44,-0c1.318,-2.588 3.076,-4.981 5.273,-7.178c2.197,-2.197 4.907,-3.979 8.13,-5.346c3.271,-1.368 7.104,-2.051 11.499,-2.051c5.713,-0 10.547,1.294 14.502,3.882c4.004,2.539 6.787,6.323 8.35,11.352l0.512,0c2.149,-4.785 5.469,-8.52 9.961,-11.206c4.541,-2.685 10.01,-4.028 16.406,-4.028Z" style="fill:#fff;fill-rule:nonzero;stroke:#fff;stroke-width:4.91px;"/><path id="path81733" d="M549.695,1112.72c8.74,0 15.283,2.198 19.629,6.592c4.345,4.395 6.518,11.401 6.518,21.021l0,53.393l-5.713,0l-1.318,-13.916l-0.439,0c-1.709,2.979 -3.785,5.64 -6.226,7.983c-2.441,2.295 -5.444,4.102 -9.009,5.42c-3.515,1.319 -7.812,1.978 -12.89,1.978c-5.127,-0 -9.522,-0.855 -13.184,-2.564c-3.613,-1.709 -6.421,-4.199 -8.423,-7.47c-1.953,-3.272 -2.93,-7.251 -2.93,-11.939c0,-7.91 3.272,-13.916 9.815,-18.017c6.543,-4.151 15.942,-6.494 28.198,-7.032l14.795,-0.732l0,-5.786c0,-8.154 -1.611,-13.965 -4.834,-17.432c-3.223,-3.467 -7.983,-5.2 -14.282,-5.2c-4.102,0 -8.057,0.537 -11.865,1.611c-3.76,1.026 -7.593,2.515 -11.499,4.468l-2.344,-6.152c3.808,-1.807 7.886,-3.296 12.231,-4.468c4.395,-1.172 8.985,-1.758 13.77,-1.758Zm18.75,40.503l-13.916,0.586c-10.108,0.488 -17.798,2.295 -23.071,5.42c-5.274,3.125 -7.911,7.813 -7.911,14.063c0,5.029 1.563,8.886 4.688,11.572c3.174,2.685 7.568,4.028 13.183,4.028c8.741,0 15.406,-2.49 19.996,-7.471c4.638,-4.98 6.982,-11.767 7.031,-20.361l-0,-7.837Z" style="fill:#fff;fill-rule:nonzero;stroke:#fff;stroke-width:4.91px;"/><path id="path81735" d="M633.044,1112.72c2.1,0 4.078,0.122 5.933,0.366c1.856,0.245 3.589,0.586 5.2,1.026l-1.172,6.811c-1.611,-0.439 -3.247,-0.756 -4.907,-0.952c-1.66,-0.244 -3.442,-0.366 -5.347,-0.366c-3.759,0 -7.128,0.708 -10.107,2.124c-2.93,1.416 -5.42,3.442 -7.471,6.079c-2.05,2.637 -3.613,5.811 -4.687,9.522c-1.074,3.711 -1.611,7.861 -1.611,12.451l-0,43.945l-7.471,0l-0,-79.614l6.372,-0l0.732,15.014l0.44,0c1.22,-3.076 2.929,-5.834 5.127,-8.276c2.246,-2.49 4.956,-4.468 8.13,-5.932c3.173,-1.465 6.787,-2.198 10.839,-2.198Z" style="fill:#fff;fill-rule:nonzero;stroke:#fff;stroke-width:4.91px;"/><path id="path81737" d="M667.102,1114.11l0,79.614l-7.397,0l-0,-79.614l7.397,-0Zm-3.589,-29.444c1.856,0 3.223,0.562 4.102,1.685c0.879,1.074 1.318,2.539 1.318,4.395c0,1.855 -0.439,3.32 -1.318,4.394c-0.879,1.074 -2.246,1.611 -4.102,1.611c-1.758,0 -3.076,-0.537 -3.955,-1.611c-0.879,-1.074 -1.318,-2.539 -1.318,-4.394c-0,-1.856 0.439,-3.321 1.318,-4.395c0.879,-1.123 2.197,-1.685 3.955,-1.685Z" style="fill:#fff;fill-rule:nonzero;stroke:#fff;stroke-width:4.91px;"/><path id="path81739" d="M728.699,1112.57c8.935,-0 15.796,2.344 20.581,7.031c4.785,4.688 7.178,12.036 7.178,22.046l-0,52.075l-7.325,0l0,-51.636c0,-7.91 -1.806,-13.72 -5.42,-17.431c-3.613,-3.711 -8.862,-5.567 -15.747,-5.567c-8.74,0 -15.429,2.564 -20.068,7.691c-4.59,5.078 -6.885,12.768 -6.885,23.071l0,43.872l-7.397,0l-0,-79.614l6.006,-0l1.098,14.502l0.44,-0c1.416,-2.979 3.344,-5.664 5.786,-8.057c2.49,-2.441 5.542,-4.37 9.155,-5.786c3.613,-1.465 7.813,-2.197 12.598,-2.197Z" style="fill:#fff;fill-rule:nonzero;stroke:#fff;stroke-width:4.91px;"/><path id="path81741" d="M812.341,1112.57c6.787,-0 12.427,1.587 16.919,4.76c4.541,3.174 7.91,7.52 10.108,13.038c2.246,5.517 3.369,11.84 3.369,18.969l-0,5.347l-57.495,0c-0,10.938 2.514,19.336 7.544,25.195c5.078,5.86 12.329,8.789 21.753,8.789c4.931,0 9.204,-0.39 12.817,-1.171c3.662,-0.831 7.715,-2.222 12.158,-4.175l0,6.811c-3.906,1.758 -7.812,3.028 -11.719,3.809c-3.906,0.83 -8.398,1.245 -13.476,1.245c-8.057,-0 -14.819,-1.66 -20.288,-4.981c-5.42,-3.369 -9.522,-8.105 -12.305,-14.209c-2.734,-6.103 -4.101,-13.232 -4.101,-21.386c-0,-7.959 1.318,-15.113 3.955,-21.46c2.685,-6.348 6.591,-11.353 11.718,-15.015c5.176,-3.711 11.524,-5.566 19.043,-5.566Zm-0.073,6.372c-7.617,-0 -13.794,2.539 -18.53,7.617c-4.688,5.029 -7.446,12.305 -8.276,21.826l49.584,0c0,-5.81 -0.83,-10.937 -2.49,-15.381c-1.66,-4.443 -4.175,-7.885 -7.544,-10.327c-3.32,-2.49 -7.568,-3.735 -12.744,-3.735Z" style="fill:#fff;fill-rule:nonzero;stroke:#fff;stroke-width:4.91px;"/></g></g></g></svg>