<?xml version="1.0" encoding="UTF-8" standalone="no"?><!DOCTYPE svg PUBLIC "-//W3C//DTD SVG 1.1//EN" "http://www.w3.org/Graphics/SVG/1.1/DTD/svg11.dtd"><svg width="100%" height="100%" viewBox="0 0 907 1352" version="1.1" xmlns="http://www.w3.org/2000/svg" xmlns:xlink="http://www.w3.org/1999/xlink" xml:space="preserve" xmlns:serif="http://www.serif.com/" style="fill-rule:evenodd;clip-rule:evenodd;stroke-linejoin:round;stroke-miterlimit:2;"><rect id="Void" x="0" y="-0" width="906.667" height="1351.11" style="fill:none;"/><clipPath id="_clip1"><rect x="0" y="-0" width="906.667" height="1351.11"/></clipPath><g clip-path="url(#_clip1)"><g><g id="Frame"><path id="path36023" d="M363.216,8.892l180.223,-0c196.299,-0 354.331,36.928 354.331,82.799l0,1167.73c0,45.871 -158.032,82.8 -354.331,82.8l-180.223,-0c-196.3,-0 -354.331,-36.929 -354.331,-82.8l-0,-1167.73c-0,-45.871 158.031,-82.799 354.331,-82.799Z" style="fill:#fff;fill-rule:nonzero;"/><path id="path36025" d="M363.223,-0c-98.707,-0 -187.78,9.234 -252.805,24.429c-32.513,7.598 -58.999,16.618 -78.087,27.198c-9.543,5.29 -17.286,10.978 -22.976,17.509c-5.69,6.53 -9.365,14.275 -9.365,22.561l-0,1167.72c-0,8.285 3.675,16.03 9.365,22.56c5.69,6.531 13.433,12.219 22.976,17.509c19.088,10.581 45.574,19.6 78.087,27.198c65.025,15.195 154.098,24.429 252.805,24.429l180.21,0c98.707,0 187.781,-9.234 252.806,-24.429c32.512,-7.598 58.999,-16.617 78.086,-27.198c9.544,-5.29 17.286,-10.978 22.976,-17.509c5.69,-6.53 9.366,-14.275 9.366,-22.56l-0,-1167.72c-0,-8.286 -3.676,-16.031 -9.366,-22.561c-5.69,-6.531 -13.432,-12.219 -22.976,-17.509c-19.087,-10.58 -45.574,-19.6 -78.086,-27.198c-65.025,-15.195 -154.099,-24.429 -252.806,-24.429l-180.21,-0Zm0,17.786l180.21,-0c97.592,-0 185.703,9.231 248.769,23.968c31.532,7.368 56.817,16.176 73.495,25.421c8.339,4.622 14.482,9.365 18.201,13.633c3.719,4.269 4.983,7.706 4.983,10.889l-0,1167.72c-0,3.182 -1.264,6.619 -4.983,10.888c-3.719,4.269 -9.862,9.011 -18.201,13.633c-16.678,9.245 -41.963,18.053 -73.495,25.421c-63.066,14.738 -151.177,23.969 -248.769,23.969l-180.21,-0c-97.592,-0 -185.703,-9.231 -248.768,-23.969c-31.533,-7.368 -56.818,-16.176 -73.496,-25.421c-8.339,-4.622 -14.482,-9.364 -18.201,-13.633c-3.719,-4.269 -4.983,-7.706 -4.983,-10.888l0,-1167.72c0,-3.183 1.264,-6.62 4.983,-10.889c3.719,-4.268 9.862,-9.011 18.201,-13.633c16.678,-9.245 41.963,-18.053 73.496,-25.421c63.065,-14.737 151.176,-23.968 248.768,-23.968Z" style="fill-rule:nonzero;"/></g><g id="Bottom"><path id="path35979" d="M371.596,946.173l163.463,0c199.609,0 360.304,38.151 360.304,85.54l0,218.99c0,47.389 -160.695,85.54 -360.304,85.54l-163.463,-0c-199.609,-0 -360.304,-38.151 -360.304,-85.54l-0,-218.99c-0,-47.389 160.695,-85.54 360.304,-85.54Z" style="fill-rule:nonzero;"/><path id="path35981" d="M371.597,938.419c-100.298,0 -190.805,9.547 -256.796,25.214c-32.996,7.833 -59.838,17.123 -79.079,27.958c-19.24,10.836 -32.18,23.883 -32.18,40.116l0,218.988c0,16.233 12.94,29.303 32.18,40.139c19.241,10.835 46.083,20.125 79.079,27.958c65.991,15.667 156.498,25.214 256.796,25.214l163.462,0c100.299,0 190.805,-9.547 256.797,-25.214c32.996,-7.833 59.837,-17.123 79.078,-27.958c19.24,-10.836 32.18,-23.906 32.18,-40.139l0,-218.988c0,-16.233 -12.94,-29.28 -32.18,-40.116c-19.241,-10.835 -46.082,-20.125 -79.078,-27.958c-65.992,-15.667 -156.498,-25.214 -256.797,-25.214l-163.462,0Zm0,15.525l163.462,-0c99.31,-0 188.963,9.52 253.221,24.775c32.129,7.628 57.914,16.745 75.041,26.39c17.128,9.646 24.291,19.137 24.291,26.598l0,218.988c0,7.461 -7.163,16.952 -24.291,26.598c-17.127,9.645 -42.912,18.762 -75.041,26.39c-64.258,15.255 -153.911,24.798 -253.221,24.798l-163.462,0c-99.31,0 -188.963,-9.543 -253.221,-24.798c-32.129,-7.628 -57.913,-16.745 -75.041,-26.39c-17.127,-9.646 -24.291,-19.137 -24.291,-26.598l0,-218.988c0,-7.461 7.164,-16.952 24.291,-26.598c17.128,-9.645 42.912,-18.762 75.041,-26.39c64.258,-15.255 153.911,-24.775 253.221,-24.775Z" style="fill-rule:nonzero;"/></g><g id="Powered-By" serif:id="Powered By"><path id="path12547" d="M59.746,886.701l2.069,0c2.961,0 5.188,-0.588 6.68,-1.763c1.515,-1.176 2.273,-3.086 2.273,-5.732c-0,-2.464 -0.679,-4.284 -2.035,-5.46c-1.334,-1.175 -3.437,-1.763 -6.308,-1.763l-2.679,-0l-0,14.718Zm21.67,-7.868c0,2.171 -0.328,4.251 -0.983,6.24c-0.656,1.99 -1.741,3.742 -3.256,5.257c-1.492,1.515 -3.47,2.724 -5.935,3.629c-2.441,0.904 -5.471,1.356 -9.088,1.356l-2.408,0l-0,17.635l-10.513,-0l-0,-49.581l13.768,-0c3.188,-0 5.935,0.362 8.241,1.085c2.329,0.701 4.239,1.719 5.732,3.053c1.514,1.311 2.634,2.927 3.357,4.849c0.724,1.899 1.085,4.058 1.085,6.478l0,-0.001Z" style="fill-rule:nonzero;"/><path id="path12549" d="M98.576,893.925c0,3.775 0.532,6.624 1.594,8.546c1.063,1.899 2.792,2.848 5.189,2.848c2.374,0 4.092,-0.96 5.155,-2.882c1.062,-1.922 1.594,-4.759 1.594,-8.512c-0,-3.776 -0.532,-6.591 -1.594,-8.445c-1.063,-1.876 -2.804,-2.814 -5.223,-2.814c-2.374,-0 -4.092,0.938 -5.155,2.814c-1.04,1.854 -1.56,4.669 -1.56,8.445Zm24.079,-0c-0,3.165 -0.407,5.968 -1.221,8.41c-0.792,2.442 -1.945,4.499 -3.459,6.172c-1.493,1.673 -3.324,2.951 -5.494,3.833c-2.148,0.859 -4.567,1.288 -7.258,1.288c-2.509,0 -4.815,-0.429 -6.918,-1.288c-2.103,-0.882 -3.923,-2.16 -5.46,-3.833c-1.515,-1.673 -2.702,-3.73 -3.561,-6.172c-0.859,-2.442 -1.289,-5.245 -1.289,-8.41c0,-3.143 0.396,-5.935 1.187,-8.377c0.814,-2.442 1.967,-4.488 3.46,-6.138c1.514,-1.673 3.346,-2.939 5.493,-3.798c2.148,-0.86 4.579,-1.289 7.292,-1.289c2.509,-0 4.815,0.429 6.918,1.289c2.103,0.859 3.911,2.125 5.426,3.798c1.538,1.65 2.736,3.696 3.595,6.138c0.859,2.442 1.289,5.234 1.289,8.377Z" style="fill-rule:nonzero;"/><path id="path12551" d="M160.536,912.95l-2.917,-13.26c-0.09,-0.384 -0.215,-0.927 -0.373,-1.628c-0.136,-0.724 -0.294,-1.526 -0.475,-2.408c-0.181,-0.904 -0.373,-1.854 -0.576,-2.848c-0.181,-1.018 -0.373,-2.024 -0.577,-3.019c-0.452,-2.328 -0.949,-4.838 -1.492,-7.528l-0.203,-0c-0.52,2.69 -0.995,5.211 -1.425,7.562c-0.181,0.995 -0.373,2.001 -0.576,3.019c-0.181,1.017 -0.362,1.978 -0.543,2.882c-0.181,0.882 -0.35,1.684 -0.508,2.408c-0.136,0.723 -0.249,1.289 -0.34,1.696l-3.052,13.124l-11.123,-0l-10.208,-37.915l10.275,0l3.833,16.787c0.203,0.882 0.407,1.944 0.61,3.188c0.226,1.221 0.429,2.464 0.61,3.73c0.204,1.244 0.385,2.431 0.543,3.561c0.158,1.108 0.283,1.99 0.373,2.645l0.203,0c0.023,-0.429 0.069,-0.983 0.136,-1.661c0.091,-0.701 0.192,-1.447 0.305,-2.239c0.113,-0.791 0.226,-1.593 0.339,-2.407c0.136,-0.837 0.26,-1.617 0.374,-2.34c0.135,-0.724 0.248,-1.357 0.339,-1.9c0.113,-0.565 0.203,-0.961 0.271,-1.187l4.137,-18.177l11.395,0l3.968,18.177c0.113,0.498 0.26,1.267 0.441,2.307c0.181,1.04 0.362,2.159 0.542,3.357c0.204,1.176 0.374,2.329 0.509,3.459c0.136,1.108 0.215,1.978 0.238,2.611l0.203,0c0.068,-0.565 0.181,-1.401 0.339,-2.509c0.181,-1.108 0.373,-2.295 0.577,-3.561c0.203,-1.289 0.418,-2.566 0.644,-3.832c0.249,-1.266 0.475,-2.34 0.678,-3.222l3.968,-16.787l10.14,0l-10.343,37.915l-11.259,-0Z" style="fill-rule:nonzero;"/><path id="path12553" d="M202.893,881.682c-1.831,0 -3.357,0.644 -4.578,1.933c-1.198,1.289 -1.888,3.312 -2.069,6.071l13.192,-0c-0.022,-1.153 -0.169,-2.216 -0.441,-3.188c-0.271,-0.972 -0.678,-1.809 -1.22,-2.51c-0.543,-0.723 -1.221,-1.289 -2.035,-1.695c-0.814,-0.408 -1.764,-0.611 -2.849,-0.611l0,0Zm1.323,31.946c-2.713,0 -5.212,-0.395 -7.495,-1.187c-2.284,-0.791 -4.251,-1.978 -5.901,-3.561c-1.65,-1.605 -2.939,-3.617 -3.866,-6.036c-0.904,-2.442 -1.357,-5.302 -1.357,-8.58c0,-3.324 0.419,-6.229 1.255,-8.716c0.837,-2.487 2.001,-4.555 3.493,-6.206c1.515,-1.673 3.324,-2.928 5.426,-3.764c2.126,-0.837 4.477,-1.255 7.054,-1.255c2.51,-0 4.771,0.384 6.783,1.153c2.035,0.746 3.753,1.854 5.155,3.323c1.424,1.47 2.509,3.278 3.255,5.426c0.769,2.125 1.153,4.567 1.153,7.325l0,5.02l-23.128,-0c0.044,1.447 0.271,2.758 0.678,3.934c0.429,1.153 1.017,2.136 1.763,2.95c0.769,0.791 1.685,1.402 2.747,1.831c1.086,0.43 2.318,0.645 3.697,0.645c1.153,0 2.238,-0.057 3.256,-0.17c1.04,-0.135 2.046,-0.328 3.018,-0.576c0.972,-0.249 1.933,-0.554 2.882,-0.916c0.95,-0.384 1.922,-0.825 2.917,-1.322l-0,8.003c-0.904,0.475 -1.82,0.882 -2.747,1.221c-0.904,0.317 -1.865,0.588 -2.883,0.814c-1.017,0.226 -2.114,0.384 -3.289,0.475c-1.176,0.113 -2.465,0.17 -3.866,0.17l-0,-0.001Z" style="fill-rule:nonzero;"/><path id="path12555" d="M247.692,874.323c0.272,-0 0.566,0.012 0.882,0.035c0.339,0 0.656,0.024 0.95,0.071c0.316,0.024 0.599,0.059 0.847,0.106c0.272,0.024 0.475,0.059 0.611,0.107l-0,9.699c-0.181,-0.047 -0.43,-0.093 -0.746,-0.136c-0.317,-0.047 -0.656,-0.083 -1.018,-0.106c-0.339,-0.047 -0.678,-0.071 -1.017,-0.071c-0.339,-0.024 -0.622,-0.036 -0.848,-0.036c-1.334,0 -2.566,0.17 -3.696,0.51c-1.108,0.339 -2.069,0.893 -2.883,1.661c-0.791,0.747 -1.413,1.742 -1.865,2.985c-0.43,1.22 -0.645,2.724 -0.645,4.51l0,19.297l-10.343,-0l-0,-37.915l7.834,-0l1.526,5.697l0.509,0c0.542,-0.972 1.13,-1.854 1.763,-2.645c0.633,-0.791 1.334,-1.458 2.103,-2.001c0.791,-0.565 1.673,-0.995 2.645,-1.289c0.995,-0.316 2.125,-0.474 3.391,-0.474l0,-0.005Z" style="fill-rule:nonzero;"/><path id="path12557" d="M273.399,881.682c-1.832,0 -3.358,0.644 -4.579,1.933c-1.198,1.289 -1.888,3.312 -2.068,6.071l13.192,-0c-0.023,-1.153 -0.17,-2.216 -0.441,-3.188c-0.271,-0.972 -0.678,-1.809 -1.221,-2.51c-0.543,-0.723 -1.221,-1.289 -2.035,-1.695c-0.814,-0.408 -1.763,-0.611 -2.848,-0.611l-0,0Zm1.322,31.946c-2.713,0 -5.211,-0.395 -7.495,-1.187c-2.283,-0.791 -4.25,-1.978 -5.901,-3.561c-1.65,-1.605 -2.939,-3.617 -3.866,-6.036c-0.904,-2.442 -1.356,-5.302 -1.356,-8.58c-0,-3.324 0.418,-6.229 1.255,-8.716c0.836,-2.487 2,-4.555 3.493,-6.206c1.514,-1.673 3.323,-2.928 5.426,-3.764c2.125,-0.837 4.476,-1.255 7.054,-1.255c2.509,-0 4.77,0.384 6.782,1.153c2.035,0.746 3.753,1.854 5.155,3.323c1.424,1.47 2.51,3.278 3.256,5.426c0.768,2.125 1.153,4.567 1.153,7.325l-0,5.02l-23.129,-0c0.045,1.447 0.271,2.758 0.678,3.934c0.43,1.153 1.018,2.136 1.764,2.95c0.769,0.791 1.684,1.402 2.747,1.831c1.085,0.43 2.317,0.645 3.696,0.645c1.153,0 2.239,-0.057 3.256,-0.17c1.04,-0.135 2.046,-0.328 3.018,-0.576c0.972,-0.249 1.933,-0.554 2.883,-0.916c0.949,-0.384 1.922,-0.825 2.916,-1.322l0,8.003c-0.904,0.475 -1.82,0.882 -2.747,1.221c-0.904,0.317 -1.865,0.588 -2.882,0.814c-1.018,0.226 -2.114,0.384 -3.29,0.475c-1.175,0.113 -2.464,0.17 -3.866,0.17l0,-0.001Z" style="fill-rule:nonzero;"/><path id="path12559" d="M309.584,913.628c-1.945,0 -3.719,-0.418 -5.325,-1.255c-1.605,-0.836 -2.984,-2.068 -4.137,-3.696c-1.153,-1.651 -2.057,-3.697 -2.713,-6.138c-0.633,-2.442 -0.95,-5.268 -0.95,-8.479c0,-3.255 0.317,-6.104 0.95,-8.546c0.656,-2.464 1.571,-4.521 2.747,-6.172c1.198,-1.673 2.623,-2.928 4.273,-3.764c1.65,-0.837 3.471,-1.255 5.46,-1.255c1.221,-0 2.34,0.147 3.357,0.44c1.018,0.272 1.934,0.668 2.747,1.187c0.814,0.498 1.538,1.086 2.171,1.764c0.656,0.656 1.232,1.379 1.729,2.17l0.34,0c-0.136,-0.881 -0.26,-1.774 -0.373,-2.679c-0.114,-0.768 -0.215,-1.582 -0.306,-2.442c-0.067,-0.881 -0.101,-1.695 -0.101,-2.441l-0,-12.141l10.343,-0l0,52.769l-7.902,-0l-2.001,-4.918l-0.44,0c-0.475,0.769 -1.018,1.504 -1.628,2.205c-0.611,0.678 -1.323,1.265 -2.137,1.763c-0.791,0.498 -1.695,0.893 -2.713,1.187c-0.995,0.294 -2.125,0.441 -3.391,0.441l-0,0Zm3.764,-8.241c1.221,0 2.261,-0.203 3.12,-0.61c0.859,-0.43 1.549,-1.063 2.069,-1.899c0.543,-0.859 0.938,-1.922 1.187,-3.188c0.271,-1.266 0.418,-2.747 0.441,-4.443l-0,-1.12c-0,-1.831 -0.113,-3.459 -0.339,-4.883c-0.226,-1.424 -0.599,-2.611 -1.119,-3.561c-0.52,-0.972 -1.221,-1.707 -2.103,-2.204c-0.882,-0.498 -1.99,-0.747 -3.324,-0.747c-2.17,0 -3.764,0.984 -4.781,2.951c-1.018,1.944 -1.526,4.781 -1.526,8.512c-0,3.73 0.508,6.534 1.526,8.41c1.04,1.854 2.656,2.781 4.849,2.781l0,0.001Z" style="fill-rule:nonzero;"/><path id="path12561" d="M378.902,874.323c1.945,-0 3.719,0.418 5.325,1.255c1.605,0.836 2.984,2.08 4.137,3.73c1.153,1.651 2.046,3.697 2.679,6.138c0.656,2.442 0.984,5.268 0.984,8.479c-0,3.255 -0.328,6.115 -0.984,8.58c-0.633,2.441 -1.537,4.488 -2.713,6.138c-1.176,1.65 -2.589,2.894 -4.239,3.73c-1.65,0.837 -3.47,1.255 -5.46,1.255c-1.266,0 -2.397,-0.136 -3.391,-0.407c-0.973,-0.272 -1.843,-0.634 -2.612,-1.086c-0.768,-0.452 -1.447,-0.96 -2.034,-1.526c-0.566,-0.588 -1.086,-1.198 -1.56,-1.831l-0.713,-0l-1.729,4.171l-7.902,0l0,-52.769l10.344,0l-0,12.277c-0,0.746 -0.023,1.56 -0.068,2.442c-0.045,0.859 -0.09,1.661 -0.135,2.408c-0.068,0.881 -0.136,1.763 -0.204,2.645l0.407,-0c0.475,-0.792 1.017,-1.526 1.628,-2.205c0.61,-0.678 1.311,-1.265 2.102,-1.763c0.814,-0.52 1.73,-0.927 2.747,-1.221c1.018,-0.294 2.148,-0.441 3.392,-0.441l-0.001,0.001Zm-3.493,8.275c-1.153,-0 -2.136,0.215 -2.95,0.645c-0.792,0.407 -1.436,1.028 -1.933,1.865c-0.498,0.836 -0.859,1.899 -1.085,3.188c-0.227,1.266 -0.362,2.747 -0.407,4.442l-0,1.12c-0,1.831 0.101,3.459 0.305,4.883c0.226,1.425 0.588,2.623 1.085,3.595c0.497,0.95 1.153,1.673 1.967,2.171c0.836,0.497 1.865,0.746 3.086,0.746c2.057,0 3.561,-0.972 4.51,-2.916c0.973,-1.967 1.459,-4.816 1.459,-8.547c-0,-3.73 -0.486,-6.522 -1.459,-8.376c-0.949,-1.877 -2.475,-2.815 -4.578,-2.815l0,-0.001Z" style="fill-rule:nonzero;"/><path id="path12563" d="M395.486,875.035l11.327,0l6.104,21.331c0.362,1.176 0.621,2.431 0.78,3.765c0.181,1.334 0.294,2.532 0.339,3.595l0.203,-0c0.047,-0.52 0.104,-1.097 0.17,-1.73c0.09,-0.633 0.192,-1.277 0.305,-1.933c0.113,-0.656 0.237,-1.3 0.373,-1.933c0.158,-0.656 0.316,-1.244 0.475,-1.764l5.968,-21.331l11.395,0l-14.989,42.765c-1.402,4.001 -3.313,6.974 -5.732,8.919c-2.419,1.944 -5.448,2.916 -9.088,2.916c-1.176,0 -2.193,-0.068 -3.053,-0.203c-0.859,-0.113 -1.594,-0.238 -2.204,-0.373l0,-8.207c0.475,0.113 1.074,0.215 1.797,0.305c0.724,0.09 1.481,0.135 2.273,0.135c1.085,0 2.012,-0.146 2.78,-0.44c0.769,-0.294 1.425,-0.712 1.967,-1.255c0.566,-0.52 1.04,-1.153 1.425,-1.899c0.407,-0.747 0.757,-1.583 1.051,-2.51l0.645,-1.899l-14.311,-38.254Z" style="fill-rule:nonzero;"/></g></g><g id="Void1" serif:id="Void"><g id="Logo"><path id="path88999" d="M454.441,207.42c-57.056,0.122 -112.636,18.147 -158.903,51.536l61.901,61.902c29.206,-17.866 62.766,-27.347 97.002,-27.405c103,-0 186.498,83.497 186.498,186.497c-0.083,34.224 -9.581,67.766 -27.455,96.952l62.018,62.019c33.379,-46.294 51.382,-101.899 51.469,-158.971c0,-150.514 -122.016,-272.53 -272.53,-272.53Z" style="fill:#abc2ab;fill-rule:nonzero;"/><path id="path89001" d="M613.345,700.944l-61.902,-61.901c-29.205,17.865 -62.765,27.346 -97.002,27.405c-102.999,-0 -186.497,-83.498 -186.497,-186.498c0.082,-34.224 9.581,-67.766 27.455,-96.952l-62.019,-62.018c-33.378,46.293 -51.381,101.898 -51.468,158.97c-0,150.514 122.015,272.53 272.529,272.53c57.057,-0.121 112.636,-18.147 158.904,-51.536Z" style="fill:#478061;fill-rule:nonzero;"/><circle id="circle89003" cx="454.398" cy="479.95" r="86.765" style="fill:#abc2ab;"/><path id="path89005" d="M202.137,530.645c-2.972,2.123 -5.678,3.185 -8.119,3.185l-10.508,-0c-1.486,-0 -2.653,-0.266 -3.503,-0.796c-0.849,-0.531 -1.539,-1.327 -2.069,-2.389l-53.812,-99.982c-0.213,-0.212 -0.319,-0.477 -0.319,-0.796l0,-0.955c0,-1.062 0.372,-1.911 1.115,-2.547c0.849,-0.743 2.176,-1.115 3.98,-1.115l65.434,0c3.503,0 5.785,1.061 6.846,3.184l33.115,63.842l92.818,-63.842c3.078,-2.123 6.315,-3.184 9.712,-3.184l10.348,0c1.38,0 2.07,0.584 2.07,1.751c-0,0.956 -0.849,2.123 -2.547,3.503l-144.561,100.141Z" style="fill-rule:nonzero;"/><path id="path89007" d="M346.543,533.83c-5.519,-0 -10.401,-0.85 -14.647,-2.548c-4.245,-1.804 -7.801,-4.245 -10.667,-7.323c-2.865,-3.078 -5.041,-6.687 -6.527,-10.826c-1.486,-4.246 -2.229,-8.81 -2.229,-13.692c0,-6.262 1.061,-12.418 3.184,-18.468c2.123,-6.05 5.042,-11.835 8.757,-17.354c3.821,-5.519 8.278,-10.614 13.373,-15.284c5.201,-4.67 10.826,-8.703 16.876,-12.1c6.156,-3.396 12.63,-6.049 19.423,-7.96c6.793,-2.017 13.745,-3.025 20.856,-3.025l78.012,0c5.625,0 10.561,0.849 14.806,2.547c4.352,1.699 7.961,4.087 10.826,7.165c2.866,2.972 5.042,6.527 6.528,10.667c1.486,4.139 2.229,8.65 2.229,13.532c-0,6.262 -1.115,12.472 -3.343,18.628c-2.123,6.049 -5.095,11.834 -8.916,17.353c-3.821,5.519 -8.332,10.667 -13.533,15.443c-5.2,4.67 -10.879,8.757 -17.035,12.259c-6.156,3.397 -12.63,6.103 -19.423,8.12c-6.793,1.91 -13.639,2.866 -20.538,2.866l-78.012,-0Zm95.843,-65.116c3.503,-7.43 5.254,-13.002 5.254,-16.717c0,-3.078 -1.114,-5.201 -3.343,-6.368c-2.123,-1.168 -5.307,-1.752 -9.553,-1.752l-21.652,0c-3.078,0 -5.944,0.425 -8.597,1.274c-2.547,0.743 -4.936,2.07 -7.164,3.98c-2.229,1.911 -4.405,4.458 -6.528,7.642c-2.017,3.184 -4.086,7.164 -6.209,11.941l-7.642,17.353c-4.033,9.022 -6.05,15.815 -6.05,20.379c0,3.078 0.902,5.307 2.707,6.687c1.804,1.273 4.404,1.91 7.801,1.91l21.811,0c3.291,0 6.315,-0.478 9.075,-1.433c2.76,-1.061 5.413,-2.706 7.96,-4.935c2.548,-2.229 4.989,-5.201 7.324,-8.916c2.335,-3.715 4.723,-8.279 7.164,-13.692l7.642,-17.353Z" style="fill-rule:nonzero;"/><path id="path89009" d="M496.151,533.83c-1.91,-0 -2.866,-0.637 -2.866,-1.911c0,-0.637 0.16,-1.433 0.478,-2.388l44.737,-100.142c1.274,-2.759 3.291,-4.139 6.05,-4.139l54.767,0c2.017,0 3.025,0.69 3.025,2.07c0,0.637 -0.212,1.327 -0.636,2.069l-44.578,100.142c-1.274,2.866 -3.291,4.299 -6.05,4.299l-54.927,-0Z" style="fill-rule:nonzero;"/><path id="path89011" d="M574.429,533.83c-1.911,-0 -2.866,-0.637 -2.866,-1.911c0,-0.637 0.159,-1.433 0.478,-2.388l44.737,-100.142c1.274,-2.759 3.29,-4.139 6.05,-4.139l128.003,0c5.519,0 10.401,0.849 14.647,2.547c4.245,1.699 7.801,4.087 10.667,7.165c2.865,2.972 5.041,6.527 6.527,10.667c1.486,4.139 2.229,8.65 2.229,13.532c0,6.475 -1.114,12.843 -3.343,19.105c-2.229,6.156 -5.307,11.994 -9.234,17.513c-3.821,5.519 -8.385,10.614 -13.692,15.284c-5.201,4.67 -10.879,8.703 -17.035,12.1c-6.05,3.29 -12.418,5.89 -19.105,7.801c-6.687,1.91 -13.374,2.866 -20.06,2.866l-128.003,-0Zm138.51,-65.116c3.397,-7.642 5.095,-13.215 5.095,-16.717c0,-3.078 -1.061,-5.201 -3.184,-6.368c-2.123,-1.168 -5.201,-1.752 -9.234,-1.752l-32.319,0l-31.523,71.166l32.16,0c3.184,0 6.156,-0.478 8.915,-1.433c2.76,-1.061 5.36,-2.706 7.801,-4.935c2.548,-2.335 4.989,-5.307 7.324,-8.916c2.441,-3.715 4.882,-8.279 7.323,-13.692l7.642,-17.353Z" style="fill-rule:nonzero;"/></g><g id="Void2" serif:id="Void"><path id="path89005-6" d="M149.651,1198.31c-3.586,2.561 -6.852,3.842 -9.798,3.842l-12.679,0c-1.793,0 -3.202,-0.32 -4.227,-0.96c-1.024,-0.64 -1.857,-1.601 -2.497,-2.882l-64.935,-120.647c-0.256,-0.257 -0.383,-0.577 -0.383,-0.961l-0,-1.153c-0,-1.281 0.448,-2.305 1.344,-3.074c1.024,-0.896 2.626,-1.344 4.803,-1.344l78.959,-0c4.227,-0 6.98,1.28 8.261,3.842l39.96,77.038l112.002,-77.038c3.714,-2.562 7.621,-3.842 11.719,-3.842l12.488,-0c1.665,-0 2.497,0.704 2.497,2.113c0,1.152 -1.024,2.561 -3.074,4.226l-174.44,120.84Z" style="fill:#fff;fill-rule:nonzero;"/><path id="path89007-1" d="M323.905,1202.16c-6.66,0 -12.552,-1.025 -17.675,-3.074c-5.123,-2.177 -9.413,-5.123 -12.871,-8.837c-3.458,-3.714 -6.084,-8.069 -7.877,-13.064c-1.793,-5.123 -2.69,-10.63 -2.69,-16.522c0,-7.556 1.281,-14.984 3.843,-22.285c2.561,-7.3 6.083,-14.28 10.566,-20.94c4.611,-6.66 9.99,-12.808 16.137,-18.443c6.276,-5.635 13.064,-10.502 20.365,-14.601c7.428,-4.098 15.241,-7.3 23.437,-9.606c8.197,-2.433 16.586,-3.65 25.167,-3.65l94.136,0c6.788,0 12.744,1.025 17.867,3.074c5.251,2.049 9.606,4.931 13.064,8.645c3.458,3.586 6.083,7.877 7.876,12.872c1.793,4.995 2.69,10.438 2.69,16.33c-0,7.556 -1.345,15.049 -4.034,22.477c-2.562,7.3 -6.148,14.28 -10.759,20.94c-4.611,6.66 -10.054,12.872 -16.33,18.635c-6.275,5.636 -13.127,10.567 -20.556,14.793c-7.428,4.099 -15.241,7.365 -23.438,9.798c-8.196,2.306 -16.457,3.458 -24.782,3.458l-94.136,0Zm115.652,-78.575c4.227,-8.965 6.34,-15.689 6.34,-20.172c0,-3.714 -1.345,-6.275 -4.034,-7.684c-2.562,-1.409 -6.404,-2.113 -11.527,-2.113l-26.128,-0c-3.714,-0 -7.172,0.512 -10.374,1.537c-3.074,0.896 -5.955,2.497 -8.645,4.802c-2.689,2.306 -5.315,5.38 -7.877,9.222c-2.433,3.842 -4.931,8.645 -7.492,14.408l-9.222,20.941c-4.866,10.886 -7.3,19.083 -7.3,24.591c0,3.714 1.089,6.403 3.266,8.068c2.177,1.537 5.315,2.306 9.414,2.306l26.319,-0c3.971,-0 7.621,-0.577 10.951,-1.729c3.33,-1.281 6.532,-3.266 9.606,-5.956c3.073,-2.689 6.019,-6.276 8.837,-10.758c2.817,-4.483 5.699,-9.99 8.645,-16.522l9.221,-20.941Z" style="fill:#fff;fill-rule:nonzero;"/><path id="path89009-0" d="M504.435,1202.16c-2.305,0 -3.458,-0.769 -3.458,-2.305c-0,-0.769 0.192,-1.729 0.576,-2.882l53.984,-120.84c1.537,-3.33 3.971,-4.995 7.301,-4.995l66.087,0c2.433,0 3.65,0.833 3.65,2.498c0,0.768 -0.256,1.601 -0.769,2.497l-53.792,120.84c-1.537,3.458 -3.97,5.187 -7.3,5.187l-66.279,0Z" style="fill:#fff;fill-rule:nonzero;"/><path id="path89011-6" d="M598.892,1202.16c-2.305,0 -3.458,-0.769 -3.458,-2.305c-0,-0.769 0.192,-1.729 0.576,-2.882l53.984,-120.84c1.537,-3.33 3.971,-4.995 7.301,-4.995l154.459,0c6.66,0 12.552,1.025 17.675,3.074c5.123,2.049 9.414,4.931 12.872,8.645c3.458,3.586 6.083,7.877 7.876,12.872c1.793,4.995 2.69,10.438 2.69,16.33c-0,7.812 -1.345,15.497 -4.035,23.053c-2.689,7.429 -6.403,14.473 -11.142,21.133c-4.611,6.66 -10.118,12.807 -16.522,18.443c-6.276,5.635 -13.128,10.502 -20.556,14.601c-7.301,3.97 -14.985,7.108 -23.054,9.413c-8.069,2.305 -16.137,3.458 -24.206,3.458l-154.46,0Zm167.139,-78.575c4.099,-9.221 6.148,-15.945 6.148,-20.172c-0,-3.714 -1.281,-6.275 -3.842,-7.684c-2.562,-1.409 -6.276,-2.113 -11.143,-2.113l-38.999,-0l-38.039,85.875l38.807,-0c3.843,-0 7.429,-0.577 10.759,-1.729c3.33,-1.281 6.468,-3.266 9.413,-5.956c3.074,-2.818 6.02,-6.404 8.838,-10.758c2.945,-4.483 5.891,-9.99 8.837,-16.522l9.221,-20.941Z" style="fill:#fff;fill-rule:nonzero;"/></g></g></g></svg>