<?xml version="1.0" encoding="UTF-8" standalone="no"?><!DOCTYPE svg PUBLIC "-//W3C//DTD SVG 1.1//EN" "http://www.w3.org/Graphics/SVG/1.1/DTD/svg11.dtd"><svg width="100%" height="100%" viewBox="0 0 907 1352" version="1.1" xmlns="http://www.w3.org/2000/svg" xmlns:xlink="http://www.w3.org/1999/xlink" xml:space="preserve" xmlns:serif="http://www.serif.com/" style="fill-rule:evenodd;clip-rule:evenodd;stroke-linejoin:round;"><rect id="Void" x="0" y="-0" width="906.667" height="1351.11" style="fill:none;"/><clipPath id="_clip1"><rect x="0" y="-0" width="906.667" height="1351.11"/></clipPath><g clip-path="url(#_clip1)"><g id="READ-ME" serif:id="READ ME"><path id="Frame" d="M897.778,363.221c-0,-195.561 -158.771,-354.332 -354.333,-354.332l-180.224,-0c-195.561,-0 -354.332,158.771 -354.332,354.332l-0,624.669c-0,195.561 158.771,354.332 354.332,354.332l180.224,0c195.562,0 354.333,-158.771 354.333,-354.332l-0,-624.669Z" style="fill:#fff;stroke:#000;stroke-width:17.78px;"/><path id="Bottom" d="M895.371,1141.21c-0,-107.643 -87.393,-195.036 -195.036,-195.036l-494.004,0c-107.643,0 -195.035,87.393 -195.035,195.036c-0,107.643 87.392,195.036 195.035,195.036l494.004,-0c107.643,-0 195.036,-87.393 195.036,-195.036Z" style="stroke:#000;stroke-width:15.52px;"/><g id="Powered-By" serif:id="Powered By"><path id="path12547" d="M59.75,886.702l2.069,0c2.962,0 5.189,-0.588 6.681,-1.763c1.515,-1.176 2.272,-3.087 2.272,-5.732c-0,-2.464 -0.678,-4.284 -2.035,-5.46c-1.334,-1.176 -3.436,-1.763 -6.308,-1.763l-2.679,-0l0,14.718Zm21.671,-7.868c-0,2.171 -0.328,4.251 -0.984,6.24c-0.655,1.99 -1.741,3.742 -3.255,5.257c-1.493,1.515 -3.471,2.724 -5.935,3.628c-2.442,0.905 -5.472,1.357 -9.089,1.357l-2.408,-0l0,17.635l-10.513,-0l0,-49.581l13.769,-0c3.188,-0 5.935,0.362 8.241,1.085c2.328,0.701 4.239,1.718 5.731,3.052c1.515,1.312 2.634,2.928 3.358,4.85c0.723,1.899 1.085,4.058 1.085,6.477l-0,0Z" style="fill-rule:nonzero;"/><path id="path12549" d="M98.581,893.926c-0,3.775 0.531,6.624 1.594,8.546c1.062,1.899 2.792,2.848 5.189,2.848c2.373,0 4.092,-0.96 5.154,-2.882c1.063,-1.922 1.594,-4.759 1.594,-8.512c0,-3.776 -0.531,-6.591 -1.594,-8.445c-1.062,-1.876 -2.803,-2.815 -5.222,-2.815c-2.374,0 -4.092,0.939 -5.155,2.815c-1.04,1.854 -1.56,4.669 -1.56,8.445Zm24.078,-0c0,3.165 -0.407,5.968 -1.221,8.41c-0.791,2.442 -1.944,4.499 -3.459,6.172c-1.492,1.673 -3.323,2.951 -5.494,3.832c-2.148,0.86 -4.567,1.289 -7.257,1.289c-2.51,0 -4.816,-0.429 -6.918,-1.289c-2.103,-0.881 -3.923,-2.159 -5.46,-3.832c-1.515,-1.673 -2.702,-3.73 -3.561,-6.172c-0.859,-2.442 -1.289,-5.245 -1.289,-8.41c-0,-3.143 0.396,-5.935 1.187,-8.377c0.814,-2.442 1.967,-4.488 3.459,-6.138c1.515,-1.673 3.346,-2.939 5.494,-3.799c2.148,-0.859 4.578,-1.288 7.291,-1.288c2.51,-0 4.816,0.429 6.919,1.288c2.102,0.86 3.911,2.126 5.426,3.799c1.537,1.65 2.735,3.696 3.595,6.138c0.859,2.442 1.288,5.234 1.288,8.377Z" style="fill-rule:nonzero;"/><path id="path12551" d="M160.54,912.951l-2.916,-13.26c-0.091,-0.384 -0.215,-0.927 -0.373,-1.628c-0.136,-0.724 -0.294,-1.526 -0.475,-2.408c-0.181,-0.904 -0.373,-1.854 -0.576,-2.849c-0.181,-1.017 -0.373,-2.023 -0.577,-3.018c-0.452,-2.329 -0.95,-4.838 -1.492,-7.529l-0.204,0c-0.52,2.691 -0.994,5.212 -1.424,7.563c-0.181,0.995 -0.373,2.001 -0.576,3.018c-0.181,1.018 -0.362,1.979 -0.543,2.883c-0.181,0.882 -0.35,1.684 -0.509,2.408c-0.135,0.723 -0.248,1.289 -0.339,1.695l-3.052,13.125l-11.124,-0l-10.208,-37.915l10.276,-0l3.832,16.787c0.204,0.882 0.407,1.944 0.611,3.188c0.226,1.221 0.429,2.464 0.61,3.73c0.204,1.244 0.384,2.431 0.543,3.561c0.158,1.108 0.282,1.99 0.373,2.645l0.203,0c0.023,-0.43 0.068,-0.983 0.136,-1.661c0.09,-0.701 0.192,-1.447 0.305,-2.239c0.113,-0.791 0.226,-1.594 0.339,-2.408c0.136,-0.836 0.26,-1.616 0.373,-2.34c0.136,-0.723 0.249,-1.356 0.339,-1.899c0.113,-0.565 0.204,-0.961 0.272,-1.187l4.137,-18.177l11.395,-0l3.968,18.177c0.113,0.498 0.26,1.267 0.441,2.306c0.181,1.04 0.361,2.16 0.542,3.358c0.204,1.176 0.373,2.329 0.509,3.459c0.136,1.108 0.215,1.978 0.237,2.611l0.204,0c0.068,-0.565 0.181,-1.402 0.339,-2.509c0.181,-1.108 0.373,-2.295 0.576,-3.561c0.204,-1.289 0.419,-2.566 0.645,-3.832c0.249,-1.266 0.475,-2.34 0.678,-3.222l3.968,-16.787l10.14,-0l-10.343,37.915l-11.26,-0Z" style="fill-rule:nonzero;"/><path id="path12553" d="M202.898,881.683c-1.831,-0 -3.357,0.644 -4.578,1.933c-1.198,1.289 -1.888,3.312 -2.069,6.07l13.192,0c-0.022,-1.153 -0.169,-2.215 -0.441,-3.187c-0.271,-0.973 -0.678,-1.809 -1.22,-2.51c-0.543,-0.724 -1.221,-1.289 -2.035,-1.696c-0.814,-0.407 -1.764,-0.61 -2.849,-0.61l0,-0Zm1.323,31.946c-2.713,0 -5.212,-0.395 -7.495,-1.187c-2.284,-0.791 -4.251,-1.978 -5.901,-3.561c-1.65,-1.605 -2.939,-3.617 -3.866,-6.036c-0.905,-2.442 -1.357,-5.302 -1.357,-8.58c0,-3.324 0.419,-6.229 1.255,-8.716c0.837,-2.487 2.001,-4.556 3.493,-6.206c1.515,-1.673 3.324,-2.928 5.426,-3.765c2.126,-0.836 4.477,-1.254 7.054,-1.254c2.51,-0 4.771,0.384 6.783,1.152c2.035,0.747 3.753,1.855 5.155,3.324c1.424,1.47 2.509,3.278 3.255,5.426c0.769,2.125 1.153,4.567 1.153,7.325l0,5.019l-23.128,0c0.044,1.447 0.271,2.759 0.678,3.934c0.429,1.153 1.017,2.137 1.763,2.951c0.769,0.791 1.685,1.402 2.747,1.831c1.086,0.43 2.318,0.645 3.697,0.645c1.153,-0 2.238,-0.057 3.256,-0.17c1.04,-0.136 2.046,-0.328 3.018,-0.576c0.972,-0.249 1.933,-0.554 2.882,-0.916c0.95,-0.384 1.922,-0.825 2.917,-1.322l-0,8.003c-0.904,0.475 -1.82,0.882 -2.747,1.221c-0.904,0.317 -1.865,0.588 -2.883,0.814c-1.017,0.226 -2.114,0.384 -3.289,0.475c-1.176,0.113 -2.465,0.17 -3.866,0.17l-0,-0.001Z" style="fill-rule:nonzero;"/><path id="path12555" d="M247.698,874.324c0.271,-0 0.565,0.011 0.881,0.035c0.339,0 0.656,0.024 0.95,0.071c0.316,0.024 0.599,0.059 0.848,0.106c0.271,0.024 0.474,0.059 0.61,0.107l-0,9.699c-0.181,-0.047 -0.43,-0.093 -0.746,-0.136c-0.317,-0.047 -0.656,-0.083 -1.018,-0.106c-0.339,-0.048 -0.678,-0.071 -1.017,-0.071c-0.339,-0.024 -0.622,-0.036 -0.848,-0.036c-1.334,0 -2.566,0.17 -3.696,0.509c-1.108,0.34 -2.069,0.894 -2.883,1.662c-0.791,0.747 -1.413,1.741 -1.865,2.984c-0.43,1.221 -0.645,2.725 -0.645,4.511l0,19.297l-10.343,-0l-0,-37.915l7.834,-0l1.526,5.697l0.509,0c0.542,-0.972 1.13,-1.854 1.763,-2.645c0.633,-0.791 1.334,-1.458 2.103,-2.001c0.791,-0.565 1.673,-0.995 2.645,-1.289c0.995,-0.316 2.125,-0.475 3.391,-0.475l0.001,-0.004Z" style="fill-rule:nonzero;"/><path id="path12557" d="M273.404,881.683c-1.832,-0 -3.358,0.644 -4.579,1.933c-1.198,1.289 -1.887,3.312 -2.068,6.07l13.192,0c-0.023,-1.153 -0.17,-2.215 -0.441,-3.187c-0.271,-0.973 -0.678,-1.809 -1.221,-2.51c-0.542,-0.724 -1.221,-1.289 -2.035,-1.696c-0.813,-0.407 -1.763,-0.61 -2.848,-0.61l-0,-0Zm1.322,31.946c-2.713,0 -5.211,-0.395 -7.494,-1.187c-2.284,-0.791 -4.251,-1.978 -5.901,-3.561c-1.651,-1.605 -2.94,-3.617 -3.866,-6.036c-0.905,-2.442 -1.357,-5.302 -1.357,-8.58c-0,-3.324 0.418,-6.229 1.255,-8.716c0.836,-2.487 2.001,-4.556 3.493,-6.206c1.515,-1.673 3.323,-2.928 5.426,-3.765c2.125,-0.836 4.477,-1.254 7.054,-1.254c2.51,-0 4.77,0.384 6.783,1.152c2.034,0.747 3.753,1.855 5.154,3.324c1.425,1.47 2.51,3.278 3.256,5.426c0.769,2.125 1.153,4.567 1.153,7.325l0,5.019l-23.129,0c0.045,1.447 0.271,2.759 0.679,3.934c0.429,1.153 1.017,2.137 1.763,2.951c0.769,0.791 1.684,1.402 2.747,1.831c1.085,0.43 2.317,0.645 3.697,0.645c1.153,-0 2.238,-0.057 3.255,-0.17c1.04,-0.136 2.046,-0.328 3.018,-0.576c0.973,-0.249 1.934,-0.554 2.883,-0.916c0.95,-0.384 1.922,-0.825 2.917,-1.322l-0,8.003c-0.905,0.475 -1.82,0.882 -2.747,1.221c-0.905,0.317 -1.866,0.588 -2.883,0.814c-1.017,0.226 -2.114,0.384 -3.29,0.475c-1.175,0.113 -2.464,0.17 -3.866,0.17l0,-0.001Z" style="fill-rule:nonzero;"/><path id="path12559" d="M309.589,913.629c-1.944,0 -3.719,-0.418 -5.324,-1.255c-1.605,-0.836 -2.985,-2.068 -4.138,-3.696c-1.153,-1.651 -2.057,-3.697 -2.713,-6.138c-0.633,-2.442 -0.949,-5.268 -0.949,-8.479c-0,-3.255 0.316,-6.104 0.949,-8.546c0.656,-2.464 1.572,-4.522 2.747,-6.172c1.199,-1.673 2.623,-2.928 4.273,-3.765c1.651,-0.836 3.471,-1.254 5.46,-1.254c1.221,-0 2.34,0.146 3.358,0.44c1.017,0.272 1.933,0.668 2.747,1.187c0.814,0.498 1.537,1.086 2.17,1.764c0.656,0.656 1.232,1.379 1.73,2.17l0.339,0c-0.136,-0.882 -0.26,-1.775 -0.373,-2.679c-0.113,-0.769 -0.215,-1.582 -0.305,-2.442c-0.068,-0.882 -0.102,-1.695 -0.102,-2.442l0,-12.141l10.344,0l-0,52.77l-7.902,-0l-2.001,-4.918l-0.441,0c-0.475,0.769 -1.017,1.503 -1.628,2.205c-0.61,0.677 -1.323,1.265 -2.136,1.763c-0.792,0.498 -1.696,0.893 -2.713,1.187c-0.995,0.294 -2.126,0.44 -3.392,0.44l0,0.001Zm3.765,-8.241c1.22,0 2.26,-0.203 3.12,-0.61c0.859,-0.43 1.548,-1.063 2.068,-1.899c0.543,-0.86 0.939,-1.922 1.187,-3.188c0.272,-1.266 0.419,-2.747 0.441,-4.443l0,-1.12c0,-1.831 -0.113,-3.459 -0.339,-4.883c-0.226,-1.425 -0.599,-2.612 -1.119,-3.561c-0.52,-0.972 -1.221,-1.707 -2.103,-2.204c-0.881,-0.498 -1.989,-0.747 -3.323,-0.747c-2.171,0 -3.764,0.984 -4.782,2.951c-1.017,1.944 -1.526,4.781 -1.526,8.512c0,3.73 0.509,6.534 1.526,8.41c1.04,1.854 2.657,2.781 4.85,2.781l-0,0.001Z" style="fill-rule:nonzero;"/><path id="path12561" d="M378.908,874.324c1.944,-0 3.719,0.418 5.324,1.254c1.606,0.837 2.985,2.08 4.138,3.731c1.153,1.65 2.046,3.697 2.679,6.138c0.656,2.442 0.983,5.268 0.983,8.479c0,3.255 -0.327,6.115 -0.983,8.58c-0.633,2.441 -1.538,4.487 -2.713,6.138c-1.176,1.65 -2.589,2.894 -4.239,3.73c-1.651,0.837 -3.471,1.255 -5.46,1.255c-1.266,0 -2.397,-0.136 -3.392,-0.407c-0.972,-0.272 -1.842,-0.634 -2.611,-1.086c-0.769,-0.452 -1.447,-0.96 -2.035,-1.526c-0.565,-0.588 -1.085,-1.198 -1.56,-1.831l-0.712,-0l-1.73,4.171l-7.901,0l-0,-52.769l10.343,0l0,12.277c0,0.746 -0.022,1.56 -0.067,2.442c-0.045,0.859 -0.09,1.661 -0.136,2.407c-0.068,0.882 -0.135,1.764 -0.203,2.646l0.407,-0c0.474,-0.792 1.017,-1.526 1.627,-2.205c0.611,-0.678 1.312,-1.266 2.103,-1.763c0.814,-0.52 1.73,-0.927 2.747,-1.221c1.017,-0.294 2.148,-0.441 3.391,-0.441l-0,0.001Zm-3.493,8.275c-1.153,-0 -2.137,0.215 -2.951,0.644c-0.791,0.408 -1.435,1.029 -1.933,1.866c-0.497,0.836 -0.859,1.899 -1.085,3.188c-0.226,1.266 -0.362,2.746 -0.407,4.442l0,1.12c0,1.831 0.102,3.459 0.305,4.883c0.226,1.425 0.588,2.623 1.086,3.595c0.497,0.95 1.153,1.673 1.967,2.171c0.836,0.497 1.865,0.746 3.086,0.746c2.057,-0 3.561,-0.972 4.51,-2.917c0.972,-1.967 1.458,-4.815 1.458,-8.546c0,-3.73 -0.486,-6.522 -1.458,-8.376c-0.949,-1.877 -2.476,-2.815 -4.578,-2.815l-0,-0.001Z" style="fill-rule:nonzero;"/><path id="path12563" d="M395.492,875.036l11.327,-0l6.104,21.331c0.361,1.176 0.621,2.431 0.779,3.765c0.182,1.334 0.295,2.532 0.339,3.594l0.204,0c0.047,-0.519 0.104,-1.096 0.17,-1.729c0.09,-0.633 0.192,-1.278 0.304,-1.933c0.114,-0.656 0.238,-1.3 0.374,-1.933c0.158,-0.656 0.316,-1.244 0.474,-1.764l5.969,-21.331l11.395,-0l-14.99,42.764c-1.401,4.002 -3.312,6.975 -5.731,8.92c-2.419,1.944 -5.449,2.916 -9.089,2.916c-1.175,0 -2.193,-0.068 -3.052,-0.203c-0.859,-0.113 -1.594,-0.238 -2.204,-0.373l-0,-8.207c0.475,0.113 1.074,0.215 1.797,0.305c0.724,0.09 1.481,0.135 2.272,0.135c1.086,0 2.013,-0.146 2.781,-0.44c0.769,-0.294 1.425,-0.712 1.967,-1.255c0.565,-0.52 1.04,-1.153 1.425,-1.899c0.407,-0.747 0.757,-1.583 1.051,-2.51l0.645,-1.899l-14.311,-38.254Z" style="fill-rule:nonzero;"/></g></g><g id="Void1" serif:id="Void"><g id="Logo"><path id="path88999" d="M454.441,207.42c-57.056,0.122 -112.636,18.147 -158.903,51.536l61.901,61.902c29.206,-17.866 62.766,-27.347 97.002,-27.405c103,-0 186.498,83.497 186.498,186.497c-0.083,34.224 -9.581,67.766 -27.455,96.952l62.018,62.019c33.379,-46.294 51.382,-101.899 51.469,-158.971c0,-150.514 -122.016,-272.53 -272.53,-272.53Z" style="fill:#abc2ab;fill-rule:nonzero;"/><path id="path89001" d="M613.345,700.944l-61.902,-61.901c-29.205,17.865 -62.765,27.346 -97.002,27.405c-102.999,-0 -186.497,-83.498 -186.497,-186.498c0.082,-34.224 9.581,-67.766 27.455,-96.952l-62.019,-62.018c-33.378,46.293 -51.381,101.898 -51.468,158.97c-0,150.514 122.015,272.53 272.529,272.53c57.057,-0.121 112.636,-18.147 158.904,-51.536Z" style="fill:#478061;fill-rule:nonzero;"/><circle id="circle89003" cx="454.398" cy="479.95" r="86.765" style="fill:#abc2ab;"/><path id="path89005" d="M202.137,530.645c-2.972,2.123 -5.678,3.185 -8.119,3.185l-10.508,-0c-1.486,-0 -2.653,-0.266 -3.503,-0.796c-0.849,-0.531 -1.539,-1.327 -2.069,-2.389l-53.812,-99.982c-0.213,-0.212 -0.319,-0.477 -0.319,-0.796l0,-0.955c0,-1.062 0.372,-1.911 1.115,-2.547c0.849,-0.743 2.176,-1.115 3.98,-1.115l65.434,0c3.503,0 5.785,1.061 6.846,3.184l33.115,63.842l92.818,-63.842c3.078,-2.123 6.315,-3.184 9.712,-3.184l10.348,0c1.38,0 2.07,0.584 2.07,1.751c-0,0.956 -0.849,2.123 -2.547,3.503l-144.561,100.141Z" style="fill-rule:nonzero;"/><path id="path89007" d="M346.543,533.83c-5.519,-0 -10.401,-0.85 -14.647,-2.548c-4.245,-1.804 -7.801,-4.245 -10.667,-7.323c-2.865,-3.078 -5.041,-6.687 -6.527,-10.826c-1.486,-4.246 -2.229,-8.81 -2.229,-13.692c0,-6.262 1.061,-12.418 3.184,-18.468c2.123,-6.05 5.042,-11.835 8.757,-17.354c3.821,-5.519 8.278,-10.614 13.373,-15.284c5.201,-4.67 10.826,-8.703 16.876,-12.1c6.156,-3.396 12.63,-6.049 19.423,-7.96c6.793,-2.017 13.745,-3.025 20.856,-3.025l78.012,0c5.625,0 10.561,0.849 14.806,2.547c4.352,1.699 7.961,4.087 10.826,7.165c2.866,2.972 5.042,6.527 6.528,10.667c1.486,4.139 2.229,8.65 2.229,13.532c-0,6.262 -1.115,12.472 -3.343,18.628c-2.123,6.049 -5.095,11.834 -8.916,17.353c-3.821,5.519 -8.332,10.667 -13.533,15.443c-5.2,4.67 -10.879,8.757 -17.035,12.259c-6.156,3.397 -12.63,6.103 -19.423,8.12c-6.793,1.91 -13.639,2.866 -20.538,2.866l-78.012,-0Zm95.843,-65.116c3.503,-7.43 5.254,-13.002 5.254,-16.717c0,-3.078 -1.114,-5.201 -3.343,-6.368c-2.123,-1.168 -5.307,-1.752 -9.553,-1.752l-21.652,0c-3.078,0 -5.944,0.425 -8.597,1.274c-2.547,0.743 -4.936,2.07 -7.164,3.98c-2.229,1.911 -4.405,4.458 -6.528,7.642c-2.017,3.184 -4.086,7.164 -6.209,11.941l-7.642,17.353c-4.033,9.022 -6.05,15.815 -6.05,20.379c0,3.078 0.902,5.307 2.707,6.687c1.804,1.273 4.404,1.91 7.801,1.91l21.811,0c3.291,0 6.315,-0.478 9.075,-1.433c2.76,-1.061 5.413,-2.706 7.96,-4.935c2.548,-2.229 4.989,-5.201 7.324,-8.916c2.335,-3.715 4.723,-8.279 7.164,-13.692l7.642,-17.353Z" style="fill-rule:nonzero;"/><path id="path89009" d="M496.151,533.83c-1.91,-0 -2.866,-0.637 -2.866,-1.911c0,-0.637 0.16,-1.433 0.478,-2.388l44.737,-100.142c1.274,-2.759 3.291,-4.139 6.05,-4.139l54.767,0c2.017,0 3.025,0.69 3.025,2.07c0,0.637 -0.212,1.327 -0.636,2.069l-44.578,100.142c-1.274,2.866 -3.291,4.299 -6.05,4.299l-54.927,-0Z" style="fill-rule:nonzero;"/><path id="path89011" d="M574.429,533.83c-1.911,-0 -2.866,-0.637 -2.866,-1.911c0,-0.637 0.159,-1.433 0.478,-2.388l44.737,-100.142c1.274,-2.759 3.29,-4.139 6.05,-4.139l128.003,0c5.519,0 10.401,0.849 14.647,2.547c4.245,1.699 7.801,4.087 10.667,7.165c2.865,2.972 5.041,6.527 6.527,10.667c1.486,4.139 2.229,8.65 2.229,13.532c0,6.475 -1.114,12.843 -3.343,19.105c-2.229,6.156 -5.307,11.994 -9.234,17.513c-3.821,5.519 -8.385,10.614 -13.692,15.284c-5.201,4.67 -10.879,8.703 -17.035,12.1c-6.05,3.29 -12.418,5.89 -19.105,7.801c-6.687,1.91 -13.374,2.866 -20.06,2.866l-128.003,-0Zm138.51,-65.116c3.397,-7.642 5.095,-13.215 5.095,-16.717c0,-3.078 -1.061,-5.201 -3.184,-6.368c-2.123,-1.168 -5.201,-1.752 -9.234,-1.752l-32.319,0l-31.523,71.166l32.16,0c3.184,0 6.156,-0.478 8.915,-1.433c2.76,-1.061 5.36,-2.706 7.801,-4.935c2.548,-2.335 4.989,-5.307 7.324,-8.916c2.441,-3.715 4.882,-8.279 7.323,-13.692l7.642,-17.353Z" style="fill-rule:nonzero;"/></g><g id="Void2" serif:id="Void"><path id="path89005-6" d="M149.651,1198.31c-3.586,2.561 -6.852,3.842 -9.798,3.842l-12.679,0c-1.793,0 -3.202,-0.32 -4.227,-0.96c-1.024,-0.64 -1.857,-1.601 -2.497,-2.882l-64.935,-120.647c-0.256,-0.257 -0.383,-0.577 -0.383,-0.961l-0,-1.153c-0,-1.281 0.448,-2.305 1.344,-3.074c1.024,-0.896 2.626,-1.344 4.803,-1.344l78.959,-0c4.227,-0 6.98,1.28 8.261,3.842l39.96,77.038l112.002,-77.038c3.714,-2.562 7.621,-3.842 11.719,-3.842l12.488,-0c1.665,-0 2.497,0.704 2.497,2.113c0,1.152 -1.024,2.561 -3.074,4.226l-174.44,120.84Z" style="fill:#fff;fill-rule:nonzero;"/><path id="path89007-1" d="M323.905,1202.16c-6.66,0 -12.552,-1.025 -17.675,-3.074c-5.123,-2.177 -9.413,-5.123 -12.871,-8.837c-3.458,-3.714 -6.084,-8.069 -7.877,-13.064c-1.793,-5.123 -2.69,-10.63 -2.69,-16.522c0,-7.556 1.281,-14.984 3.843,-22.285c2.561,-7.3 6.083,-14.28 10.566,-20.94c4.611,-6.66 9.99,-12.808 16.137,-18.443c6.276,-5.635 13.064,-10.502 20.365,-14.601c7.428,-4.098 15.241,-7.3 23.437,-9.606c8.197,-2.433 16.586,-3.65 25.167,-3.65l94.136,0c6.788,0 12.744,1.025 17.867,3.074c5.251,2.049 9.606,4.931 13.064,8.645c3.458,3.586 6.083,7.877 7.876,12.872c1.793,4.995 2.69,10.438 2.69,16.33c-0,7.556 -1.345,15.049 -4.034,22.477c-2.562,7.3 -6.148,14.28 -10.759,20.94c-4.611,6.66 -10.054,12.872 -16.33,18.635c-6.275,5.636 -13.127,10.567 -20.556,14.793c-7.428,4.099 -15.241,7.365 -23.438,9.798c-8.196,2.306 -16.457,3.458 -24.782,3.458l-94.136,0Zm115.652,-78.575c4.227,-8.965 6.34,-15.689 6.34,-20.172c0,-3.714 -1.345,-6.275 -4.034,-7.684c-2.562,-1.409 -6.404,-2.113 -11.527,-2.113l-26.128,-0c-3.714,-0 -7.172,0.512 -10.374,1.537c-3.074,0.896 -5.955,2.497 -8.645,4.802c-2.689,2.306 -5.315,5.38 -7.877,9.222c-2.433,3.842 -4.931,8.645 -7.492,14.408l-9.222,20.941c-4.866,10.886 -7.3,19.083 -7.3,24.591c0,3.714 1.089,6.403 3.266,8.068c2.177,1.537 5.315,2.306 9.414,2.306l26.319,-0c3.971,-0 7.621,-0.577 10.951,-1.729c3.33,-1.281 6.532,-3.266 9.606,-5.956c3.073,-2.689 6.019,-6.276 8.837,-10.758c2.817,-4.483 5.699,-9.99 8.645,-16.522l9.221,-20.941Z" style="fill:#fff;fill-rule:nonzero;"/><path id="path89009-0" d="M504.435,1202.16c-2.305,0 -3.458,-0.769 -3.458,-2.305c-0,-0.769 0.192,-1.729 0.576,-2.882l53.984,-120.84c1.537,-3.33 3.971,-4.995 7.301,-4.995l66.087,0c2.433,0 3.65,0.833 3.65,2.498c0,0.768 -0.256,1.601 -0.769,2.497l-53.792,120.84c-1.537,3.458 -3.97,5.187 -7.3,5.187l-66.279,0Z" style="fill:#fff;fill-rule:nonzero;"/><path id="path89011-6" d="M598.892,1202.16c-2.305,0 -3.458,-0.769 -3.458,-2.305c-0,-0.769 0.192,-1.729 0.576,-2.882l53.984,-120.84c1.537,-3.33 3.971,-4.995 7.301,-4.995l154.459,0c6.66,0 12.552,1.025 17.675,3.074c5.123,2.049 9.414,4.931 12.872,8.645c3.458,3.586 6.083,7.877 7.876,12.872c1.793,4.995 2.69,10.438 2.69,16.33c-0,7.812 -1.345,15.497 -4.035,23.053c-2.689,7.429 -6.403,14.473 -11.142,21.133c-4.611,6.66 -10.118,12.807 -16.522,18.443c-6.276,5.635 -13.128,10.502 -20.556,14.601c-7.301,3.97 -14.985,7.108 -23.054,9.413c-8.069,2.305 -16.137,3.458 -24.206,3.458l-154.46,0Zm167.139,-78.575c4.099,-9.221 6.148,-15.945 6.148,-20.172c-0,-3.714 -1.281,-6.275 -3.842,-7.684c-2.562,-1.409 -6.276,-2.113 -11.143,-2.113l-38.999,-0l-38.039,85.875l38.807,-0c3.843,-0 7.429,-0.577 10.759,-1.729c3.33,-1.281 6.468,-3.266 9.413,-5.956c3.074,-2.818 6.02,-6.404 8.838,-10.758c2.945,-4.483 5.891,-9.99 8.837,-16.522l9.221,-20.941Z" style="fill:#fff;fill-rule:nonzero;"/></g></g></g></svg>