<?xml version="1.0" encoding="UTF-8" standalone="no"?><!DOCTYPE svg PUBLIC "-//W3C//DTD SVG 1.1//EN" "http://www.w3.org/Graphics/SVG/1.1/DTD/svg11.dtd"><svg width="100%" height="100%" viewBox="0 0 907 1352" version="1.1" xmlns="http://www.w3.org/2000/svg" xmlns:xlink="http://www.w3.org/1999/xlink" xml:space="preserve" xmlns:serif="http://www.serif.com/" style="fill-rule:evenodd;clip-rule:evenodd;stroke-linejoin:round;"><rect id="Xubuntu" x="0" y="-0" width="906.667" height="1351.11" style="fill:none;"/><clipPath id="_clip1"><rect x="0" y="-0" width="906.667" height="1351.11"/></clipPath><g clip-path="url(#_clip1)"><g id="READ-ME" serif:id="READ ME"><path id="Frame" d="M897.778,363.221c-0,-195.561 -158.771,-354.332 -354.333,-354.332l-180.224,-0c-195.561,-0 -354.332,158.771 -354.332,354.332l-0,624.669c-0,195.561 158.771,354.332 354.332,354.332l180.224,0c195.562,0 354.333,-158.771 354.333,-354.332l-0,-624.669Z" style="fill:#fff;stroke:#000;stroke-width:17.78px;"/><path id="Bottom" d="M895.371,1141.21c-0,-107.643 -87.393,-195.036 -195.036,-195.036l-494.004,0c-107.643,0 -195.035,87.393 -195.035,195.036c-0,107.643 87.392,195.036 195.035,195.036l494.004,-0c107.643,-0 195.036,-87.393 195.036,-195.036Z" style="stroke:#000;stroke-width:15.52px;"/><g id="Powered-By" serif:id="Powered By"><path id="path12547" d="M59.75,886.702l2.069,0c2.962,0 5.189,-0.588 6.681,-1.763c1.515,-1.176 2.272,-3.087 2.272,-5.732c-0,-2.464 -0.678,-4.284 -2.035,-5.46c-1.334,-1.176 -3.436,-1.763 -6.308,-1.763l-2.679,-0l0,14.718Zm21.671,-7.868c-0,2.171 -0.328,4.251 -0.984,6.24c-0.655,1.99 -1.741,3.742 -3.255,5.257c-1.493,1.515 -3.471,2.724 -5.935,3.628c-2.442,0.905 -5.472,1.357 -9.089,1.357l-2.408,-0l0,17.635l-10.513,-0l0,-49.581l13.769,-0c3.188,-0 5.935,0.362 8.241,1.085c2.328,0.701 4.239,1.718 5.731,3.052c1.515,1.312 2.634,2.928 3.358,4.85c0.723,1.899 1.085,4.058 1.085,6.477l-0,0Z" style="fill-rule:nonzero;"/><path id="path12549" d="M98.581,893.926c-0,3.775 0.531,6.624 1.594,8.546c1.062,1.899 2.792,2.848 5.189,2.848c2.373,0 4.092,-0.96 5.154,-2.882c1.063,-1.922 1.594,-4.759 1.594,-8.512c0,-3.776 -0.531,-6.591 -1.594,-8.445c-1.062,-1.876 -2.803,-2.815 -5.222,-2.815c-2.374,0 -4.093,0.939 -5.155,2.815c-1.04,1.854 -1.56,4.669 -1.56,8.445Zm24.078,-0c0,3.165 -0.407,5.968 -1.221,8.41c-0.791,2.442 -1.944,4.499 -3.459,6.172c-1.492,1.673 -3.323,2.951 -5.494,3.832c-2.148,0.86 -4.567,1.289 -7.257,1.289c-2.51,0 -4.816,-0.429 -6.918,-1.289c-2.103,-0.881 -3.923,-2.159 -5.46,-3.832c-1.515,-1.673 -2.702,-3.73 -3.561,-6.172c-0.859,-2.442 -1.289,-5.245 -1.289,-8.41c-0,-3.143 0.396,-5.935 1.187,-8.377c0.814,-2.442 1.967,-4.488 3.459,-6.138c1.515,-1.673 3.346,-2.939 5.494,-3.799c2.148,-0.859 4.578,-1.288 7.291,-1.288c2.51,-0 4.816,0.429 6.919,1.288c2.102,0.86 3.911,2.126 5.426,3.799c1.537,1.65 2.735,3.696 3.595,6.138c0.859,2.442 1.288,5.234 1.288,8.377Z" style="fill-rule:nonzero;"/><path id="path12551" d="M160.54,912.951l-2.916,-13.26c-0.091,-0.384 -0.215,-0.927 -0.373,-1.628c-0.136,-0.724 -0.294,-1.526 -0.475,-2.408c-0.181,-0.904 -0.373,-1.854 -0.576,-2.849c-0.181,-1.017 -0.373,-2.023 -0.577,-3.018c-0.452,-2.329 -0.95,-4.838 -1.492,-7.529l-0.204,0c-0.52,2.691 -0.994,5.212 -1.424,7.563c-0.181,0.995 -0.373,2.001 -0.576,3.018c-0.181,1.018 -0.362,1.979 -0.543,2.883c-0.181,0.882 -0.35,1.684 -0.509,2.408c-0.135,0.723 -0.248,1.289 -0.339,1.695l-3.052,13.125l-11.124,-0l-10.208,-37.915l10.276,-0l3.832,16.787c0.204,0.882 0.407,1.944 0.611,3.188c0.226,1.221 0.429,2.464 0.61,3.73c0.204,1.244 0.384,2.431 0.543,3.561c0.158,1.108 0.282,1.99 0.373,2.645l0.203,0c0.023,-0.43 0.068,-0.983 0.136,-1.661c0.09,-0.701 0.192,-1.447 0.305,-2.239c0.113,-0.791 0.226,-1.594 0.339,-2.408c0.136,-0.836 0.26,-1.616 0.373,-2.34c0.136,-0.723 0.249,-1.356 0.339,-1.899c0.113,-0.565 0.204,-0.961 0.272,-1.187l4.137,-18.177l11.395,-0l3.968,18.177c0.113,0.498 0.26,1.267 0.441,2.306c0.181,1.04 0.361,2.16 0.542,3.358c0.204,1.176 0.373,2.329 0.509,3.459c0.136,1.108 0.215,1.978 0.237,2.611l0.204,0c0.068,-0.565 0.181,-1.402 0.339,-2.509c0.181,-1.108 0.373,-2.295 0.576,-3.561c0.204,-1.289 0.419,-2.566 0.645,-3.832c0.249,-1.266 0.475,-2.34 0.678,-3.222l3.968,-16.787l10.14,-0l-10.343,37.915l-11.26,-0Z" style="fill-rule:nonzero;"/><path id="path12553" d="M202.898,881.683c-1.831,-0 -3.357,0.644 -4.578,1.933c-1.198,1.289 -1.888,3.312 -2.069,6.07l13.192,0c-0.022,-1.153 -0.169,-2.215 -0.441,-3.187c-0.271,-0.973 -0.678,-1.809 -1.22,-2.51c-0.543,-0.724 -1.221,-1.289 -2.035,-1.696c-0.814,-0.407 -1.764,-0.61 -2.849,-0.61l0,-0Zm1.323,31.946c-2.713,0 -5.212,-0.395 -7.495,-1.187c-2.284,-0.791 -4.251,-1.978 -5.901,-3.561c-1.65,-1.605 -2.939,-3.617 -3.866,-6.036c-0.905,-2.442 -1.357,-5.302 -1.357,-8.58c0,-3.324 0.419,-6.229 1.255,-8.716c0.837,-2.487 2.001,-4.556 3.493,-6.206c1.515,-1.673 3.324,-2.928 5.426,-3.765c2.126,-0.836 4.477,-1.254 7.054,-1.254c2.51,-0 4.771,0.384 6.783,1.152c2.035,0.747 3.753,1.855 5.155,3.324c1.424,1.47 2.509,3.278 3.255,5.426c0.769,2.125 1.153,4.567 1.153,7.325l0,5.019l-23.128,0c0.044,1.447 0.271,2.759 0.678,3.934c0.429,1.153 1.017,2.137 1.763,2.951c0.769,0.791 1.685,1.402 2.747,1.831c1.086,0.43 2.318,0.645 3.697,0.645c1.153,-0 2.238,-0.057 3.256,-0.17c1.04,-0.136 2.046,-0.328 3.018,-0.576c0.972,-0.249 1.933,-0.554 2.882,-0.916c0.95,-0.384 1.922,-0.825 2.917,-1.322l-0,8.003c-0.904,0.475 -1.82,0.882 -2.747,1.221c-0.904,0.317 -1.865,0.588 -2.883,0.814c-1.017,0.226 -2.114,0.384 -3.289,0.475c-1.176,0.113 -2.465,0.17 -3.866,0.17l-0,-0.001Z" style="fill-rule:nonzero;"/><path id="path12555" d="M247.698,874.324c0.271,-0 0.565,0.011 0.881,0.035c0.339,0 0.656,0.024 0.95,0.071c0.316,0.024 0.599,0.059 0.848,0.106c0.271,0.024 0.474,0.059 0.61,0.107l-0,9.699c-0.181,-0.047 -0.43,-0.093 -0.746,-0.136c-0.317,-0.047 -0.656,-0.083 -1.018,-0.106c-0.339,-0.048 -0.678,-0.071 -1.017,-0.071c-0.339,-0.024 -0.622,-0.036 -0.848,-0.036c-1.334,0 -2.566,0.17 -3.696,0.509c-1.108,0.34 -2.069,0.894 -2.883,1.662c-0.791,0.747 -1.413,1.741 -1.865,2.984c-0.43,1.221 -0.645,2.725 -0.645,4.511l0,19.297l-10.343,-0l-0,-37.915l7.834,-0l1.526,5.697l0.509,0c0.542,-0.972 1.13,-1.854 1.763,-2.645c0.633,-0.791 1.334,-1.458 2.103,-2.001c0.791,-0.565 1.673,-0.995 2.645,-1.289c0.995,-0.316 2.125,-0.475 3.391,-0.475l0.001,-0.004Z" style="fill-rule:nonzero;"/><path id="path12557" d="M273.404,881.683c-1.832,-0 -3.358,0.644 -4.579,1.933c-1.198,1.289 -1.887,3.312 -2.068,6.07l13.192,0c-0.023,-1.153 -0.17,-2.215 -0.441,-3.187c-0.271,-0.973 -0.678,-1.809 -1.221,-2.51c-0.542,-0.724 -1.221,-1.289 -2.035,-1.696c-0.813,-0.407 -1.763,-0.61 -2.848,-0.61l-0,-0Zm1.322,31.946c-2.713,0 -5.211,-0.395 -7.494,-1.187c-2.284,-0.791 -4.251,-1.978 -5.901,-3.561c-1.651,-1.605 -2.94,-3.617 -3.866,-6.036c-0.905,-2.442 -1.357,-5.302 -1.357,-8.58c-0,-3.324 0.418,-6.229 1.255,-8.716c0.836,-2.487 2.001,-4.556 3.493,-6.206c1.515,-1.673 3.323,-2.928 5.426,-3.765c2.125,-0.836 4.477,-1.254 7.054,-1.254c2.51,-0 4.77,0.384 6.783,1.152c2.034,0.747 3.753,1.855 5.154,3.324c1.425,1.47 2.51,3.278 3.256,5.426c0.769,2.125 1.153,4.567 1.153,7.325l0,5.019l-23.129,0c0.045,1.447 0.271,2.759 0.679,3.934c0.429,1.153 1.017,2.137 1.763,2.951c0.769,0.791 1.684,1.402 2.747,1.831c1.085,0.43 2.317,0.645 3.697,0.645c1.153,-0 2.238,-0.057 3.255,-0.17c1.04,-0.136 2.046,-0.328 3.018,-0.576c0.973,-0.249 1.934,-0.554 2.883,-0.916c0.95,-0.384 1.922,-0.825 2.917,-1.322l-0,8.003c-0.905,0.475 -1.82,0.882 -2.747,1.221c-0.905,0.317 -1.866,0.588 -2.883,0.814c-1.017,0.226 -2.114,0.384 -3.29,0.475c-1.175,0.113 -2.464,0.17 -3.866,0.17l0,-0.001Z" style="fill-rule:nonzero;"/><path id="path12559" d="M309.589,913.629c-1.944,0 -3.719,-0.418 -5.324,-1.255c-1.605,-0.836 -2.985,-2.068 -4.138,-3.696c-1.153,-1.651 -2.057,-3.697 -2.713,-6.138c-0.633,-2.442 -0.949,-5.268 -0.949,-8.479c-0,-3.255 0.316,-6.104 0.949,-8.546c0.656,-2.464 1.572,-4.522 2.747,-6.172c1.199,-1.673 2.623,-2.928 4.273,-3.765c1.651,-0.836 3.471,-1.254 5.46,-1.254c1.221,-0 2.34,0.146 3.358,0.44c1.017,0.272 1.933,0.668 2.747,1.187c0.814,0.498 1.537,1.086 2.17,1.764c0.656,0.656 1.232,1.379 1.73,2.17l0.339,0c-0.136,-0.882 -0.26,-1.775 -0.373,-2.679c-0.113,-0.769 -0.215,-1.582 -0.305,-2.442c-0.068,-0.882 -0.102,-1.695 -0.102,-2.442l0,-12.141l10.344,0l-0,52.77l-7.902,-0l-2.001,-4.918l-0.441,0c-0.475,0.769 -1.017,1.503 -1.628,2.205c-0.61,0.677 -1.323,1.265 -2.136,1.763c-0.792,0.498 -1.696,0.893 -2.713,1.187c-0.995,0.294 -2.126,0.44 -3.392,0.44l0,0.001Zm3.765,-8.241c1.22,0 2.26,-0.203 3.12,-0.61c0.859,-0.43 1.548,-1.063 2.068,-1.899c0.543,-0.86 0.939,-1.922 1.187,-3.188c0.272,-1.266 0.419,-2.747 0.441,-4.443l0,-1.12c0,-1.831 -0.113,-3.459 -0.339,-4.883c-0.226,-1.425 -0.599,-2.612 -1.119,-3.561c-0.52,-0.972 -1.221,-1.707 -2.103,-2.204c-0.881,-0.498 -1.989,-0.747 -3.323,-0.747c-2.171,0 -3.764,0.984 -4.782,2.951c-1.017,1.944 -1.526,4.781 -1.526,8.512c0,3.73 0.509,6.534 1.526,8.41c1.04,1.854 2.657,2.781 4.85,2.781l-0,0.001Z" style="fill-rule:nonzero;"/><path id="path12561" d="M378.908,874.324c1.944,-0 3.719,0.418 5.324,1.254c1.606,0.837 2.985,2.08 4.138,3.731c1.153,1.65 2.046,3.697 2.679,6.138c0.656,2.442 0.983,5.268 0.983,8.479c0,3.255 -0.327,6.115 -0.983,8.58c-0.633,2.441 -1.538,4.487 -2.713,6.138c-1.176,1.65 -2.589,2.894 -4.239,3.73c-1.651,0.837 -3.471,1.255 -5.46,1.255c-1.266,0 -2.397,-0.136 -3.392,-0.407c-0.972,-0.272 -1.842,-0.634 -2.611,-1.086c-0.769,-0.452 -1.447,-0.96 -2.035,-1.526c-0.565,-0.588 -1.085,-1.198 -1.56,-1.831l-0.712,-0l-1.73,4.171l-7.901,0l-0,-52.769l10.343,0l0,12.277c0,0.746 -0.022,1.56 -0.067,2.442c-0.045,0.859 -0.09,1.661 -0.136,2.407c-0.068,0.882 -0.135,1.764 -0.203,2.646l0.407,-0c0.474,-0.792 1.017,-1.526 1.627,-2.205c0.611,-0.678 1.312,-1.266 2.103,-1.763c0.814,-0.52 1.73,-0.927 2.747,-1.221c1.017,-0.294 2.148,-0.441 3.391,-0.441l-0,0.001Zm-3.493,8.275c-1.153,-0 -2.137,0.215 -2.951,0.644c-0.791,0.408 -1.435,1.029 -1.933,1.866c-0.497,0.836 -0.859,1.899 -1.085,3.188c-0.226,1.266 -0.362,2.746 -0.407,4.442l0,1.12c0,1.831 0.102,3.459 0.305,4.883c0.226,1.425 0.588,2.623 1.086,3.595c0.497,0.95 1.153,1.673 1.967,2.171c0.836,0.497 1.865,0.746 3.086,0.746c2.057,-0 3.561,-0.972 4.51,-2.917c0.972,-1.967 1.458,-4.815 1.458,-8.546c0,-3.73 -0.486,-6.522 -1.458,-8.376c-0.949,-1.877 -2.476,-2.815 -4.578,-2.815l-0,-0.001Z" style="fill-rule:nonzero;"/><path id="path12563" d="M395.492,875.036l11.327,-0l6.104,21.331c0.361,1.176 0.621,2.431 0.779,3.765c0.182,1.334 0.295,2.532 0.339,3.594l0.204,0c0.047,-0.519 0.104,-1.096 0.17,-1.729c0.09,-0.633 0.192,-1.278 0.304,-1.933c0.114,-0.656 0.238,-1.3 0.374,-1.933c0.158,-0.656 0.316,-1.244 0.474,-1.764l5.969,-21.331l11.395,-0l-14.99,42.764c-1.401,4.002 -3.312,6.975 -5.731,8.92c-2.419,1.944 -5.449,2.916 -9.089,2.916c-1.175,0 -2.193,-0.068 -3.052,-0.203c-0.859,-0.113 -1.594,-0.238 -2.204,-0.373l-0,-8.207c0.475,0.113 1.074,0.215 1.797,0.305c0.724,0.09 1.481,0.135 2.272,0.135c1.086,0 2.013,-0.146 2.781,-0.44c0.769,-0.294 1.425,-0.712 1.967,-1.255c0.565,-0.52 1.04,-1.153 1.425,-1.899c0.407,-0.747 0.757,-1.583 1.051,-2.51l0.645,-1.899l-14.311,-38.254Z" style="fill-rule:nonzero;"/></g></g><g id="Xubuntu1" serif:id="Xubuntu"><g id="Logo"><circle id="path12878" cx="452.546" cy="487.485" r="332.328" style="fill:#04a;"/><path id="path12949" d="M355.975,339.21c-4.803,23.838 2.099,51.125 11.749,84.12c0.582,1.991 -0.547,4.538 -1.566,4.835c-4.381,1.276 -11.893,-0.082 -13.347,-3.067c-7.518,-15.438 -11.094,-31.226 -19.877,-46.424c-6.075,-10.513 -12.36,-20.544 -19.846,-27.326c-9.092,-8.239 -16.217,-9.858 -25.946,-5.793c-12.274,5.127 -19.688,17.421 -22.231,28.446c-2.581,11.187 -1.501,24.102 0.518,35.309c2.376,13.191 5.4,23.601 9.286,35.944c-2.965,8.767 -20.809,56.881 -25.124,90.237c-5.538,42.82 -21.114,172.381 121.647,157.977c52.655,-5.313 95.563,-23.767 136.167,-42.701c18.607,-8.676 41.949,-19.869 64.389,-32.194c22.45,-12.331 43.277,-25.474 59.196,-39.464c15.944,-14.013 27.558,-29.363 25.443,-44.656c-3.407,-24.647 -19.753,-42.969 -41.541,-57.119c-21.869,-14.203 -59.211,-27.401 -86.199,-35.287c-35.412,-10.346 -62.826,-14.368 -96.062,-16.176c-1.861,-33.672 2.627,-77.982 -18.694,-103.796c-4.938,-5.978 -12.136,-9.779 -20.77,-10.385c-13.876,0.559 -32.733,5.391 -37.192,27.52l0,-0Z" style="fill:#fff;fill-rule:nonzero;"/><path id="path12953" d="M523.644,399.416c-0.357,8.294 1.378,26.178 12.246,27.556c12.956,1.531 17.115,-9.137 18.527,-17.474c4.495,-26.535 5.744,-34.467 7.99,-58.51c2.647,-28.337 9.607,-76.138 -2.559,-71.681c-12.325,4.516 -22.115,42.697 -25.322,58.698c-2.498,12.466 -10.266,47.168 -10.882,61.411l0,-0Z" style="fill:#fff;fill-rule:nonzero;"/><path id="path12955" d="M580.398,405.43c-7.097,16.565 -10.454,30.875 -0.646,35.736c11.69,5.794 21.793,-5.424 25.08,-13.215c9.915,-23.495 15.403,-37.719 23.052,-55.488c11.253,-26.142 39.338,-76.359 20.802,-73.695c-12.993,1.866 -30.47,34.871 -38.854,48.872c-10.809,17.983 -19.212,33.931 -29.434,57.79l-0,-0Z" style="fill:#fff;fill-rule:nonzero;"/></g><g id="Xubuntu2" serif:id="Xubuntu"><path id="path81763" d="M156.655,1216.57c-2.083,-4.166 -4.583,-8.75 -7.5,-13.75c-2.917,-5.139 -6.111,-10.416 -9.583,-15.833c-3.473,-5.556 -7.084,-11.042 -10.834,-16.458c-3.75,-5.556 -7.361,-10.764 -10.833,-15.625c-3.472,4.861 -7.083,10.069 -10.833,15.625c-3.75,5.416 -7.361,10.902 -10.834,16.458c-3.333,5.417 -6.527,10.694 -9.583,15.833c-2.917,5 -5.417,9.584 -7.5,13.75l-22.292,0c6.25,-12.222 13.473,-24.653 21.667,-37.291c8.333,-12.639 17.153,-25.625 26.458,-38.959l-46.25,-68.125l23.334,0l35.625,53.75l35.208,-53.75l23.125,0l-45.417,67.292c9.445,13.472 18.334,26.597 26.667,39.375c8.333,12.778 15.695,25.347 22.083,37.708l-22.708,0Z" style="fill:#fefeff;fill-rule:nonzero;stroke:#fff;stroke-width:4.91px;stroke-linejoin:miter;"/><path id="path81765" d="M284.364,1213.44c-4.445,1.111 -10.348,2.292 -17.709,3.542c-7.222,1.25 -15.625,1.875 -25.208,1.875c-8.334,-0 -15.347,-1.181 -21.042,-3.542c-5.694,-2.5 -10.278,-5.972 -13.75,-10.416c-3.472,-4.445 -5.972,-9.653 -7.5,-15.625c-1.528,-6.112 -2.292,-12.848 -2.292,-20.209l0,-60.833l19.375,-0l0,56.667c0,13.194 2.084,22.639 6.25,28.333c4.167,5.694 11.181,8.542 21.042,8.542c2.083,-0 4.236,-0.07 6.458,-0.209c2.223,-0.139 4.306,-0.278 6.25,-0.416c1.945,-0.278 3.681,-0.487 5.209,-0.625c1.667,-0.278 2.847,-0.556 3.542,-0.834l-0,-91.458l19.375,-0l-0,105.208Z" style="fill:#fefeff;fill-rule:nonzero;stroke:#fff;stroke-width:4.91px;stroke-linejoin:miter;"/><path id="path81767" d="M337.072,1113.03c2.361,-1.528 5.903,-3.125 10.625,-4.792c4.861,-1.667 10.416,-2.5 16.666,-2.5c7.778,-0 14.653,1.389 20.625,4.167c6.112,2.777 11.25,6.666 15.417,11.666c4.167,5 7.292,10.972 9.375,17.917c2.222,6.944 3.333,14.583 3.333,22.917c0,8.75 -1.319,16.666 -3.958,23.75c-2.5,6.944 -6.111,12.847 -10.833,17.708c-4.722,4.861 -10.417,8.611 -17.084,11.25c-6.666,2.639 -14.166,3.958 -22.5,3.958c-9.027,0 -17.013,-0.625 -23.958,-1.875c-6.944,-1.25 -12.639,-2.5 -17.083,-3.75l-0,-155.208l19.375,-3.333l-0,58.125Zm-0,86.666c1.944,0.556 4.653,1.111 8.125,1.667c3.611,0.417 8.055,0.625 13.333,0.625c10.417,-0 18.75,-3.403 25,-10.208c6.25,-6.945 9.375,-16.737 9.375,-29.375c0,-5.556 -0.555,-10.764 -1.667,-15.625c-1.111,-4.862 -2.916,-9.028 -5.416,-12.5c-2.5,-3.612 -5.764,-6.389 -9.792,-8.334c-3.889,-2.083 -8.611,-3.125 -14.167,-3.125c-5.277,0 -10.138,0.903 -14.583,2.709c-4.444,1.805 -7.847,3.68 -10.208,5.625l-0,68.541Z" style="fill:#fefeff;fill-rule:nonzero;stroke:#fff;stroke-width:4.91px;stroke-linejoin:miter;"/><path id="path81769" d="M526.655,1213.44c-4.444,1.111 -10.347,2.292 -17.708,3.542c-7.222,1.25 -15.625,1.875 -25.208,1.875c-8.334,-0 -15.348,-1.181 -21.042,-3.542c-5.694,-2.5 -10.278,-5.972 -13.75,-10.416c-3.472,-4.445 -5.972,-9.653 -7.5,-15.625c-1.528,-6.112 -2.292,-12.848 -2.292,-20.209l0,-60.833l19.375,-0l0,56.667c0,13.194 2.084,22.639 6.25,28.333c4.167,5.694 11.181,8.542 21.042,8.542c2.083,-0 4.236,-0.07 6.458,-0.209c2.223,-0.139 4.306,-0.278 6.25,-0.416c1.945,-0.278 3.681,-0.487 5.209,-0.625c1.666,-0.278 2.847,-0.556 3.541,-0.834l0,-91.458l19.375,-0l0,105.208Z" style="fill:#fefeff;fill-rule:nonzero;stroke:#fff;stroke-width:4.91px;stroke-linejoin:miter;"/><path id="path81771" d="M559.989,1111.36c4.444,-1.111 10.347,-2.292 17.708,-3.542c7.361,-1.25 15.833,-1.875 25.417,-1.875c8.611,0 15.763,1.25 21.458,3.75c5.694,2.361 10.208,5.764 13.542,10.209c3.472,4.305 5.902,9.513 7.291,15.625c1.389,6.111 2.084,12.847 2.084,20.208l-0,60.833l-19.375,0l-0,-56.666c-0,-6.667 -0.486,-12.362 -1.459,-17.084c-0.833,-4.722 -2.291,-8.541 -4.375,-11.458c-2.083,-2.917 -4.861,-5 -8.333,-6.25c-3.472,-1.389 -7.778,-2.083 -12.917,-2.083c-2.083,-0 -4.236,0.069 -6.458,0.208c-2.222,0.139 -4.375,0.347 -6.458,0.625c-1.945,0.139 -3.75,0.347 -5.417,0.625c-1.528,0.278 -2.639,0.486 -3.333,0.625l-0,91.458l-19.375,0l-0,-105.208Z" style="fill:#fefeff;fill-rule:nonzero;stroke:#fff;stroke-width:4.91px;stroke-linejoin:miter;"/><path id="path81773" d="M697.697,1108.24l41.042,-0l-0,16.25l-41.042,-0l-0,50c-0,5.417 0.417,9.93 1.25,13.542c0.833,3.472 2.083,6.25 3.75,8.333c1.667,1.944 3.75,3.333 6.25,4.167c2.5,0.833 5.417,1.25 8.75,1.25c5.833,-0 10.486,-0.625 13.958,-1.875c3.611,-1.389 6.111,-2.361 7.5,-2.917l3.75,16.042c-1.944,0.972 -5.347,2.152 -10.208,3.541c-4.861,1.528 -10.417,2.292 -16.667,2.292c-7.361,-0 -13.472,-0.903 -18.333,-2.708c-4.722,-1.945 -8.542,-4.792 -11.458,-8.542c-2.917,-3.75 -5,-8.333 -6.25,-13.75c-1.112,-5.556 -1.667,-11.945 -1.667,-19.167l-0,-96.666l19.375,-3.334l-0,33.542Z" style="fill:#fefeff;fill-rule:nonzero;stroke:#fff;stroke-width:4.91px;stroke-linejoin:miter;"/><path id="path81775" d="M849.572,1213.44c-4.444,1.111 -10.347,2.292 -17.708,3.542c-7.223,1.25 -15.625,1.875 -25.209,1.875c-8.333,-0 -15.347,-1.181 -21.041,-3.542c-5.695,-2.5 -10.278,-5.972 -13.75,-10.416c-3.473,-4.445 -5.973,-9.653 -7.5,-15.625c-1.528,-6.112 -2.292,-12.848 -2.292,-20.209l-0,-60.833l19.375,-0l-0,56.667c-0,13.194 2.083,22.639 6.25,28.333c4.167,5.694 11.181,8.542 21.042,8.542c2.083,-0 4.236,-0.07 6.458,-0.209c2.222,-0.139 4.306,-0.278 6.25,-0.416c1.944,-0.278 3.681,-0.487 5.208,-0.625c1.667,-0.278 2.848,-0.556 3.542,-0.834l-0,-91.458l19.375,-0l-0,105.208Z" style="fill:#fefeff;fill-rule:nonzero;stroke:#fff;stroke-width:4.91px;stroke-linejoin:miter;"/></g></g></g></svg>