<?xml version="1.0" encoding="UTF-8" standalone="no"?><!DOCTYPE svg PUBLIC "-//W3C//DTD SVG 1.1//EN" "http://www.w3.org/Graphics/SVG/1.1/DTD/svg11.dtd"><svg width="100%" height="100%" viewBox="0 0 907 1352" version="1.1" xmlns="http://www.w3.org/2000/svg" xmlns:xlink="http://www.w3.org/1999/xlink" xml:space="preserve" xmlns:serif="http://www.serif.com/" style="fill-rule:evenodd;clip-rule:evenodd;stroke-linejoin:round;stroke-miterlimit:2;"><rect id="Zorin" x="-0" y="-0" width="906.667" height="1351.11" style="fill:none;"/><clipPath id="_clip1"><rect x="-0" y="-0" width="906.667" height="1351.11"/></clipPath><g clip-path="url(#_clip1)"><g><g id="Frame"><path id="path36023" d="M363.226,8.892l180.223,-0c196.3,-0 354.331,36.928 354.331,82.799l0,1167.73c0,45.871 -158.031,82.8 -354.331,82.8l-180.223,-0c-196.299,-0 -354.331,-36.929 -354.331,-82.8l0,-1167.73c0,-45.871 158.032,-82.799 354.331,-82.799Z" style="fill:#fff;fill-rule:nonzero;"/><path id="path36025" d="M363.234,-0c-98.707,-0 -187.781,9.234 -252.806,24.429c-32.512,7.598 -58.999,16.618 -78.086,27.198c-9.544,5.29 -17.286,10.978 -22.976,17.509c-5.69,6.53 -9.366,14.275 -9.366,22.561l-0,1167.72c-0,8.285 3.676,16.03 9.366,22.56c5.69,6.531 13.432,12.219 22.976,17.509c19.087,10.581 45.574,19.6 78.086,27.198c65.025,15.195 154.099,24.429 252.806,24.429l180.209,0c98.707,0 187.781,-9.234 252.806,-24.429c32.512,-7.598 58.999,-16.617 78.086,-27.198c9.544,-5.29 17.286,-10.978 22.976,-17.509c5.69,-6.53 9.366,-14.275 9.366,-22.56l-0,-1167.72c-0,-8.286 -3.676,-16.031 -9.366,-22.561c-5.69,-6.531 -13.432,-12.219 -22.976,-17.509c-19.087,-10.58 -45.574,-19.6 -78.086,-27.198c-65.025,-15.195 -154.099,-24.429 -252.806,-24.429l-180.209,-0Zm-0,17.786l180.209,-0c97.593,-0 185.703,9.231 248.769,23.968c31.533,7.368 56.818,16.176 73.496,25.421c8.339,4.622 14.481,9.365 18.201,13.633c3.719,4.269 4.982,7.706 4.982,10.889l0,1167.72c0,3.182 -1.263,6.619 -4.982,10.888c-3.72,4.269 -9.862,9.011 -18.201,13.633c-16.678,9.245 -41.963,18.053 -73.496,25.421c-63.066,14.738 -151.176,23.969 -248.769,23.969l-180.209,-0c-97.593,-0 -185.703,-9.231 -248.769,-23.969c-31.533,-7.368 -56.818,-16.176 -73.496,-25.421c-8.339,-4.622 -14.481,-9.364 -18.201,-13.633c-3.719,-4.269 -4.982,-7.706 -4.982,-10.888l-0,-1167.72c-0,-3.183 1.263,-6.62 4.982,-10.889c3.72,-4.268 9.862,-9.011 18.201,-13.633c16.678,-9.245 41.963,-18.053 73.496,-25.421c63.066,-14.737 151.176,-23.968 248.769,-23.968Z" style="fill-rule:nonzero;"/></g><g id="Bottom"><path id="path35979" d="M371.606,946.173l163.464,0c199.608,0 360.304,38.151 360.304,85.54l-0,218.99c-0,47.389 -160.696,85.54 -360.304,85.54l-163.464,-0c-199.609,-0 -360.304,-38.151 -360.304,-85.54l-0,-218.99c-0,-47.389 160.695,-85.54 360.304,-85.54Z" style="fill-rule:nonzero;"/><path id="path35981" d="M371.607,938.419c-100.298,0 -190.804,9.547 -256.796,25.214c-32.996,7.833 -59.838,17.123 -79.078,27.958c-19.241,10.836 -32.18,23.883 -32.18,40.116l-0,218.988c-0,16.233 12.939,29.303 32.18,40.139c19.24,10.835 46.082,20.125 79.078,27.958c65.992,15.667 156.498,25.214 256.796,25.214l163.463,0c100.298,0 190.804,-9.547 256.796,-25.214c32.996,-7.833 59.838,-17.123 79.078,-27.958c19.241,-10.836 32.18,-23.906 32.18,-40.139l0,-218.988c0,-16.233 -12.939,-29.28 -32.18,-40.116c-19.24,-10.835 -46.082,-20.125 -79.078,-27.958c-65.992,-15.667 -156.498,-25.214 -256.796,-25.214l-163.463,0Zm0,15.525l163.463,-0c99.309,-0 188.962,9.52 253.22,24.775c32.129,7.628 57.914,16.745 75.042,26.39c17.127,9.646 24.291,19.137 24.291,26.598l-0,218.988c-0,7.461 -7.164,16.952 -24.291,26.598c-17.128,9.645 -42.913,18.762 -75.042,26.39c-64.258,15.255 -153.911,24.798 -253.22,24.798l-163.463,0c-99.309,0 -188.962,-9.543 -253.22,-24.798c-32.129,-7.628 -57.914,-16.745 -75.042,-26.39c-17.127,-9.646 -24.291,-19.137 -24.291,-26.598l0,-218.988c0,-7.461 7.164,-16.952 24.291,-26.598c17.128,-9.645 42.913,-18.762 75.042,-26.39c64.258,-15.255 153.911,-24.775 253.22,-24.775Z" style="fill-rule:nonzero;"/></g><g id="Powered-By" serif:id="Powered By"><path id="path12547" d="M59.756,886.701l2.069,0c2.962,0 5.189,-0.588 6.681,-1.763c1.515,-1.176 2.272,-3.086 2.272,-5.732c-0,-2.464 -0.678,-4.284 -2.035,-5.46c-1.334,-1.175 -3.436,-1.763 -6.308,-1.763l-2.679,-0l0,14.718Zm21.671,-7.868c-0,2.171 -0.328,4.251 -0.984,6.24c-0.656,1.99 -1.741,3.742 -3.256,5.257c-1.492,1.515 -3.47,2.724 -5.934,3.629c-2.442,0.904 -5.472,1.356 -9.089,1.356l-2.408,0l0,17.635l-10.513,-0l0,-49.581l13.769,-0c3.188,-0 5.935,0.362 8.241,1.085c2.328,0.701 4.239,1.719 5.731,3.053c1.515,1.311 2.634,2.927 3.357,4.849c0.724,1.899 1.086,4.058 1.086,6.478l-0,-0.001Z" style="fill-rule:nonzero;"/><path id="path12549" d="M98.587,893.925c-0,3.775 0.531,6.624 1.594,8.546c1.062,1.899 2.792,2.848 5.188,2.848c2.374,0 4.093,-0.96 5.155,-2.882c1.063,-1.922 1.594,-4.759 1.594,-8.512c0,-3.776 -0.531,-6.591 -1.594,-8.445c-1.062,-1.876 -2.803,-2.814 -5.223,-2.814c-2.373,-0 -4.092,0.938 -5.154,2.814c-1.04,1.854 -1.56,4.669 -1.56,8.445Zm24.078,-0c0,3.165 -0.407,5.968 -1.221,8.41c-0.791,2.442 -1.944,4.499 -3.459,6.172c-1.492,1.673 -3.323,2.951 -5.494,3.833c-2.148,0.859 -4.567,1.288 -7.257,1.288c-2.51,0 -4.816,-0.429 -6.919,-1.288c-2.102,-0.882 -3.922,-2.16 -5.46,-3.833c-1.514,-1.673 -2.701,-3.73 -3.56,-6.172c-0.86,-2.442 -1.289,-5.245 -1.289,-8.41c-0,-3.143 0.395,-5.935 1.187,-8.377c0.814,-2.442 1.967,-4.488 3.459,-6.138c1.515,-1.673 3.346,-2.939 5.494,-3.798c2.148,-0.86 4.578,-1.289 7.291,-1.289c2.51,-0 4.816,0.429 6.918,1.289c2.103,0.859 3.912,2.125 5.427,3.798c1.537,1.65 2.735,3.696 3.594,6.138c0.859,2.442 1.289,5.234 1.289,8.377Z" style="fill-rule:nonzero;"/><path id="path12551" d="M160.546,912.95l-2.917,-13.26c-0.09,-0.384 -0.214,-0.927 -0.373,-1.628c-0.135,-0.724 -0.293,-1.526 -0.474,-2.408c-0.181,-0.904 -0.373,-1.854 -0.577,-2.848c-0.181,-1.018 -0.373,-2.024 -0.576,-3.019c-0.453,-2.328 -0.95,-4.838 -1.492,-7.528l-0.204,-0c-0.52,2.69 -0.995,5.211 -1.424,7.562c-0.181,0.995 -0.373,2.001 -0.577,3.019c-0.181,1.017 -0.362,1.978 -0.542,2.882c-0.181,0.882 -0.351,1.684 -0.509,2.408c-0.136,0.723 -0.249,1.289 -0.339,1.696l-3.052,13.124l-11.124,-0l-10.208,-37.915l10.276,0l3.832,16.787c0.203,0.882 0.407,1.944 0.61,3.188c0.226,1.221 0.43,2.464 0.611,3.73c0.203,1.244 0.384,2.431 0.542,3.561c0.159,1.108 0.283,1.99 0.373,2.645l0.204,0c0.023,-0.429 0.068,-0.983 0.136,-1.661c0.09,-0.701 0.192,-1.447 0.305,-2.239c0.113,-0.791 0.226,-1.593 0.339,-2.407c0.135,-0.837 0.26,-1.617 0.373,-2.34c0.136,-0.724 0.249,-1.357 0.339,-1.9c0.113,-0.565 0.204,-0.961 0.271,-1.187l4.138,-18.177l11.395,0l3.967,18.177c0.113,0.498 0.26,1.267 0.441,2.307c0.181,1.04 0.362,2.159 0.543,3.357c0.203,1.176 0.373,2.329 0.509,3.459c0.135,1.108 0.214,1.978 0.237,2.611l0.203,0c0.068,-0.565 0.181,-1.401 0.34,-2.509c0.18,-1.108 0.373,-2.295 0.576,-3.561c0.203,-1.289 0.418,-2.566 0.644,-3.832c0.249,-1.266 0.475,-2.34 0.679,-3.222l3.968,-16.787l10.14,0l-10.344,37.915l-11.259,-0Z" style="fill-rule:nonzero;"/><path id="path12553" d="M202.903,881.682c-1.831,0 -3.357,0.644 -4.578,1.933c-1.198,1.289 -1.888,3.312 -2.068,6.071l13.192,-0c-0.023,-1.153 -0.17,-2.216 -0.441,-3.188c-0.272,-0.972 -0.678,-1.809 -1.221,-2.51c-0.543,-0.723 -1.221,-1.289 -2.035,-1.695c-0.814,-0.408 -1.763,-0.611 -2.849,-0.611l0,0Zm1.323,31.946c-2.713,0 -5.211,-0.395 -7.495,-1.187c-2.283,-0.791 -4.25,-1.978 -5.901,-3.561c-1.65,-1.605 -2.939,-3.617 -3.866,-6.036c-0.904,-2.442 -1.356,-5.302 -1.356,-8.58c-0,-3.324 0.418,-6.229 1.255,-8.716c0.836,-2.487 2,-4.555 3.493,-6.206c1.514,-1.673 3.323,-2.928 5.426,-3.764c2.125,-0.837 4.476,-1.255 7.054,-1.255c2.509,-0 4.77,0.384 6.782,1.153c2.035,0.746 3.753,1.854 5.155,3.323c1.424,1.47 2.51,3.278 3.256,5.426c0.768,2.125 1.153,4.567 1.153,7.325l-0,5.02l-23.129,-0c0.045,1.447 0.271,2.758 0.678,3.934c0.43,1.153 1.018,2.136 1.764,2.95c0.768,0.791 1.684,1.402 2.747,1.831c1.085,0.43 2.317,0.645 3.696,0.645c1.153,0 2.239,-0.057 3.256,-0.17c1.04,-0.135 2.046,-0.328 3.018,-0.576c0.972,-0.249 1.933,-0.554 2.883,-0.916c0.949,-0.384 1.922,-0.825 2.916,-1.322l0,8.003c-0.904,0.475 -1.82,0.882 -2.747,1.221c-0.904,0.317 -1.865,0.588 -2.882,0.814c-1.018,0.226 -2.114,0.384 -3.29,0.475c-1.175,0.113 -2.464,0.17 -3.866,0.17l0,-0.001Z" style="fill-rule:nonzero;"/><path id="path12555" d="M247.703,874.323c0.271,-0 0.565,0.012 0.881,0.035c0.34,0 0.656,0.024 0.95,0.071c0.317,0.024 0.599,0.059 0.848,0.106c0.271,0.024 0.475,0.059 0.61,0.107l0,9.699c-0.181,-0.047 -0.429,-0.093 -0.746,-0.136c-0.316,-0.047 -0.656,-0.083 -1.017,-0.106c-0.339,-0.047 -0.679,-0.071 -1.018,-0.071c-0.339,-0.024 -0.621,-0.036 -0.847,-0.036c-1.334,0 -2.567,0.17 -3.697,0.51c-1.108,0.339 -2.069,0.893 -2.883,1.661c-0.791,0.747 -1.413,1.742 -1.865,2.985c-0.429,1.22 -0.644,2.724 -0.644,4.51l-0,19.297l-10.344,-0l0,-37.915l7.834,-0l1.526,5.697l0.509,0c0.543,-0.972 1.13,-1.854 1.763,-2.645c0.633,-0.791 1.334,-1.458 2.103,-2.001c0.791,-0.565 1.673,-0.995 2.645,-1.289c0.995,-0.316 2.125,-0.474 3.392,-0.474l-0,-0.005Z" style="fill-rule:nonzero;"/><path id="path12557" d="M273.409,881.682c-1.831,0 -3.358,0.644 -4.578,1.933c-1.199,1.289 -1.888,3.312 -2.069,6.071l13.192,-0c-0.023,-1.153 -0.17,-2.216 -0.441,-3.188c-0.271,-0.972 -0.678,-1.809 -1.221,-2.51c-0.542,-0.723 -1.221,-1.289 -2.034,-1.695c-0.814,-0.408 -1.764,-0.611 -2.849,-0.611l-0,0Zm1.322,31.946c-2.713,0 -5.211,-0.395 -7.494,-1.187c-2.284,-0.791 -4.251,-1.978 -5.901,-3.561c-1.651,-1.605 -2.939,-3.617 -3.866,-6.036c-0.905,-2.442 -1.357,-5.302 -1.357,-8.58c0,-3.324 0.418,-6.229 1.255,-8.716c0.836,-2.487 2.001,-4.555 3.493,-6.206c1.515,-1.673 3.323,-2.928 5.426,-3.764c2.125,-0.837 4.477,-1.255 7.054,-1.255c2.51,-0 4.77,0.384 6.783,1.153c2.034,0.746 3.753,1.854 5.154,3.323c1.425,1.47 2.51,3.278 3.256,5.426c0.769,2.125 1.153,4.567 1.153,7.325l0,5.02l-23.129,-0c0.045,1.447 0.271,2.758 0.679,3.934c0.429,1.153 1.017,2.136 1.763,2.95c0.769,0.791 1.685,1.402 2.747,1.831c1.085,0.43 2.318,0.645 3.697,0.645c1.153,0 2.238,-0.057 3.255,-0.17c1.04,-0.135 2.046,-0.328 3.019,-0.576c0.972,-0.249 1.933,-0.554 2.882,-0.916c0.95,-0.384 1.922,-0.825 2.917,-1.322l-0,8.003c-0.905,0.475 -1.82,0.882 -2.747,1.221c-0.905,0.317 -1.865,0.588 -2.883,0.814c-1.017,0.226 -2.114,0.384 -3.289,0.475c-1.176,0.113 -2.465,0.17 -3.867,0.17l0,-0.001Z" style="fill-rule:nonzero;"/><path id="path12559" d="M309.594,913.628c-1.944,0 -3.719,-0.418 -5.324,-1.255c-1.605,-0.836 -2.985,-2.068 -4.138,-3.696c-1.153,-1.651 -2.057,-3.697 -2.713,-6.138c-0.633,-2.442 -0.949,-5.268 -0.949,-8.479c-0,-3.255 0.316,-6.104 0.949,-8.546c0.656,-2.464 1.572,-4.521 2.747,-6.172c1.199,-1.673 2.623,-2.928 4.273,-3.764c1.651,-0.837 3.471,-1.255 5.46,-1.255c1.221,-0 2.34,0.147 3.358,0.44c1.017,0.272 1.933,0.668 2.747,1.187c0.814,0.498 1.537,1.086 2.17,1.764c0.656,0.656 1.232,1.379 1.73,2.17l0.339,0c-0.136,-0.881 -0.26,-1.774 -0.373,-2.679c-0.113,-0.768 -0.215,-1.582 -0.305,-2.442c-0.068,-0.881 -0.102,-1.695 -0.102,-2.441l0,-12.141l10.344,-0l-0,52.769l-7.902,-0l-2.001,-4.918l-0.441,0c-0.475,0.769 -1.018,1.504 -1.628,2.205c-0.61,0.678 -1.323,1.265 -2.136,1.763c-0.792,0.498 -1.696,0.893 -2.714,1.187c-0.994,0.294 -2.125,0.441 -3.391,0.441l0,0Zm3.765,-8.241c1.22,0 2.26,-0.203 3.12,-0.61c0.859,-0.43 1.548,-1.063 2.068,-1.899c0.543,-0.859 0.939,-1.922 1.187,-3.188c0.272,-1.266 0.419,-2.747 0.441,-4.443l0,-1.12c0,-1.831 -0.113,-3.459 -0.339,-4.883c-0.226,-1.424 -0.599,-2.611 -1.119,-3.561c-0.52,-0.972 -1.221,-1.707 -2.103,-2.204c-0.881,-0.498 -1.989,-0.747 -3.323,-0.747c-2.171,0 -3.765,0.984 -4.782,2.951c-1.017,1.944 -1.526,4.781 -1.526,8.512c0,3.73 0.509,6.534 1.526,8.41c1.04,1.854 2.657,2.781 4.85,2.781l-0,0.001Z" style="fill-rule:nonzero;"/><path id="path12561" d="M378.913,874.323c1.944,-0 3.719,0.418 5.324,1.255c1.605,0.836 2.984,2.08 4.137,3.73c1.153,1.651 2.046,3.697 2.68,6.138c0.655,2.442 0.983,5.268 0.983,8.479c0,3.255 -0.328,6.115 -0.983,8.58c-0.634,2.441 -1.538,4.488 -2.714,6.138c-1.175,1.65 -2.588,2.894 -4.239,3.73c-1.65,0.837 -3.47,1.255 -5.46,1.255c-1.266,0 -2.396,-0.136 -3.391,-0.407c-0.972,-0.272 -1.843,-0.634 -2.611,-1.086c-0.769,-0.452 -1.447,-0.96 -2.035,-1.526c-0.565,-0.588 -1.085,-1.198 -1.56,-1.831l-0.712,-0l-1.73,4.171l-7.902,0l0,-52.769l10.344,0l-0,12.277c-0,0.746 -0.023,1.56 -0.067,2.442c-0.045,0.859 -0.091,1.661 -0.136,2.408c-0.068,0.881 -0.136,1.763 -0.204,2.645l0.407,-0c0.475,-0.792 1.018,-1.526 1.628,-2.205c0.611,-0.678 1.311,-1.265 2.103,-1.763c0.814,-0.52 1.729,-0.927 2.747,-1.221c1.017,-0.294 2.148,-0.441 3.391,-0.441l-0,0.001Zm-3.493,8.275c-1.153,-0 -2.137,0.215 -2.951,0.645c-0.791,0.407 -1.436,1.028 -1.933,1.865c-0.497,0.836 -0.859,1.899 -1.085,3.188c-0.226,1.266 -0.362,2.747 -0.407,4.442l-0,1.12c-0,1.831 0.102,3.459 0.305,4.883c0.226,1.425 0.588,2.623 1.085,3.595c0.498,0.95 1.153,1.673 1.967,2.171c0.837,0.497 1.865,0.746 3.086,0.746c2.058,0 3.561,-0.972 4.511,-2.916c0.972,-1.967 1.458,-4.816 1.458,-8.547c0,-3.73 -0.486,-6.522 -1.458,-8.376c-0.95,-1.877 -2.476,-2.815 -4.578,-2.815l-0,-0.001Z" style="fill-rule:nonzero;"/><path id="path12563" d="M395.496,875.035l11.327,0l6.104,21.331c0.362,1.176 0.622,2.431 0.78,3.765c0.181,1.334 0.294,2.532 0.339,3.595l0.203,-0c0.047,-0.52 0.104,-1.097 0.17,-1.73c0.091,-0.633 0.192,-1.277 0.305,-1.933c0.113,-0.656 0.238,-1.3 0.373,-1.933c0.158,-0.656 0.317,-1.244 0.475,-1.764l5.969,-21.331l11.395,0l-14.99,42.765c-1.402,4.001 -3.312,6.974 -5.731,8.919c-2.42,1.944 -5.449,2.916 -9.089,2.916c-1.176,0 -2.193,-0.068 -3.052,-0.203c-0.859,-0.113 -1.594,-0.238 -2.205,-0.373l0,-8.207c0.475,0.113 1.074,0.215 1.798,0.305c0.723,0.09 1.481,0.135 2.272,0.135c1.085,0 2.012,-0.146 2.781,-0.44c0.768,-0.294 1.424,-0.712 1.967,-1.255c0.565,-0.52 1.04,-1.153 1.424,-1.899c0.407,-0.747 0.758,-1.583 1.051,-2.51l0.645,-1.899l-14.311,-38.254Z" style="fill-rule:nonzero;"/></g></g><g id="Zorin1" serif:id="Zorin"><g id="Logo"><path id="path3795" d="M237.244,670.694l54.86,95.022l330.192,0l54.864,-95.022l-439.916,0Z" style="fill:#15a6f0;fill-rule:nonzero;"/><path id="path3803" d="M787.139,479.769l-55.339,95.903l-351.143,0l351.143,-191.803l55.339,95.9Z" style="fill:#15a6f0;fill-rule:nonzero;"/><path id="path3801" d="M127.265,479.772l55.339,-95.903l351.143,-0l-351.143,191.803l-55.339,-95.9Z" style="fill:#15a6f0;fill-rule:nonzero;"/><path id="path3025" d="M237.244,288.847l54.86,-95.022l330.192,0l54.864,95.022l-439.916,-0Z" style="fill:#15a6f0;fill-rule:nonzero;"/></g><path id="ZORIN-OS" serif:id="ZORIN OS" d="M46.601,1173.4l0,-7.576l70.361,-57.576l-67.331,-0l0,-7.574l80.304,-0l-0,7.576l-70.739,57.574l72.253,-0l-0,7.576l-84.848,0Zm181.988,-74.243c5.556,0 10.228,0.348 14.016,1.043c3.818,0.662 6.959,1.688 9.422,3.076c2.463,1.358 4.357,3.079 5.682,5.162c1.325,2.084 2.288,4.531 2.889,7.34c0.631,2.81 0.994,5.982 1.089,9.518c0.127,3.536 0.19,7.45 0.19,11.742c0,4.293 -0.063,8.207 -0.19,11.743c-0.095,3.535 -0.458,6.708 -1.089,9.517c-0.599,2.81 -1.562,5.257 -2.889,7.34c-1.325,2.084 -3.219,3.82 -5.682,5.208c-2.463,1.358 -5.604,2.368 -9.422,3.031c-3.788,0.695 -8.46,1.042 -14.016,1.042l-27.367,0c-5.555,0 -10.243,-0.347 -14.061,-1.042c-3.788,-0.663 -6.914,-1.673 -9.377,-3.031c-2.463,-1.388 -4.372,-3.124 -5.728,-5.208c-1.325,-2.083 -2.303,-4.53 -2.935,-7.34c-0.599,-2.809 -0.946,-5.982 -1.043,-9.517c-0.094,-3.536 -0.141,-7.45 -0.141,-11.743c-0,-4.292 0.047,-8.206 0.141,-11.742c0.095,-3.536 0.442,-6.708 1.043,-9.518c0.632,-2.809 1.61,-5.256 2.935,-7.34c1.358,-2.083 3.267,-3.804 5.728,-5.162c2.463,-1.388 5.589,-2.414 9.377,-3.079c3.818,-0.693 8.506,-1.04 14.061,-1.04l27.367,0Zm0,68.183c4.009,0 7.387,-0.111 10.133,-0.332c2.777,-0.252 5.066,-0.741 6.867,-1.467c1.798,-0.726 3.187,-1.768 4.165,-3.126c0.978,-1.357 1.689,-3.157 2.132,-5.398c0.441,-2.242 0.693,-4.988 0.757,-8.239c0.094,-3.283 0.141,-7.197 0.141,-11.742c0,-4.545 -0.047,-8.443 -0.141,-11.696c-0.064,-3.283 -0.316,-6.046 -0.757,-8.287c-0.441,-2.242 -1.152,-4.041 -2.132,-5.399c-0.978,-1.357 -2.367,-2.399 -4.165,-3.125c-1.768,-0.726 -4.041,-1.2 -6.818,-1.421c-2.746,-0.253 -6.139,-0.379 -10.179,-0.379l-27.367,0c-4.04,0 -7.45,0.126 -10.229,0.379c-2.746,0.221 -5.018,0.695 -6.817,1.421c-1.798,0.726 -3.187,1.768 -4.165,3.125c-0.979,1.358 -1.689,3.157 -2.132,5.399c-0.441,2.241 -0.693,5.004 -0.757,8.287c-0.064,3.251 -0.096,7.149 -0.096,11.696c0,4.545 0.032,8.459 0.096,11.742c0.094,3.251 0.363,5.997 0.806,8.239c0.441,2.241 1.135,4.041 2.083,5.398c0.978,1.358 2.366,2.4 4.165,3.126c1.799,0.726 4.071,1.215 6.817,1.467c2.777,0.221 6.187,0.332 10.229,0.332l27.364,0Zm197.165,-66.666l9.09,-0l0,72.726l-9.09,0l-0,-72.726Zm60.727,72.726l-9.091,0l0,-72.726l15.957,-0l66.666,63.636l0,-63.636l9.091,-0l-0,72.726l-12.121,0l-70.502,-65.152l-0,65.152Zm228.321,-74.243c5.555,0 10.227,0.348 14.015,1.043c3.819,0.662 6.96,1.688 9.423,3.076c2.463,1.358 4.357,3.079 5.682,5.162c1.325,2.084 2.288,4.531 2.888,7.34c0.632,2.81 0.995,5.982 1.089,9.518c0.127,3.536 0.191,7.45 0.191,11.742c-0,4.293 -0.064,8.207 -0.191,11.743c-0.094,3.535 -0.457,6.708 -1.089,9.517c-0.599,2.81 -1.562,5.257 -2.888,7.34c-1.325,2.084 -3.219,3.82 -5.682,5.208c-2.463,1.358 -5.604,2.368 -9.423,3.031c-3.788,0.695 -8.46,1.042 -14.015,1.042l-27.367,0c-5.556,0 -10.243,-0.347 -14.062,-1.042c-3.788,-0.663 -6.913,-1.673 -9.376,-3.031c-2.463,-1.388 -4.373,-3.124 -5.729,-5.208c-1.325,-2.083 -2.303,-4.53 -2.934,-7.34c-0.599,-2.809 -0.947,-5.982 -1.043,-9.517c-0.095,-3.536 -0.142,-7.45 -0.142,-11.743c0,-4.292 0.047,-8.206 0.142,-11.742c0.094,-3.536 0.442,-6.708 1.043,-9.518c0.631,-2.809 1.61,-5.256 2.934,-7.34c1.358,-2.083 3.268,-3.804 5.729,-5.162c2.463,-1.388 5.588,-2.414 9.376,-3.079c3.819,-0.693 8.506,-1.04 14.062,-1.04l27.367,0Zm-0,68.183c4.009,0 7.387,-0.111 10.133,-0.332c2.777,-0.252 5.066,-0.741 6.866,-1.467c1.799,-0.726 3.187,-1.768 4.166,-3.126c0.978,-1.357 1.688,-3.157 2.131,-5.398c0.441,-2.242 0.694,-4.988 0.757,-8.239c0.095,-3.283 0.142,-7.197 0.142,-11.742c-0,-4.545 -0.047,-8.443 -0.142,-11.696c-0.064,-3.283 -0.316,-6.046 -0.757,-8.287c-0.441,-2.242 -1.151,-4.041 -2.131,-5.399c-0.979,-1.357 -2.367,-2.399 -4.166,-3.125c-1.768,-0.726 -4.04,-1.2 -6.817,-1.421c-2.746,-0.253 -6.14,-0.379 -10.18,-0.379l-27.367,0c-4.04,0 -7.449,0.126 -10.228,0.379c-2.746,0.221 -5.019,0.695 -6.817,1.421c-1.799,0.726 -3.187,1.768 -4.166,3.125c-0.978,1.358 -1.689,3.157 -2.131,5.399c-0.442,2.241 -0.694,5.004 -0.757,8.287c-0.064,3.251 -0.096,7.149 -0.096,11.696c-0,4.545 0.032,8.459 0.096,11.742c0.094,3.251 0.363,5.997 0.805,8.239c0.441,2.241 1.136,4.041 2.083,5.398c0.978,1.358 2.367,2.4 4.166,3.126c1.798,0.726 4.071,1.215 6.817,1.467c2.777,0.221 6.186,0.332 10.228,0.332l27.365,0Zm118.635,-34.848c4.987,-0 9.264,0.205 12.831,0.615c3.566,0.41 6.565,1.025 8.995,1.846c2.463,0.789 4.421,1.784 5.873,2.984c1.452,1.199 2.572,2.572 3.362,4.119c0.789,1.515 1.295,3.22 1.516,5.113c0.252,1.895 0.379,3.946 0.379,6.155c-0,2.209 -0.205,4.293 -0.615,6.251c-0.38,1.926 -1.074,3.694 -2.083,5.304c-1.011,1.61 -2.384,3.046 -4.119,4.309c-1.737,1.264 -3.947,2.337 -6.63,3.221c-2.682,0.884 -5.917,1.547 -9.705,1.99c-3.757,0.474 -8.161,0.71 -13.21,0.71l-12.121,0c-4.545,0 -8.522,-0.173 -11.933,-0.519c-3.408,-0.348 -6.344,-0.869 -8.807,-1.563c-2.463,-0.726 -4.499,-1.625 -6.109,-2.698c-1.61,-1.105 -2.904,-2.384 -3.882,-3.836c-0.948,-1.483 -1.61,-3.156 -1.988,-5.02c-0.379,-1.893 -0.569,-3.977 -0.569,-6.251l9.09,0c0,2.841 0.411,5.066 1.231,6.676c0.82,1.61 2.178,2.825 4.073,3.645c1.893,0.79 4.37,1.295 7.432,1.517c3.093,0.188 6.913,0.283 11.459,0.283l12.121,-0c5.304,-0 9.707,-0.253 13.21,-0.757c3.503,-0.505 6.296,-1.31 8.38,-2.415c2.083,-1.106 3.551,-2.542 4.402,-4.31c0.853,-1.799 1.28,-3.977 1.28,-6.534c-0,-2.557 -0.3,-4.688 -0.898,-6.392c-0.569,-1.705 -1.721,-3.062 -3.458,-4.073c-1.704,-1.011 -4.119,-1.722 -7.245,-2.132c-3.125,-0.443 -7.212,-0.664 -12.262,-0.664l-12.499,-0c-5.556,-0 -10.322,-0.205 -14.299,-0.616c-3.946,-0.41 -7.26,-0.994 -9.942,-1.753c-2.683,-0.789 -4.829,-1.752 -6.439,-2.888c-1.61,-1.167 -2.842,-2.493 -3.695,-3.978c-0.82,-1.483 -1.356,-3.124 -1.609,-4.925c-0.252,-1.831 -0.378,-3.804 -0.378,-5.919c-0,-2.209 0.19,-4.26 0.569,-6.155c0.41,-1.893 1.151,-3.598 2.224,-5.113c1.073,-1.547 2.541,-2.92 4.403,-4.119c1.862,-1.2 4.245,-2.195 7.149,-2.984c2.935,-0.821 6.454,-1.436 10.558,-1.846c4.104,-0.409 8.934,-0.613 14.489,-0.613l9.091,0c4.545,0 8.522,0.173 11.933,0.52c3.408,0.316 6.344,0.837 8.807,1.563c2.463,0.695 4.499,1.579 6.109,2.652c1.641,1.041 2.935,2.304 3.882,3.787c0.979,1.452 1.658,3.109 2.037,4.971c0.379,1.862 0.569,3.93 0.569,6.202l-9.09,-0c-0,-2.841 -0.411,-5.066 -1.231,-6.676c-0.82,-1.61 -2.178,-2.809 -4.073,-3.599c-1.893,-0.82 -4.387,-1.325 -7.481,-1.514c-3.093,-0.221 -6.913,-0.332 -11.459,-0.332l-9.091,0c-6.06,0 -11.048,0.221 -14.963,0.662c-3.915,0.41 -7.008,1.121 -9.281,2.132c-2.272,1.009 -3.85,2.366 -4.734,4.072c-0.884,1.705 -1.326,3.836 -1.326,6.393c-0,1.577 0.11,2.982 0.332,4.214c0.221,1.231 0.663,2.32 1.326,3.267c0.695,0.915 1.658,1.688 2.888,2.32c1.231,0.632 2.856,1.153 4.876,1.563c2.02,0.41 4.482,0.709 7.386,0.898c2.935,0.16 6.424,0.24 10.466,0.24l12.496,-0Zm-532.047,-31.818l0,7.576l51.467,0l10.18,0.139c2.777,0.092 5.066,0.314 6.866,0.662c1.799,0.317 3.187,0.775 4.165,1.375c0.946,0.562 1.692,1.406 2.132,2.415c0.474,1.009 0.741,2.257 0.803,3.74l0.142,5.304l-0.142,5.728c-0.061,1.578 -0.329,2.938 -0.803,4.073c-0.42,1.108 -1.162,2.065 -2.132,2.747c-0.978,0.695 -2.368,1.23 -4.165,1.609c-1.797,0.378 -4.089,0.646 -6.866,0.806l-10.18,0.19l-51.467,0l0,36.365l9.091,-0l0,-28.791l37.933,0l30.868,28.788l13.328,0l-31.113,-29.014l5.373,-0.438c3.821,-0.44 6.959,-1.089 9.423,-1.941c2.494,-0.852 4.402,-1.91 5.728,-3.172c1.316,-1.231 2.323,-2.757 2.937,-4.451c0.631,-1.704 0.994,-3.599 1.089,-5.682l0.188,-6.817l-0.141,-6.488c-0.063,-1.957 -0.348,-3.725 -0.853,-5.303c-0.504,-1.579 -1.31,-2.951 -2.414,-4.12c-1.074,-1.168 -2.621,-2.147 -4.64,-2.937c-2.018,-0.79 -4.593,-1.372 -7.718,-1.751c-3.094,-0.409 -6.897,-0.615 -11.41,-0.615l-57.669,0.003Z" style="fill:#fff;fill-rule:nonzero;"/></g></g></svg>